<?xml version="1.0" encoding="utf-8"?>
<!-- Generator: Adobe Illustrator 30.0.0, SVG Export Plug-In . SVG Version: 9.03 Build 0)  -->
<svg version="1.1" xmlns="http://www.w3.org/2000/svg" xmlns:xlink="http://www.w3.org/1999/xlink" x="0px" y="0px"
	 viewBox="0 0 1024 1024" style="enable-background:new 0 0 1024 1024;" xml:space="preserve">
<g>
</g>
<g id="Layer_1">
	
		<radialGradient id="SVGID_1_" cx="495.038208" cy="-1730.1003418" r="792.9974976" gradientTransform="matrix(0.8240319 0 0 -0.8240319 -41.7044296 -1064.0563965)" gradientUnits="userSpaceOnUse">
		<stop  offset="0.3315" style="stop-color:#FFFFFF"/>
		<stop  offset="0.6" style="stop-color:#DDDDDD"/>
		<stop  offset="1" style="stop-color:#7F8384"/>
	</radialGradient>
	<circle style="fill:url(#SVGID_1_);" cx="512.0008545" cy="512.0016479" r="444.0626526"/>
	
		<radialGradient id="SVGID_00000037661198083387259090000010591443504545716658_" cx="486.2732849" cy="-1721.5688477" r="804.9360962" gradientTransform="matrix(0.8240319 0 0 -0.8240319 -41.7044296 -1064.0563965)" gradientUnits="userSpaceOnUse">
		<stop  offset="0" style="stop-color:#FFFFFF"/>
		<stop  offset="0.12" style="stop-color:#FEE2D2"/>
		<stop  offset="0.55" style="stop-color:#ED2224"/>
		<stop  offset="1" style="stop-color:#4F1F1D"/>
	</radialGradient>
	<path style="fill:url(#SVGID_00000037661198083387259090000010591443504545716658_);" d="M851.9058228,253.4272156
		C807.211731,175.6938019,738.227417,115.546524,651.1989746,87.2356796
		c-87.0747681-28.2738457-178.2256165-20.1308289-260.0675659,16.4664688l65.5605164,21.2875137
		c63.8486633-42.4269638,132.2314758-57.9727249,194.5070496-37.7493591
		c62.2755737,20.260376,108.4501953,73.0049057,135.1462402,144.8577881L851.9058228,253.4272156z M688.8604126,200.4420929
		c0.097168-63.2009125-12.2145386-104.9338684-37.661438-113.2110596
		c-25.4468994-8.2401733-59.9622192,18.2708893-97.0221558,69.4469757L688.8604126,200.4420929z M622.4208374,544.762085
		c21.2366333-65.3708191,37.5689087-128.5717163,48.6730347-186.0354919l-195.5711975-63.5710449
		c-24.7991943,53.0684204-48.7192993,113.7709045-70.0021667,179.192627L622.4208374,544.762085z M356.8475037,660.3883057
		c-11.7055969,60.3831787-17.7203369,114.5111084-17.7666016,158.2844849l134.6836548,43.7640381
		c25.6782837-35.4406128,52.6520081-82.7718506,78.6541443-138.4775391L356.8475037,660.3883057z M144.1112061,755.3284912
		c53.4848175,80.59729,133.526947,144.3533936,232.6311646,176.5507202
		c99.104187,32.206543,201.3591919,27.6677246,291.9918823-6.1026611l-31.9243164-10.3591919
		c-81.84198,36.5926514-172.9928284,44.7402954-260.0675659,16.4664917
		c-87.0284729-28.3108521-156.0127869-88.4581299-200.7068329-166.1915283L144.1112061,755.3284912z M241.5960541,787.026062
		c26.6961517,71.8482666,72.8707428,124.5973511,135.1463165,144.8577881
		c62.2755737,20.2233887,130.6583862,4.6776123,194.507019-37.7493286l-97.4848328-31.6975708
		c-37.0599976,51.1760864-71.5752563,77.6871338-97.0221863,69.4468994
		c-25.4469299-8.2771606-37.7539673-50.0101318-37.661438-113.2109985L241.5960541,787.026062z M120.0569305,583.4923096
		c5.6445923,65.9769897,24.9796295,128.2941895,55.9832306,182.1953735l65.5605469,21.3337402
		c-18.5068665-49.8343506-27.6677551-108.8712158-26.326004-172.6273193L120.0569305,583.4923096z M636.8099365,915.4173584
		c56.7744141-25.3543701,109.0516357-64.4547119,152.4039307-114.5111694l-95.2177734-30.9572754
		c-36.4122925,52.3743286-78.4690552,94.7133789-122.7467041,124.1856079L636.8099365,915.4173584z M91.6442795,372.3291321
		c-21.236618,65.4263611-26.5064392,132.1852112-17.9053802,196.0847473l46.3134079,15.0830688
		c-5.3669891-62.8770752,1.7118835-129.0436401,22.9485016-194.4607544L91.6442795,372.3291321z M835.5272827,815.9430542
		c44.5089722-46.6373291,79.4869995-103.7355957,100.7698364-169.1573486l-51.3565674-16.7023926
		c-21.2828979,65.4216919-54.4564209,123.1168213-95.7220459,170.822876L835.5272827,815.9430542z M248.5824127,423.3108826
		c-21.236618,65.4263306-32.016861,130.4270325-33.3123474,191.0878601l141.5774384,45.9848633
		c11.1040955-57.4637451,27.4364014-120.6646729,48.6730347-186.0354919L248.5824127,423.3108826z M694.0007324,769.9442139
		c34.6032104-49.8297119,64.0800171-108.7739868,85.362854-174.1448364L622.4254761,544.762085
		c-21.2828979,65.4263916-45.2030029,126.1288452-70.0021362,179.192627L694.0007324,769.9442139z M884.9405518,630.083313
		c21.2366333-65.4216919,28.3154907-131.5837097,22.9485474-194.4607544l-95.2177734-30.9064331
		c-1.2954712,60.6562195-12.0757446,125.6615601-33.3123169,191.0878906L884.9405518,630.083313z M238.7275085,218.2086792
		c-41.2702942,47.7060547-74.4438324,105.4011536-95.7220764,170.822876l105.5769806,34.2793274
		c21.2875214-65.3708191,50.7596588-124.315155,85.3628693-174.1448822L238.7275085,218.2086792z M812.6713257,404.7161255
		c1.3417358-63.7514954-7.8191528-122.7929688-26.3259888-172.6273041l-97.4848633-31.6467285
		c-0.0462036,43.8196106-6.0609741,97.9012604-17.7665405,158.2845001L812.6713257,404.7161255z M456.6965942,124.9850235
		c-44.2776489,29.4258957-86.3344421,71.8112106-122.7467041,124.1856003l141.5774231,45.9848938
		c26.0021362-55.7056122,52.9295959-103.0368958,78.6541443-138.4775238L456.6965942,124.9850235z M954.2024536,450.7010193
		c-9.0220947-67.1336365-33.3123169-131.0701904-70.3723145-186.9146118l-31.9243164-10.3591919
		c30.9989624,53.8965759,50.3386841,116.2184143,55.9832764,182.195343L954.2024536,450.7010193z M359.2071228,93.3383026
		c-62.83078,23.411171-120.0632172,60.8366547-166.7930145,109.8335571l46.3134003,15.0368195
		c43.3522949-50.0564117,95.6341553-89.1567688,152.4039307-114.5111618L359.2071228,93.3383026z"/>
</g>
</svg>
