<?xml version="1.0" encoding="iso-8859-1"?>
<!-- Generator: Adobe Illustrator 22.1.0, SVG Export Plug-In . SVG Version: 6.00 Build 0)  -->
<svg version="1.1" id="Layer_1" xmlns="http://www.w3.org/2000/svg" xmlns:xlink="http://www.w3.org/1999/xlink" x="0px" y="0px"
	 width="850.4px" height="850.4px" viewBox="0 0 850.4 850.4" enable-background="new 0 0 850.4 850.4" xml:space="preserve">
<g>
	<path fill="#CC3366" d="M845,241.704c-4.31,17.61-19.6,39.81-38.09,61.66c-4.99-19.42-11.88-33.87-19.94-40.02
		c-4.58-3.5-11.72-5.92-21.01-7.16c0.48-43.43-13.8-86.09-41.96-119.68c-67.7-80.5-250.6-17.4-300.8,126.2
		c-50.3-143.6-232.9-206.7-300.4-126.2c-33.2,39.6-47.2,91.8-40.3,143c24.9,187.4,252.4,239.3,339.3,495.9c0.4,1.4,2.4,1.4,2.9,0
		c6.51-19.25,13.81-37.34,21.77-54.42c7.84,3.45,18.38,4.81,27.97,5.24c-0.84,1.67-1.62,3.27-2.34,4.78
		c-18.5,39.2-32,79.8-47.1,124.2c-0.6,1.7-3,1.7-3.6,0c-107.5-317.6-388.9-381.7-419.7-613.5c-8.4-63.3,8.9-127.9,49.9-176.8
		c83.6-99.5,309.4-21.5,371.5,156.1c62.2-177.6,288.4-255.6,372-156.1C836.2,113.804,861.2,175.604,845,241.704z"/>
	<path fill="#50332C" d="M442.521,715.466c31.629,24.049,212.006-2.265,304.257-123.309
		c92.385-121.302,70.091-302.42,38.471-326.558c-16.763-12.821-70.943-8.932-126.002,8.873
		c-41.35,13.457-118.998,46.742-173.707,118.595c-54.741,71.814-66.157,155.381-68.093,198.77
		C414.974,649.483,425.668,702.636,442.521,715.466z M619.345,302.543c-2.212-1.335-1.961-4.626,0.379-5.694
		c17.942-8.168,35.764-14.564,52.61-19.47c0.908-0.253,1.833-0.126,2.646,0.404c30.838,20.168,79.106,54.087,129.872,98.345
		c0.697,0.609,1.134,1.481,1.152,2.402c0.066,4.098-0.019,8.271-0.097,12.552c-0.332,12.006-1.264,27-3.651,43.959
		c-0.34,2.544-3.458,3.644-5.344,1.927C721.716,368.576,648.124,320.184,619.345,302.543z M532.574,565.214
		c1.024-2.17,2.21-4.703,3.731-7.528l-4.541-3.492c-4.144-3.128-4.988-9.033-1.81-13.136c1.544-2.137,3.846-3.371,6.249-3.622
		c2.321-0.331,4.842,0.241,6.956,1.837l2.77,2.074c1.776-2.853,3.661-5.894,5.718-9.044l-3.86-2.902
		c-4.103-3.178-4.876-9.076-1.787-13.188c1.59-2.061,3.819-3.284,6.251-3.639c2.409-0.304,4.912,0.266,6.953,1.872l2.954,2.219
		c2.375-3.443,4.812-6.971,7.366-10.595l-3.655-2.792c-4.128-3.109-4.963-9.102-1.767-13.204c1.501-2.069,3.799-3.267,6.19-3.573
		c2.345-0.383,4.937,0.196,6.98,1.785l3.219,2.461c2.601-3.547,5.299-7.157,8.075-10.831l-3.138-2.363
		c-2.06-1.59-3.259-3.888-3.589-6.21c-0.358-2.414,0.284-4.91,1.803-6.978c3.178-4.103,9.102-4.963,13.204-1.767l3.158,2.347
		c2.972-3.835,5.947-7.707,8.791-11.338l-3.219-2.461c-2.043-1.588-3.257-3.906-3.623-6.231c-0.304-2.409,0.268-4.93,1.856-6.973
		c3.109-4.128,9.082-4.947,13.204-1.767l3.585,2.767c2.824-3.435,5.599-6.731,8.26-9.966l-2.904-2.178
		c-2.045-1.57-3.284-3.819-3.554-6.206c-0.358-2.414,0.195-4.919,1.785-6.98c3.107-4.11,9.084-4.965,13.205-1.785l3.814,2.826
		c2.417-2.772,4.825-5.455,7.102-7.899l-2.7-2.05c-2.044-1.57-3.259-3.888-3.573-6.19c-0.358-2.414,0.266-4.912,1.785-6.98
		c3.196-4.102,9.12-4.962,13.206-1.785l4.45,3.321c2.485-2.369,4.759-4.417,6.796-6.073c4.088-3.455,10.329-2.41,13.239,2.093
		l0.367,0.667c2.239,3.446,1.801,8.089-1.121,11.046c-1.106,1.171-2.441,2.464-3.857,4.037l4.575,3.513
		c4.182,3.114,4.945,9.101,1.856,13.213c-3.214,4.1-9.094,4.874-13.274,1.742l-6.119-4.674c-2.275,2.426-4.613,5.134-7.196,7.944
		l5.136,3.857c4.146,3.111,4.912,9.079,1.715,13.181c-3.109,4.128-9.033,4.988-13.118,1.812l-6.169-4.715
		c-2.673,3.18-5.448,6.476-8.342,9.886l5.467,4.159c4.103,3.178,4.911,9.079,1.785,13.206c-3.107,4.11-9.076,4.876-13.188,1.786
		l-5.991-4.517c-2.933,3.623-5.873,7.317-8.856,11.259l6.171,4.697c4.041,3.082,4.876,9.076,1.767,13.204
		c-3.178,4.103-9.083,4.947-13.186,1.769l-6.259-4.724c-2.605,3.583-5.282,7.177-8.005,10.856l6.055,4.596
		c4.102,3.196,4.874,9.094,1.767,13.204c-3.125,4.109-9.083,4.947-13.186,1.769l-5.537-4.184c-2.519,3.447-4.885,6.982-7.363,10.559
		l6.305,4.801c4.103,3.178,4.892,9.095,1.715,13.181c-3.109,4.128-9.031,4.97-13.134,1.792l-5.331-4.074
		c-1.931,2.964-3.903,5.979-5.788,9.02l6.419,4.92c4.109,3.125,4.892,9.095,1.769,13.186c-3.18,4.121-9.06,4.895-13.206,1.785
		l-4.995-3.825c-0.845,1.449-1.78,2.889-2.628,4.374c-2.228,3.782-6.872,5.381-10.95,3.773
		C532.805,575.347,530.566,569.883,532.574,565.214z M424.868,605.813c-0.695-0.627-1.079-1.494-1.057-2.447
		c0.208-17.534,1.699-36.383,4.784-55.869c0.413-2.555,3.495-3.658,5.374-1.869c24.579,22.978,90.943,81.275,177.065,135.673
		c2.171,1.385,1.957,4.662-0.415,5.69c-15.901,6.837-30.282,11.786-41.8,15.287c-3.974,1.196-7.901,2.27-11.768,3.296
		c-0.906,0.235-1.863,0.069-2.641-0.458C498.188,667.802,452.552,630.213,424.868,605.813z"/>
</g>
</svg>
