  0
SECTION
  2
HEADER
  9
$ACADVER
  1
AC1024
  9
$ACADMAINTVER
 70
     6
  9
$DWGCODEPAGE
  3
ANSI_1252
  9
$INSBASE
 10
0.0
 20
0.0
 30
0.0
  9
$EXTMIN
 10
1.000000000000000E+20
 20
1.000000000000000E+20
 30
1.000000000000000E+20
  9
$EXTMAX
 10
-1.000000000000000E+20
 20
-1.000000000000000E+20
 30
-1.000000000000000E+20
  9
$LIMMIN
 10
0.0
 20
0.0
  9
$LIMMAX
 10
12.0
 20
9.0
  9
$ORTHOMODE
 70
     0
  9
$REGENMODE
 70
     1
  9
$FILLMODE
 70
     1
  9
$QTEXTMODE
 70
     0
  9
$MIRRTEXT
 70
     1
  9
$LTSCALE
 40
1.0
  9
$ATTMODE
 70
     1
  9
$TEXTSIZE
 40
0.2
  9
$TRACEWID
 40
0.05
  9
$TEXTSTYLE
  7
Standard
  9
$CLAYER
  8
0
  9
$CELTYPE
  6
ByLayer
  9
$CECOLOR
 62
   256
  9
$CELTSCALE
 40
1.0
  9
$DISPSILH
 70
     0
  9
$DIMSCALE
 40
1.0
  9
$DIMASZ
 40
0.18
  9
$DIMEXO
 40
0.0625
  9
$DIMDLI
 40
0.38
  9
$DIMRND
 40
0.0
  9
$DIMDLE
 40
0.0
  9
$DIMEXE
 40
0.18
  9
$DIMTP
 40
0.0
  9
$DIMTM
 40
0.0
  9
$DIMTXT
 40
0.18
  9
$DIMCEN
 40
0.09
  9
$DIMTSZ
 40
0.0
  9
$DIMTOL
 70
     0
  9
$DIMLIM
 70
     0
  9
$DIMTIH
 70
     1
  9
$DIMTOH
 70
     1
  9
$DIMSE1
 70
     0
  9
$DIMSE2
 70
     0
  9
$DIMTAD
 70
     0
  9
$DIMZIN
 70
     0
  9
$DIMBLK
  1

  9
$DIMASO
 70
     1
  9
$DIMSHO
 70
     1
  9
$DIMPOST
  1

  9
$DIMAPOST
  1

  9
$DIMALT
 70
     0
  9
$DIMALTD
 70
     2
  9
$DIMALTF
 40
25.4
  9
$DIMLFAC
 40
1.0
  9
$DIMTOFL
 70
     0
  9
$DIMTVP
 40
0.0
  9
$DIMTIX
 70
     0
  9
$DIMSOXD
 70
     0
  9
$DIMSAH
 70
     0
  9
$DIMBLK1
  1

  9
$DIMBLK2
  1

  9
$DIMSTYLE
  2
Standard
  9
$DIMCLRD
 70
     0
  9
$DIMCLRE
 70
     0
  9
$DIMCLRT
 70
     0
  9
$DIMTFAC
 40
1.0
  9
$DIMGAP
 40
0.09
  9
$DIMJUST
 70
     0
  9
$DIMSD1
 70
     0
  9
$DIMSD2
 70
     0
  9
$DIMTOLJ
 70
     1
  9
$DIMTZIN
 70
     0
  9
$DIMALTZ
 70
     0
  9
$DIMALTTZ
 70
     0
  9
$DIMUPT
 70
     0
  9
$DIMDEC
 70
     4
  9
$DIMTDEC
 70
     4
  9
$DIMALTU
 70
     2
  9
$DIMALTTD
 70
     2
  9
$DIMTXSTY
  7
Standard
  9
$DIMAUNIT
 70
     0
  9
$DIMADEC
 70
     0
  9
$DIMALTRND
 40
0.0
  9
$DIMAZIN
 70
     0
  9
$DIMDSEP
 70
    46
  9
$DIMATFIT
 70
     3
  9
$DIMFRAC
 70
     0
  9
$DIMLDRBLK
  1

  9
$DIMLUNIT
 70
     2
  9
$DIMLWD
 70
    -2
  9
$DIMLWE
 70
    -2
  9
$DIMTMOVE
 70
     0
  9
$DIMFXL
 40
1.0
  9
$DIMFXLON
 70
     0
  9
$DIMJOGANG
 40
0.7853981633974483
  9
$DIMTFILL
 70
     0
  9
$DIMTFILLCLR
 70
     0
  9
$DIMARCSYM
 70
     0
  9
$DIMLTYPE
  6

  9
$DIMLTEX1
  6

  9
$DIMLTEX2
  6

  9
$DIMTXTDIRECTION
 70
     0
  9
$LUNITS
 70
     2
  9
$LUPREC
 70
     4
  9
$SKETCHINC
 40
0.1
  9
$FILLETRAD
 40
0.5
  9
$AUNITS
 70
     0
  9
$AUPREC
 70
     0
  9
$MENU
  1
.
  9
$ELEVATION
 40
0.0
  9
$PELEVATION
 40
0.0
  9
$THICKNESS
 40
0.0
  9
$LIMCHECK
 70
     0
  9
$CHAMFERA
 40
0.5
  9
$CHAMFERB
 40
0.5
  9
$CHAMFERC
 40
1.0
  9
$CHAMFERD
 40
0.0
  9
$SKPOLY
 70
     0
  9
$TDCREATE
 40
2457372.51976632
  9
$TDUCREATE
 40
2457372.51976632
  9
$TDUPDATE
 40
2457372.519766342
  9
$TDUUPDATE
 40
2457372.519766342
  9
$TDINDWG
 40
0.0000000116
  9
$TDUSRTIMER
 40
0.0000000116
  9
$USRTIMER
 70
     1
  9
$ANGBASE
 50
0.0
  9
$ANGDIR
 70
     0
  9
$PDMODE
 70
     0
  9
$PDSIZE
 40
0.0
  9
$PLINEWID
 40
0.0
  9
$SPLFRAME
 70
     0
  9
$SPLINETYPE
 70
     6
  9
$SPLINESEGS
 70
     8
  9
$HANDSEED
  5
69
  9
$SURFTAB1
 70
     6
  9
$SURFTAB2
 70
     6
  9
$SURFTYPE
 70
     6
  9
$SURFU
 70
     6
  9
$SURFV
 70
     6
  9
$UCSBASE
  2

  9
$UCSNAME
  2

  9
$UCSORG
 10
0.0
 20
0.0
 30
0.0
  9
$UCSXDIR
 10
1.0
 20
0.0
 30
0.0
  9
$UCSYDIR
 10
0.0
 20
1.0
 30
0.0
  9
$UCSORTHOREF
  2

  9
$UCSORTHOVIEW
 70
     0
  9
$UCSORGTOP
 10
0.0
 20
0.0
 30
0.0
  9
$UCSORGBOTTOM
 10
0.0
 20
0.0
 30
0.0
  9
$UCSORGLEFT
 10
0.0
 20
0.0
 30
0.0
  9
$UCSORGRIGHT
 10
0.0
 20
0.0
 30
0.0
  9
$UCSORGFRONT
 10
0.0
 20
0.0
 30
0.0
  9
$UCSORGBACK
 10
0.0
 20
0.0
 30
0.0
  9
$PUCSBASE
  2

  9
$PUCSNAME
  2

  9
$PUCSORG
 10
0.0
 20
0.0
 30
0.0
  9
$PUCSXDIR
 10
1.0
 20
0.0
 30
0.0
  9
$PUCSYDIR
 10
0.0
 20
1.0
 30
0.0
  9
$PUCSORTHOREF
  2

  9
$PUCSORTHOVIEW
 70
     0
  9
$PUCSORGTOP
 10
0.0
 20
0.0
 30
0.0
  9
$PUCSORGBOTTOM
 10
0.0
 20
0.0
 30
0.0
  9
$PUCSORGLEFT
 10
0.0
 20
0.0
 30
0.0
  9
$PUCSORGRIGHT
 10
0.0
 20
0.0
 30
0.0
  9
$PUCSORGFRONT
 10
0.0
 20
0.0
 30
0.0
  9
$PUCSORGBACK
 10
0.0
 20
0.0
 30
0.0
  9
$USERI1
 70
     0
  9
$USERI2
 70
     0
  9
$USERI3
 70
     0
  9
$USERI4
 70
     0
  9
$USERI5
 70
     0
  9
$USERR1
 40
0.0
  9
$USERR2
 40
0.0
  9
$USERR3
 40
0.0
  9
$USERR4
 40
0.0
  9
$USERR5
 40
0.0
  9
$WORLDVIEW
 70
     1
  9
$SHADEDGE
 70
     3
  9
$SHADEDIF
 70
    70
  9
$TILEMODE
 70
     1
  9
$MAXACTVP
 70
    64
  9
$PINSBASE
 10
0.0
 20
0.0
 30
0.0
  9
$PLIMCHECK
 70
     0
  9
$PEXTMIN
 10
1.000000000000000E+20
 20
1.000000000000000E+20
 30
1.000000000000000E+20
  9
$PEXTMAX
 10
-1.000000000000000E+20
 20
-1.000000000000000E+20
 30
-1.000000000000000E+20
  9
$PLIMMIN
 10
0.0
 20
0.0
  9
$PLIMMAX
 10
12.0
 20
9.0
  9
$UNITMODE
 70
     0
  9
$VISRETAIN
 70
     1
  9
$PLINEGEN
 70
     0
  9
$PSLTSCALE
 70
     1
  9
$TREEDEPTH
 70
  3020
  9
$CMLSTYLE
  2
Standard
  9
$CMLJUST
 70
     0
  9
$CMLSCALE
 40
1.0
  9
$PROXYGRAPHICS
 70
     1
  9
$MEASUREMENT
 70
     0
  9
$CELWEIGHT
370
    -1
  9
$ENDCAPS
280
     0
  9
$JOINSTYLE
280
     0
  9
$LWDISPLAY
290
     1
  9
$INSUNITS
 70
     1
  9
$HYPERLINKBASE
  1

  9
$STYLESHEET
  1

  9
$XEDIT
290
     1
  9
$CEPSNTYPE
380
     0
  9
$PSTYLEMODE
290
     1
  9
$FINGERPRINTGUID
  2
{F5F85EA4-C287-47AE-980F-BF2EF9AC06D5}
  9
$VERSIONGUID
  2
{FAEB1C32-E019-11D5-929B-00C0DF256EC4}
  9
$EXTNAMES
290
     1
  9
$PSVPSCALE
 40
0.0
  9
$OLESTARTUP
290
     0
  9
$SORTENTS
280
   127
  9
$INDEXCTL
280
     0
  9
$HIDETEXT
280
     1
  9
$XCLIPFRAME
280
     2
  9
$HALOGAP
280
     0
  9
$OBSCOLOR
 70
   257
  9
$OBSLTYPE
280
     0
  9
$INTERSECTIONDISPLAY
280
     0
  9
$INTERSECTIONCOLOR
 70
   257
  9
$DIMASSOC
280
     2
  9
$PROJECTNAME
  1

  9
$CAMERADISPLAY
290
     0
  9
$LENSLENGTH
 40
50.0
  9
$CAMERAHEIGHT
 40
0.0
  9
$STEPSPERSEC
 40
2.0
  9
$STEPSIZE
 40
6.0
  9
$3DDWFPREC
 40
2.0
  9
$PSOLWIDTH
 40
0.25
  9
$PSOLHEIGHT
 40
4.0
  9
$LOFTANG1
 40
1.570796326794897
  9
$LOFTANG2
 40
1.570796326794897
  9
$LOFTMAG1
 40
0.0
  9
$LOFTMAG2
 40
0.0
  9
$LOFTPARAM
 70
     7
  9
$LOFTNORMALS
280
     1
  9
$LATITUDE
 40
37.795
  9
$LONGITUDE
 40
-122.394
  9
$NORTHDIRECTION
 40
0.0
  9
$TIMEZONE
 70
 -8000
  9
$LIGHTGLYPHDISPLAY
280
     1
  9
$TILEMODELIGHTSYNCH
280
     1
  9
$CMATERIAL
347
3C
  9
$SOLIDHIST
280
     1
  9
$SHOWHIST
280
     1
  9
$DWFFRAME
280
     2
  9
$DGNFRAME
280
     2
  9
$REALWORLDSCALE
290
     1
  9
$INTERFERECOLOR
 62
   256
  9
$CSHADOW
280
     0
  9
$SHADOWPLANELOCATION
 40
0.0
  0
ENDSEC
  0
SECTION
  2
CLASSES
  0
CLASS
  1
ACDBDICTIONARYWDFLT
  2
AcDbDictionaryWithDefault
  3
ObjectDBX Classes
 90
        0
 91
        4
280
     0
281
     0
  0
CLASS
  1
VISUALSTYLE
  2
AcDbVisualStyle
  3
ObjectDBX Classes
 90
     4095
 91
        4
280
     0
281
     0
  0
CLASS
  1
MATERIAL
  2
AcDbMaterial
  3
ObjectDBX Classes
 90
     1153
 91
        4
280
     0
281
     0
  0
CLASS
  1
SUN
  2
AcDbSun
  3
SCENEOE
 90
     1024
 91
        4
280
     0
281
     0
  0
ENDSEC
  0
SECTION
  2
TABLES
  0
TABLE
  2
VPORT
  5
8
330
0
100
AcDbSymbolTable
 70
     1
  0
VPORT
  5
29
330
8
100
AcDbSymbolTableRecord
100
AcDbViewportTableRecord
  2
*Active
 70
     0
 10
0.0
 20
0.0
 11
1.0
 21
1.0
 12
0.0
 22
0.0
 13
0.0
 23
0.0
 14
0.5
 24
0.5
 15
0.5
 25
0.5
 16
0.0
 26
0.0
 36
1.0
 17
4.999919443194448
 27
-4.999919443194448
 37
0.0
 40
9.999838886388897
 41
1.0
 42
50.0
 43
0.0
 44
0.0
 50
0.0
 51
0.0
 71
     0
 72
   100
 73
     1
 74
     3
 75
     0
 76
     0
 77
     0
 78
     0
281
     0
 65
     1
110
0.0
120
0.0
130
0.0
111
1.0
121
0.0
131
0.0
112
0.0
122
1.0
132
0.0
 79
     0
146
0.0
 60
     3
 61
     5
292
     1
282
     1
141
0.0
142
0.0
 63
   250
361
3F
  0
ENDTAB
  0
TABLE
  2
LTYPE
  5
5
330
0
100
AcDbSymbolTable
 70
     1
  0
LTYPE
  5
14
330
5
100
AcDbSymbolTableRecord
100
AcDbLinetypeTableRecord
  2
ByBlock
 70
     0
  3

 72
    65
 73
     0
 40
0.0
  0
LTYPE
  5
15
330
5
100
AcDbSymbolTableRecord
100
AcDbLinetypeTableRecord
  2
ByLayer
 70
     0
  3

 72
    65
 73
     0
 40
0.0
  0
LTYPE
  5
16
330
5
100
AcDbSymbolTableRecord
100
AcDbLinetypeTableRecord
  2
Continuous
 70
     0
  3
Solid line
 72
    65
 73
     0
 40
0.0
  0
ENDTAB
  0
TABLE
  2
LAYER
  5
2
330
0
100
AcDbSymbolTable
 70
     2
  0
LAYER
  5
10
330
2
100
AcDbSymbolTableRecord
100
AcDbLayerTableRecord
  2
0
 70
     0
 62
     7
  6
Continuous
370
    -3
390
F
347
3E
  0
LAYER
  5
40
330
2
100
AcDbSymbolTableRecord
100
AcDbLayerTableRecord
  2
Layer 1
 70
     0
 62
     7
  6
Continuous
370
    -3
390
F
347
3E
  0
ENDTAB
  0
TABLE
  2
STYLE
  5
3
330
0
100
AcDbSymbolTable
 70
     1
  0
STYLE
  5
11
330
3
100
AcDbSymbolTableRecord
100
AcDbTextStyleTableRecord
  2
Standard
 70
     0
 40
0.0
 41
1.0
 50
0.0
 71
     0
 42
0.2
  3
txt
  4

  0
ENDTAB
  0
TABLE
  2
VIEW
  5
6
330
0
100
AcDbSymbolTable
 70
     0
  0
ENDTAB
  0
TABLE
  2
UCS
  5
7
330
0
100
AcDbSymbolTable
 70
     0
  0
ENDTAB
  0
TABLE
  2
APPID
  5
9
330
0
100
AcDbSymbolTable
 70
     1
  0
APPID
  5
12
330
9
100
AcDbSymbolTableRecord
100
AcDbRegAppTableRecord
  2
ACAD
 70
     0
  0
ENDTAB
  0
TABLE
  2
DIMSTYLE
  5
A
330
0
100
AcDbSymbolTable
 70
     1
100
AcDbDimStyleTable
  0
DIMSTYLE
105
27
330
A
100
AcDbSymbolTableRecord
100
AcDbDimStyleTableRecord
  2
Standard
 70
     0
178
     0
340
11
  0
ENDTAB
  0
TABLE
  2
BLOCK_RECORD
  5
1
330
0
100
AcDbSymbolTable
 70
     4
  0
BLOCK_RECORD
  5
1F
330
1
100
AcDbSymbolTableRecord
100
AcDbBlockTableRecord
  2
*Model_Space
340
22
 70
     0
280
     1
281
     0
  0
BLOCK_RECORD
  5
1B
330
1
100
AcDbSymbolTableRecord
100
AcDbBlockTableRecord
  2
*Paper_Space
340
1E
 70
     0
280
     1
281
     0
  0
BLOCK_RECORD
  5
23
330
1
100
AcDbSymbolTableRecord
100
AcDbBlockTableRecord
  2
*Paper_Space0
340
26
 70
     0
280
     1
281
     0
  0
BLOCK_RECORD
  5
41
330
1
100
AcDbSymbolTableRecord
100
AcDbBlockTableRecord
  2
block 2
340
0
102
{BLKREFS
331
42
102
}
 70
     0
280
     1
281
     0
  0
BLOCK_RECORD
  5
47
330
1
100
AcDbSymbolTableRecord
100
AcDbBlockTableRecord
  2
block 3
340
0
102
{BLKREFS
331
48
102
}
 70
     0
280
     1
281
     0
  0
BLOCK_RECORD
  5
5D
330
1
100
AcDbSymbolTableRecord
100
AcDbBlockTableRecord
  2
block 4
340
0
102
{BLKREFS
331
5E
102
}
 70
     0
280
     1
281
     0
  0
ENDTAB
  0
ENDSEC
  0
SECTION
  2
BLOCKS
  0
BLOCK
  5
20
330
1F
100
AcDbEntity
  8
0
100
AcDbBlockBegin
  2
*Model_Space
 70
     0
 10
0.0
 20
0.0
 30
0.0
  3
*Model_Space
  1

  0
ENDBLK
  5
21
330
1F
100
AcDbEntity
  8
0
100
AcDbBlockEnd
  0
BLOCK
  5
1C
330
1B
100
AcDbEntity
 67
     1
  8
0
100
AcDbBlockBegin
  2
*Paper_Space
 70
     0
 10
0.0
 20
0.0
 30
0.0
  3
*Paper_Space
  1

  0
ENDBLK
  5
1D
330
1B
100
AcDbEntity
 67
     1
  8
0
100
AcDbBlockEnd
  0
BLOCK
  5
24
330
23
100
AcDbEntity
  8
0
100
AcDbBlockBegin
  2
*Paper_Space0
 70
     0
 10
0.0
 20
0.0
 30
0.0
  3
*Paper_Space0
  1

  0
ENDBLK
  5
25
330
23
100
AcDbEntity
  8
0
100
AcDbBlockEnd
  0
BLOCK
  5
43
330
41
100
AcDbEntity
  8
0
100
AcDbBlockBegin
  2
block 2
 70
     0
 10
0.0
 20
0.0
 30
0.0
  3
block 2
  1

  0
SPLINE
  5
45
330
41
100
AcDbEntity
  8
Layer 1
370
     0
100
AcDbSpline
210
0.0
220
0.0
230
1.0
 70
    11
 71
     3
 72
    92
 73
    88
 74
     0
 42
0.0000000001
 43
0.0000000001
 12
1.0
 22
0.0
 32
0.0
 13
1.0
 23
0.0
 33
0.0
 40
0.0
 40
0.0
 40
0.0
 40
0.0
 40
1.0
 40
1.0
 40
1.0
 40
2.0
 40
2.0
 40
2.0
 40
3.0
 40
3.0
 40
3.0
 40
4.0
 40
4.0
 40
4.0
 40
5.0
 40
5.0
 40
5.0
 40
6.0
 40
6.0
 40
6.0
 40
7.0
 40
7.0
 40
7.0
 40
8.0
 40
8.0
 40
8.0
 40
9.0
 40
9.0
 40
9.0
 40
10.0
 40
10.0
 40
10.0
 40
11.0
 40
11.0
 40
11.0
 40
12.0
 40
12.0
 40
12.0
 40
13.0
 40
13.0
 40
13.0
 40
14.0
 40
14.0
 40
14.0
 40
15.0
 40
15.0
 40
15.0
 40
16.0
 40
16.0
 40
16.0
 40
17.0
 40
17.0
 40
17.0
 40
18.0
 40
18.0
 40
18.0
 40
19.0
 40
19.0
 40
19.0
 40
20.0
 40
20.0
 40
20.0
 40
21.0
 40
21.0
 40
21.0
 40
22.0
 40
22.0
 40
22.0
 40
23.0
 40
23.0
 40
23.0
 40
24.0
 40
24.0
 40
24.0
 40
25.0
 40
25.0
 40
25.0
 40
26.0
 40
26.0
 40
26.0
 40
27.0
 40
27.0
 40
27.0
 40
28.0
 40
28.0
 40
28.0
 40
29.0
 40
29.0
 40
29.0
 40
29.0
 10
9.279377925350618
 20
-5.504829822437117
 30
0.0
 10
9.14269286083062
 20
-4.505249493421585
 30
0.0
 10
8.635569716707478
 20
-3.702658670594976
 30
0.0
 10
7.842667188500632
 20
-3.091495005740071
 30
0.0
 10
7.494073586552291
 20
-2.822753476471551
 30
0.0
 10
7.129731924370675
 20
-2.62806954354742
 30
0.0
 10
6.751907632764091
 20
-2.500456674205514
 30
0.0
 10
6.752658122168989
 20
-2.49235313395695
 30
0.0
 10
6.753556964130696
 20
-2.484277518895553
 30
0.0
 10
6.753989804531615
 20
-2.47612161892106
 30
0.0
 10
6.757421111903722
 20
-2.416358227753411
 30
0.0
 10
6.753131105026521
 20
-2.356306858093185
 30
0.0
 10
6.740264575043192
 20
-2.297972887443181
 30
0.0
 10
6.686218865946252
 20
-2.054912058415326
 30
0.0
 10
6.509784042830256
 20
-1.872187086891838
 30
0.0
 10
6.339070392433373
 20
-1.695181542763293
 30
0.0
 10
6.295318605452687
 20
-1.650002080589164
 30
0.0
 10
6.250139143278623
 20
-1.603105219404811
 30
0.0
 10
6.208389243152365
 20
-1.556494591388835
 30
0.0
 10
6.204100981599334
 20
-1.551633863499052
 30
0.0
 10
6.200097207890476
 20
-1.546771390285067
 30
0.0
 10
6.196093434181682
 20
-1.541910662395284
 30
0.0
 10
6.288455990708475
 20
-0.7197931524480431
 30
0.0
 10
5.948742598276561
 20
-0.3729309121035088
 30
0.0
 10
5.797187371594573
 20
-0.2616944197058987
 30
0.0
 10
5.613605445890192
 20
-0.1264387757035469
 30
0.0
 10
5.39056174008239
 20
-0.0915532356457355
 30
0.0
 10
5.215271849639898
 20
-0.1701905626841689
 30
0.0
 10
4.748308615299081
 20
-0.3800797600160965
 30
0.0
 10
3.875576703627006
 20
-1.177319418853468
 30
0.0
 10
3.828109121430104
 20
-2.170723045534343
 30
0.0
 10
3.720876402741319
 20
-2.137553159162616
 30
0.0
 10
3.620220065628403
 20
-2.140412000197971
 30
0.0
 10
3.528429975438298
 20
-2.179587547132984
 30
0.0
 10
3.395746939302924
 20
-2.236492097265278
 30
0.0
 10
3.317395845432867
 20
-2.354304971238756
 30
0.0
 10
3.282794793219229
 20
-2.419217068788766
 30
0.0
 10
2.508146610793125
 20
-1.792979038840855
 30
0.0
 10
1.330586846746883
 20
-1.916509594885042
 30
0.0
 10
0.8630528913935479
 20
-2.126686770709547
 30
0.0
 10
0.6877630009510238
 20
-2.205610330916356
 30
0.0
 10
0.5659463532687201
 20
-2.395482405028198
 30
0.0
 10
0.5450722758677085
 20
-2.622529884544857
 30
0.0
 10
0.5279157390071786
 20
-2.809831096113922
 30
0.0
 10
0.5616580917156886
 20
-3.294237100483645
 30
0.0
 10
1.237938057051682
 20
-3.77063555743562
 30
0.0
 10
1.238796756556809
 20
-3.776925705843081
 30
0.0
 10
1.239939943906111
 20
-3.783217599574743
 30
0.0
 10
1.240798643411238
 20
-3.789507747982203
 30
0.0
 10
1.24766125815545
 20
-3.851561004496859
 30
0.0
 10
1.252808219213577
 20
-3.916757589891042
 30
0.0
 10
1.25766894710336
 20
-3.979381567418247
 30
0.0
 10
1.276542882974145
 20
-4.224444283300564
 30
0.0
 10
1.296273773025855
 20
-4.477799034444737
 30
0.0
 10
1.442395805481276
 20
-4.679682429683184
 30
0.0
 10
1.54133474358397
 20
-4.816369239527415
 30
0.0
 10
1.69575055662545
 20
-4.911019916077044
 30
0.0
 10
1.861603479132582
 20
-4.94504850195393
 30
0.0
 10
1.862748411806085
 20
-4.945334735122306
 30
0.0
 10
1.863891599155387
 20
-4.945620968290682
 30
0.0
 10
1.865034786504688
 20
-4.945905456134856
 30
0.0
 10
1.873370454871497
 20
-4.947598420606348
 30
0.0
 10
1.881812588014365
 20
-4.948490281271216
 30
0.0
 10
1.890195380134529
 20
-4.94985337946938
 30
0.0
 10
1.68255590569306
 20
-5.559428799304619
 30
0.0
 10
1.660802184896562
 20
-6.19258005839847
 30
0.0
 10
1.78712351433239
 20
-6.830977762029667
 30
0.0
 10
2.034875774802892
 20
-8.08192666325276
 30
0.0
 10
2.732785542917368
 20
-8.993582795175413
 30
0.0
 10
3.88307636170328
 20
-9.55196262032809
 30
0.0
 10
4.258444982164092
 20
-9.734167485240723
 30
0.0
 10
4.649249249826776
 20
-9.87169379602386
 30
0.0
 10
5.070921321244862
 20
-9.901903612556842
 30
0.0
 10
5.148733109937877
 20
-9.907467706098167
 30
0.0
 10
5.225906109974723
 20
-9.919709410018816
 30
0.0
 10
5.303559074165779
 20
-9.92877287857596
 30
0.0
 10
5.303559074165779
 20
-9.92877287857596
 30
0.0
 10
5.733188078599822
 20
-9.92877287857596
 30
0.0
 10
5.733188078599822
 20
-9.92877287857596
 30
0.0
 10
5.811315770972644
 20
-9.921618794690767
 30
0.0
 10
5.88976285767355
 20
-9.916213525651399
 30
0.0
 10
5.967733470868521
 20
-9.907150057094254
 30
0.0
 10
6.631270824239265
 20
-9.83051636223442
 30
0.0
 10
7.23752489212683
 20
-9.60204469817272
 30
0.0
 10
7.769152387981626
 20
-9.197251657067797
 30
0.0
 10
8.99550443529059
 20
-8.263812133837245
 30
0.0
 10
9.486237239875884
 20
-7.019066114811773
 30
0.0
 10
9.279377925350618
 20
-5.504829822437117
 30
0.0
  0
HATCH
  5
46
330
41
100
AcDbEntity
  8
Layer 1
 62
     7
420
 16777215
100
AcDbHatch
 10
0.0
 20
0.0
 30
0.0
210
0.0
220
0.0
230
1.0
  2
SOLID
 70
     1
 71
     0
 91
        1
 92
        1
 93
        1
 72
     4
 94
        3
 73
     0
 74
     1
 95
       92
 96
       88
 40
0.0
 40
0.0
 40
0.0
 40
0.0
 40
1.0
 40
1.0
 40
1.0
 40
2.0
 40
2.0
 40
2.0
 40
3.0
 40
3.0
 40
3.0
 40
4.0
 40
4.0
 40
4.0
 40
5.0
 40
5.0
 40
5.0
 40
6.0
 40
6.0
 40
6.0
 40
7.0
 40
7.0
 40
7.0
 40
8.0
 40
8.0
 40
8.0
 40
9.0
 40
9.0
 40
9.0
 40
10.0
 40
10.0
 40
10.0
 40
11.0
 40
11.0
 40
11.0
 40
12.0
 40
12.0
 40
12.0
 40
13.0
 40
13.0
 40
13.0
 40
14.0
 40
14.0
 40
14.0
 40
15.0
 40
15.0
 40
15.0
 40
16.0
 40
16.0
 40
16.0
 40
17.0
 40
17.0
 40
17.0
 40
18.0
 40
18.0
 40
18.0
 40
19.0
 40
19.0
 40
19.0
 40
20.0
 40
20.0
 40
20.0
 40
21.0
 40
21.0
 40
21.0
 40
22.0
 40
22.0
 40
22.0
 40
23.0
 40
23.0
 40
23.0
 40
24.0
 40
24.0
 40
24.0
 40
25.0
 40
25.0
 40
25.0
 40
26.0
 40
26.0
 40
26.0
 40
27.0
 40
27.0
 40
27.0
 40
28.0
 40
28.0
 40
28.0
 40
29.0
 40
29.0
 40
29.0
 40
29.0
 10
9.279377925350618
 20
-5.504829822437117
 10
9.14269286083062
 20
-4.505249493421585
 10
8.635569716707478
 20
-3.702658670594976
 10
7.842667188500632
 20
-3.091495005740071
 10
7.494073586552291
 20
-2.822753476471551
 10
7.129731924370675
 20
-2.62806954354742
 10
6.751907632764091
 20
-2.500456674205514
 10
6.752658122168989
 20
-2.49235313395695
 10
6.753556964130696
 20
-2.484277518895553
 10
6.753989804531615
 20
-2.47612161892106
 10
6.757421111903722
 20
-2.416358227753411
 10
6.753131105026521
 20
-2.356306858093185
 10
6.740264575043192
 20
-2.297972887443181
 10
6.686218865946252
 20
-2.054912058415326
 10
6.509784042830256
 20
-1.872187086891838
 10
6.339070392433373
 20
-1.695181542763293
 10
6.295318605452687
 20
-1.650002080589164
 10
6.250139143278623
 20
-1.603105219404811
 10
6.208389243152365
 20
-1.556494591388835
 10
6.204100981599334
 20
-1.551633863499052
 10
6.200097207890476
 20
-1.546771390285067
 10
6.196093434181682
 20
-1.541910662395284
 10
6.288455990708475
 20
-0.7197931524480431
 10
5.948742598276561
 20
-0.3729309121035088
 10
5.797187371594573
 20
-0.2616944197058987
 10
5.613605445890192
 20
-0.1264387757035469
 10
5.39056174008239
 20
-0.0915532356457355
 10
5.215271849639898
 20
-0.1701905626841689
 10
4.748308615299081
 20
-0.3800797600160965
 10
3.875576703627006
 20
-1.177319418853468
 10
3.828109121430104
 20
-2.170723045534343
 10
3.720876402741319
 20
-2.137553159162616
 10
3.620220065628403
 20
-2.140412000197971
 10
3.528429975438298
 20
-2.179587547132984
 10
3.395746939302924
 20
-2.236492097265278
 10
3.317395845432867
 20
-2.354304971238756
 10
3.282794793219229
 20
-2.419217068788766
 10
2.508146610793125
 20
-1.792979038840855
 10
1.330586846746883
 20
-1.916509594885042
 10
0.8630528913935479
 20
-2.126686770709547
 10
0.6877630009510238
 20
-2.205610330916356
 10
0.5659463532687201
 20
-2.395482405028198
 10
0.5450722758677085
 20
-2.622529884544857
 10
0.5279157390071786
 20
-2.809831096113922
 10
0.5616580917156886
 20
-3.294237100483645
 10
1.237938057051682
 20
-3.77063555743562
 10
1.238796756556809
 20
-3.776925705843081
 10
1.239939943906111
 20
-3.783217599574743
 10
1.240798643411238
 20
-3.789507747982203
 10
1.24766125815545
 20
-3.851561004496859
 10
1.252808219213577
 20
-3.916757589891042
 10
1.25766894710336
 20
-3.979381567418247
 10
1.276542882974145
 20
-4.224444283300564
 10
1.296273773025855
 20
-4.477799034444737
 10
1.442395805481276
 20
-4.679682429683184
 10
1.54133474358397
 20
-4.816369239527415
 10
1.69575055662545
 20
-4.911019916077044
 10
1.861603479132582
 20
-4.94504850195393
 10
1.862748411806085
 20
-4.945334735122306
 10
1.863891599155387
 20
-4.945620968290682
 10
1.865034786504688
 20
-4.945905456134856
 10
1.873370454871497
 20
-4.947598420606348
 10
1.881812588014365
 20
-4.948490281271216
 10
1.890195380134529
 20
-4.94985337946938
 10
1.68255590569306
 20
-5.559428799304619
 10
1.660802184896562
 20
-6.19258005839847
 10
1.78712351433239
 20
-6.830977762029667
 10
2.034875774802892
 20
-8.08192666325276
 10
2.732785542917368
 20
-8.993582795175413
 10
3.88307636170328
 20
-9.55196262032809
 10
4.258444982164092
 20
-9.734167485240723
 10
4.649249249826776
 20
-9.87169379602386
 10
5.070921321244862
 20
-9.901903612556842
 10
5.148733109937877
 20
-9.907467706098167
 10
5.225906109974723
 20
-9.919709410018816
 10
5.303559074165779
 20
-9.92877287857596
 10
5.303559074165779
 20
-9.92877287857596
 10
5.733188078599822
 20
-9.92877287857596
 10
5.733188078599822
 20
-9.92877287857596
 10
5.811315770972644
 20
-9.921618794690767
 10
5.88976285767355
 20
-9.916213525651399
 10
5.967733470868521
 20
-9.907150057094254
 10
6.631270824239265
 20
-9.83051636223442
 10
7.23752489212683
 20
-9.60204469817272
 10
7.769152387981626
 20
-9.197251657067797
 10
8.99550443529059
 20
-8.263812133837245
 10
9.486237239875884
 20
-7.019066114811773
 10
9.279377925350618
 20
-5.504829822437117
 97
        0
 97
        0
 75
     2
 76
     1
 98
        0
  0
INSERT
  5
48
330
41
100
AcDbEntity
  8
Layer 1
100
AcDbBlockReference
  2
block 3
 10
0.0
 20
0.0
 30
0.0
  0
INSERT
  5
5E
330
41
100
AcDbEntity
  8
Layer 1
100
AcDbBlockReference
  2
block 4
 10
0.0
 20
0.0
 30
0.0
  0
ENDBLK
  5
44
330
41
100
AcDbEntity
  8
0
100
AcDbBlockEnd
  0
BLOCK
  5
49
330
47
100
AcDbEntity
  8
0
100
AcDbBlockBegin
  2
block 3
 70
     0
 10
0.0
 20
0.0
 30
0.0
  3
block 3
  1

  0
SPLINE
  5
4B
330
47
100
AcDbEntity
  8
Layer 1
370
     0
100
AcDbSpline
210
0.0
220
0.0
230
1.0
 70
    11
 71
     3
 72
    20
 73
    16
 74
     0
 42
0.0000000001
 43
0.0000000001
 12
1.0
 22
0.0
 32
0.0
 13
1.0
 23
0.0
 33
0.0
 40
0.0
 40
0.0
 40
0.0
 40
0.0
 40
1.0
 40
1.0
 40
1.0
 40
2.0
 40
2.0
 40
2.0
 40
3.0
 40
3.0
 40
3.0
 40
4.0
 40
4.0
 40
4.0
 40
5.0
 40
5.0
 40
5.0
 40
5.0
 10
7.526491553513024
 20
-3.078617173101195
 30
0.0
 10
8.040614399411115
 20
-3.406934407037651
 30
0.0
 10
8.436827367608151
 20
-3.842094553564118
 30
0.0
 10
8.720860556109233
 20
-4.379487203349725
 30
0.0
 10
8.816651284306761
 20
-4.560737134638399
 30
0.0
 10
8.97545560890838
 20
-4.941522398818972
 30
0.0
 10
8.968135651507206
 20
-4.945973661205863
 30
0.0
 10
8.471834381608621
 20
-4.168027494567434
 30
0.0
 10
7.791588224910889
 20
-3.608377562439512
 30
0.0
 10
6.936785801314877
 20
-3.238085322062677
 30
0.0
 10
6.966222965813531
 20
-3.217257450990577
 30
0.0
 10
7.167034736012728
 20
-3.085612845773232
 30
0.0
 10
7.235775516812914
 20
-3.037756195267883
 30
0.0
 10
7.339204757012594
 20
-2.96589164603806
 30
0.0
 10
7.427995053613079
 20
-3.015656119053177
 30
0.0
 10
7.526491553513024
 20
-3.078617173101195
 30
0.0
  0
HATCH
  5
4C
330
47
100
AcDbEntity
  8
Layer 1
 62
   254
420
 15721183
100
AcDbHatch
 10
0.0
 20
0.0
 30
0.0
210
0.0
220
0.0
230
1.0
  2
SOLID
 70
     1
 71
     0
 91
        1
 92
        1
 93
        1
 72
     4
 94
        3
 73
     0
 74
     1
 95
       20
 96
       16
 40
0.0
 40
0.0
 40
0.0
 40
0.0
 40
1.0
 40
1.0
 40
1.0
 40
2.0
 40
2.0
 40
2.0
 40
3.0
 40
3.0
 40
3.0
 40
4.0
 40
4.0
 40
4.0
 40
5.0
 40
5.0
 40
5.0
 40
5.0
 10
7.526491553513024
 20
-3.078617173101195
 10
8.040614399411115
 20
-3.406934407037651
 10
8.436827367608151
 20
-3.842094553564118
 10
8.720860556109233
 20
-4.379487203349725
 10
8.816651284306761
 20
-4.560737134638399
 10
8.97545560890838
 20
-4.941522398818972
 10
8.968135651507206
 20
-4.945973661205863
 10
8.471834381608621
 20
-4.168027494567434
 10
7.791588224910889
 20
-3.608377562439512
 10
6.936785801314877
 20
-3.238085322062677
 10
6.966222965813531
 20
-3.217257450990577
 10
7.167034736012728
 20
-3.085612845773232
 10
7.235775516812914
 20
-3.037756195267883
 10
7.339204757012594
 20
-2.96589164603806
 10
7.427995053613079
 20
-3.015656119053177
 10
7.526491553513024
 20
-3.078617173101195
 97
        0
 97
        0
 75
     2
 76
     1
 98
        0
  0
SPLINE
  5
4D
330
47
100
AcDbEntity
  8
Layer 1
370
     0
100
AcDbSpline
210
0.0
220
0.0
230
1.0
 70
    11
 71
     3
 72
    92
 73
    88
 74
     0
 42
0.0000000001
 43
0.0000000001
 12
1.0
 22
0.0
 32
0.0
 13
1.0
 23
0.0
 33
0.0
 40
0.0
 40
0.0
 40
0.0
 40
0.0
 40
1.0
 40
1.0
 40
1.0
 40
2.0
 40
2.0
 40
2.0
 40
3.0
 40
3.0
 40
3.0
 40
4.0
 40
4.0
 40
4.0
 40
5.0
 40
5.0
 40
5.0
 40
6.0
 40
6.0
 40
6.0
 40
7.0
 40
7.0
 40
7.0
 40
8.0
 40
8.0
 40
8.0
 40
9.0
 40
9.0
 40
9.0
 40
10.0
 40
10.0
 40
10.0
 40
11.0
 40
11.0
 40
11.0
 40
12.0
 40
12.0
 40
12.0
 40
13.0
 40
13.0
 40
13.0
 40
14.0
 40
14.0
 40
14.0
 40
15.0
 40
15.0
 40
15.0
 40
16.0
 40
16.0
 40
16.0
 40
17.0
 40
17.0
 40
17.0
 40
18.0
 40
18.0
 40
18.0
 40
19.0
 40
19.0
 40
19.0
 40
20.0
 40
20.0
 40
20.0
 40
21.0
 40
21.0
 40
21.0
 40
22.0
 40
22.0
 40
22.0
 40
23.0
 40
23.0
 40
23.0
 40
24.0
 40
24.0
 40
24.0
 40
25.0
 40
25.0
 40
25.0
 40
26.0
 40
26.0
 40
26.0
 40
27.0
 40
27.0
 40
27.0
 40
28.0
 40
28.0
 40
28.0
 40
29.0
 40
29.0
 40
29.0
 40
29.0
 10
7.183777633467614
 20
-2.866163179909497
 30
0.0
 10
6.979035397193846
 20
-2.997416795527193
 30
0.0
 10
6.761995606625161
 20
-3.11637285684994
 30
0.0
 10
6.568119758804397
 20
-3.265355475664918
 30
0.0
 10
5.981914229972522
 20
-3.714587961484252
 30
0.0
 10
5.577002506822125
 20
-4.288783914513822
 30
0.0
 10
5.424876559127619
 20
-5.021111475801183
 30
0.0
 10
5.35996446157761
 20
-5.333945130268831
 30
0.0
 10
5.354245034182731
 20
-5.651925745794671
 30
0.0
 10
5.409720163797348
 20
-5.9673337534535
 30
0.0
 10
5.425733513308545
 20
-6.058553122631088
 30
0.0
 10
5.403714503234062
 20
-6.109165779031688
 30
0.0
 10
5.331941536264011
 20
-6.164927141814713
 30
0.0
 10
4.957913324786834
 20
-6.455457298363704
 30
0.0
 10
4.541278259002508
 20
-6.641041110922515
 30
0.0
 10
4.068881830435187
 20
-6.696516240537131
 30
0.0
 10
4.029992516668519
 20
-6.701090735258571
 30
0.0
 10
3.990816969733506
 20
-6.700804502090163
 30
0.0
 10
3.938773147490962
 20
-6.703378855281343
 30
0.0
 10
3.910463989009019
 20
-6.493487912625215
 30
0.0
 10
3.876149169963758
 20
-6.29046133003753
 30
0.0
 10
3.857561467261349
 20
-6.086003581607936
 30
0.0
 10
3.822389694035194
 20
-5.697393186461378
 30
0.0
 10
3.82525028039475
 20
-5.308781045990586
 30
0.0
 10
3.887015558416827
 20
-4.922457025542664
 30
0.0
 10
4.011404813966109
 20
-4.143518836239325
 30
0.0
 10
4.327669775805896
 20
-3.479248446705703
 30
0.0
 10
4.913590816793663
 20
-2.980544746510837
 30
0.0
 10
4.913590816793663
 20
-2.980544746510837
 30
0.0
 10
5.271317700267033
 20
-3.056323232513916
 30
0.0
 10
5.271317700267033
 20
-3.056323232513916
 30
0.0
 10
5.271317700267033
 20
-3.056323232513916
 30
0.0
 10
5.356819387373912
 20
-3.074622956723747
 30
0.0
 10
5.356819387373912
 20
-3.074622956723747
 30
0.0
 10
5.37969535162932
 20
-3.079485429937732
 30
0.0
 10
5.402571315884793
 20
-3.084346157827516
 30
0.0
 10
5.425733513308545
 20
-3.089206885717299
 30
0.0
 10
5.596162675861318
 20
-3.124951125280205
 30
0.0
 10
5.77145256630381
 20
-3.156977824302662
 30
0.0
 10
5.949601297781657
 20
-3.15326028376218
 30
0.0
 10
6.111165958735788
 20
-3.15011520955845
 30
0.0
 10
6.341358512456146
 20
-3.11322778264621
 30
0.0
 10
6.521509130788421
 20
-2.957668782255396
 30
0.0
 10
6.556967137182984
 20
-2.927071503750649
 30
0.0
 10
6.588707603037034
 20
-2.892470451537011
 30
0.0
 10
6.616732273674867
 20
-2.854724325119676
 30
0.0
 10
6.620734302059491
 20
-2.849291130893141
 30
0.0
 10
6.624451842600005
 20
-2.844144169834982
 30
0.0
 10
6.628169383140454
 20
-2.838710975608447
 30
0.0
 10
6.631314457344216
 20
-2.834422714055416
 30
0.0
 10
6.634175043703741
 20
-2.830132707178182
 30
0.0
 10
6.637033884739095
 20
-2.825844445625151
 30
0.0
 10
6.642180845797222
 20
-2.817836898207435
 30
0.0
 10
6.647329552179583
 20
-2.809831096113922
 30
0.0
 10
6.652190280069366
 20
-2.801537315527863
 30
0.0
 10
6.652761001081948
 20
-2.801251082359487
 30
0.0
 10
6.652761001081948
 20
-2.800966594515281
 30
0.0
 10
6.653047234250291
 20
-2.800680361346906
 30
0.0
 10
6.657909707464309
 20
-2.792672813929222
 30
0.0
 10
6.662770435354092
 20
-2.784380778667333
 30
0.0
 10
6.667344930075467
 20
-2.775802510237068
 30
0.0
 10
6.669060583761552
 20
-2.772655690709136
 30
0.0
 10
6.670776237447573
 20
-2.769510616505406
 30
0.0
 10
6.672491891133658
 20
-2.766365542301676
 30
0.0
 10
6.675924943829934
 20
-2.759502927557464
 30
0.0
 10
6.67935625120204
 20
-2.752640312813252
 30
0.0
 10
6.682787558574145
 20
-2.745775952744838
 30
0.0
 10
6.685073933272748
 20
-2.741773924360182
 30
0.0
 10
6.686789586958834
 20
-2.737770150651325
 30
0.0
 10
6.688505240644854
 20
-2.733480143774091
 30
0.0
 10
6.691938293341194
 20
-2.726617529029912
 30
0.0
 10
6.695083367544893
 20
-2.719468681117324
 30
0.0
 10
6.698228441748655
 20
-2.71203360003636
 30
0.0
 10
6.699371629097924
 20
-2.709747225337757
 30
0.0
 10
6.700230328603084
 20
-2.707459105314953
 30
0.0
 10
6.701087282784009
 20
-2.705170985292148
 30
0.0
 10
6.704234102311877
 20
-2.697735904211184
 30
0.0
 10
6.707379176515639
 20
-2.689730102117671
 30
0.0
 10
6.710238017550994
 20
-2.682008787868332
 30
0.0
 10
6.710810483887745
 20
-2.68086560051903
 30
0.0
 10
6.711096717056089
 20
-2.679720667845527
 30
0.0
 10
6.71166918339284
 20
-2.67829124732785
 30
0.0
 10
6.776293302450337
 20
-2.700882723739117
 30
0.0
 10
6.84034844581942
 20
-2.725188108512234
 30
0.0
 10
6.90440184386427
 20
-2.750352192790447
 30
0.0
 10
7.002483827786006
 20
-2.788955273388741
 30
0.0
 10
7.098850158021721
 20
-2.830991406683309
 30
0.0
 10
7.183777633467614
 20
-2.866163179909497
 30
0.0
  0
HATCH
  5
4E
330
47
100
AcDbEntity
  8
Layer 1
 62
   254
420
 15721183
100
AcDbHatch
 10
0.0
 20
0.0
 30
0.0
210
0.0
220
0.0
230
1.0
  2
SOLID
 70
     1
 71
     0
 91
        1
 92
        1
 93
        1
 72
     4
 94
        3
 73
     0
 74
     1
 95
       92
 96
       88
 40
0.0
 40
0.0
 40
0.0
 40
0.0
 40
1.0
 40
1.0
 40
1.0
 40
2.0
 40
2.0
 40
2.0
 40
3.0
 40
3.0
 40
3.0
 40
4.0
 40
4.0
 40
4.0
 40
5.0
 40
5.0
 40
5.0
 40
6.0
 40
6.0
 40
6.0
 40
7.0
 40
7.0
 40
7.0
 40
8.0
 40
8.0
 40
8.0
 40
9.0
 40
9.0
 40
9.0
 40
10.0
 40
10.0
 40
10.0
 40
11.0
 40
11.0
 40
11.0
 40
12.0
 40
12.0
 40
12.0
 40
13.0
 40
13.0
 40
13.0
 40
14.0
 40
14.0
 40
14.0
 40
15.0
 40
15.0
 40
15.0
 40
16.0
 40
16.0
 40
16.0
 40
17.0
 40
17.0
 40
17.0
 40
18.0
 40
18.0
 40
18.0
 40
19.0
 40
19.0
 40
19.0
 40
20.0
 40
20.0
 40
20.0
 40
21.0
 40
21.0
 40
21.0
 40
22.0
 40
22.0
 40
22.0
 40
23.0
 40
23.0
 40
23.0
 40
24.0
 40
24.0
 40
24.0
 40
25.0
 40
25.0
 40
25.0
 40
26.0
 40
26.0
 40
26.0
 40
27.0
 40
27.0
 40
27.0
 40
28.0
 40
28.0
 40
28.0
 40
29.0
 40
29.0
 40
29.0
 40
29.0
 10
7.183777633467614
 20
-2.866163179909497
 10
6.979035397193846
 20
-2.997416795527193
 10
6.761995606625161
 20
-3.11637285684994
 10
6.568119758804397
 20
-3.265355475664918
 10
5.981914229972522
 20
-3.714587961484252
 10
5.577002506822125
 20
-4.288783914513822
 10
5.424876559127619
 20
-5.021111475801183
 10
5.35996446157761
 20
-5.333945130268831
 10
5.354245034182731
 20
-5.651925745794671
 10
5.409720163797348
 20
-5.9673337534535
 10
5.425733513308545
 20
-6.058553122631088
 10
5.403714503234062
 20
-6.109165779031688
 10
5.331941536264011
 20
-6.164927141814713
 10
4.957913324786834
 20
-6.455457298363704
 10
4.541278259002508
 20
-6.641041110922515
 10
4.068881830435187
 20
-6.696516240537131
 10
4.029992516668519
 20
-6.701090735258571
 10
3.990816969733506
 20
-6.700804502090163
 10
3.938773147490962
 20
-6.703378855281343
 10
3.910463989009019
 20
-6.493487912625215
 10
3.876149169963758
 20
-6.29046133003753
 10
3.857561467261349
 20
-6.086003581607936
 10
3.822389694035194
 20
-5.697393186461378
 10
3.82525028039475
 20
-5.308781045990586
 10
3.887015558416827
 20
-4.922457025542664
 10
4.011404813966109
 20
-4.143518836239325
 10
4.327669775805896
 20
-3.479248446705703
 10
4.913590816793663
 20
-2.980544746510837
 10
4.913590816793663
 20
-2.980544746510837
 10
5.271317700267033
 20
-3.056323232513916
 10
5.271317700267033
 20
-3.056323232513916
 10
5.271317700267033
 20
-3.056323232513916
 10
5.356819387373912
 20
-3.074622956723747
 10
5.356819387373912
 20
-3.074622956723747
 10
5.37969535162932
 20
-3.079485429937732
 10
5.402571315884793
 20
-3.084346157827516
 10
5.425733513308545
 20
-3.089206885717299
 10
5.596162675861318
 20
-3.124951125280205
 10
5.77145256630381
 20
-3.156977824302662
 10
5.949601297781657
 20
-3.15326028376218
 10
6.111165958735788
 20
-3.15011520955845
 10
6.341358512456146
 20
-3.11322778264621
 10
6.521509130788421
 20
-2.957668782255396
 10
6.556967137182984
 20
-2.927071503750649
 10
6.588707603037034
 20
-2.892470451537011
 10
6.616732273674867
 20
-2.854724325119676
 10
6.620734302059491
 20
-2.849291130893141
 10
6.624451842600005
 20
-2.844144169834982
 10
6.628169383140454
 20
-2.838710975608447
 10
6.631314457344216
 20
-2.834422714055416
 10
6.634175043703741
 20
-2.830132707178182
 10
6.637033884739095
 20
-2.825844445625151
 10
6.642180845797222
 20
-2.817836898207435
 10
6.647329552179583
 20
-2.809831096113922
 10
6.652190280069366
 20
-2.801537315527863
 10
6.652761001081948
 20
-2.801251082359487
 10
6.652761001081948
 20
-2.800966594515281
 10
6.653047234250291
 20
-2.800680361346906
 10
6.657909707464309
 20
-2.792672813929222
 10
6.662770435354092
 20
-2.784380778667333
 10
6.667344930075467
 20
-2.775802510237068
 10
6.669060583761552
 20
-2.772655690709136
 10
6.670776237447573
 20
-2.769510616505406
 10
6.672491891133658
 20
-2.766365542301676
 10
6.675924943829934
 20
-2.759502927557464
 10
6.67935625120204
 20
-2.752640312813252
 10
6.682787558574145
 20
-2.745775952744838
 10
6.685073933272748
 20
-2.741773924360182
 10
6.686789586958834
 20
-2.737770150651325
 10
6.688505240644854
 20
-2.733480143774091
 10
6.691938293341194
 20
-2.726617529029912
 10
6.695083367544893
 20
-2.719468681117324
 10
6.698228441748655
 20
-2.71203360003636
 10
6.699371629097924
 20
-2.709747225337757
 10
6.700230328603084
 20
-2.707459105314953
 10
6.701087282784009
 20
-2.705170985292148
 10
6.704234102311877
 20
-2.697735904211184
 10
6.707379176515639
 20
-2.689730102117671
 10
6.710238017550994
 20
-2.682008787868332
 10
6.710810483887745
 20
-2.68086560051903
 10
6.711096717056089
 20
-2.679720667845527
 10
6.71166918339284
 20
-2.67829124732785
 10
6.776293302450337
 20
-2.700882723739117
 10
6.84034844581942
 20
-2.725188108512234
 10
6.90440184386427
 20
-2.750352192790447
 10
7.002483827786006
 20
-2.788955273388741
 10
7.098850158021721
 20
-2.830991406683309
 10
7.183777633467614
 20
-2.866163179909497
 97
        0
 97
        0
 75
     2
 76
     1
 98
        0
  0
SPLINE
  5
4F
330
47
100
AcDbEntity
  8
Layer 1
370
     0
100
AcDbSpline
210
0.0
220
0.0
230
1.0
 70
    11
 71
     3
 72
    59
 73
    55
 74
     0
 42
0.0000000001
 43
0.0000000001
 12
1.0
 22
0.0
 32
0.0
 13
1.0
 23
0.0
 33
0.0
 40
0.0
 40
0.0
 40
0.0
 40
0.0
 40
1.0
 40
1.0
 40
1.0
 40
2.0
 40
2.0
 40
2.0
 40
3.0
 40
3.0
 40
3.0
 40
4.0
 40
4.0
 40
4.0
 40
5.0
 40
5.0
 40
5.0
 40
6.0
 40
6.0
 40
6.0
 40
7.0
 40
7.0
 40
7.0
 40
8.0
 40
8.0
 40
8.0
 40
9.0
 40
9.0
 40
9.0
 40
10.0
 40
10.0
 40
10.0
 40
11.0
 40
11.0
 40
11.0
 40
12.0
 40
12.0
 40
12.0
 40
13.0
 40
13.0
 40
13.0
 40
14.0
 40
14.0
 40
14.0
 40
15.0
 40
15.0
 40
15.0
 40
16.0
 40
16.0
 40
16.0
 40
17.0
 40
17.0
 40
17.0
 40
18.0
 40
18.0
 40
18.0
 40
18.0
 10
4.699125379416126
 20
-2.936508471686041
 30
0.0
 10
4.690260877817485
 20
-2.944514273779554
 30
0.0
 10
4.681396376218844
 20
-2.952808054365613
 30
0.0
 10
4.672530129296002
 20
-2.961100089627502
 30
0.0
 10
4.204139219761741
 20
-3.402040540184947
 30
0.0
 10
3.927334292701174
 20
-3.955362415813505
 30
0.0
 10
3.779782839728043
 20
-4.575596530522331
 30
0.0
 10
3.640523422016833
 20
-5.158941472994683
 30
0.0
 10
3.629657033563796
 20
-5.748864542367138
 30
0.0
 10
3.707721894265477
 20
-6.341646452774882
 30
0.0
 10
3.72402147694505
 20
-6.464608033130689
 30
0.0
 10
3.746040487019565
 20
-6.586709168657231
 30
0.0
 10
3.766343843408027
 20
-6.716247130588842
 30
0.0
 10
3.545014045962076
 20
-6.722823512164711
 30
0.0
 10
3.329119188066862
 20
-6.701376968426915
 30
0.0
 10
3.118657524398183
 20
-6.649333146184404
 30
0.0
 10
2.939936326583553
 20
-6.6050106381912
 30
0.0
 10
2.765789623490362
 20
-6.540098540641191
 30
0.0
 10
2.591644665721341
 20
-6.479190216800038
 30
0.0
 10
2.566766814611472
 20
-6.470611948369806
 30
0.0
 10
2.537885189792777
 20
-6.436012641480402
 30
0.0
 10
2.534167649252295
 20
-6.409703624528654
 30
0.0
 10
2.440089439039385
 20
-5.798334011418468
 30
0.0
 10
2.457245975899915
 20
-5.212414715754936
 30
0.0
 10
2.605369895209765
 20
-4.657665164932871
 30
0.0
 10
2.605942361546516
 20
-4.657092698596119
 30
0.0
 10
2.606228594714893
 20
-4.656806465427743
 30
0.0
 10
2.606799315727442
 20
-4.656233999090992
 30
0.0
 10
2.744343079752599
 20
-4.507823846612766
 30
0.0
 10
2.844426950528796
 20
-4.331104535652564
 30
0.0
 10
2.94136574710123
 20
-4.160390885255682
 30
0.0
 10
2.94136574710123
 20
-4.160390885255682
 30
0.0
 10
3.152686110275037
 20
-3.788364560632902
 30
0.0
 10
3.152686110275037
 20
-3.788364560632902
 30
0.0
 10
3.152686110275037
 20
-3.788364560632902
 30
0.0
 10
3.215310087802242
 20
-3.677986767740387
 30
0.0
 10
3.215310087802242
 20
-3.677986767740387
 30
0.0
 10
3.222745168883205
 20
-3.664832259264545
 30
0.0
 10
3.230180249964169
 20
-3.651679496112873
 30
0.0
 10
3.237899818889306
 20
-3.638811220805374
 30
0.0
 10
3.32483092651383
 20
-3.488971647809471
 30
0.0
 10
3.418050437221613
 20
-3.354286724819669
 30
0.0
 10
3.554451013897468
 20
-3.291090280955713
 30
0.0
 10
3.583332638716163
 20
-3.304531022599963
 30
0.0
 10
3.644527195725691
 20
-3.329981340046551
 30
0.0
 10
3.721448869078071
 20
-3.345422223221028
 30
0.0
 10
3.812668238255627
 20
-3.363723692755062
 30
0.0
 10
3.92561863901512
 20
-3.368011954308093
 30
0.0
 10
4.031421937186195
 20
-3.320258138942783
 30
0.0
 10
4.160959899117839
 20
-3.262208656136986
 30
0.0
 10
4.250748102453516
 20
-3.138962587937005
 30
0.0
 10
4.299646850492296
 20
-2.955380662232592
 30
0.0
 10
4.418032190802527
 20
-2.903909306326832
 30
0.0
 10
4.555003488490931
 20
-2.911344387407796
 30
0.0
 10
4.699125379416126
 20
-2.936508471686041
 30
0.0
  0
HATCH
  5
50
330
47
100
AcDbEntity
  8
Layer 1
 62
   254
420
 15721183
100
AcDbHatch
 10
0.0
 20
0.0
 30
0.0
210
0.0
220
0.0
230
1.0
  2
SOLID
 70
     1
 71
     0
 91
        1
 92
        1
 93
        1
 72
     4
 94
        3
 73
     0
 74
     1
 95
       59
 96
       55
 40
0.0
 40
0.0
 40
0.0
 40
0.0
 40
1.0
 40
1.0
 40
1.0
 40
2.0
 40
2.0
 40
2.0
 40
3.0
 40
3.0
 40
3.0
 40
4.0
 40
4.0
 40
4.0
 40
5.0
 40
5.0
 40
5.0
 40
6.0
 40
6.0
 40
6.0
 40
7.0
 40
7.0
 40
7.0
 40
8.0
 40
8.0
 40
8.0
 40
9.0
 40
9.0
 40
9.0
 40
10.0
 40
10.0
 40
10.0
 40
11.0
 40
11.0
 40
11.0
 40
12.0
 40
12.0
 40
12.0
 40
13.0
 40
13.0
 40
13.0
 40
14.0
 40
14.0
 40
14.0
 40
15.0
 40
15.0
 40
15.0
 40
16.0
 40
16.0
 40
16.0
 40
17.0
 40
17.0
 40
17.0
 40
18.0
 40
18.0
 40
18.0
 40
18.0
 10
4.699125379416126
 20
-2.936508471686041
 10
4.690260877817485
 20
-2.944514273779554
 10
4.681396376218844
 20
-2.952808054365613
 10
4.672530129296002
 20
-2.961100089627502
 10
4.204139219761741
 20
-3.402040540184947
 10
3.927334292701174
 20
-3.955362415813505
 10
3.779782839728043
 20
-4.575596530522331
 10
3.640523422016833
 20
-5.158941472994683
 10
3.629657033563796
 20
-5.748864542367138
 10
3.707721894265477
 20
-6.341646452774882
 10
3.72402147694505
 20
-6.464608033130689
 10
3.746040487019565
 20
-6.586709168657231
 10
3.766343843408027
 20
-6.716247130588842
 10
3.545014045962076
 20
-6.722823512164711
 10
3.329119188066862
 20
-6.701376968426915
 10
3.118657524398183
 20
-6.649333146184404
 10
2.939936326583553
 20
-6.6050106381912
 10
2.765789623490362
 20
-6.540098540641191
 10
2.591644665721341
 20
-6.479190216800038
 10
2.566766814611472
 20
-6.470611948369806
 10
2.537885189792777
 20
-6.436012641480402
 10
2.534167649252295
 20
-6.409703624528654
 10
2.440089439039385
 20
-5.798334011418468
 10
2.457245975899915
 20
-5.212414715754936
 10
2.605369895209765
 20
-4.657665164932871
 10
2.605942361546516
 20
-4.657092698596119
 10
2.606228594714893
 20
-4.656806465427743
 10
2.606799315727442
 20
-4.656233999090992
 10
2.744343079752599
 20
-4.507823846612766
 10
2.844426950528796
 20
-4.331104535652564
 10
2.94136574710123
 20
-4.160390885255682
 10
2.94136574710123
 20
-4.160390885255682
 10
3.152686110275037
 20
-3.788364560632902
 10
3.152686110275037
 20
-3.788364560632902
 10
3.152686110275037
 20
-3.788364560632902
 10
3.215310087802242
 20
-3.677986767740387
 10
3.215310087802242
 20
-3.677986767740387
 10
3.222745168883205
 20
-3.664832259264545
 10
3.230180249964169
 20
-3.651679496112873
 10
3.237899818889306
 20
-3.638811220805374
 10
3.32483092651383
 20
-3.488971647809471
 10
3.418050437221613
 20
-3.354286724819669
 10
3.554451013897468
 20
-3.291090280955713
 10
3.583332638716163
 20
-3.304531022599963
 10
3.644527195725691
 20
-3.329981340046551
 10
3.721448869078071
 20
-3.345422223221028
 10
3.812668238255627
 20
-3.363723692755062
 10
3.92561863901512
 20
-3.368011954308093
 10
4.031421937186195
 20
-3.320258138942783
 10
4.160959899117839
 20
-3.262208656136986
 10
4.250748102453516
 20
-3.138962587937005
 10
4.299646850492296
 20
-2.955380662232592
 10
4.418032190802527
 20
-2.903909306326832
 10
4.555003488490931
 20
-2.911344387407796
 10
4.699125379416126
 20
-2.936508471686041
 97
        0
 97
        0
 75
     2
 76
     1
 98
        0
  0
SPLINE
  5
51
330
47
100
AcDbEntity
  8
Layer 1
370
     0
100
AcDbSpline
210
0.0
220
0.0
230
1.0
 70
    11
 71
     3
 72
    26
 73
    22
 74
     0
 42
0.0000000001
 43
0.0000000001
 12
1.0
 22
0.0
 32
0.0
 13
1.0
 23
0.0
 33
0.0
 40
0.0
 40
0.0
 40
0.0
 40
0.0
 40
1.0
 40
1.0
 40
1.0
 40
2.0
 40
2.0
 40
2.0
 40
3.0
 40
3.0
 40
3.0
 40
4.0
 40
4.0
 40
4.0
 40
5.0
 40
5.0
 40
5.0
 40
6.0
 40
6.0
 40
6.0
 40
7.0
 40
7.0
 40
7.0
 40
7.0
 10
2.356018917774417
 20
-4.994804204173636
 30
0.0
 10
2.279383477590412
 20
-5.440607127945034
 30
0.0
 10
2.277095357567608
 20
-5.887551493741563
 30
0.0
 10
2.334286140868278
 20
-6.362236042331753
 30
0.0
 10
2.180442794163549
 20
-6.258148397846666
 30
0.0
 10
2.046044104342123
 20
-6.170646569209592
 30
0.0
 10
1.915935421397898
 20
-6.076854592165121
 30
0.0
 10
1.894775110828542
 20
-6.061411963666442
 30
0.0
 10
1.883050022870345
 20
-6.018232643022572
 30
0.0
 10
1.883908722375473
 20
-5.988780297191296
 30
0.0
 10
1.894488877660166
 20
-5.629908481044358
 30
0.0
 10
1.95654038885062
 20
-5.285048127554252
 30
0.0
 10
2.070065001271034
 20
-4.955056190901872
 30
0.0
 10
2.073782541811516
 20
-4.954769957733497
 30
0.0
 10
2.077213849183622
 20
-4.954485469889323
 30
0.0
 10
2.080931389724104
 20
-4.953913003552571
 30
0.0
 10
2.196456143674745
 20
-4.938472120378094
 30
0.0
 10
2.298255668136995
 20
-4.895292799734191
 30
0.0
 10
2.385185030437317
 20
-4.841247090637252
 30
0.0
 10
2.374604875152624
 20
-4.892145980206291
 30
0.0
 10
2.364883419373057
 20
-4.943332848267877
 30
0.0
 10
2.356018917774417
 20
-4.994804204173636
 30
0.0
  0
HATCH
  5
52
330
47
100
AcDbEntity
  8
Layer 1
 62
   254
420
 15721183
100
AcDbHatch
 10
0.0
 20
0.0
 30
0.0
210
0.0
220
0.0
230
1.0
  2
SOLID
 70
     1
 71
     0
 91
        1
 92
        1
 93
        1
 72
     4
 94
        3
 73
     0
 74
     1
 95
       26
 96
       22
 40
0.0
 40
0.0
 40
0.0
 40
0.0
 40
1.0
 40
1.0
 40
1.0
 40
2.0
 40
2.0
 40
2.0
 40
3.0
 40
3.0
 40
3.0
 40
4.0
 40
4.0
 40
4.0
 40
5.0
 40
5.0
 40
5.0
 40
6.0
 40
6.0
 40
6.0
 40
7.0
 40
7.0
 40
7.0
 40
7.0
 10
2.356018917774417
 20
-4.994804204173636
 10
2.279383477590412
 20
-5.440607127945034
 10
2.277095357567608
 20
-5.887551493741563
 10
2.334286140868278
 20
-6.362236042331753
 10
2.180442794163549
 20
-6.258148397846666
 10
2.046044104342123
 20
-6.170646569209592
 10
1.915935421397898
 20
-6.076854592165121
 10
1.894775110828542
 20
-6.061411963666442
 10
1.883050022870345
 20
-6.018232643022572
 10
1.883908722375473
 20
-5.988780297191296
 10
1.894488877660166
 20
-5.629908481044358
 10
1.95654038885062
 20
-5.285048127554252
 10
2.070065001271034
 20
-4.955056190901872
 10
2.073782541811516
 20
-4.954769957733497
 10
2.077213849183622
 20
-4.954485469889323
 10
2.080931389724104
 20
-4.953913003552571
 10
2.196456143674745
 20
-4.938472120378094
 10
2.298255668136995
 20
-4.895292799734191
 10
2.385185030437317
 20
-4.841247090637252
 10
2.374604875152624
 20
-4.892145980206291
 10
2.364883419373057
 20
-4.943332848267877
 10
2.356018917774417
 20
-4.994804204173636
 97
        0
 97
        0
 75
     2
 76
     1
 98
        0
  0
SPLINE
  5
53
330
47
100
AcDbEntity
  8
Layer 1
370
     0
100
AcDbSpline
210
0.0
220
0.0
230
1.0
 70
    11
 71
     3
 72
    44
 73
    40
 74
     0
 42
0.0000000001
 43
0.0000000001
 12
1.0
 22
0.0
 32
0.0
 13
1.0
 23
0.0
 33
0.0
 40
0.0
 40
0.0
 40
0.0
 40
0.0
 40
1.0
 40
1.0
 40
1.0
 40
2.0
 40
2.0
 40
2.0
 40
3.0
 40
3.0
 40
3.0
 40
4.0
 40
4.0
 40
4.0
 40
5.0
 40
5.0
 40
5.0
 40
6.0
 40
6.0
 40
6.0
 40
7.0
 40
7.0
 40
7.0
 40
8.0
 40
8.0
 40
8.0
 40
9.0
 40
9.0
 40
9.0
 40
10.0
 40
10.0
 40
10.0
 40
11.0
 40
11.0
 40
11.0
 40
12.0
 40
12.0
 40
12.0
 40
13.0
 40
13.0
 40
13.0
 40
13.0
 10
2.269581156629458
 20
-7.751541170037828
 30
0.0
 10
2.041718467829861
 20
-7.302389678167414
 30
0.0
 10
1.916171049329485
 20
-6.825255495608978
 30
0.0
 10
1.882596559830355
 20
-6.323318650014862
 30
0.0
 10
1.88211872792892
 20
-6.31584650691958
 30
0.0
 10
1.884505945030072
 20
-6.308056069936463
 30
0.0
 10
1.886415330229918
 20
-6.294223871536305
 30
0.0
 10
1.904236906229586
 20
-6.304240424916927
 30
0.0
 10
1.920467651630546
 20
-6.311553421068485
 30
0.0
 10
1.934470457230747
 20
-6.32188826833675
 30
0.0
 10
2.350573663927591
 20
-6.623495016727726
 30
0.0
 10
2.818551739227822
 20
-6.791867631279326
 30
0.0
 10
3.324718489726131
 20
-6.861982534535017
 30
0.0
 10
3.796355086922346
 20
-6.927328851924553
 30
0.0
 10
4.258127174721894
 20
-6.892509635508315
 30
0.0
 10
4.710033781921685
 20
-6.734630044760549
 30
0.0
 10
4.990247228820083
 20
-6.636850744704542
 30
0.0
 10
5.228134675520054
 20
-6.471976451693116
 30
0.0
 10
5.453769424518956
 20
-6.286750758032805
 30
0.0
 10
5.512962308117241
 20
-6.238099343216408
 30
0.0
 10
5.561335989719048
 20
-6.225061909127297
 30
0.0
 10
5.636759618718325
 20
-6.254475951901842
 30
0.0
 10
6.097735320015461
 20
-6.43349976679285
 30
0.0
 10
6.480265008416233
 20
-6.714120467576091
 30
0.0
 10
6.774481260914736
 20
-7.112712722120309
 30
0.0
 10
6.790074897113773
 20
-7.133699740136389
 30
0.0
 10
6.803600842015566
 20
-7.156117139830647
 30
0.0
 10
6.823491080515536
 20
-7.186007653028533
 30
0.0
 10
6.141971676616792
 20
-7.772687334997697
 30
0.0
 10
5.397122064119158
 20
-8.215161448083876
 30
0.0
 10
4.500628807120654
 20
-8.35157560957572
 30
0.0
 10
3.985391991321973
 20
-8.429958390646151
 30
0.0
 10
3.477952964825869
 20
-8.383214798339617
 30
0.0
 10
2.998359301026589
 20
-8.175413528449413
 30
0.0
 10
2.759517161726904
 20
-8.07206893739945
 30
0.0
 10
2.539451291026698
 20
-7.925318958231188
 30
0.0
 10
2.311747879527557
 20
-7.796853410258031
 30
0.0
 10
2.294562441526722
 20
-7.787155150765178
 30
0.0
 10
2.278650250726836
 20
-7.769348160401503
 30
0.0
 10
2.269581156629458
 20
-7.751541170037828
 30
0.0
  0
HATCH
  5
54
330
47
100
AcDbEntity
  8
Layer 1
 62
   254
420
 15721183
100
AcDbHatch
 10
0.0
 20
0.0
 30
0.0
210
0.0
220
0.0
230
1.0
  2
SOLID
 70
     1
 71
     0
 91
        1
 92
        1
 93
        1
 72
     4
 94
        3
 73
     0
 74
     1
 95
       44
 96
       40
 40
0.0
 40
0.0
 40
0.0
 40
0.0
 40
1.0
 40
1.0
 40
1.0
 40
2.0
 40
2.0
 40
2.0
 40
3.0
 40
3.0
 40
3.0
 40
4.0
 40
4.0
 40
4.0
 40
5.0
 40
5.0
 40
5.0
 40
6.0
 40
6.0
 40
6.0
 40
7.0
 40
7.0
 40
7.0
 40
8.0
 40
8.0
 40
8.0
 40
9.0
 40
9.0
 40
9.0
 40
10.0
 40
10.0
 40
10.0
 40
11.0
 40
11.0
 40
11.0
 40
12.0
 40
12.0
 40
12.0
 40
13.0
 40
13.0
 40
13.0
 40
13.0
 10
2.269581156629458
 20
-7.751541170037828
 10
2.041718467829861
 20
-7.302389678167414
 10
1.916171049329485
 20
-6.825255495608978
 10
1.882596559830355
 20
-6.323318650014862
 10
1.88211872792892
 20
-6.31584650691958
 10
1.884505945030072
 20
-6.308056069936463
 10
1.886415330229918
 20
-6.294223871536305
 10
1.904236906229586
 20
-6.304240424916927
 10
1.920467651630546
 20
-6.311553421068485
 10
1.934470457230747
 20
-6.32188826833675
 10
2.350573663927591
 20
-6.623495016727726
 10
2.818551739227822
 20
-6.791867631279326
 10
3.324718489726131
 20
-6.861982534535017
 10
3.796355086922346
 20
-6.927328851924553
 10
4.258127174721894
 20
-6.892509635508315
 10
4.710033781921685
 20
-6.734630044760549
 10
4.990247228820083
 20
-6.636850744704542
 10
5.228134675520054
 20
-6.471976451693116
 10
5.453769424518956
 20
-6.286750758032805
 10
5.512962308117241
 20
-6.238099343216408
 10
5.561335989719048
 20
-6.225061909127297
 10
5.636759618718325
 20
-6.254475951901842
 10
6.097735320015461
 20
-6.43349976679285
 10
6.480265008416233
 20
-6.714120467576091
 10
6.774481260914736
 20
-7.112712722120309
 10
6.790074897113773
 20
-7.133699740136389
 10
6.803600842015566
 20
-7.156117139830647
 10
6.823491080515536
 20
-7.186007653028533
 10
6.141971676616792
 20
-7.772687334997697
 10
5.397122064119158
 20
-8.215161448083876
 10
4.500628807120654
 20
-8.35157560957572
 10
3.985391991321973
 20
-8.429958390646151
 10
3.477952964825869
 20
-8.383214798339617
 10
2.998359301026589
 20
-8.175413528449413
 10
2.759517161726904
 20
-8.07206893739945
 10
2.539451291026698
 20
-7.925318958231188
 10
2.311747879527557
 20
-7.796853410258031
 10
2.294562441526722
 20
-7.787155150765178
 10
2.278650250726836
 20
-7.769348160401503
 10
2.269581156629458
 20
-7.751541170037828
 97
        0
 97
        0
 75
     2
 76
     1
 98
        0
  0
SPLINE
  5
55
330
47
100
AcDbEntity
  8
Layer 1
370
     0
100
AcDbSpline
210
0.0
220
0.0
230
1.0
 70
    11
 71
     3
 72
    38
 73
    34
 74
     0
 42
0.0000000001
 43
0.0000000001
 12
1.0
 22
0.0
 32
0.0
 13
1.0
 23
0.0
 33
0.0
 40
0.0
 40
0.0
 40
0.0
 40
0.0
 40
1.0
 40
1.0
 40
1.0
 40
2.0
 40
2.0
 40
2.0
 40
3.0
 40
3.0
 40
3.0
 40
4.0
 40
4.0
 40
4.0
 40
5.0
 40
5.0
 40
5.0
 40
6.0
 40
6.0
 40
6.0
 40
7.0
 40
7.0
 40
7.0
 40
8.0
 40
8.0
 40
8.0
 40
9.0
 40
9.0
 40
9.0
 40
10.0
 40
10.0
 40
10.0
 40
11.0
 40
11.0
 40
11.0
 40
11.0
 10
4.183658238322524
 20
-9.456091304992876
 30
0.0
 10
3.966934277323408
 20
-9.411414682139933
 30
0.0
 10
3.758802549723165
 20
-9.29534998048054
 30
0.0
 10
3.563401351725328
 20
-9.182784570769346
 30
0.0
 10
3.127088380724574
 20
-8.931418765816861
 30
0.0
 10
2.783544725227383
 20
-8.57782142801323
 30
0.0
 10
2.505081386228214
 20
-8.158877772820063
 30
0.0
 10
2.690935658227271
 20
-8.23773799472205
 30
0.0
 10
2.867243004227581
 20
-8.33090688544741
 30
0.0
 10
3.0543695522244
 20
-8.388939236277107
 30
0.0
 10
3.922539614624678
 20
-8.658429355072949
 30
0.0
 10
4.769067388219545
 20
-8.598171858253771
 30
0.0
 10
5.596024449118669
 20
-8.213730095997482
 30
0.0
 10
6.071002956015879
 20
-7.993049568553737
 30
0.0
 10
6.50158680021439
 20
-7.70988542789363
 30
0.0
 10
6.893027276615045
 20
-7.36455596790448
 30
0.0
 10
6.898755432214293
 20
-7.359626294277975
 30
0.0
 10
6.906392973013291
 20
-7.356606383977639
 30
0.0
 10
6.930261259213217
 20
-7.342773215169264
 30
0.0
 10
7.00234394971443
 20
-7.500175365085343
 30
0.0
 10
7.088109920011968
 20
-7.649945254554004
 30
0.0
 10
7.140302372013274
 20
-7.810686579066406
 30
0.0
 10
7.209361707414181
 20
-8.023416552174835
 30
0.0
 10
7.252165539514235
 20
-8.244733667393993
 30
0.0
 10
7.306107128211807
 20
-8.46239331412912
 30
0.0
 10
7.318836686611125
 20
-8.514065609654004
 30
0.0
 10
7.300219695311974
 20
-8.549997884268997
 30
0.0
 10
7.257734417813026
 20
-8.584180512909823
 30
0.0
 10
6.717674623214609
 20
-9.016638072615443
 30
0.0
 10
6.115875450616139
 20
-9.317450056695373
 30
0.0
 10
5.431810523518651
 20
-9.443689488271025
 30
0.0
 10
5.016661038218624
 20
-9.52016444683159
 30
0.0
 10
4.595306536621004
 20
-9.540833170959772
 30
0.0
 10
4.183658238322524
 20
-9.456091304992876
 30
0.0
  0
HATCH
  5
56
330
47
100
AcDbEntity
  8
Layer 1
 62
   254
420
 15721183
100
AcDbHatch
 10
0.0
 20
0.0
 30
0.0
210
0.0
220
0.0
230
1.0
  2
SOLID
 70
     1
 71
     0
 91
        1
 92
        1
 93
        1
 72
     4
 94
        3
 73
     0
 74
     1
 95
       38
 96
       34
 40
0.0
 40
0.0
 40
0.0
 40
0.0
 40
1.0
 40
1.0
 40
1.0
 40
2.0
 40
2.0
 40
2.0
 40
3.0
 40
3.0
 40
3.0
 40
4.0
 40
4.0
 40
4.0
 40
5.0
 40
5.0
 40
5.0
 40
6.0
 40
6.0
 40
6.0
 40
7.0
 40
7.0
 40
7.0
 40
8.0
 40
8.0
 40
8.0
 40
9.0
 40
9.0
 40
9.0
 40
10.0
 40
10.0
 40
10.0
 40
11.0
 40
11.0
 40
11.0
 40
11.0
 10
4.183658238322524
 20
-9.456091304992876
 10
3.966934277323408
 20
-9.411414682139933
 10
3.758802549723165
 20
-9.29534998048054
 10
3.563401351725328
 20
-9.182784570769346
 10
3.127088380724574
 20
-8.931418765816861
 10
2.783544725227383
 20
-8.57782142801323
 10
2.505081386228214
 20
-8.158877772820063
 10
2.690935658227271
 20
-8.23773799472205
 10
2.867243004227581
 20
-8.33090688544741
 10
3.0543695522244
 20
-8.388939236277107
 10
3.922539614624678
 20
-8.658429355072949
 10
4.769067388219545
 20
-8.598171858253771
 10
5.596024449118669
 20
-8.213730095997482
 10
6.071002956015879
 20
-7.993049568553737
 10
6.50158680021439
 20
-7.70988542789363
 10
6.893027276615045
 20
-7.36455596790448
 10
6.898755432214293
 20
-7.359626294277975
 10
6.906392973013291
 20
-7.356606383977639
 10
6.930261259213217
 20
-7.342773215169264
 10
7.00234394971443
 20
-7.500175365085343
 10
7.088109920011968
 20
-7.649945254554004
 10
7.140302372013274
 20
-7.810686579066406
 10
7.209361707414181
 20
-8.023416552174835
 10
7.252165539514235
 20
-8.244733667393993
 10
7.306107128211807
 20
-8.46239331412912
 10
7.318836686611125
 20
-8.514065609654004
 10
7.300219695311974
 20
-8.549997884268997
 10
7.257734417813026
 20
-8.584180512909823
 10
6.717674623214609
 20
-9.016638072615443
 10
6.115875450616139
 20
-9.317450056695373
 10
5.431810523518651
 20
-9.443689488271025
 10
5.016661038218624
 20
-9.52016444683159
 10
4.595306536621004
 20
-9.540833170959772
 10
4.183658238322524
 20
-9.456091304992876
 97
        0
 97
        0
 75
     2
 76
     1
 98
        0
  0
SPLINE
  5
57
330
47
100
AcDbEntity
  8
Layer 1
370
     0
100
AcDbSpline
210
0.0
220
0.0
230
1.0
 70
    11
 71
     3
 72
    20
 73
    16
 74
     0
 42
0.0000000001
 43
0.0000000001
 12
1.0
 22
0.0
 32
0.0
 13
1.0
 23
0.0
 33
0.0
 40
0.0
 40
0.0
 40
0.0
 40
0.0
 40
1.0
 40
1.0
 40
1.0
 40
2.0
 40
2.0
 40
2.0
 40
3.0
 40
3.0
 40
3.0
 40
4.0
 40
4.0
 40
4.0
 40
5.0
 40
5.0
 40
5.0
 40
5.0
 10
7.320747043013964
 20
-9.159889730243531
 30
0.0
 10
7.288285552212107
 20
-9.321583995602614
 30
0.0
 10
7.202677888012128
 20
-9.362763267323665
 30
0.0
 10
7.142530311813744
 20
-9.398058954163115
 30
0.0
 10
6.580988476913687
 20
-9.665005633081835
 30
0.0
 10
5.990805864017324
 20
-9.782659863363387
 30
0.0
 10
5.371344392719546
 20
-9.755790230874117
 30
0.0
 10
5.189785751818428
 20
-9.747840646947212
 30
0.0
 10
4.825874025919736
 20
-9.688059620551568
 30
0.0
 10
4.825874025919736
 20
-9.688059620551568
 30
0.0
 10
5.7483042316185
 20
-9.639090882255683
 30
0.0
 10
6.580033784313716
 20
-9.343365777929678
 30
0.0
 10
7.333317324112825
 20
-8.760820034867754
 30
0.0
 10
7.327748445813969
 20
-8.875135090552984
 30
0.0
 10
7.32949855371339
 20
-9.116007871701825
 30
0.0
 10
7.320747043013964
 20
-9.159889730243531
 30
0.0
  0
HATCH
  5
58
330
47
100
AcDbEntity
  8
Layer 1
 62
   254
420
 15721183
100
AcDbHatch
 10
0.0
 20
0.0
 30
0.0
210
0.0
220
0.0
230
1.0
  2
SOLID
 70
     1
 71
     0
 91
        1
 92
        1
 93
        1
 72
     4
 94
        3
 73
     0
 74
     1
 95
       20
 96
       16
 40
0.0
 40
0.0
 40
0.0
 40
0.0
 40
1.0
 40
1.0
 40
1.0
 40
2.0
 40
2.0
 40
2.0
 40
3.0
 40
3.0
 40
3.0
 40
4.0
 40
4.0
 40
4.0
 40
5.0
 40
5.0
 40
5.0
 40
5.0
 10
7.320747043013964
 20
-9.159889730243531
 10
7.288285552212107
 20
-9.321583995602614
 10
7.202677888012128
 20
-9.362763267323665
 10
7.142530311813744
 20
-9.398058954163115
 10
6.580988476913687
 20
-9.665005633081835
 10
5.990805864017324
 20
-9.782659863363387
 10
5.371344392719546
 20
-9.755790230874117
 10
5.189785751818428
 20
-9.747840646947212
 10
4.825874025919736
 20
-9.688059620551568
 10
4.825874025919736
 20
-9.688059620551568
 10
5.7483042316185
 20
-9.639090882255683
 10
6.580033784313716
 20
-9.343365777929678
 10
7.333317324112825
 20
-8.760820034867754
 10
7.327748445813969
 20
-8.875135090552984
 10
7.32949855371339
 20
-9.116007871701825
 10
7.320747043013964
 20
-9.159889730243531
 97
        0
 97
        0
 75
     2
 76
     1
 98
        0
  0
SPLINE
  5
59
330
47
100
AcDbEntity
  8
Layer 1
370
     0
100
AcDbSpline
210
0.0
220
0.0
230
1.0
 70
    11
 71
     3
 72
    44
 73
    40
 74
     0
 42
0.0000000001
 43
0.0000000001
 12
1.0
 22
0.0
 32
0.0
 13
1.0
 23
0.0
 33
0.0
 40
0.0
 40
0.0
 40
0.0
 40
0.0
 40
1.0
 40
1.0
 40
1.0
 40
2.0
 40
2.0
 40
2.0
 40
3.0
 40
3.0
 40
3.0
 40
4.0
 40
4.0
 40
4.0
 40
5.0
 40
5.0
 40
5.0
 40
6.0
 40
6.0
 40
6.0
 40
7.0
 40
7.0
 40
7.0
 40
8.0
 40
8.0
 40
8.0
 40
9.0
 40
9.0
 40
9.0
 40
10.0
 40
10.0
 40
10.0
 40
11.0
 40
11.0
 40
11.0
 40
12.0
 40
12.0
 40
12.0
 40
13.0
 40
13.0
 40
13.0
 40
13.0
 10
8.58640234960891
 20
-8.035023604585769
 30
0.0
 10
8.58624307230839
 20
-8.069842821002007
 30
0.0
 10
8.574945067207388
 20
-8.109272446748829
 30
0.0
 10
8.55600952130726
 20
-8.138209048691687
 30
0.0
 10
8.288208049410388
 20
-8.54681785661672
 30
0.0
 10
7.942754037510293
 20
-8.879269029460353
 30
0.0
 10
7.544630712910611
 20
-9.159094965932484
 30
0.0
 10
7.536038479511771
 20
-9.165136727349717
 30
0.0
 10
7.526650830813352
 20
-9.17038275404743
 30
0.0
 10
7.516943656311122
 20
-9.174675839898653
 30
0.0
 10
7.512806331310646
 20
-9.176583662408389
 30
0.0
 10
7.507237453011919
 20
-9.174994133786358
 30
0.0
 10
7.499281357612007
 20
-9.174994133786358
 30
0.0
 10
7.499281357612007
 20
-9.05431902279619
 30
0.0
 10
7.501668574713191
 20
-8.933643911806215
 30
0.0
 10
7.498962803010966
 20
-8.813128918168115
 30
0.0
 10
7.483369166811992
 20
-8.115949825533065
 30
0.0
 10
7.287330859612265
 20
-7.479506640957096
 30
0.0
 10
6.849586335313164
 20
-6.92844093971496
 30
0.0
 10
6.55568863741551
 20
-6.55830881669026
 30
0.0
 10
6.190026803617686
 20
-6.279755085360864
 30
0.0
 10
5.745121599217803
 20
-6.113926881094281
 30
0.0
 10
5.643283189617024
 20
-6.076086783969682
 30
0.0
 10
5.600161774119018
 20
-6.021552754680033
 30
0.0
 10
5.584567166717083
 20
-5.913120313468057
 30
0.0
 10
5.516781078516804
 20
-5.439643599393521
 30
0.0
 10
5.575020240718271
 20
-4.985721580840422
 30
0.0
 10
5.765171115018358
 20
-4.547223230125946
 30
0.0
 10
5.791425647116378
 20
-4.486647439419094
 30
0.0
 10
5.817045012418751
 20
-4.464388216260601
 30
0.0
 10
5.888012761816445
 20
-4.489190879296153
 30
0.0
 10
6.709718527814569
 20
-4.776966399695189
 30
0.0
 10
7.423539174011689
 20
-5.224209098647617
 30
0.0
 10
7.97855646681015
 20
-5.902786436607882
 30
0.0
 10
8.34374143990963
 20
-6.349234371249231
 30
0.0
 10
8.56030612360832
 20
-6.858326036459334
 30
0.0
 10
8.58242430190889
 20
-7.440235191745846
 30
0.0
 10
8.589902565407495
 20
-7.638339172551288
 30
0.0
 10
8.587833902907226
 20
-7.83676047683641
 30
0.0
 10
8.58640234960891
 20
-8.035023604585769
 30
0.0
  0
HATCH
  5
5A
330
47
100
AcDbEntity
  8
Layer 1
 62
   254
420
 15721183
100
AcDbHatch
 10
0.0
 20
0.0
 30
0.0
210
0.0
220
0.0
230
1.0
  2
SOLID
 70
     1
 71
     0
 91
        1
 92
        1
 93
        1
 72
     4
 94
        3
 73
     0
 74
     1
 95
       44
 96
       40
 40
0.0
 40
0.0
 40
0.0
 40
0.0
 40
1.0
 40
1.0
 40
1.0
 40
2.0
 40
2.0
 40
2.0
 40
3.0
 40
3.0
 40
3.0
 40
4.0
 40
4.0
 40
4.0
 40
5.0
 40
5.0
 40
5.0
 40
6.0
 40
6.0
 40
6.0
 40
7.0
 40
7.0
 40
7.0
 40
8.0
 40
8.0
 40
8.0
 40
9.0
 40
9.0
 40
9.0
 40
10.0
 40
10.0
 40
10.0
 40
11.0
 40
11.0
 40
11.0
 40
12.0
 40
12.0
 40
12.0
 40
13.0
 40
13.0
 40
13.0
 40
13.0
 10
8.58640234960891
 20
-8.035023604585769
 10
8.58624307230839
 20
-8.069842821002007
 10
8.574945067207388
 20
-8.109272446748829
 10
8.55600952130726
 20
-8.138209048691687
 10
8.288208049410388
 20
-8.54681785661672
 10
7.942754037510293
 20
-8.879269029460353
 10
7.544630712910611
 20
-9.159094965932484
 10
7.536038479511771
 20
-9.165136727349717
 10
7.526650830813352
 20
-9.17038275404743
 10
7.516943656311122
 20
-9.174675839898653
 10
7.512806331310646
 20
-9.176583662408389
 10
7.507237453011919
 20
-9.174994133786358
 10
7.499281357612007
 20
-9.174994133786358
 10
7.499281357612007
 20
-9.05431902279619
 10
7.501668574713191
 20
-8.933643911806215
 10
7.498962803010966
 20
-8.813128918168115
 10
7.483369166811992
 20
-8.115949825533065
 10
7.287330859612265
 20
-7.479506640957096
 10
6.849586335313164
 20
-6.92844093971496
 10
6.55568863741551
 20
-6.55830881669026
 10
6.190026803617686
 20
-6.279755085360864
 10
5.745121599217803
 20
-6.113926881094281
 10
5.643283189617024
 20
-6.076086783969682
 10
5.600161774119018
 20
-6.021552754680033
 10
5.584567166717083
 20
-5.913120313468057
 10
5.516781078516804
 20
-5.439643599393521
 10
5.575020240718271
 20
-4.985721580840422
 10
5.765171115018358
 20
-4.547223230125946
 10
5.791425647116378
 20
-4.486647439419094
 10
5.817045012418751
 20
-4.464388216260601
 10
5.888012761816445
 20
-4.489190879296153
 10
6.709718527814569
 20
-4.776966399695189
 10
7.423539174011689
 20
-5.224209098647617
 10
7.97855646681015
 20
-5.902786436607882
 10
8.34374143990963
 20
-6.349234371249231
 10
8.56030612360832
 20
-6.858326036459334
 10
8.58242430190889
 20
-7.440235191745846
 10
8.589902565407495
 20
-7.638339172551288
 10
8.587833902907226
 20
-7.83676047683641
 10
8.58640234960891
 20
-8.035023604585769
 97
        0
 97
        0
 75
     2
 76
     1
 98
        0
  0
SPLINE
  5
5B
330
47
100
AcDbEntity
  8
Layer 1
370
     0
100
AcDbSpline
210
0.0
220
0.0
230
1.0
 70
    11
 71
     3
 72
    41
 73
    37
 74
     0
 42
0.0000000001
 43
0.0000000001
 12
1.0
 22
0.0
 32
0.0
 13
1.0
 23
0.0
 33
0.0
 40
0.0
 40
0.0
 40
0.0
 40
0.0
 40
1.0
 40
1.0
 40
1.0
 40
2.0
 40
2.0
 40
2.0
 40
3.0
 40
3.0
 40
3.0
 40
4.0
 40
4.0
 40
4.0
 40
5.0
 40
5.0
 40
5.0
 40
6.0
 40
6.0
 40
6.0
 40
7.0
 40
7.0
 40
7.0
 40
8.0
 40
8.0
 40
8.0
 40
9.0
 40
9.0
 40
9.0
 40
10.0
 40
10.0
 40
10.0
 40
11.0
 40
11.0
 40
11.0
 40
12.0
 40
12.0
 40
12.0
 40
12.0
 10
9.16592406660629
 20
-6.29470034195971
 30
0.0
 10
9.149852598505818
 20
-6.779306667613493
 30
0.0
 10
9.024146873907947
 20
-7.23831653632883
 30
0.0
 10
8.816651284306761
 20
-7.675701828844521
 30
0.0
 10
8.812196375908332
 20
-7.684764470970179
 30
0.0
 10
8.80599038840765
 20
-7.69303234878479
 30
0.0
 10
8.787691951709478
 20
-7.723082008926465
 30
0.0
 10
8.7873733971085
 20
-7.361852410675416
 30
0.0
 10
8.735180945107258
 20
-7.032262971596354
 30
0.0
 10
8.61743131590949
 20
-6.714279614520008
 30
0.0
 10
8.33658075980904
 20
-5.955889113811073
 30
0.0
 10
7.835982887609394
 20
-5.372707753382019
 30
0.0
 10
7.177059493913037
 20
-4.917038029671094
 30
0.0
 10
6.813147768014377
 20
-4.665353930830839
 30
0.0
 10
6.413115058214819
 20
-4.488077821097368
 30
0.0
 10
5.995102466318193
 20
-4.348324485009329
 30
0.0
 10
5.960254729618243
 20
-4.336559256062695
 30
0.0
 10
5.926361685518072
 20
-4.32224961683101
 30
0.0
 10
5.879101973816628
 20
-4.304283479523643
 30
0.0
 10
5.916496204918347
 20
-4.243866835760773
 30
0.0
 10
5.94911600181757
 20
-4.187742307440812
 30
0.0
 10
5.984918431117491
 20
-4.133844865926607
 30
0.0
 10
6.172682088316265
 20
-3.850680725266371
 30
0.0
 10
6.406432210015792
 20
-3.611556619683668
 30
0.0
 10
6.67693945361489
 20
-3.406617083558098
 30
0.0
 10
6.720538701014202
 20
-3.373705689651692
 30
0.0
 10
6.75538643771428
 20
-3.369571750744386
 30
0.0
 10
6.805987087913788
 20
-3.388491799306846
 30
0.0
 10
7.340478004213414
 20
-3.587231397479579
 30
0.0
 10
7.803203813409842
 20
-3.897424317572936
 30
0.0
 10
8.211192618609248
 20
-4.291246045434532
 30
0.0
 10
8.547258010607834
 20
-4.615748604759574
 30
0.0
 10
8.820629332006716
 20
-4.985245110417017
 30
0.0
 10
9.01762233180635
 20
-5.411820055649352
 30
0.0
 10
9.148421045207504
 20
-5.695143343253377
 30
0.0
 10
9.175948824506472
 20
-5.991980535369917
 30
0.0
 10
9.16592406660629
 20
-6.29470034195971
 30
0.0
  0
HATCH
  5
5C
330
47
100
AcDbEntity
  8
Layer 1
 62
   254
420
 15721183
100
AcDbHatch
 10
0.0
 20
0.0
 30
0.0
210
0.0
220
0.0
230
1.0
  2
SOLID
 70
     1
 71
     0
 91
        1
 92
        1
 93
        1
 72
     4
 94
        3
 73
     0
 74
     1
 95
       41
 96
       37
 40
0.0
 40
0.0
 40
0.0
 40
0.0
 40
1.0
 40
1.0
 40
1.0
 40
2.0
 40
2.0
 40
2.0
 40
3.0
 40
3.0
 40
3.0
 40
4.0
 40
4.0
 40
4.0
 40
5.0
 40
5.0
 40
5.0
 40
6.0
 40
6.0
 40
6.0
 40
7.0
 40
7.0
 40
7.0
 40
8.0
 40
8.0
 40
8.0
 40
9.0
 40
9.0
 40
9.0
 40
10.0
 40
10.0
 40
10.0
 40
11.0
 40
11.0
 40
11.0
 40
12.0
 40
12.0
 40
12.0
 40
12.0
 10
9.16592406660629
 20
-6.29470034195971
 10
9.149852598505818
 20
-6.779306667613493
 10
9.024146873907947
 20
-7.23831653632883
 10
8.816651284306761
 20
-7.675701828844521
 10
8.812196375908332
 20
-7.684764470970179
 10
8.80599038840765
 20
-7.69303234878479
 10
8.787691951709478
 20
-7.723082008926465
 10
8.7873733971085
 20
-7.361852410675416
 10
8.735180945107258
 20
-7.032262971596354
 10
8.61743131590949
 20
-6.714279614520008
 10
8.33658075980904
 20
-5.955889113811073
 10
7.835982887609394
 20
-5.372707753382019
 10
7.177059493913037
 20
-4.917038029671094
 10
6.813147768014377
 20
-4.665353930830839
 10
6.413115058214819
 20
-4.488077821097368
 10
5.995102466318193
 20
-4.348324485009329
 10
5.960254729618243
 20
-4.336559256062695
 10
5.926361685518072
 20
-4.32224961683101
 10
5.879101973816628
 20
-4.304283479523643
 10
5.916496204918347
 20
-4.243866835760773
 10
5.94911600181757
 20
-4.187742307440812
 10
5.984918431117491
 20
-4.133844865926607
 10
6.172682088316265
 20
-3.850680725266371
 10
6.406432210015792
 20
-3.611556619683668
 10
6.67693945361489
 20
-3.406617083558098
 10
6.720538701014202
 20
-3.373705689651692
 10
6.75538643771428
 20
-3.369571750744386
 10
6.805987087913788
 20
-3.388491799306846
 10
7.340478004213414
 20
-3.587231397479579
 10
7.803203813409842
 20
-3.897424317572936
 10
8.211192618609248
 20
-4.291246045434532
 10
8.547258010607834
 20
-4.615748604759574
 10
8.820629332006716
 20
-4.985245110417017
 10
9.01762233180635
 20
-5.411820055649352
 10
9.148421045207504
 20
-5.695143343253377
 10
9.175948824506472
 20
-5.991980535369917
 10
9.16592406660629
 20
-6.29470034195971
 97
        0
 97
        0
 75
     2
 76
     1
 98
        0
  0
ENDBLK
  5
4A
330
47
100
AcDbEntity
  8
0
100
AcDbBlockEnd
  0
BLOCK
  5
5F
330
5D
100
AcDbEntity
  8
0
100
AcDbBlockBegin
  2
block 4
 70
     0
 10
0.0
 20
0.0
 30
0.0
  3
block 4
  1

  0
SPLINE
  5
61
330
5D
100
AcDbEntity
  8
Layer 1
370
     0
100
AcDbSpline
210
0.0
220
0.0
230
1.0
 70
    11
 71
     3
 72
    95
 73
    91
 74
     0
 42
0.0000000001
 43
0.0000000001
 12
1.0
 22
0.0
 32
0.0
 13
1.0
 23
0.0
 33
0.0
 40
0.0
 40
0.0
 40
0.0
 40
0.0
 40
1.0
 40
1.0
 40
1.0
 40
2.0
 40
2.0
 40
2.0
 40
3.0
 40
3.0
 40
3.0
 40
4.0
 40
4.0
 40
4.0
 40
5.0
 40
5.0
 40
5.0
 40
6.0
 40
6.0
 40
6.0
 40
7.0
 40
7.0
 40
7.0
 40
8.0
 40
8.0
 40
8.0
 40
9.0
 40
9.0
 40
9.0
 40
10.0
 40
10.0
 40
10.0
 40
11.0
 40
11.0
 40
11.0
 40
12.0
 40
12.0
 40
12.0
 40
13.0
 40
13.0
 40
13.0
 40
14.0
 40
14.0
 40
14.0
 40
15.0
 40
15.0
 40
15.0
 40
16.0
 40
16.0
 40
16.0
 40
17.0
 40
17.0
 40
17.0
 40
18.0
 40
18.0
 40
18.0
 40
19.0
 40
19.0
 40
19.0
 40
20.0
 40
20.0
 40
20.0
 40
21.0
 40
21.0
 40
21.0
 40
22.0
 40
22.0
 40
22.0
 40
23.0
 40
23.0
 40
23.0
 40
24.0
 40
24.0
 40
24.0
 40
25.0
 40
25.0
 40
25.0
 40
26.0
 40
26.0
 40
26.0
 40
27.0
 40
27.0
 40
27.0
 40
28.0
 40
28.0
 40
28.0
 40
29.0
 40
29.0
 40
29.0
 40
30.0
 40
30.0
 40
30.0
 40
30.0
 10
3.150577104148008
 20
-3.641174771558325
 30
0.0
 10
3.150577104148008
 20
-3.641174771558325
 30
0.0
 10
3.054209028588091
 20
-3.811031467774314
 30
0.0
 10
3.054209028588091
 20
-3.811031467774314
 30
0.0
 10
3.054209028588091
 20
-3.811031467774314
 30
0.0
 10
2.876632763446997
 20
-4.123578889073587
 30
0.0
 10
2.876632763446997
 20
-4.123578889073587
 30
0.0
 10
2.781982086897335
 20
-4.290576744254222
 30
0.0
 10
2.683900102975567
 20
-4.463292281505566
 30
0.0
 10
2.552074021021119
 20
-4.605410540252129
 30
0.0
 10
2.408812574925254
 20
-4.760398819630393
 30
0.0
 10
2.237810946035761
 20
-4.857908337215378
 30
0.0
 10
2.071101069347736
 20
-4.880213580458268
 30
0.0
 10
2.022488554477299
 20
-4.886789962034105
 30
0.0
 10
1.973303573270142
 20
-4.886503728865729
 30
0.0
 10
1.924406570555563
 20
-4.880213580458268
 30
0.0
 10
1.910965828911313
 20
-4.878782414616389
 30
0.0
 10
1.897526832591265
 20
-4.876496039917787
 30
0.0
 10
1.884086090947015
 20
-4.873921686726606
 30
0.0
 10
1.733387818445984
 20
-4.845040061907912
 30
0.0
 10
1.592128259204548
 20
-4.759826353293642
 30
0.0
 10
1.502338310544701
 20
-4.635721585588501
 30
0.0
 10
1.368512087059994
 20
-4.450996472534819
 30
0.0
 10
1.349638151189242
 20
-4.208221876675307
 30
0.0
 10
1.331622914823585
 20
-3.973739316077716
 30
0.0
 10
1.326762186933801
 20
-3.909970405877008
 30
0.0
 10
1.321615225875642
 20
-3.844487587314417
 30
0.0
 10
1.314466377963055
 20
-3.780720422437911
 30
0.0
 10
1.275290831028042
 20
-3.439005143151535
 30
0.0
 10
1.159479843908992
 20
-3.103295524428446
 30
0.0
 10
0.979899946589267
 20
-2.809620293675724
 30
0.0
 10
0.979899946589267
 20
-2.809620293675724
 30
0.0
 10
0.9164190148811366
 20
-2.848509607442361
 30
0.0
 10
0.9164190148811366
 20
-2.848509607442361
 30
0.0
 10
1.06940366208077
 20
-3.098148563370287
 30
0.0
 10
1.174348260746718
 20
-3.379240006659685
 30
0.0
 10
1.223247008785499
 20
-3.668054509522623
 30
0.0
 10
0.6341826389182359
 20
-3.22825724631448
 30
0.0
 10
0.6032991272450802
 20
-2.798183184210105
 30
0.0
 10
0.6190262435879329
 20
-2.629183442175041
 30
0.0
 10
0.6373277131219661
 20
-2.428729467454304
 30
0.0
 10
0.7425585449562897
 20
-2.262019590766247
 30
0.0
 10
0.8932568174573203
 20
-2.194246906856681
 30
0.0
 10
1.336199154869194
 20
-1.995224097977823
 30
0.0
 10
2.516329781458212
 20
-1.876266291330873
 30
0.0
 10
3.256378656994881
 20
-2.493355331835938
 30
0.0
 10
3.256092423826506
 20
-2.495643451858742
 30
0.0
 10
3.255807935982332
 20
-2.497645338713171
 30
0.0
 10
3.25523546964558
 20
-2.50021794658015
 30
0.0
 10
3.232359505390172
 20
-2.634902869569951
 30
0.0
 10
3.232645738558547
 20
-2.756433284083879
 30
0.0
 10
3.255521702813956
 20
-2.864809190121965
 30
0.0
 10
3.239222120134384
 20
-2.86452295695359
 30
0.0
 10
3.223208770623155
 20
-2.864238469109416
 30
0.0
 10
3.207195421111927
 20
-2.863666002772664
 30
0.0
 10
2.764823804712603
 20
-2.846793953756308
 30
0.0
 10
2.32445582049191
 20
-2.777021128316516
 30
0.0
 10
1.89838378677219
 20
-2.655776946970963
 30
0.0
 10
1.89838378677219
 20
-2.655776946970963
 30
0.0
 10
1.87808217570793
 20
-2.727265426096809
 30
0.0
 10
1.87808217570793
 20
-2.727265426096809
 30
0.0
 10
2.019057247105193
 20
-2.767299672536949
 30
0.0
 10
2.161747972188508
 20
-2.801898979426385
 30
0.0
 10
2.305581884621157
 20
-2.831066837413455
 30
0.0
 10
2.589249426425905
 20
-2.887971387545782
 30
0.0
 10
2.877203484459546
 20
-2.923144906096139
 30
0.0
 10
3.166304220490829
 20
-2.936011436079435
 30
0.0
 10
2.683327636638815
 20
-3.110730605509378
 30
0.0
 10
2.27670025980243
 20
-3.476178803232119
 30
0.0
 10
2.062807288761645
 20
-3.935706956491972
 30
0.0
 10
2.062807288761645
 20
-3.935706956491972
 30
0.0
 10
2.130291994178633
 20
-3.967161189177678
 30
0.0
 10
2.130291994178633
 20
-3.967161189177678
 30
0.0
 10
2.348188738928276
 20
-3.498770279643386
 30
0.0
 10
2.774547005816371
 20
-3.131890916078765
 30
0.0
 10
3.276109547046592
 20
-2.977761336205628
 30
0.0
 10
3.279827087587074
 20
-2.976331915687951
 30
0.0
 10
3.283830861295931
 20
-2.97518872833865
 30
0.0
 10
3.287834635004789
 20
-2.974043795665147
 30
0.0
 10
3.311567553441155
 20
-3.034665886337955
 30
0.0
 10
3.343595997787782
 20
-3.090427249120947
 30
0.0
 10
3.384200965240504
 20
-3.141041650845782
 30
0.0
 10
3.405647508978235
 20
-3.16792138881008
 30
0.0
 10
3.429382172738803
 20
-3.193369960932467
 30
0.0
 10
3.455689444366349
 20
-3.21739085786141
 30
0.0
 10
3.465126412301709
 20
-3.225969126291675
 30
0.0
 10
3.474847868081276
 20
-3.234262906877766
 30
0.0
 10
3.484855557029218
 20
-3.242554942139655
 30
0.0
 10
3.325008295085373
 20
-3.334631265498105
 30
0.0
 10
3.225210657477584
 20
-3.509634922772253
 30
0.0
 10
3.150577104148008
 20
-3.641174771558325
 30
0.0
  0
HATCH
  5
62
330
5D
100
AcDbEntity
  8
Layer 1
 62
   223
420
 15686587
100
AcDbHatch
 10
0.0
 20
0.0
 30
0.0
210
0.0
220
0.0
230
1.0
  2
SOLID
 70
     1
 71
     0
 91
        1
 92
        1
 93
        1
 72
     4
 94
        3
 73
     0
 74
     1
 95
       95
 96
       91
 40
0.0
 40
0.0
 40
0.0
 40
0.0
 40
1.0
 40
1.0
 40
1.0
 40
2.0
 40
2.0
 40
2.0
 40
3.0
 40
3.0
 40
3.0
 40
4.0
 40
4.0
 40
4.0
 40
5.0
 40
5.0
 40
5.0
 40
6.0
 40
6.0
 40
6.0
 40
7.0
 40
7.0
 40
7.0
 40
8.0
 40
8.0
 40
8.0
 40
9.0
 40
9.0
 40
9.0
 40
10.0
 40
10.0
 40
10.0
 40
11.0
 40
11.0
 40
11.0
 40
12.0
 40
12.0
 40
12.0
 40
13.0
 40
13.0
 40
13.0
 40
14.0
 40
14.0
 40
14.0
 40
15.0
 40
15.0
 40
15.0
 40
16.0
 40
16.0
 40
16.0
 40
17.0
 40
17.0
 40
17.0
 40
18.0
 40
18.0
 40
18.0
 40
19.0
 40
19.0
 40
19.0
 40
20.0
 40
20.0
 40
20.0
 40
21.0
 40
21.0
 40
21.0
 40
22.0
 40
22.0
 40
22.0
 40
23.0
 40
23.0
 40
23.0
 40
24.0
 40
24.0
 40
24.0
 40
25.0
 40
25.0
 40
25.0
 40
26.0
 40
26.0
 40
26.0
 40
27.0
 40
27.0
 40
27.0
 40
28.0
 40
28.0
 40
28.0
 40
29.0
 40
29.0
 40
29.0
 40
30.0
 40
30.0
 40
30.0
 40
30.0
 10
3.150577104148008
 20
-3.641174771558325
 10
3.150577104148008
 20
-3.641174771558325
 10
3.054209028588091
 20
-3.811031467774314
 10
3.054209028588091
 20
-3.811031467774314
 10
3.054209028588091
 20
-3.811031467774314
 10
2.876632763446997
 20
-4.123578889073587
 10
2.876632763446997
 20
-4.123578889073587
 10
2.781982086897335
 20
-4.290576744254222
 10
2.683900102975567
 20
-4.463292281505566
 10
2.552074021021119
 20
-4.605410540252129
 10
2.408812574925254
 20
-4.760398819630393
 10
2.237810946035761
 20
-4.857908337215378
 10
2.071101069347736
 20
-4.880213580458268
 10
2.022488554477299
 20
-4.886789962034105
 10
1.973303573270142
 20
-4.886503728865729
 10
1.924406570555563
 20
-4.880213580458268
 10
1.910965828911313
 20
-4.878782414616389
 10
1.897526832591265
 20
-4.876496039917787
 10
1.884086090947015
 20
-4.873921686726606
 10
1.733387818445984
 20
-4.845040061907912
 10
1.592128259204548
 20
-4.759826353293642
 10
1.502338310544701
 20
-4.635721585588501
 10
1.368512087059994
 20
-4.450996472534819
 10
1.349638151189242
 20
-4.208221876675307
 10
1.331622914823585
 20
-3.973739316077716
 10
1.326762186933801
 20
-3.909970405877008
 10
1.321615225875642
 20
-3.844487587314417
 10
1.314466377963055
 20
-3.780720422437911
 10
1.275290831028042
 20
-3.439005143151535
 10
1.159479843908992
 20
-3.103295524428446
 10
0.979899946589267
 20
-2.809620293675724
 10
0.979899946589267
 20
-2.809620293675724
 10
0.9164190148811366
 20
-2.848509607442361
 10
0.9164190148811366
 20
-2.848509607442361
 10
1.06940366208077
 20
-3.098148563370287
 10
1.174348260746718
 20
-3.379240006659685
 10
1.223247008785499
 20
-3.668054509522623
 10
0.6341826389182359
 20
-3.22825724631448
 10
0.6032991272450802
 20
-2.798183184210105
 10
0.6190262435879329
 20
-2.629183442175041
 10
0.6373277131219661
 20
-2.428729467454304
 10
0.7425585449562897
 20
-2.262019590766247
 10
0.8932568174573203
 20
-2.194246906856681
 10
1.336199154869194
 20
-1.995224097977823
 10
2.516329781458212
 20
-1.876266291330873
 10
3.256378656994881
 20
-2.493355331835938
 10
3.256092423826506
 20
-2.495643451858742
 10
3.255807935982332
 20
-2.497645338713171
 10
3.25523546964558
 20
-2.50021794658015
 10
3.232359505390172
 20
-2.634902869569951
 10
3.232645738558547
 20
-2.756433284083879
 10
3.255521702813956
 20
-2.864809190121965
 10
3.239222120134384
 20
-2.86452295695359
 10
3.223208770623155
 20
-2.864238469109416
 10
3.207195421111927
 20
-2.863666002772664
 10
2.764823804712603
 20
-2.846793953756308
 10
2.32445582049191
 20
-2.777021128316516
 10
1.89838378677219
 20
-2.655776946970963
 10
1.89838378677219
 20
-2.655776946970963
 10
1.87808217570793
 20
-2.727265426096809
 10
1.87808217570793
 20
-2.727265426096809
 10
2.019057247105193
 20
-2.767299672536949
 10
2.161747972188508
 20
-2.801898979426385
 10
2.305581884621157
 20
-2.831066837413455
 10
2.589249426425905
 20
-2.887971387545782
 10
2.877203484459546
 20
-2.923144906096139
 10
3.166304220490829
 20
-2.936011436079435
 10
2.683327636638815
 20
-3.110730605509378
 10
2.27670025980243
 20
-3.476178803232119
 10
2.062807288761645
 20
-3.935706956491972
 10
2.062807288761645
 20
-3.935706956491972
 10
2.130291994178633
 20
-3.967161189177678
 10
2.130291994178633
 20
-3.967161189177678
 10
2.348188738928276
 20
-3.498770279643386
 10
2.774547005816371
 20
-3.131890916078765
 10
3.276109547046592
 20
-2.977761336205628
 10
3.279827087587074
 20
-2.976331915687951
 10
3.283830861295931
 20
-2.97518872833865
 10
3.287834635004789
 20
-2.974043795665147
 10
3.311567553441155
 20
-3.034665886337955
 10
3.343595997787782
 20
-3.090427249120947
 10
3.384200965240504
 20
-3.141041650845782
 10
3.405647508978235
 20
-3.16792138881008
 10
3.429382172738803
 20
-3.193369960932467
 10
3.455689444366349
 20
-3.21739085786141
 10
3.465126412301709
 20
-3.225969126291675
 10
3.474847868081276
 20
-3.234262906877766
 10
3.484855557029218
 20
-3.242554942139655
 10
3.325008295085373
 20
-3.334631265498105
 10
3.225210657477584
 20
-3.509634922772253
 10
3.150577104148008
 20
-3.641174771558325
 97
        0
 97
        0
 75
     2
 76
     1
 98
        0
  0
SPLINE
  5
63
330
5D
100
AcDbEntity
  8
Layer 1
370
     0
100
AcDbSpline
210
0.0
220
0.0
230
1.0
 70
    11
 71
     3
 72
    50
 73
    46
 74
     0
 42
0.0000000001
 43
0.0000000001
 12
1.0
 22
0.0
 32
0.0
 13
1.0
 23
0.0
 33
0.0
 40
0.0
 40
0.0
 40
0.0
 40
0.0
 40
1.0
 40
1.0
 40
1.0
 40
2.0
 40
2.0
 40
2.0
 40
3.0
 40
3.0
 40
3.0
 40
4.0
 40
4.0
 40
4.0
 40
5.0
 40
5.0
 40
5.0
 40
6.0
 40
6.0
 40
6.0
 40
7.0
 40
7.0
 40
7.0
 40
8.0
 40
8.0
 40
8.0
 40
9.0
 40
9.0
 40
9.0
 40
10.0
 40
10.0
 40
10.0
 40
11.0
 40
11.0
 40
11.0
 40
12.0
 40
12.0
 40
12.0
 40
13.0
 40
13.0
 40
13.0
 40
14.0
 40
14.0
 40
14.0
 40
15.0
 40
15.0
 40
15.0
 40
15.0
 10
4.232053280478507
 20
-2.92171374025426
 30
0.0
 10
4.190018892508108
 20
-3.090713482289324
 30
0.0
 10
4.112524752818976
 20
-3.201949974686933
 30
0.0
 10
4.001290005745568
 20
-3.252276397919222
 30
0.0
 10
3.982702303043159
 20
-3.260570178505281
 30
0.0
 10
3.963828367172406
 20
-3.267146560081117
 30
0.0
 10
3.944669943457447
 20
-3.2720072879709
 30
0.0
 10
3.780246441467993
 20
-3.313184721760374
 30
0.0
 10
3.604956551025501
 20
-3.232831741035887
 30
0.0
 10
3.576074926206774
 20
-3.218820278379087
 30
0.0
 10
3.576074926206774
 20
-3.218820278379087
 30
0.0
 10
3.576074926206774
 20
-3.218534045210712
 30
0.0
 10
3.576074926206774
 20
-3.218534045210712
 30
0.0
 10
3.55920462251462
 20
-3.206810702576717
 30
0.0
 10
3.543477506171767
 20
-3.194801126774346
 30
0.0
 10
3.528607344009872
 20
-3.182219084635223
 30
0.0
 10
3.499725719191145
 20
-3.158484420874687
 30
0.0
 10
3.4745616349129
 20
-3.133320336596442
 30
0.0
 10
3.452828858006793
 20
-3.107583785981478
 30
0.0
 10
3.40335938895543
 20
-3.049822281668225
 30
0.0
 10
3.370189502583704
 20
-2.988055258321946
 30
0.0
 10
3.348170492509189
 20
-2.92686244663662
 30
0.0
 10
3.287262168668037
 20
-2.755003863566202
 30
0.0
 10
3.315857560318356
 20
-2.586862821036298
 30
0.0
 10
3.328439602457478
 20
-2.512799988719272
 30
0.0
 10
3.330441489311907
 20
-2.500790412916901
 30
0.0
 10
3.331870909829584
 20
-2.491925911318261
 30
0.0
 10
3.332729609334712
 20
-2.485063296574049
 30
0.0
 10
3.345882372486384
 20
-2.455322972250226
 30
0.0
 10
3.417657084780606
 20
-2.307199052940376
 30
0.0
 10
3.558061435165318
 20
-2.247435661772695
 30
0.0
 10
3.64384761011634
 20
-2.210832722704661
 30
0.0
 10
3.740498428196228
 20
-2.213693309064217
 30
0.0
 10
3.845731005354754
 20
-2.255441463866209
 30
0.0
 10
3.851448687425463
 20
-2.259445237575066
 30
0.0
 10
3.858313047493877
 20
-2.264019732296473
 30
0.0
 10
3.868320736441818
 20
-2.27002539285976
 30
0.0
 10
3.925225286574113
 20
-2.305483399254323
 30
0.0
 10
4.047614400593169
 20
-2.381834351594122
 30
0.0
 10
4.135400717074416
 20
-2.512513755550896
 30
0.0
 10
4.187160051472754
 20
-2.588864707890727
 30
0.0
 10
4.226906319420348
 20
-2.683515384440357
 30
0.0
 10
4.234913866838063
 20
-2.799612604727782
 30
0.0
 10
4.237772707873417
 20
-2.837929452157667
 30
0.0
 10
4.236915753692492
 20
-2.878536164934591
 30
0.0
 10
4.232053280478507
 20
-2.92171374025426
 30
0.0
  0
HATCH
  5
64
330
5D
100
AcDbEntity
  8
Layer 1
 62
   223
420
 15686587
100
AcDbHatch
 10
0.0
 20
0.0
 30
0.0
210
0.0
220
0.0
230
1.0
  2
SOLID
 70
     1
 71
     0
 91
        1
 92
        1
 93
        1
 72
     4
 94
        3
 73
     0
 74
     1
 95
       50
 96
       46
 40
0.0
 40
0.0
 40
0.0
 40
0.0
 40
1.0
 40
1.0
 40
1.0
 40
2.0
 40
2.0
 40
2.0
 40
3.0
 40
3.0
 40
3.0
 40
4.0
 40
4.0
 40
4.0
 40
5.0
 40
5.0
 40
5.0
 40
6.0
 40
6.0
 40
6.0
 40
7.0
 40
7.0
 40
7.0
 40
8.0
 40
8.0
 40
8.0
 40
9.0
 40
9.0
 40
9.0
 40
10.0
 40
10.0
 40
10.0
 40
11.0
 40
11.0
 40
11.0
 40
12.0
 40
12.0
 40
12.0
 40
13.0
 40
13.0
 40
13.0
 40
14.0
 40
14.0
 40
14.0
 40
15.0
 40
15.0
 40
15.0
 40
15.0
 10
4.232053280478507
 20
-2.92171374025426
 10
4.190018892508108
 20
-3.090713482289324
 10
4.112524752818976
 20
-3.201949974686933
 10
4.001290005745568
 20
-3.252276397919222
 10
3.982702303043159
 20
-3.260570178505281
 10
3.963828367172406
 20
-3.267146560081117
 10
3.944669943457447
 20
-3.2720072879709
 10
3.780246441467993
 20
-3.313184721760374
 10
3.604956551025501
 20
-3.232831741035887
 10
3.576074926206774
 20
-3.218820278379087
 10
3.576074926206774
 20
-3.218820278379087
 10
3.576074926206774
 20
-3.218534045210712
 10
3.576074926206774
 20
-3.218534045210712
 10
3.55920462251462
 20
-3.206810702576717
 10
3.543477506171767
 20
-3.194801126774346
 10
3.528607344009872
 20
-3.182219084635223
 10
3.499725719191145
 20
-3.158484420874687
 10
3.4745616349129
 20
-3.133320336596442
 10
3.452828858006793
 20
-3.107583785981478
 10
3.40335938895543
 20
-3.049822281668225
 10
3.370189502583704
 20
-2.988055258321946
 10
3.348170492509189
 20
-2.92686244663662
 10
3.287262168668037
 20
-2.755003863566202
 10
3.315857560318356
 20
-2.586862821036298
 10
3.328439602457478
 20
-2.512799988719272
 10
3.330441489311907
 20
-2.500790412916901
 10
3.331870909829584
 20
-2.491925911318261
 10
3.332729609334712
 20
-2.485063296574049
 10
3.345882372486384
 20
-2.455322972250226
 10
3.417657084780606
 20
-2.307199052940376
 10
3.558061435165318
 20
-2.247435661772695
 10
3.64384761011634
 20
-2.210832722704661
 10
3.740498428196228
 20
-2.213693309064217
 10
3.845731005354754
 20
-2.255441463866209
 10
3.851448687425463
 20
-2.259445237575066
 10
3.858313047493877
 20
-2.264019732296473
 10
3.868320736441818
 20
-2.27002539285976
 10
3.925225286574113
 20
-2.305483399254323
 10
4.047614400593169
 20
-2.381834351594122
 10
4.135400717074416
 20
-2.512513755550896
 10
4.187160051472754
 20
-2.588864707890727
 10
4.226906319420348
 20
-2.683515384440357
 10
4.234913866838063
 20
-2.799612604727782
 10
4.237772707873417
 20
-2.837929452157667
 10
4.236915753692492
 20
-2.878536164934591
 10
4.232053280478507
 20
-2.92171374025426
 97
        0
 97
        0
 75
     2
 76
     1
 98
        0
  0
SPLINE
  5
65
330
5D
100
AcDbEntity
  8
Layer 1
370
     0
100
AcDbSpline
210
0.0
220
0.0
230
1.0
 70
    11
 71
     3
 72
    95
 73
    91
 74
     0
 42
0.0000000001
 43
0.0000000001
 12
1.0
 22
0.0
 32
0.0
 13
1.0
 23
0.0
 33
0.0
 40
0.0
 40
0.0
 40
0.0
 40
0.0
 40
1.0
 40
1.0
 40
1.0
 40
2.0
 40
2.0
 40
2.0
 40
3.0
 40
3.0
 40
3.0
 40
4.0
 40
4.0
 40
4.0
 40
5.0
 40
5.0
 40
5.0
 40
6.0
 40
6.0
 40
6.0
 40
7.0
 40
7.0
 40
7.0
 40
8.0
 40
8.0
 40
8.0
 40
9.0
 40
9.0
 40
9.0
 40
10.0
 40
10.0
 40
10.0
 40
11.0
 40
11.0
 40
11.0
 40
12.0
 40
12.0
 40
12.0
 40
13.0
 40
13.0
 40
13.0
 40
14.0
 40
14.0
 40
14.0
 40
15.0
 40
15.0
 40
15.0
 40
16.0
 40
16.0
 40
16.0
 40
17.0
 40
17.0
 40
17.0
 40
18.0
 40
18.0
 40
18.0
 40
19.0
 40
19.0
 40
19.0
 40
20.0
 40
20.0
 40
20.0
 40
21.0
 40
21.0
 40
21.0
 40
22.0
 40
22.0
 40
22.0
 40
23.0
 40
23.0
 40
23.0
 40
24.0
 40
24.0
 40
24.0
 40
25.0
 40
25.0
 40
25.0
 40
26.0
 40
26.0
 40
26.0
 40
27.0
 40
27.0
 40
27.0
 40
28.0
 40
28.0
 40
28.0
 40
29.0
 40
29.0
 40
29.0
 40
30.0
 40
30.0
 40
30.0
 40
30.0
 10
6.472789496645417
 20
-2.90141212919
 30
0.0
 10
6.345539654736578
 20
-3.011503688914138
 30
0.0
 10
6.159097142672609
 20
-3.074413899609719
 30
0.0
 10
5.94806301266721
 20
-3.078988394331126
 30
0.0
 10
5.754187164846447
 20
-3.082992168039984
 30
0.0
 10
5.56002333853317
 20
-3.041528501082134
 30
0.0
 10
5.372151405951588
 20
-3.001782233134572
 30
0.0
 10
5.372151405951588
 20
-3.001782233134572
 30
0.0
 10
4.829697664100268
 20
-2.886255733859729
 30
0.0
 10
4.829697664100268
 20
-2.886255733859729
 30
0.0
 10
4.682146211127138
 20
-2.855087734342399
 30
0.0
 10
4.485123543778507
 20
-2.813337834216206
 30
0.0
 10
4.310119886504391
 20
-2.871671804866177
 30
0.0
 10
4.311549307022068
 20
-2.83964510584372
 30
0.0
 10
4.31069060751694
 20
-2.808190873158047
 30
0.0
 10
4.307259300144834
 20
-2.777307361484891
 30
0.0
 10
4.299824219063871
 20
-2.695524960242728
 30
0.0
 10
4.277234487976806
 20
-2.618317053721972
 30
0.0
 10
4.240060827896222
 20
-2.5459716204152
 30
0.0
 10
4.372743864031595
 20
-2.464187473848835
 30
0.0
 10
4.515148355946535
 20
-2.399563354791403
 30
0.0
 10
4.662699808919633
 20
-2.353238959943803
 30
0.0
 10
4.868586977866905
 20
-2.288613095562169
 30
0.0
 10
5.084768068930527
 20
-2.258872771238315
 30
0.0
 10
5.298947273139689
 20
-2.266307852319278
 30
0.0
 10
5.298947273139689
 20
-2.266307852319278
 30
0.0
 10
5.300092205813128
 20
-2.266307852319278
 30
0.0
 10
5.300092205813128
 20
-2.266307852319278
 30
0.0
 10
5.452790619844385
 20
-2.271741046545813
 30
0.0
 10
5.604347591850543
 20
-2.296048176643132
 30
0.0
 10
5.75075585747434
 20
-2.339511985131177
 30
0.0
 10
5.75075585747434
 20
-2.339511985131177
 30
0.0
 10
5.771057468538633
 20
-2.271454813377437
 30
0.0
 10
5.771057468538633
 20
-2.271454813377437
 30
0.0
 10
5.771057468538633
 20
-2.271454813377437
 30
0.0
 10
5.771916168043728
 20
-2.268309739173707
 30
0.0
 10
5.771916168043728
 20
-2.268309739173707
 30
0.0
 10
5.286365231000534
 20
-2.123044660899211
 30
0.0
 10
4.742768301799946
 20
-2.18481168424549
 30
0.0
 10
4.291532183801982
 20
-2.430445121140357
 30
0.0
 10
4.566048990839745
 20
-2.091590428213538
 30
0.0
 10
4.801388505618293
 20
-1.720993524108436
 30
0.0
 10
4.990689858717585
 20
-1.328093122084644
 30
0.0
 10
4.990689858717585
 20
-1.328093122084644
 30
0.0
 10
4.923775874313147
 20
-1.295780189893844
 30
0.0
 10
4.923775874313147
 20
-1.295780189893844
 30
0.0
 10
4.731615680178501
 20
-1.694686252480889
 30
0.0
 10
4.491699925354343
 20
-2.07043011764415
 30
0.0
 10
4.210606736740743
 20
-2.412716117943075
 30
0.0
 10
4.200599047792801
 20
-2.425011926913822
 30
0.0
 10
4.190018892508108
 20
-2.436737014872019
 30
0.0
 10
4.17972497039179
 20
-2.449032823842766
 30
0.0
 10
4.113669685492479
 20
-2.360101574688015
 30
0.0
 10
4.023021037327505
 20
-2.279176127626777
 30
0.0
 10
3.907496283376831
 20
-2.207115182164179
 30
0.0
 10
3.904921930185651
 20
-2.205399528478126
 30
0.0
 10
3.903206276499598
 20
-2.204256341128825
 30
0.0
 10
3.900919901800995
 20
-2.202826920611148
 30
0.0
 10
3.930944713969024
 20
-1.240018827110819
 30
0.0
 10
4.803104159304347
 20
-0.4367752530343628
 30
0.0
 10
5.245760263547844
 20
-0.2377506988313028
 30
0.0
 10
5.396458536048843
 20
-0.169979760245939
 30
0.0
 10
5.590906850206293
 20
-0.202006459268396
 30
0.0
 10
5.753328465341351
 20
-0.3212487537595193
 30
0.0
 10
5.890015275185582
 20
-0.4216188577040919
 30
0.0
 10
6.191123841695066
 20
-0.7301642506187088
 30
0.0
 10
6.12907233050458
 20
-1.462778045074447
 30
0.0
 10
5.945490404800199
 20
-1.23430114504011
 30
0.0
 10
5.80479982124711
 20
-0.9692213059377391
 30
0.0
 10
5.719872345801217
 20
-0.689273049997643
 30
0.0
 10
5.719872345801217
 20
-0.689273049997643
 30
0.0
 10
5.648670099843747
 20
-0.7110040815795803
 30
0.0
 10
5.648670099843747
 20
-0.7110040815795803
 30
0.0
 10
5.748753970619911
 20
-1.040137318726833
 30
0.0
 10
5.923185161557308
 20
-1.349539665822408
 30
0.0
 10
6.152806994265148
 20
-1.605755003326138
 30
0.0
 10
6.195700081740675
 20
-1.653508818691448
 30
0.0
 10
6.241452010251556
 20
-1.700691913044176
 30
0.0
 10
6.285774518244695
 20
-1.7467300747234
 30
0.0
 10
6.449054832884848
 20
-1.916014304602638
 30
0.0
 10
6.618339062764054
 20
-2.091017961876786
 30
0.0
 10
6.667524043971275
 20
-2.314061667684588
 30
0.0
 10
6.677531732919185
 20
-2.358956642014511
 30
0.0
 10
6.681821739796386
 20
-2.404996549017938
 30
0.0
 10
6.680676807122883
 20
-2.451034710697195
 30
0.0
 10
6.679247386605206
 20
-2.507653027661113
 30
0.0
 10
6.670096651838222
 20
-2.564271344625032
 30
0.0
 10
6.653512581314444
 20
-2.618603286890347
 30
0.0
 10
6.620627182786891
 20
-2.727265426096809
 30
0.0
 10
6.558289438428062
 20
-2.827349296872974
 30
0.0
 10
6.472789496645417
 20
-2.90141212919
 30
0.0
  0
HATCH
  5
66
330
5D
100
AcDbEntity
  8
Layer 1
 62
   223
420
 15686587
100
AcDbHatch
 10
0.0
 20
0.0
 30
0.0
210
0.0
220
0.0
230
1.0
  2
SOLID
 70
     1
 71
     0
 91
        1
 92
        1
 93
        1
 72
     4
 94
        3
 73
     0
 74
     1
 95
       95
 96
       91
 40
0.0
 40
0.0
 40
0.0
 40
0.0
 40
1.0
 40
1.0
 40
1.0
 40
2.0
 40
2.0
 40
2.0
 40
3.0
 40
3.0
 40
3.0
 40
4.0
 40
4.0
 40
4.0
 40
5.0
 40
5.0
 40
5.0
 40
6.0
 40
6.0
 40
6.0
 40
7.0
 40
7.0
 40
7.0
 40
8.0
 40
8.0
 40
8.0
 40
9.0
 40
9.0
 40
9.0
 40
10.0
 40
10.0
 40
10.0
 40
11.0
 40
11.0
 40
11.0
 40
12.0
 40
12.0
 40
12.0
 40
13.0
 40
13.0
 40
13.0
 40
14.0
 40
14.0
 40
14.0
 40
15.0
 40
15.0
 40
15.0
 40
16.0
 40
16.0
 40
16.0
 40
17.0
 40
17.0
 40
17.0
 40
18.0
 40
18.0
 40
18.0
 40
19.0
 40
19.0
 40
19.0
 40
20.0
 40
20.0
 40
20.0
 40
21.0
 40
21.0
 40
21.0
 40
22.0
 40
22.0
 40
22.0
 40
23.0
 40
23.0
 40
23.0
 40
24.0
 40
24.0
 40
24.0
 40
25.0
 40
25.0
 40
25.0
 40
26.0
 40
26.0
 40
26.0
 40
27.0
 40
27.0
 40
27.0
 40
28.0
 40
28.0
 40
28.0
 40
29.0
 40
29.0
 40
29.0
 40
30.0
 40
30.0
 40
30.0
 40
30.0
 10
6.472789496645417
 20
-2.90141212919
 10
6.345539654736578
 20
-3.011503688914138
 10
6.159097142672609
 20
-3.074413899609719
 10
5.94806301266721
 20
-3.078988394331126
 10
5.754187164846447
 20
-3.082992168039984
 10
5.56002333853317
 20
-3.041528501082134
 10
5.372151405951588
 20
-3.001782233134572
 10
5.372151405951588
 20
-3.001782233134572
 10
4.829697664100268
 20
-2.886255733859729
 10
4.829697664100268
 20
-2.886255733859729
 10
4.682146211127138
 20
-2.855087734342399
 10
4.485123543778507
 20
-2.813337834216206
 10
4.310119886504391
 20
-2.871671804866177
 10
4.311549307022068
 20
-2.83964510584372
 10
4.31069060751694
 20
-2.808190873158047
 10
4.307259300144834
 20
-2.777307361484891
 10
4.299824219063871
 20
-2.695524960242728
 10
4.277234487976806
 20
-2.618317053721972
 10
4.240060827896222
 20
-2.5459716204152
 10
4.372743864031595
 20
-2.464187473848835
 10
4.515148355946535
 20
-2.399563354791403
 10
4.662699808919633
 20
-2.353238959943803
 10
4.868586977866905
 20
-2.288613095562169
 10
5.084768068930527
 20
-2.258872771238315
 10
5.298947273139689
 20
-2.266307852319278
 10
5.298947273139689
 20
-2.266307852319278
 10
5.300092205813128
 20
-2.266307852319278
 10
5.300092205813128
 20
-2.266307852319278
 10
5.452790619844385
 20
-2.271741046545813
 10
5.604347591850543
 20
-2.296048176643132
 10
5.75075585747434
 20
-2.339511985131177
 10
5.75075585747434
 20
-2.339511985131177
 10
5.771057468538633
 20
-2.271454813377437
 10
5.771057468538633
 20
-2.271454813377437
 10
5.771057468538633
 20
-2.271454813377437
 10
5.771916168043728
 20
-2.268309739173707
 10
5.771916168043728
 20
-2.268309739173707
 10
5.286365231000534
 20
-2.123044660899211
 10
4.742768301799946
 20
-2.18481168424549
 10
4.291532183801982
 20
-2.430445121140357
 10
4.566048990839745
 20
-2.091590428213538
 10
4.801388505618293
 20
-1.720993524108436
 10
4.990689858717585
 20
-1.328093122084644
 10
4.990689858717585
 20
-1.328093122084644
 10
4.923775874313147
 20
-1.295780189893844
 10
4.923775874313147
 20
-1.295780189893844
 10
4.731615680178501
 20
-1.694686252480889
 10
4.491699925354343
 20
-2.07043011764415
 10
4.210606736740743
 20
-2.412716117943075
 10
4.200599047792801
 20
-2.425011926913822
 10
4.190018892508108
 20
-2.436737014872019
 10
4.17972497039179
 20
-2.449032823842766
 10
4.113669685492479
 20
-2.360101574688015
 10
4.023021037327505
 20
-2.279176127626777
 10
3.907496283376831
 20
-2.207115182164179
 10
3.904921930185651
 20
-2.205399528478126
 10
3.903206276499598
 20
-2.204256341128825
 10
3.900919901800995
 20
-2.202826920611148
 10
3.930944713969024
 20
-1.240018827110819
 10
4.803104159304347
 20
-0.4367752530343628
 10
5.245760263547844
 20
-0.2377506988313028
 10
5.396458536048843
 20
-0.169979760245939
 10
5.590906850206293
 20
-0.202006459268396
 10
5.753328465341351
 20
-0.3212487537595193
 10
5.890015275185582
 20
-0.4216188577040919
 10
6.191123841695066
 20
-0.7301642506187088
 10
6.12907233050458
 20
-1.462778045074447
 10
5.945490404800199
 20
-1.23430114504011
 10
5.80479982124711
 20
-0.9692213059377391
 10
5.719872345801217
 20
-0.689273049997643
 10
5.719872345801217
 20
-0.689273049997643
 10
5.648670099843747
 20
-0.7110040815795803
 10
5.648670099843747
 20
-0.7110040815795803
 10
5.748753970619911
 20
-1.040137318726833
 10
5.923185161557308
 20
-1.349539665822408
 10
6.152806994265148
 20
-1.605755003326138
 10
6.195700081740675
 20
-1.653508818691448
 10
6.241452010251556
 20
-1.700691913044176
 10
6.285774518244695
 20
-1.7467300747234
 10
6.449054832884848
 20
-1.916014304602638
 10
6.618339062764054
 20
-2.091017961876786
 10
6.667524043971275
 20
-2.314061667684588
 10
6.677531732919185
 20
-2.358956642014511
 10
6.681821739796386
 20
-2.404996549017938
 10
6.680676807122883
 20
-2.451034710697195
 10
6.679247386605206
 20
-2.507653027661113
 10
6.670096651838222
 20
-2.564271344625032
 10
6.653512581314444
 20
-2.618603286890347
 10
6.620627182786891
 20
-2.727265426096809
 10
6.558289438428062
 20
-2.827349296872974
 10
6.472789496645417
 20
-2.90141212919
 97
        0
 97
        0
 75
     2
 76
     1
 98
        0
  0
ENDBLK
  5
60
330
5D
100
AcDbEntity
  8
0
100
AcDbBlockEnd
  0
ENDSEC
  0
SECTION
  2
ENTITIES
  0
INSERT
  5
42
330
1F
100
AcDbEntity
  8
Layer 1
100
AcDbBlockReference
  2
block 2
 10
0.0
 20
0.0
 30
0.0
  0
ENDSEC
  0
SECTION
  2
OBJECTS
  0
DICTIONARY
  5
C
330
0
100
AcDbDictionary
281
     1
  3
ACAD_GROUP
350
D
  3
ACAD_LAYOUT
350
1A
  3
ACAD_MATERIAL
350
3B
  3
ACAD_MLEADERSTYLE
350
68
  3
ACAD_MLINESTYLE
350
17
  3
ACAD_PLOTSETTINGS
350
19
  3
ACAD_PLOTSTYLENAME
350
E
  3
ACAD_TABLESTYLE
350
67
  3
ACAD_VISUALSTYLE
350
2A
  0
SUN
  5
3F
330
29
100
AcDbSun
 90
        1
290
     0
 63
     7
421
 16777215
 40
1.0
291
     1
 91
  2455826
 92
 54000000
292
     0
 70
     2
 71
   256
280
     1
  0
DICTIONARY
  5
D
102
{ACAD_REACTORS
330
C
102
}
330
C
100
AcDbDictionary
281
     1
  0
DICTIONARY
  5
1A
102
{ACAD_REACTORS
330
C
102
}
330
C
100
AcDbDictionary
281
     1
  3
Layout1
350
1E
  3
Layout2
350
26
  3
Model
350
22
  0
DICTIONARY
  5
3B
102
{ACAD_REACTORS
330
C
102
}
330
C
100
AcDbDictionary
281
     1
  3
ByBlock
350
3D
  3
ByLayer
350
3C
  3
Global
350
3E
  0
DICTIONARY
  5
68
102
{ACAD_REACTORS
330
C
102
}
330
C
100
AcDbDictionary
281
     1
  0
DICTIONARY
  5
17
102
{ACAD_REACTORS
330
C
102
}
330
C
100
AcDbDictionary
281
     1
  3
Standard
350
18
  0
DICTIONARY
  5
19
102
{ACAD_REACTORS
330
C
102
}
330
C
100
AcDbDictionary
281
     1
  0
ACDBDICTIONARYWDFLT
  5
E
102
{ACAD_REACTORS
330
C
102
}
330
C
100
AcDbDictionary
281
     1
  3
Normal
350
F
100
AcDbDictionaryWithDefault
340
F
  0
DICTIONARY
  5
67
102
{ACAD_REACTORS
330
C
102
}
330
C
100
AcDbDictionary
281
     1
  0
DICTIONARY
  5
2A
102
{ACAD_REACTORS
330
C
102
}
330
C
100
AcDbDictionary
281
     1
  3
2dWireframe
350
2F
  3
3D Hidden
350
31
  3
3dWireframe
350
30
  3
Basic
350
32
  3
Brighten
350
36
  3
ColorChange
350
3A
  3
Conceptual
350
34
  3
Dim
350
35
  3
Facepattern
350
39
  3
Flat
350
2B
  3
FlatWithEdges
350
2C
  3
Gouraud
350
2D
  3
GouraudWithEdges
350
2E
  3
Linepattern
350
38
  3
Realistic
350
33
  3
Thicken
350
37
  0
LAYOUT
  5
1E
102
{ACAD_REACTORS
330
1A
102
}
330
1A
100
AcDbPlotSettings
  1

  2
none_device
  4

  6

 40
0.0
 41
0.0
 42
0.0
 43
0.0
 44
0.0
 45
0.0
 46
0.0
 47
0.0
 48
0.0
 49
0.0
140
0.0
141
0.0
142
1.0
143
1.0
 70
   688
 72
     0
 73
     0
 74
     5
  7

 75
    16
 76
     0
 77
     2
 78
   300
147
1.0
148
0.0
149
0.0
100
AcDbLayout
  1
Layout1
 70
     1
 71
     1
 10
0.0
 20
0.0
 11
12.0
 21
9.0
 12
0.0
 22
0.0
 32
0.0
 14
1.000000000000000E+20
 24
1.000000000000000E+20
 34
1.000000000000000E+20
 15
-1.000000000000000E+20
 25
-1.000000000000000E+20
 35
-1.000000000000000E+20
146
0.0
 13
0.0
 23
0.0
 33
0.0
 16
1.0
 26
0.0
 36
0.0
 17
0.0
 27
1.0
 37
0.0
 76
     0
330
1B
  0
LAYOUT
  5
26
102
{ACAD_REACTORS
330
1A
102
}
330
1A
100
AcDbPlotSettings
  1

  2
none_device
  4

  6

 40
0.0
 41
0.0
 42
0.0
 43
0.0
 44
0.0
 45
0.0
 46
0.0
 47
0.0
 48
0.0
 49
0.0
140
0.0
141
0.0
142
1.0
143
1.0
 70
   688
 72
     0
 73
     0
 74
     5
  7

 75
    16
 76
     0
 77
     2
 78
   300
147
1.0
148
0.0
149
0.0
100
AcDbLayout
  1
Layout2
 70
     1
 71
     2
 10
0.0
 20
0.0
 11
0.0
 21
0.0
 12
0.0
 22
0.0
 32
0.0
 14
0.0
 24
0.0
 34
0.0
 15
0.0
 25
0.0
 35
0.0
146
0.0
 13
0.0
 23
0.0
 33
0.0
 16
1.0
 26
0.0
 36
0.0
 17
0.0
 27
1.0
 37
0.0
 76
     0
330
23
  0
LAYOUT
  5
22
102
{ACAD_REACTORS
330
1A
102
}
330
1A
100
AcDbPlotSettings
  1

  2
none_device
  4

  6

 40
0.0
 41
0.0
 42
0.0
 43
0.0
 44
0.0
 45
0.0
 46
0.0
 47
0.0
 48
0.0
 49
0.0
140
0.0
141
0.0
142
1.0
143
1.0
 70
  1712
 72
     0
 73
     0
 74
     0
  7

 75
     0
 76
     0
 77
     2
 78
   300
147
1.0
148
0.0
149
0.0
100
AcDbLayout
  1
Model
 70
     1
 71
     0
 10
0.0
 20
0.0
 11
12.0
 21
9.0
 12
0.0
 22
0.0
 32
0.0
 14
1.000000000000000E+20
 24
1.000000000000000E+20
 34
1.000000000000000E+20
 15
-1.000000000000000E+20
 25
-1.000000000000000E+20
 35
-1.000000000000000E+20
146
0.0
 13
0.0
 23
0.0
 33
0.0
 16
1.0
 26
0.0
 36
0.0
 17
0.0
 27
1.0
 37
0.0
 76
     0
330
1F
331
29
  0
MATERIAL
  5
3D
102
{ACAD_REACTORS
330
3B
102
}
330
3B
100
AcDbMaterial
  1
ByBlock
 72
     1
 94
      127
  0
MATERIAL
  5
3C
102
{ACAD_REACTORS
330
3B
102
}
330
3B
100
AcDbMaterial
  1
ByLayer
 72
     1
 94
      127
  0
MATERIAL
  5
3E
102
{ACAD_REACTORS
330
3B
102
}
330
3B
100
AcDbMaterial
  1
Global
 72
     1
 94
      127
  0
MLINESTYLE
  5
18
102
{ACAD_REACTORS
330
17
102
}
330
17
100
AcDbMlineStyle
  2
Standard
 70
     0
  3

 62
   256
 51
90.0
 52
90.0
 71
     2
 49
0.5
 62
   256
  6
BYLAYER
 49
-0.5
 62
   256
  6
BYLAYER
  0
ACDBPLACEHOLDER
  5
F
102
{ACAD_REACTORS
330
E
102
}
330
E
  0
VISUALSTYLE
  5
2F
102
{ACAD_REACTORS
330
2A
102
}
330
2A
100
AcDbVisualStyle
  2
2dWireframe
 70
     4
177
     2
291
     0
 71
     0
176
     1
 72
     2
176
     1
 73
     0
176
     1
 90
        0
176
     1
 40
-0.6
176
     1
 41
-30.0
176
     1
 62
     5
 63
     7
421
 16777215
176
     1
 74
     1
176
     1
 91
        4
176
     1
 64
     7
176
     1
 65
   257
176
     1
 75
     1
176
     1
175
     1
176
     1
 42
1.0
176
     1
 92
        0
176
     1
 66
   257
176
     1
 43
1.0
176
     1
 76
     1
176
     1
 77
     6
176
     1
 78
     2
176
     1
 67
     7
176
     1
 79
     5
176
     1
170
     0
176
     1
171
     0
176
     1
290
     0
176
     1
 93
        1
176
     1
 44
0.0
176
     1
173
     0
176
     1
  0
VISUALSTYLE
  5
31
102
{ACAD_REACTORS
330
2A
102
}
330
2A
100
AcDbVisualStyle
  2
3D Hidden
 70
     6
177
     2
291
     0
 71
     1
176
     1
 72
     2
176
     1
 73
     2
176
     1
 90
        0
176
     1
 40
-0.6
176
     1
 41
-30.0
176
     1
 62
     5
 63
     7
421
 16777215
176
     1
 74
     2
176
     1
 91
        2
176
     1
 64
     7
176
     1
 65
   257
176
     1
 75
     2
176
     1
175
     1
176
     1
 42
40.0
176
     1
 92
        0
176
     1
 66
   257
176
     1
 43
1.0
176
     1
 76
     1
176
     1
 77
     6
176
     1
 78
     2
176
     1
 67
     7
176
     1
 79
     3
176
     1
170
     0
176
     1
171
     0
176
     1
290
     0
176
     1
 93
        1
176
     1
 44
0.0
176
     1
173
     0
176
     1
  0
VISUALSTYLE
  5
30
102
{ACAD_REACTORS
330
2A
102
}
330
2A
100
AcDbVisualStyle
  2
3dWireframe
 70
     5
177
     2
291
     0
 71
     0
176
     1
 72
     2
176
     1
 73
     0
176
     1
 90
        0
176
     1
 40
-0.6
176
     1
 41
-30.0
176
     1
 62
     5
 63
     7
421
 16777215
176
     1
 74
     1
176
     1
 91
        4
176
     1
 64
     7
176
     1
 65
   257
176
     1
 75
     1
176
     1
175
     1
176
     1
 42
1.0
176
     1
 92
        0
176
     1
 66
   257
176
     1
 43
1.0
176
     1
 76
     1
176
     1
 77
     6
176
     1
 78
     2
176
     1
 67
     7
176
     1
 79
     5
176
     1
170
     0
176
     1
171
     0
176
     1
290
     0
176
     1
 93
        1
176
     1
 44
0.0
176
     1
173
     0
176
     1
  0
VISUALSTYLE
  5
32
102
{ACAD_REACTORS
330
2A
102
}
330
2A
100
AcDbVisualStyle
  2
Basic
 70
     7
177
     2
291
     1
 71
     1
176
     1
 72
     0
176
     1
 73
     1
176
     1
 90
        0
176
     1
 40
-0.6
176
     1
 41
-30.0
176
     1
 62
     5
 63
     7
421
 16777215
176
     1
 74
     0
176
     1
 91
        4
176
     1
 64
     7
176
     1
 65
   257
176
     1
 75
     1
176
     1
175
     1
176
     1
 42
1.0
176
     1
 92
        8
176
     1
 66
     7
176
     1
 43
1.0
176
     1
 76
     1
176
     1
 77
     6
176
     1
 78
     2
176
     1
 67
     7
176
     1
 79
     5
176
     1
170
     0
176
     1
171
     0
176
     1
290
     0
176
     1
 93
        1
176
     1
 44
0.0
176
     1
173
     0
176
     1
  0
VISUALSTYLE
  5
36
102
{ACAD_REACTORS
330
2A
102
}
330
2A
100
AcDbVisualStyle
  2
Brighten
 70
    12
177
     2
291
     1
 71
     2
176
     1
 72
     2
176
     1
 73
     0
176
     1
 90
        0
176
     1
 40
-0.6
176
     1
 41
-30.0
176
     1
 62
     5
 63
     7
421
 16777215
176
     1
 74
     1
176
     1
 91
        4
176
     1
 64
     7
176
     1
 65
   257
176
     1
 75
     1
176
     1
175
     1
176
     1
 42
1.0
176
     1
 92
        8
176
     1
 66
     7
176
     1
 43
1.0
176
     1
 76
     1
176
     1
 77
     6
176
     1
 78
     2
176
     1
 67
     7
176
     1
 79
     5
176
     1
170
     0
176
     1
171
     0
176
     1
290
     0
176
     1
 93
        1
176
     1
 44
50.0
176
     1
173
     0
176
     1
  0
VISUALSTYLE
  5
3A
102
{ACAD_REACTORS
330
2A
102
}
330
2A
100
AcDbVisualStyle
  2
ColorChange
 70
    16
177
     2
291
     1
 71
     2
176
     1
 72
     2
176
     1
 73
     3
176
     1
 90
        0
176
     1
 40
-0.6
176
     1
 41
-30.0
176
     1
 62
     5
 63
     8
421
  8421504
176
     1
 74
     1
176
     1
 91
        4
176
     1
 64
     7
176
     1
 65
   257
176
     1
 75
     1
176
     1
175
     1
176
     1
 42
1.0
176
     1
 92
        8
176
     1
 66
     8
424
  8421504
176
     1
 43
1.0
176
     1
 76
     1
176
     1
 77
     6
176
     1
 78
     2
176
     1
 67
     7
176
     1
 79
     5
176
     1
170
     0
176
     1
171
     0
176
     1
290
     0
176
     1
 93
        1
176
     1
 44
0.0
176
     1
173
     0
176
     1
  0
VISUALSTYLE
  5
34
102
{ACAD_REACTORS
330
2A
102
}
330
2A
100
AcDbVisualStyle
  2
Conceptual
 70
     9
177
     2
291
     0
 71
     3
176
     1
 72
     2
176
     1
 73
     0
176
     1
 90
        0
176
     1
 40
-0.6
176
     1
 41
-30.0
176
     1
 62
     5
 63
     7
421
 16777215
176
     1
 74
     2
176
     1
 91
        2
176
     1
 64
     7
176
     1
 65
   257
176
     1
 75
     1
176
     1
175
     1
176
     1
 42
40.0
176
     1
 92
        8
176
     1
 66
     7
176
     1
 43
1.0
176
     1
 76
     1
176
     1
 77
     6
176
     1
 78
     2
176
     1
 67
     7
176
     1
 79
     3
176
     1
170
     0
176
     1
171
     0
176
     1
290
     0
176
     1
 93
        1
176
     1
 44
0.0
176
     1
173
     0
176
     1
  0
VISUALSTYLE
  5
35
102
{ACAD_REACTORS
330
2A
102
}
330
2A
100
AcDbVisualStyle
  2
Dim
 70
    11
177
     2
291
     1
 71
     2
176
     1
 72
     2
176
     1
 73
     0
176
     1
 90
        0
176
     1
 40
-0.6
176
     1
 41
-30.0
176
     1
 62
     5
 63
     7
421
 16777215
176
     1
 74
     1
176
     1
 91
        4
176
     1
 64
     7
176
     1
 65
   257
176
     1
 75
     1
176
     1
175
     1
176
     1
 42
1.0
176
     1
 92
        8
176
     1
 66
     7
176
     1
 43
1.0
176
     1
 76
     1
176
     1
 77
     6
176
     1
 78
     2
176
     1
 67
     7
176
     1
 79
     5
176
     1
170
     0
176
     1
171
     0
176
     1
290
     0
176
     1
 93
        1
176
     1
 44
-50.0
176
     1
173
     0
176
     1
  0
VISUALSTYLE
  5
39
102
{ACAD_REACTORS
330
2A
102
}
330
2A
100
AcDbVisualStyle
  2
Facepattern
 70
    15
177
     2
291
     1
 71
     2
176
     1
 72
     2
176
     1
 73
     0
176
     1
 90
        0
176
     1
 40
-0.6
176
     1
 41
-30.0
176
     1
 62
     5
 63
     7
421
 16777215
176
     1
 74
     1
176
     1
 91
        4
176
     1
 64
     7
176
     1
 65
   257
176
     1
 75
     1
176
     1
175
     1
176
     1
 42
1.0
176
     1
 92
        8
176
     1
 66
     7
176
     1
 43
1.0
176
     1
 76
     1
176
     1
 77
     6
176
     1
 78
     2
176
     1
 67
     7
176
     1
 79
     5
176
     1
170
     0
176
     1
171
     0
176
     1
290
     0
176
     1
 93
        1
176
     1
 44
0.0
176
     1
173
     0
176
     1
  0
VISUALSTYLE
  5
2B
102
{ACAD_REACTORS
330
2A
102
}
330
2A
100
AcDbVisualStyle
  2
Flat
 70
     0
177
     2
291
     1
 71
     2
176
     1
 72
     1
176
     1
 73
     1
176
     1
 90
        2
176
     1
 40
-0.6
176
     1
 41
30.0
176
     1
 62
     5
 63
     7
421
 16777215
176
     1
 74
     0
176
     1
 91
        4
176
     1
 64
     7
176
     1
 65
   257
176
     1
 75
     1
176
     1
175
     1
176
     1
 42
1.0
176
     1
 92
        8
176
     1
 66
     7
176
     1
 43
1.0
176
     1
 76
     1
176
     1
 77
     6
176
     1
 78
     2
176
     1
 67
     7
176
     1
 79
     5
176
     1
170
     0
176
     1
171
     0
176
     1
290
     0
176
     1
 93
       13
176
     1
 44
0.0
176
     1
173
     0
176
     1
  0
VISUALSTYLE
  5
2C
102
{ACAD_REACTORS
330
2A
102
}
330
2A
100
AcDbVisualStyle
  2
FlatWithEdges
 70
     1
177
     2
291
     1
 71
     2
176
     1
 72
     1
176
     1
 73
     1
176
     1
 90
        2
176
     1
 40
-0.6
176
     1
 41
30.0
176
     1
 62
     5
 63
     7
421
 16777215
176
     1
 74
     1
176
     1
 91
        4
176
     1
 64
     7
176
     1
 65
   257
176
     1
 75
     1
176
     1
175
     1
176
     1
 42
1.0
176
     1
 92
        0
176
     1
 66
   257
176
     1
 43
1.0
176
     1
 76
     1
176
     1
 77
     6
176
     1
 78
     2
176
     1
 67
     7
176
     1
 79
     5
176
     1
170
     0
176
     1
171
     0
176
     1
290
     0
176
     1
 93
       13
176
     1
 44
0.0
176
     1
173
     0
176
     1
  0
VISUALSTYLE
  5
2D
102
{ACAD_REACTORS
330
2A
102
}
330
2A
100
AcDbVisualStyle
  2
Gouraud
 70
     2
177
     2
291
     1
 71
     2
176
     1
 72
     2
176
     1
 73
     1
176
     1
 90
        2
176
     1
 40
-0.6
176
     1
 41
30.0
176
     1
 62
     5
 63
     7
421
 16777215
176
     1
 74
     0
176
     1
 91
        4
176
     1
 64
     7
176
     1
 65
   257
176
     1
 75
     1
176
     1
175
     1
176
     1
 42
1.0
176
     1
 92
        0
176
     1
 66
     7
176
     1
 43
1.0
176
     1
 76
     1
176
     1
 77
     6
176
     1
 78
     2
176
     1
 67
     7
176
     1
 79
     5
176
     1
170
     0
176
     1
171
     0
176
     1
290
     0
176
     1
 93
       13
176
     1
 44
0.0
176
     1
173
     0
176
     1
  0
VISUALSTYLE
  5
2E
102
{ACAD_REACTORS
330
2A
102
}
330
2A
100
AcDbVisualStyle
  2
GouraudWithEdges
 70
     3
177
     2
291
     1
 71
     2
176
     1
 72
     2
176
     1
 73
     1
176
     1
 90
        2
176
     1
 40
-0.6
176
     1
 41
30.0
176
     1
 62
     5
 63
     7
421
 16777215
176
     1
 74
     1
176
     1
 91
        4
176
     1
 64
     7
176
     1
 65
   257
176
     1
 75
     1
176
     1
175
     1
176
     1
 42
1.0
176
     1
 92
        0
176
     1
 66
   257
176
     1
 43
1.0
176
     1
 76
     1
176
     1
 77
     6
176
     1
 78
     2
176
     1
 67
     7
176
     1
 79
     5
176
     1
170
     0
176
     1
171
     0
176
     1
290
     0
176
     1
 93
       13
176
     1
 44
0.0
176
     1
173
     0
176
     1
  0
VISUALSTYLE
  5
38
102
{ACAD_REACTORS
330
2A
102
}
330
2A
100
AcDbVisualStyle
  2
Linepattern
 70
    14
177
     2
291
     1
 71
     2
176
     1
 72
     2
176
     1
 73
     0
176
     1
 90
        0
176
     1
 40
-0.6
176
     1
 41
-30.0
176
     1
 62
     5
 63
     7
421
 16777215
176
     1
 74
     1
176
     1
 91
        4
176
     1
 64
     7
176
     1
 65
   257
176
     1
 75
     7
176
     1
175
     7
176
     1
 42
1.0
176
     1
 92
        8
176
     1
 66
     7
176
     1
 43
1.0
176
     1
 76
     1
176
     1
 77
     6
176
     1
 78
     2
176
     1
 67
     7
176
     1
 79
     5
176
     1
170
     0
176
     1
171
     0
176
     1
290
     0
176
     1
 93
        1
176
     1
 44
0.0
176
     1
173
     0
176
     1
  0
VISUALSTYLE
  5
33
102
{ACAD_REACTORS
330
2A
102
}
330
2A
100
AcDbVisualStyle
  2
Realistic
 70
     8
177
     2
291
     0
 71
     2
176
     1
 72
     2
176
     1
 73
     0
176
     1
 90
        0
176
     1
 40
-0.6
176
     1
 41
-30.0
176
     1
 62
     5
 63
     7
421
 16777215
176
     1
 74
     1
176
     1
 91
        0
176
     1
 64
     7
176
     1
 65
   257
176
     1
 75
     1
176
     1
175
     1
176
     1
 42
1.0
176
     1
 92
        8
176
     1
 66
     8
424
  7895160
176
     1
 43
1.0
176
     1
 76
     1
176
     1
 77
     6
176
     1
 78
     2
176
     1
 67
     7
176
     1
 79
     5
176
     1
170
     0
176
     1
171
     0
176
     1
290
     0
176
     1
 93
       13
176
     1
 44
0.0
176
     1
173
     0
176
     1
  0
VISUALSTYLE
  5
37
102
{ACAD_REACTORS
330
2A
102
}
330
2A
100
AcDbVisualStyle
  2
Thicken
 70
    13
177
     2
291
     1
 71
     2
176
     1
 72
     2
176
     1
 73
     0
176
     1
 90
        0
176
     1
 40
-0.6
176
     1
 41
-30.0
176
     1
 62
     5
 63
     7
421
 16777215
176
     1
 74
     1
176
     1
 91
        4
176
     1
 64
     7
176
     1
 65
   257
176
     1
 75
     1
176
     1
175
     1
176
     1
 42
1.0
176
     1
 92
       12
176
     1
 66
     7
176
     1
 43
1.0
176
     1
 76
     1
176
     1
 77
     6
176
     1
 78
     2
176
     1
 67
     7
176
     1
 79
     5
176
     1
170
     0
176
     1
171
     0
176
     1
290
     0
176
     1
 93
        1
176
     1
 44
0.0
176
     1
173
     0
176
     1
  0
ENDSEC
  0
EOF
