<?xml version="1.0" encoding="utf-8"?>
<!-- Generator: Adobe Illustrator 19.1.1, SVG Export Plug-In . SVG Version: 6.00 Build 0)  -->
<svg version="1.1" id="Layer_1" xmlns="http://www.w3.org/2000/svg" xmlns:xlink="http://www.w3.org/1999/xlink" x="0px" y="0px"
	 viewBox="0 0 510.2 340.2" style="enable-background:new 0 0 510.2 340.2;" xml:space="preserve">
<style type="text/css">
	.st0{fill:#EFE2DF;}
	.st1{fill:#EF5BBB;}
</style>
<path d="M264,210c-3.9-28.3-18.2-51.1-40.7-68.4c-9.9-7.6-20.2-13.1-30.9-16.8c0-0.2,0-0.5,0.1-0.7c0.1-1.7,0-3.4-0.4-5
	c-1.5-6.9-6.5-12.1-11.4-17.1c-1.2-1.3-2.5-2.6-3.7-3.9c-0.1-0.1-0.2-0.3-0.3-0.4c2.6-23.3-7-33.1-11.3-36.3
	c-5.2-3.8-11.5-4.8-16.5-2.6c-13.2,5.9-38,28.5-39.3,56.7c-3-0.9-5.9-0.9-8.5,0.3c-3.8,1.6-6,5-7,6.8c-22-17.8-55.3-14.2-68.6-8.3
	c-5,2.2-8.4,7.6-9,14.1c-0.5,5.3,0.5,19,19.6,32.5c0,0.2,0.1,0.4,0.1,0.5c0.2,1.8,0.3,3.6,0.5,5.4c0.5,6.9,1.1,14.1,5.2,19.9
	c2.8,3.9,7.2,6.6,11.9,7.5c0,0,0.1,0,0.1,0c0.2,0,0.5,0.1,0.7,0.1c-5.9,17.3-6.5,35.2-2.9,53.3c7,35.5,26.8,61.3,59.4,77.1
	c10.6,5.2,21.7,9.1,33.7,9.9c2.2,0.2,4.4,0.5,6.6,0.8h12.2c2.2-0.2,4.4-0.4,6.6-0.6c18.8-2.2,36-8.6,51.1-20.1
	C256,288.2,269.9,253,264,210z"/>
<g>
	<path class="st0" d="M446.8,120.1c14.6,9.3,25.8,21.6,33.9,36.9c2.7,5.1,7.2,15.9,7,16.1c-14.1-22.1-33.4-37.9-57.6-48.4
		c0.8-0.6,6.5-4.3,8.5-5.7C441.5,116.9,444.1,118.3,446.8,120.1z"/>
	<path class="st0" d="M437.1,114c-5.8,3.7-12,7.1-17.5,11.3c-16.6,12.7-28.1,29-32.4,49.8c-1.8,8.9-2,17.9-0.4,26.8
		c0.5,2.6-0.2,4-2.2,5.6c-10.6,8.2-22.4,13.5-35.8,15.1c-1.1,0.1-2.2,0.1-3.7,0.2c-0.8-5.9-1.8-11.7-2.3-17.5c-1-11-0.9-22,0.8-33
		c3.5-22.1,12.5-40.9,29.1-55l10.1,2.1l2.4,0.5c0.6,0.1,1.3,0.3,2,0.4c4.8,1,9.8,1.9,14.8,1.8c4.6-0.1,11.1-1.1,16.2-5.5
		c1-0.9,1.9-1.8,2.7-2.9c0.1-0.2,0.2-0.3,0.3-0.5c0.1-0.1,0.2-0.2,0.3-0.4c0.1-0.2,0.3-0.5,0.4-0.7c0,0,0,0,0,0
		c0.1-0.2,0.3-0.5,0.4-0.7c0-0.1,0.1-0.2,0.1-0.3c0.1-0.2,0.2-0.4,0.3-0.6c0.1-0.1,0.1-0.2,0.2-0.3c0.1-0.2,0.2-0.4,0.3-0.6
		c0-0.1,0.1-0.1,0.1-0.2c0.1-0.2,0.2-0.4,0.3-0.7c0,0,0-0.1,0-0.1c1.8,0.6,3.6,1.3,5.5,2C432,111.9,434.7,113,437.1,114z"/>
	<path class="st0" d="M366.7,116c-0.3,0.2-0.5,0.5-0.8,0.7c-13.3,12.5-21.1,28.2-25.3,45.8c-3.9,16.5-4.3,33.3-2,50.1
		c0.5,3.5,1.1,6.9,1.7,10.6c-6.3,0.2-12.4-0.4-18.4-1.9c-5.1-1.3-10-3.1-14.9-4.8c-0.7-0.2-1.5-1.2-1.6-2c-2.7-17.3-2.2-33.9,2-49.7
		c0,0,0,0,0,0c3.9-4.2,6.7-9.2,9.5-14.1l6-10.5l1.8-3.1c0.2-0.4,0.4-0.7,0.6-1.1c2.5-4.2,5.1-8.1,9-9.9c0.8,0.4,2.6,1.1,4.7,1.5
		c2.6,0.5,5.8,0.6,8.8-0.7c3.7-1.6,6.2-5.1,7.6-10.3C358.7,115.1,362.6,115.3,366.7,116z"/>
	<path class="st0" d="M300.3,174.4c-2.2,12.6-2.2,25.3-0.6,38.8c-4.4-3-8.2-5.4-11.9-8.1c-0.6-0.4-0.9-1.7-0.9-2.5
		c0.3-10.2,2.1-19.9,5.3-29.3c0.1,0,0.2,0,0.3,0c3.3-0.4,6.2-1.7,8.6-3.2C300.8,171.5,300.5,172.9,300.3,174.4z"/>
	<path class="st0" d="M297.8,252.5c-6.5-12.7-10-26.3-11-40.5c0-0.2,0.1-0.4,0.1-0.8c0.5,0.3,1,0.5,1.4,0.8
		c11.8,8.5,25.1,13.3,39.4,15.3c13.4,1.9,26.5,0.9,39.3-3.6c7.9-2.8,14.7-7.4,21.1-12.7c1.7-1.4,3-1.7,5.2-0.9
		c13.1,5.1,23.9,13,32.3,24.3c0.4,0.6,0.8,1.2,1.4,2.1c-19.3,16.6-40.4,29.2-65.8,33c-14.6,2.2-29,0.9-42.6-5
		c-6.8-2.9-13-7.1-19.5-10.7C298.5,253.5,298.1,253,297.8,252.5z"/>
	<path class="st0" d="M352.1,300.8c-6.1-1.3-12-4.6-17.6-7.7c-12.4-7.1-22.1-17.1-30-29c5.3,2.2,10.3,4.9,15.6,6.5
		c24.6,7.6,48.6,5.9,72-5c13.5-6.3,25.7-14.3,36.8-24.1c0.2-0.1,0.4-0.2,1.1-0.6c2,4.5,4.5,8.7,6,13.3c2,6,3.2,12.3,4.7,18.5
		c0.4,1.5-0.2,2.5-1.4,3.5c-15.3,12.3-32.4,20.8-51.8,24.4C375.7,302.7,363.8,303.2,352.1,300.8z"/>
	<path class="st0" d="M441,292.4c-0.9,4.6-3.3,5.8-5.1,6.8c-15.9,7.6-32.6,10.9-50.2,10.1c-5.1-0.2-15.5-1.9-15.5-1.9
		c26.1-1.4,49.7-9.8,71.1-26.3C441.2,284.4,441.3,291.2,441,292.4z"/>
	<path class="st0" d="M476.9,260.6c0,1-0.3,2.1-0.9,2.9c-7.6,11.6-17.4,21-28.7,28.9c-0.2,0.2-0.5,0.3-0.8,0.4c-0.1,0.1-0.3,0-0.5,0
		c0-3.4,0.1-6.8,0-10.3c-0.4-19.8-6-37.8-18.4-53.4c-8.3-10.5-18.7-18.4-31.3-23.1c-2.9-1.1-4.1-2.6-4.6-5.7
		c-1.9-13.4-0.3-26.3,5.1-38.7c0.7-1.7,1.5-2.3,3.5-1.6c23.3,8.2,43.5,20.8,59.3,40.1c10.4,12.7,16.5,27.1,17.1,43.6
		C477,249.3,476.9,254.9,476.9,260.6z"/>
	<path class="st0" d="M493.3,211.2c-0.5,13.7-4,26.7-9.9,39.1c-0.1,0.3-0.3,0.5-0.8,1.3c0-10.2-1.5-19.6-4.8-28.6
		c-8-21.5-22.2-38-40.8-50.9c-10.3-7.1-21.7-12.2-33.5-16.1c-1-0.3-1.9-0.7-3.3-1.2c1.1-1.7,2-3.3,3-4.8c5.3-8,11.9-14.8,19.6-20.6
		c1.2-0.9,2.2-1.1,3.7-0.5c15.2,5.6,28.3,14.4,39.8,25.6c9.5,9.2,17.3,19.7,22.9,31.8C492.8,194.2,493.6,202.7,493.3,211.2z"/>
</g>
<g>
	<path class="st1" d="M280.1,103.8l-2.7,4.8l-5,8.9c-2.7,4.7-5.5,9.6-9.2,13.7c-4.1,4.4-8.9,7.2-13.6,7.8c-1.4,0.2-2.8,0.2-4.2,0
		c-0.4,0-0.8-0.1-1.1-0.2c-4.3-0.8-8.3-3.2-10.8-6.8c-3.8-5.2-4.3-12.1-4.8-18.8c-0.1-1.8-0.3-3.7-0.5-5.5
		c-1.1-9.7-4.4-19.2-9.5-27.5l-1.8,1.1c4.3,7.1,7.3,15,8.7,23.2c-16.7-12.5-17.6-24.7-17.1-29.4c0.5-5.7,3.5-10.4,7.8-12.3
		c12.6-5.6,46-9,67,8.5c0,0.1,0,0.1,0,0.2c-0.6,3.8-0.6,7.3,0,10.3c-0.5,0-0.9,0-1.4,0c-12.5-0.5-25-2.5-37.1-5.9l-0.6,2
		c4,1.1,8,2.1,12.1,2.9c8,1.6,16.2,2.6,24.4,3c-13.7,5-25.2,15.3-31.3,28.3l1.9,0.9c6.2-13.3,18.3-23.7,32.5-28
		c0.1,0,0.2-0.1,0.3-0.1c0.7,1.7,1.6,3.3,2.7,4.7c0.6,0.8,1.3,1.5,2,2.2c0.3,0.2,0.5,0.5,0.8,0.7C285,95.2,282.2,100.1,280.1,103.8z
		"/>
	<path class="st1" d="M310.7,83.5c-1.2,4.8-3.4,7.9-6.5,9.4c-0.5,0.2-1.1,0.4-1.6,0.6c-4.7,1.2-9.6-1.1-10.4-1.5v0
		c-0.5-0.3-0.9-0.7-1.3-1c-0.8-0.7-1.5-1.4-2.1-2.1c-1.4-1.6-2.3-3.4-3-5.1c-1.7-4.9-0.9-9.6-0.6-11.7c0.1-0.3,0.1-0.6,0.1-0.8
		c0.4-0.8,2.4-5,6.4-6.7c2.4-1,5.2-1,8.2,0.2c0.2,0.1,0.4,0.2,0.6,0.4c1.6,1,5.1,3.2,7.6,6.9c1.5,2.2,2.6,4.8,2.8,8.1
		C310.9,81.1,310.8,82.2,310.7,83.5z"/>
	<path class="st1" d="M374.2,82.9c-3.6,3.1-8.9,4.9-14.9,5c-5.5,0.1-11-1.1-16.3-2.2l-15.4-3.3c-4.2-0.9-9.8-2.1-14.7-0.4
		c0-0.9,0-1.8-0.1-2.7c-0.2-2.3-0.9-4.5-1.9-6.6c3.8-2.3,7.8-4.2,12-5.5c5.8-1.8,12-2.7,18-2.5h0c4.3,0.2,8.6,0.8,12.8,2.1l0.6-1.9
		l0-0.1c-13.8-4.1-29.2-2.4-42,4.6c7.8-9.6,14.5-20.1,19.8-31.2l-1.9-0.9c-5.4,11.3-12.2,22-20.2,31.7c-0.3,0.3-0.6,0.7-0.9,1
		c-1.9-2.5-4.4-4.8-7.7-6.9c-0.1,0-0.1-0.1-0.2-0.1c0.9-27.3,25.6-50.1,38.1-55.7c4.3-1.9,9.8-1,14.4,2.4
		c3.9,2.8,12.4,11.6,10.7,32.4c-5.2-6.5-9.2-14-11.6-21.9l-2,0.6c2.8,9.3,7.8,18.1,14.3,25.4c1.2,1.4,2.5,2.7,3.8,4
		c4.6,4.8,9.4,9.8,10.8,16.1c0.3,1.3,0.4,2.6,0.4,3.9c0,1.6-0.3,3.2-0.8,4.7C378.4,77.9,376.7,80.8,374.2,82.9z"/>
</g>
</svg>
