<?xml version="1.0" encoding="iso-8859-1"?>
<!-- Generator: Adobe Illustrator 21.1.0, SVG Export Plug-In . SVG Version: 6.00 Build 0)  -->
<svg version="1.1" id="Calque_1" xmlns="http://www.w3.org/2000/svg" xmlns:xlink="http://www.w3.org/1999/xlink" x="0px" y="0px"
	 width="432px" height="432px" viewBox="0 0 432 432" enable-background="new 0 0 432 432" xml:space="preserve">
<g>
	<g id="lqK9iN_1_">
		<g>
			<g>
				<path fill="#B3B3B3" d="M230.41,296.566c-1.143,7.176-2.115,14.041-3.361,20.857c-0.911,4.984-2.193,9.899-3.286,14.85
					c-0.184,0.833-0.528,1.228-1.468,1.276c-12.543,0.652-25.044,0.207-37.511-1.315c-0.811-0.099-1.215-0.349-1.419-1.171
					c-2.878-11.582-4.937-23.307-6.174-35.177c-0.014-0.135,0.014-0.275,0.037-0.659
					C194.784,297.149,212.367,297.763,230.41,296.566z"/>
				<path fill="#B3B3B3" d="M238.31,288.531c1.187-17.301,0.853-34.426-0.872-51.683c2.848,0.316,5.49,0.483,8.087,0.92
					c7.884,1.327,15.746,2.78,23.627,4.127c1.253,0.214,1.755,0.722,1.886,2.024c1.238,12.297,1.54,24.609,0.848,36.95
					c-0.082,1.46-0.435,2.233-2.066,2.591C259.495,285.721,249.095,287.474,238.31,288.531z"/>
				<path fill="#B3B3B3" d="M229.371,228.826c-17.297-1.036-34.103-0.499-51.09,1.302c0.217-1.873,0.323-3.624,0.635-5.337
					c1.623-8.924,3.308-17.837,4.942-26.759c0.158-0.863,0.516-1.255,1.413-1.358c12.38-1.418,24.786-1.911,37.232-1.155
					c0.137,0.008,0.271,0.055,0.814,0.171C225.301,206.55,227.311,217.554,229.371,228.826z"/>
				<path fill="#B3B3B3" d="M169.804,238.839c-1.454,15.961-1.808,31.8-0.775,47.901c-2.463-0.365-4.801-0.632-7.107-1.067
					c-6.533-1.234-13.05-2.552-19.582-3.794c-0.881-0.168-1.218-0.497-1.274-1.428c-0.713-11.923-0.449-23.82,0.864-35.691
					c0.047-0.427,0.462-1.104,0.799-1.167c8.774-1.643,17.56-3.222,26.345-4.804C169.244,238.758,169.43,238.81,169.804,238.839z"/>
				<path fill="#B3B3B3" d="M104.527,279.083c9.134,2.623,18.156,5.234,27.193,7.796c2.441,0.692,2.488,0.621,2.771,3.164
					c1.19,10.707,3.204,21.254,6.113,31.628c0.059,0.209,0.111,0.42,0.225,0.855c-0.973-0.286-1.776-0.466-2.537-0.754
					c-6.568-2.486-13.137-4.968-19.678-7.524c-0.71-0.278-1.435-0.903-1.823-1.561c-6.066-10.286-10.077-21.342-12.234-33.078
					C104.517,279.39,104.531,279.161,104.527,279.083z"/>
				<path fill="#B3B3B3" d="M103.889,246.801c0.981-4.257,1.804-8.256,2.834-12.2c1.579-6.044,3.874-11.831,6.611-17.447
					c0.365-0.748,2.982-1.48,3.629-1.725c7.69-2.918,15.377-5.846,23.067-8.765c0.385-0.146,0.794-0.232,1.43-0.414
					c-0.459,1.907-0.947,3.628-1.282,5.379c-1.591,8.307-3.148,16.62-4.689,24.936c-0.128,0.693-0.263,1.158-1.061,1.389
					c-9.859,2.864-19.706,5.768-29.557,8.66C104.695,246.666,104.509,246.684,103.889,246.801z"/>
				<path fill="#B3B3B3" d="M220.951,161.6c3.603,0.831,6.964,1.503,10.267,2.389c6.892,1.849,13.484,4.495,19.833,7.756
					c0.917,0.471,1.529,1.074,1.894,2.069c2.285,6.237,4.623,12.455,6.934,18.683c0.157,0.423,0.243,0.873,0.413,1.497
					c-2.997-0.684-5.801-1.471-8.657-1.945c-7.057-1.173-14.132-2.239-21.213-3.256c-1.131-0.162-1.611-0.496-1.939-1.637
					c-2.295-7.993-4.694-15.956-7.059-23.928C221.297,162.801,221.175,162.373,220.951,161.6z"/>
				<path fill="#B3B3B3" d="M304.039,280.656c-0.568,2.42-1.038,4.632-1.608,6.818c-2.538,9.751-6.478,18.908-11.809,27.457
					c-0.413,0.663-1.08,1.322-1.784,1.626c-5.376,2.327-10.791,4.566-16.195,6.828c-0.162,0.068-0.348,0.079-0.718,0.159
					c0.417-1.581,0.8-3.037,1.185-4.494c2.5-9.467,4.28-19.066,5.264-28.809c0.102-1.01,0.451-1.45,1.489-1.775
					c7.586-2.377,15.139-4.862,22.702-7.313C302.956,281.026,303.343,280.891,304.039,280.656z"/>
				<path fill="#B3B3B3" d="M271.547,204.989c5.303,2.241,10.482,4.418,15.65,6.621c1.154,0.492,2.267,1.081,3.403,1.615
					c0.335,0.157,3.668,1.649,4.391,3.087c4.421,8.786,7.474,18.021,9.208,27.698c0.047,0.262,0.049,0.532,0.082,0.908
					c-3.336-1.196-6.529-2.452-9.792-3.487c-5.272-1.671-10.585-3.214-15.894-4.763c-0.698-0.204-1.126-0.393-1.236-1.206
					c-1.367-10.056-3.399-19.981-5.94-29.804C271.398,205.579,271.448,205.485,271.547,204.989z"/>
				<path fill="#B3B3B3" d="M152.346,195.371c0.529-1.616,0.938-3.077,1.481-4.486c2.471-6.416,5.067-12.786,7.415-19.246
					c0.617-1.697,1.641-2.424,3.148-3.062c6.875-2.913,13.958-5.108,21.298-6.473c0.172-0.032,0.349-0.04,0.703-0.078
					c-0.434,1.339-0.863,2.544-1.218,3.771c-2.235,7.719-4.458,15.442-6.668,23.168c-0.213,0.746-0.421,1.278-1.359,1.461
					c-7.932,1.552-15.85,3.172-23.773,4.77C153.112,195.249,152.848,195.286,152.346,195.371z"/>
				<path fill="#B3B3B3" d="M260.447,334.893c-1.684,3.953-3.38,7.517-4.72,11.21c-1.161,3.201-3.269,5.084-6.301,6.523
					c-8.494,4.03-17.282,7.07-26.518,8.819c-0.222,0.042-0.45,0.05-0.833,0.09c0.138-0.472,0.234-0.849,0.359-1.216
					c2.139-6.29,4.297-12.573,6.404-18.874c0.253-0.755,0.534-1.122,1.398-1.202c9.834-0.907,19.531-2.626,29.101-5.061
					C259.556,335.127,259.775,335.069,260.447,334.893z"/>
				<path fill="#B3B3B3" d="M185.246,361.56c-4.514-1.269-8.842-2.339-13.069-3.72c-3.397-1.11-6.68-2.576-9.991-3.938
					c-0.517-0.213-1.121-0.619-1.337-1.094c-2.812-6.177-5.562-12.383-8.323-18.583c-0.067-0.151-0.083-0.325-0.155-0.62
					c3.281,0.753,6.425,1.553,9.603,2.187c4.927,0.982,9.881,1.831,14.811,2.799c0.464,0.091,1.075,0.548,1.221,0.972
					c2.438,7.079,4.812,14.18,7.198,21.276C185.231,360.924,185.216,361.023,185.246,361.56z"/>
			</g>
			<g>
				<path fill="#E6E6E6" d="M229.884,236.234c1.9,12.353,2.42,44.542,0.853,52.95c-2.726,0.151-5.498,0.354-8.274,0.448
					c-14.632,0.497-29.226-0.026-43.779-1.654c-0.37-0.041-0.739-0.145-1.107-0.137c-0.887,0.019-1.191-0.389-1.214-1.262
					c-0.177-6.653-0.627-13.309-0.532-19.957c0.115-8.046,0.676-16.086,1.061-24.128c0.051-1.067,0.314-2.132,0.285-3.193
					c-0.036-1.337,0.596-1.758,1.809-1.843c6.869-0.484,13.729-1.191,20.606-1.462c7.155-0.282,14.326-0.201,21.49-0.182
					C224.001,235.821,226.92,236.085,229.884,236.234z"/>
				<path fill="#E6E6E6" d="M270.978,290.857c-0.45,3.135-0.836,6.214-1.343,9.273c-1.416,8.545-3.392,16.959-5.98,25.23
					c-0.26,0.832-0.683,1.21-1.462,1.43c-9.822,2.781-19.807,4.728-29.948,5.884c-0.266,0.03-0.537,0.004-0.937,0.004
					c0.637-2.821,1.381-5.506,1.837-8.24c1.514-9.082,2.939-18.178,4.349-27.277c0.126-0.814,0.295-1.23,1.194-1.312
					c10.623-0.97,21.138-2.64,31.544-4.989C270.401,290.824,270.586,290.857,270.978,290.857z"/>
				<path fill="#E6E6E6" d="M230.741,196.116c3.554,0.479,6.898,0.745,10.161,1.409c6.97,1.42,13.895,3.059,20.847,4.57
					c0.845,0.184,1.255,0.59,1.477,1.4c2.732,9.971,4.946,20.051,6.442,30.285c0.02,0.134,0.002,0.274,0.002,0.611
					c-0.506-0.078-0.984-0.126-1.45-0.227c-9.969-2.172-20.036-3.701-30.198-4.595c-1.118-0.099-1.474-0.476-1.671-1.64
					c-1.713-10.134-3.538-20.25-5.33-30.37C230.957,197.195,230.881,196.835,230.741,196.116z"/>
				<path fill="#E6E6E6" d="M175.726,330.942c-2.661-0.476-5.184-0.831-7.661-1.388c-5.853-1.316-11.682-2.734-17.526-4.094
					c-0.775-0.18-1.291-0.477-1.552-1.334c-3.342-10.93-5.682-22.066-7.003-33.418c-0.047-0.402-0.006-0.814-0.006-1.352
					c1.481,0.304,2.873,0.625,4.277,0.873c7.283,1.289,14.56,2.615,21.862,3.785c1.342,0.215,1.569,0.78,1.738,1.912
					c1.373,9.199,2.776,18.394,4.246,27.578C174.488,325.922,175.14,328.296,175.726,330.942z"/>
				<path fill="#E6E6E6" d="M176.233,198.094c-0.83,4.257-1.732,8.429-2.442,12.634c-1.077,6.374-2.043,12.768-2.994,19.163
					c-0.125,0.838-0.373,1.179-1.219,1.326c-8.476,1.469-16.943,2.981-25.414,4.477c-0.312,0.055-0.632,0.066-1.168,0.119
					c0.329-2.106,0.54-4.13,0.972-6.105c1.805-8.264,3.68-16.513,5.518-24.77c0.175-0.785,0.486-1.3,1.374-1.49
					c8.272-1.773,16.535-3.586,24.802-5.381C175.827,198.031,176.012,198.081,176.233,198.094z"/>
				<path fill="#E6E6E6" d="M133.985,245.623c-0.261,11.321-0.521,22.599-0.784,34.001c-0.744-0.173-1.777-0.35-2.771-0.656
					c-8.614-2.654-17.218-5.343-25.836-7.985c-0.951-0.292-1.321-0.779-1.324-1.763c-0.013-4.417-0.101-8.834-0.087-13.251
					c0.001-0.41,0.45-1.076,0.824-1.191c9.987-3.085,19.992-6.114,29.995-9.147C134.08,245.608,134.177,245.656,133.985,245.623z"/>
				<path fill="#E6E6E6" d="M221.014,187.601c-11.637,0.384-23.229,0.766-34.902,1.151c0.508-1.883,1.019-4.039,1.672-6.152
					c2.098-6.79,4.262-13.56,6.361-20.349c0.309-0.998,0.715-1.548,1.885-1.545c5.25,0.018,10.501-0.067,15.751-0.046
					c0.414,0.002,1.083,0.448,1.2,0.822c2.715,8.689,5.37,17.397,8.031,26.104C221.036,187.666,220.99,187.768,221.014,187.601z"/>
				<path fill="#E6E6E6" d="M279.198,281.055c0.759-12.328,0.448-24.45-0.749-36.666c0.426,0.043,0.747,0.018,1.028,0.113
					c8.275,2.799,16.544,5.617,24.822,8.407c0.804,0.271,1.216,0.654,1.207,1.568c-0.055,5.301-0.08,10.602-0.08,15.903
					c0,1.321-0.523,2.008-1.815,2.51C295.677,275.979,287.641,278.741,279.198,281.055z"/>
				<path fill="#E6E6E6" d="M221.439,340.931c-1.596,4.651-3.081,9.096-4.652,13.509c-0.873,2.452-1.928,4.839-2.824,7.283
					c-0.291,0.795-0.759,1.111-1.537,1.105c-5.903-0.052-11.807-0.091-17.709-0.192c-0.387-0.007-0.988-0.411-1.116-0.765
					c-2.599-7.215-5.144-14.449-7.694-21.681c-0.025-0.071,0.034-0.172,0.086-0.403
					C197.634,341.105,209.331,341.468,221.439,340.931z"/>
				<path fill="#E6E6E6" d="M119.735,206.011c8.421-12.615,18.941-22.806,32.022-30.883c-1.295,3.466-2.518,6.562-3.609,9.703
					c-1.373,3.953-2.618,7.951-3.978,11.909c-0.167,0.488-0.619,1.075-1.074,1.237c-7.618,2.722-15.258,5.384-22.894,8.054
					C120.126,206.059,120.03,206.027,119.735,206.011z"/>
				<path fill="#E6E6E6" d="M287.07,203.179c-5.964-2.175-11.769-4.283-17.561-6.426c-0.336-0.124-0.71-0.483-0.824-0.815
					c-1.837-5.367-3.635-10.747-5.436-16.126c-0.04-0.119-0.005-0.263-0.005-0.547C272.57,185.96,280.458,193.893,287.07,203.179z"
					/>
				<path fill="#E6E6E6" d="M125.604,325.114c0.727,0.261,1.448,0.535,2.18,0.78c4.933,1.647,9.871,3.278,14.796,4.949
					c0.431,0.146,0.986,0.456,1.133,0.828c1.987,5.041,3.912,10.107,5.929,15.368C140.343,341.036,132.343,333.826,125.604,325.114z
					"/>
				<path fill="#E6E6E6" d="M280.779,328.308c-4.79,5.474-9.806,10.132-15.541,14.458c1.29-3.485,2.461-6.688,3.677-9.874
					c0.112-0.293,0.463-0.59,0.769-0.699C273.259,330.917,276.846,329.678,280.779,328.308z"/>
			</g>
			<g>
				<rect x="201.469" fill="#E6E6E6" width="4.192" height="164.793"/>
			</g>
		</g>
	</g>
	<g>
		<g>
			<path fill="#FCEE21" d="M114.964,162.192c0.132-1.092,0.239-2.136,0.39-3.174c0.238-1.637,0.529-3.267,0.756-4.905
				c0.225-1.627-0.093-1.716-1.145-2.231c-1.585-0.776-3.208-1.474-4.804-2.228c-0.53-0.25-1.058-0.527-1.534-0.866
				c-1.149-0.818-1.114-2.098,0.089-2.841c0.48-0.297,1.026-0.519,1.571-0.673c2.524-0.714,5.058-1.395,7.589-2.082
				c0.435-0.118,0.437-0.107,0.483-0.561c0.195-1.947,0.381-3.894,0.59-5.84c0.049-0.456,0.131-0.917,0.266-1.354
				c0.312-1.008,1.164-1.32,2.067-0.764c0.323,0.199,0.619,0.448,0.902,0.702c0.759,0.684,1.427,1.453,2.034,2.275
				c0.558,0.755,1.145,1.491,1.672,2.266c0.526,0.773,1.204,0.979,2.067,0.713c1.443-0.444,2.885-0.893,4.33-1.331
				c1.171-0.355,2.342-0.711,3.522-1.036c0.299-0.082,0.632-0.076,0.947-0.06c0.669,0.035,1.2,0.478,1.39,1.125
				c0.182,0.618,0.136,1.246-0.071,1.835c-0.41,1.169-0.834,2.337-1.331,3.471c-0.549,1.252-1.143,2.489-1.797,3.688
				c-0.58,1.063-0.605,2.08-0.059,3.138c0.824,1.597,1.64,3.199,2.471,4.792c0.361,0.691,0.763,1.36,1.122,2.052
				c0.175,0.337,0.331,0.693,0.429,1.058c0.282,1.051-0.314,1.948-1.39,2.148c-0.622,0.115-1.239,0.037-1.853-0.048
				c-2.284-0.315-4.47-0.97-6.582-1.889c-0.685-0.298-1.393-0.545-2.074-0.85c-0.566-0.254-1.089-0.199-1.583,0.135
				c-1.001,0.678-2.009,1.347-2.98,2.066c-1.151,0.852-2.262,1.758-3.399,2.629c-0.429,0.328-0.87,0.646-1.334,0.923
				c-0.266,0.158-0.58,0.278-0.885,0.319c-0.708,0.096-1.362-0.341-1.593-1.095C115.083,163.204,115.046,162.674,114.964,162.192z"
				/>
			<path fill="#FCEE21" d="M70.941,328.517c0.819-0.733,1.588-1.449,2.386-2.13c1.259-1.074,2.552-2.107,3.803-3.189
				c1.242-1.074,1.062-1.352,0.611-2.432c-0.68-1.629-1.44-3.224-2.143-4.843c-0.233-0.538-0.447-1.094-0.582-1.662
				c-0.325-1.373,0.546-2.312,1.94-2.077c0.557,0.094,1.113,0.287,1.625,0.53c2.369,1.127,4.722,2.286,7.078,3.439
				c0.405,0.198,0.399,0.208,0.733-0.104c1.43-1.335,2.854-2.676,4.294-4.002c0.338-0.311,0.703-0.603,1.093-0.843
				c0.9-0.552,1.745-0.225,2.058,0.788c0.112,0.362,0.171,0.745,0.215,1.123c0.119,1.015,0.115,2.033,0.029,3.051
				c-0.079,0.936-0.122,1.876-0.237,2.807c-0.115,0.928,0.26,1.53,1.084,1.899c1.378,0.617,2.757,1.231,4.133,1.855
				c1.115,0.505,2.23,1.009,3.331,1.543c0.279,0.135,0.526,0.36,0.752,0.58c0.48,0.467,0.587,1.151,0.303,1.763
				c-0.271,0.585-0.719,1.026-1.263,1.332c-1.079,0.608-2.168,1.207-3.29,1.732c-1.238,0.579-2.5,1.118-3.783,1.588
				c-1.137,0.416-1.826,1.165-2.113,2.32c-0.434,1.744-0.876,3.486-1.302,5.232c-0.185,0.757-0.323,1.526-0.51,2.283
				c-0.091,0.368-0.208,0.739-0.375,1.078c-0.481,0.976-1.521,1.258-2.461,0.698c-0.543-0.323-0.956-0.789-1.362-1.258
				c-1.51-1.743-2.722-3.677-3.703-5.761c-0.318-0.676-0.688-1.328-0.999-2.007c-0.258-0.564-0.687-0.868-1.279-0.942
				c-1.199-0.15-2.399-0.312-3.603-0.412c-1.427-0.118-2.86-0.169-4.289-0.265c-0.539-0.036-1.081-0.088-1.611-0.186
				c-0.304-0.056-0.619-0.174-0.876-0.344c-0.595-0.395-0.799-1.155-0.476-1.874C70.364,329.356,70.686,328.933,70.941,328.517z"/>
			<path fill="#FCEE21" d="M330.954,235.704c1.098-0.048,2.146-0.115,3.195-0.136c1.654-0.034,3.309-0.014,4.963-0.059
				c1.642-0.045,1.678-0.373,2.013-1.495c0.505-1.691,0.928-3.406,1.41-5.105c0.16-0.564,0.347-1.13,0.603-1.655
				c0.618-1.268,1.887-1.443,2.817-0.378c0.371,0.425,0.68,0.927,0.921,1.439c1.119,2.373,2.205,4.76,3.299,7.145
				c0.188,0.409,0.177,0.414,0.633,0.384c1.952-0.127,3.904-0.263,5.857-0.376c0.458-0.027,0.926-0.021,1.38,0.04
				c1.046,0.143,1.493,0.932,1.093,1.914c-0.143,0.351-0.34,0.684-0.545,1.005c-0.551,0.861-1.199,1.646-1.91,2.379
				c-0.654,0.674-1.282,1.374-1.961,2.022c-0.677,0.645-0.768,1.348-0.364,2.156c0.675,1.351,1.354,2.699,2.023,4.053
				c0.542,1.097,1.086,2.194,1.6,3.304c0.13,0.282,0.179,0.611,0.214,0.925c0.075,0.665-0.275,1.262-0.882,1.556
				c-0.58,0.281-1.207,0.338-1.821,0.231c-1.221-0.213-2.442-0.44-3.642-0.744c-1.325-0.336-2.643-0.719-3.933-1.168
				c-1.144-0.398-2.151-0.255-3.105,0.456c-1.44,1.075-2.886,2.142-4.322,3.224c-0.623,0.469-1.217,0.976-1.84,1.443
				c-0.304,0.228-0.629,0.44-0.973,0.597c-0.991,0.451-1.973,0.01-2.346-1.019c-0.216-0.594-0.24-1.216-0.257-1.836
				c-0.064-2.305,0.223-4.569,0.784-6.803c0.182-0.725,0.309-1.463,0.498-2.186c0.158-0.6,0.018-1.107-0.393-1.539
				c-0.833-0.876-1.659-1.761-2.527-2.601c-1.029-0.996-2.106-1.943-3.151-2.922c-0.394-0.369-0.78-0.753-1.129-1.165
				c-0.2-0.236-0.369-0.527-0.46-0.821c-0.211-0.682,0.113-1.4,0.819-1.751C329.976,235.988,330.492,235.865,330.954,235.704z"/>
			<path fill="#FCEE21" d="M285.297,351.721c-0.179-0.624-0.362-1.217-0.518-1.817c-0.246-0.946-0.462-1.9-0.715-2.843
				c-0.251-0.937-0.448-0.911-1.149-0.943c-1.056-0.049-2.115-0.047-3.172-0.081c-0.351-0.011-0.707-0.038-1.048-0.11
				c-0.825-0.174-1.101-0.878-0.607-1.565c0.197-0.274,0.448-0.523,0.713-0.735c1.231-0.982,2.475-1.947,3.716-2.916
				c0.213-0.166,0.217-0.161,0.137-0.418c-0.342-1.104-0.689-2.206-1.023-3.312c-0.078-0.259-0.139-0.529-0.166-0.799
				c-0.06-0.621,0.339-0.991,0.967-0.901c0.224,0.032,0.446,0.098,0.661,0.17c0.578,0.193,1.125,0.454,1.65,0.758
				c0.483,0.279,0.978,0.541,1.449,0.838c0.469,0.297,0.892,0.249,1.308-0.099c0.695-0.581,1.389-1.163,2.087-1.741
				c0.566-0.468,1.131-0.937,1.708-1.391c0.146-0.115,0.332-0.19,0.51-0.255c0.378-0.138,0.774-0.022,1.029,0.285
				c0.243,0.293,0.363,0.645,0.385,1.014c0.043,0.732,0.078,1.466,0.065,2.199c-0.014,0.809-0.057,1.621-0.142,2.427
				c-0.075,0.714,0.146,1.273,0.692,1.719c0.825,0.674,1.646,1.353,2.474,2.023c0.359,0.291,0.736,0.56,1.095,0.851
				c0.174,0.142,0.343,0.299,0.482,0.474c0.399,0.505,0.276,1.133-0.273,1.494c-0.317,0.209-0.677,0.311-1.036,0.41
				c-1.336,0.366-2.697,0.524-4.077,0.521c-0.448-0.001-0.896,0.032-1.344,0.026c-0.372-0.005-0.648,0.148-0.844,0.446
				c-0.397,0.604-0.8,1.205-1.171,1.824c-0.44,0.734-0.845,1.487-1.273,2.228c-0.162,0.279-0.332,0.556-0.525,0.815
				c-0.11,0.149-0.257,0.287-0.416,0.382c-0.369,0.219-0.832,0.135-1.134-0.22C285.597,352.243,285.454,351.963,285.297,351.721z"/>
		</g>
		<g>
			<path fill="#E6E6E6" d="M331.6,177.054c-0.403,0.19-0.715,0.344-1.033,0.485c-0.173,0.077-0.352,0.152-0.536,0.191
				c-0.4,0.086-0.751-0.071-0.944-0.394c-0.198-0.332-0.16-0.761,0.138-1.054c0.202-0.199,0.439-0.367,0.679-0.521
				c0.548-0.353,1.108-0.687,1.662-1.032c0.103-0.064,0.196-0.142,0.334-0.244c-0.169-0.089-0.292-0.154-0.416-0.218
				c-0.721-0.371-1.453-0.724-2.159-1.122c-0.237-0.134-0.465-0.349-0.601-0.583c-0.255-0.437,0.038-0.89,0.546-0.88
				c0.219,0.004,0.444,0.055,0.652,0.128c0.481,0.167,0.953,0.358,1.427,0.543c0.146,0.057,0.287,0.125,0.52,0.228
				c-0.064-0.207-0.089-0.322-0.135-0.428c-0.299-0.686-0.607-1.368-0.901-2.055c-0.074-0.173-0.127-0.36-0.16-0.546
				c-0.044-0.252,0.027-0.477,0.25-0.626c0.241-0.162,0.505-0.144,0.714,0.026c0.243,0.197,0.489,0.419,0.655,0.68
				c0.401,0.63,0.758,1.288,1.13,1.936c0.062,0.108,0.108,0.225,0.194,0.408c0.085-0.167,0.146-0.268,0.19-0.376
				c0.236-0.574,0.461-1.153,0.706-1.723c0.087-0.202,0.204-0.396,0.335-0.574c0.177-0.239,0.434-0.317,0.723-0.252
				c0.311,0.07,0.509,0.28,0.559,0.584c0.032,0.197,0.018,0.416-0.034,0.609c-0.165,0.614-0.358,1.221-0.539,1.831
				c-0.044,0.147-0.083,0.294-0.147,0.526c0.284-0.134,0.492-0.233,0.701-0.331c0.489-0.23,0.97-0.478,1.47-0.681
				c0.197-0.08,0.437-0.096,0.652-0.079c0.325,0.025,0.57,0.215,0.673,0.53c0.108,0.332,0.036,0.651-0.254,0.855
				c-0.415,0.292-0.854,0.551-1.288,0.816c-0.311,0.19-0.631,0.366-1.008,0.584c0.146,0.082,0.241,0.147,0.345,0.193
				c1.035,0.455,2.07,0.906,3.106,1.358c0.297,0.129,0.566,0.284,0.706,0.603c0.263,0.602-0.141,1.207-0.795,1.156
				c-0.234-0.018-0.471-0.087-0.692-0.17c-0.848-0.321-1.691-0.657-2.536-0.987c-0.142-0.055-0.285-0.108-0.534-0.203
				c0.131,0.278,0.217,0.458,0.302,0.639c0.196,0.418,0.403,0.831,0.586,1.255c0.163,0.379,0.149,0.754-0.154,1.064
				c-0.383,0.393-1.013,0.294-1.342-0.238c-0.426-0.689-0.813-1.404-1.216-2.108c-0.052-0.09-0.1-0.182-0.188-0.34
				c-0.088,0.213-0.155,0.351-0.204,0.495c-0.236,0.693-0.46,1.39-0.703,2.081c-0.121,0.344-0.255,0.687-0.418,1.013
				c-0.171,0.341-0.468,0.515-0.86,0.481c-0.361-0.031-0.693-0.301-0.765-0.686c-0.048-0.258-0.047-0.543,0.011-0.798
				c0.116-0.511,0.286-1.01,0.435-1.513C331.479,177.444,331.526,177.296,331.6,177.054z"/>
			<path fill="#E6E6E6" d="M368.123,349.388c-0.403,0.19-0.715,0.344-1.033,0.485c-0.173,0.077-0.352,0.152-0.536,0.191
				c-0.4,0.086-0.751-0.071-0.944-0.394c-0.198-0.332-0.16-0.761,0.138-1.054c0.202-0.199,0.439-0.367,0.679-0.521
				c0.548-0.353,1.108-0.687,1.662-1.032c0.103-0.064,0.196-0.142,0.334-0.244c-0.169-0.089-0.292-0.154-0.416-0.218
				c-0.721-0.371-1.453-0.725-2.159-1.122c-0.237-0.134-0.465-0.349-0.601-0.583c-0.255-0.437,0.038-0.89,0.546-0.88
				c0.219,0.004,0.444,0.055,0.652,0.128c0.481,0.167,0.953,0.358,1.427,0.543c0.146,0.057,0.287,0.125,0.52,0.228
				c-0.064-0.207-0.089-0.322-0.135-0.428c-0.299-0.686-0.607-1.368-0.901-2.055c-0.074-0.173-0.127-0.36-0.16-0.546
				c-0.044-0.252,0.027-0.477,0.25-0.626c0.241-0.162,0.504-0.144,0.714,0.026c0.243,0.197,0.489,0.419,0.655,0.68
				c0.401,0.63,0.758,1.288,1.13,1.936c0.062,0.108,0.108,0.225,0.194,0.408c0.085-0.167,0.146-0.268,0.19-0.376
				c0.236-0.574,0.461-1.153,0.706-1.723c0.087-0.202,0.204-0.396,0.335-0.574c0.177-0.239,0.434-0.317,0.723-0.252
				c0.311,0.07,0.509,0.28,0.559,0.584c0.032,0.197,0.018,0.416-0.034,0.609c-0.165,0.614-0.358,1.221-0.539,1.831
				c-0.044,0.147-0.083,0.294-0.147,0.526c0.284-0.134,0.492-0.233,0.701-0.331c0.489-0.23,0.97-0.478,1.47-0.681
				c0.197-0.08,0.436-0.096,0.652-0.079c0.325,0.025,0.57,0.215,0.673,0.53c0.108,0.332,0.036,0.651-0.254,0.855
				c-0.415,0.292-0.854,0.551-1.288,0.816c-0.311,0.19-0.631,0.366-1.008,0.584c0.146,0.082,0.241,0.147,0.345,0.193
				c1.035,0.455,2.07,0.906,3.106,1.358c0.297,0.129,0.566,0.284,0.706,0.603c0.263,0.602-0.141,1.207-0.795,1.156
				c-0.234-0.018-0.471-0.087-0.692-0.17c-0.848-0.321-1.691-0.657-2.536-0.987c-0.142-0.055-0.285-0.108-0.534-0.203
				c0.131,0.278,0.217,0.458,0.302,0.639c0.196,0.418,0.403,0.831,0.586,1.255c0.163,0.379,0.149,0.754-0.154,1.064
				c-0.383,0.393-1.013,0.294-1.342-0.238c-0.426-0.689-0.813-1.404-1.216-2.108c-0.052-0.09-0.1-0.182-0.188-0.34
				c-0.088,0.213-0.155,0.351-0.204,0.495c-0.236,0.693-0.46,1.39-0.703,2.081c-0.121,0.344-0.255,0.687-0.418,1.013
				c-0.171,0.341-0.469,0.515-0.86,0.481c-0.361-0.031-0.693-0.301-0.764-0.686c-0.048-0.258-0.047-0.543,0.011-0.798
				c0.116-0.511,0.286-1.01,0.435-1.513C368.002,349.778,368.049,349.63,368.123,349.388z"/>
			<path fill="#E6E6E6" d="M270,395.375c-0.403,0.19-0.715,0.344-1.033,0.485c-0.173,0.077-0.352,0.152-0.536,0.191
				c-0.4,0.086-0.751-0.071-0.944-0.394c-0.198-0.332-0.16-0.761,0.138-1.054c0.202-0.199,0.439-0.367,0.679-0.521
				c0.548-0.353,1.108-0.687,1.662-1.032c0.103-0.064,0.196-0.142,0.334-0.244c-0.169-0.089-0.292-0.154-0.416-0.218
				c-0.721-0.371-1.453-0.724-2.159-1.122c-0.237-0.134-0.465-0.349-0.601-0.583c-0.255-0.437,0.038-0.89,0.546-0.88
				c0.219,0.004,0.444,0.055,0.652,0.128c0.481,0.167,0.953,0.358,1.427,0.543c0.146,0.057,0.287,0.125,0.52,0.228
				c-0.064-0.207-0.089-0.322-0.135-0.428c-0.299-0.686-0.607-1.367-0.901-2.055c-0.074-0.173-0.127-0.36-0.16-0.546
				c-0.044-0.252,0.027-0.477,0.25-0.626c0.241-0.162,0.504-0.144,0.714,0.026c0.243,0.197,0.489,0.419,0.655,0.68
				c0.401,0.63,0.758,1.288,1.13,1.936c0.062,0.108,0.108,0.225,0.194,0.408c0.085-0.167,0.146-0.268,0.19-0.376
				c0.236-0.574,0.461-1.153,0.706-1.723c0.087-0.202,0.204-0.396,0.335-0.574c0.177-0.239,0.434-0.317,0.723-0.252
				c0.311,0.07,0.509,0.28,0.559,0.584c0.032,0.197,0.018,0.416-0.034,0.609c-0.165,0.614-0.358,1.221-0.539,1.831
				c-0.044,0.147-0.083,0.294-0.147,0.526c0.284-0.134,0.492-0.233,0.701-0.331c0.489-0.23,0.97-0.478,1.47-0.681
				c0.197-0.08,0.436-0.096,0.652-0.079c0.325,0.025,0.57,0.215,0.673,0.53c0.108,0.332,0.036,0.651-0.254,0.855
				c-0.415,0.292-0.854,0.551-1.288,0.816c-0.311,0.19-0.631,0.366-1.008,0.584c0.146,0.082,0.241,0.147,0.345,0.193
				c1.035,0.455,2.07,0.906,3.106,1.358c0.297,0.129,0.566,0.284,0.706,0.603c0.263,0.602-0.141,1.207-0.795,1.156
				c-0.234-0.018-0.471-0.087-0.692-0.17c-0.848-0.321-1.691-0.657-2.536-0.987c-0.142-0.055-0.285-0.108-0.534-0.203
				c0.131,0.278,0.217,0.458,0.302,0.639c0.196,0.418,0.403,0.831,0.586,1.255c0.163,0.379,0.149,0.754-0.154,1.064
				c-0.383,0.393-1.013,0.294-1.342-0.238c-0.426-0.689-0.813-1.404-1.216-2.108c-0.052-0.09-0.1-0.182-0.188-0.34
				c-0.088,0.213-0.155,0.351-0.204,0.495c-0.236,0.693-0.46,1.39-0.703,2.081c-0.121,0.344-0.255,0.687-0.418,1.013
				c-0.171,0.341-0.469,0.515-0.86,0.481c-0.361-0.031-0.693-0.301-0.765-0.686c-0.048-0.258-0.047-0.543,0.011-0.798
				c0.116-0.511,0.286-1.01,0.435-1.513C269.879,395.765,269.926,395.617,270,395.375z"/>
			<path fill="#E6E6E6" d="M57.859,208.599c-0.403,0.19-0.715,0.344-1.033,0.485c-0.173,0.077-0.352,0.152-0.536,0.191
				c-0.4,0.086-0.751-0.071-0.944-0.394c-0.198-0.332-0.16-0.761,0.138-1.054c0.202-0.199,0.439-0.367,0.679-0.521
				c0.548-0.353,1.108-0.687,1.662-1.032c0.103-0.064,0.196-0.142,0.334-0.244c-0.169-0.089-0.292-0.154-0.416-0.218
				c-0.721-0.371-1.453-0.724-2.159-1.122c-0.237-0.134-0.465-0.349-0.601-0.583c-0.255-0.437,0.038-0.89,0.546-0.88
				c0.219,0.004,0.444,0.055,0.652,0.128c0.481,0.167,0.953,0.358,1.427,0.543c0.146,0.057,0.287,0.125,0.52,0.228
				c-0.064-0.207-0.089-0.322-0.135-0.428c-0.299-0.686-0.607-1.367-0.901-2.055c-0.074-0.173-0.127-0.36-0.16-0.546
				c-0.044-0.252,0.027-0.477,0.25-0.626c0.241-0.162,0.505-0.144,0.714,0.026c0.243,0.197,0.489,0.419,0.655,0.68
				c0.401,0.63,0.758,1.288,1.13,1.936c0.062,0.108,0.108,0.225,0.194,0.408c0.085-0.167,0.146-0.268,0.19-0.376
				c0.236-0.574,0.461-1.153,0.706-1.723c0.087-0.202,0.204-0.396,0.335-0.574c0.177-0.239,0.434-0.317,0.723-0.252
				c0.311,0.07,0.509,0.28,0.559,0.584c0.032,0.197,0.018,0.416-0.034,0.609c-0.165,0.614-0.358,1.221-0.539,1.831
				c-0.044,0.147-0.083,0.294-0.147,0.526c0.284-0.134,0.492-0.233,0.701-0.331c0.489-0.23,0.97-0.478,1.47-0.681
				c0.197-0.08,0.437-0.096,0.652-0.079c0.325,0.025,0.57,0.215,0.673,0.53c0.108,0.332,0.036,0.651-0.254,0.855
				c-0.415,0.292-0.854,0.551-1.288,0.816c-0.311,0.19-0.631,0.366-1.008,0.584c0.146,0.082,0.241,0.147,0.345,0.193
				c1.035,0.455,2.07,0.906,3.106,1.358c0.297,0.129,0.566,0.284,0.706,0.603c0.263,0.602-0.141,1.207-0.795,1.156
				c-0.234-0.018-0.471-0.087-0.692-0.17c-0.848-0.321-1.691-0.657-2.536-0.987c-0.142-0.055-0.285-0.108-0.534-0.203
				c0.131,0.278,0.217,0.458,0.302,0.639c0.196,0.418,0.403,0.831,0.586,1.255c0.163,0.379,0.149,0.754-0.154,1.064
				c-0.383,0.393-1.013,0.294-1.342-0.238c-0.426-0.689-0.813-1.404-1.216-2.108c-0.052-0.09-0.1-0.182-0.188-0.34
				c-0.088,0.213-0.155,0.351-0.204,0.495c-0.236,0.693-0.46,1.39-0.703,2.081c-0.121,0.344-0.255,0.687-0.418,1.013
				c-0.171,0.341-0.468,0.515-0.86,0.481c-0.361-0.031-0.693-0.301-0.765-0.686c-0.048-0.258-0.047-0.543,0.011-0.798
				c0.116-0.511,0.286-1.01,0.435-1.513C57.738,208.989,57.785,208.842,57.859,208.599z"/>
		</g>
	</g>
</g>
</svg>
