  0
SECTION
  2
HEADER
  9
$ACADVER
  1
AC1024
  9
$ACADMAINTVER
 70
     6
  9
$DWGCODEPAGE
  3
ANSI_1252
  9
$INSBASE
 10
0.0
 20
0.0
 30
0.0
  9
$EXTMIN
 10
1.000000000000000E+20
 20
1.000000000000000E+20
 30
1.000000000000000E+20
  9
$EXTMAX
 10
-1.000000000000000E+20
 20
-1.000000000000000E+20
 30
-1.000000000000000E+20
  9
$LIMMIN
 10
0.0
 20
0.0
  9
$LIMMAX
 10
12.0
 20
9.0
  9
$ORTHOMODE
 70
     0
  9
$REGENMODE
 70
     1
  9
$FILLMODE
 70
     1
  9
$QTEXTMODE
 70
     0
  9
$MIRRTEXT
 70
     1
  9
$LTSCALE
 40
1.0
  9
$ATTMODE
 70
     1
  9
$TEXTSIZE
 40
0.2
  9
$TRACEWID
 40
0.05
  9
$TEXTSTYLE
  7
Standard
  9
$CLAYER
  8
0
  9
$CELTYPE
  6
ByLayer
  9
$CECOLOR
 62
   256
  9
$CELTSCALE
 40
1.0
  9
$DISPSILH
 70
     0
  9
$DIMSCALE
 40
1.0
  9
$DIMASZ
 40
0.18
  9
$DIMEXO
 40
0.0625
  9
$DIMDLI
 40
0.38
  9
$DIMRND
 40
0.0
  9
$DIMDLE
 40
0.0
  9
$DIMEXE
 40
0.18
  9
$DIMTP
 40
0.0
  9
$DIMTM
 40
0.0
  9
$DIMTXT
 40
0.18
  9
$DIMCEN
 40
0.09
  9
$DIMTSZ
 40
0.0
  9
$DIMTOL
 70
     0
  9
$DIMLIM
 70
     0
  9
$DIMTIH
 70
     1
  9
$DIMTOH
 70
     1
  9
$DIMSE1
 70
     0
  9
$DIMSE2
 70
     0
  9
$DIMTAD
 70
     0
  9
$DIMZIN
 70
     0
  9
$DIMBLK
  1

  9
$DIMASO
 70
     1
  9
$DIMSHO
 70
     1
  9
$DIMPOST
  1

  9
$DIMAPOST
  1

  9
$DIMALT
 70
     0
  9
$DIMALTD
 70
     2
  9
$DIMALTF
 40
25.4
  9
$DIMLFAC
 40
1.0
  9
$DIMTOFL
 70
     0
  9
$DIMTVP
 40
0.0
  9
$DIMTIX
 70
     0
  9
$DIMSOXD
 70
     0
  9
$DIMSAH
 70
     0
  9
$DIMBLK1
  1

  9
$DIMBLK2
  1

  9
$DIMSTYLE
  2
Standard
  9
$DIMCLRD
 70
     0
  9
$DIMCLRE
 70
     0
  9
$DIMCLRT
 70
     0
  9
$DIMTFAC
 40
1.0
  9
$DIMGAP
 40
0.09
  9
$DIMJUST
 70
     0
  9
$DIMSD1
 70
     0
  9
$DIMSD2
 70
     0
  9
$DIMTOLJ
 70
     1
  9
$DIMTZIN
 70
     0
  9
$DIMALTZ
 70
     0
  9
$DIMALTTZ
 70
     0
  9
$DIMUPT
 70
     0
  9
$DIMDEC
 70
     4
  9
$DIMTDEC
 70
     4
  9
$DIMALTU
 70
     2
  9
$DIMALTTD
 70
     2
  9
$DIMTXSTY
  7
Standard
  9
$DIMAUNIT
 70
     0
  9
$DIMADEC
 70
     0
  9
$DIMALTRND
 40
0.0
  9
$DIMAZIN
 70
     0
  9
$DIMDSEP
 70
    46
  9
$DIMATFIT
 70
     3
  9
$DIMFRAC
 70
     0
  9
$DIMLDRBLK
  1

  9
$DIMLUNIT
 70
     2
  9
$DIMLWD
 70
    -2
  9
$DIMLWE
 70
    -2
  9
$DIMTMOVE
 70
     0
  9
$DIMFXL
 40
1.0
  9
$DIMFXLON
 70
     0
  9
$DIMJOGANG
 40
0.7853981633974483
  9
$DIMTFILL
 70
     0
  9
$DIMTFILLCLR
 70
     0
  9
$DIMARCSYM
 70
     0
  9
$DIMLTYPE
  6

  9
$DIMLTEX1
  6

  9
$DIMLTEX2
  6

  9
$DIMTXTDIRECTION
 70
     0
  9
$LUNITS
 70
     2
  9
$LUPREC
 70
     4
  9
$SKETCHINC
 40
0.1
  9
$FILLETRAD
 40
0.5
  9
$AUNITS
 70
     0
  9
$AUPREC
 70
     0
  9
$MENU
  1
.
  9
$ELEVATION
 40
0.0
  9
$PELEVATION
 40
0.0
  9
$THICKNESS
 40
0.0
  9
$LIMCHECK
 70
     0
  9
$CHAMFERA
 40
0.5
  9
$CHAMFERB
 40
0.5
  9
$CHAMFERC
 40
1.0
  9
$CHAMFERD
 40
0.0
  9
$SKPOLY
 70
     0
  9
$TDCREATE
 40
2457372.520469664
  9
$TDUCREATE
 40
2457372.520469664
  9
$TDUPDATE
 40
2457372.520469722
  9
$TDUUPDATE
 40
2457372.520469722
  9
$TDINDWG
 40
0.0000000116
  9
$TDUSRTIMER
 40
0.0000000116
  9
$USRTIMER
 70
     1
  9
$ANGBASE
 50
0.0
  9
$ANGDIR
 70
     0
  9
$PDMODE
 70
     0
  9
$PDSIZE
 40
0.0
  9
$PLINEWID
 40
0.0
  9
$SPLFRAME
 70
     0
  9
$SPLINETYPE
 70
     6
  9
$SPLINESEGS
 70
     8
  9
$HANDSEED
  5
65
  9
$SURFTAB1
 70
     6
  9
$SURFTAB2
 70
     6
  9
$SURFTYPE
 70
     6
  9
$SURFU
 70
     6
  9
$SURFV
 70
     6
  9
$UCSBASE
  2

  9
$UCSNAME
  2

  9
$UCSORG
 10
0.0
 20
0.0
 30
0.0
  9
$UCSXDIR
 10
1.0
 20
0.0
 30
0.0
  9
$UCSYDIR
 10
0.0
 20
1.0
 30
0.0
  9
$UCSORTHOREF
  2

  9
$UCSORTHOVIEW
 70
     0
  9
$UCSORGTOP
 10
0.0
 20
0.0
 30
0.0
  9
$UCSORGBOTTOM
 10
0.0
 20
0.0
 30
0.0
  9
$UCSORGLEFT
 10
0.0
 20
0.0
 30
0.0
  9
$UCSORGRIGHT
 10
0.0
 20
0.0
 30
0.0
  9
$UCSORGFRONT
 10
0.0
 20
0.0
 30
0.0
  9
$UCSORGBACK
 10
0.0
 20
0.0
 30
0.0
  9
$PUCSBASE
  2

  9
$PUCSNAME
  2

  9
$PUCSORG
 10
0.0
 20
0.0
 30
0.0
  9
$PUCSXDIR
 10
1.0
 20
0.0
 30
0.0
  9
$PUCSYDIR
 10
0.0
 20
1.0
 30
0.0
  9
$PUCSORTHOREF
  2

  9
$PUCSORTHOVIEW
 70
     0
  9
$PUCSORGTOP
 10
0.0
 20
0.0
 30
0.0
  9
$PUCSORGBOTTOM
 10
0.0
 20
0.0
 30
0.0
  9
$PUCSORGLEFT
 10
0.0
 20
0.0
 30
0.0
  9
$PUCSORGRIGHT
 10
0.0
 20
0.0
 30
0.0
  9
$PUCSORGFRONT
 10
0.0
 20
0.0
 30
0.0
  9
$PUCSORGBACK
 10
0.0
 20
0.0
 30
0.0
  9
$USERI1
 70
     0
  9
$USERI2
 70
     0
  9
$USERI3
 70
     0
  9
$USERI4
 70
     0
  9
$USERI5
 70
     0
  9
$USERR1
 40
0.0
  9
$USERR2
 40
0.0
  9
$USERR3
 40
0.0
  9
$USERR4
 40
0.0
  9
$USERR5
 40
0.0
  9
$WORLDVIEW
 70
     1
  9
$SHADEDGE
 70
     3
  9
$SHADEDIF
 70
    70
  9
$TILEMODE
 70
     1
  9
$MAXACTVP
 70
    64
  9
$PINSBASE
 10
0.0
 20
0.0
 30
0.0
  9
$PLIMCHECK
 70
     0
  9
$PEXTMIN
 10
1.000000000000000E+20
 20
1.000000000000000E+20
 30
1.000000000000000E+20
  9
$PEXTMAX
 10
-1.000000000000000E+20
 20
-1.000000000000000E+20
 30
-1.000000000000000E+20
  9
$PLIMMIN
 10
0.0
 20
0.0
  9
$PLIMMAX
 10
12.0
 20
9.0
  9
$UNITMODE
 70
     0
  9
$VISRETAIN
 70
     1
  9
$PLINEGEN
 70
     0
  9
$PSLTSCALE
 70
     1
  9
$TREEDEPTH
 70
  3020
  9
$CMLSTYLE
  2
Standard
  9
$CMLJUST
 70
     0
  9
$CMLSCALE
 40
1.0
  9
$PROXYGRAPHICS
 70
     1
  9
$MEASUREMENT
 70
     0
  9
$CELWEIGHT
370
    -1
  9
$ENDCAPS
280
     0
  9
$JOINSTYLE
280
     0
  9
$LWDISPLAY
290
     1
  9
$INSUNITS
 70
     1
  9
$HYPERLINKBASE
  1

  9
$STYLESHEET
  1

  9
$XEDIT
290
     1
  9
$CEPSNTYPE
380
     0
  9
$PSTYLEMODE
290
     1
  9
$FINGERPRINTGUID
  2
{56DBB7D6-3FAF-4F58-907C-8641948926E8}
  9
$VERSIONGUID
  2
{FAEB1C32-E019-11D5-929B-00C0DF256EC4}
  9
$EXTNAMES
290
     1
  9
$PSVPSCALE
 40
0.0
  9
$OLESTARTUP
290
     0
  9
$SORTENTS
280
   127
  9
$INDEXCTL
280
     0
  9
$HIDETEXT
280
     1
  9
$XCLIPFRAME
280
     2
  9
$HALOGAP
280
     0
  9
$OBSCOLOR
 70
   257
  9
$OBSLTYPE
280
     0
  9
$INTERSECTIONDISPLAY
280
     0
  9
$INTERSECTIONCOLOR
 70
   257
  9
$DIMASSOC
280
     2
  9
$PROJECTNAME
  1

  9
$CAMERADISPLAY
290
     0
  9
$LENSLENGTH
 40
50.0
  9
$CAMERAHEIGHT
 40
0.0
  9
$STEPSPERSEC
 40
2.0
  9
$STEPSIZE
 40
6.0
  9
$3DDWFPREC
 40
2.0
  9
$PSOLWIDTH
 40
0.25
  9
$PSOLHEIGHT
 40
4.0
  9
$LOFTANG1
 40
1.570796326794897
  9
$LOFTANG2
 40
1.570796326794897
  9
$LOFTMAG1
 40
0.0
  9
$LOFTMAG2
 40
0.0
  9
$LOFTPARAM
 70
     7
  9
$LOFTNORMALS
280
     1
  9
$LATITUDE
 40
37.795
  9
$LONGITUDE
 40
-122.394
  9
$NORTHDIRECTION
 40
0.0
  9
$TIMEZONE
 70
 -8000
  9
$LIGHTGLYPHDISPLAY
280
     1
  9
$TILEMODELIGHTSYNCH
280
     1
  9
$CMATERIAL
347
3C
  9
$SOLIDHIST
280
     1
  9
$SHOWHIST
280
     1
  9
$DWFFRAME
280
     2
  9
$DGNFRAME
280
     2
  9
$REALWORLDSCALE
290
     1
  9
$INTERFERECOLOR
 62
   256
  9
$CSHADOW
280
     0
  9
$SHADOWPLANELOCATION
 40
0.0
  0
ENDSEC
  0
SECTION
  2
CLASSES
  0
CLASS
  1
ACDBDICTIONARYWDFLT
  2
AcDbDictionaryWithDefault
  3
ObjectDBX Classes
 90
        0
 91
        4
280
     0
281
     0
  0
CLASS
  1
VISUALSTYLE
  2
AcDbVisualStyle
  3
ObjectDBX Classes
 90
     4095
 91
        4
280
     0
281
     0
  0
CLASS
  1
MATERIAL
  2
AcDbMaterial
  3
ObjectDBX Classes
 90
     1153
 91
        4
280
     0
281
     0
  0
CLASS
  1
SUN
  2
AcDbSun
  3
SCENEOE
 90
     1024
 91
        4
280
     0
281
     0
  0
ENDSEC
  0
SECTION
  2
TABLES
  0
TABLE
  2
VPORT
  5
8
330
0
100
AcDbSymbolTable
 70
     1
  0
VPORT
  5
29
330
8
100
AcDbSymbolTableRecord
100
AcDbViewportTableRecord
  2
*Active
 70
     0
 10
0.0
 20
0.0
 11
1.0
 21
1.0
 12
0.0
 22
0.0
 13
0.0
 23
0.0
 14
0.5
 24
0.5
 15
0.5
 25
0.5
 16
0.0
 26
0.0
 36
1.0
 17
9.000066664416645
 27
-6.00004444294443
 37
0.0
 40
12.00008888588886
 41
1.5
 42
50.0
 43
0.0
 44
0.0
 50
0.0
 51
0.0
 71
     0
 72
   100
 73
     1
 74
     3
 75
     0
 76
     0
 77
     0
 78
     0
281
     0
 65
     1
110
0.0
120
0.0
130
0.0
111
1.0
121
0.0
131
0.0
112
0.0
122
1.0
132
0.0
 79
     0
146
0.0
 60
     3
 61
     5
292
     1
282
     1
141
0.0
142
0.0
 63
   250
361
3F
  0
ENDTAB
  0
TABLE
  2
LTYPE
  5
5
330
0
100
AcDbSymbolTable
 70
     1
  0
LTYPE
  5
14
330
5
100
AcDbSymbolTableRecord
100
AcDbLinetypeTableRecord
  2
ByBlock
 70
     0
  3

 72
    65
 73
     0
 40
0.0
  0
LTYPE
  5
15
330
5
100
AcDbSymbolTableRecord
100
AcDbLinetypeTableRecord
  2
ByLayer
 70
     0
  3

 72
    65
 73
     0
 40
0.0
  0
LTYPE
  5
16
330
5
100
AcDbSymbolTableRecord
100
AcDbLinetypeTableRecord
  2
Continuous
 70
     0
  3
Solid line
 72
    65
 73
     0
 40
0.0
  0
ENDTAB
  0
TABLE
  2
LAYER
  5
2
330
0
100
AcDbSymbolTable
 70
     2
  0
LAYER
  5
10
330
2
100
AcDbSymbolTableRecord
100
AcDbLayerTableRecord
  2
0
 70
     0
 62
     7
  6
Continuous
370
    -3
390
F
347
3E
  0
LAYER
  5
40
330
2
100
AcDbSymbolTableRecord
100
AcDbLayerTableRecord
  2
Layer 1
 70
     0
 62
     7
  6
Continuous
370
    -3
390
F
347
3E
  0
ENDTAB
  0
TABLE
  2
STYLE
  5
3
330
0
100
AcDbSymbolTable
 70
     1
  0
STYLE
  5
11
330
3
100
AcDbSymbolTableRecord
100
AcDbTextStyleTableRecord
  2
Standard
 70
     0
 40
0.0
 41
1.0
 50
0.0
 71
     0
 42
0.2
  3
txt
  4

  0
ENDTAB
  0
TABLE
  2
VIEW
  5
6
330
0
100
AcDbSymbolTable
 70
     0
  0
ENDTAB
  0
TABLE
  2
UCS
  5
7
330
0
100
AcDbSymbolTable
 70
     0
  0
ENDTAB
  0
TABLE
  2
APPID
  5
9
330
0
100
AcDbSymbolTable
 70
     1
  0
APPID
  5
12
330
9
100
AcDbSymbolTableRecord
100
AcDbRegAppTableRecord
  2
ACAD
 70
     0
  0
ENDTAB
  0
TABLE
  2
DIMSTYLE
  5
A
330
0
100
AcDbSymbolTable
 70
     1
100
AcDbDimStyleTable
  0
DIMSTYLE
105
27
330
A
100
AcDbSymbolTableRecord
100
AcDbDimStyleTableRecord
  2
Standard
 70
     0
178
     0
340
11
  0
ENDTAB
  0
TABLE
  2
BLOCK_RECORD
  5
1
330
0
100
AcDbSymbolTable
 70
     3
  0
BLOCK_RECORD
  5
1F
330
1
100
AcDbSymbolTableRecord
100
AcDbBlockTableRecord
  2
*Model_Space
340
22
 70
     0
280
     1
281
     0
  0
BLOCK_RECORD
  5
1B
330
1
100
AcDbSymbolTableRecord
100
AcDbBlockTableRecord
  2
*Paper_Space
340
1E
 70
     0
280
     1
281
     0
  0
BLOCK_RECORD
  5
23
330
1
100
AcDbSymbolTableRecord
100
AcDbBlockTableRecord
  2
*Paper_Space0
340
26
 70
     0
280
     1
281
     0
  0
BLOCK_RECORD
  5
43
330
1
100
AcDbSymbolTableRecord
100
AcDbBlockTableRecord
  2
block 2
340
0
102
{BLKREFS
331
44
102
}
 70
     0
280
     1
281
     0
  0
BLOCK_RECORD
  5
59
330
1
100
AcDbSymbolTableRecord
100
AcDbBlockTableRecord
  2
block 3
340
0
102
{BLKREFS
331
5A
102
}
 70
     0
280
     1
281
     0
  0
ENDTAB
  0
ENDSEC
  0
SECTION
  2
BLOCKS
  0
BLOCK
  5
20
330
1F
100
AcDbEntity
  8
0
100
AcDbBlockBegin
  2
*Model_Space
 70
     0
 10
0.0
 20
0.0
 30
0.0
  3
*Model_Space
  1

  0
ENDBLK
  5
21
330
1F
100
AcDbEntity
  8
0
100
AcDbBlockEnd
  0
BLOCK
  5
1C
330
1B
100
AcDbEntity
 67
     1
  8
0
100
AcDbBlockBegin
  2
*Paper_Space
 70
     0
 10
0.0
 20
0.0
 30
0.0
  3
*Paper_Space
  1

  0
ENDBLK
  5
1D
330
1B
100
AcDbEntity
 67
     1
  8
0
100
AcDbBlockEnd
  0
BLOCK
  5
24
330
23
100
AcDbEntity
  8
0
100
AcDbBlockBegin
  2
*Paper_Space0
 70
     0
 10
0.0
 20
0.0
 30
0.0
  3
*Paper_Space0
  1

  0
ENDBLK
  5
25
330
23
100
AcDbEntity
  8
0
100
AcDbBlockEnd
  0
BLOCK
  5
45
330
43
100
AcDbEntity
  8
0
100
AcDbBlockBegin
  2
block 2
 70
     0
 10
0.0
 20
0.0
 30
0.0
  3
block 2
  1

  0
SPLINE
  5
47
330
43
100
AcDbEntity
  8
Layer 1
370
     0
100
AcDbSpline
210
0.0
220
0.0
230
1.0
 70
    11
 71
     3
 72
    20
 73
    16
 74
     0
 42
0.0000000001
 43
0.0000000001
 12
1.0
 22
0.0
 32
0.0
 13
1.0
 23
0.0
 33
0.0
 40
0.0
 40
0.0
 40
0.0
 40
0.0
 40
1.0
 40
1.0
 40
1.0
 40
2.0
 40
2.0
 40
2.0
 40
3.0
 40
3.0
 40
3.0
 40
4.0
 40
4.0
 40
4.0
 40
5.0
 40
5.0
 40
5.0
 40
5.0
 10
15.76366224029481
 20
-4.235703714067238
 30
0.0
 10
16.2777850861929
 20
-4.564020948003694
 30
0.0
 10
16.67399805438993
 20
-4.999181094530162
 30
0.0
 10
16.95803124289102
 20
-5.536573744315768
 30
0.0
 10
17.05382197108855
 20
-5.717823675604442
 30
0.0
 10
17.21262629569016
 20
-6.098608939784984
 30
0.0
 10
17.20530633828899
 20
-6.103060202171906
 30
0.0
 10
16.70900506839041
 20
-5.325114035533478
 30
0.0
 10
16.02875891169267
 20
-4.765464103405555
 30
0.0
 10
15.17395648809666
 20
-4.39517186302872
 30
0.0
 10
15.20339365259531
 20
-4.37434399195662
 30
0.0
 10
15.40420542279451
 20
-4.242699386739275
 30
0.0
 10
15.4729462035947
 20
-4.194842736233926
 30
0.0
 10
15.57637544379438
 20
-4.122978187004104
 30
0.0
 10
15.66516574039486
 20
-4.172742660019221
 30
0.0
 10
15.76366224029481
 20
-4.235703714067238
 30
0.0
  0
HATCH
  5
48
330
43
100
AcDbEntity
  8
Layer 1
 62
   254
420
 15721183
100
AcDbHatch
 10
0.0
 20
0.0
 30
0.0
210
0.0
220
0.0
230
1.0
  2
SOLID
 70
     1
 71
     0
 91
        1
 92
        1
 93
        1
 72
     4
 94
        3
 73
     0
 74
     1
 95
       20
 96
       16
 40
0.0
 40
0.0
 40
0.0
 40
0.0
 40
1.0
 40
1.0
 40
1.0
 40
2.0
 40
2.0
 40
2.0
 40
3.0
 40
3.0
 40
3.0
 40
4.0
 40
4.0
 40
4.0
 40
5.0
 40
5.0
 40
5.0
 40
5.0
 10
15.76366224029481
 20
-4.235703714067238
 10
16.2777850861929
 20
-4.564020948003694
 10
16.67399805438993
 20
-4.999181094530162
 10
16.95803124289102
 20
-5.536573744315768
 10
17.05382197108855
 20
-5.717823675604442
 10
17.21262629569016
 20
-6.098608939784984
 10
17.20530633828899
 20
-6.103060202171906
 10
16.70900506839041
 20
-5.325114035533478
 10
16.02875891169267
 20
-4.765464103405555
 10
15.17395648809666
 20
-4.39517186302872
 10
15.20339365259531
 20
-4.37434399195662
 10
15.40420542279451
 20
-4.242699386739275
 10
15.4729462035947
 20
-4.194842736233926
 10
15.57637544379438
 20
-4.122978187004104
 10
15.66516574039486
 20
-4.172742660019221
 10
15.76366224029481
 20
-4.235703714067238
 97
        0
 97
        0
 75
     2
 76
     1
 98
        0
  0
SPLINE
  5
49
330
43
100
AcDbEntity
  8
Layer 1
370
     0
100
AcDbSpline
210
0.0
220
0.0
230
1.0
 70
    11
 71
     3
 72
    92
 73
    88
 74
     0
 42
0.0000000001
 43
0.0000000001
 12
1.0
 22
0.0
 32
0.0
 13
1.0
 23
0.0
 33
0.0
 40
0.0
 40
0.0
 40
0.0
 40
0.0
 40
1.0
 40
1.0
 40
1.0
 40
2.0
 40
2.0
 40
2.0
 40
3.0
 40
3.0
 40
3.0
 40
4.0
 40
4.0
 40
4.0
 40
5.0
 40
5.0
 40
5.0
 40
6.0
 40
6.0
 40
6.0
 40
7.0
 40
7.0
 40
7.0
 40
8.0
 40
8.0
 40
8.0
 40
9.0
 40
9.0
 40
9.0
 40
10.0
 40
10.0
 40
10.0
 40
11.0
 40
11.0
 40
11.0
 40
12.0
 40
12.0
 40
12.0
 40
13.0
 40
13.0
 40
13.0
 40
14.0
 40
14.0
 40
14.0
 40
15.0
 40
15.0
 40
15.0
 40
16.0
 40
16.0
 40
16.0
 40
17.0
 40
17.0
 40
17.0
 40
18.0
 40
18.0
 40
18.0
 40
19.0
 40
19.0
 40
19.0
 40
20.0
 40
20.0
 40
20.0
 40
21.0
 40
21.0
 40
21.0
 40
22.0
 40
22.0
 40
22.0
 40
23.0
 40
23.0
 40
23.0
 40
24.0
 40
24.0
 40
24.0
 40
25.0
 40
25.0
 40
25.0
 40
26.0
 40
26.0
 40
26.0
 40
27.0
 40
27.0
 40
27.0
 40
28.0
 40
28.0
 40
28.0
 40
29.0
 40
29.0
 40
29.0
 40
29.0
 10
15.4209483202494
 20
-4.02324972087554
 30
0.0
 10
15.21620608397563
 20
-4.154503336493236
 30
0.0
 10
14.99916629340695
 20
-4.273459397815984
 30
0.0
 10
14.80529044558618
 20
-4.422442016630962
 30
0.0
 10
14.21908491675431
 20
-4.871674502450295
 30
0.0
 10
13.81417319360391
 20
-5.445870455479865
 30
0.0
 10
13.6620472459094
 20
-6.178198016767227
 30
0.0
 10
13.59713514835939
 20
-6.491031671234875
 30
0.0
 10
13.59141572096452
 20
-6.809012286760715
 30
0.0
 10
13.64689085057913
 20
-7.124420294419544
 30
0.0
 10
13.66290420009033
 20
-7.215639663597131
 30
0.0
 10
13.64088519001585
 20
-7.266252319997731
 30
0.0
 10
13.5691122230458
 20
-7.322013682780756
 30
0.0
 10
13.19508401156865
 20
-7.612543839329748
 30
0.0
 10
12.77844894578432
 20
-7.798127651888558
 30
0.0
 10
12.30605251721697
 20
-7.853602781503175
 30
0.0
 10
12.2671632034503
 20
-7.858177276224614
 30
0.0
 10
12.22798765651529
 20
-7.857891043056207
 30
0.0
 10
12.17594383427278
 20
-7.860465396247387
 30
0.0
 10
12.14763467579077
 20
-7.650574453591258
 30
0.0
 10
12.11331985674554
 20
-7.447547871003574
 30
0.0
 10
12.09473215404317
 20
-7.243090122573979
 30
0.0
 10
12.05956038081695
 20
-6.854479727427422
 30
0.0
 10
12.06242096717653
 20
-6.46586758695663
 30
0.0
 10
12.12418624519861
 20
-6.079543566508675
 30
0.0
 10
12.24857550074786
 20
-5.300605377205369
 30
0.0
 10
12.56484046258768
 20
-4.636334987671747
 30
0.0
 10
13.15076150357545
 20
-4.13763128747688
 30
0.0
 10
13.15076150357545
 20
-4.13763128747688
 30
0.0
 10
13.50848838704882
 20
-4.21340977347996
 30
0.0
 10
13.50848838704882
 20
-4.21340977347996
 30
0.0
 10
13.50848838704882
 20
-4.21340977347996
 30
0.0
 10
13.5939900741557
 20
-4.23170949768979
 30
0.0
 10
13.5939900741557
 20
-4.23170949768979
 30
0.0
 10
13.61686603841111
 20
-4.236571970903776
 30
0.0
 10
13.63974200266658
 20
-4.241432698793559
 30
0.0
 10
13.66290420009033
 20
-4.246293426683342
 30
0.0
 10
13.8333333626431
 20
-4.282037666246248
 30
0.0
 10
14.0086232530856
 20
-4.314064365268706
 30
0.0
 10
14.18677198456344
 20
-4.310346824728224
 30
0.0
 10
14.34833664551757
 20
-4.307201750524494
 30
0.0
 10
14.57852919923793
 20
-4.270314323612253
 30
0.0
 10
14.75867981757021
 20
-4.11475532322144
 30
0.0
 10
14.79413782396477
 20
-4.084158044716692
 30
0.0
 10
14.82587828981882
 20
-4.049556992503055
 30
0.0
 10
14.85390296045665
 20
-4.011810866085719
 30
0.0
 10
14.85790498884128
 20
-4.006377671859184
 30
0.0
 10
14.86162252938179
 20
-4.001230710801025
 30
0.0
 10
14.86534006992224
 20
-3.99579751657449
 30
0.0
 10
14.868485144126
 20
-3.991509255021459
 30
0.0
 10
14.87134573048553
 20
-3.987219248144226
 30
0.0
 10
14.87420457152088
 20
-3.982930986591194
 30
0.0
 10
14.87935153257901
 20
-3.974923439173479
 30
0.0
 10
14.88450023896137
 20
-3.966917637079965
 30
0.0
 10
14.88936096685115
 20
-3.958623856493906
 30
0.0
 10
14.88993168786373
 20
-3.958337623325531
 30
0.0
 10
14.88993168786373
 20
-3.958053135481325
 30
0.0
 10
14.89021792103208
 20
-3.957766902312949
 30
0.0
 10
14.89508039424609
 20
-3.949759354895266
 30
0.0
 10
14.89994112213588
 20
-3.941467319633376
 30
0.0
 10
14.90451561685725
 20
-3.932889051203112
 30
0.0
 10
14.90623127054334
 20
-3.92974223167518
 30
0.0
 10
14.90794692422936
 20
-3.926597157471449
 30
0.0
 10
14.90966257791544
 20
-3.923452083267719
 30
0.0
 10
14.91309563061172
 20
-3.916589468523507
 30
0.0
 10
14.91652693798383
 20
-3.909726853779295
 30
0.0
 10
14.91995824535593
 20
-3.902862493710881
 30
0.0
 10
14.92224462005453
 20
-3.898860465326226
 30
0.0
 10
14.92396027374062
 20
-3.894856691617368
 30
0.0
 10
14.92567592742664
 20
-3.890566684740135
 30
0.0
 10
14.92910898012298
 20
-3.883704069995955
 30
0.0
 10
14.93225405432668
 20
-3.876555222083367
 30
0.0
 10
14.93539912853044
 20
-3.869120141002404
 30
0.0
 10
14.93654231587971
 20
-3.866833766303801
 30
0.0
 10
14.93740101538487
 20
-3.864545646280996
 30
0.0
 10
14.93825796956579
 20
-3.862257526258192
 30
0.0
 10
14.94140478909366
 20
-3.854822445177228
 30
0.0
 10
14.94454986329742
 20
-3.846816643083715
 30
0.0
 10
14.94740870433278
 20
-3.839095328834375
 30
0.0
 10
14.94798117066953
 20
-3.837952141485074
 30
0.0
 10
14.94826740383787
 20
-3.836807208811571
 30
0.0
 10
14.94883987017463
 20
-3.835377788293894
 30
0.0
 10
15.01346398923212
 20
-3.85796926470516
 30
0.0
 10
15.07751913260121
 20
-3.882274649478278
 30
0.0
 10
15.14157253064606
 20
-3.907438733756491
 30
0.0
 10
15.23965451456779
 20
-3.946041814354784
 30
0.0
 10
15.33602084480351
 20
-3.988077947649353
 30
0.0
 10
15.4209483202494
 20
-4.02324972087554
 30
0.0
  0
HATCH
  5
4A
330
43
100
AcDbEntity
  8
Layer 1
 62
   254
420
 15721183
100
AcDbHatch
 10
0.0
 20
0.0
 30
0.0
210
0.0
220
0.0
230
1.0
  2
SOLID
 70
     1
 71
     0
 91
        1
 92
        1
 93
        1
 72
     4
 94
        3
 73
     0
 74
     1
 95
       92
 96
       88
 40
0.0
 40
0.0
 40
0.0
 40
0.0
 40
1.0
 40
1.0
 40
1.0
 40
2.0
 40
2.0
 40
2.0
 40
3.0
 40
3.0
 40
3.0
 40
4.0
 40
4.0
 40
4.0
 40
5.0
 40
5.0
 40
5.0
 40
6.0
 40
6.0
 40
6.0
 40
7.0
 40
7.0
 40
7.0
 40
8.0
 40
8.0
 40
8.0
 40
9.0
 40
9.0
 40
9.0
 40
10.0
 40
10.0
 40
10.0
 40
11.0
 40
11.0
 40
11.0
 40
12.0
 40
12.0
 40
12.0
 40
13.0
 40
13.0
 40
13.0
 40
14.0
 40
14.0
 40
14.0
 40
15.0
 40
15.0
 40
15.0
 40
16.0
 40
16.0
 40
16.0
 40
17.0
 40
17.0
 40
17.0
 40
18.0
 40
18.0
 40
18.0
 40
19.0
 40
19.0
 40
19.0
 40
20.0
 40
20.0
 40
20.0
 40
21.0
 40
21.0
 40
21.0
 40
22.0
 40
22.0
 40
22.0
 40
23.0
 40
23.0
 40
23.0
 40
24.0
 40
24.0
 40
24.0
 40
25.0
 40
25.0
 40
25.0
 40
26.0
 40
26.0
 40
26.0
 40
27.0
 40
27.0
 40
27.0
 40
28.0
 40
28.0
 40
28.0
 40
29.0
 40
29.0
 40
29.0
 40
29.0
 10
15.4209483202494
 20
-4.02324972087554
 10
15.21620608397563
 20
-4.154503336493236
 10
14.99916629340695
 20
-4.273459397815984
 10
14.80529044558618
 20
-4.422442016630962
 10
14.21908491675431
 20
-4.871674502450295
 10
13.81417319360391
 20
-5.445870455479865
 10
13.6620472459094
 20
-6.178198016767227
 10
13.59713514835939
 20
-6.491031671234875
 10
13.59141572096452
 20
-6.809012286760715
 10
13.64689085057913
 20
-7.124420294419544
 10
13.66290420009033
 20
-7.215639663597131
 10
13.64088519001585
 20
-7.266252319997731
 10
13.5691122230458
 20
-7.322013682780756
 10
13.19508401156865
 20
-7.612543839329748
 10
12.77844894578432
 20
-7.798127651888558
 10
12.30605251721697
 20
-7.853602781503175
 10
12.2671632034503
 20
-7.858177276224614
 10
12.22798765651529
 20
-7.857891043056207
 10
12.17594383427278
 20
-7.860465396247387
 10
12.14763467579077
 20
-7.650574453591258
 10
12.11331985674554
 20
-7.447547871003574
 10
12.09473215404317
 20
-7.243090122573979
 10
12.05956038081695
 20
-6.854479727427422
 10
12.06242096717653
 20
-6.46586758695663
 10
12.12418624519861
 20
-6.079543566508675
 10
12.24857550074786
 20
-5.300605377205369
 10
12.56484046258768
 20
-4.636334987671747
 10
13.15076150357545
 20
-4.13763128747688
 10
13.15076150357545
 20
-4.13763128747688
 10
13.50848838704882
 20
-4.21340977347996
 10
13.50848838704882
 20
-4.21340977347996
 10
13.50848838704882
 20
-4.21340977347996
 10
13.5939900741557
 20
-4.23170949768979
 10
13.5939900741557
 20
-4.23170949768979
 10
13.61686603841111
 20
-4.236571970903776
 10
13.63974200266658
 20
-4.241432698793559
 10
13.66290420009033
 20
-4.246293426683342
 10
13.8333333626431
 20
-4.282037666246248
 10
14.0086232530856
 20
-4.314064365268706
 10
14.18677198456344
 20
-4.310346824728224
 10
14.34833664551757
 20
-4.307201750524494
 10
14.57852919923793
 20
-4.270314323612253
 10
14.75867981757021
 20
-4.11475532322144
 10
14.79413782396477
 20
-4.084158044716692
 10
14.82587828981882
 20
-4.049556992503055
 10
14.85390296045665
 20
-4.011810866085719
 10
14.85790498884128
 20
-4.006377671859184
 10
14.86162252938179
 20
-4.001230710801025
 10
14.86534006992224
 20
-3.99579751657449
 10
14.868485144126
 20
-3.991509255021459
 10
14.87134573048553
 20
-3.987219248144226
 10
14.87420457152088
 20
-3.982930986591194
 10
14.87935153257901
 20
-3.974923439173479
 10
14.88450023896137
 20
-3.966917637079965
 10
14.88936096685115
 20
-3.958623856493906
 10
14.88993168786373
 20
-3.958337623325531
 10
14.88993168786373
 20
-3.958053135481325
 10
14.89021792103208
 20
-3.957766902312949
 10
14.89508039424609
 20
-3.949759354895266
 10
14.89994112213588
 20
-3.941467319633376
 10
14.90451561685725
 20
-3.932889051203112
 10
14.90623127054334
 20
-3.92974223167518
 10
14.90794692422936
 20
-3.926597157471449
 10
14.90966257791544
 20
-3.923452083267719
 10
14.91309563061172
 20
-3.916589468523507
 10
14.91652693798383
 20
-3.909726853779295
 10
14.91995824535593
 20
-3.902862493710881
 10
14.92224462005453
 20
-3.898860465326226
 10
14.92396027374062
 20
-3.894856691617368
 10
14.92567592742664
 20
-3.890566684740135
 10
14.92910898012298
 20
-3.883704069995955
 10
14.93225405432668
 20
-3.876555222083367
 10
14.93539912853044
 20
-3.869120141002404
 10
14.93654231587971
 20
-3.866833766303801
 10
14.93740101538487
 20
-3.864545646280996
 10
14.93825796956579
 20
-3.862257526258192
 10
14.94140478909366
 20
-3.854822445177228
 10
14.94454986329742
 20
-3.846816643083715
 10
14.94740870433278
 20
-3.839095328834375
 10
14.94798117066953
 20
-3.837952141485074
 10
14.94826740383787
 20
-3.836807208811571
 10
14.94883987017463
 20
-3.835377788293894
 10
15.01346398923212
 20
-3.85796926470516
 10
15.07751913260121
 20
-3.882274649478278
 10
15.14157253064606
 20
-3.907438733756491
 10
15.23965451456779
 20
-3.946041814354784
 10
15.33602084480351
 20
-3.988077947649353
 10
15.4209483202494
 20
-4.02324972087554
 97
        0
 97
        0
 75
     2
 76
     1
 98
        0
  0
SPLINE
  5
4B
330
43
100
AcDbEntity
  8
Layer 1
370
     0
100
AcDbSpline
210
0.0
220
0.0
230
1.0
 70
    11
 71
     3
 72
    59
 73
    55
 74
     0
 42
0.0000000001
 43
0.0000000001
 12
1.0
 22
0.0
 32
0.0
 13
1.0
 23
0.0
 33
0.0
 40
0.0
 40
0.0
 40
0.0
 40
0.0
 40
1.0
 40
1.0
 40
1.0
 40
2.0
 40
2.0
 40
2.0
 40
3.0
 40
3.0
 40
3.0
 40
4.0
 40
4.0
 40
4.0
 40
5.0
 40
5.0
 40
5.0
 40
6.0
 40
6.0
 40
6.0
 40
7.0
 40
7.0
 40
7.0
 40
8.0
 40
8.0
 40
8.0
 40
9.0
 40
9.0
 40
9.0
 40
10.0
 40
10.0
 40
10.0
 40
11.0
 40
11.0
 40
11.0
 40
12.0
 40
12.0
 40
12.0
 40
13.0
 40
13.0
 40
13.0
 40
14.0
 40
14.0
 40
14.0
 40
15.0
 40
15.0
 40
15.0
 40
16.0
 40
16.0
 40
16.0
 40
17.0
 40
17.0
 40
17.0
 40
18.0
 40
18.0
 40
18.0
 40
18.0
 10
12.93629606619788
 20
-4.093595012652084
 30
0.0
 10
12.92743156459924
 20
-4.101600814745598
 30
0.0
 10
12.9185670630006
 20
-4.109894595331657
 30
0.0
 10
12.90970081607779
 20
-4.118186630593546
 30
0.0
 10
12.44130990654353
 20
-4.55912708115099
 30
0.0
 10
12.16450497948296
 20
-5.112448956779549
 30
0.0
 10
12.01695352650983
 20
-5.732683071488375
 30
0.0
 10
11.87769410879859
 20
-6.316028013960727
 30
0.0
 10
11.86682772034558
 20
-6.905951083333181
 30
0.0
 10
11.94489258104726
 20
-7.498732993740926
 30
0.0
 10
11.96119216372687
 20
-7.621694574096733
 30
0.0
 10
11.98321117380135
 20
-7.743795709623274
 30
0.0
 10
12.00351453018981
 20
-7.873333671554885
 30
0.0
 10
11.78218473274386
 20
-7.879910053130754
 30
0.0
 10
11.56628987484868
 20
-7.858463509392958
 30
0.0
 10
11.35582821117997
 20
-7.806419687150448
 30
0.0
 10
11.1771070133653
 20
-7.762097179157244
 30
0.0
 10
11.00296031027215
 20
-7.697185081607234
 30
0.0
 10
10.82881535250309
 20
-7.636276757766082
 30
0.0
 10
10.80393750139326
 20
-7.62769848933585
 30
0.0
 10
10.77505587657456
 20
-7.593099182446446
 30
0.0
 10
10.77133833603405
 20
-7.566790165494697
 30
0.0
 10
10.67726012582117
 20
-6.955420552384512
 30
0.0
 10
10.6944166626817
 20
-6.369501256720979
 30
0.0
 10
10.84254058199152
 20
-5.814751705898914
 30
0.0
 10
10.84311304832833
 20
-5.814179239562162
 30
0.0
 10
10.84339928149668
 20
-5.813893006393786
 30
0.0
 10
10.84397000250926
 20
-5.813320540057035
 30
0.0
 10
10.98151376653442
 20
-5.664910387578809
 30
0.0
 10
11.08159763731058
 20
-5.488191076618608
 30
0.0
 10
11.17853643388305
 20
-5.317477426221725
 30
0.0
 10
11.17853643388305
 20
-5.317477426221725
 30
0.0
 10
11.38985679705679
 20
-4.945451101598946
 30
0.0
 10
11.38985679705679
 20
-4.945451101598946
 30
0.0
 10
11.38985679705679
 20
-4.945451101598946
 30
0.0
 10
11.45248077458403
 20
-4.835073308706431
 30
0.0
 10
11.45248077458403
 20
-4.835073308706431
 30
0.0
 10
11.45991585566499
 20
-4.821918800230589
 30
0.0
 10
11.46735093674595
 20
-4.808766037078916
 30
0.0
 10
11.47507050567109
 20
-4.795897761771418
 30
0.0
 10
11.56200161329558
 20
-4.646058188775515
 30
0.0
 10
11.65522112400343
 20
-4.511373265785712
 30
0.0
 10
11.79162170067925
 20
-4.448176821921757
 30
0.0
 10
11.82050332549795
 20
-4.461617563566006
 30
0.0
 10
11.88169788250744
 20
-4.487067881012595
 30
0.0
 10
11.95861955585986
 20
-4.502508764187072
 30
0.0
 10
12.04983892503738
 20
-4.520810233721105
 30
0.0
 10
12.16278932579694
 20
-4.525098495274136
 30
0.0
 10
12.26859262396798
 20
-4.477344679908827
 30
0.0
 10
12.39813058589959
 20
-4.419295197103029
 30
0.0
 10
12.48791878923527
 20
-4.296049128903048
 30
0.0
 10
12.53681753727408
 20
-4.112467203198635
 30
0.0
 10
12.65520287758428
 20
-4.060995847292876
 30
0.0
 10
12.79217417527275
 20
-4.068430928373839
 30
0.0
 10
12.93629606619788
 20
-4.093595012652084
 30
0.0
  0
HATCH
  5
4C
330
43
100
AcDbEntity
  8
Layer 1
 62
   254
420
 15721183
100
AcDbHatch
 10
0.0
 20
0.0
 30
0.0
210
0.0
220
0.0
230
1.0
  2
SOLID
 70
     1
 71
     0
 91
        1
 92
        1
 93
        1
 72
     4
 94
        3
 73
     0
 74
     1
 95
       59
 96
       55
 40
0.0
 40
0.0
 40
0.0
 40
0.0
 40
1.0
 40
1.0
 40
1.0
 40
2.0
 40
2.0
 40
2.0
 40
3.0
 40
3.0
 40
3.0
 40
4.0
 40
4.0
 40
4.0
 40
5.0
 40
5.0
 40
5.0
 40
6.0
 40
6.0
 40
6.0
 40
7.0
 40
7.0
 40
7.0
 40
8.0
 40
8.0
 40
8.0
 40
9.0
 40
9.0
 40
9.0
 40
10.0
 40
10.0
 40
10.0
 40
11.0
 40
11.0
 40
11.0
 40
12.0
 40
12.0
 40
12.0
 40
13.0
 40
13.0
 40
13.0
 40
14.0
 40
14.0
 40
14.0
 40
15.0
 40
15.0
 40
15.0
 40
16.0
 40
16.0
 40
16.0
 40
17.0
 40
17.0
 40
17.0
 40
18.0
 40
18.0
 40
18.0
 40
18.0
 10
12.93629606619788
 20
-4.093595012652084
 10
12.92743156459924
 20
-4.101600814745598
 10
12.9185670630006
 20
-4.109894595331657
 10
12.90970081607779
 20
-4.118186630593546
 10
12.44130990654353
 20
-4.55912708115099
 10
12.16450497948296
 20
-5.112448956779549
 10
12.01695352650983
 20
-5.732683071488375
 10
11.87769410879859
 20
-6.316028013960727
 10
11.86682772034558
 20
-6.905951083333181
 10
11.94489258104726
 20
-7.498732993740926
 10
11.96119216372687
 20
-7.621694574096733
 10
11.98321117380135
 20
-7.743795709623274
 10
12.00351453018981
 20
-7.873333671554885
 10
11.78218473274386
 20
-7.879910053130754
 10
11.56628987484868
 20
-7.858463509392958
 10
11.35582821117997
 20
-7.806419687150448
 10
11.1771070133653
 20
-7.762097179157244
 10
11.00296031027215
 20
-7.697185081607234
 10
10.82881535250309
 20
-7.636276757766082
 10
10.80393750139326
 20
-7.62769848933585
 10
10.77505587657456
 20
-7.593099182446446
 10
10.77133833603405
 20
-7.566790165494697
 10
10.67726012582117
 20
-6.955420552384512
 10
10.6944166626817
 20
-6.369501256720979
 10
10.84254058199152
 20
-5.814751705898914
 10
10.84311304832833
 20
-5.814179239562162
 10
10.84339928149668
 20
-5.813893006393786
 10
10.84397000250926
 20
-5.813320540057035
 10
10.98151376653442
 20
-5.664910387578809
 10
11.08159763731058
 20
-5.488191076618608
 10
11.17853643388305
 20
-5.317477426221725
 10
11.17853643388305
 20
-5.317477426221725
 10
11.38985679705679
 20
-4.945451101598946
 10
11.38985679705679
 20
-4.945451101598946
 10
11.38985679705679
 20
-4.945451101598946
 10
11.45248077458403
 20
-4.835073308706431
 10
11.45248077458403
 20
-4.835073308706431
 10
11.45991585566499
 20
-4.821918800230589
 10
11.46735093674595
 20
-4.808766037078916
 10
11.47507050567109
 20
-4.795897761771418
 10
11.56200161329558
 20
-4.646058188775515
 10
11.65522112400343
 20
-4.511373265785712
 10
11.79162170067925
 20
-4.448176821921757
 10
11.82050332549795
 20
-4.461617563566006
 10
11.88169788250744
 20
-4.487067881012595
 10
11.95861955585986
 20
-4.502508764187072
 10
12.04983892503738
 20
-4.520810233721105
 10
12.16278932579694
 20
-4.525098495274136
 10
12.26859262396798
 20
-4.477344679908827
 10
12.39813058589959
 20
-4.419295197103029
 10
12.48791878923527
 20
-4.296049128903048
 10
12.53681753727408
 20
-4.112467203198635
 10
12.65520287758428
 20
-4.060995847292876
 10
12.79217417527275
 20
-4.068430928373839
 10
12.93629606619788
 20
-4.093595012652084
 97
        0
 97
        0
 75
     2
 76
     1
 98
        0
  0
SPLINE
  5
4D
330
43
100
AcDbEntity
  8
Layer 1
370
     0
100
AcDbSpline
210
0.0
220
0.0
230
1.0
 70
    11
 71
     3
 72
    26
 73
    22
 74
     0
 42
0.0000000001
 43
0.0000000001
 12
1.0
 22
0.0
 32
0.0
 13
1.0
 23
0.0
 33
0.0
 40
0.0
 40
0.0
 40
0.0
 40
0.0
 40
1.0
 40
1.0
 40
1.0
 40
2.0
 40
2.0
 40
2.0
 40
3.0
 40
3.0
 40
3.0
 40
4.0
 40
4.0
 40
4.0
 40
5.0
 40
5.0
 40
5.0
 40
6.0
 40
6.0
 40
6.0
 40
7.0
 40
7.0
 40
7.0
 40
7.0
 10
10.5931896045562
 20
-6.151890745139648
 30
0.0
 10
10.5165541643722
 20
-6.597693668911078
 30
0.0
 10
10.51426604434936
 20
-7.044638034707607
 30
0.0
 10
10.57145682765006
 20
-7.519322583297796
 30
0.0
 10
10.41761348094537
 20
-7.415234938812709
 30
0.0
 10
10.28321479112391
 20
-7.327733110175635
 30
0.0
 10
10.15310610817965
 20
-7.233941133131164
 30
0.0
 10
10.13194579761033
 20
-7.218498504632486
 30
0.0
 10
10.1202207096521
 20
-7.175319183988615
 30
0.0
 10
10.12107940915726
 20
-7.145866838157339
 30
0.0
 10
10.13165956444198
 20
-6.786995022010402
 30
0.0
 10
10.1937110756324
 20
-6.442134668520296
 30
0.0
 10
10.30723568805282
 20
-6.112142731867884
 30
0.0
 10
10.31095322859333
 20
-6.11185649869954
 30
0.0
 10
10.31438453596538
 20
-6.111572010855366
 30
0.0
 10
10.31810207650589
 20
-6.110999544518615
 30
0.0
 10
10.43362683045656
 20
-6.095558661344105
 30
0.0
 10
10.53542635491881
 20
-6.052379340700235
 30
0.0
 10
10.62235571721913
 20
-5.998333631603296
 30
0.0
 10
10.61177556193441
 20
-6.049232521172367
 30
0.0
 10
10.60205410615484
 20
-6.100419389233888
 30
0.0
 10
10.5931896045562
 20
-6.151890745139648
 30
0.0
  0
HATCH
  5
4E
330
43
100
AcDbEntity
  8
Layer 1
 62
   254
420
 15721183
100
AcDbHatch
 10
0.0
 20
0.0
 30
0.0
210
0.0
220
0.0
230
1.0
  2
SOLID
 70
     1
 71
     0
 91
        1
 92
        1
 93
        1
 72
     4
 94
        3
 73
     0
 74
     1
 95
       26
 96
       22
 40
0.0
 40
0.0
 40
0.0
 40
0.0
 40
1.0
 40
1.0
 40
1.0
 40
2.0
 40
2.0
 40
2.0
 40
3.0
 40
3.0
 40
3.0
 40
4.0
 40
4.0
 40
4.0
 40
5.0
 40
5.0
 40
5.0
 40
6.0
 40
6.0
 40
6.0
 40
7.0
 40
7.0
 40
7.0
 40
7.0
 10
10.5931896045562
 20
-6.151890745139648
 10
10.5165541643722
 20
-6.597693668911078
 10
10.51426604434936
 20
-7.044638034707607
 10
10.57145682765006
 20
-7.519322583297796
 10
10.41761348094537
 20
-7.415234938812709
 10
10.28321479112391
 20
-7.327733110175635
 10
10.15310610817965
 20
-7.233941133131164
 10
10.13194579761033
 20
-7.218498504632486
 10
10.1202207096521
 20
-7.175319183988615
 10
10.12107940915726
 20
-7.145866838157339
 10
10.13165956444198
 20
-6.786995022010402
 10
10.1937110756324
 20
-6.442134668520296
 10
10.30723568805282
 20
-6.112142731867884
 10
10.31095322859333
 20
-6.11185649869954
 10
10.31438453596538
 20
-6.111572010855366
 10
10.31810207650589
 20
-6.110999544518615
 10
10.43362683045656
 20
-6.095558661344105
 10
10.53542635491881
 20
-6.052379340700235
 10
10.62235571721913
 20
-5.998333631603296
 10
10.61177556193441
 20
-6.049232521172367
 10
10.60205410615484
 20
-6.100419389233888
 10
10.5931896045562
 20
-6.151890745139648
 97
        0
 97
        0
 75
     2
 76
     1
 98
        0
  0
SPLINE
  5
4F
330
43
100
AcDbEntity
  8
Layer 1
370
     0
100
AcDbSpline
210
0.0
220
0.0
230
1.0
 70
    11
 71
     3
 72
    44
 73
    40
 74
     0
 42
0.0000000001
 43
0.0000000001
 12
1.0
 22
0.0
 32
0.0
 13
1.0
 23
0.0
 33
0.0
 40
0.0
 40
0.0
 40
0.0
 40
0.0
 40
1.0
 40
1.0
 40
1.0
 40
2.0
 40
2.0
 40
2.0
 40
3.0
 40
3.0
 40
3.0
 40
4.0
 40
4.0
 40
4.0
 40
5.0
 40
5.0
 40
5.0
 40
6.0
 40
6.0
 40
6.0
 40
7.0
 40
7.0
 40
7.0
 40
8.0
 40
8.0
 40
8.0
 40
9.0
 40
9.0
 40
9.0
 40
10.0
 40
10.0
 40
10.0
 40
11.0
 40
11.0
 40
11.0
 40
12.0
 40
12.0
 40
12.0
 40
13.0
 40
13.0
 40
13.0
 40
13.0
 10
10.50675184341124
 20
-8.908627711003872
 30
0.0
 10
10.27888915461161
 20
-8.459476219133458
 30
0.0
 10
10.15334173611124
 20
-7.982342036575022
 30
0.0
 10
10.11976724661211
 20
-7.480405190980906
 30
0.0
 10
10.11928941471074
 20
-7.472933047885623
 30
0.0
 10
10.12167663181186
 20
-7.465142610902507
 30
0.0
 10
10.12358601701173
 20
-7.451310412502348
 30
0.0
 10
10.14140759301137
 20
-7.461326965882971
 30
0.0
 10
10.15763833841236
 20
-7.468639962034529
 30
0.0
 10
10.1716411440125
 20
-7.478974809302793
 30
0.0
 10
10.58774435070938
 20
-7.780581557693769
 30
0.0
 10
11.05572242600961
 20
-7.94895417224537
 30
0.0
 10
11.56188917650792
 20
-8.01906907550106
 30
0.0
 10
12.03352577370416
 20
-8.084415392890596
 30
0.0
 10
12.49529786150365
 20
-8.049596176474358
 30
0.0
 10
12.94720446870347
 20
-7.891716585726592
 30
0.0
 10
13.22741791560184
 20
-7.793937285670586
 30
0.0
 10
13.46530536230184
 20
-7.62906299265916
 30
0.0
 10
13.69094011130074
 20
-7.443837298998848
 30
0.0
 10
13.75013299489903
 20
-7.395185884182451
 30
0.0
 10
13.79850667650083
 20
-7.38214845009334
 30
0.0
 10
13.87393030550011
 20
-7.411562492867885
 30
0.0
 10
14.33490600679725
 20
-7.590586307758893
 30
0.0
 10
14.71743569519802
 20
-7.871207008542134
 30
0.0
 10
15.01165194769652
 20
-8.269799263086352
 30
0.0
 10
15.02724558389556
 20
-8.290786281102433
 30
0.0
 10
15.04077152879735
 20
-8.31320368079669
 30
0.0
 10
15.06066176729732
 20
-8.343094193994576
 30
0.0
 10
14.37914236339858
 20
-8.929773875963742
 30
0.0
 10
13.63429275090094
 20
-9.372247989049919
 30
0.0
 10
12.73779949390241
 20
-9.508662150541765
 30
0.0
 10
12.22256267810376
 20
-9.587044931612194
 30
0.0
 10
11.71512365160765
 20
-9.540301339305662
 30
0.0
 10
11.23552998780834
 20
-9.332500069415456
 30
0.0
 10
10.99668784850869
 20
-9.229155478365493
 30
0.0
 10
10.77662197780851
 20
-9.08240549919723
 30
0.0
 10
10.54891856630934
 20
-8.953939951224074
 30
0.0
 10
10.53173312830851
 20
-8.944241691731222
 30
0.0
 10
10.51582093750862
 20
-8.926434701367546
 30
0.0
 10
10.50675184341124
 20
-8.908627711003872
 30
0.0
  0
HATCH
  5
50
330
43
100
AcDbEntity
  8
Layer 1
 62
   254
420
 15721183
100
AcDbHatch
 10
0.0
 20
0.0
 30
0.0
210
0.0
220
0.0
230
1.0
  2
SOLID
 70
     1
 71
     0
 91
        1
 92
        1
 93
        1
 72
     4
 94
        3
 73
     0
 74
     1
 95
       44
 96
       40
 40
0.0
 40
0.0
 40
0.0
 40
0.0
 40
1.0
 40
1.0
 40
1.0
 40
2.0
 40
2.0
 40
2.0
 40
3.0
 40
3.0
 40
3.0
 40
4.0
 40
4.0
 40
4.0
 40
5.0
 40
5.0
 40
5.0
 40
6.0
 40
6.0
 40
6.0
 40
7.0
 40
7.0
 40
7.0
 40
8.0
 40
8.0
 40
8.0
 40
9.0
 40
9.0
 40
9.0
 40
10.0
 40
10.0
 40
10.0
 40
11.0
 40
11.0
 40
11.0
 40
12.0
 40
12.0
 40
12.0
 40
13.0
 40
13.0
 40
13.0
 40
13.0
 10
10.50675184341124
 20
-8.908627711003872
 10
10.27888915461161
 20
-8.459476219133458
 10
10.15334173611124
 20
-7.982342036575022
 10
10.11976724661211
 20
-7.480405190980906
 10
10.11928941471074
 20
-7.472933047885623
 10
10.12167663181186
 20
-7.465142610902507
 10
10.12358601701173
 20
-7.451310412502348
 10
10.14140759301137
 20
-7.461326965882971
 10
10.15763833841236
 20
-7.468639962034529
 10
10.1716411440125
 20
-7.478974809302793
 10
10.58774435070938
 20
-7.780581557693769
 10
11.05572242600961
 20
-7.94895417224537
 10
11.56188917650792
 20
-8.01906907550106
 10
12.03352577370416
 20
-8.084415392890596
 10
12.49529786150365
 20
-8.049596176474358
 10
12.94720446870347
 20
-7.891716585726592
 10
13.22741791560184
 20
-7.793937285670586
 10
13.46530536230184
 20
-7.62906299265916
 10
13.69094011130074
 20
-7.443837298998848
 10
13.75013299489903
 20
-7.395185884182451
 10
13.79850667650083
 20
-7.38214845009334
 10
13.87393030550011
 20
-7.411562492867885
 10
14.33490600679725
 20
-7.590586307758893
 10
14.71743569519802
 20
-7.871207008542134
 10
15.01165194769652
 20
-8.269799263086352
 10
15.02724558389556
 20
-8.290786281102433
 10
15.04077152879735
 20
-8.31320368079669
 10
15.06066176729732
 20
-8.343094193994576
 10
14.37914236339858
 20
-8.929773875963742
 10
13.63429275090094
 20
-9.372247989049919
 10
12.73779949390241
 20
-9.508662150541765
 10
12.22256267810376
 20
-9.587044931612194
 10
11.71512365160765
 20
-9.540301339305662
 10
11.23552998780834
 20
-9.332500069415456
 10
10.99668784850869
 20
-9.229155478365493
 10
10.77662197780851
 20
-9.08240549919723
 10
10.54891856630934
 20
-8.953939951224074
 10
10.53173312830851
 20
-8.944241691731222
 10
10.51582093750862
 20
-8.926434701367546
 10
10.50675184341124
 20
-8.908627711003872
 97
        0
 97
        0
 75
     2
 76
     1
 98
        0
  0
SPLINE
  5
51
330
43
100
AcDbEntity
  8
Layer 1
370
     0
100
AcDbSpline
210
0.0
220
0.0
230
1.0
 70
    11
 71
     3
 72
    38
 73
    34
 74
     0
 42
0.0000000001
 43
0.0000000001
 12
1.0
 22
0.0
 32
0.0
 13
1.0
 23
0.0
 33
0.0
 40
0.0
 40
0.0
 40
0.0
 40
0.0
 40
1.0
 40
1.0
 40
1.0
 40
2.0
 40
2.0
 40
2.0
 40
3.0
 40
3.0
 40
3.0
 40
4.0
 40
4.0
 40
4.0
 40
5.0
 40
5.0
 40
5.0
 40
6.0
 40
6.0
 40
6.0
 40
7.0
 40
7.0
 40
7.0
 40
8.0
 40
8.0
 40
8.0
 40
9.0
 40
9.0
 40
9.0
 40
10.0
 40
10.0
 40
10.0
 40
11.0
 40
11.0
 40
11.0
 40
11.0
 10
12.42082892510428
 20
-10.61317784595892
 30
0.0
 10
12.20410496410519
 20
-10.56850122310598
 30
0.0
 10
11.99597323650495
 20
-10.45243652144658
 30
0.0
 10
11.80057203850711
 20
-10.33987111173539
 30
0.0
 10
11.36425906750639
 20
-10.0885053067829
 30
0.0
 10
11.0207154120092
 20
-9.734907968979273
 30
0.0
 10
10.74225207301
 20
-9.315964313786106
 30
0.0
 10
10.92810634500902
 20
-9.394824535688095
 30
0.0
 10
11.10441369100937
 20
-9.487993426413453
 30
0.0
 10
11.29154023900618
 20
-9.54602577724315
 30
0.0
 10
12.15971030140649
 20
-9.815515896038992
 30
0.0
 10
13.0062380750013
 20
-9.755258399219814
 30
0.0
 10
13.83319513590046
 20
-9.370816636963525
 30
0.0
 10
14.30817364279766
 20
-9.15013610951978
 30
0.0
 10
14.73875748699617
 20
-8.866971968859673
 30
0.0
 10
15.13019796339683
 20
-8.521642508870524
 30
0.0
 10
15.13592611899608
 20
-8.516712835244018
 30
0.0
 10
15.14356365979508
 20
-8.513692924943683
 30
0.0
 10
15.167431945995
 20
-8.499859756135308
 30
0.0
 10
15.23951463649621
 20
-8.657261906051387
 30
0.0
 10
15.32528060679375
 20
-8.807031795520048
 30
0.0
 10
15.37747305879506
 20
-8.967773120032449
 30
0.0
 10
15.44653239419597
 20
-9.18050309314088
 30
0.0
 10
15.48933622629602
 20
-9.401820208360036
 30
0.0
 10
15.54327781499359
 20
-9.619479855095163
 30
0.0
 10
15.55600737339291
 20
-9.671152150620049
 30
0.0
 10
15.53739038209376
 20
-9.70708442523504
 30
0.0
 10
15.49490510459481
 20
-9.741267053875868
 30
0.0
 10
14.95484530999639
 20
-10.17372461358149
 30
0.0
 10
14.35304613739792
 20
-10.47453659766142
 30
0.0
 10
13.66898121030044
 20
-10.60077602923707
 30
0.0
 10
13.25383172500044
 20
-10.67725098779763
 30
0.0
 10
12.83247722340279
 20
-10.69791971192581
 30
0.0
 10
12.42082892510428
 20
-10.61317784595892
 30
0.0
  0
HATCH
  5
52
330
43
100
AcDbEntity
  8
Layer 1
 62
   254
420
 15721183
100
AcDbHatch
 10
0.0
 20
0.0
 30
0.0
210
0.0
220
0.0
230
1.0
  2
SOLID
 70
     1
 71
     0
 91
        1
 92
        1
 93
        1
 72
     4
 94
        3
 73
     0
 74
     1
 95
       38
 96
       34
 40
0.0
 40
0.0
 40
0.0
 40
0.0
 40
1.0
 40
1.0
 40
1.0
 40
2.0
 40
2.0
 40
2.0
 40
3.0
 40
3.0
 40
3.0
 40
4.0
 40
4.0
 40
4.0
 40
5.0
 40
5.0
 40
5.0
 40
6.0
 40
6.0
 40
6.0
 40
7.0
 40
7.0
 40
7.0
 40
8.0
 40
8.0
 40
8.0
 40
9.0
 40
9.0
 40
9.0
 40
10.0
 40
10.0
 40
10.0
 40
11.0
 40
11.0
 40
11.0
 40
11.0
 10
12.42082892510428
 20
-10.61317784595892
 10
12.20410496410519
 20
-10.56850122310598
 10
11.99597323650495
 20
-10.45243652144658
 10
11.80057203850711
 20
-10.33987111173539
 10
11.36425906750639
 20
-10.0885053067829
 10
11.0207154120092
 20
-9.734907968979273
 10
10.74225207301
 20
-9.315964313786106
 10
10.92810634500902
 20
-9.394824535688095
 10
11.10441369100937
 20
-9.487993426413453
 10
11.29154023900618
 20
-9.54602577724315
 10
12.15971030140649
 20
-9.815515896038992
 10
13.0062380750013
 20
-9.755258399219814
 10
13.83319513590046
 20
-9.370816636963525
 10
14.30817364279766
 20
-9.15013610951978
 10
14.73875748699617
 20
-8.866971968859673
 10
15.13019796339683
 20
-8.521642508870524
 10
15.13592611899608
 20
-8.516712835244018
 10
15.14356365979508
 20
-8.513692924943683
 10
15.167431945995
 20
-8.499859756135308
 10
15.23951463649621
 20
-8.657261906051387
 10
15.32528060679375
 20
-8.807031795520048
 10
15.37747305879506
 20
-8.967773120032449
 10
15.44653239419597
 20
-9.18050309314088
 10
15.48933622629602
 20
-9.401820208360036
 10
15.54327781499359
 20
-9.619479855095163
 10
15.55600737339291
 20
-9.671152150620049
 10
15.53739038209376
 20
-9.70708442523504
 10
15.49490510459481
 20
-9.741267053875868
 10
14.95484530999639
 20
-10.17372461358149
 10
14.35304613739792
 20
-10.47453659766142
 10
13.66898121030044
 20
-10.60077602923707
 10
13.25383172500044
 20
-10.67725098779763
 10
12.83247722340279
 20
-10.69791971192581
 10
12.42082892510428
 20
-10.61317784595892
 97
        0
 97
        0
 75
     2
 76
     1
 98
        0
  0
SPLINE
  5
53
330
43
100
AcDbEntity
  8
Layer 1
370
     0
100
AcDbSpline
210
0.0
220
0.0
230
1.0
 70
    11
 71
     3
 72
    20
 73
    16
 74
     0
 42
0.0000000001
 43
0.0000000001
 12
1.0
 22
0.0
 32
0.0
 13
1.0
 23
0.0
 33
0.0
 40
0.0
 40
0.0
 40
0.0
 40
0.0
 40
1.0
 40
1.0
 40
1.0
 40
2.0
 40
2.0
 40
2.0
 40
3.0
 40
3.0
 40
3.0
 40
4.0
 40
4.0
 40
4.0
 40
5.0
 40
5.0
 40
5.0
 40
5.0
 10
15.55791772979575
 20
-10.31697627120957
 30
0.0
 10
15.52545623899389
 20
-10.47867053656866
 30
0.0
 10
15.43984857479391
 20
-10.51984980828971
 30
0.0
 10
15.37970099859553
 20
-10.55514549512916
 30
0.0
 10
14.81815916369547
 20
-10.82209217404788
 30
0.0
 10
14.22797655079911
 20
-10.93974640432943
 30
0.0
 10
13.60851507950133
 20
-10.91287677184016
 30
0.0
 10
13.42695643860021
 20
-10.90492718791326
 30
0.0
 10
13.06304471270149
 20
-10.84514616151761
 30
0.0
 10
13.06304471270149
 20
-10.84514616151761
 30
0.0
 10
13.98547491840029
 20
-10.79617742322173
 30
0.0
 10
14.8172044710955
 20
-10.50045231889572
 30
0.0
 10
15.57048801089461
 20
-9.917906575833799
 30
0.0
 10
15.56491913259575
 20
-10.03222163151903
 30
0.0
 10
15.56666924049517
 20
-10.27309441266787
 30
0.0
 10
15.55791772979575
 20
-10.31697627120957
 30
0.0
  0
HATCH
  5
54
330
43
100
AcDbEntity
  8
Layer 1
 62
   254
420
 15721183
100
AcDbHatch
 10
0.0
 20
0.0
 30
0.0
210
0.0
220
0.0
230
1.0
  2
SOLID
 70
     1
 71
     0
 91
        1
 92
        1
 93
        1
 72
     4
 94
        3
 73
     0
 74
     1
 95
       20
 96
       16
 40
0.0
 40
0.0
 40
0.0
 40
0.0
 40
1.0
 40
1.0
 40
1.0
 40
2.0
 40
2.0
 40
2.0
 40
3.0
 40
3.0
 40
3.0
 40
4.0
 40
4.0
 40
4.0
 40
5.0
 40
5.0
 40
5.0
 40
5.0
 10
15.55791772979575
 20
-10.31697627120957
 10
15.52545623899389
 20
-10.47867053656866
 10
15.43984857479391
 20
-10.51984980828971
 10
15.37970099859553
 20
-10.55514549512916
 10
14.81815916369547
 20
-10.82209217404788
 10
14.22797655079911
 20
-10.93974640432943
 10
13.60851507950133
 20
-10.91287677184016
 10
13.42695643860021
 20
-10.90492718791326
 10
13.06304471270149
 20
-10.84514616151761
 10
13.06304471270149
 20
-10.84514616151761
 10
13.98547491840029
 20
-10.79617742322173
 10
14.8172044710955
 20
-10.50045231889572
 10
15.57048801089461
 20
-9.917906575833799
 10
15.56491913259575
 20
-10.03222163151903
 10
15.56666924049517
 20
-10.27309441266787
 10
15.55791772979575
 20
-10.31697627120957
 97
        0
 97
        0
 75
     2
 76
     1
 98
        0
  0
SPLINE
  5
55
330
43
100
AcDbEntity
  8
Layer 1
370
     0
100
AcDbSpline
210
0.0
220
0.0
230
1.0
 70
    11
 71
     3
 72
    44
 73
    40
 74
     0
 42
0.0000000001
 43
0.0000000001
 12
1.0
 22
0.0
 32
0.0
 13
1.0
 23
0.0
 33
0.0
 40
0.0
 40
0.0
 40
0.0
 40
0.0
 40
1.0
 40
1.0
 40
1.0
 40
2.0
 40
2.0
 40
2.0
 40
3.0
 40
3.0
 40
3.0
 40
4.0
 40
4.0
 40
4.0
 40
5.0
 40
5.0
 40
5.0
 40
6.0
 40
6.0
 40
6.0
 40
7.0
 40
7.0
 40
7.0
 40
8.0
 40
8.0
 40
8.0
 40
9.0
 40
9.0
 40
9.0
 40
10.0
 40
10.0
 40
10.0
 40
11.0
 40
11.0
 40
11.0
 40
12.0
 40
12.0
 40
12.0
 40
13.0
 40
13.0
 40
13.0
 40
13.0
 10
16.82357303639069
 20
-9.192110145551812
 30
0.0
 10
16.82341375909017
 20
-9.226929361968052
 30
0.0
 10
16.81211575398917
 20
-9.266358987714872
 30
0.0
 10
16.79318020808904
 20
-9.29529558965773
 30
0.0
 10
16.52537873619217
 20
-9.703904397582763
 30
0.0
 10
16.17992472429208
 20
-10.0363555704264
 30
0.0
 10
15.7818013996924
 20
-10.31618150689853
 30
0.0
 10
15.77320916629356
 20
-10.32222326831576
 30
0.0
 10
15.76382151759514
 20
-10.32746929501347
 30
0.0
 10
15.75411434309291
 20
-10.3317623808647
 30
0.0
 10
15.74997701809243
 20
-10.33367020337443
 30
0.0
 10
15.7444081397937
 20
-10.3320806747524
 30
0.0
 10
15.73645204439379
 20
-10.3320806747524
 30
0.0
 10
15.73645204439379
 20
-10.21140556376223
 30
0.0
 10
15.73883926149498
 20
-10.09073045277226
 30
0.0
 10
15.73613348979275
 20
-9.97021545913416
 30
0.0
 10
15.72053985359378
 20
-9.273036366499108
 30
0.0
 10
15.52450154639405
 20
-8.63659318192314
 30
0.0
 10
15.08675702209495
 20
-8.085527480681003
 30
0.0
 10
14.79285932419729
 20
-7.715395357656303
 30
0.0
 10
14.42719749039947
 20
-7.436841626326907
 30
0.0
 10
13.98229228599959
 20
-7.271013422060324
 30
0.0
 10
13.88045387639881
 20
-7.233173324935726
 30
0.0
 10
13.8373324609008
 20
-7.178639295646076
 30
0.0
 10
13.82173785349887
 20
-7.0702068544341
 30
0.0
 10
13.75395176529859
 20
-6.596730140359565
 30
0.0
 10
13.81219092750006
 20
-6.142808121806434
 30
0.0
 10
14.00234180180014
 20
-5.70430977109199
 30
0.0
 10
14.02859633389816
 20
-5.643733980385139
 30
0.0
 10
14.05421569920053
 20
-5.621474757226644
 30
0.0
 10
14.12518344859823
 20
-5.646277420262196
 30
0.0
 10
14.94688921459635
 20
-5.934052940661232
 30
0.0
 10
15.66070986079347
 20
-6.38129563961366
 30
0.0
 10
16.21572715359193
 20
-7.059872977573925
 30
0.0
 10
16.58091212669142
 20
-7.506320912215275
 30
0.0
 10
16.7974768103901
 20
-8.015412577425378
 30
0.0
 10
16.81959498869067
 20
-8.59732173271189
 30
0.0
 10
16.82707325218928
 20
-8.795425713517332
 30
0.0
 10
16.82500458968901
 20
-8.993847017802453
 30
0.0
 10
16.82357303639069
 20
-9.192110145551812
 30
0.0
  0
HATCH
  5
56
330
43
100
AcDbEntity
  8
Layer 1
 62
   254
420
 15721183
100
AcDbHatch
 10
0.0
 20
0.0
 30
0.0
210
0.0
220
0.0
230
1.0
  2
SOLID
 70
     1
 71
     0
 91
        1
 92
        1
 93
        1
 72
     4
 94
        3
 73
     0
 74
     1
 95
       44
 96
       40
 40
0.0
 40
0.0
 40
0.0
 40
0.0
 40
1.0
 40
1.0
 40
1.0
 40
2.0
 40
2.0
 40
2.0
 40
3.0
 40
3.0
 40
3.0
 40
4.0
 40
4.0
 40
4.0
 40
5.0
 40
5.0
 40
5.0
 40
6.0
 40
6.0
 40
6.0
 40
7.0
 40
7.0
 40
7.0
 40
8.0
 40
8.0
 40
8.0
 40
9.0
 40
9.0
 40
9.0
 40
10.0
 40
10.0
 40
10.0
 40
11.0
 40
11.0
 40
11.0
 40
12.0
 40
12.0
 40
12.0
 40
13.0
 40
13.0
 40
13.0
 40
13.0
 10
16.82357303639069
 20
-9.192110145551812
 10
16.82341375909017
 20
-9.226929361968052
 10
16.81211575398917
 20
-9.266358987714872
 10
16.79318020808904
 20
-9.29529558965773
 10
16.52537873619217
 20
-9.703904397582763
 10
16.17992472429208
 20
-10.0363555704264
 10
15.7818013996924
 20
-10.31618150689853
 10
15.77320916629356
 20
-10.32222326831576
 10
15.76382151759514
 20
-10.32746929501347
 10
15.75411434309291
 20
-10.3317623808647
 10
15.74997701809243
 20
-10.33367020337443
 10
15.7444081397937
 20
-10.3320806747524
 10
15.73645204439379
 20
-10.3320806747524
 10
15.73645204439379
 20
-10.21140556376223
 10
15.73883926149498
 20
-10.09073045277226
 10
15.73613348979275
 20
-9.97021545913416
 10
15.72053985359378
 20
-9.273036366499108
 10
15.52450154639405
 20
-8.63659318192314
 10
15.08675702209495
 20
-8.085527480681003
 10
14.79285932419729
 20
-7.715395357656303
 10
14.42719749039947
 20
-7.436841626326907
 10
13.98229228599959
 20
-7.271013422060324
 10
13.88045387639881
 20
-7.233173324935726
 10
13.8373324609008
 20
-7.178639295646076
 10
13.82173785349887
 20
-7.0702068544341
 10
13.75395176529859
 20
-6.596730140359565
 10
13.81219092750006
 20
-6.142808121806434
 10
14.00234180180014
 20
-5.70430977109199
 10
14.02859633389816
 20
-5.643733980385139
 10
14.05421569920053
 20
-5.621474757226644
 10
14.12518344859823
 20
-5.646277420262196
 10
14.94688921459635
 20
-5.934052940661232
 10
15.66070986079347
 20
-6.38129563961366
 10
16.21572715359193
 20
-7.059872977573925
 10
16.58091212669142
 20
-7.506320912215275
 10
16.7974768103901
 20
-8.015412577425378
 10
16.81959498869067
 20
-8.59732173271189
 10
16.82707325218928
 20
-8.795425713517332
 10
16.82500458968901
 20
-8.993847017802453
 10
16.82357303639069
 20
-9.192110145551812
 97
        0
 97
        0
 75
     2
 76
     1
 98
        0
  0
SPLINE
  5
57
330
43
100
AcDbEntity
  8
Layer 1
370
     0
100
AcDbSpline
210
0.0
220
0.0
230
1.0
 70
    11
 71
     3
 72
    41
 73
    37
 74
     0
 42
0.0000000001
 43
0.0000000001
 12
1.0
 22
0.0
 32
0.0
 13
1.0
 23
0.0
 33
0.0
 40
0.0
 40
0.0
 40
0.0
 40
0.0
 40
1.0
 40
1.0
 40
1.0
 40
2.0
 40
2.0
 40
2.0
 40
3.0
 40
3.0
 40
3.0
 40
4.0
 40
4.0
 40
4.0
 40
5.0
 40
5.0
 40
5.0
 40
6.0
 40
6.0
 40
6.0
 40
7.0
 40
7.0
 40
7.0
 40
8.0
 40
8.0
 40
8.0
 40
9.0
 40
9.0
 40
9.0
 40
10.0
 40
10.0
 40
10.0
 40
11.0
 40
11.0
 40
11.0
 40
12.0
 40
12.0
 40
12.0
 40
12.0
 10
17.40309475338807
 20
-7.451786882925754
 30
0.0
 10
17.3870232852876
 20
-7.936393208579537
 30
0.0
 10
17.26131756068973
 20
-8.395403077294873
 30
0.0
 10
17.05382197108855
 20
-8.832788369810563
 30
0.0
 10
17.04936706269012
 20
-8.841851011936223
 30
0.0
 10
17.04316107518943
 20
-8.850118889750833
 30
0.0
 10
17.02486263849126
 20
-8.880168549892508
 30
0.0
 10
17.02454408389028
 20
-8.51893895164146
 30
0.0
 10
16.97235163188904
 20
-8.189349512562398
 30
0.0
 10
16.85460200269127
 20
-7.871366155486052
 30
0.0
 10
16.57375144659083
 20
-7.112975654777116
 30
0.0
 10
16.07315357439118
 20
-6.529794294348062
 30
0.0
 10
15.41423018069482
 20
-6.074124570637138
 30
0.0
 10
15.05031845479616
 20
-5.822440471796883
 30
0.0
 10
14.6502857449966
 20
-5.645164362063412
 30
0.0
 10
14.23227315309998
 20
-5.505411025975373
 30
0.0
 10
14.19742541640003
 20
-5.493645797028739
 30
0.0
 10
14.16353237229986
 20
-5.479336157797054
 30
0.0
 10
14.11627266059841
 20
-5.461370020489687
 30
0.0
 10
14.15366689170013
 20
-5.400953376726816
 30
0.0
 10
14.18628668859935
 20
-5.344828848406856
 30
0.0
 10
14.22208911789928
 20
-5.29093140689265
 30
0.0
 10
14.40985277509805
 20
-5.007767266232414
 30
0.0
 10
14.64360289679758
 20
-4.768643160649711
 30
0.0
 10
14.91411014039667
 20
-4.563703624524142
 30
0.0
 10
14.95770938779599
 20
-4.530792230617736
 30
0.0
 10
14.99255712449606
 20
-4.526658291710429
 30
0.0
 10
15.04315777469557
 20
-4.54557834027289
 30
0.0
 10
15.5776486909952
 20
-4.744317938445622
 30
0.0
 10
16.04037450019163
 20
-5.054510858538979
 30
0.0
 10
16.44836330539103
 20
-5.448332586400576
 30
0.0
 10
16.78442869738962
 20
-5.772835145725618
 30
0.0
 10
17.0578000187885
 20
-6.142331651383028
 30
0.0
 10
17.25479301858813
 20
-6.568906596615395
 30
0.0
 10
17.38559173198929
 20
-6.85222988421942
 30
0.0
 10
17.41311951128826
 20
-7.14906707633596
 30
0.0
 10
17.40309475338807
 20
-7.451786882925754
 30
0.0
  0
HATCH
  5
58
330
43
100
AcDbEntity
  8
Layer 1
 62
   254
420
 15721183
100
AcDbHatch
 10
0.0
 20
0.0
 30
0.0
210
0.0
220
0.0
230
1.0
  2
SOLID
 70
     1
 71
     0
 91
        1
 92
        1
 93
        1
 72
     4
 94
        3
 73
     0
 74
     1
 95
       41
 96
       37
 40
0.0
 40
0.0
 40
0.0
 40
0.0
 40
1.0
 40
1.0
 40
1.0
 40
2.0
 40
2.0
 40
2.0
 40
3.0
 40
3.0
 40
3.0
 40
4.0
 40
4.0
 40
4.0
 40
5.0
 40
5.0
 40
5.0
 40
6.0
 40
6.0
 40
6.0
 40
7.0
 40
7.0
 40
7.0
 40
8.0
 40
8.0
 40
8.0
 40
9.0
 40
9.0
 40
9.0
 40
10.0
 40
10.0
 40
10.0
 40
11.0
 40
11.0
 40
11.0
 40
12.0
 40
12.0
 40
12.0
 40
12.0
 10
17.40309475338807
 20
-7.451786882925754
 10
17.3870232852876
 20
-7.936393208579537
 10
17.26131756068973
 20
-8.395403077294873
 10
17.05382197108855
 20
-8.832788369810563
 10
17.04936706269012
 20
-8.841851011936223
 10
17.04316107518943
 20
-8.850118889750833
 10
17.02486263849126
 20
-8.880168549892508
 10
17.02454408389028
 20
-8.51893895164146
 10
16.97235163188904
 20
-8.189349512562398
 10
16.85460200269127
 20
-7.871366155486052
 10
16.57375144659083
 20
-7.112975654777116
 10
16.07315357439118
 20
-6.529794294348062
 10
15.41423018069482
 20
-6.074124570637138
 10
15.05031845479616
 20
-5.822440471796883
 10
14.6502857449966
 20
-5.645164362063412
 10
14.23227315309998
 20
-5.505411025975373
 10
14.19742541640003
 20
-5.493645797028739
 10
14.16353237229986
 20
-5.479336157797054
 10
14.11627266059841
 20
-5.461370020489687
 10
14.15366689170013
 20
-5.400953376726816
 10
14.18628668859935
 20
-5.344828848406856
 10
14.22208911789928
 20
-5.29093140689265
 10
14.40985277509805
 20
-5.007767266232414
 10
14.64360289679758
 20
-4.768643160649711
 10
14.91411014039667
 20
-4.563703624524142
 10
14.95770938779599
 20
-4.530792230617736
 10
14.99255712449606
 20
-4.526658291710429
 10
15.04315777469557
 20
-4.54557834027289
 10
15.5776486909952
 20
-4.744317938445622
 10
16.04037450019163
 20
-5.054510858538979
 10
16.44836330539103
 20
-5.448332586400576
 10
16.78442869738962
 20
-5.772835145725618
 10
17.0578000187885
 20
-6.142331651383028
 10
17.25479301858813
 20
-6.568906596615395
 10
17.38559173198929
 20
-6.85222988421942
 10
17.41311951128826
 20
-7.14906707633596
 10
17.40309475338807
 20
-7.451786882925754
 97
        0
 97
        0
 75
     2
 76
     1
 98
        0
  0
ENDBLK
  5
46
330
43
100
AcDbEntity
  8
0
100
AcDbBlockEnd
  0
BLOCK
  5
5B
330
59
100
AcDbEntity
  8
0
100
AcDbBlockBegin
  2
block 3
 70
     0
 10
0.0
 20
0.0
 30
0.0
  3
block 3
  1

  0
SPLINE
  5
5D
330
59
100
AcDbEntity
  8
Layer 1
370
     0
100
AcDbSpline
210
0.0
220
0.0
230
1.0
 70
    11
 71
     3
 72
    95
 73
    91
 74
     0
 42
0.0000000001
 43
0.0000000001
 12
1.0
 22
0.0
 32
0.0
 13
1.0
 23
0.0
 33
0.0
 40
0.0
 40
0.0
 40
0.0
 40
0.0
 40
1.0
 40
1.0
 40
1.0
 40
2.0
 40
2.0
 40
2.0
 40
3.0
 40
3.0
 40
3.0
 40
4.0
 40
4.0
 40
4.0
 40
5.0
 40
5.0
 40
5.0
 40
6.0
 40
6.0
 40
6.0
 40
7.0
 40
7.0
 40
7.0
 40
8.0
 40
8.0
 40
8.0
 40
9.0
 40
9.0
 40
9.0
 40
10.0
 40
10.0
 40
10.0
 40
11.0
 40
11.0
 40
11.0
 40
12.0
 40
12.0
 40
12.0
 40
13.0
 40
13.0
 40
13.0
 40
14.0
 40
14.0
 40
14.0
 40
15.0
 40
15.0
 40
15.0
 40
16.0
 40
16.0
 40
16.0
 40
17.0
 40
17.0
 40
17.0
 40
18.0
 40
18.0
 40
18.0
 40
19.0
 40
19.0
 40
19.0
 40
20.0
 40
20.0
 40
20.0
 40
21.0
 40
21.0
 40
21.0
 40
22.0
 40
22.0
 40
22.0
 40
23.0
 40
23.0
 40
23.0
 40
24.0
 40
24.0
 40
24.0
 40
25.0
 40
25.0
 40
25.0
 40
26.0
 40
26.0
 40
26.0
 40
27.0
 40
27.0
 40
27.0
 40
28.0
 40
28.0
 40
28.0
 40
29.0
 40
29.0
 40
29.0
 40
30.0
 40
30.0
 40
30.0
 40
30.0
 10
9.879698556492723
 20
-3.663483648861911
 30
0.0
 10
9.879698556492723
 20
-3.663483648861911
 30
0.0
 10
9.783330480932774
 20
-3.833340345077901
 30
0.0
 10
9.783330480932774
 20
-3.833340345077901
 30
0.0
 10
9.783330480932774
 20
-3.833340345077901
 30
0.0
 10
9.605754215791679
 20
-4.145887766377173
 30
0.0
 10
9.605754215791679
 20
-4.145887766377173
 30
0.0
 10
9.511103539241986
 20
-4.312885621557808
 30
0.0
 10
9.413021555320249
 20
-4.485601158809152
 30
0.0
 10
9.281195473365802
 20
-4.627719417555716
 30
0.0
 10
9.137934027269937
 20
-4.78270769693398
 30
0.0
 10
8.966932398380413
 20
-4.880217214518964
 30
0.0
 10
8.80022252169245
 20
-4.902522457761854
 30
0.0
 10
8.751610006821982
 20
-4.909098839337691
 30
0.0
 10
8.702425025614826
 20
-4.908812606169315
 30
0.0
 10
8.653528022900247
 20
-4.902522457761854
 30
0.0
 10
8.640087281255996
 20
-4.901091291919975
 30
0.0
 10
8.626648284935916
 20
-4.898804917221373
 30
0.0
 10
8.61320754329173
 20
-4.896230564030192
 30
0.0
 10
8.462509270790667
 20
-4.867348939211498
 30
0.0
 10
8.321249711549232
 20
-4.782135230597228
 30
0.0
 10
8.231459762889385
 20
-4.658030462892087
 30
0.0
 10
8.097633539404677
 20
-4.473305349838405
 30
0.0
 10
8.078759603533957
 20
-4.230530753978893
 30
0.0
 10
8.060744367168267
 20
-3.996048193381302
 30
0.0
 10
8.055883639278484
 20
-3.932279283180594
 30
0.0
 10
8.050736678220293
 20
-3.866796464618003
 30
0.0
 10
8.043587830307738
 20
-3.803029299741497
 30
0.0
 10
8.004412283372725
 20
-3.461314020455121
 30
0.0
 10
7.888601296253643
 20
-3.125604401732032
 30
0.0
 10
7.70902139893395
 20
-2.83192917097931
 30
0.0
 10
7.70902139893395
 20
-2.83192917097931
 30
0.0
 10
7.645540467225852
 20
-2.870818484745947
 30
0.0
 10
7.645540467225852
 20
-2.870818484745947
 30
0.0
 10
7.798525114425453
 20
-3.120457440673873
 30
0.0
 10
7.9034697130914
 20
-3.401548883963271
 30
0.0
 10
7.952368461130214
 20
-3.690363386826209
 30
0.0
 10
7.363304091262919
 20
-3.250566123618066
 30
0.0
 10
7.332420579589731
 20
-2.820492061513691
 30
0.0
 10
7.348147695932584
 20
-2.651492319478627
 30
0.0
 10
7.366449165466681
 20
-2.45103834475789
 30
0.0
 10
7.471679997300972
 20
-2.284328468069833
 30
0.0
 10
7.622378269801971
 20
-2.216555784160267
 30
0.0
 10
8.065320607213877
 20
-2.017532975281409
 30
0.0
 10
9.245451233802894
 20
-1.89857516863446
 30
0.0
 10
9.985500109339597
 20
-2.515664209139524
 30
0.0
 10
9.985213876171189
 20
-2.517952329162328
 30
0.0
 10
9.984929388327014
 20
-2.519954216016757
 30
0.0
 10
9.984356921990264
 20
-2.522526823883736
 30
0.0
 10
9.961480957734855
 20
-2.657211746873538
 30
0.0
 10
9.961767190903263
 20
-2.778742161387466
 30
0.0
 10
9.984643155158672
 20
-2.887118067425551
 30
0.0
 10
9.968343572479066
 20
-2.886831834257176
 30
0.0
 10
9.952330222967806
 20
-2.886547346413002
 30
0.0
 10
9.93631687345661
 20
-2.88597488007625
 30
0.0
 10
9.493945257057286
 20
-2.869102831059894
 30
0.0
 10
9.053577272836625
 20
-2.799330005620102
 30
0.0
 10
8.627505239116841
 20
-2.678085824274549
 30
0.0
 10
8.627505239116841
 20
-2.678085824274549
 30
0.0
 10
8.607203628052613
 20
-2.749574303400395
 30
0.0
 10
8.607203628052613
 20
-2.749574303400395
 30
0.0
 10
8.748178699449875
 20
-2.789608549840535
 30
0.0
 10
8.89086942453316
 20
-2.824207856729971
 30
0.0
 10
9.03470333696584
 20
-2.853375714717042
 30
0.0
 10
9.318370878770557
 20
-2.910280264849368
 30
0.0
 10
9.606324936804262
 20
-2.945453783399725
 30
0.0
 10
9.895425672835511
 20
-2.958320313383021
 30
0.0
 10
9.412449088983498
 20
-3.133039482812964
 30
0.0
 10
9.005821712147146
 20
-3.498487680535705
 30
0.0
 10
8.791928741106329
 20
-3.958015833795559
 30
0.0
 10
8.791928741106329
 20
-3.958015833795559
 30
0.0
 10
8.859413446523348
 20
-3.989470066481264
 30
0.0
 10
8.859413446523348
 20
-3.989470066481264
 30
0.0
 10
9.077310191272959
 20
-3.521079156946972
 30
0.0
 10
9.503668458161087
 20
-3.154199793382351
 30
0.0
 10
10.00523099939131
 20
-3.000070213509215
 30
0.0
 10
10.00894853993176
 20
-2.998640792991537
 30
0.0
 10
10.01295231364061
 20
-2.997497605642236
 30
0.0
 10
10.01695608734947
 20
-2.996352672968733
 30
0.0
 10
10.04068900578587
 20
-3.056974763641541
 30
0.0
 10
10.0727174501325
 20
-3.112736126424534
 30
0.0
 10
10.11332241758519
 20
-3.163350528149368
 30
0.0
 10
10.13476896132292
 20
-3.190230266113666
 30
0.0
 10
10.15850362508349
 20
-3.215678838236053
 30
0.0
 10
10.184810896711
 20
-3.239699735164997
 30
0.0
 10
10.19424786464639
 20
-3.248278003595261
 30
0.0
 10
10.20396932042596
 20
-3.256571784181352
 30
0.0
 10
10.21397700937393
 20
-3.264863819443242
 30
0.0
 10
10.05412974743006
 20
-3.356940142801691
 30
0.0
 10
9.954332109822236
 20
-3.531943800075839
 30
0.0
 10
9.879698556492723
 20
-3.663483648861911
 30
0.0
  0
HATCH
  5
5E
330
59
100
AcDbEntity
  8
Layer 1
 62
   223
420
 15686587
100
AcDbHatch
 10
0.0
 20
0.0
 30
0.0
210
0.0
220
0.0
230
1.0
  2
SOLID
 70
     1
 71
     0
 91
        1
 92
        1
 93
        1
 72
     4
 94
        3
 73
     0
 74
     1
 95
       95
 96
       91
 40
0.0
 40
0.0
 40
0.0
 40
0.0
 40
1.0
 40
1.0
 40
1.0
 40
2.0
 40
2.0
 40
2.0
 40
3.0
 40
3.0
 40
3.0
 40
4.0
 40
4.0
 40
4.0
 40
5.0
 40
5.0
 40
5.0
 40
6.0
 40
6.0
 40
6.0
 40
7.0
 40
7.0
 40
7.0
 40
8.0
 40
8.0
 40
8.0
 40
9.0
 40
9.0
 40
9.0
 40
10.0
 40
10.0
 40
10.0
 40
11.0
 40
11.0
 40
11.0
 40
12.0
 40
12.0
 40
12.0
 40
13.0
 40
13.0
 40
13.0
 40
14.0
 40
14.0
 40
14.0
 40
15.0
 40
15.0
 40
15.0
 40
16.0
 40
16.0
 40
16.0
 40
17.0
 40
17.0
 40
17.0
 40
18.0
 40
18.0
 40
18.0
 40
19.0
 40
19.0
 40
19.0
 40
20.0
 40
20.0
 40
20.0
 40
21.0
 40
21.0
 40
21.0
 40
22.0
 40
22.0
 40
22.0
 40
23.0
 40
23.0
 40
23.0
 40
24.0
 40
24.0
 40
24.0
 40
25.0
 40
25.0
 40
25.0
 40
26.0
 40
26.0
 40
26.0
 40
27.0
 40
27.0
 40
27.0
 40
28.0
 40
28.0
 40
28.0
 40
29.0
 40
29.0
 40
29.0
 40
30.0
 40
30.0
 40
30.0
 40
30.0
 10
9.879698556492723
 20
-3.663483648861911
 10
9.879698556492723
 20
-3.663483648861911
 10
9.783330480932774
 20
-3.833340345077901
 10
9.783330480932774
 20
-3.833340345077901
 10
9.783330480932774
 20
-3.833340345077901
 10
9.605754215791679
 20
-4.145887766377173
 10
9.605754215791679
 20
-4.145887766377173
 10
9.511103539241986
 20
-4.312885621557808
 10
9.413021555320249
 20
-4.485601158809152
 10
9.281195473365802
 20
-4.627719417555716
 10
9.137934027269937
 20
-4.78270769693398
 10
8.966932398380413
 20
-4.880217214518964
 10
8.80022252169245
 20
-4.902522457761854
 10
8.751610006821982
 20
-4.909098839337691
 10
8.702425025614826
 20
-4.908812606169315
 10
8.653528022900247
 20
-4.902522457761854
 10
8.640087281255996
 20
-4.901091291919975
 10
8.626648284935916
 20
-4.898804917221373
 10
8.61320754329173
 20
-4.896230564030192
 10
8.462509270790667
 20
-4.867348939211498
 10
8.321249711549232
 20
-4.782135230597228
 10
8.231459762889385
 20
-4.658030462892087
 10
8.097633539404677
 20
-4.473305349838405
 10
8.078759603533957
 20
-4.230530753978893
 10
8.060744367168267
 20
-3.996048193381302
 10
8.055883639278484
 20
-3.932279283180594
 10
8.050736678220293
 20
-3.866796464618003
 10
8.043587830307738
 20
-3.803029299741497
 10
8.004412283372725
 20
-3.461314020455121
 10
7.888601296253643
 20
-3.125604401732032
 10
7.70902139893395
 20
-2.83192917097931
 10
7.70902139893395
 20
-2.83192917097931
 10
7.645540467225852
 20
-2.870818484745947
 10
7.645540467225852
 20
-2.870818484745947
 10
7.798525114425453
 20
-3.120457440673873
 10
7.9034697130914
 20
-3.401548883963271
 10
7.952368461130214
 20
-3.690363386826209
 10
7.363304091262919
 20
-3.250566123618066
 10
7.332420579589731
 20
-2.820492061513691
 10
7.348147695932584
 20
-2.651492319478627
 10
7.366449165466681
 20
-2.45103834475789
 10
7.471679997300972
 20
-2.284328468069833
 10
7.622378269801971
 20
-2.216555784160267
 10
8.065320607213877
 20
-2.017532975281409
 10
9.245451233802894
 20
-1.89857516863446
 10
9.985500109339597
 20
-2.515664209139524
 10
9.985213876171189
 20
-2.517952329162328
 10
9.984929388327014
 20
-2.519954216016757
 10
9.984356921990264
 20
-2.522526823883736
 10
9.961480957734855
 20
-2.657211746873538
 10
9.961767190903263
 20
-2.778742161387466
 10
9.984643155158672
 20
-2.887118067425551
 10
9.968343572479066
 20
-2.886831834257176
 10
9.952330222967806
 20
-2.886547346413002
 10
9.93631687345661
 20
-2.88597488007625
 10
9.493945257057286
 20
-2.869102831059894
 10
9.053577272836625
 20
-2.799330005620102
 10
8.627505239116841
 20
-2.678085824274549
 10
8.627505239116841
 20
-2.678085824274549
 10
8.607203628052613
 20
-2.749574303400395
 10
8.607203628052613
 20
-2.749574303400395
 10
8.748178699449875
 20
-2.789608549840535
 10
8.89086942453316
 20
-2.824207856729971
 10
9.03470333696584
 20
-2.853375714717042
 10
9.318370878770557
 20
-2.910280264849368
 10
9.606324936804262
 20
-2.945453783399725
 10
9.895425672835511
 20
-2.958320313383021
 10
9.412449088983498
 20
-3.133039482812964
 10
9.005821712147146
 20
-3.498487680535705
 10
8.791928741106329
 20
-3.958015833795559
 10
8.791928741106329
 20
-3.958015833795559
 10
8.859413446523348
 20
-3.989470066481264
 10
8.859413446523348
 20
-3.989470066481264
 10
9.077310191272959
 20
-3.521079156946972
 10
9.503668458161087
 20
-3.154199793382351
 10
10.00523099939131
 20
-3.000070213509215
 10
10.00894853993176
 20
-2.998640792991537
 10
10.01295231364061
 20
-2.997497605642236
 10
10.01695608734947
 20
-2.996352672968733
 10
10.04068900578587
 20
-3.056974763641541
 10
10.0727174501325
 20
-3.112736126424534
 10
10.11332241758519
 20
-3.163350528149368
 10
10.13476896132292
 20
-3.190230266113666
 10
10.15850362508349
 20
-3.215678838236053
 10
10.184810896711
 20
-3.239699735164997
 10
10.19424786464639
 20
-3.248278003595261
 10
10.20396932042596
 20
-3.256571784181352
 10
10.21397700937393
 20
-3.264863819443242
 10
10.05412974743006
 20
-3.356940142801691
 10
9.954332109822236
 20
-3.531943800075839
 10
9.879698556492723
 20
-3.663483648861911
 97
        0
 97
        0
 75
     2
 76
     1
 98
        0
  0
SPLINE
  5
5F
330
59
100
AcDbEntity
  8
Layer 1
370
     0
100
AcDbSpline
210
0.0
220
0.0
230
1.0
 70
    11
 71
     3
 72
    50
 73
    46
 74
     0
 42
0.0000000001
 43
0.0000000001
 12
1.0
 22
0.0
 32
0.0
 13
1.0
 23
0.0
 33
0.0
 40
0.0
 40
0.0
 40
0.0
 40
0.0
 40
1.0
 40
1.0
 40
1.0
 40
2.0
 40
2.0
 40
2.0
 40
3.0
 40
3.0
 40
3.0
 40
4.0
 40
4.0
 40
4.0
 40
5.0
 40
5.0
 40
5.0
 40
6.0
 40
6.0
 40
6.0
 40
7.0
 40
7.0
 40
7.0
 40
8.0
 40
8.0
 40
8.0
 40
9.0
 40
9.0
 40
9.0
 40
10.0
 40
10.0
 40
10.0
 40
11.0
 40
11.0
 40
11.0
 40
12.0
 40
12.0
 40
12.0
 40
13.0
 40
13.0
 40
13.0
 40
14.0
 40
14.0
 40
14.0
 40
15.0
 40
15.0
 40
15.0
 40
15.0
 10
10.96117473282319
 20
-2.944022617557846
 30
0.0
 10
10.91914034485276
 20
-3.11302235959291
 30
0.0
 10
10.84164620516366
 20
-3.22425885199052
 30
0.0
 10
10.73041145809025
 20
-3.274585275222808
 30
0.0
 10
10.71182375538787
 20
-3.282879055808867
 30
0.0
 10
10.69294981951709
 20
-3.289455437384703
 30
0.0
 10
10.67379139580213
 20
-3.294316165274486
 30
0.0
 10
10.50936789381264
 20
-3.33549359906396
 30
0.0
 10
10.33407800337015
 20
-3.255140618339473
 30
0.0
 10
10.30519637855146
 20
-3.241129155682674
 30
0.0
 10
10.30519637855146
 20
-3.241129155682674
 30
0.0
 10
10.30519637855146
 20
-3.240842922514298
 30
0.0
 10
10.30519637855146
 20
-3.240842922514298
 30
0.0
 10
10.28832607485933
 20
-3.229119579880303
 30
0.0
 10
10.27259895851648
 20
-3.217110004077932
 30
0.0
 10
10.25772879635456
 20
-3.204527961938809
 30
0.0
 10
10.22884717153586
 20
-3.180793298178274
 30
0.0
 10
10.20368308725755
 20
-3.155629213900029
 30
0.0
 10
10.18195031035148
 20
-3.129892663285064
 30
0.0
 10
10.13248084130008
 20
-3.072131158971812
 30
0.0
 10
10.09931095492842
 20
-3.010364135625533
 30
0.0
 10
10.07729194485387
 20
-2.949171323940207
 30
0.0
 10
10.01638362101272
 20
-2.777312740869788
 30
0.0
 10
10.04497901266307
 20
-2.609171698339884
 30
0.0
 10
10.05756105480216
 20
-2.535108866022858
 30
0.0
 10
10.05956294165659
 20
-2.523099290220487
 30
0.0
 10
10.06099236217427
 20
-2.514234788621847
 30
0.0
 10
10.06185106167943
 20
-2.507372173877635
 30
0.0
 10
10.07500382483104
 20
-2.477631849553812
 30
0.0
 10
10.14677853712532
 20
-2.329507930243962
 30
0.0
 10
10.28718288751
 20
-2.269744539076282
 30
0.0
 10
10.37296906246099
 20
-2.233141600008247
 30
0.0
 10
10.46961988054088
 20
-2.236002186367803
 30
0.0
 10
10.57485245769941
 20
-2.277750341169795
 30
0.0
 10
10.58057013977011
 20
-2.281754114878653
 30
0.0
 10
10.58743449983856
 20
-2.28632860960006
 30
0.0
 10
10.59744218878647
 20
-2.292334270163346
 30
0.0
 10
10.65434673891883
 20
-2.327792276557909
 30
0.0
 10
10.77673585293782
 20
-2.404143228897708
 30
0.0
 10
10.86452216941907
 20
-2.534822632854482
 30
0.0
 10
10.91628150381741
 20
-2.611173585194313
 30
0.0
 10
10.95602777176506
 20
-2.705824261743943
 30
0.0
 10
10.96403531918278
 20
-2.821921482031368
 30
0.0
 10
10.96689416021813
 20
-2.860238329461254
 30
0.0
 10
10.96603720603721
 20
-2.900845042238177
 30
0.0
 10
10.96117473282319
 20
-2.944022617557846
 30
0.0
  0
HATCH
  5
60
330
59
100
AcDbEntity
  8
Layer 1
 62
   223
420
 15686587
100
AcDbHatch
 10
0.0
 20
0.0
 30
0.0
210
0.0
220
0.0
230
1.0
  2
SOLID
 70
     1
 71
     0
 91
        1
 92
        1
 93
        1
 72
     4
 94
        3
 73
     0
 74
     1
 95
       50
 96
       46
 40
0.0
 40
0.0
 40
0.0
 40
0.0
 40
1.0
 40
1.0
 40
1.0
 40
2.0
 40
2.0
 40
2.0
 40
3.0
 40
3.0
 40
3.0
 40
4.0
 40
4.0
 40
4.0
 40
5.0
 40
5.0
 40
5.0
 40
6.0
 40
6.0
 40
6.0
 40
7.0
 40
7.0
 40
7.0
 40
8.0
 40
8.0
 40
8.0
 40
9.0
 40
9.0
 40
9.0
 40
10.0
 40
10.0
 40
10.0
 40
11.0
 40
11.0
 40
11.0
 40
12.0
 40
12.0
 40
12.0
 40
13.0
 40
13.0
 40
13.0
 40
14.0
 40
14.0
 40
14.0
 40
15.0
 40
15.0
 40
15.0
 40
15.0
 10
10.96117473282319
 20
-2.944022617557846
 10
10.91914034485276
 20
-3.11302235959291
 10
10.84164620516366
 20
-3.22425885199052
 10
10.73041145809025
 20
-3.274585275222808
 10
10.71182375538787
 20
-3.282879055808867
 10
10.69294981951709
 20
-3.289455437384703
 10
10.67379139580213
 20
-3.294316165274486
 10
10.50936789381264
 20
-3.33549359906396
 10
10.33407800337015
 20
-3.255140618339473
 10
10.30519637855146
 20
-3.241129155682674
 10
10.30519637855146
 20
-3.241129155682674
 10
10.30519637855146
 20
-3.240842922514298
 10
10.30519637855146
 20
-3.240842922514298
 10
10.28832607485933
 20
-3.229119579880303
 10
10.27259895851648
 20
-3.217110004077932
 10
10.25772879635456
 20
-3.204527961938809
 10
10.22884717153586
 20
-3.180793298178274
 10
10.20368308725755
 20
-3.155629213900029
 10
10.18195031035148
 20
-3.129892663285064
 10
10.13248084130008
 20
-3.072131158971812
 10
10.09931095492842
 20
-3.010364135625533
 10
10.07729194485387
 20
-2.949171323940207
 10
10.01638362101272
 20
-2.777312740869788
 10
10.04497901266307
 20
-2.609171698339884
 10
10.05756105480216
 20
-2.535108866022858
 10
10.05956294165659
 20
-2.523099290220487
 10
10.06099236217427
 20
-2.514234788621847
 10
10.06185106167943
 20
-2.507372173877635
 10
10.07500382483104
 20
-2.477631849553812
 10
10.14677853712532
 20
-2.329507930243962
 10
10.28718288751
 20
-2.269744539076282
 10
10.37296906246099
 20
-2.233141600008247
 10
10.46961988054088
 20
-2.236002186367803
 10
10.57485245769941
 20
-2.277750341169795
 10
10.58057013977011
 20
-2.281754114878653
 10
10.58743449983856
 20
-2.28632860960006
 10
10.59744218878647
 20
-2.292334270163346
 10
10.65434673891883
 20
-2.327792276557909
 10
10.77673585293782
 20
-2.404143228897708
 10
10.86452216941907
 20
-2.534822632854482
 10
10.91628150381741
 20
-2.611173585194313
 10
10.95602777176506
 20
-2.705824261743943
 10
10.96403531918278
 20
-2.821921482031368
 10
10.96689416021813
 20
-2.860238329461254
 10
10.96603720603721
 20
-2.900845042238177
 10
10.96117473282319
 20
-2.944022617557846
 97
        0
 97
        0
 75
     2
 76
     1
 98
        0
  0
SPLINE
  5
61
330
59
100
AcDbEntity
  8
Layer 1
370
     0
100
AcDbSpline
210
0.0
220
0.0
230
1.0
 70
    11
 71
     3
 72
    95
 73
    91
 74
     0
 42
0.0000000001
 43
0.0000000001
 12
1.0
 22
0.0
 32
0.0
 13
1.0
 23
0.0
 33
0.0
 40
0.0
 40
0.0
 40
0.0
 40
0.0
 40
1.0
 40
1.0
 40
1.0
 40
2.0
 40
2.0
 40
2.0
 40
3.0
 40
3.0
 40
3.0
 40
4.0
 40
4.0
 40
4.0
 40
5.0
 40
5.0
 40
5.0
 40
6.0
 40
6.0
 40
6.0
 40
7.0
 40
7.0
 40
7.0
 40
8.0
 40
8.0
 40
8.0
 40
9.0
 40
9.0
 40
9.0
 40
10.0
 40
10.0
 40
10.0
 40
11.0
 40
11.0
 40
11.0
 40
12.0
 40
12.0
 40
12.0
 40
13.0
 40
13.0
 40
13.0
 40
14.0
 40
14.0
 40
14.0
 40
15.0
 40
15.0
 40
15.0
 40
16.0
 40
16.0
 40
16.0
 40
17.0
 40
17.0
 40
17.0
 40
18.0
 40
18.0
 40
18.0
 40
19.0
 40
19.0
 40
19.0
 40
20.0
 40
20.0
 40
20.0
 40
21.0
 40
21.0
 40
21.0
 40
22.0
 40
22.0
 40
22.0
 40
23.0
 40
23.0
 40
23.0
 40
24.0
 40
24.0
 40
24.0
 40
25.0
 40
25.0
 40
25.0
 40
26.0
 40
26.0
 40
26.0
 40
27.0
 40
27.0
 40
27.0
 40
28.0
 40
28.0
 40
28.0
 40
29.0
 40
29.0
 40
29.0
 40
30.0
 40
30.0
 40
30.0
 40
30.0
 10
13.2019109489901
 20
-2.923721006493586
 30
0.0
 10
13.07466110708126
 20
-3.033812566217724
 30
0.0
 10
12.88821859501729
 20
-3.096722776913305
 30
0.0
 10
12.67718446501189
 20
-3.101297271634713
 30
0.0
 10
12.48330861719113
 20
-3.10530104534357
 30
0.0
 10
12.28914479087785
 20
-3.063837378385721
 30
0.0
 10
12.10127285829627
 20
-3.024091110438158
 30
0.0
 10
12.10127285829627
 20
-3.024091110438158
 30
0.0
 10
11.55881911644495
 20
-2.908564611163315
 30
0.0
 10
11.55881911644495
 20
-2.908564611163315
 30
0.0
 10
11.41126766347182
 20
-2.877396611645985
 30
0.0
 10
11.21424499612319
 20
-2.835646711519792
 30
0.0
 10
11.03924133884911
 20
-2.893980682169764
 30
0.0
 10
11.04067075936672
 20
-2.861953983147306
 30
0.0
 10
11.03981205986162
 20
-2.830499750461633
 30
0.0
 10
11.03638075248952
 20
-2.799616238788477
 30
0.0
 10
11.02894567140855
 20
-2.717833837546314
 30
0.0
 10
11.00635594032149
 20
-2.640625931025558
 30
0.0
 10
10.96918228024091
 20
-2.568280497718787
 30
0.0
 10
11.10186531637628
 20
-2.486496351152421
 30
0.0
 10
11.24426980829122
 20
-2.421872232094989
 30
0.0
 10
11.39182126126429
 20
-2.375547837247389
 30
0.0
 10
11.59770843021156
 20
-2.310921972865755
 30
0.0
 10
11.81388952127521
 20
-2.281181648541901
 30
0.0
 10
12.02806872548437
 20
-2.288616729622865
 30
0.0
 10
12.02806872548437
 20
-2.288616729622865
 30
0.0
 10
12.02921365815781
 20
-2.288616729622865
 30
0.0
 10
12.02921365815781
 20
-2.288616729622865
 30
0.0
 10
12.18191207218907
 20
-2.294049923849399
 30
0.0
 10
12.33346904419523
 20
-2.318357053946719
 30
0.0
 10
12.47987730981902
 20
-2.361820862434763
 30
0.0
 10
12.47987730981902
 20
-2.361820862434763
 30
0.0
 10
12.50017892088332
 20
-2.293763690681023
 30
0.0
 10
12.50017892088332
 20
-2.293763690681023
 30
0.0
 10
12.50017892088332
 20
-2.293763690681023
 30
0.0
 10
12.50103762038841
 20
-2.290618616477293
 30
0.0
 10
12.50103762038841
 20
-2.290618616477293
 30
0.0
 10
12.01548668334522
 20
-2.145353538202798
 30
0.0
 10
11.47188975414463
 20
-2.207120561549077
 30
0.0
 10
11.02065363614667
 20
-2.452753998443943
 30
0.0
 10
11.2951704431844
 20
-2.113899305517124
 30
0.0
 10
11.53050995796294
 20
-1.743302401412022
 30
0.0
 10
11.71981131106227
 20
-1.350401999388231
 30
0.0
 10
11.71981131106227
 20
-1.350401999388231
 30
0.0
 10
11.65289732665783
 20
-1.31808906719743
 30
0.0
 10
11.65289732665783
 20
-1.31808906719743
 30
0.0
 10
11.46073713252322
 20
-1.716995129784475
 30
0.0
 10
11.22082137769899
 20
-2.092738994947736
 30
0.0
 10
10.9397281890854
 20
-2.435024995246662
 30
0.0
 10
10.92972050013748
 20
-2.447320804217408
 30
0.0
 10
10.91914034485276
 20
-2.459045892175606
 30
0.0
 10
10.90884642273651
 20
-2.471341701146352
 30
0.0
 10
10.84279113783716
 20
-2.382410451991601
 30
0.0
 10
10.75214248967222
 20
-2.301485004930363
 30
0.0
 10
10.63661773572155
 20
-2.229424059467766
 30
0.0
 10
10.6340433825303
 20
-2.227708405781712
 30
0.0
 10
10.63232772884428
 20
-2.226565218432411
 30
0.0
 10
10.63004135414568
 20
-2.225135797914734
 30
0.0
 10
10.66006616631371
 20
-1.262327704414405
 30
0.0
 10
11.53222561164903
 20
-0.459084130337949
 30
0.0
 10
11.97488171589253
 20
-0.260059576134889
 30
0.0
 10
12.12557998839353
 20
-0.1922886375495252
 30
0.0
 10
12.32002830255098
 20
-0.2243153365719822
 30
0.0
 10
12.48244991768603
 20
-0.3435576310631056
 30
0.0
 10
12.61913672753026
 20
-0.4439277350076781
 30
0.0
 10
12.92024529403975
 20
-0.752473127922295
 30
0.0
 10
12.85819378284926
 20
-1.485086922378033
 30
0.0
 10
12.67461185714488
 20
-1.256610022343696
 30
0.0
 10
12.53392127359179
 20
-0.9915301832413254
 30
0.0
 10
12.4489937981459
 20
-0.7115819273012293
 30
0.0
 10
12.4489937981459
 20
-0.7115819273012293
 30
0.0
 10
12.37779155218843
 20
-0.7333129588831665
 30
0.0
 10
12.37779155218843
 20
-0.7333129588831665
 30
0.0
 10
12.47787542296459
 20
-1.062446196030419
 30
0.0
 10
12.65230661390199
 20
-1.371848543125994
 30
0.0
 10
12.88192844660983
 20
-1.628063880629724
 30
0.0
 10
12.92482153408536
 20
-1.675817695995034
 30
0.0
 10
12.97057346259624
 20
-1.723000790347762
 30
0.0
 10
13.01489597058938
 20
-1.769038952026986
 30
0.0
 10
13.17817628522953
 20
-1.938323181906224
 30
0.0
 10
13.34746051510874
 20
-2.113326839180373
 30
0.0
 10
13.39664549631596
 20
-2.336370544988174
 30
0.0
 10
13.40665318526387
 20
-2.381265519318097
 30
0.0
 10
13.41094319214107
 20
-2.427305426321524
 30
0.0
 10
13.40979825946757
 20
-2.473343588000781
 30
0.0
 10
13.40836883894989
 20
-2.529961904964699
 30
0.0
 10
13.39921810418291
 20
-2.586580221928618
 30
0.0
 10
13.38263403365913
 20
-2.640912164193934
 30
0.0
 10
13.34974863513157
 20
-2.749574303400395
 30
0.0
 10
13.28741089077275
 20
-2.84965817417656
 30
0.0
 10
13.2019109489901
 20
-2.923721006493586
 30
0.0
  0
HATCH
  5
62
330
59
100
AcDbEntity
  8
Layer 1
 62
   223
420
 15686587
100
AcDbHatch
 10
0.0
 20
0.0
 30
0.0
210
0.0
220
0.0
230
1.0
  2
SOLID
 70
     1
 71
     0
 91
        1
 92
        1
 93
        1
 72
     4
 94
        3
 73
     0
 74
     1
 95
       95
 96
       91
 40
0.0
 40
0.0
 40
0.0
 40
0.0
 40
1.0
 40
1.0
 40
1.0
 40
2.0
 40
2.0
 40
2.0
 40
3.0
 40
3.0
 40
3.0
 40
4.0
 40
4.0
 40
4.0
 40
5.0
 40
5.0
 40
5.0
 40
6.0
 40
6.0
 40
6.0
 40
7.0
 40
7.0
 40
7.0
 40
8.0
 40
8.0
 40
8.0
 40
9.0
 40
9.0
 40
9.0
 40
10.0
 40
10.0
 40
10.0
 40
11.0
 40
11.0
 40
11.0
 40
12.0
 40
12.0
 40
12.0
 40
13.0
 40
13.0
 40
13.0
 40
14.0
 40
14.0
 40
14.0
 40
15.0
 40
15.0
 40
15.0
 40
16.0
 40
16.0
 40
16.0
 40
17.0
 40
17.0
 40
17.0
 40
18.0
 40
18.0
 40
18.0
 40
19.0
 40
19.0
 40
19.0
 40
20.0
 40
20.0
 40
20.0
 40
21.0
 40
21.0
 40
21.0
 40
22.0
 40
22.0
 40
22.0
 40
23.0
 40
23.0
 40
23.0
 40
24.0
 40
24.0
 40
24.0
 40
25.0
 40
25.0
 40
25.0
 40
26.0
 40
26.0
 40
26.0
 40
27.0
 40
27.0
 40
27.0
 40
28.0
 40
28.0
 40
28.0
 40
29.0
 40
29.0
 40
29.0
 40
30.0
 40
30.0
 40
30.0
 40
30.0
 10
13.2019109489901
 20
-2.923721006493586
 10
13.07466110708126
 20
-3.033812566217724
 10
12.88821859501729
 20
-3.096722776913305
 10
12.67718446501189
 20
-3.101297271634713
 10
12.48330861719113
 20
-3.10530104534357
 10
12.28914479087785
 20
-3.063837378385721
 10
12.10127285829627
 20
-3.024091110438158
 10
12.10127285829627
 20
-3.024091110438158
 10
11.55881911644495
 20
-2.908564611163315
 10
11.55881911644495
 20
-2.908564611163315
 10
11.41126766347182
 20
-2.877396611645985
 10
11.21424499612319
 20
-2.835646711519792
 10
11.03924133884911
 20
-2.893980682169764
 10
11.04067075936672
 20
-2.861953983147306
 10
11.03981205986162
 20
-2.830499750461633
 10
11.03638075248952
 20
-2.799616238788477
 10
11.02894567140855
 20
-2.717833837546314
 10
11.00635594032149
 20
-2.640625931025558
 10
10.96918228024091
 20
-2.568280497718787
 10
11.10186531637628
 20
-2.486496351152421
 10
11.24426980829122
 20
-2.421872232094989
 10
11.39182126126429
 20
-2.375547837247389
 10
11.59770843021156
 20
-2.310921972865755
 10
11.81388952127521
 20
-2.281181648541901
 10
12.02806872548437
 20
-2.288616729622865
 10
12.02806872548437
 20
-2.288616729622865
 10
12.02921365815781
 20
-2.288616729622865
 10
12.02921365815781
 20
-2.288616729622865
 10
12.18191207218907
 20
-2.294049923849399
 10
12.33346904419523
 20
-2.318357053946719
 10
12.47987730981902
 20
-2.361820862434763
 10
12.47987730981902
 20
-2.361820862434763
 10
12.50017892088332
 20
-2.293763690681023
 10
12.50017892088332
 20
-2.293763690681023
 10
12.50017892088332
 20
-2.293763690681023
 10
12.50103762038841
 20
-2.290618616477293
 10
12.50103762038841
 20
-2.290618616477293
 10
12.01548668334522
 20
-2.145353538202798
 10
11.47188975414463
 20
-2.207120561549077
 10
11.02065363614667
 20
-2.452753998443943
 10
11.2951704431844
 20
-2.113899305517124
 10
11.53050995796294
 20
-1.743302401412022
 10
11.71981131106227
 20
-1.350401999388231
 10
11.71981131106227
 20
-1.350401999388231
 10
11.65289732665783
 20
-1.31808906719743
 10
11.65289732665783
 20
-1.31808906719743
 10
11.46073713252322
 20
-1.716995129784475
 10
11.22082137769899
 20
-2.092738994947736
 10
10.9397281890854
 20
-2.435024995246662
 10
10.92972050013748
 20
-2.447320804217408
 10
10.91914034485276
 20
-2.459045892175606
 10
10.90884642273651
 20
-2.471341701146352
 10
10.84279113783716
 20
-2.382410451991601
 10
10.75214248967222
 20
-2.301485004930363
 10
10.63661773572155
 20
-2.229424059467766
 10
10.6340433825303
 20
-2.227708405781712
 10
10.63232772884428
 20
-2.226565218432411
 10
10.63004135414568
 20
-2.225135797914734
 10
10.66006616631371
 20
-1.262327704414405
 10
11.53222561164903
 20
-0.459084130337949
 10
11.97488171589253
 20
-0.260059576134889
 10
12.12557998839353
 20
-0.1922886375495252
 10
12.32002830255098
 20
-0.2243153365719822
 10
12.48244991768603
 20
-0.3435576310631056
 10
12.61913672753026
 20
-0.4439277350076781
 10
12.92024529403975
 20
-0.752473127922295
 10
12.85819378284926
 20
-1.485086922378033
 10
12.67461185714488
 20
-1.256610022343696
 10
12.53392127359179
 20
-0.9915301832413254
 10
12.4489937981459
 20
-0.7115819273012293
 10
12.4489937981459
 20
-0.7115819273012293
 10
12.37779155218843
 20
-0.7333129588831665
 10
12.37779155218843
 20
-0.7333129588831665
 10
12.47787542296459
 20
-1.062446196030419
 10
12.65230661390199
 20
-1.371848543125994
 10
12.88192844660983
 20
-1.628063880629724
 10
12.92482153408536
 20
-1.675817695995034
 10
12.97057346259624
 20
-1.723000790347762
 10
13.01489597058938
 20
-1.769038952026986
 10
13.17817628522953
 20
-1.938323181906224
 10
13.34746051510874
 20
-2.113326839180373
 10
13.39664549631596
 20
-2.336370544988174
 10
13.40665318526387
 20
-2.381265519318097
 10
13.41094319214107
 20
-2.427305426321524
 10
13.40979825946757
 20
-2.473343588000781
 10
13.40836883894989
 20
-2.529961904964699
 10
13.39921810418291
 20
-2.586580221928618
 10
13.38263403365913
 20
-2.640912164193934
 10
13.34974863513157
 20
-2.749574303400395
 10
13.28741089077275
 20
-2.84965817417656
 10
13.2019109489901
 20
-2.923721006493586
 97
        0
 97
        0
 75
     2
 76
     1
 98
        0
  0
ENDBLK
  5
5C
330
59
100
AcDbEntity
  8
0
100
AcDbBlockEnd
  0
ENDSEC
  0
SECTION
  2
ENTITIES
  0
SPLINE
  5
41
330
1F
100
AcDbEntity
  8
Layer 1
370
     0
100
AcDbSpline
210
0.0
220
0.0
230
1.0
 70
    11
 71
     3
 72
    92
 73
    88
 74
     0
 42
0.0000000001
 43
0.0000000001
 12
1.0
 22
0.0
 32
0.0
 13
1.0
 23
0.0
 33
0.0
 40
0.0
 40
0.0
 40
0.0
 40
0.0
 40
1.0
 40
1.0
 40
1.0
 40
2.0
 40
2.0
 40
2.0
 40
3.0
 40
3.0
 40
3.0
 40
4.0
 40
4.0
 40
4.0
 40
5.0
 40
5.0
 40
5.0
 40
6.0
 40
6.0
 40
6.0
 40
7.0
 40
7.0
 40
7.0
 40
8.0
 40
8.0
 40
8.0
 40
9.0
 40
9.0
 40
9.0
 40
10.0
 40
10.0
 40
10.0
 40
11.0
 40
11.0
 40
11.0
 40
12.0
 40
12.0
 40
12.0
 40
13.0
 40
13.0
 40
13.0
 40
14.0
 40
14.0
 40
14.0
 40
15.0
 40
15.0
 40
15.0
 40
16.0
 40
16.0
 40
16.0
 40
17.0
 40
17.0
 40
17.0
 40
18.0
 40
18.0
 40
18.0
 40
19.0
 40
19.0
 40
19.0
 40
20.0
 40
20.0
 40
20.0
 40
21.0
 40
21.0
 40
21.0
 40
22.0
 40
22.0
 40
22.0
 40
23.0
 40
23.0
 40
23.0
 40
24.0
 40
24.0
 40
24.0
 40
25.0
 40
25.0
 40
25.0
 40
26.0
 40
26.0
 40
26.0
 40
27.0
 40
27.0
 40
27.0
 40
28.0
 40
28.0
 40
28.0
 40
29.0
 40
29.0
 40
29.0
 40
29.0
 10
9.314655703119575
 20
-7.409829821960867
 30
0.0
 10
9.177970638599579
 20
-6.410249492945367
 30
0.0
 10
8.670847494476437
 20
-5.607658670118727
 30
0.0
 10
7.87794496626959
 20
-4.996495005263821
 30
0.0
 10
7.529351364321249
 20
-4.727753475995301
 30
0.0
 10
7.165009702139633
 20
-4.53306954307117
 30
0.0
 10
6.787185410533049
 20
-4.405456673729264
 30
0.0
 10
6.787935899937947
 20
-4.3973531334807
 30
0.0
 10
6.788834741899654
 20
-4.389277518419303
 30
0.0
 10
6.789267582300574
 20
-4.381121618444809
 30
0.0
 10
6.79269888967268
 20
-4.321358227277162
 30
0.0
 10
6.788408882795479
 20
-4.261306857616935
 30
0.0
 10
6.77554235281215
 20
-4.202972886966931
 30
0.0
 10
6.72149664371521
 20
-3.959912057939075
 30
0.0
 10
6.545061820599215
 20
-3.777187086415588
 30
0.0
 10
6.374348170202332
 20
-3.600181542287043
 30
0.0
 10
6.330596383221645
 20
-3.555002080112914
 30
0.0
 10
6.285416921047581
 20
-3.508105218928561
 30
0.0
 10
6.243667020921324
 20
-3.461494590912585
 30
0.0
 10
6.239378759368292
 20
-3.456633863022802
 30
0.0
 10
6.235374985659434
 20
-3.451771389808817
 30
0.0
 10
6.23137121195064
 20
-3.446910661919034
 30
0.0
 10
6.323733768477434
 20
-2.624793151971793
 30
0.0
 10
5.984020376045519
 20
-2.277930911627259
 30
0.0
 10
5.832465149363531
 20
-2.166694419229648
 30
0.0
 10
5.64888322365915
 20
-2.031438775227297
 30
0.0
 10
5.425839517851348
 20
-1.996553235169485
 30
0.0
 10
5.250549627408856
 20
-2.075190562207919
 30
0.0
 10
4.783586393068039
 20
-2.285079759539846
 30
0.0
 10
3.910854481395964
 20
-3.082319418377218
 30
0.0
 10
3.863386899199063
 20
-4.075723045058093
 30
0.0
 10
3.756154180510278
 20
-4.042553158686366
 30
0.0
 10
3.655497843397362
 20
-4.045411999721721
 30
0.0
 10
3.563707753207256
 20
-4.084587546656733
 30
0.0
 10
3.431024717071883
 20
-4.141492096789028
 30
0.0
 10
3.352673623201825
 20
-4.259304970762506
 30
0.0
 10
3.318072570988188
 20
-4.324217068312516
 30
0.0
 10
2.543424388562083
 20
-3.697979038364605
 30
0.0
 10
1.365864624515841
 20
-3.821509594408792
 30
0.0
 10
0.8983306691625063
 20
-4.031686770233297
 30
0.0
 10
0.7230407787199822
 20
-4.110610330440106
 30
0.0
 10
0.6012241310376785
 20
-4.300482404551947
 30
0.0
 10
0.5803500536366668
 20
-4.527529884068607
 30
0.0
 10
0.5631935167761368
 20
-4.714831095637672
 30
0.0
 10
0.5969358694846469
 20
-5.199237100007394
 30
0.0
 10
1.27321583482064
 20
-5.67563555695937
 30
0.0
 10
1.274074534325768
 20
-5.68192570536683
 30
0.0
 10
1.275217721675069
 20
-5.688217599098492
 30
0.0
 10
1.276076421180196
 20
-5.694507747505953
 30
0.0
 10
1.282939035924408
 20
-5.756561004020608
 30
0.0
 10
1.288085996982535
 20
-5.821757589414791
 30
0.0
 10
1.292946724872318
 20
-5.884381566941997
 30
0.0
 10
1.311820660743103
 20
-6.129444282824346
 30
0.0
 10
1.331551550794813
 20
-6.382799033968519
 30
0.0
 10
1.477673583250235
 20
-6.584682429206933
 30
0.0
 10
1.576612521352928
 20
-6.721369239051165
 30
0.0
 10
1.731028334394409
 20
-6.816019915600794
 30
0.0
 10
1.89688125690154
 20
-6.85004850147768
 30
0.0
 10
1.898026189575044
 20
-6.850334734646024
 30
0.0
 10
1.899169376924345
 20
-6.850620967814431
 30
0.0
 10
1.900312564273646
 20
-6.850905455658606
 30
0.0
 10
1.908648232640455
 20
-6.852598420130098
 30
0.0
 10
1.917090365783324
 20
-6.853490280794998
 30
0.0
 10
1.925473157903488
 20
-6.854853378993131
 30
0.0
 10
1.717833683462019
 20
-7.46442879882837
 30
0.0
 10
1.696079962665521
 20
-8.097580057922219
 30
0.0
 10
1.822401292101348
 20
-8.735977761553416
 30
0.0
 10
2.07015355257185
 20
-9.98692666277651
 30
0.0
 10
2.768063320686327
 20
-10.89858279469916
 30
0.0
 10
3.918354139472238
 20
-11.45696261985184
 30
0.0
 10
4.293722759933051
 20
-11.63916748476447
 30
0.0
 10
4.684527027595735
 20
-11.77669379554761
 30
0.0
 10
5.10619909901382
 20
-11.80690361208059
 30
0.0
 10
5.184010887706835
 20
-11.81246770562192
 30
0.0
 10
5.261183887743681
 20
-11.82470940954257
 30
0.0
 10
5.338836851934738
 20
-11.83377287809971
 30
0.0
 10
5.338836851934738
 20
-11.83377287809971
 30
0.0
 10
5.76846585636878
 20
-11.83377287809971
 30
0.0
 10
5.76846585636878
 20
-11.83377287809971
 30
0.0
 10
5.846593548741603
 20
-11.82661879421452
 30
0.0
 10
5.925040635442508
 20
-11.82121352517515
 30
0.0
 10
6.003011248637479
 20
-11.812150056618
 30
0.0
 10
6.666548602008223
 20
-11.73551636175817
 30
0.0
 10
7.272802669895788
 20
-11.50704469769647
 30
0.0
 10
7.804430165750585
 20
-11.10225165659155
 30
0.0
 10
9.030782213059547
 20
-10.168812133361
 30
0.0
 10
9.521515017644843
 20
-8.924066114335522
 30
0.0
 10
9.314655703119575
 20
-7.409829821960867
 30
0.0
  0
HATCH
  5
42
330
1F
100
AcDbEntity
  8
Layer 1
 62
     7
420
 16777215
100
AcDbHatch
 10
0.0
 20
0.0
 30
0.0
210
0.0
220
0.0
230
1.0
  2
SOLID
 70
     1
 71
     0
 91
        1
 92
        1
 93
        1
 72
     4
 94
        3
 73
     0
 74
     1
 95
       92
 96
       88
 40
0.0
 40
0.0
 40
0.0
 40
0.0
 40
1.0
 40
1.0
 40
1.0
 40
2.0
 40
2.0
 40
2.0
 40
3.0
 40
3.0
 40
3.0
 40
4.0
 40
4.0
 40
4.0
 40
5.0
 40
5.0
 40
5.0
 40
6.0
 40
6.0
 40
6.0
 40
7.0
 40
7.0
 40
7.0
 40
8.0
 40
8.0
 40
8.0
 40
9.0
 40
9.0
 40
9.0
 40
10.0
 40
10.0
 40
10.0
 40
11.0
 40
11.0
 40
11.0
 40
12.0
 40
12.0
 40
12.0
 40
13.0
 40
13.0
 40
13.0
 40
14.0
 40
14.0
 40
14.0
 40
15.0
 40
15.0
 40
15.0
 40
16.0
 40
16.0
 40
16.0
 40
17.0
 40
17.0
 40
17.0
 40
18.0
 40
18.0
 40
18.0
 40
19.0
 40
19.0
 40
19.0
 40
20.0
 40
20.0
 40
20.0
 40
21.0
 40
21.0
 40
21.0
 40
22.0
 40
22.0
 40
22.0
 40
23.0
 40
23.0
 40
23.0
 40
24.0
 40
24.0
 40
24.0
 40
25.0
 40
25.0
 40
25.0
 40
26.0
 40
26.0
 40
26.0
 40
27.0
 40
27.0
 40
27.0
 40
28.0
 40
28.0
 40
28.0
 40
29.0
 40
29.0
 40
29.0
 40
29.0
 10
9.314655703119575
 20
-7.409829821960867
 10
9.177970638599579
 20
-6.410249492945367
 10
8.670847494476437
 20
-5.607658670118727
 10
7.87794496626959
 20
-4.996495005263821
 10
7.529351364321249
 20
-4.727753475995301
 10
7.165009702139633
 20
-4.53306954307117
 10
6.787185410533049
 20
-4.405456673729264
 10
6.787935899937947
 20
-4.3973531334807
 10
6.788834741899654
 20
-4.389277518419303
 10
6.789267582300574
 20
-4.381121618444809
 10
6.79269888967268
 20
-4.321358227277162
 10
6.788408882795479
 20
-4.261306857616935
 10
6.77554235281215
 20
-4.202972886966931
 10
6.72149664371521
 20
-3.959912057939075
 10
6.545061820599215
 20
-3.777187086415588
 10
6.374348170202332
 20
-3.600181542287043
 10
6.330596383221645
 20
-3.555002080112914
 10
6.285416921047581
 20
-3.508105218928561
 10
6.243667020921324
 20
-3.461494590912585
 10
6.239378759368292
 20
-3.456633863022802
 10
6.235374985659434
 20
-3.451771389808817
 10
6.23137121195064
 20
-3.446910661919034
 10
6.323733768477434
 20
-2.624793151971793
 10
5.984020376045519
 20
-2.277930911627259
 10
5.832465149363531
 20
-2.166694419229648
 10
5.64888322365915
 20
-2.031438775227297
 10
5.425839517851348
 20
-1.996553235169485
 10
5.250549627408856
 20
-2.075190562207919
 10
4.783586393068039
 20
-2.285079759539846
 10
3.910854481395964
 20
-3.082319418377218
 10
3.863386899199063
 20
-4.075723045058093
 10
3.756154180510278
 20
-4.042553158686366
 10
3.655497843397362
 20
-4.045411999721721
 10
3.563707753207256
 20
-4.084587546656733
 10
3.431024717071883
 20
-4.141492096789028
 10
3.352673623201825
 20
-4.259304970762506
 10
3.318072570988188
 20
-4.324217068312516
 10
2.543424388562083
 20
-3.697979038364605
 10
1.365864624515841
 20
-3.821509594408792
 10
0.8983306691625063
 20
-4.031686770233297
 10
0.7230407787199822
 20
-4.110610330440106
 10
0.6012241310376785
 20
-4.300482404551947
 10
0.5803500536366668
 20
-4.527529884068607
 10
0.5631935167761368
 20
-4.714831095637672
 10
0.5969358694846469
 20
-5.199237100007394
 10
1.27321583482064
 20
-5.67563555695937
 10
1.274074534325768
 20
-5.68192570536683
 10
1.275217721675069
 20
-5.688217599098492
 10
1.276076421180196
 20
-5.694507747505953
 10
1.282939035924408
 20
-5.756561004020608
 10
1.288085996982535
 20
-5.821757589414791
 10
1.292946724872318
 20
-5.884381566941997
 10
1.311820660743103
 20
-6.129444282824346
 10
1.331551550794813
 20
-6.382799033968519
 10
1.477673583250235
 20
-6.584682429206933
 10
1.576612521352928
 20
-6.721369239051165
 10
1.731028334394409
 20
-6.816019915600794
 10
1.89688125690154
 20
-6.85004850147768
 10
1.898026189575044
 20
-6.850334734646024
 10
1.899169376924345
 20
-6.850620967814431
 10
1.900312564273646
 20
-6.850905455658606
 10
1.908648232640455
 20
-6.852598420130098
 10
1.917090365783324
 20
-6.853490280794998
 10
1.925473157903488
 20
-6.854853378993131
 10
1.717833683462019
 20
-7.46442879882837
 10
1.696079962665521
 20
-8.097580057922219
 10
1.822401292101348
 20
-8.735977761553416
 10
2.07015355257185
 20
-9.98692666277651
 10
2.768063320686327
 20
-10.89858279469916
 10
3.918354139472238
 20
-11.45696261985184
 10
4.293722759933051
 20
-11.63916748476447
 10
4.684527027595735
 20
-11.77669379554761
 10
5.10619909901382
 20
-11.80690361208059
 10
5.184010887706835
 20
-11.81246770562192
 10
5.261183887743681
 20
-11.82470940954257
 10
5.338836851934738
 20
-11.83377287809971
 10
5.338836851934738
 20
-11.83377287809971
 10
5.76846585636878
 20
-11.83377287809971
 10
5.76846585636878
 20
-11.83377287809971
 10
5.846593548741603
 20
-11.82661879421452
 10
5.925040635442508
 20
-11.82121352517515
 10
6.003011248637479
 20
-11.812150056618
 10
6.666548602008223
 20
-11.73551636175817
 10
7.272802669895788
 20
-11.50704469769647
 10
7.804430165750585
 20
-11.10225165659155
 10
9.030782213059547
 20
-10.168812133361
 10
9.521515017644843
 20
-8.924066114335522
 10
9.314655703119575
 20
-7.409829821960867
 97
        0
 97
        0
 75
     2
 76
     1
 98
        0
  0
INSERT
  5
44
330
1F
100
AcDbEntity
  8
Layer 1
100
AcDbBlockReference
  2
block 2
 10
0.0
 20
0.0
 30
0.0
  0
INSERT
  5
5A
330
1F
100
AcDbEntity
  8
Layer 1
100
AcDbBlockReference
  2
block 3
 10
0.0
 20
0.0
 30
0.0
  0
ENDSEC
  0
SECTION
  2
OBJECTS
  0
DICTIONARY
  5
C
330
0
100
AcDbDictionary
281
     1
  3
ACAD_GROUP
350
D
  3
ACAD_LAYOUT
350
1A
  3
ACAD_MATERIAL
350
3B
  3
ACAD_MLEADERSTYLE
350
64
  3
ACAD_MLINESTYLE
350
17
  3
ACAD_PLOTSETTINGS
350
19
  3
ACAD_PLOTSTYLENAME
350
E
  3
ACAD_TABLESTYLE
350
63
  3
ACAD_VISUALSTYLE
350
2A
  0
SUN
  5
3F
330
29
100
AcDbSun
 90
        1
290
     0
 63
     7
421
 16777215
 40
1.0
291
     1
 91
  2455826
 92
 54000000
292
     0
 70
     2
 71
   256
280
     1
  0
DICTIONARY
  5
D
102
{ACAD_REACTORS
330
C
102
}
330
C
100
AcDbDictionary
281
     1
  0
DICTIONARY
  5
1A
102
{ACAD_REACTORS
330
C
102
}
330
C
100
AcDbDictionary
281
     1
  3
Layout1
350
1E
  3
Layout2
350
26
  3
Model
350
22
  0
DICTIONARY
  5
3B
102
{ACAD_REACTORS
330
C
102
}
330
C
100
AcDbDictionary
281
     1
  3
ByBlock
350
3D
  3
ByLayer
350
3C
  3
Global
350
3E
  0
DICTIONARY
  5
64
102
{ACAD_REACTORS
330
C
102
}
330
C
100
AcDbDictionary
281
     1
  0
DICTIONARY
  5
17
102
{ACAD_REACTORS
330
C
102
}
330
C
100
AcDbDictionary
281
     1
  3
Standard
350
18
  0
DICTIONARY
  5
19
102
{ACAD_REACTORS
330
C
102
}
330
C
100
AcDbDictionary
281
     1
  0
ACDBDICTIONARYWDFLT
  5
E
102
{ACAD_REACTORS
330
C
102
}
330
C
100
AcDbDictionary
281
     1
  3
Normal
350
F
100
AcDbDictionaryWithDefault
340
F
  0
DICTIONARY
  5
63
102
{ACAD_REACTORS
330
C
102
}
330
C
100
AcDbDictionary
281
     1
  0
DICTIONARY
  5
2A
102
{ACAD_REACTORS
330
C
102
}
330
C
100
AcDbDictionary
281
     1
  3
2dWireframe
350
2F
  3
3D Hidden
350
31
  3
3dWireframe
350
30
  3
Basic
350
32
  3
Brighten
350
36
  3
ColorChange
350
3A
  3
Conceptual
350
34
  3
Dim
350
35
  3
Facepattern
350
39
  3
Flat
350
2B
  3
FlatWithEdges
350
2C
  3
Gouraud
350
2D
  3
GouraudWithEdges
350
2E
  3
Linepattern
350
38
  3
Realistic
350
33
  3
Thicken
350
37
  0
LAYOUT
  5
1E
102
{ACAD_REACTORS
330
1A
102
}
330
1A
100
AcDbPlotSettings
  1

  2
none_device
  4

  6

 40
0.0
 41
0.0
 42
0.0
 43
0.0
 44
0.0
 45
0.0
 46
0.0
 47
0.0
 48
0.0
 49
0.0
140
0.0
141
0.0
142
1.0
143
1.0
 70
   688
 72
     0
 73
     0
 74
     5
  7

 75
    16
 76
     0
 77
     2
 78
   300
147
1.0
148
0.0
149
0.0
100
AcDbLayout
  1
Layout1
 70
     1
 71
     1
 10
0.0
 20
0.0
 11
12.0
 21
9.0
 12
0.0
 22
0.0
 32
0.0
 14
1.000000000000000E+20
 24
1.000000000000000E+20
 34
1.000000000000000E+20
 15
-1.000000000000000E+20
 25
-1.000000000000000E+20
 35
-1.000000000000000E+20
146
0.0
 13
0.0
 23
0.0
 33
0.0
 16
1.0
 26
0.0
 36
0.0
 17
0.0
 27
1.0
 37
0.0
 76
     0
330
1B
  0
LAYOUT
  5
26
102
{ACAD_REACTORS
330
1A
102
}
330
1A
100
AcDbPlotSettings
  1

  2
none_device
  4

  6

 40
0.0
 41
0.0
 42
0.0
 43
0.0
 44
0.0
 45
0.0
 46
0.0
 47
0.0
 48
0.0
 49
0.0
140
0.0
141
0.0
142
1.0
143
1.0
 70
   688
 72
     0
 73
     0
 74
     5
  7

 75
    16
 76
     0
 77
     2
 78
   300
147
1.0
148
0.0
149
0.0
100
AcDbLayout
  1
Layout2
 70
     1
 71
     2
 10
0.0
 20
0.0
 11
0.0
 21
0.0
 12
0.0
 22
0.0
 32
0.0
 14
0.0
 24
0.0
 34
0.0
 15
0.0
 25
0.0
 35
0.0
146
0.0
 13
0.0
 23
0.0
 33
0.0
 16
1.0
 26
0.0
 36
0.0
 17
0.0
 27
1.0
 37
0.0
 76
     0
330
23
  0
LAYOUT
  5
22
102
{ACAD_REACTORS
330
1A
102
}
330
1A
100
AcDbPlotSettings
  1

  2
none_device
  4

  6

 40
0.0
 41
0.0
 42
0.0
 43
0.0
 44
0.0
 45
0.0
 46
0.0
 47
0.0
 48
0.0
 49
0.0
140
0.0
141
0.0
142
1.0
143
1.0
 70
  1712
 72
     0
 73
     0
 74
     0
  7

 75
     0
 76
     0
 77
     2
 78
   300
147
1.0
148
0.0
149
0.0
100
AcDbLayout
  1
Model
 70
     1
 71
     0
 10
0.0
 20
0.0
 11
12.0
 21
9.0
 12
0.0
 22
0.0
 32
0.0
 14
1.000000000000000E+20
 24
1.000000000000000E+20
 34
1.000000000000000E+20
 15
-1.000000000000000E+20
 25
-1.000000000000000E+20
 35
-1.000000000000000E+20
146
0.0
 13
0.0
 23
0.0
 33
0.0
 16
1.0
 26
0.0
 36
0.0
 17
0.0
 27
1.0
 37
0.0
 76
     0
330
1F
331
29
  0
MATERIAL
  5
3D
102
{ACAD_REACTORS
330
3B
102
}
330
3B
100
AcDbMaterial
  1
ByBlock
 72
     1
 94
      127
  0
MATERIAL
  5
3C
102
{ACAD_REACTORS
330
3B
102
}
330
3B
100
AcDbMaterial
  1
ByLayer
 72
     1
 94
      127
  0
MATERIAL
  5
3E
102
{ACAD_REACTORS
330
3B
102
}
330
3B
100
AcDbMaterial
  1
Global
 72
     1
 94
      127
  0
MLINESTYLE
  5
18
102
{ACAD_REACTORS
330
17
102
}
330
17
100
AcDbMlineStyle
  2
Standard
 70
     0
  3

 62
   256
 51
90.0
 52
90.0
 71
     2
 49
0.5
 62
   256
  6
BYLAYER
 49
-0.5
 62
   256
  6
BYLAYER
  0
ACDBPLACEHOLDER
  5
F
102
{ACAD_REACTORS
330
E
102
}
330
E
  0
VISUALSTYLE
  5
2F
102
{ACAD_REACTORS
330
2A
102
}
330
2A
100
AcDbVisualStyle
  2
2dWireframe
 70
     4
177
     2
291
     0
 71
     0
176
     1
 72
     2
176
     1
 73
     0
176
     1
 90
        0
176
     1
 40
-0.6
176
     1
 41
-30.0
176
     1
 62
     5
 63
     7
421
 16777215
176
     1
 74
     1
176
     1
 91
        4
176
     1
 64
     7
176
     1
 65
   257
176
     1
 75
     1
176
     1
175
     1
176
     1
 42
1.0
176
     1
 92
        0
176
     1
 66
   257
176
     1
 43
1.0
176
     1
 76
     1
176
     1
 77
     6
176
     1
 78
     2
176
     1
 67
     7
176
     1
 79
     5
176
     1
170
     0
176
     1
171
     0
176
     1
290
     0
176
     1
 93
        1
176
     1
 44
0.0
176
     1
173
     0
176
     1
  0
VISUALSTYLE
  5
31
102
{ACAD_REACTORS
330
2A
102
}
330
2A
100
AcDbVisualStyle
  2
3D Hidden
 70
     6
177
     2
291
     0
 71
     1
176
     1
 72
     2
176
     1
 73
     2
176
     1
 90
        0
176
     1
 40
-0.6
176
     1
 41
-30.0
176
     1
 62
     5
 63
     7
421
 16777215
176
     1
 74
     2
176
     1
 91
        2
176
     1
 64
     7
176
     1
 65
   257
176
     1
 75
     2
176
     1
175
     1
176
     1
 42
40.0
176
     1
 92
        0
176
     1
 66
   257
176
     1
 43
1.0
176
     1
 76
     1
176
     1
 77
     6
176
     1
 78
     2
176
     1
 67
     7
176
     1
 79
     3
176
     1
170
     0
176
     1
171
     0
176
     1
290
     0
176
     1
 93
        1
176
     1
 44
0.0
176
     1
173
     0
176
     1
  0
VISUALSTYLE
  5
30
102
{ACAD_REACTORS
330
2A
102
}
330
2A
100
AcDbVisualStyle
  2
3dWireframe
 70
     5
177
     2
291
     0
 71
     0
176
     1
 72
     2
176
     1
 73
     0
176
     1
 90
        0
176
     1
 40
-0.6
176
     1
 41
-30.0
176
     1
 62
     5
 63
     7
421
 16777215
176
     1
 74
     1
176
     1
 91
        4
176
     1
 64
     7
176
     1
 65
   257
176
     1
 75
     1
176
     1
175
     1
176
     1
 42
1.0
176
     1
 92
        0
176
     1
 66
   257
176
     1
 43
1.0
176
     1
 76
     1
176
     1
 77
     6
176
     1
 78
     2
176
     1
 67
     7
176
     1
 79
     5
176
     1
170
     0
176
     1
171
     0
176
     1
290
     0
176
     1
 93
        1
176
     1
 44
0.0
176
     1
173
     0
176
     1
  0
VISUALSTYLE
  5
32
102
{ACAD_REACTORS
330
2A
102
}
330
2A
100
AcDbVisualStyle
  2
Basic
 70
     7
177
     2
291
     1
 71
     1
176
     1
 72
     0
176
     1
 73
     1
176
     1
 90
        0
176
     1
 40
-0.6
176
     1
 41
-30.0
176
     1
 62
     5
 63
     7
421
 16777215
176
     1
 74
     0
176
     1
 91
        4
176
     1
 64
     7
176
     1
 65
   257
176
     1
 75
     1
176
     1
175
     1
176
     1
 42
1.0
176
     1
 92
        8
176
     1
 66
     7
176
     1
 43
1.0
176
     1
 76
     1
176
     1
 77
     6
176
     1
 78
     2
176
     1
 67
     7
176
     1
 79
     5
176
     1
170
     0
176
     1
171
     0
176
     1
290
     0
176
     1
 93
        1
176
     1
 44
0.0
176
     1
173
     0
176
     1
  0
VISUALSTYLE
  5
36
102
{ACAD_REACTORS
330
2A
102
}
330
2A
100
AcDbVisualStyle
  2
Brighten
 70
    12
177
     2
291
     1
 71
     2
176
     1
 72
     2
176
     1
 73
     0
176
     1
 90
        0
176
     1
 40
-0.6
176
     1
 41
-30.0
176
     1
 62
     5
 63
     7
421
 16777215
176
     1
 74
     1
176
     1
 91
        4
176
     1
 64
     7
176
     1
 65
   257
176
     1
 75
     1
176
     1
175
     1
176
     1
 42
1.0
176
     1
 92
        8
176
     1
 66
     7
176
     1
 43
1.0
176
     1
 76
     1
176
     1
 77
     6
176
     1
 78
     2
176
     1
 67
     7
176
     1
 79
     5
176
     1
170
     0
176
     1
171
     0
176
     1
290
     0
176
     1
 93
        1
176
     1
 44
50.0
176
     1
173
     0
176
     1
  0
VISUALSTYLE
  5
3A
102
{ACAD_REACTORS
330
2A
102
}
330
2A
100
AcDbVisualStyle
  2
ColorChange
 70
    16
177
     2
291
     1
 71
     2
176
     1
 72
     2
176
     1
 73
     3
176
     1
 90
        0
176
     1
 40
-0.6
176
     1
 41
-30.0
176
     1
 62
     5
 63
     8
421
  8421504
176
     1
 74
     1
176
     1
 91
        4
176
     1
 64
     7
176
     1
 65
   257
176
     1
 75
     1
176
     1
175
     1
176
     1
 42
1.0
176
     1
 92
        8
176
     1
 66
     8
424
  8421504
176
     1
 43
1.0
176
     1
 76
     1
176
     1
 77
     6
176
     1
 78
     2
176
     1
 67
     7
176
     1
 79
     5
176
     1
170
     0
176
     1
171
     0
176
     1
290
     0
176
     1
 93
        1
176
     1
 44
0.0
176
     1
173
     0
176
     1
  0
VISUALSTYLE
  5
34
102
{ACAD_REACTORS
330
2A
102
}
330
2A
100
AcDbVisualStyle
  2
Conceptual
 70
     9
177
     2
291
     0
 71
     3
176
     1
 72
     2
176
     1
 73
     0
176
     1
 90
        0
176
     1
 40
-0.6
176
     1
 41
-30.0
176
     1
 62
     5
 63
     7
421
 16777215
176
     1
 74
     2
176
     1
 91
        2
176
     1
 64
     7
176
     1
 65
   257
176
     1
 75
     1
176
     1
175
     1
176
     1
 42
40.0
176
     1
 92
        8
176
     1
 66
     7
176
     1
 43
1.0
176
     1
 76
     1
176
     1
 77
     6
176
     1
 78
     2
176
     1
 67
     7
176
     1
 79
     3
176
     1
170
     0
176
     1
171
     0
176
     1
290
     0
176
     1
 93
        1
176
     1
 44
0.0
176
     1
173
     0
176
     1
  0
VISUALSTYLE
  5
35
102
{ACAD_REACTORS
330
2A
102
}
330
2A
100
AcDbVisualStyle
  2
Dim
 70
    11
177
     2
291
     1
 71
     2
176
     1
 72
     2
176
     1
 73
     0
176
     1
 90
        0
176
     1
 40
-0.6
176
     1
 41
-30.0
176
     1
 62
     5
 63
     7
421
 16777215
176
     1
 74
     1
176
     1
 91
        4
176
     1
 64
     7
176
     1
 65
   257
176
     1
 75
     1
176
     1
175
     1
176
     1
 42
1.0
176
     1
 92
        8
176
     1
 66
     7
176
     1
 43
1.0
176
     1
 76
     1
176
     1
 77
     6
176
     1
 78
     2
176
     1
 67
     7
176
     1
 79
     5
176
     1
170
     0
176
     1
171
     0
176
     1
290
     0
176
     1
 93
        1
176
     1
 44
-50.0
176
     1
173
     0
176
     1
  0
VISUALSTYLE
  5
39
102
{ACAD_REACTORS
330
2A
102
}
330
2A
100
AcDbVisualStyle
  2
Facepattern
 70
    15
177
     2
291
     1
 71
     2
176
     1
 72
     2
176
     1
 73
     0
176
     1
 90
        0
176
     1
 40
-0.6
176
     1
 41
-30.0
176
     1
 62
     5
 63
     7
421
 16777215
176
     1
 74
     1
176
     1
 91
        4
176
     1
 64
     7
176
     1
 65
   257
176
     1
 75
     1
176
     1
175
     1
176
     1
 42
1.0
176
     1
 92
        8
176
     1
 66
     7
176
     1
 43
1.0
176
     1
 76
     1
176
     1
 77
     6
176
     1
 78
     2
176
     1
 67
     7
176
     1
 79
     5
176
     1
170
     0
176
     1
171
     0
176
     1
290
     0
176
     1
 93
        1
176
     1
 44
0.0
176
     1
173
     0
176
     1
  0
VISUALSTYLE
  5
2B
102
{ACAD_REACTORS
330
2A
102
}
330
2A
100
AcDbVisualStyle
  2
Flat
 70
     0
177
     2
291
     1
 71
     2
176
     1
 72
     1
176
     1
 73
     1
176
     1
 90
        2
176
     1
 40
-0.6
176
     1
 41
30.0
176
     1
 62
     5
 63
     7
421
 16777215
176
     1
 74
     0
176
     1
 91
        4
176
     1
 64
     7
176
     1
 65
   257
176
     1
 75
     1
176
     1
175
     1
176
     1
 42
1.0
176
     1
 92
        8
176
     1
 66
     7
176
     1
 43
1.0
176
     1
 76
     1
176
     1
 77
     6
176
     1
 78
     2
176
     1
 67
     7
176
     1
 79
     5
176
     1
170
     0
176
     1
171
     0
176
     1
290
     0
176
     1
 93
       13
176
     1
 44
0.0
176
     1
173
     0
176
     1
  0
VISUALSTYLE
  5
2C
102
{ACAD_REACTORS
330
2A
102
}
330
2A
100
AcDbVisualStyle
  2
FlatWithEdges
 70
     1
177
     2
291
     1
 71
     2
176
     1
 72
     1
176
     1
 73
     1
176
     1
 90
        2
176
     1
 40
-0.6
176
     1
 41
30.0
176
     1
 62
     5
 63
     7
421
 16777215
176
     1
 74
     1
176
     1
 91
        4
176
     1
 64
     7
176
     1
 65
   257
176
     1
 75
     1
176
     1
175
     1
176
     1
 42
1.0
176
     1
 92
        0
176
     1
 66
   257
176
     1
 43
1.0
176
     1
 76
     1
176
     1
 77
     6
176
     1
 78
     2
176
     1
 67
     7
176
     1
 79
     5
176
     1
170
     0
176
     1
171
     0
176
     1
290
     0
176
     1
 93
       13
176
     1
 44
0.0
176
     1
173
     0
176
     1
  0
VISUALSTYLE
  5
2D
102
{ACAD_REACTORS
330
2A
102
}
330
2A
100
AcDbVisualStyle
  2
Gouraud
 70
     2
177
     2
291
     1
 71
     2
176
     1
 72
     2
176
     1
 73
     1
176
     1
 90
        2
176
     1
 40
-0.6
176
     1
 41
30.0
176
     1
 62
     5
 63
     7
421
 16777215
176
     1
 74
     0
176
     1
 91
        4
176
     1
 64
     7
176
     1
 65
   257
176
     1
 75
     1
176
     1
175
     1
176
     1
 42
1.0
176
     1
 92
        0
176
     1
 66
     7
176
     1
 43
1.0
176
     1
 76
     1
176
     1
 77
     6
176
     1
 78
     2
176
     1
 67
     7
176
     1
 79
     5
176
     1
170
     0
176
     1
171
     0
176
     1
290
     0
176
     1
 93
       13
176
     1
 44
0.0
176
     1
173
     0
176
     1
  0
VISUALSTYLE
  5
2E
102
{ACAD_REACTORS
330
2A
102
}
330
2A
100
AcDbVisualStyle
  2
GouraudWithEdges
 70
     3
177
     2
291
     1
 71
     2
176
     1
 72
     2
176
     1
 73
     1
176
     1
 90
        2
176
     1
 40
-0.6
176
     1
 41
30.0
176
     1
 62
     5
 63
     7
421
 16777215
176
     1
 74
     1
176
     1
 91
        4
176
     1
 64
     7
176
     1
 65
   257
176
     1
 75
     1
176
     1
175
     1
176
     1
 42
1.0
176
     1
 92
        0
176
     1
 66
   257
176
     1
 43
1.0
176
     1
 76
     1
176
     1
 77
     6
176
     1
 78
     2
176
     1
 67
     7
176
     1
 79
     5
176
     1
170
     0
176
     1
171
     0
176
     1
290
     0
176
     1
 93
       13
176
     1
 44
0.0
176
     1
173
     0
176
     1
  0
VISUALSTYLE
  5
38
102
{ACAD_REACTORS
330
2A
102
}
330
2A
100
AcDbVisualStyle
  2
Linepattern
 70
    14
177
     2
291
     1
 71
     2
176
     1
 72
     2
176
     1
 73
     0
176
     1
 90
        0
176
     1
 40
-0.6
176
     1
 41
-30.0
176
     1
 62
     5
 63
     7
421
 16777215
176
     1
 74
     1
176
     1
 91
        4
176
     1
 64
     7
176
     1
 65
   257
176
     1
 75
     7
176
     1
175
     7
176
     1
 42
1.0
176
     1
 92
        8
176
     1
 66
     7
176
     1
 43
1.0
176
     1
 76
     1
176
     1
 77
     6
176
     1
 78
     2
176
     1
 67
     7
176
     1
 79
     5
176
     1
170
     0
176
     1
171
     0
176
     1
290
     0
176
     1
 93
        1
176
     1
 44
0.0
176
     1
173
     0
176
     1
  0
VISUALSTYLE
  5
33
102
{ACAD_REACTORS
330
2A
102
}
330
2A
100
AcDbVisualStyle
  2
Realistic
 70
     8
177
     2
291
     0
 71
     2
176
     1
 72
     2
176
     1
 73
     0
176
     1
 90
        0
176
     1
 40
-0.6
176
     1
 41
-30.0
176
     1
 62
     5
 63
     7
421
 16777215
176
     1
 74
     1
176
     1
 91
        0
176
     1
 64
     7
176
     1
 65
   257
176
     1
 75
     1
176
     1
175
     1
176
     1
 42
1.0
176
     1
 92
        8
176
     1
 66
     8
424
  7895160
176
     1
 43
1.0
176
     1
 76
     1
176
     1
 77
     6
176
     1
 78
     2
176
     1
 67
     7
176
     1
 79
     5
176
     1
170
     0
176
     1
171
     0
176
     1
290
     0
176
     1
 93
       13
176
     1
 44
0.0
176
     1
173
     0
176
     1
  0
VISUALSTYLE
  5
37
102
{ACAD_REACTORS
330
2A
102
}
330
2A
100
AcDbVisualStyle
  2
Thicken
 70
    13
177
     2
291
     1
 71
     2
176
     1
 72
     2
176
     1
 73
     0
176
     1
 90
        0
176
     1
 40
-0.6
176
     1
 41
-30.0
176
     1
 62
     5
 63
     7
421
 16777215
176
     1
 74
     1
176
     1
 91
        4
176
     1
 64
     7
176
     1
 65
   257
176
     1
 75
     1
176
     1
175
     1
176
     1
 42
1.0
176
     1
 92
       12
176
     1
 66
     7
176
     1
 43
1.0
176
     1
 76
     1
176
     1
 77
     6
176
     1
 78
     2
176
     1
 67
     7
176
     1
 79
     5
176
     1
170
     0
176
     1
171
     0
176
     1
290
     0
176
     1
 93
        1
176
     1
 44
0.0
176
     1
173
     0
176
     1
  0
ENDSEC
  0
EOF
