<?xml version="1.0" encoding="utf-8"?>
<!-- Generator: Adobe Illustrator 19.2.1, SVG Export Plug-In . SVG Version: 6.00 Build 0)  -->
<svg version="1.1" id="Layer_1" xmlns="http://www.w3.org/2000/svg" xmlns:xlink="http://www.w3.org/1999/xlink" x="0px" y="0px"
	 viewBox="0 0 283.5 283.5" enable-background="new 0 0 283.5 283.5" xml:space="preserve">
<g>
	<path fill="#333333" d="M141.7,284.2c-7,0-14-0.9-20.7-2.8l-0.1,0c-2.3-0.4-4.3-2.1-5-4.4c-6.1-20.2-10.7-41.6-13.7-63.5
		c-2.2-15.8-4.3-36.6-1.5-57.3c1.5-11.2,5.7-21.2,9.8-30.9c4.4-10.5,8.6-20.4,9.4-31.5c0.5-6.1,0.1-12.4-0.9-18.8
		c-0.2-1.4-0.5-3-0.9-4.9c-3-16.1-8.5-46.1,3.9-60.9c4.7-5.6,11.3-8.5,19.6-8.5h1.2c8.3,0,14.8,2.8,19.4,8.4
		c11.9,14.4,6.4,42.8,3.1,59.8c-0.4,2.3-0.8,4.4-1.1,6c-1.1,6.4-1.4,12.8-0.9,18.8c0.8,11.1,5,21,9.4,31.5c4,9.7,8.2,19.7,9.8,30.9
		c2.8,20.7,0.7,41.5-1.5,57.3c-3,21.9-7.6,43.3-13.7,63.5c-0.7,2.3-2.6,4-5,4.4C155.6,283.3,148.7,284.2,141.7,284.2L141.7,284.2z"
		/>
	<path fill="#CDCCCC" d="M142.3,6.4c-33-0.7-20.4,51.2-17.7,67.7c1.1,6.7,1.5,13.4,1,20.2c-1.7,22.7-16.2,40.6-19.2,62.7
		c-2.5,18.4-1.1,37.4,1.5,55.8c2.9,21.1,7.4,42.2,13.5,62.6c0.1,0.3,0.4,0.5,0.7,0.5l0.4,0.1c12.7,3.5,26.1,3.4,38.9-0.1h0
		c0.3,0,0.6-0.2,0.7-0.5c6.1-20.4,10.6-41.5,13.5-62.6c2.5-18.4,4-37.3,1.5-55.8c-3-22.1-17.5-40.1-19.2-62.7
		c-0.5-6.7-0.1-13.5,1-20.2C161.5,57.7,175.3,5.8,142.3,6.4z"/>
	<path fill="#EF3D39" d="M158.4,104c-14,5.4-26.5,2.8-33.4,0.3c-0.5-0.2-0.7-0.7-0.6-1.2c0.6-2.9,1.1-5.8,1.3-8.8
		c0.3-3.9,0.3-7.7,0-11.5c0-0.7,0.6-1.2,1.3-1c6.7,2.2,17.4,4.1,29.5,0.2c0.7-0.2,1.4,0.3,1.3,1c-0.3,3.8-0.2,7.6,0,11.4
		c0.2,2.9,0.6,5.7,1.2,8.5C159.1,103.3,158.8,103.8,158.4,104z"/>
</g>
</svg>
