<?xml version="1.0" encoding="utf-8"?>
<!-- Generator: Adobe Illustrator 19.2.1, SVG Export Plug-In . SVG Version: 6.00 Build 0)  -->
<svg version="1.1" id="Layer_1" xmlns="http://www.w3.org/2000/svg" xmlns:xlink="http://www.w3.org/1999/xlink" x="0px" y="0px"
	 viewBox="0 0 283.5 283.5" enable-background="new 0 0 283.5 283.5" xml:space="preserve">
<g>
	<path fill="#333333" d="M141.9,284.2c-78.1,0-141.7-63.6-141.7-141.7C0.2,64.3,63.7,0.7,141.9,0.7c78.2,0,141.7,63.6,141.7,141.7
		C283.6,220.6,220.1,284.2,141.9,284.2z"/>
	<path fill="#EF3D39" d="M174.6,16.1c-69.6-18-141,23.9-159,93.6c-18,69.7,23.9,141,93.6,159c69.7,18,141-23.9,159-93.6
		C286.3,105.5,244.3,34.2,174.6,16.1z M49.2,77.6C51.4,69.1,60,64,68.5,66.2C76.9,68.4,82,77,79.8,85.5C77.6,94,69,99,60.5,96.8
		C52.1,94.7,47,86,49.2,77.6z M67.1,137.8c-8.5-2.2-13.5-10.8-11.4-19.3c2.2-8.5,10.8-13.5,19.3-11.4c8.5,2.2,13.5,10.8,11.4,19.3
		C84.2,134.9,75.5,140,67.1,137.8z M103.4,104.7c-8.5-2.2-13.5-10.8-11.4-19.3c2.2-8.5,10.8-13.5,19.3-11.4
		c8.5,2.2,13.5,10.8,11.4,19.3C120.5,101.8,111.9,106.9,103.4,104.7z M201.9,239.3c-0.9,0.6-2-0.6-1.3-1.5l13.7-18.3
		c22.4-29.8,34.4-66.1,34.4-103.4l0-19.6c1.7,0.4,5.4,16.3,6.8,24.9C262.8,168,241.4,214.3,201.9,239.3z"/>
</g>
</svg>
