<?xml version="1.0" encoding="utf-8"?>
<!-- Generator: Adobe Illustrator 19.2.1, SVG Export Plug-In . SVG Version: 6.00 Build 0)  -->
<svg version="1.1" id="Layer_1" xmlns="http://www.w3.org/2000/svg" xmlns:xlink="http://www.w3.org/1999/xlink" x="0px" y="0px"
	 viewBox="0 0 283.5 85" enable-background="new 0 0 283.5 85" xml:space="preserve">
<g>
	<path fill="#333333" d="M283.8,46.2l-0.8-2.9c-0.9-3.1-2.2-5.7-4-7.7c-1.8-2.1-4.1-3.7-6.9-4.7c-2.6-1-6.3-1.4-11.3-1.4
		c-5.2,0-9.5,0.8-12.7,2.3c-4.1,2-7.2,4.9-9.4,8.7V30.2h-17.7v17.1l-11.6-17.1h-16.3v5.4c-0.8-1.9-1.4-3.7-1.5-5.7
		c-0.1-1.4,0-2.8,0.2-4.3c0.1-0.4,0.2-0.9,0.3-1.4c0.8-4.4,2.3-11.7-1-15.7c-1.4-1.7-3.4-2.5-5.8-2.5H185c-2.4,0-4.4,0.9-5.8,2.6
		c-3.4,4.1-2,11.8-1.2,15.9l0,0.1c0.1,0.4,0.1,0.7,0.2,1c0.2,1.5,0.3,2.9,0.2,4.3c-0.2,2.5-1.2,4.8-2.2,7.2c-1,2.4-2.1,4.9-2.5,7.8
		c-0.7,5.2-0.2,10.4,0.4,14.3c0.1,0.8,0.2,1.7,0.4,2.5h-15.2V30.2h-31.4l-2.7,14.1l-3.9-14.1h-16.4l-3.9,14.1l-2.7-14.1h-18l1.6,7.3
		c-2.3-2.5-5-4.4-8.2-5.8c-3-1.3-6.2-2-9.5-2c-9.2,0-17.5,5.2-21.6,13.2c-0.1-3.6-1.5-6.6-4.1-9c-2.7-2.5-6.4-3.7-11.2-3.7h-27v47.4
		h25.1c1.1,0,3.1-0.2,6.2-0.6c2.6-0.3,4.5-0.9,5.9-1.7c2.2-1.2,3.9-3,5.1-5.1c0.6-1,1-2,1.3-3c2.6,3.9,6.2,7,10.6,8.9
		c3,1.3,6.2,2,9.5,2c9.7,0,18.4-5.7,22.2-14.6c0.3-0.7,0.6-1.5,0.8-2.2l3.6,16.4h17l5.3-18.9l5.3,18.9h17l5.5-25.1v25.1h38.7v-0.7
		c0.1,0,0.1,0,0.2,0c1.7,0.5,3.5,0.7,5.3,0.7c1.8,0,3.6-0.2,5.3-0.7c1-0.2,1.9-1,2.2-2c0.2-0.7,0.4-1.5,0.6-2.2v4.9h17.7V60.7
		l11.5,16.9h16.4V67.4c2,3.5,4.7,6.2,8,8c3.5,1.9,8.1,2.9,13.5,2.9c4.3,0,8.1-0.5,11.3-1.5c3.2-1,6.8-2.9,10.9-5.7l1.2-0.8V48.2
		h-10.9L283.8,46.2z"/>
	<path fill="#FCF9CE" d="M259.5,49.6V61h8.7v1.8c-1.3,0.8-2.5,1.3-3.6,1.6c-1.2,0.4-2.4,0.6-3.7,0.6c-2.7,0-4.7-0.8-6.1-2.5
		c-1.5-1.7-2.2-4.7-2.2-8.8c0-3.9,0.7-6.8,2.2-8.5c1.4-1.7,3.3-2.5,5.8-2.5c1.6,0,2.9,0.3,3.9,1c1,0.7,1.7,1.6,2.1,2.9l0.4,1.1
		l15.2-2.7l-0.4-1.5c-0.8-2.9-2.1-5.3-3.7-7.2c-1.7-1.9-3.8-3.4-6.3-4.3c-2.5-0.9-6-1.3-10.9-1.3c-5,0-9,0.7-12.1,2.2
		c-3.9,1.9-6.9,4.7-8.9,8.3c-1.2,2.1-2,4.4-2.5,6.9V31.5h-14.9v20.1l-13.7-20.1h-14.2v11.7c-0.5-2-1.2-3.8-2-5.5
		c-1.1-2.6-2.1-5-2.3-7.6c-0.1-1.5,0-3,0.2-4.6c0.1-0.4,0.2-0.9,0.3-1.5c0.8-4.1,2.1-11-0.8-14.5c-1.1-1.4-2.7-2-4.7-2H185
		c-2,0-3.6,0.7-4.8,2.1c-3,3.6-1.7,10.9-0.9,14.8c0.1,0.4,0.2,0.8,0.2,1.2c0.3,1.6,0.3,3.1,0.2,4.6c-0.2,2.7-1.2,5.1-2.3,7.6
		c-1,2.4-2,4.8-2.4,7.5c-0.7,5-0.2,10.1,0.4,13.9c0.2,1.4,0.4,2.7,0.6,4.1h-18.2V31.5h-13.8h-1.8H129l-3.6,18.8l-5.2-18.8h-14.3
		l-5.2,18.8l-3.5-18.8H82l2.8,12.7c-2.3-4.9-6.3-9-11.6-11.3c-11.5-5-25,0.4-29.9,11.9c-1.6,3.8-2.2,7.9-1.7,11.7
		c-0.2-0.4-0.5-0.8-0.8-1.1c-1-1.3-2.4-2.3-4.1-3.1c0.8-0.5,1.4-1.1,2-1.7c1.8-2,2.7-4.5,2.7-7.3c0-3.3-1.2-6.2-3.7-8.4
		c-2.4-2.2-5.9-3.4-10.2-3.4H1.7v44.7h23.7c1,0,3-0.2,6-0.6c2.4-0.3,4.2-0.8,5.4-1.5c2-1.1,3.5-2.7,4.6-4.6c1.1-1.9,1.7-4.1,1.7-6.6
		c0-0.1,0-0.1,0-0.2c2.2,5.2,6.3,9.6,11.9,12.1c11.5,5,25-0.4,29.9-11.9c1.3-2.9,1.9-6,1.9-9l5,22.3h14.8l6.3-22.7l6.3,22.7h14.8
		l8-36.3v36.3h35.9v-3.9c0.2,0.7,0.4,1.5,0.6,2.2c0.2,0.6,0.6,1,1.2,1.1l0,0c1.6,0.4,3.3,0.7,5,0.7c1.7,0,3.4-0.2,5-0.7
		c0.6-0.1,1-0.5,1.2-1.1c1.5-4.9,2.6-10,3.3-15.3v17h14.9v-20l13.6,20h14.3V59.6c0.5,2.3,1.2,4.5,2.2,6.5c1.8,3.6,4.5,6.3,7.9,8.2
		c3.3,1.8,7.6,2.7,12.8,2.7c4.2,0,7.8-0.5,10.9-1.5c3.1-1,6.6-2.8,10.5-5.5l0.6-0.4v-20H259.5z M17.5,42.8h4.4
		c2.1,0,2.9,0.4,3.2,0.7c0.3,0.3,0.7,0.7,0.7,1.8c0,0.9-0.2,1.6-0.7,2C24.8,47.5,24,48,21.8,48h-4.3V42.8z M26.6,63.6
		c-0.5,0.4-1.5,0.9-3.8,0.9h-5.2v-5.8h5.2c2.5,0,3.5,0.5,3.9,0.8c0.6,0.5,0.9,1.1,0.9,1.9C27.5,62.4,27.2,63.1,26.6,63.6z"/>
	<path fill="#1C3665" d="M80.7,66.7c7.1-9.1,5.4-22.3-3.7-29.4c-9.1-7.1-22.3-5.4-29.4,3.7c-7.1,9.1-5.4,22.3,3.7,29.4
		C60.4,77.5,73.6,75.9,80.7,66.7z M79.7,44.3c1.1,0.9,1.3,2.5,0.4,3.6c-0.9,1.1-2.5,1.3-3.6,0.4c-1.1-0.9-1.3-2.5-0.4-3.6
		C76.9,43.6,78.5,43.4,79.7,44.3z M69.6,43.1c0.9-1.1,2.5-1.3,3.6-0.4c1.1,0.9,1.3,2.5,0.4,3.6c-0.9,1.1-2.5,1.3-3.6,0.4
		C69,45.8,68.8,44.2,69.6,43.1z M72.2,50.6c0.9-1.1,2.5-1.3,3.6-0.4c1.1,0.9,1.3,2.5,0.4,3.6c-0.9,1.1-2.5,1.3-3.6,0.4
		C71.5,53.3,71.3,51.7,72.2,50.6z M46.1,56.6c0-0.2,0.2-0.3,0.3-0.1l1.8,3.2c3,5.2,7.6,9.3,13.1,11.7l2.9,1.2
		c-0.2,0.2-2.8-0.2-4.1-0.6C52.7,70.1,47.2,64,46.1,56.6z"/>
	<g>
		<path fill="#CDCCCC" d="M185.2,8.8c-8-0.2-5,12.4-4.3,16.4c0.3,1.6,0.4,3.3,0.2,4.9c-0.4,5.5-3.9,9.9-4.7,15.2
			c-0.6,4.5-0.3,9.1,0.4,13.5c0.7,5.1,1.8,10.2,3.3,15.2c0,0.1,0.1,0.1,0.2,0.1l0.1,0c3.1,0.8,6.3,0.8,9.4,0l0,0
			c0.1,0,0.1,0,0.2-0.1c1.5-5,2.6-10.1,3.3-15.2c0.6-4.5,1-9.1,0.4-13.5c-0.7-5.4-4.2-9.7-4.7-15.2c-0.1-1.6,0-3.3,0.2-4.9
			C189.8,21.2,193.2,8.6,185.2,8.8z"/>
		<path fill="#EF3D39" d="M189.1,32.5c-3.4,1.3-6.4,0.7-8.1,0.1c-0.1,0-0.2-0.2-0.1-0.3c0.2-0.7,0.3-1.4,0.3-2.1
			c0.1-0.9,0.1-1.9,0-2.8c0-0.2,0.2-0.3,0.3-0.2c1.6,0.5,4.2,1,7.2,0c0.2-0.1,0.3,0.1,0.3,0.2c-0.1,0.9-0.1,1.8,0,2.8
			c0.1,0.7,0.2,1.4,0.3,2.1C189.3,32.3,189.2,32.4,189.1,32.5z"/>
	</g>
	<path fill="#EF3D39" d="M3.1,32.9h24.3c4,0,7.1,1,9.3,3c2.2,2,3.2,4.5,3.2,7.4c0,2.5-0.8,4.6-2.3,6.4c-1,1.2-2.5,2.1-4.5,2.8
		c3,0.7,5.2,2,6.7,3.7s2.1,4,2.1,6.7c0,2.2-0.5,4.1-1.5,5.9s-2.4,3.1-4.1,4.1c-1.1,0.6-2.7,1.1-4.9,1.4c-2.9,0.4-4.9,0.6-5.8,0.6
		H3.1V32.9z M16.2,49.4h5.6c2,0,3.4-0.3,4.2-1c0.8-0.7,1.2-1.7,1.2-3c0-1.2-0.4-2.2-1.2-2.9c-0.8-0.7-2.2-1-4.1-1h-5.7V49.4z
		 M16.2,65.8h6.6c2.2,0,3.8-0.4,4.7-1.2c0.9-0.8,1.4-1.9,1.4-3.2c0-1.2-0.5-2.2-1.4-3s-2.5-1.1-4.8-1.1h-6.6V65.8z"/>
	<path fill="#EF3D39" d="M83.7,32.9H96l4.4,23.5l6.5-23.5h12.3l6.5,23.5l4.4-23.5h12.2l-9.2,41.9h-12.7l-7.4-26.4l-7.3,26.4H93
		L83.7,32.9z"/>
	<path fill="#EF3D39" d="M143.6,32.9h13v31.6h20.2v10.3h-33.2V32.9z"/>
	<path fill="#EF3D39" d="M195.9,32.9H208l15.8,23.2V32.9H236v41.9h-12.2l-15.7-23v23h-12.2V32.9z"/>
	<path fill="#EF3D39" d="M260.9,59.7v-8.7h20v17.9c-3.8,2.6-7.2,4.4-10.2,5.3c-2.9,0.9-6.4,1.4-10.5,1.4c-5,0-9-0.8-12.2-2.5
		c-3.1-1.7-5.6-4.2-7.3-7.6c-1.7-3.4-2.6-7.2-2.6-11.6c0-4.6,0.9-8.6,2.8-11.9c1.9-3.4,4.7-6,8.3-7.7c2.8-1.4,6.7-2,11.5-2
		c4.6,0,8.1,0.4,10.4,1.3s4.2,2.1,5.7,3.9s2.7,4,3.4,6.7l-12.5,2.2c-0.5-1.6-1.4-2.8-2.6-3.6c-1.2-0.8-2.8-1.3-4.7-1.3
		c-2.8,0-5.1,1-6.8,3c-1.7,2-2.5,5.1-2.5,9.4c0,4.5,0.9,7.8,2.6,9.7c1.7,1.9,4.1,2.9,7.1,2.9c1.4,0,2.8-0.2,4.1-0.6
		c1.3-0.4,2.8-1.1,4.5-2.1v-3.9H260.9z"/>
</g>
</svg>
