  0
SECTION
  2
HEADER
  9
$ACADVER
  1
AC1024
  9
$ACADMAINTVER
 70
     6
  9
$DWGCODEPAGE
  3
ANSI_1252
  9
$INSBASE
 10
0.0
 20
0.0
 30
0.0
  9
$EXTMIN
 10
1.000000000000000E+20
 20
1.000000000000000E+20
 30
1.000000000000000E+20
  9
$EXTMAX
 10
-1.000000000000000E+20
 20
-1.000000000000000E+20
 30
-1.000000000000000E+20
  9
$LIMMIN
 10
0.0
 20
0.0
  9
$LIMMAX
 10
12.0
 20
9.0
  9
$ORTHOMODE
 70
     0
  9
$REGENMODE
 70
     1
  9
$FILLMODE
 70
     1
  9
$QTEXTMODE
 70
     0
  9
$MIRRTEXT
 70
     1
  9
$LTSCALE
 40
1.0
  9
$ATTMODE
 70
     1
  9
$TEXTSIZE
 40
0.2
  9
$TRACEWID
 40
0.05
  9
$TEXTSTYLE
  7
Standard
  9
$CLAYER
  8
0
  9
$CELTYPE
  6
ByLayer
  9
$CECOLOR
 62
   256
  9
$CELTSCALE
 40
1.0
  9
$DISPSILH
 70
     0
  9
$DIMSCALE
 40
1.0
  9
$DIMASZ
 40
0.18
  9
$DIMEXO
 40
0.0625
  9
$DIMDLI
 40
0.38
  9
$DIMRND
 40
0.0
  9
$DIMDLE
 40
0.0
  9
$DIMEXE
 40
0.18
  9
$DIMTP
 40
0.0
  9
$DIMTM
 40
0.0
  9
$DIMTXT
 40
0.18
  9
$DIMCEN
 40
0.09
  9
$DIMTSZ
 40
0.0
  9
$DIMTOL
 70
     0
  9
$DIMLIM
 70
     0
  9
$DIMTIH
 70
     1
  9
$DIMTOH
 70
     1
  9
$DIMSE1
 70
     0
  9
$DIMSE2
 70
     0
  9
$DIMTAD
 70
     0
  9
$DIMZIN
 70
     0
  9
$DIMBLK
  1

  9
$DIMASO
 70
     1
  9
$DIMSHO
 70
     1
  9
$DIMPOST
  1

  9
$DIMAPOST
  1

  9
$DIMALT
 70
     0
  9
$DIMALTD
 70
     2
  9
$DIMALTF
 40
25.4
  9
$DIMLFAC
 40
1.0
  9
$DIMTOFL
 70
     0
  9
$DIMTVP
 40
0.0
  9
$DIMTIX
 70
     0
  9
$DIMSOXD
 70
     0
  9
$DIMSAH
 70
     0
  9
$DIMBLK1
  1

  9
$DIMBLK2
  1

  9
$DIMSTYLE
  2
Standard
  9
$DIMCLRD
 70
     0
  9
$DIMCLRE
 70
     0
  9
$DIMCLRT
 70
     0
  9
$DIMTFAC
 40
1.0
  9
$DIMGAP
 40
0.09
  9
$DIMJUST
 70
     0
  9
$DIMSD1
 70
     0
  9
$DIMSD2
 70
     0
  9
$DIMTOLJ
 70
     1
  9
$DIMTZIN
 70
     0
  9
$DIMALTZ
 70
     0
  9
$DIMALTTZ
 70
     0
  9
$DIMUPT
 70
     0
  9
$DIMDEC
 70
     4
  9
$DIMTDEC
 70
     4
  9
$DIMALTU
 70
     2
  9
$DIMALTTD
 70
     2
  9
$DIMTXSTY
  7
Standard
  9
$DIMAUNIT
 70
     0
  9
$DIMADEC
 70
     0
  9
$DIMALTRND
 40
0.0
  9
$DIMAZIN
 70
     0
  9
$DIMDSEP
 70
    46
  9
$DIMATFIT
 70
     3
  9
$DIMFRAC
 70
     0
  9
$DIMLDRBLK
  1

  9
$DIMLUNIT
 70
     2
  9
$DIMLWD
 70
    -2
  9
$DIMLWE
 70
    -2
  9
$DIMTMOVE
 70
     0
  9
$DIMFXL
 40
1.0
  9
$DIMFXLON
 70
     0
  9
$DIMJOGANG
 40
0.7853981633974483
  9
$DIMTFILL
 70
     0
  9
$DIMTFILLCLR
 70
     0
  9
$DIMARCSYM
 70
     0
  9
$DIMLTYPE
  6

  9
$DIMLTEX1
  6

  9
$DIMLTEX2
  6

  9
$DIMTXTDIRECTION
 70
     0
  9
$LUNITS
 70
     2
  9
$LUPREC
 70
     4
  9
$SKETCHINC
 40
0.1
  9
$FILLETRAD
 40
0.5
  9
$AUNITS
 70
     0
  9
$AUPREC
 70
     0
  9
$MENU
  1
.
  9
$ELEVATION
 40
0.0
  9
$PELEVATION
 40
0.0
  9
$THICKNESS
 40
0.0
  9
$LIMCHECK
 70
     0
  9
$CHAMFERA
 40
0.5
  9
$CHAMFERB
 40
0.5
  9
$CHAMFERC
 40
1.0
  9
$CHAMFERD
 40
0.0
  9
$SKPOLY
 70
     0
  9
$TDCREATE
 40
2457246.619056216
  9
$TDUCREATE
 40
2457246.577389549
  9
$TDUPDATE
 40
2457246.619056262
  9
$TDUUPDATE
 40
2457246.577389595
  9
$TDINDWG
 40
0.0000000116
  9
$TDUSRTIMER
 40
0.0000000116
  9
$USRTIMER
 70
     1
  9
$ANGBASE
 50
0.0
  9
$ANGDIR
 70
     0
  9
$PDMODE
 70
     0
  9
$PDSIZE
 40
0.0
  9
$PLINEWID
 40
0.0
  9
$SPLFRAME
 70
     0
  9
$SPLINETYPE
 70
     6
  9
$SPLINESEGS
 70
     8
  9
$HANDSEED
  5
50
  9
$SURFTAB1
 70
     6
  9
$SURFTAB2
 70
     6
  9
$SURFTYPE
 70
     6
  9
$SURFU
 70
     6
  9
$SURFV
 70
     6
  9
$UCSBASE
  2

  9
$UCSNAME
  2

  9
$UCSORG
 10
0.0
 20
0.0
 30
0.0
  9
$UCSXDIR
 10
1.0
 20
0.0
 30
0.0
  9
$UCSYDIR
 10
0.0
 20
1.0
 30
0.0
  9
$UCSORTHOREF
  2

  9
$UCSORTHOVIEW
 70
     0
  9
$UCSORGTOP
 10
0.0
 20
0.0
 30
0.0
  9
$UCSORGBOTTOM
 10
0.0
 20
0.0
 30
0.0
  9
$UCSORGLEFT
 10
0.0
 20
0.0
 30
0.0
  9
$UCSORGRIGHT
 10
0.0
 20
0.0
 30
0.0
  9
$UCSORGFRONT
 10
0.0
 20
0.0
 30
0.0
  9
$UCSORGBACK
 10
0.0
 20
0.0
 30
0.0
  9
$PUCSBASE
  2

  9
$PUCSNAME
  2

  9
$PUCSORG
 10
0.0
 20
0.0
 30
0.0
  9
$PUCSXDIR
 10
1.0
 20
0.0
 30
0.0
  9
$PUCSYDIR
 10
0.0
 20
1.0
 30
0.0
  9
$PUCSORTHOREF
  2

  9
$PUCSORTHOVIEW
 70
     0
  9
$PUCSORGTOP
 10
0.0
 20
0.0
 30
0.0
  9
$PUCSORGBOTTOM
 10
0.0
 20
0.0
 30
0.0
  9
$PUCSORGLEFT
 10
0.0
 20
0.0
 30
0.0
  9
$PUCSORGRIGHT
 10
0.0
 20
0.0
 30
0.0
  9
$PUCSORGFRONT
 10
0.0
 20
0.0
 30
0.0
  9
$PUCSORGBACK
 10
0.0
 20
0.0
 30
0.0
  9
$USERI1
 70
     0
  9
$USERI2
 70
     0
  9
$USERI3
 70
     0
  9
$USERI4
 70
     0
  9
$USERI5
 70
     0
  9
$USERR1
 40
0.0
  9
$USERR2
 40
0.0
  9
$USERR3
 40
0.0
  9
$USERR4
 40
0.0
  9
$USERR5
 40
0.0
  9
$WORLDVIEW
 70
     1
  9
$SHADEDGE
 70
     3
  9
$SHADEDIF
 70
    70
  9
$TILEMODE
 70
     1
  9
$MAXACTVP
 70
    64
  9
$PINSBASE
 10
0.0
 20
0.0
 30
0.0
  9
$PLIMCHECK
 70
     0
  9
$PEXTMIN
 10
1.000000000000000E+20
 20
1.000000000000000E+20
 30
1.000000000000000E+20
  9
$PEXTMAX
 10
-1.000000000000000E+20
 20
-1.000000000000000E+20
 30
-1.000000000000000E+20
  9
$PLIMMIN
 10
0.0
 20
0.0
  9
$PLIMMAX
 10
12.0
 20
9.0
  9
$UNITMODE
 70
     0
  9
$VISRETAIN
 70
     1
  9
$PLINEGEN
 70
     0
  9
$PSLTSCALE
 70
     1
  9
$TREEDEPTH
 70
  3020
  9
$CMLSTYLE
  2
Standard
  9
$CMLJUST
 70
     0
  9
$CMLSCALE
 40
1.0
  9
$PROXYGRAPHICS
 70
     1
  9
$MEASUREMENT
 70
     0
  9
$CELWEIGHT
370
    -1
  9
$ENDCAPS
280
     0
  9
$JOINSTYLE
280
     0
  9
$LWDISPLAY
290
     1
  9
$INSUNITS
 70
     1
  9
$HYPERLINKBASE
  1

  9
$STYLESHEET
  1

  9
$XEDIT
290
     1
  9
$CEPSNTYPE
380
     0
  9
$PSTYLEMODE
290
     1
  9
$FINGERPRINTGUID
  2
{DDC26A04-4B2B-48C9-8D90-BC2367201CBB}
  9
$VERSIONGUID
  2
{FAEB1C32-E019-11D5-929B-00C0DF256EC4}
  9
$EXTNAMES
290
     1
  9
$PSVPSCALE
 40
0.0
  9
$OLESTARTUP
290
     0
  9
$SORTENTS
280
   127
  9
$INDEXCTL
280
     0
  9
$HIDETEXT
280
     1
  9
$XCLIPFRAME
280
     2
  9
$HALOGAP
280
     0
  9
$OBSCOLOR
 70
   257
  9
$OBSLTYPE
280
     0
  9
$INTERSECTIONDISPLAY
280
     0
  9
$INTERSECTIONCOLOR
 70
   257
  9
$DIMASSOC
280
     2
  9
$PROJECTNAME
  1

  9
$CAMERADISPLAY
290
     0
  9
$LENSLENGTH
 40
50.0
  9
$CAMERAHEIGHT
 40
0.0
  9
$STEPSPERSEC
 40
2.0
  9
$STEPSIZE
 40
6.0
  9
$3DDWFPREC
 40
2.0
  9
$PSOLWIDTH
 40
0.25
  9
$PSOLHEIGHT
 40
4.0
  9
$LOFTANG1
 40
1.570796326794897
  9
$LOFTANG2
 40
1.570796326794897
  9
$LOFTMAG1
 40
0.0
  9
$LOFTMAG2
 40
0.0
  9
$LOFTPARAM
 70
     7
  9
$LOFTNORMALS
280
     1
  9
$LATITUDE
 40
37.795
  9
$LONGITUDE
 40
-122.394
  9
$NORTHDIRECTION
 40
0.0
  9
$TIMEZONE
 70
 -8000
  9
$LIGHTGLYPHDISPLAY
280
     1
  9
$TILEMODELIGHTSYNCH
280
     1
  9
$CMATERIAL
347
3C
  9
$SOLIDHIST
280
     1
  9
$SHOWHIST
280
     1
  9
$DWFFRAME
280
     2
  9
$DGNFRAME
280
     2
  9
$REALWORLDSCALE
290
     1
  9
$INTERFERECOLOR
 62
   256
  9
$CSHADOW
280
     0
  9
$SHADOWPLANELOCATION
 40
0.0
  0
ENDSEC
  0
SECTION
  2
CLASSES
  0
CLASS
  1
ACDBDICTIONARYWDFLT
  2
AcDbDictionaryWithDefault
  3
ObjectDBX Classes
 90
        0
 91
        4
280
     0
281
     0
  0
CLASS
  1
VISUALSTYLE
  2
AcDbVisualStyle
  3
ObjectDBX Classes
 90
     4095
 91
        4
280
     0
281
     0
  0
CLASS
  1
MATERIAL
  2
AcDbMaterial
  3
ObjectDBX Classes
 90
     1153
 91
        4
280
     0
281
     0
  0
CLASS
  1
SUN
  2
AcDbSun
  3
SCENEOE
 90
     1024
 91
        4
280
     0
281
     0
  0
ENDSEC
  0
SECTION
  2
TABLES
  0
TABLE
  2
VPORT
  5
8
330
0
100
AcDbSymbolTable
 70
     1
  0
VPORT
  5
29
330
8
100
AcDbSymbolTableRecord
100
AcDbViewportTableRecord
  2
*Active
 70
     0
 10
0.0
 20
0.0
 11
1.0
 21
1.0
 12
0.0
 22
0.0
 13
0.0
 23
0.0
 14
0.5
 24
0.5
 15
0.5
 25
0.5
 16
0.0
 26
0.0
 36
1.0
 17
4.999919443194448
 27
-4.999919443194448
 37
0.0
 40
9.999838886388897
 41
1.0
 42
50.0
 43
0.0
 44
0.0
 50
0.0
 51
0.0
 71
     0
 72
   100
 73
     1
 74
     3
 75
     0
 76
     0
 77
     0
 78
     0
281
     0
 65
     1
110
0.0
120
0.0
130
0.0
111
1.0
121
0.0
131
0.0
112
0.0
122
1.0
132
0.0
 79
     0
146
0.0
 60
     3
 61
     5
292
     1
282
     1
141
0.0
142
0.0
 63
   250
361
3F
  0
ENDTAB
  0
TABLE
  2
LTYPE
  5
5
330
0
100
AcDbSymbolTable
 70
     1
  0
LTYPE
  5
14
330
5
100
AcDbSymbolTableRecord
100
AcDbLinetypeTableRecord
  2
ByBlock
 70
     0
  3

 72
    65
 73
     0
 40
0.0
  0
LTYPE
  5
15
330
5
100
AcDbSymbolTableRecord
100
AcDbLinetypeTableRecord
  2
ByLayer
 70
     0
  3

 72
    65
 73
     0
 40
0.0
  0
LTYPE
  5
16
330
5
100
AcDbSymbolTableRecord
100
AcDbLinetypeTableRecord
  2
Continuous
 70
     0
  3
Solid line
 72
    65
 73
     0
 40
0.0
  0
ENDTAB
  0
TABLE
  2
LAYER
  5
2
330
0
100
AcDbSymbolTable
 70
     2
  0
LAYER
  5
10
330
2
100
AcDbSymbolTableRecord
100
AcDbLayerTableRecord
  2
0
 70
     0
 62
     7
  6
Continuous
370
    -3
390
F
347
3E
  0
LAYER
  5
40
330
2
100
AcDbSymbolTableRecord
100
AcDbLayerTableRecord
  2
Layer 1
 70
     0
 62
     7
  6
Continuous
370
    -3
390
F
347
3E
  0
ENDTAB
  0
TABLE
  2
STYLE
  5
3
330
0
100
AcDbSymbolTable
 70
     1
  0
STYLE
  5
11
330
3
100
AcDbSymbolTableRecord
100
AcDbTextStyleTableRecord
  2
Standard
 70
     0
 40
0.0
 41
1.0
 50
0.0
 71
     0
 42
0.2
  3
txt
  4

  0
ENDTAB
  0
TABLE
  2
VIEW
  5
6
330
0
100
AcDbSymbolTable
 70
     0
  0
ENDTAB
  0
TABLE
  2
UCS
  5
7
330
0
100
AcDbSymbolTable
 70
     0
  0
ENDTAB
  0
TABLE
  2
APPID
  5
9
330
0
100
AcDbSymbolTable
 70
     1
  0
APPID
  5
12
330
9
100
AcDbSymbolTableRecord
100
AcDbRegAppTableRecord
  2
ACAD
 70
     0
  0
ENDTAB
  0
TABLE
  2
DIMSTYLE
  5
A
330
0
100
AcDbSymbolTable
 70
     1
100
AcDbDimStyleTable
  0
DIMSTYLE
105
27
330
A
100
AcDbSymbolTableRecord
100
AcDbDimStyleTableRecord
  2
Standard
 70
     0
178
     0
340
11
  0
ENDTAB
  0
TABLE
  2
BLOCK_RECORD
  5
1
330
0
100
AcDbSymbolTable
 70
     1
  0
BLOCK_RECORD
  5
1F
330
1
100
AcDbSymbolTableRecord
100
AcDbBlockTableRecord
  2
*Model_Space
340
22
 70
     0
280
     1
281
     0
  0
BLOCK_RECORD
  5
1B
330
1
100
AcDbSymbolTableRecord
100
AcDbBlockTableRecord
  2
*Paper_Space
340
1E
 70
     0
280
     1
281
     0
  0
BLOCK_RECORD
  5
23
330
1
100
AcDbSymbolTableRecord
100
AcDbBlockTableRecord
  2
*Paper_Space0
340
26
 70
     0
280
     1
281
     0
  0
ENDTAB
  0
ENDSEC
  0
SECTION
  2
BLOCKS
  0
BLOCK
  5
20
330
1F
100
AcDbEntity
  8
0
100
AcDbBlockBegin
  2
*Model_Space
 70
     0
 10
0.0
 20
0.0
 30
0.0
  3
*Model_Space
  1

  0
ENDBLK
  5
21
330
1F
100
AcDbEntity
  8
0
100
AcDbBlockEnd
  0
BLOCK
  5
1C
330
1B
100
AcDbEntity
 67
     1
  8
0
100
AcDbBlockBegin
  2
*Paper_Space
 70
     0
 10
0.0
 20
0.0
 30
0.0
  3
*Paper_Space
  1

  0
ENDBLK
  5
1D
330
1B
100
AcDbEntity
 67
     1
  8
0
100
AcDbBlockEnd
  0
BLOCK
  5
24
330
23
100
AcDbEntity
  8
0
100
AcDbBlockBegin
  2
*Paper_Space0
 70
     0
 10
0.0
 20
0.0
 30
0.0
  3
*Paper_Space0
  1

  0
ENDBLK
  5
25
330
23
100
AcDbEntity
  8
0
100
AcDbBlockEnd
  0
ENDSEC
  0
SECTION
  2
ENTITIES
  0
SPLINE
  5
41
330
1F
100
AcDbEntity
  8
Layer 1
370
     0
100
AcDbSpline
210
0.0
220
0.0
230
1.0
 70
    11
 71
     3
 72
    29
 73
    25
 74
     0
 42
0.0000000001
 43
0.0000000001
 12
1.0
 22
0.0
 32
0.0
 13
1.0
 23
0.0
 33
0.0
 40
0.0
 40
0.0
 40
0.0
 40
0.0
 40
1.0
 40
1.0
 40
1.0
 40
2.0
 40
2.0
 40
2.0
 40
3.0
 40
3.0
 40
3.0
 40
4.0
 40
4.0
 40
4.0
 40
5.0
 40
5.0
 40
5.0
 40
6.0
 40
6.0
 40
6.0
 40
7.0
 40
7.0
 40
7.0
 40
8.0
 40
8.0
 40
8.0
 40
8.0
 10
9.74722627447683
 20
-4.992873261774185
 30
0.0
 10
9.74722627447683
 20
-2.377110454550436
 30
0.0
 10
7.619037402570232
 20
-0.2489215826437418
 30
0.0
 10
5.003273014931104
 20
-0.2489215826437418
 30
0.0
 10
2.387508627292042
 20
-0.2489215826437418
 30
0.0
 10
0.2593197553853804
 20
-2.377110454550436
 30
0.0
 10
0.2593197553853804
 20
-4.992873261774185
 30
0.0
 10
0.2593197553853804
 20
-5.848653942493694
 30
0.0
 10
0.4871824581181243
 20
-6.652130777667471
 30
0.0
 10
0.885167389281992
 20
-7.346076927978044
 30
0.0
 10
0.9144256183977777
 20
-7.39708799377892
 30
0.0
 10
0.9447221803894111
 20
-7.447579102934232
 30
0.0
 10
0.9755355381958862
 20
-7.497295808574905
 30
0.0
 10
1.38465291498667
 20
-8.152401671587334
 30
0.0
 10
1.948872252854954
 20
-8.701085526702531
 30
0.0
 10
2.616408082485192
 20
-9.09156032418957
 30
0.0
 10
2.653954009623134
 20
-9.113569188159047
 30
0.0
 10
2.692016732575982
 20
-9.135061256313652
 30
0.0
 10
2.730338643643907
 20
-9.155775760122927
 30
0.0
 10
3.40564221465077
 20
-9.526052849615565
 30
0.0
 10
4.180376036108257
 20
-9.736826521319909
 30
0.0
 10
5.003273014931104
 20
-9.736826521319909
 30
0.0
 10
7.619037402570232
 20
-9.736826521319909
 30
0.0
 10
9.74722627447683
 20
-7.608637649413247
 30
0.0
 10
9.74722627447683
 20
-4.992873261774185
 30
0.0
  0
SPLINE
  5
42
330
1F
100
AcDbEntity
  8
Layer 1
370
     0
100
AcDbSpline
210
0.0
220
0.0
230
1.0
 70
    11
 71
     3
 72
    32
 73
    28
 74
     0
 42
0.0000000001
 43
0.0000000001
 12
1.0
 22
0.0
 32
0.0
 13
1.0
 23
0.0
 33
0.0
 40
0.0
 40
0.0
 40
0.0
 40
0.0
 40
1.0
 40
1.0
 40
1.0
 40
2.0
 40
2.0
 40
2.0
 40
3.0
 40
3.0
 40
3.0
 40
4.0
 40
4.0
 40
4.0
 40
5.0
 40
5.0
 40
5.0
 40
6.0
 40
6.0
 40
6.0
 40
7.0
 40
7.0
 40
7.0
 40
8.0
 40
8.0
 40
8.0
 40
9.0
 40
9.0
 40
9.0
 40
9.0
 10
9.351313267818524
 20
-4.661177271464581
 30
0.0
 10
9.351313267818524
 20
-4.661177271464581
 30
0.0
 10
8.951517180679613
 20
-2.951687834530997
 30
0.0
 10
8.951517180679613
 20
-2.951687834530997
 30
0.0
 10
8.94970444428919
 20
-2.944696077084485
 30
0.0
 10
8.949187648474254
 20
-2.937445131522767
 30
0.0
 10
8.949963632404302
 20
-2.930195766376426
 30
0.0
 10
8.949963632404302
 20
-2.930195766376426
 30
0.0
 10
8.972662693104136
 20
-2.710359619728146
 30
0.0
 10
8.972662693104136
 20
-2.710359619728146
 30
0.0
 10
8.974562360071285
 20
-2.691961701352323
 30
0.0
 10
8.999100061365068
 20
-2.686629781152597
 30
0.0
 10
9.008305673861141
 20
-2.702671876829995
 30
0.0
 10
9.395783520222658
 20
-3.377907412417055
 30
0.0
 10
9.617758650149682
 20
-4.159891466578475
 30
0.0
 10
9.617758650149682
 20
-4.992873261774185
 30
0.0
 10
9.617758650149682
 20
-5.016465796067037
 30
0.0
 10
9.617574054171815
 20
-5.040058330359954
 30
0.0
 10
9.617205038189336
 20
-5.063621064348149
 30
0.0
 10
9.61688002132122
 20
-5.084374328074866
 30
0.0
 10
9.58944251742179
 20
-5.091449894315701
 30
0.0
 10
9.579305508192345
 20
-5.073337891799278
 30
0.0
 10
9.579305508192345
 20
-5.073337891799278
 30
0.0
 10
9.358045837149993
 20
-4.678008694793248
 30
0.0
 10
9.358045837149993
 20
-4.678008694793248
 30
0.0
 10
9.354938740599367
 20
-4.672829673737093
 30
0.0
 10
9.352866816093837
 20
-4.667133856866065
 30
0.0
 10
9.351313267818524
 20
-4.661177271464581
 30
0.0
  0
SPLINE
  5
43
330
1F
100
AcDbEntity
  8
Layer 1
370
     0
100
AcDbSpline
210
0.0
220
0.0
230
1.0
 70
    11
 71
     3
 72
    44
 73
    40
 74
     0
 42
0.0000000001
 43
0.0000000001
 12
1.0
 22
0.0
 32
0.0
 13
1.0
 23
0.0
 33
0.0
 40
0.0
 40
0.0
 40
0.0
 40
0.0
 40
1.0
 40
1.0
 40
1.0
 40
2.0
 40
2.0
 40
2.0
 40
3.0
 40
3.0
 40
3.0
 40
4.0
 40
4.0
 40
4.0
 40
5.0
 40
5.0
 40
5.0
 40
6.0
 40
6.0
 40
6.0
 40
7.0
 40
7.0
 40
7.0
 40
8.0
 40
8.0
 40
8.0
 40
9.0
 40
9.0
 40
9.0
 40
10.0
 40
10.0
 40
10.0
 40
11.0
 40
11.0
 40
11.0
 40
12.0
 40
12.0
 40
12.0
 40
13.0
 40
13.0
 40
13.0
 40
13.0
 10
9.195952118625947
 20
-4.698982386717568
 30
0.0
 10
9.195952118625947
 20
-4.698982386717568
 30
0.0
 10
8.551461905425592
 20
-5.345802132123219
 30
0.0
 10
8.551461905425592
 20
-5.345802132123219
 30
0.0
 10
8.551461905425592
 20
-5.345802132123219
 30
0.0
 10
8.550945109610717
 20
-5.346579696468612
 30
0.0
 10
8.550945109610717
 20
-5.346579696468612
 30
0.0
 10
8.527899493180803
 20
-5.369366124783418
 30
0.0
 10
8.491647926203
 20
-5.371954845103822
 30
0.0
 10
8.46575440133757
 20
-5.352275513339641
 30
0.0
 10
8.46575440133757
 20
-5.352275513339641
 30
0.0
 10
7.36527959455668
 20
-4.514879804224111
 30
0.0
 10
7.36527959455668
 20
-4.514879804224111
 30
0.0
 10
7.35362877269945
 20
-4.505816122271971
 30
0.0
 10
7.34534265509267
 20
-4.493387736069443
 30
0.0
 10
7.341717182311828
 20
-4.478887425361449
 30
0.0
 10
7.341717182311828
 20
-4.478887425361449
 30
0.0
 10
6.894276314037773
 20
-2.688608736865607
 30
0.0
 10
6.894276314037773
 20
-2.688608736865607
 30
0.0
 10
6.88780293282148
 20
-2.663492776345506
 30
0.0
 10
6.897383410588333
 20
-2.636821687134747
 30
0.0
 10
6.918099494813082
 20
-2.621286204381628
 30
0.0
 10
6.918099494813082
 20
-2.621286204381628
 30
0.0
 10
7.598839694575767
 20
-2.11144263656464
 30
0.0
 10
7.598839694575767
 20
-2.11144263656464
 30
0.0
 10
7.622144499120791
 20
-2.094092837005753
 30
0.0
 10
7.653733840857314
 20
-2.094092837005753
 30
0.0
 10
7.676779457287229
 20
-2.111701824679749
 30
0.0
 10
7.676779457287229
 20
-2.111701824679749
 30
0.0
 10
8.807030869414218
 20
-2.968517677444352
 30
0.0
 10
8.807030869414218
 20
-2.968517677444352
 30
0.0
 10
8.81920164791695
 20
-2.977838967096223
 30
0.0
 10
8.827487765523665
 20
-2.99078572952897
 30
0.0
 10
8.831113238304573
 20
-3.005286040236965
 30
0.0
 10
8.831113238304573
 20
-3.005286040236965
 30
0.0
 10
9.213042730069724
 20
-4.638650031264852
 30
0.0
 10
9.213042730069724
 20
-4.638650031264852
 30
0.0
 10
9.218220170710534
 20
-4.660401287534533
 30
0.0
 10
9.21174678949424
 20
-4.683187715849371
 30
0.0
 10
9.195952118625947
 20
-4.698982386717568
 30
0.0
  0
SPLINE
  5
44
330
1F
100
AcDbEntity
  8
Layer 1
370
     0
100
AcDbSpline
210
0.0
220
0.0
230
1.0
 70
    11
 71
     3
 72
    44
 73
    40
 74
     0
 42
0.0000000001
 43
0.0000000001
 12
1.0
 22
0.0
 32
0.0
 13
1.0
 23
0.0
 33
0.0
 40
0.0
 40
0.0
 40
0.0
 40
0.0
 40
1.0
 40
1.0
 40
1.0
 40
2.0
 40
2.0
 40
2.0
 40
3.0
 40
3.0
 40
3.0
 40
4.0
 40
4.0
 40
4.0
 40
5.0
 40
5.0
 40
5.0
 40
6.0
 40
6.0
 40
6.0
 40
7.0
 40
7.0
 40
7.0
 40
8.0
 40
8.0
 40
8.0
 40
9.0
 40
9.0
 40
9.0
 40
10.0
 40
10.0
 40
10.0
 40
11.0
 40
11.0
 40
11.0
 40
12.0
 40
12.0
 40
12.0
 40
13.0
 40
13.0
 40
13.0
 40
13.0
 10
5.621610515150921
 20
-5.487699723068272
 30
0.0
 10
5.625235987931764
 20
-5.468020391304091
 30
0.0
 10
5.63792356224937
 20
-5.450929779860314
 30
0.0
 10
5.656049345738239
 20
-5.441867678323487
 30
0.0
 10
5.656049345738239
 20
-5.441867678323487
 30
0.0
 10
7.246945996271826
 20
-4.633213402508933
 30
0.0
 10
7.246945996271826
 20
-4.633213402508933
 30
0.0
 10
7.268956440656584
 20
-4.622077796051262
 30
0.0
 10
7.295625949451997
 20
-4.624408908671968
 30
0.0
 10
7.315305281216179
 20
-4.639427595610149
 30
0.0
 10
7.315305281216179
 20
-4.639427595610149
 30
0.0
 10
8.413450555791837
 20
-5.475010568335321
 30
0.0
 10
8.413450555791837
 20
-5.475010568335321
 30
0.0
 10
8.432870699440972
 20
-5.490029255273631
 30
0.0
 10
8.442451177207953
 20
-5.51488760809384
 30
0.0
 10
8.437531344266908
 20
-5.538968396568912
 30
0.0
 10
8.437531344266908
 20
-5.538968396568912
 30
0.0
 10
8.209150265303913
 20
-6.694855725861568
 30
0.0
 10
8.209150265303913
 20
-6.694855725861568
 30
0.0
 10
8.209150265303913
 20
-6.694855725861568
 30
0.0
 10
8.09599568807515
 20
-7.267879557566881
 30
0.0
 10
8.09599568807515
 20
-7.267879557566881
 30
0.0
 10
8.09211102717926
 20
-7.287040513100844
 30
0.0
 10
8.07994182909181
 20
-7.303353560199293
 30
0.0
 10
8.062851217648097
 20
-7.312415661736055
 30
0.0
 10
8.062851217648097
 20
-7.312415661736055
 30
0.0
 10
6.542902572379333
 20
-8.123401050171282
 30
0.0
 10
6.542902572379333
 20
-8.123401050171282
 30
0.0
 10
6.520632939879465
 20
-8.135053452443794
 30
0.0
 10
6.493445054853769
 20
-8.132981527938263
 30
0.0
 10
6.473248927274649
 20
-8.117703652884908
 30
0.0
 10
6.473248927274649
 20
-8.117703652884908
 30
0.0
 10
5.333933833195617
 20
-7.256743951109243
 30
0.0
 10
5.333933833195617
 20
-7.256743951109243
 30
0.0
 10
5.314254501431434
 20
-7.241986032701452
 30
0.0
 10
5.304674023664453
 20
-7.217646056111334
 30
0.0
 10
5.309075480375344
 20
-7.193563687220981
 30
0.0
 10
5.309075480375344
 20
-7.193563687220981
 30
0.0
 10
5.621610515150921
 20
-5.487699723068272
 30
0.0
 10
5.621610515150921
 20
-5.487699723068272
 30
0.0
  0
SPLINE
  5
45
330
1F
100
AcDbEntity
  8
Layer 1
370
     0
100
AcDbSpline
210
0.0
220
0.0
230
1.0
 70
    11
 71
     3
 72
    47
 73
    43
 74
     0
 42
0.0000000001
 43
0.0000000001
 12
1.0
 22
0.0
 32
0.0
 13
1.0
 23
0.0
 33
0.0
 40
0.0
 40
0.0
 40
0.0
 40
0.0
 40
1.0
 40
1.0
 40
1.0
 40
2.0
 40
2.0
 40
2.0
 40
3.0
 40
3.0
 40
3.0
 40
4.0
 40
4.0
 40
4.0
 40
5.0
 40
5.0
 40
5.0
 40
6.0
 40
6.0
 40
6.0
 40
7.0
 40
7.0
 40
7.0
 40
8.0
 40
8.0
 40
8.0
 40
9.0
 40
9.0
 40
9.0
 40
10.0
 40
10.0
 40
10.0
 40
11.0
 40
11.0
 40
11.0
 40
12.0
 40
12.0
 40
12.0
 40
13.0
 40
13.0
 40
13.0
 40
14.0
 40
14.0
 40
14.0
 40
14.0
 10
5.492918874753692
 20
-5.472421848014853
 30
0.0
 10
5.492918874753692
 20
-5.472421848014853
 30
0.0
 10
5.181937388253362
 20
-7.170001274976191
 30
0.0
 10
5.181937388253362
 20
-7.170001274976191
 30
0.0
 10
5.1775359315426
 20
-7.194082063451136
 30
0.0
 10
5.159669336168839
 20
-7.213502207100208
 30
0.0
 10
5.136106923923987
 20
-7.220493964546849
 30
0.0
 10
5.136106923923987
 20
-7.220493964546849
 30
0.0
 10
3.520609528269859
 20
-7.685540659664208
 30
0.0
 10
3.520609528269859
 20
-7.685540659664208
 30
0.0
 10
3.498858272000178
 20
-7.69201404088063
 30
0.0
 10
3.475555047870467
 20
-7.686318224009537
 30
0.0
 10
3.458723624541832
 20
-7.671040348956181
 30
0.0
 10
3.458723624541832
 20
-7.671040348956181
 30
0.0
 10
2.098019208946316
 20
-6.410543748156651
 30
0.0
 10
2.098019208946316
 20
-6.410543748156651
 30
0.0
 10
2.081446973732758
 20
-6.395008265403595
 30
0.0
 10
2.074197608586385
 20
-6.371962648973616
 30
0.0
 10
2.078858253412353
 20
-6.349694596889029
 30
0.0
 10
2.078858253412353
 20
-6.349694596889029
 30
0.0
 10
2.443180337918854
 20
-4.645123412481178
 30
0.0
 10
2.443180337918854
 20
-4.645123412481178
 30
0.0
 10
2.448359358975009
 20
-4.621042624006201
 30
0.0
 10
2.466742750163643
 20
-4.601881668472239
 30
0.0
 10
2.490565930938887
 20
-4.595926663486101
 30
0.0
 10
2.490565930938887
 20
-4.595926663486101
 30
0.0
 10
2.946550524519485
 20
-4.480959349866979
 30
0.0
 10
2.946550524519485
 20
-4.480959349866979
 30
0.0
 10
2.946550524519485
 20
-4.480959349866979
 30
0.0
 10
4.079909033197162
 20
-4.195353012001829
 30
0.0
 10
4.079909033197162
 20
-4.195353012001829
 30
0.0
 10
4.100882725121514
 20
-4.190173990945674
 30
0.0
 10
4.123152357621446
 20
-4.195612200116938
 30
0.0
 10
4.139206216604784
 20
-4.210112510824997
 30
0.0
 10
4.139206216604784
 20
-4.210112510824997
 30
0.0
 10
4.368104091382621
 20
-4.416742333518215
 30
0.0
 10
4.368104091382621
 20
-4.416742333518215
 30
0.0
 10
4.368104091382621
 20
-4.416742333518215
 30
0.0
 10
5.472463559059591
 20
-5.412867056907434
 30
0.0
 10
5.472463559059591
 20
-5.412867056907434
 30
0.0
 10
5.489294982388194
 20
-5.427884163430398
 30
0.0
 10
5.496803535649645
 20
-5.45041298404544
 30
0.0
 10
5.492918874753692
 20
-5.472421848014853
 30
0.0
  0
SPLINE
  5
46
330
1F
100
AcDbEntity
  8
Layer 1
370
     0
100
AcDbSpline
210
0.0
220
0.0
230
1.0
 70
    11
 71
     3
 72
    29
 73
    25
 74
     0
 42
0.0000000001
 43
0.0000000001
 12
1.0
 22
0.0
 32
0.0
 13
1.0
 23
0.0
 33
0.0
 40
0.0
 40
0.0
 40
0.0
 40
0.0
 40
1.0
 40
1.0
 40
1.0
 40
2.0
 40
2.0
 40
2.0
 40
3.0
 40
3.0
 40
3.0
 40
4.0
 40
4.0
 40
4.0
 40
5.0
 40
5.0
 40
5.0
 40
6.0
 40
6.0
 40
6.0
 40
7.0
 40
7.0
 40
7.0
 40
8.0
 40
8.0
 40
8.0
 40
8.0
 10
5.61617230597972
 20
-9.352308309234289
 30
0.0
 10
5.61617230597972
 20
-9.352308309234289
 30
0.0
 10
6.533579702312116
 20
-8.280056559524125
 30
0.0
 10
6.533579702312116
 20
-8.280056559524125
 30
0.0
 10
6.538758723368271
 20
-8.273842366422878
 30
0.0
 10
6.545232104584628
 20
-8.268663345366722
 30
0.0
 10
6.552223862031204
 20
-8.26503787258588
 30
0.0
 10
6.552223862031204
 20
-8.26503787258588
 30
0.0
 10
8.107388902232616
 20
-7.435409904846845
 30
0.0
 10
8.107388902232616
 20
-7.435409904846845
 30
0.0
 10
8.129138578086984
 20
-7.423757502574397
 30
0.0
 10
8.155291291067522
 20
-7.425570238964819
 30
0.0
 10
8.17522981094688
 20
-7.439552173442562
 30
0.0
 10
8.17522981094688
 20
-7.439552173442562
 30
0.0
 10
8.670832256170948
 20
-7.790668307401239
 30
0.0
 10
8.670832256170948
 20
-7.790668307401239
 30
0.0
 10
7.961608230806956
 20
-8.7179169500312
 30
0.0
 10
6.909295000976019
 20
-9.36939734026272
 30
0.0
 10
5.705505282848458
 20
-9.554018298986525
 30
0.0
 10
5.705505282848458
 20
-9.554018298986525
 30
0.0
 10
5.613842773774361
 20
-9.43361277619614
 30
0.0
 10
5.613842773774361
 20
-9.43361277619614
 30
0.0
 10
5.595457802170381
 20
-9.409531987721131
 30
0.0
 10
5.596492974215474
 20
-9.375611533364033
 30
0.0
 10
5.61617230597972
 20
-9.352308309234289
 30
0.0
  0
SPLINE
  5
47
330
1F
100
AcDbEntity
  8
Layer 1
370
     0
100
AcDbSpline
210
0.0
220
0.0
230
1.0
 70
    11
 71
     3
 72
    29
 73
    25
 74
     0
 42
0.0000000001
 43
0.0000000001
 12
1.0
 22
0.0
 32
0.0
 13
1.0
 23
0.0
 33
0.0
 40
0.0
 40
0.0
 40
0.0
 40
0.0
 40
1.0
 40
1.0
 40
1.0
 40
2.0
 40
2.0
 40
2.0
 40
3.0
 40
3.0
 40
3.0
 40
4.0
 40
4.0
 40
4.0
 40
5.0
 40
5.0
 40
5.0
 40
6.0
 40
6.0
 40
6.0
 40
7.0
 40
7.0
 40
7.0
 40
8.0
 40
8.0
 40
8.0
 40
8.0
 10
2.948620868609702
 20
-9.124184837971187
 30
0.0
 10
2.948620868609702
 20
-9.124184837971187
 30
0.0
 10
3.567217556944596
 20
-9.034075877172338
 30
0.0
 10
3.567217556944596
 20
-9.034075877172338
 30
0.0
 10
3.574985298321155
 20
-9.033040705127245
 30
0.0
 10
3.58275462011306
 20
-9.03329989324229
 30
0.0
 10
3.590263173374511
 20
-9.035112629632712
 30
0.0
 10
3.590263173374511
 20
-9.035112629632712
 30
0.0
 10
4.72336407435236
 20
-9.284984196334964
 30
0.0
 10
4.72336407435236
 20
-9.284984196334964
 30
0.0
 10
4.72336407435236
 20
-9.284984196334964
 30
0.0
 10
5.438802292817537
 20
-9.442676458148247
 30
0.0
 10
5.438802292817537
 20
-9.442676458148247
 30
0.0
 10
5.453819399340502
 20
-9.446042742813981
 30
0.0
 10
5.467025349888326
 20
-9.454586468120525
 30
0.0
 10
5.476348219955543
 20
-9.466757246623256
 30
0.0
 10
5.476348219955543
 20
-9.466757246623256
 30
0.0
 10
5.558430251262594
 20
-9.57421442656558
 30
0.0
 10
5.558430251262594
 20
-9.57421442656558
 30
0.0
 10
5.376398012859259
 20
-9.595965682835294
 30
0.0
 10
5.191001070205534
 20
-9.607358896992697
 30
0.0
 10
5.003273014931104
 20
-9.607358896992697
 30
0.0
 10
4.265566744381309
 20
-9.607358896992697
 30
0.0
 10
3.567735933174815
 20
-9.43335358808103
 30
0.0
 10
2.948620868609702
 20
-9.124184837971187
 30
0.0
  0
SPLINE
  5
48
330
1F
100
AcDbEntity
  8
Layer 1
370
     0
100
AcDbSpline
210
0.0
220
0.0
230
1.0
 70
    11
 71
     3
 72
    35
 73
    31
 74
     0
 42
0.0000000001
 43
0.0000000001
 12
1.0
 22
0.0
 32
0.0
 13
1.0
 23
0.0
 33
0.0
 40
0.0
 40
0.0
 40
0.0
 40
0.0
 40
1.0
 40
1.0
 40
1.0
 40
2.0
 40
2.0
 40
2.0
 40
3.0
 40
3.0
 40
3.0
 40
4.0
 40
4.0
 40
4.0
 40
5.0
 40
5.0
 40
5.0
 40
6.0
 40
6.0
 40
6.0
 40
7.0
 40
7.0
 40
7.0
 40
8.0
 40
8.0
 40
8.0
 40
9.0
 40
9.0
 40
9.0
 40
10.0
 40
10.0
 40
10.0
 40
10.0
 10
0.9454981643193944
 20
-6.495992064129564
 30
0.0
 10
0.9423910677687384
 20
-6.457151776831355
 30
0.0
 10
0.9739819899205422
 20
-6.424268074934695
 30
0.0
 10
1.013079884918483
 20
-6.426080811325116
 30
0.0
 10
1.013079884918483
 20
-6.426080811325116
 30
0.0
 10
1.949909005315392
 20
-6.470357727379179
 30
0.0
 10
1.949909005315392
 20
-6.470357727379179
 30
0.0
 10
1.965185299953402
 20
-6.471135291724572
 30
0.0
 10
1.979685610661429
 20
-6.47734948482582
 30
0.0
 10
1.990819636703754
 20
-6.487707526938066
 30
0.0
 10
1.990819636703754
 20
-6.487707526938066
 30
0.0
 10
3.388293995507229
 20
-7.781865393979586
 30
0.0
 10
3.388293995507229
 20
-7.781865393979586
 30
0.0
 10
3.399946397779741
 20
-7.79274023190677
 30
0.0
 10
3.40719576292605
 20
-7.80749973072997
 30
0.0
 10
3.408490123086284
 20
-7.823294401598135
 30
0.0
 10
3.408490123086284
 20
-7.823294401598135
 30
0.0
 10
3.505331653216536
 20
-8.850232482793862
 30
0.0
 10
3.505331653216536
 20
-8.850232482793862
 30
0.0
 10
3.508440330182505
 20
-8.884669732965898
 30
0.0
 10
3.484357961292151
 20
-8.915483090772373
 30
0.0
 10
3.450179899235256
 20
-8.920402923713418
 30
0.0
 10
3.450179899235256
 20
-8.920402923713418
 30
0.0
 10
2.754937808349167
 20
-9.021647490969778
 30
0.0
 10
2.754937808349167
 20
-9.021647490969778
 30
0.0
 10
2.031731848507398
 20
-8.616413194659602
 30
0.0
 10
1.42815384711075
 20
-8.022156482914921
 30
0.0
 10
1.011785524758281
 20
-7.306460656749916
 30
0.0
 10
1.011785524758281
 20
-7.306460656749916
 30
0.0
 10
0.9454981643193944
 20
-6.495992064129564
 30
0.0
 10
0.9454981643193944
 20
-6.495992064129564
 30
0.0
  0
SPLINE
  5
49
330
1F
100
AcDbEntity
  8
Layer 1
370
     0
100
AcDbSpline
210
0.0
220
0.0
230
1.0
 70
    11
 71
     3
 72
    32
 73
    28
 74
     0
 42
0.0000000001
 43
0.0000000001
 12
1.0
 22
0.0
 32
0.0
 13
1.0
 23
0.0
 33
0.0
 40
0.0
 40
0.0
 40
0.0
 40
0.0
 40
1.0
 40
1.0
 40
1.0
 40
2.0
 40
2.0
 40
2.0
 40
3.0
 40
3.0
 40
3.0
 40
4.0
 40
4.0
 40
4.0
 40
5.0
 40
5.0
 40
5.0
 40
6.0
 40
6.0
 40
6.0
 40
7.0
 40
7.0
 40
7.0
 40
8.0
 40
8.0
 40
8.0
 40
9.0
 40
9.0
 40
9.0
 40
9.0
 10
0.433841860111953
 20
-4.455323432701314
 30
0.0
 10
0.452486019831042
 20
-4.464387114653389
 30
0.0
 10
0.4654327822637247
 20
-4.481476145681821
 30
0.0
 10
0.4690582550445999
 20
-4.501673853676254
 30
0.0
 10
0.4690582550445999
 20
-4.501673853676254
 30
0.0
 10
0.6044808843578864
 20
-5.251291714613608
 30
0.0
 10
0.6044808843578864
 20
-5.251291714613608
 30
0.0
 10
0.6044808843578864
 20
-5.251291714613608
 30
0.0
 10
0.8043781377197017
 20
-6.359793450886294
 30
0.0
 10
0.8043781377197017
 20
-6.359793450886294
 30
0.0
 10
0.8047664406623791
 20
-6.362767145990046
 30
0.0
 10
0.80540018037888
 20
-6.367620440891453
 30
0.0
 10
0.8057884833215895
 20
-6.370594135995269
 30
0.0
 10
0.8057884833215895
 20
-6.370594135995269
 30
0.0
 10
0.8537197799922249
 20
-6.959032425431755
 30
0.0
 10
0.8537197799922249
 20
-6.959032425431755
 30
0.0
 10
0.8547538355600786
 20
-6.971727218433166
 30
0.0
 10
0.8372456709628059
 20
-6.976516899984357
 30
0.0
 10
0.8317837184555301
 20
-6.965010635817697
 30
0.0
 10
0.5477868934204537
 20
-6.366736943952029
 30
0.0
 10
0.3887873797125607
 20
-5.697944969617449
 30
0.0
 10
0.3887873797125607
 20
-4.992873261774185
 30
0.0
 10
0.3887873797125607
 20
-4.808770679280631
 30
0.0
 10
0.3996637980550898
 20
-4.62725681710745
 30
0.0
 10
0.420637489979474
 20
-4.448850051484924
 30
0.0
 10
0.420637489979474
 20
-4.448850051484924
 30
0.0
 10
0.433841860111953
 20
-4.455323432701314
 30
0.0
 10
0.433841860111953
 20
-4.455323432701314
 30
0.0
  0
SPLINE
  5
4A
330
1F
100
AcDbEntity
  8
Layer 1
370
     0
100
AcDbSpline
210
0.0
220
0.0
230
1.0
 70
    11
 71
     3
 72
    35
 73
    31
 74
     0
 42
0.0000000001
 43
0.0000000001
 12
1.0
 22
0.0
 32
0.0
 13
1.0
 23
0.0
 33
0.0
 40
0.0
 40
0.0
 40
0.0
 40
0.0
 40
1.0
 40
1.0
 40
1.0
 40
2.0
 40
2.0
 40
2.0
 40
3.0
 40
3.0
 40
3.0
 40
4.0
 40
4.0
 40
4.0
 40
5.0
 40
5.0
 40
5.0
 40
6.0
 40
6.0
 40
6.0
 40
7.0
 40
7.0
 40
7.0
 40
8.0
 40
8.0
 40
8.0
 40
9.0
 40
9.0
 40
9.0
 40
10.0
 40
10.0
 40
10.0
 40
10.0
 10
2.183208336804055
 20
-1.847069178739015
 30
0.0
 10
2.183208336804055
 20
-1.847069178739015
 30
0.0
 10
1.444985270439417
 20
-3.369608124743466
 30
0.0
 10
1.444985270439417
 20
-3.369608124743466
 30
0.0
 10
1.441878173888826
 20
-3.375564710144949
 30
0.0
 10
1.437993512992873
 20
-3.381260527015978
 30
0.0
 10
1.433332868166937
 20
-3.386180359957056
 30
0.0
 10
1.433332868166937
 20
-3.386180359957056
 30
0.0
 10
1.241720151996555
 20
-3.584783253158604
 30
0.0
 10
1.241720151996555
 20
-3.584783253158604
 30
0.0
 10
1.241720151996555
 20
-3.584783253158604
 30
0.0
 10
0.5400062603094218
 20
-4.313168234056561
 30
0.0
 10
0.5400062603094218
 20
-4.313168234056561
 30
0.0
 10
0.5205861166603496
 20
-4.333365942050897
 30
0.0
 10
0.4902911350840936
 20
-4.338544963107084
 30
0.0
 10
0.4649144060335377
 20
-4.326114996489211
 30
0.0
 10
0.4649144060335377
 20
-4.326114996489211
 30
0.0
 10
0.4387616930529984
 20
-4.313427422171638
 30
0.0
 10
0.4387616930529984
 20
-4.313427422171638
 30
0.0
 10
0.6031070065069867
 20
-3.203403160371672
 30
0.0
 10
1.164392044037351
 20
-2.220959714498294
 30
0.0
 10
1.973267955954838
 20
-1.515445934240755
 30
0.0
 10
1.997232801004335
 20
-1.494543434642201
 30
0.0
 10
2.034621152227381
 20
-1.501959113338248
 30
0.0
 10
2.049176822702527
 20
-1.53023208178397
 30
0.0
 10
2.049176822702527
 20
-1.53023208178397
 30
0.0
 10
2.182432352874072
 20
-1.789067935906907
 30
0.0
 10
2.182432352874072
 20
-1.789067935906907
 30
0.0
 10
2.191753642525976
 20
-1.807193719395745
 30
0.0
 10
2.192012830641053
 20
-1.828684207135003
 30
0.0
 10
2.183208336804055
 20
-1.847069178739015
 30
0.0
  0
SPLINE
  5
4B
330
1F
100
AcDbEntity
  8
Layer 1
370
     0
100
AcDbSpline
210
0.0
220
0.0
230
1.0
 70
    11
 71
     3
 72
    56
 73
    52
 74
     0
 42
0.0000000001
 43
0.0000000001
 12
1.0
 22
0.0
 32
0.0
 13
1.0
 23
0.0
 33
0.0
 40
0.0
 40
0.0
 40
0.0
 40
0.0
 40
1.0
 40
1.0
 40
1.0
 40
2.0
 40
2.0
 40
2.0
 40
3.0
 40
3.0
 40
3.0
 40
4.0
 40
4.0
 40
4.0
 40
5.0
 40
5.0
 40
5.0
 40
6.0
 40
6.0
 40
6.0
 40
7.0
 40
7.0
 40
7.0
 40
8.0
 40
8.0
 40
8.0
 40
9.0
 40
9.0
 40
9.0
 40
10.0
 40
10.0
 40
10.0
 40
11.0
 40
11.0
 40
11.0
 40
12.0
 40
12.0
 40
12.0
 40
13.0
 40
13.0
 40
13.0
 40
14.0
 40
14.0
 40
14.0
 40
15.0
 40
15.0
 40
15.0
 40
16.0
 40
16.0
 40
16.0
 40
17.0
 40
17.0
 40
17.0
 40
17.0
 10
4.055828244722122
 20
-1.393673305478822
 30
0.0
 10
4.055828244722122
 20
-1.393673305478822
 30
0.0
 10
4.845321565002776
 20
-2.292956498737757
 30
0.0
 10
4.845321565002776
 20
-2.292956498737757
 30
0.0
 10
4.86215298833138
 20
-2.31211745427172
 30
0.0
 10
4.866037649227365
 20
-2.339305339297352
 30
0.0
 10
4.855679607115055
 20
-2.362350955727267
 30
0.0
 10
4.855679607115055
 20
-2.362350955727267
 30
0.0
 10
4.517510235589093
 20
-3.107824967653655
 30
0.0
 10
4.517510235589093
 20
-3.107824967653655
 30
0.0
 10
4.517510235589093
 20
-3.107824967653655
 30
0.0
 10
4.098034816686
 20
-4.032224121432691
 30
0.0
 10
4.098034816686
 20
-4.032224121432691
 30
0.0
 10
4.08974869907922
 20
-4.050090716806419
 30
0.0
 10
4.073954028210991
 20
-4.063296667354243
 30
0.0
 10
4.054793072677029
 20
-4.068216500295321
 30
0.0
 10
4.054793072677029
 20
-4.068216500295321
 30
0.0
 10
2.916253962527915
 20
-4.355115617905264
 30
0.0
 10
2.916253962527915
 20
-4.355115617905264
 30
0.0
 10
2.916253962527915
 20
-4.355115617905264
 30
0.0
 10
2.461822917222598
 20
-4.469566135709544
 30
0.0
 10
2.461822917222598
 20
-4.469566135709544
 30
0.0
 10
2.43722375251737
 20
-4.475780328810792
 30
0.0
 10
2.41133022765194
 20
-4.466975834973827
 30
0.0
 10
2.395535556783679
 20
-4.44729650320958
 30
0.0
 10
2.395535556783679
 20
-4.44729650320958
 30
0.0
 10
2.012052516743248
 20
-3.964383212718493
 30
0.0
 10
2.012052516743248
 20
-3.964383212718493
 30
0.0
 10
2.012052516743248
 20
-3.964383212718493
 30
0.0
 10
1.595426586691014
 20
-3.439780146078368
 30
0.0
 10
1.595426586691014
 20
-3.439780146078368
 30
0.0
 10
1.580148711637627
 20
-3.4203600024292
 30
0.0
 10
1.577041615087003
 20
-3.393688913218538
 30
0.0
 10
1.587916453014186
 20
-3.37116167301881
 30
0.0
 10
1.587916453014186
 20
-3.37116167301881
 30
0.0
 10
2.062804394429015
 20
-2.391868372958259
 30
0.0
 10
2.062804394429015
 20
-2.391868372958259
 30
0.0
 10
2.062804394429015
 20
-2.391868372958259
 30
0.0
 10
2.303095483364254
 20
-1.896526696264611
 30
0.0
 10
2.303095483364254
 20
-1.896526696264611
 30
0.0
 10
2.310864805156159
 20
-1.880213649166131
 30
0.0
 10
2.325365115864186
 20
-1.868042870663399
 30
0.0
 10
2.342713335007727
 20
-1.862863849607244
 30
0.0
 10
2.342713335007727
 20
-1.862863849607244
 30
0.0
 10
2.943443427968893
 20
-1.684716272099796
 30
0.0
 10
2.943443427968893
 20
-1.684716272099796
 30
0.0
 10
2.943443427968893
 20
-1.684716272099796
 30
0.0
 10
3.98876490035322
 20
-1.374512349944859
 30
0.0
 10
3.98876490035322
 20
-1.374512349944859
 30
0.0
 10
4.013104876943338
 20
-1.367262984798487
 30
0.0
 10
4.039257589923909
 20
-1.374771538059969
 30
0.0
 10
4.055828244722122
 20
-1.393673305478822
 30
0.0
  0
SPLINE
  5
4C
330
1F
100
AcDbEntity
  8
Layer 1
370
     0
100
AcDbSpline
210
0.0
220
0.0
230
1.0
 70
    11
 71
     3
 72
    41
 73
    37
 74
     0
 42
0.0000000001
 43
0.0000000001
 12
1.0
 22
0.0
 32
0.0
 13
1.0
 23
0.0
 33
0.0
 40
0.0
 40
0.0
 40
0.0
 40
0.0
 40
1.0
 40
1.0
 40
1.0
 40
2.0
 40
2.0
 40
2.0
 40
3.0
 40
3.0
 40
3.0
 40
4.0
 40
4.0
 40
4.0
 40
5.0
 40
5.0
 40
5.0
 40
6.0
 40
6.0
 40
6.0
 40
7.0
 40
7.0
 40
7.0
 40
8.0
 40
8.0
 40
8.0
 40
9.0
 40
9.0
 40
9.0
 40
10.0
 40
10.0
 40
10.0
 40
11.0
 40
11.0
 40
11.0
 40
12.0
 40
12.0
 40
12.0
 40
12.0
 10
6.618770410585264
 20
-0.6702081575219756
 30
0.0
 10
6.608153180357716
 20
-0.6904058655163444
 30
0.0
 10
6.607893992242735
 20
-0.7157810141516191
 30
0.0
 10
6.624466227456293
 20
-0.7380490662361415
 30
0.0
 10
6.624466227456293
 20
-0.7380490662361415
 30
0.0
 10
7.509765905822075
 20
-1.936142967492706
 30
0.0
 10
7.509765905822075
 20
-1.936142967492706
 30
0.0
 10
7.530739597746459
 20
-1.964884400793651
 30
0.0
 10
7.525043780875366
 20
-2.005020628667343
 30
0.0
 10
7.49655995527425
 20
-2.026511116406601
 30
0.0
 10
7.49655995527425
 20
-2.026511116406601
 30
0.0
 10
6.815819755511501
 20
-2.536095496108543
 30
0.0
 10
6.815819755511501
 20
-2.536095496108543
 30
0.0
 10
6.801837821033693
 20
-2.546712726335931
 30
0.0
 10
6.783971225659869
 20
-2.550854994931711
 30
0.0
 10
6.766621426101047
 20
-2.548007086496165
 30
0.0
 10
6.766621426101047
 20
-2.548007086496165
 30
0.0
 10
5.005344939436636
 20
-2.256704931759985
 30
0.0
 10
5.005344939436636
 20
-2.256704931759985
 30
0.0
 10
4.9905854406135
 20
-2.254373819139377
 30
0.0
 10
4.977120301950566
 20
-2.246865265877926
 30
0.0
 10
4.967280636068475
 20
-2.235731239835601
 30
0.0
 10
4.967280636068475
 20
-2.235731239835601
 30
0.0
 10
4.181412788568695
 20
-1.340332707472619
 30
0.0
 10
4.181412788568695
 20
-1.340332707472619
 30
0.0
 10
4.15836717213878
 20
-1.314179994492048
 30
0.0
 10
4.160179908529201
 20
-1.274304535148874
 30
0.0
 10
4.185814245279489
 20
-1.250482934788912
 30
0.0
 10
4.185814245279489
 20
-1.250482934788912
 30
0.0
 10
5.07784649297677
 20
-0.4182646663142235
 30
0.0
 10
5.07784649297677
 20
-0.4182646663142235
 30
0.0
 10
5.089756502949046
 20
-0.4071306402718982
 30
0.0
 10
5.096229884165468
 20
-0.3934063134938867
 30
0.0
 10
5.09804262055589
 20
-0.3794243790160149
 30
0.0
 10
5.631966976847885
 20
-0.3900400288281212
 30
0.0
 10
6.143882469170404
 20
-0.4920605800145278
 30
0.0
 10
6.618770410585264
 20
-0.6702081575219756
 30
0.0
  0
HATCH
  5
4D
330
1F
100
AcDbEntity
  8
Layer 1
 62
   250
420
  1842203
100
AcDbHatch
 10
0.0
 20
0.0
 30
0.0
210
0.0
220
0.0
230
1.0
  2
SOLID
 70
     1
 71
     0
 91
       12
 92
        1
 93
        1
 72
     4
 94
        3
 73
     0
 74
     1
 95
       29
 96
       25
 40
0.0
 40
0.0
 40
0.0
 40
0.0
 40
1.0
 40
1.0
 40
1.0
 40
2.0
 40
2.0
 40
2.0
 40
3.0
 40
3.0
 40
3.0
 40
4.0
 40
4.0
 40
4.0
 40
5.0
 40
5.0
 40
5.0
 40
6.0
 40
6.0
 40
6.0
 40
7.0
 40
7.0
 40
7.0
 40
8.0
 40
8.0
 40
8.0
 40
8.0
 10
9.74722627447683
 20
-4.992873261774185
 10
9.74722627447683
 20
-2.377110454550436
 10
7.619037402570232
 20
-0.2489215826437418
 10
5.003273014931104
 20
-0.2489215826437418
 10
2.387508627292042
 20
-0.2489215826437418
 10
0.2593197553853804
 20
-2.377110454550436
 10
0.2593197553853804
 20
-4.992873261774185
 10
0.2593197553853804
 20
-5.848653942493694
 10
0.4871824581181243
 20
-6.652130777667471
 10
0.885167389281992
 20
-7.346076927978044
 10
0.9144256183977777
 20
-7.39708799377892
 10
0.9447221803894111
 20
-7.447579102934232
 10
0.9755355381958862
 20
-7.497295808574905
 10
1.38465291498667
 20
-8.152401671587334
 10
1.948872252854954
 20
-8.701085526702531
 10
2.616408082485192
 20
-9.09156032418957
 10
2.653954009623134
 20
-9.113569188159047
 10
2.692016732575982
 20
-9.135061256313652
 10
2.730338643643907
 20
-9.155775760122927
 10
3.40564221465077
 20
-9.526052849615565
 10
4.180376036108257
 20
-9.736826521319909
 10
5.003273014931104
 20
-9.736826521319909
 10
7.619037402570232
 20
-9.736826521319909
 10
9.74722627447683
 20
-7.608637649413247
 10
9.74722627447683
 20
-4.992873261774185
 97
        0
 97
        0
 92
        1
 93
        1
 72
     4
 94
        3
 73
     0
 74
     1
 95
       32
 96
       28
 40
0.0
 40
0.0
 40
0.0
 40
0.0
 40
1.0
 40
1.0
 40
1.0
 40
2.0
 40
2.0
 40
2.0
 40
3.0
 40
3.0
 40
3.0
 40
4.0
 40
4.0
 40
4.0
 40
5.0
 40
5.0
 40
5.0
 40
6.0
 40
6.0
 40
6.0
 40
7.0
 40
7.0
 40
7.0
 40
8.0
 40
8.0
 40
8.0
 40
9.0
 40
9.0
 40
9.0
 40
9.0
 10
9.351313267818524
 20
-4.661177271464581
 10
9.351313267818524
 20
-4.661177271464581
 10
8.951517180679613
 20
-2.951687834530997
 10
8.951517180679613
 20
-2.951687834530997
 10
8.94970444428919
 20
-2.944696077084485
 10
8.949187648474254
 20
-2.937445131522767
 10
8.949963632404302
 20
-2.930195766376426
 10
8.949963632404302
 20
-2.930195766376426
 10
8.972662693104136
 20
-2.710359619728146
 10
8.972662693104136
 20
-2.710359619728146
 10
8.974562360071285
 20
-2.691961701352323
 10
8.999100061365068
 20
-2.686629781152597
 10
9.008305673861141
 20
-2.702671876829995
 10
9.395783520222658
 20
-3.377907412417055
 10
9.617758650149682
 20
-4.159891466578475
 10
9.617758650149682
 20
-4.992873261774185
 10
9.617758650149682
 20
-5.016465796067037
 10
9.617574054171815
 20
-5.040058330359954
 10
9.617205038189336
 20
-5.063621064348149
 10
9.61688002132122
 20
-5.084374328074866
 10
9.58944251742179
 20
-5.091449894315701
 10
9.579305508192345
 20
-5.073337891799278
 10
9.579305508192345
 20
-5.073337891799278
 10
9.358045837149993
 20
-4.678008694793248
 10
9.358045837149993
 20
-4.678008694793248
 10
9.354938740599367
 20
-4.672829673737093
 10
9.352866816093837
 20
-4.667133856866065
 10
9.351313267818524
 20
-4.661177271464581
 97
        0
 97
        0
 92
        1
 93
        1
 72
     4
 94
        3
 73
     0
 74
     1
 95
       44
 96
       40
 40
0.0
 40
0.0
 40
0.0
 40
0.0
 40
1.0
 40
1.0
 40
1.0
 40
2.0
 40
2.0
 40
2.0
 40
3.0
 40
3.0
 40
3.0
 40
4.0
 40
4.0
 40
4.0
 40
5.0
 40
5.0
 40
5.0
 40
6.0
 40
6.0
 40
6.0
 40
7.0
 40
7.0
 40
7.0
 40
8.0
 40
8.0
 40
8.0
 40
9.0
 40
9.0
 40
9.0
 40
10.0
 40
10.0
 40
10.0
 40
11.0
 40
11.0
 40
11.0
 40
12.0
 40
12.0
 40
12.0
 40
13.0
 40
13.0
 40
13.0
 40
13.0
 10
9.195952118625947
 20
-4.698982386717568
 10
9.195952118625947
 20
-4.698982386717568
 10
8.551461905425592
 20
-5.345802132123219
 10
8.551461905425592
 20
-5.345802132123219
 10
8.551461905425592
 20
-5.345802132123219
 10
8.550945109610717
 20
-5.346579696468612
 10
8.550945109610717
 20
-5.346579696468612
 10
8.527899493180803
 20
-5.369366124783418
 10
8.491647926203
 20
-5.371954845103822
 10
8.46575440133757
 20
-5.352275513339641
 10
8.46575440133757
 20
-5.352275513339641
 10
7.36527959455668
 20
-4.514879804224111
 10
7.36527959455668
 20
-4.514879804224111
 10
7.35362877269945
 20
-4.505816122271971
 10
7.34534265509267
 20
-4.493387736069443
 10
7.341717182311828
 20
-4.478887425361449
 10
7.341717182311828
 20
-4.478887425361449
 10
6.894276314037773
 20
-2.688608736865607
 10
6.894276314037773
 20
-2.688608736865607
 10
6.88780293282148
 20
-2.663492776345506
 10
6.897383410588333
 20
-2.636821687134747
 10
6.918099494813082
 20
-2.621286204381628
 10
6.918099494813082
 20
-2.621286204381628
 10
7.598839694575767
 20
-2.11144263656464
 10
7.598839694575767
 20
-2.11144263656464
 10
7.622144499120791
 20
-2.094092837005753
 10
7.653733840857314
 20
-2.094092837005753
 10
7.676779457287229
 20
-2.111701824679749
 10
7.676779457287229
 20
-2.111701824679749
 10
8.807030869414218
 20
-2.968517677444352
 10
8.807030869414218
 20
-2.968517677444352
 10
8.81920164791695
 20
-2.977838967096223
 10
8.827487765523665
 20
-2.99078572952897
 10
8.831113238304573
 20
-3.005286040236965
 10
8.831113238304573
 20
-3.005286040236965
 10
9.213042730069724
 20
-4.638650031264852
 10
9.213042730069724
 20
-4.638650031264852
 10
9.218220170710534
 20
-4.660401287534533
 10
9.21174678949424
 20
-4.683187715849371
 10
9.195952118625947
 20
-4.698982386717568
 97
        0
 97
        0
 92
        1
 93
        1
 72
     4
 94
        3
 73
     0
 74
     1
 95
       44
 96
       40
 40
0.0
 40
0.0
 40
0.0
 40
0.0
 40
1.0
 40
1.0
 40
1.0
 40
2.0
 40
2.0
 40
2.0
 40
3.0
 40
3.0
 40
3.0
 40
4.0
 40
4.0
 40
4.0
 40
5.0
 40
5.0
 40
5.0
 40
6.0
 40
6.0
 40
6.0
 40
7.0
 40
7.0
 40
7.0
 40
8.0
 40
8.0
 40
8.0
 40
9.0
 40
9.0
 40
9.0
 40
10.0
 40
10.0
 40
10.0
 40
11.0
 40
11.0
 40
11.0
 40
12.0
 40
12.0
 40
12.0
 40
13.0
 40
13.0
 40
13.0
 40
13.0
 10
5.621610515150921
 20
-5.487699723068272
 10
5.625235987931764
 20
-5.468020391304091
 10
5.63792356224937
 20
-5.450929779860314
 10
5.656049345738239
 20
-5.441867678323487
 10
5.656049345738239
 20
-5.441867678323487
 10
7.246945996271826
 20
-4.633213402508933
 10
7.246945996271826
 20
-4.633213402508933
 10
7.268956440656584
 20
-4.622077796051262
 10
7.295625949451997
 20
-4.624408908671968
 10
7.315305281216179
 20
-4.639427595610149
 10
7.315305281216179
 20
-4.639427595610149
 10
8.413450555791837
 20
-5.475010568335321
 10
8.413450555791837
 20
-5.475010568335321
 10
8.432870699440972
 20
-5.490029255273631
 10
8.442451177207953
 20
-5.51488760809384
 10
8.437531344266908
 20
-5.538968396568912
 10
8.437531344266908
 20
-5.538968396568912
 10
8.209150265303913
 20
-6.694855725861568
 10
8.209150265303913
 20
-6.694855725861568
 10
8.209150265303913
 20
-6.694855725861568
 10
8.09599568807515
 20
-7.267879557566881
 10
8.09599568807515
 20
-7.267879557566881
 10
8.09211102717926
 20
-7.287040513100844
 10
8.07994182909181
 20
-7.303353560199293
 10
8.062851217648097
 20
-7.312415661736055
 10
8.062851217648097
 20
-7.312415661736055
 10
6.542902572379333
 20
-8.123401050171282
 10
6.542902572379333
 20
-8.123401050171282
 10
6.520632939879465
 20
-8.135053452443794
 10
6.493445054853769
 20
-8.132981527938263
 10
6.473248927274649
 20
-8.117703652884908
 10
6.473248927274649
 20
-8.117703652884908
 10
5.333933833195617
 20
-7.256743951109243
 10
5.333933833195617
 20
-7.256743951109243
 10
5.314254501431434
 20
-7.241986032701452
 10
5.304674023664453
 20
-7.217646056111334
 10
5.309075480375344
 20
-7.193563687220981
 10
5.309075480375344
 20
-7.193563687220981
 10
5.621610515150921
 20
-5.487699723068272
 10
5.621610515150921
 20
-5.487699723068272
 97
        0
 97
        0
 92
        1
 93
        1
 72
     4
 94
        3
 73
     0
 74
     1
 95
       47
 96
       43
 40
0.0
 40
0.0
 40
0.0
 40
0.0
 40
1.0
 40
1.0
 40
1.0
 40
2.0
 40
2.0
 40
2.0
 40
3.0
 40
3.0
 40
3.0
 40
4.0
 40
4.0
 40
4.0
 40
5.0
 40
5.0
 40
5.0
 40
6.0
 40
6.0
 40
6.0
 40
7.0
 40
7.0
 40
7.0
 40
8.0
 40
8.0
 40
8.0
 40
9.0
 40
9.0
 40
9.0
 40
10.0
 40
10.0
 40
10.0
 40
11.0
 40
11.0
 40
11.0
 40
12.0
 40
12.0
 40
12.0
 40
13.0
 40
13.0
 40
13.0
 40
14.0
 40
14.0
 40
14.0
 40
14.0
 10
5.492918874753692
 20
-5.472421848014853
 10
5.492918874753692
 20
-5.472421848014853
 10
5.181937388253362
 20
-7.170001274976191
 10
5.181937388253362
 20
-7.170001274976191
 10
5.1775359315426
 20
-7.194082063451136
 10
5.159669336168839
 20
-7.213502207100208
 10
5.136106923923987
 20
-7.220493964546849
 10
5.136106923923987
 20
-7.220493964546849
 10
3.520609528269859
 20
-7.685540659664208
 10
3.520609528269859
 20
-7.685540659664208
 10
3.498858272000178
 20
-7.69201404088063
 10
3.475555047870467
 20
-7.686318224009537
 10
3.458723624541832
 20
-7.671040348956181
 10
3.458723624541832
 20
-7.671040348956181
 10
2.098019208946316
 20
-6.410543748156651
 10
2.098019208946316
 20
-6.410543748156651
 10
2.081446973732758
 20
-6.395008265403595
 10
2.074197608586385
 20
-6.371962648973616
 10
2.078858253412353
 20
-6.349694596889029
 10
2.078858253412353
 20
-6.349694596889029
 10
2.443180337918854
 20
-4.645123412481178
 10
2.443180337918854
 20
-4.645123412481178
 10
2.448359358975009
 20
-4.621042624006201
 10
2.466742750163643
 20
-4.601881668472239
 10
2.490565930938887
 20
-4.595926663486101
 10
2.490565930938887
 20
-4.595926663486101
 10
2.946550524519485
 20
-4.480959349866979
 10
2.946550524519485
 20
-4.480959349866979
 10
2.946550524519485
 20
-4.480959349866979
 10
4.079909033197162
 20
-4.195353012001829
 10
4.079909033197162
 20
-4.195353012001829
 10
4.100882725121514
 20
-4.190173990945674
 10
4.123152357621446
 20
-4.195612200116938
 10
4.139206216604784
 20
-4.210112510824997
 10
4.139206216604784
 20
-4.210112510824997
 10
4.368104091382621
 20
-4.416742333518215
 10
4.368104091382621
 20
-4.416742333518215
 10
4.368104091382621
 20
-4.416742333518215
 10
5.472463559059591
 20
-5.412867056907434
 10
5.472463559059591
 20
-5.412867056907434
 10
5.489294982388194
 20
-5.427884163430398
 10
5.496803535649645
 20
-5.45041298404544
 10
5.492918874753692
 20
-5.472421848014853
 97
        0
 97
        0
 92
        1
 93
        1
 72
     4
 94
        3
 73
     0
 74
     1
 95
       29
 96
       25
 40
0.0
 40
0.0
 40
0.0
 40
0.0
 40
1.0
 40
1.0
 40
1.0
 40
2.0
 40
2.0
 40
2.0
 40
3.0
 40
3.0
 40
3.0
 40
4.0
 40
4.0
 40
4.0
 40
5.0
 40
5.0
 40
5.0
 40
6.0
 40
6.0
 40
6.0
 40
7.0
 40
7.0
 40
7.0
 40
8.0
 40
8.0
 40
8.0
 40
8.0
 10
5.61617230597972
 20
-9.352308309234289
 10
5.61617230597972
 20
-9.352308309234289
 10
6.533579702312116
 20
-8.280056559524125
 10
6.533579702312116
 20
-8.280056559524125
 10
6.538758723368271
 20
-8.273842366422878
 10
6.545232104584628
 20
-8.268663345366722
 10
6.552223862031204
 20
-8.26503787258588
 10
6.552223862031204
 20
-8.26503787258588
 10
8.107388902232616
 20
-7.435409904846845
 10
8.107388902232616
 20
-7.435409904846845
 10
8.129138578086984
 20
-7.423757502574397
 10
8.155291291067522
 20
-7.425570238964819
 10
8.17522981094688
 20
-7.439552173442562
 10
8.17522981094688
 20
-7.439552173442562
 10
8.670832256170948
 20
-7.790668307401239
 10
8.670832256170948
 20
-7.790668307401239
 10
7.961608230806956
 20
-8.7179169500312
 10
6.909295000976019
 20
-9.36939734026272
 10
5.705505282848458
 20
-9.554018298986525
 10
5.705505282848458
 20
-9.554018298986525
 10
5.613842773774361
 20
-9.43361277619614
 10
5.613842773774361
 20
-9.43361277619614
 10
5.595457802170381
 20
-9.409531987721131
 10
5.596492974215474
 20
-9.375611533364033
 10
5.61617230597972
 20
-9.352308309234289
 97
        0
 97
        0
 92
        1
 93
        1
 72
     4
 94
        3
 73
     0
 74
     1
 95
       29
 96
       25
 40
0.0
 40
0.0
 40
0.0
 40
0.0
 40
1.0
 40
1.0
 40
1.0
 40
2.0
 40
2.0
 40
2.0
 40
3.0
 40
3.0
 40
3.0
 40
4.0
 40
4.0
 40
4.0
 40
5.0
 40
5.0
 40
5.0
 40
6.0
 40
6.0
 40
6.0
 40
7.0
 40
7.0
 40
7.0
 40
8.0
 40
8.0
 40
8.0
 40
8.0
 10
2.948620868609702
 20
-9.124184837971187
 10
2.948620868609702
 20
-9.124184837971187
 10
3.567217556944596
 20
-9.034075877172338
 10
3.567217556944596
 20
-9.034075877172338
 10
3.574985298321155
 20
-9.033040705127245
 10
3.58275462011306
 20
-9.03329989324229
 10
3.590263173374511
 20
-9.035112629632712
 10
3.590263173374511
 20
-9.035112629632712
 10
4.72336407435236
 20
-9.284984196334964
 10
4.72336407435236
 20
-9.284984196334964
 10
4.72336407435236
 20
-9.284984196334964
 10
5.438802292817537
 20
-9.442676458148247
 10
5.438802292817537
 20
-9.442676458148247
 10
5.453819399340502
 20
-9.446042742813981
 10
5.467025349888326
 20
-9.454586468120525
 10
5.476348219955543
 20
-9.466757246623256
 10
5.476348219955543
 20
-9.466757246623256
 10
5.558430251262594
 20
-9.57421442656558
 10
5.558430251262594
 20
-9.57421442656558
 10
5.376398012859259
 20
-9.595965682835294
 10
5.191001070205534
 20
-9.607358896992697
 10
5.003273014931104
 20
-9.607358896992697
 10
4.265566744381309
 20
-9.607358896992697
 10
3.567735933174815
 20
-9.43335358808103
 10
2.948620868609702
 20
-9.124184837971187
 97
        0
 97
        0
 92
        1
 93
        1
 72
     4
 94
        3
 73
     0
 74
     1
 95
       35
 96
       31
 40
0.0
 40
0.0
 40
0.0
 40
0.0
 40
1.0
 40
1.0
 40
1.0
 40
2.0
 40
2.0
 40
2.0
 40
3.0
 40
3.0
 40
3.0
 40
4.0
 40
4.0
 40
4.0
 40
5.0
 40
5.0
 40
5.0
 40
6.0
 40
6.0
 40
6.0
 40
7.0
 40
7.0
 40
7.0
 40
8.0
 40
8.0
 40
8.0
 40
9.0
 40
9.0
 40
9.0
 40
10.0
 40
10.0
 40
10.0
 40
10.0
 10
0.9454981643193944
 20
-6.495992064129564
 10
0.9423910677687384
 20
-6.457151776831355
 10
0.9739819899205422
 20
-6.424268074934695
 10
1.013079884918483
 20
-6.426080811325116
 10
1.013079884918483
 20
-6.426080811325116
 10
1.949909005315392
 20
-6.470357727379179
 10
1.949909005315392
 20
-6.470357727379179
 10
1.965185299953402
 20
-6.471135291724572
 10
1.979685610661429
 20
-6.47734948482582
 10
1.990819636703754
 20
-6.487707526938066
 10
1.990819636703754
 20
-6.487707526938066
 10
3.388293995507229
 20
-7.781865393979586
 10
3.388293995507229
 20
-7.781865393979586
 10
3.399946397779741
 20
-7.79274023190677
 10
3.40719576292605
 20
-7.80749973072997
 10
3.408490123086284
 20
-7.823294401598135
 10
3.408490123086284
 20
-7.823294401598135
 10
3.505331653216536
 20
-8.850232482793862
 10
3.505331653216536
 20
-8.850232482793862
 10
3.508440330182505
 20
-8.884669732965898
 10
3.484357961292151
 20
-8.915483090772373
 10
3.450179899235256
 20
-8.920402923713418
 10
3.450179899235256
 20
-8.920402923713418
 10
2.754937808349167
 20
-9.021647490969778
 10
2.754937808349167
 20
-9.021647490969778
 10
2.031731848507398
 20
-8.616413194659602
 10
1.42815384711075
 20
-8.022156482914921
 10
1.011785524758281
 20
-7.306460656749916
 10
1.011785524758281
 20
-7.306460656749916
 10
0.9454981643193944
 20
-6.495992064129564
 10
0.9454981643193944
 20
-6.495992064129564
 97
        0
 97
        0
 92
        1
 93
        1
 72
     4
 94
        3
 73
     0
 74
     1
 95
       32
 96
       28
 40
0.0
 40
0.0
 40
0.0
 40
0.0
 40
1.0
 40
1.0
 40
1.0
 40
2.0
 40
2.0
 40
2.0
 40
3.0
 40
3.0
 40
3.0
 40
4.0
 40
4.0
 40
4.0
 40
5.0
 40
5.0
 40
5.0
 40
6.0
 40
6.0
 40
6.0
 40
7.0
 40
7.0
 40
7.0
 40
8.0
 40
8.0
 40
8.0
 40
9.0
 40
9.0
 40
9.0
 40
9.0
 10
0.433841860111953
 20
-4.455323432701314
 10
0.452486019831042
 20
-4.464387114653389
 10
0.4654327822637247
 20
-4.481476145681821
 10
0.4690582550445999
 20
-4.501673853676254
 10
0.4690582550445999
 20
-4.501673853676254
 10
0.6044808843578864
 20
-5.251291714613608
 10
0.6044808843578864
 20
-5.251291714613608
 10
0.6044808843578864
 20
-5.251291714613608
 10
0.8043781377197017
 20
-6.359793450886294
 10
0.8043781377197017
 20
-6.359793450886294
 10
0.8047664406623791
 20
-6.362767145990046
 10
0.80540018037888
 20
-6.367620440891453
 10
0.8057884833215895
 20
-6.370594135995269
 10
0.8057884833215895
 20
-6.370594135995269
 10
0.8537197799922249
 20
-6.959032425431755
 10
0.8537197799922249
 20
-6.959032425431755
 10
0.8547538355600786
 20
-6.971727218433166
 10
0.8372456709628059
 20
-6.976516899984357
 10
0.8317837184555301
 20
-6.965010635817697
 10
0.5477868934204537
 20
-6.366736943952029
 10
0.3887873797125607
 20
-5.697944969617449
 10
0.3887873797125607
 20
-4.992873261774185
 10
0.3887873797125607
 20
-4.808770679280631
 10
0.3996637980550898
 20
-4.62725681710745
 10
0.420637489979474
 20
-4.448850051484924
 10
0.420637489979474
 20
-4.448850051484924
 10
0.433841860111953
 20
-4.455323432701314
 10
0.433841860111953
 20
-4.455323432701314
 97
        0
 97
        0
 92
        1
 93
        1
 72
     4
 94
        3
 73
     0
 74
     1
 95
       35
 96
       31
 40
0.0
 40
0.0
 40
0.0
 40
0.0
 40
1.0
 40
1.0
 40
1.0
 40
2.0
 40
2.0
 40
2.0
 40
3.0
 40
3.0
 40
3.0
 40
4.0
 40
4.0
 40
4.0
 40
5.0
 40
5.0
 40
5.0
 40
6.0
 40
6.0
 40
6.0
 40
7.0
 40
7.0
 40
7.0
 40
8.0
 40
8.0
 40
8.0
 40
9.0
 40
9.0
 40
9.0
 40
10.0
 40
10.0
 40
10.0
 40
10.0
 10
2.183208336804055
 20
-1.847069178739015
 10
2.183208336804055
 20
-1.847069178739015
 10
1.444985270439417
 20
-3.369608124743466
 10
1.444985270439417
 20
-3.369608124743466
 10
1.441878173888826
 20
-3.375564710144949
 10
1.437993512992873
 20
-3.381260527015978
 10
1.433332868166937
 20
-3.386180359957056
 10
1.433332868166937
 20
-3.386180359957056
 10
1.241720151996555
 20
-3.584783253158604
 10
1.241720151996555
 20
-3.584783253158604
 10
1.241720151996555
 20
-3.584783253158604
 10
0.5400062603094218
 20
-4.313168234056561
 10
0.5400062603094218
 20
-4.313168234056561
 10
0.5205861166603496
 20
-4.333365942050897
 10
0.4902911350840936
 20
-4.338544963107084
 10
0.4649144060335377
 20
-4.326114996489211
 10
0.4649144060335377
 20
-4.326114996489211
 10
0.4387616930529984
 20
-4.313427422171638
 10
0.4387616930529984
 20
-4.313427422171638
 10
0.6031070065069867
 20
-3.203403160371672
 10
1.164392044037351
 20
-2.220959714498294
 10
1.973267955954838
 20
-1.515445934240755
 10
1.997232801004335
 20
-1.494543434642201
 10
2.034621152227381
 20
-1.501959113338248
 10
2.049176822702527
 20
-1.53023208178397
 10
2.049176822702527
 20
-1.53023208178397
 10
2.182432352874072
 20
-1.789067935906907
 10
2.182432352874072
 20
-1.789067935906907
 10
2.191753642525976
 20
-1.807193719395745
 10
2.192012830641053
 20
-1.828684207135003
 10
2.183208336804055
 20
-1.847069178739015
 97
        0
 97
        0
 92
        1
 93
        1
 72
     4
 94
        3
 73
     0
 74
     1
 95
       56
 96
       52
 40
0.0
 40
0.0
 40
0.0
 40
0.0
 40
1.0
 40
1.0
 40
1.0
 40
2.0
 40
2.0
 40
2.0
 40
3.0
 40
3.0
 40
3.0
 40
4.0
 40
4.0
 40
4.0
 40
5.0
 40
5.0
 40
5.0
 40
6.0
 40
6.0
 40
6.0
 40
7.0
 40
7.0
 40
7.0
 40
8.0
 40
8.0
 40
8.0
 40
9.0
 40
9.0
 40
9.0
 40
10.0
 40
10.0
 40
10.0
 40
11.0
 40
11.0
 40
11.0
 40
12.0
 40
12.0
 40
12.0
 40
13.0
 40
13.0
 40
13.0
 40
14.0
 40
14.0
 40
14.0
 40
15.0
 40
15.0
 40
15.0
 40
16.0
 40
16.0
 40
16.0
 40
17.0
 40
17.0
 40
17.0
 40
17.0
 10
4.055828244722122
 20
-1.393673305478822
 10
4.055828244722122
 20
-1.393673305478822
 10
4.845321565002776
 20
-2.292956498737757
 10
4.845321565002776
 20
-2.292956498737757
 10
4.86215298833138
 20
-2.31211745427172
 10
4.866037649227365
 20
-2.339305339297352
 10
4.855679607115055
 20
-2.362350955727267
 10
4.855679607115055
 20
-2.362350955727267
 10
4.517510235589093
 20
-3.107824967653655
 10
4.517510235589093
 20
-3.107824967653655
 10
4.517510235589093
 20
-3.107824967653655
 10
4.098034816686
 20
-4.032224121432691
 10
4.098034816686
 20
-4.032224121432691
 10
4.08974869907922
 20
-4.050090716806419
 10
4.073954028210991
 20
-4.063296667354243
 10
4.054793072677029
 20
-4.068216500295321
 10
4.054793072677029
 20
-4.068216500295321
 10
2.916253962527915
 20
-4.355115617905264
 10
2.916253962527915
 20
-4.355115617905264
 10
2.916253962527915
 20
-4.355115617905264
 10
2.461822917222598
 20
-4.469566135709544
 10
2.461822917222598
 20
-4.469566135709544
 10
2.43722375251737
 20
-4.475780328810792
 10
2.41133022765194
 20
-4.466975834973827
 10
2.395535556783679
 20
-4.44729650320958
 10
2.395535556783679
 20
-4.44729650320958
 10
2.012052516743248
 20
-3.964383212718493
 10
2.012052516743248
 20
-3.964383212718493
 10
2.012052516743248
 20
-3.964383212718493
 10
1.595426586691014
 20
-3.439780146078368
 10
1.595426586691014
 20
-3.439780146078368
 10
1.580148711637627
 20
-3.4203600024292
 10
1.577041615087003
 20
-3.393688913218538
 10
1.587916453014186
 20
-3.37116167301881
 10
1.587916453014186
 20
-3.37116167301881
 10
2.062804394429015
 20
-2.391868372958259
 10
2.062804394429015
 20
-2.391868372958259
 10
2.062804394429015
 20
-2.391868372958259
 10
2.303095483364254
 20
-1.896526696264611
 10
2.303095483364254
 20
-1.896526696264611
 10
2.310864805156159
 20
-1.880213649166131
 10
2.325365115864186
 20
-1.868042870663399
 10
2.342713335007727
 20
-1.862863849607244
 10
2.342713335007727
 20
-1.862863849607244
 10
2.943443427968893
 20
-1.684716272099796
 10
2.943443427968893
 20
-1.684716272099796
 10
2.943443427968893
 20
-1.684716272099796
 10
3.98876490035322
 20
-1.374512349944859
 10
3.98876490035322
 20
-1.374512349944859
 10
4.013104876943338
 20
-1.367262984798487
 10
4.039257589923909
 20
-1.374771538059969
 10
4.055828244722122
 20
-1.393673305478822
 97
        0
 97
        0
 92
        1
 93
        1
 72
     4
 94
        3
 73
     0
 74
     1
 95
       41
 96
       37
 40
0.0
 40
0.0
 40
0.0
 40
0.0
 40
1.0
 40
1.0
 40
1.0
 40
2.0
 40
2.0
 40
2.0
 40
3.0
 40
3.0
 40
3.0
 40
4.0
 40
4.0
 40
4.0
 40
5.0
 40
5.0
 40
5.0
 40
6.0
 40
6.0
 40
6.0
 40
7.0
 40
7.0
 40
7.0
 40
8.0
 40
8.0
 40
8.0
 40
9.0
 40
9.0
 40
9.0
 40
10.0
 40
10.0
 40
10.0
 40
11.0
 40
11.0
 40
11.0
 40
12.0
 40
12.0
 40
12.0
 40
12.0
 10
6.618770410585264
 20
-0.6702081575219756
 10
6.608153180357716
 20
-0.6904058655163444
 10
6.607893992242735
 20
-0.7157810141516191
 10
6.624466227456293
 20
-0.7380490662361415
 10
6.624466227456293
 20
-0.7380490662361415
 10
7.509765905822075
 20
-1.936142967492706
 10
7.509765905822075
 20
-1.936142967492706
 10
7.530739597746459
 20
-1.964884400793651
 10
7.525043780875366
 20
-2.005020628667343
 10
7.49655995527425
 20
-2.026511116406601
 10
7.49655995527425
 20
-2.026511116406601
 10
6.815819755511501
 20
-2.536095496108543
 10
6.815819755511501
 20
-2.536095496108543
 10
6.801837821033693
 20
-2.546712726335931
 10
6.783971225659869
 20
-2.550854994931711
 10
6.766621426101047
 20
-2.548007086496165
 10
6.766621426101047
 20
-2.548007086496165
 10
5.005344939436636
 20
-2.256704931759985
 10
5.005344939436636
 20
-2.256704931759985
 10
4.9905854406135
 20
-2.254373819139377
 10
4.977120301950566
 20
-2.246865265877926
 10
4.967280636068475
 20
-2.235731239835601
 10
4.967280636068475
 20
-2.235731239835601
 10
4.181412788568695
 20
-1.340332707472619
 10
4.181412788568695
 20
-1.340332707472619
 10
4.15836717213878
 20
-1.314179994492048
 10
4.160179908529201
 20
-1.274304535148874
 10
4.185814245279489
 20
-1.250482934788912
 10
4.185814245279489
 20
-1.250482934788912
 10
5.07784649297677
 20
-0.4182646663142235
 10
5.07784649297677
 20
-0.4182646663142235
 10
5.089756502949046
 20
-0.4071306402718982
 10
5.096229884165468
 20
-0.3934063134938867
 10
5.09804262055589
 20
-0.3794243790160149
 10
5.631966976847885
 20
-0.3900400288281212
 10
6.143882469170404
 20
-0.4920605800145278
 10
6.618770410585264
 20
-0.6702081575219756
 97
        0
 97
        0
 75
     2
 76
     1
 98
        0
  0
ENDSEC
  0
SECTION
  2
OBJECTS
  0
DICTIONARY
  5
C
330
0
100
AcDbDictionary
281
     1
  3
ACAD_GROUP
350
D
  3
ACAD_LAYOUT
350
1A
  3
ACAD_MATERIAL
350
3B
  3
ACAD_MLEADERSTYLE
350
4F
  3
ACAD_MLINESTYLE
350
17
  3
ACAD_PLOTSETTINGS
350
19
  3
ACAD_PLOTSTYLENAME
350
E
  3
ACAD_TABLESTYLE
350
4E
  3
ACAD_VISUALSTYLE
350
2A
  0
SUN
  5
3F
330
29
100
AcDbSun
 90
        1
290
     0
 63
     7
421
 16777215
 40
1.0
291
     1
 91
  2455826
 92
 54000000
292
     0
 70
     2
 71
   256
280
     1
  0
DICTIONARY
  5
D
102
{ACAD_REACTORS
330
C
102
}
330
C
100
AcDbDictionary
281
     1
  0
DICTIONARY
  5
1A
102
{ACAD_REACTORS
330
C
102
}
330
C
100
AcDbDictionary
281
     1
  3
Layout1
350
1E
  3
Layout2
350
26
  3
Model
350
22
  0
DICTIONARY
  5
3B
102
{ACAD_REACTORS
330
C
102
}
330
C
100
AcDbDictionary
281
     1
  3
ByBlock
350
3D
  3
ByLayer
350
3C
  3
Global
350
3E
  0
DICTIONARY
  5
4F
102
{ACAD_REACTORS
330
C
102
}
330
C
100
AcDbDictionary
281
     1
  0
DICTIONARY
  5
17
102
{ACAD_REACTORS
330
C
102
}
330
C
100
AcDbDictionary
281
     1
  3
Standard
350
18
  0
DICTIONARY
  5
19
102
{ACAD_REACTORS
330
C
102
}
330
C
100
AcDbDictionary
281
     1
  0
ACDBDICTIONARYWDFLT
  5
E
102
{ACAD_REACTORS
330
C
102
}
330
C
100
AcDbDictionary
281
     1
  3
Normal
350
F
100
AcDbDictionaryWithDefault
340
F
  0
DICTIONARY
  5
4E
102
{ACAD_REACTORS
330
C
102
}
330
C
100
AcDbDictionary
281
     1
  0
DICTIONARY
  5
2A
102
{ACAD_REACTORS
330
C
102
}
330
C
100
AcDbDictionary
281
     1
  3
2dWireframe
350
2F
  3
3D Hidden
350
31
  3
3dWireframe
350
30
  3
Basic
350
32
  3
Brighten
350
36
  3
ColorChange
350
3A
  3
Conceptual
350
34
  3
Dim
350
35
  3
Facepattern
350
39
  3
Flat
350
2B
  3
FlatWithEdges
350
2C
  3
Gouraud
350
2D
  3
GouraudWithEdges
350
2E
  3
Linepattern
350
38
  3
Realistic
350
33
  3
Thicken
350
37
  0
LAYOUT
  5
1E
102
{ACAD_REACTORS
330
1A
102
}
330
1A
100
AcDbPlotSettings
  1

  2
none_device
  4

  6

 40
0.0
 41
0.0
 42
0.0
 43
0.0
 44
0.0
 45
0.0
 46
0.0
 47
0.0
 48
0.0
 49
0.0
140
0.0
141
0.0
142
1.0
143
1.0
 70
   688
 72
     0
 73
     0
 74
     5
  7

 75
    16
 76
     0
 77
     2
 78
   300
147
1.0
148
0.0
149
0.0
100
AcDbLayout
  1
Layout1
 70
     1
 71
     1
 10
0.0
 20
0.0
 11
12.0
 21
9.0
 12
0.0
 22
0.0
 32
0.0
 14
1.000000000000000E+20
 24
1.000000000000000E+20
 34
1.000000000000000E+20
 15
-1.000000000000000E+20
 25
-1.000000000000000E+20
 35
-1.000000000000000E+20
146
0.0
 13
0.0
 23
0.0
 33
0.0
 16
1.0
 26
0.0
 36
0.0
 17
0.0
 27
1.0
 37
0.0
 76
     0
330
1B
  0
LAYOUT
  5
26
102
{ACAD_REACTORS
330
1A
102
}
330
1A
100
AcDbPlotSettings
  1

  2
none_device
  4

  6

 40
0.0
 41
0.0
 42
0.0
 43
0.0
 44
0.0
 45
0.0
 46
0.0
 47
0.0
 48
0.0
 49
0.0
140
0.0
141
0.0
142
1.0
143
1.0
 70
   688
 72
     0
 73
     0
 74
     5
  7

 75
    16
 76
     0
 77
     2
 78
   300
147
1.0
148
0.0
149
0.0
100
AcDbLayout
  1
Layout2
 70
     1
 71
     2
 10
0.0
 20
0.0
 11
0.0
 21
0.0
 12
0.0
 22
0.0
 32
0.0
 14
0.0
 24
0.0
 34
0.0
 15
0.0
 25
0.0
 35
0.0
146
0.0
 13
0.0
 23
0.0
 33
0.0
 16
1.0
 26
0.0
 36
0.0
 17
0.0
 27
1.0
 37
0.0
 76
     0
330
23
  0
LAYOUT
  5
22
102
{ACAD_REACTORS
330
1A
102
}
330
1A
100
AcDbPlotSettings
  1

  2
none_device
  4

  6

 40
0.0
 41
0.0
 42
0.0
 43
0.0
 44
0.0
 45
0.0
 46
0.0
 47
0.0
 48
0.0
 49
0.0
140
0.0
141
0.0
142
1.0
143
1.0
 70
  1712
 72
     0
 73
     0
 74
     0
  7

 75
     0
 76
     0
 77
     2
 78
   300
147
1.0
148
0.0
149
0.0
100
AcDbLayout
  1
Model
 70
     1
 71
     0
 10
0.0
 20
0.0
 11
12.0
 21
9.0
 12
0.0
 22
0.0
 32
0.0
 14
1.000000000000000E+20
 24
1.000000000000000E+20
 34
1.000000000000000E+20
 15
-1.000000000000000E+20
 25
-1.000000000000000E+20
 35
-1.000000000000000E+20
146
0.0
 13
0.0
 23
0.0
 33
0.0
 16
1.0
 26
0.0
 36
0.0
 17
0.0
 27
1.0
 37
0.0
 76
     0
330
1F
331
29
  0
MATERIAL
  5
3D
102
{ACAD_REACTORS
330
3B
102
}
330
3B
100
AcDbMaterial
  1
ByBlock
 72
     1
 94
      127
  0
MATERIAL
  5
3C
102
{ACAD_REACTORS
330
3B
102
}
330
3B
100
AcDbMaterial
  1
ByLayer
 72
     1
 94
      127
  0
MATERIAL
  5
3E
102
{ACAD_REACTORS
330
3B
102
}
330
3B
100
AcDbMaterial
  1
Global
 72
     1
 94
      127
  0
MLINESTYLE
  5
18
102
{ACAD_REACTORS
330
17
102
}
330
17
100
AcDbMlineStyle
  2
Standard
 70
     0
  3

 62
   256
 51
90.0
 52
90.0
 71
     2
 49
0.5
 62
   256
  6
BYLAYER
 49
-0.5
 62
   256
  6
BYLAYER
  0
ACDBPLACEHOLDER
  5
F
102
{ACAD_REACTORS
330
E
102
}
330
E
  0
VISUALSTYLE
  5
2F
102
{ACAD_REACTORS
330
2A
102
}
330
2A
100
AcDbVisualStyle
  2
2dWireframe
 70
     4
177
     2
291
     0
 71
     0
176
     1
 72
     2
176
     1
 73
     0
176
     1
 90
        0
176
     1
 40
-0.6
176
     1
 41
-30.0
176
     1
 62
     5
 63
     7
421
 16777215
176
     1
 74
     1
176
     1
 91
        4
176
     1
 64
     7
176
     1
 65
   257
176
     1
 75
     1
176
     1
175
     1
176
     1
 42
1.0
176
     1
 92
        0
176
     1
 66
   257
176
     1
 43
1.0
176
     1
 76
     1
176
     1
 77
     6
176
     1
 78
     2
176
     1
 67
     7
176
     1
 79
     5
176
     1
170
     0
176
     1
171
     0
176
     1
290
     0
176
     1
 93
        1
176
     1
 44
0.0
176
     1
173
     0
176
     1
  0
VISUALSTYLE
  5
31
102
{ACAD_REACTORS
330
2A
102
}
330
2A
100
AcDbVisualStyle
  2
3D Hidden
 70
     6
177
     2
291
     0
 71
     1
176
     1
 72
     2
176
     1
 73
     2
176
     1
 90
        0
176
     1
 40
-0.6
176
     1
 41
-30.0
176
     1
 62
     5
 63
     7
421
 16777215
176
     1
 74
     2
176
     1
 91
        2
176
     1
 64
     7
176
     1
 65
   257
176
     1
 75
     2
176
     1
175
     1
176
     1
 42
40.0
176
     1
 92
        0
176
     1
 66
   257
176
     1
 43
1.0
176
     1
 76
     1
176
     1
 77
     6
176
     1
 78
     2
176
     1
 67
     7
176
     1
 79
     3
176
     1
170
     0
176
     1
171
     0
176
     1
290
     0
176
     1
 93
        1
176
     1
 44
0.0
176
     1
173
     0
176
     1
  0
VISUALSTYLE
  5
30
102
{ACAD_REACTORS
330
2A
102
}
330
2A
100
AcDbVisualStyle
  2
3dWireframe
 70
     5
177
     2
291
     0
 71
     0
176
     1
 72
     2
176
     1
 73
     0
176
     1
 90
        0
176
     1
 40
-0.6
176
     1
 41
-30.0
176
     1
 62
     5
 63
     7
421
 16777215
176
     1
 74
     1
176
     1
 91
        4
176
     1
 64
     7
176
     1
 65
   257
176
     1
 75
     1
176
     1
175
     1
176
     1
 42
1.0
176
     1
 92
        0
176
     1
 66
   257
176
     1
 43
1.0
176
     1
 76
     1
176
     1
 77
     6
176
     1
 78
     2
176
     1
 67
     7
176
     1
 79
     5
176
     1
170
     0
176
     1
171
     0
176
     1
290
     0
176
     1
 93
        1
176
     1
 44
0.0
176
     1
173
     0
176
     1
  0
VISUALSTYLE
  5
32
102
{ACAD_REACTORS
330
2A
102
}
330
2A
100
AcDbVisualStyle
  2
Basic
 70
     7
177
     2
291
     1
 71
     1
176
     1
 72
     0
176
     1
 73
     1
176
     1
 90
        0
176
     1
 40
-0.6
176
     1
 41
-30.0
176
     1
 62
     5
 63
     7
421
 16777215
176
     1
 74
     0
176
     1
 91
        4
176
     1
 64
     7
176
     1
 65
   257
176
     1
 75
     1
176
     1
175
     1
176
     1
 42
1.0
176
     1
 92
        8
176
     1
 66
     7
176
     1
 43
1.0
176
     1
 76
     1
176
     1
 77
     6
176
     1
 78
     2
176
     1
 67
     7
176
     1
 79
     5
176
     1
170
     0
176
     1
171
     0
176
     1
290
     0
176
     1
 93
        1
176
     1
 44
0.0
176
     1
173
     0
176
     1
  0
VISUALSTYLE
  5
36
102
{ACAD_REACTORS
330
2A
102
}
330
2A
100
AcDbVisualStyle
  2
Brighten
 70
    12
177
     2
291
     1
 71
     2
176
     1
 72
     2
176
     1
 73
     0
176
     1
 90
        0
176
     1
 40
-0.6
176
     1
 41
-30.0
176
     1
 62
     5
 63
     7
421
 16777215
176
     1
 74
     1
176
     1
 91
        4
176
     1
 64
     7
176
     1
 65
   257
176
     1
 75
     1
176
     1
175
     1
176
     1
 42
1.0
176
     1
 92
        8
176
     1
 66
     7
176
     1
 43
1.0
176
     1
 76
     1
176
     1
 77
     6
176
     1
 78
     2
176
     1
 67
     7
176
     1
 79
     5
176
     1
170
     0
176
     1
171
     0
176
     1
290
     0
176
     1
 93
        1
176
     1
 44
50.0
176
     1
173
     0
176
     1
  0
VISUALSTYLE
  5
3A
102
{ACAD_REACTORS
330
2A
102
}
330
2A
100
AcDbVisualStyle
  2
ColorChange
 70
    16
177
     2
291
     1
 71
     2
176
     1
 72
     2
176
     1
 73
     3
176
     1
 90
        0
176
     1
 40
-0.6
176
     1
 41
-30.0
176
     1
 62
     5
 63
     8
421
  8421504
176
     1
 74
     1
176
     1
 91
        4
176
     1
 64
     7
176
     1
 65
   257
176
     1
 75
     1
176
     1
175
     1
176
     1
 42
1.0
176
     1
 92
        8
176
     1
 66
     8
424
  8421504
176
     1
 43
1.0
176
     1
 76
     1
176
     1
 77
     6
176
     1
 78
     2
176
     1
 67
     7
176
     1
 79
     5
176
     1
170
     0
176
     1
171
     0
176
     1
290
     0
176
     1
 93
        1
176
     1
 44
0.0
176
     1
173
     0
176
     1
  0
VISUALSTYLE
  5
34
102
{ACAD_REACTORS
330
2A
102
}
330
2A
100
AcDbVisualStyle
  2
Conceptual
 70
     9
177
     2
291
     0
 71
     3
176
     1
 72
     2
176
     1
 73
     0
176
     1
 90
        0
176
     1
 40
-0.6
176
     1
 41
-30.0
176
     1
 62
     5
 63
     7
421
 16777215
176
     1
 74
     2
176
     1
 91
        2
176
     1
 64
     7
176
     1
 65
   257
176
     1
 75
     1
176
     1
175
     1
176
     1
 42
40.0
176
     1
 92
        8
176
     1
 66
     7
176
     1
 43
1.0
176
     1
 76
     1
176
     1
 77
     6
176
     1
 78
     2
176
     1
 67
     7
176
     1
 79
     3
176
     1
170
     0
176
     1
171
     0
176
     1
290
     0
176
     1
 93
        1
176
     1
 44
0.0
176
     1
173
     0
176
     1
  0
VISUALSTYLE
  5
35
102
{ACAD_REACTORS
330
2A
102
}
330
2A
100
AcDbVisualStyle
  2
Dim
 70
    11
177
     2
291
     1
 71
     2
176
     1
 72
     2
176
     1
 73
     0
176
     1
 90
        0
176
     1
 40
-0.6
176
     1
 41
-30.0
176
     1
 62
     5
 63
     7
421
 16777215
176
     1
 74
     1
176
     1
 91
        4
176
     1
 64
     7
176
     1
 65
   257
176
     1
 75
     1
176
     1
175
     1
176
     1
 42
1.0
176
     1
 92
        8
176
     1
 66
     7
176
     1
 43
1.0
176
     1
 76
     1
176
     1
 77
     6
176
     1
 78
     2
176
     1
 67
     7
176
     1
 79
     5
176
     1
170
     0
176
     1
171
     0
176
     1
290
     0
176
     1
 93
        1
176
     1
 44
-50.0
176
     1
173
     0
176
     1
  0
VISUALSTYLE
  5
39
102
{ACAD_REACTORS
330
2A
102
}
330
2A
100
AcDbVisualStyle
  2
Facepattern
 70
    15
177
     2
291
     1
 71
     2
176
     1
 72
     2
176
     1
 73
     0
176
     1
 90
        0
176
     1
 40
-0.6
176
     1
 41
-30.0
176
     1
 62
     5
 63
     7
421
 16777215
176
     1
 74
     1
176
     1
 91
        4
176
     1
 64
     7
176
     1
 65
   257
176
     1
 75
     1
176
     1
175
     1
176
     1
 42
1.0
176
     1
 92
        8
176
     1
 66
     7
176
     1
 43
1.0
176
     1
 76
     1
176
     1
 77
     6
176
     1
 78
     2
176
     1
 67
     7
176
     1
 79
     5
176
     1
170
     0
176
     1
171
     0
176
     1
290
     0
176
     1
 93
        1
176
     1
 44
0.0
176
     1
173
     0
176
     1
  0
VISUALSTYLE
  5
2B
102
{ACAD_REACTORS
330
2A
102
}
330
2A
100
AcDbVisualStyle
  2
Flat
 70
     0
177
     2
291
     1
 71
     2
176
     1
 72
     1
176
     1
 73
     1
176
     1
 90
        2
176
     1
 40
-0.6
176
     1
 41
30.0
176
     1
 62
     5
 63
     7
421
 16777215
176
     1
 74
     0
176
     1
 91
        4
176
     1
 64
     7
176
     1
 65
   257
176
     1
 75
     1
176
     1
175
     1
176
     1
 42
1.0
176
     1
 92
        8
176
     1
 66
     7
176
     1
 43
1.0
176
     1
 76
     1
176
     1
 77
     6
176
     1
 78
     2
176
     1
 67
     7
176
     1
 79
     5
176
     1
170
     0
176
     1
171
     0
176
     1
290
     0
176
     1
 93
       13
176
     1
 44
0.0
176
     1
173
     0
176
     1
  0
VISUALSTYLE
  5
2C
102
{ACAD_REACTORS
330
2A
102
}
330
2A
100
AcDbVisualStyle
  2
FlatWithEdges
 70
     1
177
     2
291
     1
 71
     2
176
     1
 72
     1
176
     1
 73
     1
176
     1
 90
        2
176
     1
 40
-0.6
176
     1
 41
30.0
176
     1
 62
     5
 63
     7
421
 16777215
176
     1
 74
     1
176
     1
 91
        4
176
     1
 64
     7
176
     1
 65
   257
176
     1
 75
     1
176
     1
175
     1
176
     1
 42
1.0
176
     1
 92
        0
176
     1
 66
   257
176
     1
 43
1.0
176
     1
 76
     1
176
     1
 77
     6
176
     1
 78
     2
176
     1
 67
     7
176
     1
 79
     5
176
     1
170
     0
176
     1
171
     0
176
     1
290
     0
176
     1
 93
       13
176
     1
 44
0.0
176
     1
173
     0
176
     1
  0
VISUALSTYLE
  5
2D
102
{ACAD_REACTORS
330
2A
102
}
330
2A
100
AcDbVisualStyle
  2
Gouraud
 70
     2
177
     2
291
     1
 71
     2
176
     1
 72
     2
176
     1
 73
     1
176
     1
 90
        2
176
     1
 40
-0.6
176
     1
 41
30.0
176
     1
 62
     5
 63
     7
421
 16777215
176
     1
 74
     0
176
     1
 91
        4
176
     1
 64
     7
176
     1
 65
   257
176
     1
 75
     1
176
     1
175
     1
176
     1
 42
1.0
176
     1
 92
        0
176
     1
 66
     7
176
     1
 43
1.0
176
     1
 76
     1
176
     1
 77
     6
176
     1
 78
     2
176
     1
 67
     7
176
     1
 79
     5
176
     1
170
     0
176
     1
171
     0
176
     1
290
     0
176
     1
 93
       13
176
     1
 44
0.0
176
     1
173
     0
176
     1
  0
VISUALSTYLE
  5
2E
102
{ACAD_REACTORS
330
2A
102
}
330
2A
100
AcDbVisualStyle
  2
GouraudWithEdges
 70
     3
177
     2
291
     1
 71
     2
176
     1
 72
     2
176
     1
 73
     1
176
     1
 90
        2
176
     1
 40
-0.6
176
     1
 41
30.0
176
     1
 62
     5
 63
     7
421
 16777215
176
     1
 74
     1
176
     1
 91
        4
176
     1
 64
     7
176
     1
 65
   257
176
     1
 75
     1
176
     1
175
     1
176
     1
 42
1.0
176
     1
 92
        0
176
     1
 66
   257
176
     1
 43
1.0
176
     1
 76
     1
176
     1
 77
     6
176
     1
 78
     2
176
     1
 67
     7
176
     1
 79
     5
176
     1
170
     0
176
     1
171
     0
176
     1
290
     0
176
     1
 93
       13
176
     1
 44
0.0
176
     1
173
     0
176
     1
  0
VISUALSTYLE
  5
38
102
{ACAD_REACTORS
330
2A
102
}
330
2A
100
AcDbVisualStyle
  2
Linepattern
 70
    14
177
     2
291
     1
 71
     2
176
     1
 72
     2
176
     1
 73
     0
176
     1
 90
        0
176
     1
 40
-0.6
176
     1
 41
-30.0
176
     1
 62
     5
 63
     7
421
 16777215
176
     1
 74
     1
176
     1
 91
        4
176
     1
 64
     7
176
     1
 65
   257
176
     1
 75
     7
176
     1
175
     7
176
     1
 42
1.0
176
     1
 92
        8
176
     1
 66
     7
176
     1
 43
1.0
176
     1
 76
     1
176
     1
 77
     6
176
     1
 78
     2
176
     1
 67
     7
176
     1
 79
     5
176
     1
170
     0
176
     1
171
     0
176
     1
290
     0
176
     1
 93
        1
176
     1
 44
0.0
176
     1
173
     0
176
     1
  0
VISUALSTYLE
  5
33
102
{ACAD_REACTORS
330
2A
102
}
330
2A
100
AcDbVisualStyle
  2
Realistic
 70
     8
177
     2
291
     0
 71
     2
176
     1
 72
     2
176
     1
 73
     0
176
     1
 90
        0
176
     1
 40
-0.6
176
     1
 41
-30.0
176
     1
 62
     5
 63
     7
421
 16777215
176
     1
 74
     1
176
     1
 91
        0
176
     1
 64
     7
176
     1
 65
   257
176
     1
 75
     1
176
     1
175
     1
176
     1
 42
1.0
176
     1
 92
        8
176
     1
 66
     8
424
  7895160
176
     1
 43
1.0
176
     1
 76
     1
176
     1
 77
     6
176
     1
 78
     2
176
     1
 67
     7
176
     1
 79
     5
176
     1
170
     0
176
     1
171
     0
176
     1
290
     0
176
     1
 93
       13
176
     1
 44
0.0
176
     1
173
     0
176
     1
  0
VISUALSTYLE
  5
37
102
{ACAD_REACTORS
330
2A
102
}
330
2A
100
AcDbVisualStyle
  2
Thicken
 70
    13
177
     2
291
     1
 71
     2
176
     1
 72
     2
176
     1
 73
     0
176
     1
 90
        0
176
     1
 40
-0.6
176
     1
 41
-30.0
176
     1
 62
     5
 63
     7
421
 16777215
176
     1
 74
     1
176
     1
 91
        4
176
     1
 64
     7
176
     1
 65
   257
176
     1
 75
     1
176
     1
175
     1
176
     1
 42
1.0
176
     1
 92
       12
176
     1
 66
     7
176
     1
 43
1.0
176
     1
 76
     1
176
     1
 77
     6
176
     1
 78
     2
176
     1
 67
     7
176
     1
 79
     5
176
     1
170
     0
176
     1
171
     0
176
     1
290
     0
176
     1
 93
        1
176
     1
 44
0.0
176
     1
173
     0
176
     1
  0
ENDSEC
  0
EOF
