  0
SECTION
  2
HEADER
  9
$ACADVER
  1
AC1024
  9
$ACADMAINTVER
 70
     6
  9
$DWGCODEPAGE
  3
ANSI_1252
  9
$INSBASE
 10
0.0
 20
0.0
 30
0.0
  9
$EXTMIN
 10
1.000000000000000E+20
 20
1.000000000000000E+20
 30
1.000000000000000E+20
  9
$EXTMAX
 10
-1.000000000000000E+20
 20
-1.000000000000000E+20
 30
-1.000000000000000E+20
  9
$LIMMIN
 10
0.0
 20
0.0
  9
$LIMMAX
 10
12.0
 20
9.0
  9
$ORTHOMODE
 70
     0
  9
$REGENMODE
 70
     1
  9
$FILLMODE
 70
     1
  9
$QTEXTMODE
 70
     0
  9
$MIRRTEXT
 70
     1
  9
$LTSCALE
 40
1.0
  9
$ATTMODE
 70
     1
  9
$TEXTSIZE
 40
0.2
  9
$TRACEWID
 40
0.05
  9
$TEXTSTYLE
  7
Standard
  9
$CLAYER
  8
0
  9
$CELTYPE
  6
ByLayer
  9
$CECOLOR
 62
   256
  9
$CELTSCALE
 40
1.0
  9
$DISPSILH
 70
     0
  9
$DIMSCALE
 40
1.0
  9
$DIMASZ
 40
0.18
  9
$DIMEXO
 40
0.0625
  9
$DIMDLI
 40
0.38
  9
$DIMRND
 40
0.0
  9
$DIMDLE
 40
0.0
  9
$DIMEXE
 40
0.18
  9
$DIMTP
 40
0.0
  9
$DIMTM
 40
0.0
  9
$DIMTXT
 40
0.18
  9
$DIMCEN
 40
0.09
  9
$DIMTSZ
 40
0.0
  9
$DIMTOL
 70
     0
  9
$DIMLIM
 70
     0
  9
$DIMTIH
 70
     1
  9
$DIMTOH
 70
     1
  9
$DIMSE1
 70
     0
  9
$DIMSE2
 70
     0
  9
$DIMTAD
 70
     0
  9
$DIMZIN
 70
     0
  9
$DIMBLK
  1

  9
$DIMASO
 70
     1
  9
$DIMSHO
 70
     1
  9
$DIMPOST
  1

  9
$DIMAPOST
  1

  9
$DIMALT
 70
     0
  9
$DIMALTD
 70
     2
  9
$DIMALTF
 40
25.4
  9
$DIMLFAC
 40
1.0
  9
$DIMTOFL
 70
     0
  9
$DIMTVP
 40
0.0
  9
$DIMTIX
 70
     0
  9
$DIMSOXD
 70
     0
  9
$DIMSAH
 70
     0
  9
$DIMBLK1
  1

  9
$DIMBLK2
  1

  9
$DIMSTYLE
  2
Standard
  9
$DIMCLRD
 70
     0
  9
$DIMCLRE
 70
     0
  9
$DIMCLRT
 70
     0
  9
$DIMTFAC
 40
1.0
  9
$DIMGAP
 40
0.09
  9
$DIMJUST
 70
     0
  9
$DIMSD1
 70
     0
  9
$DIMSD2
 70
     0
  9
$DIMTOLJ
 70
     1
  9
$DIMTZIN
 70
     0
  9
$DIMALTZ
 70
     0
  9
$DIMALTTZ
 70
     0
  9
$DIMUPT
 70
     0
  9
$DIMDEC
 70
     4
  9
$DIMTDEC
 70
     4
  9
$DIMALTU
 70
     2
  9
$DIMALTTD
 70
     2
  9
$DIMTXSTY
  7
Standard
  9
$DIMAUNIT
 70
     0
  9
$DIMADEC
 70
     0
  9
$DIMALTRND
 40
0.0
  9
$DIMAZIN
 70
     0
  9
$DIMDSEP
 70
    46
  9
$DIMATFIT
 70
     3
  9
$DIMFRAC
 70
     0
  9
$DIMLDRBLK
  1

  9
$DIMLUNIT
 70
     2
  9
$DIMLWD
 70
    -2
  9
$DIMLWE
 70
    -2
  9
$DIMTMOVE
 70
     0
  9
$DIMFXL
 40
1.0
  9
$DIMFXLON
 70
     0
  9
$DIMJOGANG
 40
0.7853981633974483
  9
$DIMTFILL
 70
     0
  9
$DIMTFILLCLR
 70
     0
  9
$DIMARCSYM
 70
     0
  9
$DIMLTYPE
  6

  9
$DIMLTEX1
  6

  9
$DIMLTEX2
  6

  9
$DIMTXTDIRECTION
 70
     0
  9
$LUNITS
 70
     2
  9
$LUPREC
 70
     4
  9
$SKETCHINC
 40
0.1
  9
$FILLETRAD
 40
0.5
  9
$AUNITS
 70
     0
  9
$AUPREC
 70
     0
  9
$MENU
  1
.
  9
$ELEVATION
 40
0.0
  9
$PELEVATION
 40
0.0
  9
$THICKNESS
 40
0.0
  9
$LIMCHECK
 70
     0
  9
$CHAMFERA
 40
0.5
  9
$CHAMFERB
 40
0.5
  9
$CHAMFERC
 40
1.0
  9
$CHAMFERD
 40
0.0
  9
$SKPOLY
 70
     0
  9
$TDCREATE
 40
2458345.45312088
  9
$TDUCREATE
 40
2458345.411454213
  9
$TDUPDATE
 40
2458345.453121678
  9
$TDUUPDATE
 40
2458345.411455011
  9
$TDINDWG
 40
0.0000000116
  9
$TDUSRTIMER
 40
0.0000000116
  9
$USRTIMER
 70
     1
  9
$ANGBASE
 50
0.0
  9
$ANGDIR
 70
     0
  9
$PDMODE
 70
     0
  9
$PDSIZE
 40
0.0
  9
$PLINEWID
 40
0.0
  9
$SPLFRAME
 70
     0
  9
$SPLINETYPE
 70
     6
  9
$SPLINESEGS
 70
     8
  9
$HANDSEED
  5
4E
  9
$SURFTAB1
 70
     6
  9
$SURFTAB2
 70
     6
  9
$SURFTYPE
 70
     6
  9
$SURFU
 70
     6
  9
$SURFV
 70
     6
  9
$UCSBASE
  2

  9
$UCSNAME
  2

  9
$UCSORG
 10
0.0
 20
0.0
 30
0.0
  9
$UCSXDIR
 10
1.0
 20
0.0
 30
0.0
  9
$UCSYDIR
 10
0.0
 20
1.0
 30
0.0
  9
$UCSORTHOREF
  2

  9
$UCSORTHOVIEW
 70
     0
  9
$UCSORGTOP
 10
0.0
 20
0.0
 30
0.0
  9
$UCSORGBOTTOM
 10
0.0
 20
0.0
 30
0.0
  9
$UCSORGLEFT
 10
0.0
 20
0.0
 30
0.0
  9
$UCSORGRIGHT
 10
0.0
 20
0.0
 30
0.0
  9
$UCSORGFRONT
 10
0.0
 20
0.0
 30
0.0
  9
$UCSORGBACK
 10
0.0
 20
0.0
 30
0.0
  9
$PUCSBASE
  2

  9
$PUCSNAME
  2

  9
$PUCSORG
 10
0.0
 20
0.0
 30
0.0
  9
$PUCSXDIR
 10
1.0
 20
0.0
 30
0.0
  9
$PUCSYDIR
 10
0.0
 20
1.0
 30
0.0
  9
$PUCSORTHOREF
  2

  9
$PUCSORTHOVIEW
 70
     0
  9
$PUCSORGTOP
 10
0.0
 20
0.0
 30
0.0
  9
$PUCSORGBOTTOM
 10
0.0
 20
0.0
 30
0.0
  9
$PUCSORGLEFT
 10
0.0
 20
0.0
 30
0.0
  9
$PUCSORGRIGHT
 10
0.0
 20
0.0
 30
0.0
  9
$PUCSORGFRONT
 10
0.0
 20
0.0
 30
0.0
  9
$PUCSORGBACK
 10
0.0
 20
0.0
 30
0.0
  9
$USERI1
 70
     0
  9
$USERI2
 70
     0
  9
$USERI3
 70
     0
  9
$USERI4
 70
     0
  9
$USERI5
 70
     0
  9
$USERR1
 40
0.0
  9
$USERR2
 40
0.0
  9
$USERR3
 40
0.0
  9
$USERR4
 40
0.0
  9
$USERR5
 40
0.0
  9
$WORLDVIEW
 70
     1
  9
$SHADEDGE
 70
     3
  9
$SHADEDIF
 70
    70
  9
$TILEMODE
 70
     1
  9
$MAXACTVP
 70
    64
  9
$PINSBASE
 10
0.0
 20
0.0
 30
0.0
  9
$PLIMCHECK
 70
     0
  9
$PEXTMIN
 10
1.000000000000000E+20
 20
1.000000000000000E+20
 30
1.000000000000000E+20
  9
$PEXTMAX
 10
-1.000000000000000E+20
 20
-1.000000000000000E+20
 30
-1.000000000000000E+20
  9
$PLIMMIN
 10
0.0
 20
0.0
  9
$PLIMMAX
 10
12.0
 20
9.0
  9
$UNITMODE
 70
     0
  9
$VISRETAIN
 70
     1
  9
$PLINEGEN
 70
     0
  9
$PSLTSCALE
 70
     1
  9
$TREEDEPTH
 70
  3020
  9
$CMLSTYLE
  2
Standard
  9
$CMLJUST
 70
     0
  9
$CMLSCALE
 40
1.0
  9
$PROXYGRAPHICS
 70
     1
  9
$MEASUREMENT
 70
     0
  9
$CELWEIGHT
370
    -1
  9
$ENDCAPS
280
     0
  9
$JOINSTYLE
280
     0
  9
$LWDISPLAY
290
     1
  9
$INSUNITS
 70
     1
  9
$HYPERLINKBASE
  1

  9
$STYLESHEET
  1

  9
$XEDIT
290
     1
  9
$CEPSNTYPE
380
     0
  9
$PSTYLEMODE
290
     1
  9
$FINGERPRINTGUID
  2
{ABD0C614-6559-4609-9069-AF8C0A90D1C3}
  9
$VERSIONGUID
  2
{FAEB1C32-E019-11D5-929B-00C0DF256EC4}
  9
$EXTNAMES
290
     1
  9
$PSVPSCALE
 40
0.0
  9
$OLESTARTUP
290
     0
  9
$SORTENTS
280
   127
  9
$INDEXCTL
280
     0
  9
$HIDETEXT
280
     1
  9
$XCLIPFRAME
280
     2
  9
$HALOGAP
280
     0
  9
$OBSCOLOR
 70
   257
  9
$OBSLTYPE
280
     0
  9
$INTERSECTIONDISPLAY
280
     0
  9
$INTERSECTIONCOLOR
 70
   257
  9
$DIMASSOC
280
     2
  9
$PROJECTNAME
  1

  9
$CAMERADISPLAY
290
     0
  9
$LENSLENGTH
 40
50.0
  9
$CAMERAHEIGHT
 40
0.0
  9
$STEPSPERSEC
 40
2.0
  9
$STEPSIZE
 40
6.0
  9
$3DDWFPREC
 40
2.0
  9
$PSOLWIDTH
 40
0.25
  9
$PSOLHEIGHT
 40
4.0
  9
$LOFTANG1
 40
1.570796326794897
  9
$LOFTANG2
 40
1.570796326794897
  9
$LOFTMAG1
 40
0.0
  9
$LOFTMAG2
 40
0.0
  9
$LOFTPARAM
 70
     7
  9
$LOFTNORMALS
280
     1
  9
$LATITUDE
 40
37.795
  9
$LONGITUDE
 40
-122.394
  9
$NORTHDIRECTION
 40
0.0
  9
$TIMEZONE
 70
 -8000
  9
$LIGHTGLYPHDISPLAY
280
     1
  9
$TILEMODELIGHTSYNCH
280
     1
  9
$CMATERIAL
347
3C
  9
$SOLIDHIST
280
     1
  9
$SHOWHIST
280
     1
  9
$DWFFRAME
280
     2
  9
$DGNFRAME
280
     2
  9
$REALWORLDSCALE
290
     1
  9
$INTERFERECOLOR
 62
   256
  9
$CSHADOW
280
     0
  9
$SHADOWPLANELOCATION
 40
0.0
  0
ENDSEC
  0
SECTION
  2
CLASSES
  0
CLASS
  1
ACDBDICTIONARYWDFLT
  2
AcDbDictionaryWithDefault
  3
ObjectDBX Classes
 90
        0
 91
        4
280
     0
281
     0
  0
CLASS
  1
VISUALSTYLE
  2
AcDbVisualStyle
  3
ObjectDBX Classes
 90
     4095
 91
        4
280
     0
281
     0
  0
CLASS
  1
MATERIAL
  2
AcDbMaterial
  3
ObjectDBX Classes
 90
     1153
 91
        4
280
     0
281
     0
  0
CLASS
  1
SUN
  2
AcDbSun
  3
SCENEOE
 90
     1024
 91
        4
280
     0
281
     0
  0
ENDSEC
  0
SECTION
  2
TABLES
  0
TABLE
  2
VPORT
  5
8
330
0
100
AcDbSymbolTable
 70
     1
  0
VPORT
  5
29
330
8
100
AcDbSymbolTableRecord
100
AcDbViewportTableRecord
  2
*Active
 70
     0
 10
0.0
 20
0.0
 11
1.0
 21
1.0
 12
0.0
 22
0.0
 13
0.0
 23
0.0
 14
0.5
 24
0.5
 15
0.5
 25
0.5
 16
0.0
 26
0.0
 36
1.0
 17
15.00011153799802
 27
15.000111537998
 37
0.0
 40
30.000223075996
 41
1.000000000000001
 42
50.0
 43
0.0
 44
0.0
 50
0.0
 51
0.0
 71
     0
 72
   100
 73
     1
 74
     3
 75
     0
 76
     0
 77
     0
 78
     0
281
     0
 65
     1
110
0.0
120
0.0
130
0.0
111
1.0
121
0.0
131
0.0
112
0.0
122
1.0
132
0.0
 79
     0
146
0.0
 60
     3
 61
     5
292
     1
282
     1
141
0.0
142
0.0
 63
   250
361
3F
  0
ENDTAB
  0
TABLE
  2
LTYPE
  5
5
330
0
100
AcDbSymbolTable
 70
     1
  0
LTYPE
  5
14
330
5
100
AcDbSymbolTableRecord
100
AcDbLinetypeTableRecord
  2
ByBlock
 70
     0
  3

 72
    65
 73
     0
 40
0.0
  0
LTYPE
  5
15
330
5
100
AcDbSymbolTableRecord
100
AcDbLinetypeTableRecord
  2
ByLayer
 70
     0
  3

 72
    65
 73
     0
 40
0.0
  0
LTYPE
  5
16
330
5
100
AcDbSymbolTableRecord
100
AcDbLinetypeTableRecord
  2
Continuous
 70
     0
  3
Solid line
 72
    65
 73
     0
 40
0.0
  0
ENDTAB
  0
TABLE
  2
LAYER
  5
2
330
0
100
AcDbSymbolTable
 70
     2
  0
LAYER
  5
10
330
2
100
AcDbSymbolTableRecord
100
AcDbLayerTableRecord
  2
0
 70
     0
 62
     7
  6
Continuous
370
    -3
390
F
347
3E
  0
LAYER
  5
40
330
2
100
AcDbSymbolTableRecord
100
AcDbLayerTableRecord
  2
Layer 1
 70
     0
 62
     7
  6
Continuous
370
    -3
390
F
347
3E
  0
ENDTAB
  0
TABLE
  2
STYLE
  5
3
330
0
100
AcDbSymbolTable
 70
     1
  0
STYLE
  5
11
330
3
100
AcDbSymbolTableRecord
100
AcDbTextStyleTableRecord
  2
Standard
 70
     0
 40
0.0
 41
1.0
 50
0.0
 71
     0
 42
0.2
  3
txt
  4

  0
ENDTAB
  0
TABLE
  2
VIEW
  5
6
330
0
100
AcDbSymbolTable
 70
     0
  0
ENDTAB
  0
TABLE
  2
UCS
  5
7
330
0
100
AcDbSymbolTable
 70
     0
  0
ENDTAB
  0
TABLE
  2
APPID
  5
9
330
0
100
AcDbSymbolTable
 70
     1
  0
APPID
  5
12
330
9
100
AcDbSymbolTableRecord
100
AcDbRegAppTableRecord
  2
ACAD
 70
     0
  0
ENDTAB
  0
TABLE
  2
DIMSTYLE
  5
A
330
0
100
AcDbSymbolTable
 70
     1
100
AcDbDimStyleTable
  0
DIMSTYLE
105
27
330
A
100
AcDbSymbolTableRecord
100
AcDbDimStyleTableRecord
  2
Standard
 70
     0
178
     0
340
11
  0
ENDTAB
  0
TABLE
  2
BLOCK_RECORD
  5
1
330
0
100
AcDbSymbolTable
 70
     2
  0
BLOCK_RECORD
  5
1F
330
1
100
AcDbSymbolTableRecord
100
AcDbBlockTableRecord
  2
*Model_Space
340
22
 70
     0
280
     1
281
     0
  0
BLOCK_RECORD
  5
1B
330
1
100
AcDbSymbolTableRecord
100
AcDbBlockTableRecord
  2
*Paper_Space
340
1E
 70
     0
280
     1
281
     0
  0
BLOCK_RECORD
  5
23
330
1
100
AcDbSymbolTableRecord
100
AcDbBlockTableRecord
  2
*Paper_Space0
340
26
 70
     0
280
     1
281
     0
  0
BLOCK_RECORD
  5
41
330
1
100
AcDbSymbolTableRecord
100
AcDbBlockTableRecord
  2
block 2
340
0
102
{BLKREFS
331
42
102
}
 70
     0
280
     1
281
     0
  0
ENDTAB
  0
ENDSEC
  0
SECTION
  2
BLOCKS
  0
BLOCK
  5
20
330
1F
100
AcDbEntity
  8
0
100
AcDbBlockBegin
  2
*Model_Space
 70
     0
 10
0.0
 20
0.0
 30
0.0
  3
*Model_Space
  1

  0
ENDBLK
  5
21
330
1F
100
AcDbEntity
  8
0
100
AcDbBlockEnd
  0
BLOCK
  5
1C
330
1B
100
AcDbEntity
 67
     1
  8
0
100
AcDbBlockBegin
  2
*Paper_Space
 70
     0
 10
0.0
 20
0.0
 30
0.0
  3
*Paper_Space
  1

  0
ENDBLK
  5
1D
330
1B
100
AcDbEntity
 67
     1
  8
0
100
AcDbBlockEnd
  0
BLOCK
  5
24
330
23
100
AcDbEntity
  8
0
100
AcDbBlockBegin
  2
*Paper_Space0
 70
     0
 10
0.0
 20
0.0
 30
0.0
  3
*Paper_Space0
  1

  0
ENDBLK
  5
25
330
23
100
AcDbEntity
  8
0
100
AcDbBlockEnd
  0
BLOCK
  5
43
330
41
100
AcDbEntity
  8
0
100
AcDbBlockBegin
  2
block 2
 70
     0
 10
0.0
 20
0.0
 30
0.0
  3
block 2
  1

  0
SPLINE
  5
45
330
41
100
AcDbEntity
  8
Layer 1
370
     0
100
AcDbSpline
210
0.0
220
0.0
230
1.0
 70
    11
 71
     3
 72
    62
 73
    58
 74
     0
 42
0.0000000001
 43
0.0000000001
 12
1.0
 22
0.0
 32
0.0
 13
1.0
 23
0.0
 33
0.0
 40
0.0
 40
0.0
 40
0.0
 40
0.0
 40
1.0
 40
1.0
 40
1.0
 40
2.0
 40
2.0
 40
2.0
 40
3.0
 40
3.0
 40
3.0
 40
4.0
 40
4.0
 40
4.0
 40
5.0
 40
5.0
 40
5.0
 40
6.0
 40
6.0
 40
6.0
 40
7.0
 40
7.0
 40
7.0
 40
8.0
 40
8.0
 40
8.0
 40
9.0
 40
9.0
 40
9.0
 40
10.0
 40
10.0
 40
10.0
 40
11.0
 40
11.0
 40
11.0
 40
12.0
 40
12.0
 40
12.0
 40
13.0
 40
13.0
 40
13.0
 40
14.0
 40
14.0
 40
14.0
 40
15.0
 40
15.0
 40
15.0
 40
16.0
 40
16.0
 40
16.0
 40
17.0
 40
17.0
 40
17.0
 40
18.0
 40
18.0
 40
18.0
 40
19.0
 40
19.0
 40
19.0
 40
19.0
 10
29.80972221476979
 20
21.47345456752117
 30
0.0
 10
29.65767507871297
 20
20.85221126458946
 30
0.0
 10
29.11827863177208
 20
20.06904632066633
 30
0.0
 10
28.46599071214891
 20
19.29822558450378
 30
0.0
 10
28.28995494559135
 20
19.98331942588525
 30
0.0
 10
28.04689269318359
 20
20.49308374528363
 30
0.0
 10
27.76255173730849
 20
20.71004293983659
 30
0.0
 10
27.60098106541963
 20
20.83351516202795
 30
0.0
 10
27.34909721538495
 20
20.91888678133712
 30
0.0
 10
27.02136743505781
 20
20.96263088126108
 30
0.0
 10
27.03830007936781
 20
22.49474451138478
 30
0.0
 10
26.53453237929844
 20
23.99969571679196
 30
0.0
 10
25.54111110472583
 20
25.18467506626785
 30
0.0
 10
23.15280511913042
 20
28.024536176669
 30
0.0
 10
16.70050085709875
 20
25.79850926072159
 30
0.0
 10
14.9295559824601
 20
20.73262123437305
 30
0.0
 10
13.15508419131843
 20
25.79850926072159
 30
0.0
 10
6.713360678795834
 20
28.024536176669
 30
0.0
 10
4.332110679391147
 20
25.18467506626785
 30
0.0
 10
3.160888026824795
 20
23.78767592789097
 30
0.0
 10
2.666999138059379
 20
21.94617549771441
 30
0.0
 10
2.910416665939062
 20
20.13995284530681
 30
0.0
 10
3.788834193659996
 20
13.52889858331482
 30
0.0
 10
11.81452863609802
 20
11.69798105583201
 30
0.0
 10
14.88016623230969
 20
2.645704141591178
 30
0.0
 10
14.89427820469114
 20
2.596314391440765
 30
0.0
 10
14.96483376022906
 20
2.596314391440765
 30
0.0
 10
14.98247264911354
 20
2.645704141591178
 30
0.0
 10
15.21213132689901
 20
3.324801363643626
 30
0.0
 10
15.46965867397547
 20
3.962975157700662
 30
0.0
 10
15.75046840697818
 20
4.56552020488618
 30
0.0
 10
16.02704713208807
 20
4.443811440946338
 30
0.0
 10
16.39887413462641
 20
4.395834179944878
 30
0.0
 10
16.73718897083198
 20
4.380664993886387
 30
0.0
 10
16.70755469010479
 20
4.321751707903937
 30
0.0
 10
16.68003914310104
 20
4.265305971562796
 30
0.0
 10
16.65463802345135
 20
4.21203618262212
 30
0.0
 10
16.00199913472563
 20
2.829149016626697
 30
0.0
 10
15.52574913484469
 20
1.396869947296182
 30
0.0
 10
14.99305555180729
 20
-0.1694620937347612
 30
0.0
 10
14.97188974641979
 20
-0.229434746578926
 30
0.0
 10
14.88722221850042
 20
-0.229434746578926
 30
0.0
 10
14.86605641311291
 20
-0.1694620937347612
 30
0.0
 10
11.07369530294989
 20
11.03475926441253
 30
0.0
 10
1.146527777491146
 20
13.29606395812889
 30
0.0
 10
0.0599726528441648
 20
21.47345456752117
 30
0.0
 10
-0.2363615416889565
 20
23.7065374696593
 30
0.0
 10
0.373943583077087
 20
25.98548105226014
 30
0.0
 10
1.820332471604378
 20
27.71056524643607
 30
0.0
 10
4.769555985000102
 20
31.22070413444743
 30
0.0
 10
12.73527777459396
 20
28.46903746846868
 30
0.0
 10
14.9260269127724
 20
22.20370284479087
 30
0.0
 10
17.12030512063854
 20
28.46903746846868
 30
0.0
 10
25.10013888261385
 20
31.22070413444743
 30
0.0
 10
28.0493602428249
 20
27.71056524643607
 30
0.0
 10
29.49927820103989
 20
25.98548105226014
 30
0.0
 10
30.38122264526385
 20
23.80531481677545
 30
0.0
 10
29.80972221476979
 20
21.47345456752117
 30
0.0
  0
HATCH
  5
46
330
41
100
AcDbEntity
  8
Layer 1
 62
    13
420
 13382502
100
AcDbHatch
 10
0.0
 20
0.0
 30
0.0
210
0.0
220
0.0
230
1.0
  2
SOLID
 70
     1
 71
     0
 91
        1
 92
        1
 93
        1
 72
     4
 94
        3
 73
     0
 74
     1
 95
       62
 96
       58
 40
0.0
 40
0.0
 40
0.0
 40
0.0
 40
1.0
 40
1.0
 40
1.0
 40
2.0
 40
2.0
 40
2.0
 40
3.0
 40
3.0
 40
3.0
 40
4.0
 40
4.0
 40
4.0
 40
5.0
 40
5.0
 40
5.0
 40
6.0
 40
6.0
 40
6.0
 40
7.0
 40
7.0
 40
7.0
 40
8.0
 40
8.0
 40
8.0
 40
9.0
 40
9.0
 40
9.0
 40
10.0
 40
10.0
 40
10.0
 40
11.0
 40
11.0
 40
11.0
 40
12.0
 40
12.0
 40
12.0
 40
13.0
 40
13.0
 40
13.0
 40
14.0
 40
14.0
 40
14.0
 40
15.0
 40
15.0
 40
15.0
 40
16.0
 40
16.0
 40
16.0
 40
17.0
 40
17.0
 40
17.0
 40
18.0
 40
18.0
 40
18.0
 40
19.0
 40
19.0
 40
19.0
 40
19.0
 10
29.80972221476979
 20
21.47345456752117
 10
29.65767507871297
 20
20.85221126458946
 10
29.11827863177208
 20
20.06904632066633
 10
28.46599071214891
 20
19.29822558450378
 10
28.28995494559135
 20
19.98331942588525
 10
28.04689269318359
 20
20.49308374528363
 10
27.76255173730849
 20
20.71004293983659
 10
27.60098106541963
 20
20.83351516202795
 10
27.34909721538495
 20
20.91888678133712
 10
27.02136743505781
 20
20.96263088126108
 10
27.03830007936781
 20
22.49474451138478
 10
26.53453237929844
 20
23.99969571679196
 10
25.54111110472583
 20
25.18467506626785
 10
23.15280511913042
 20
28.024536176669
 10
16.70050085709875
 20
25.79850926072159
 10
14.9295559824601
 20
20.73262123437305
 10
13.15508419131843
 20
25.79850926072159
 10
6.713360678795834
 20
28.024536176669
 10
4.332110679391147
 20
25.18467506626785
 10
3.160888026824795
 20
23.78767592789097
 10
2.666999138059379
 20
21.94617549771441
 10
2.910416665939062
 20
20.13995284530681
 10
3.788834193659996
 20
13.52889858331482
 10
11.81452863609802
 20
11.69798105583201
 10
14.88016623230969
 20
2.645704141591178
 10
14.89427820469114
 20
2.596314391440765
 10
14.96483376022906
 20
2.596314391440765
 10
14.98247264911354
 20
2.645704141591178
 10
15.21213132689901
 20
3.324801363643626
 10
15.46965867397547
 20
3.962975157700662
 10
15.75046840697818
 20
4.56552020488618
 10
16.02704713208807
 20
4.443811440946338
 10
16.39887413462641
 20
4.395834179944878
 10
16.73718897083198
 20
4.380664993886387
 10
16.70755469010479
 20
4.321751707903937
 10
16.68003914310104
 20
4.265305971562796
 10
16.65463802345135
 20
4.21203618262212
 10
16.00199913472563
 20
2.829149016626697
 10
15.52574913484469
 20
1.396869947296182
 10
14.99305555180729
 20
-0.1694620937347612
 10
14.97188974641979
 20
-0.229434746578926
 10
14.88722221850042
 20
-0.229434746578926
 10
14.86605641311291
 20
-0.1694620937347612
 10
11.07369530294989
 20
11.03475926441253
 10
1.146527777491146
 20
13.29606395812889
 10
0.0599726528441648
 20
21.47345456752117
 10
-0.2363615416889565
 20
23.7065374696593
 10
0.373943583077087
 20
25.98548105226014
 10
1.820332471604378
 20
27.71056524643607
 10
4.769555985000102
 20
31.22070413444743
 10
12.73527777459396
 20
28.46903746846868
 10
14.9260269127724
 20
22.20370284479087
 10
17.12030512063854
 20
28.46903746846868
 10
25.10013888261385
 20
31.22070413444743
 10
28.0493602428249
 20
27.71056524643607
 10
29.49927820103989
 20
25.98548105226014
 10
30.38122264526385
 20
23.80531481677545
 10
29.80972221476979
 20
21.47345456752117
 97
        0
 97
        0
 75
     2
 76
     1
 98
        0
  0
SPLINE
  5
47
330
41
100
AcDbEntity
  8
Layer 1
370
     0
100
AcDbSpline
210
0.0
220
0.0
230
1.0
 70
    11
 71
     3
 72
    23
 73
    19
 74
     0
 42
0.0000000001
 43
0.0000000001
 12
1.0
 22
0.0
 32
0.0
 13
1.0
 23
0.0
 33
0.0
 40
0.0
 40
0.0
 40
0.0
 40
0.0
 40
1.0
 40
1.0
 40
1.0
 40
2.0
 40
2.0
 40
2.0
 40
3.0
 40
3.0
 40
3.0
 40
4.0
 40
4.0
 40
4.0
 40
5.0
 40
5.0
 40
5.0
 40
6.0
 40
6.0
 40
6.0
 40
6.0
 10
15.61114152353173
 20
4.760189226388015
 30
0.0
 10
16.72692886189155
 20
3.911805247896018
 30
0.0
 10
23.09023763644844
 20
4.840082038946126
 30
0.0
 10
26.34465164991472
 20
9.110263308349424
 30
0.0
 10
29.60377349437093
 20
13.389526721513
 30
0.0
 10
28.81730455517458
 20
19.77895682257682
 30
0.0
 10
27.70182061298593
 20
20.63049046301474
 30
0.0
 10
27.1104502899195
 20
21.0827695273743
 30
0.0
 10
25.19911956918469
 20
20.94560027032704
 30
0.0
 10
23.25673685626121
 20
20.31746283689165
 30
0.0
 10
21.79801126285056
 20
19.84273893056169
 30
0.0
 10
19.05874910379362
 20
18.66851623621094
 30
0.0
 10
17.12874711634674
 20
16.13368257188375
 30
0.0
 10
15.19760198744311
 20
13.60023366512717
 30
0.0
 10
14.79488350646171
 20
10.65217228093533
 30
0.0
 10
14.72656932663146
 20
9.121531259212368
 30
0.0
 10
14.63937489711881
 20
7.087910585271873
 30
0.0
 10
15.01661574458567
 20
5.212776104825085
 30
0.0
 10
15.61114152353173
 20
4.760189226388015
 30
0.0
  0
SPLINE
  5
48
330
41
100
AcDbEntity
  8
Layer 1
370
     0
100
AcDbSpline
210
0.0
220
0.0
230
1.0
 70
    11
 71
     3
 72
    32
 73
    28
 74
     0
 42
0.0000000001
 43
0.0000000001
 12
1.0
 22
0.0
 32
0.0
 13
1.0
 23
0.0
 33
0.0
 40
0.0
 40
0.0
 40
0.0
 40
0.0
 40
1.0
 40
1.0
 40
1.0
 40
2.0
 40
2.0
 40
2.0
 40
3.0
 40
3.0
 40
3.0
 40
4.0
 40
4.0
 40
4.0
 40
5.0
 40
5.0
 40
5.0
 40
6.0
 40
6.0
 40
6.0
 40
7.0
 40
7.0
 40
7.0
 40
8.0
 40
8.0
 40
8.0
 40
9.0
 40
9.0
 40
9.0
 40
9.0
 10
21.84910079638085
 20
19.32717140107258
 30
0.0
 10
21.77107275973602
 20
19.37425285487034
 30
0.0
 10
21.7799372377254
 20
19.49037340770908
 30
0.0
 10
21.86247361197177
 20
19.5280444449538
 30
0.0
 10
22.49542168646362
 20
19.8162044418102
 30
0.0
 10
23.12413149566854
 20
20.04183608560287
 30
0.0
 10
23.71842492873034
 20
20.21489362601421
 30
0.0
 10
23.75046122209641
 20
20.22382684634612
 30
0.0
 10
23.78308743947225
 20
20.21935431580712
 30
0.0
 10
23.81176336740763
 20
20.2006407070168
 30
0.0
 10
24.89966923362192
 20
19.48914863802982
 30
0.0
 10
26.6024305774391
 20
18.29256238352924
 30
0.0
 10
28.39335229500821
 20
16.73126175289208
 30
0.0
 10
28.41794760797502
 20
16.70976807629015
 30
0.0
 10
28.43336274031213
 20
16.67901070301308
 30
0.0
 10
28.43399178211246
 20
16.64652605820286
 30
0.0
 10
28.4363202489264
 20
16.50196963661526
 30
0.0
 10
28.43330856916299
 20
16.35475974920685
 30
0.0
 10
28.43055485211709
 20
16.20370644503891
 30
0.0
 10
28.41883502982843
 20
15.78014934912675
 30
0.0
 10
28.38595817898652
 20
15.2512192266911
 30
0.0
 10
28.30176851017168
 20
14.65293925818109
 30
0.0
 10
28.28977669167378
 20
14.56319103228104
 30
0.0
 10
28.17978662908878
 20
14.52439917501609
 30
0.0
 10
28.11325890157314
 20
14.58497672486331
 30
0.0
 10
25.46052079093388
 20
16.99769173400396
 30
0.0
 10
22.8643831447108
 20
18.70482852931356
 30
0.0
 10
21.84910079638085
 20
19.32717140107258
 30
0.0
  0
SPLINE
  5
49
330
41
100
AcDbEntity
  8
Layer 1
370
     0
100
AcDbSpline
210
0.0
220
0.0
230
1.0
 70
    11
 71
     3
 72
   257
 73
   253
 74
     0
 42
0.0000000001
 43
0.0000000001
 12
1.0
 22
0.0
 32
0.0
 13
1.0
 23
0.0
 33
0.0
 40
0.0
 40
0.0
 40
0.0
 40
0.0
 40
1.0
 40
1.0
 40
1.0
 40
2.0
 40
2.0
 40
2.0
 40
3.0
 40
3.0
 40
3.0
 40
4.0
 40
4.0
 40
4.0
 40
5.0
 40
5.0
 40
5.0
 40
6.0
 40
6.0
 40
6.0
 40
7.0
 40
7.0
 40
7.0
 40
8.0
 40
8.0
 40
8.0
 40
9.0
 40
9.0
 40
9.0
 40
10.0
 40
10.0
 40
10.0
 40
11.0
 40
11.0
 40
11.0
 40
12.0
 40
12.0
 40
12.0
 40
13.0
 40
13.0
 40
13.0
 40
14.0
 40
14.0
 40
14.0
 40
15.0
 40
15.0
 40
15.0
 40
16.0
 40
16.0
 40
16.0
 40
17.0
 40
17.0
 40
17.0
 40
18.0
 40
18.0
 40
18.0
 40
19.0
 40
19.0
 40
19.0
 40
20.0
 40
20.0
 40
20.0
 40
21.0
 40
21.0
 40
21.0
 40
22.0
 40
22.0
 40
22.0
 40
23.0
 40
23.0
 40
23.0
 40
24.0
 40
24.0
 40
24.0
 40
25.0
 40
25.0
 40
25.0
 40
26.0
 40
26.0
 40
26.0
 40
27.0
 40
27.0
 40
27.0
 40
28.0
 40
28.0
 40
28.0
 40
29.0
 40
29.0
 40
29.0
 40
30.0
 40
30.0
 40
30.0
 40
31.0
 40
31.0
 40
31.0
 40
32.0
 40
32.0
 40
32.0
 40
33.0
 40
33.0
 40
33.0
 40
34.0
 40
34.0
 40
34.0
 40
35.0
 40
35.0
 40
35.0
 40
36.0
 40
36.0
 40
36.0
 40
37.0
 40
37.0
 40
37.0
 40
38.0
 40
38.0
 40
38.0
 40
39.0
 40
39.0
 40
39.0
 40
40.0
 40
40.0
 40
40.0
 40
41.0
 40
41.0
 40
41.0
 40
42.0
 40
42.0
 40
42.0
 40
43.0
 40
43.0
 40
43.0
 40
44.0
 40
44.0
 40
44.0
 40
45.0
 40
45.0
 40
45.0
 40
46.0
 40
46.0
 40
46.0
 40
47.0
 40
47.0
 40
47.0
 40
48.0
 40
48.0
 40
48.0
 40
49.0
 40
49.0
 40
49.0
 40
50.0
 40
50.0
 40
50.0
 40
51.0
 40
51.0
 40
51.0
 40
52.0
 40
52.0
 40
52.0
 40
53.0
 40
53.0
 40
53.0
 40
54.0
 40
54.0
 40
54.0
 40
55.0
 40
55.0
 40
55.0
 40
56.0
 40
56.0
 40
56.0
 40
57.0
 40
57.0
 40
57.0
 40
58.0
 40
58.0
 40
58.0
 40
59.0
 40
59.0
 40
59.0
 40
60.0
 40
60.0
 40
60.0
 40
61.0
 40
61.0
 40
61.0
 40
62.0
 40
62.0
 40
62.0
 40
63.0
 40
63.0
 40
63.0
 40
64.0
 40
64.0
 40
64.0
 40
65.0
 40
65.0
 40
65.0
 40
66.0
 40
66.0
 40
66.0
 40
67.0
 40
67.0
 40
67.0
 40
68.0
 40
68.0
 40
68.0
 40
69.0
 40
69.0
 40
69.0
 40
70.0
 40
70.0
 40
70.0
 40
71.0
 40
71.0
 40
71.0
 40
72.0
 40
72.0
 40
72.0
 40
73.0
 40
73.0
 40
73.0
 40
74.0
 40
74.0
 40
74.0
 40
75.0
 40
75.0
 40
75.0
 40
76.0
 40
76.0
 40
76.0
 40
77.0
 40
77.0
 40
77.0
 40
78.0
 40
78.0
 40
78.0
 40
79.0
 40
79.0
 40
79.0
 40
80.0
 40
80.0
 40
80.0
 40
81.0
 40
81.0
 40
81.0
 40
82.0
 40
82.0
 40
82.0
 40
83.0
 40
83.0
 40
83.0
 40
84.0
 40
84.0
 40
84.0
 40
84.0
 10
18.78803527926939
 20
10.06073343282391
 30
0.0
 10
18.82416826535588
 20
10.13729657855905
 30
0.0
 10
18.86600181551293
 20
10.22664709495413
 30
0.0
 10
18.91965845945088
 20
10.32628805933036
 30
0.0
 10
18.91965845945088
 20
10.32628805933036
 30
0.0
 10
18.75945850618644
 20
10.44946758304432
 30
0.0
 10
18.75945850618644
 20
10.44946758304432
 30
0.0
 10
18.61325422780321
 20
10.55983127989744
 30
0.0
 10
18.58348235646947
 20
10.76812115696216
 30
0.0
 10
18.69561095769705
 20
10.91287889771714
 30
0.0
 10
18.75007005490907
 20
10.98827761575738
 30
0.0
 10
18.83127731687774
 20
11.03179996627907
 30
0.0
 10
18.91607185866728
 20
11.04063697552001
 30
0.0
 10
18.99796414855941
 20
11.05230086205454
 30
0.0
 10
19.08689677638979
 20
11.03212567308222
 30
0.0
 10
19.16148093155874
 20
10.97584126746756
 30
0.0
 10
19.16148093155874
 20
10.97584126746756
 30
0.0
 10
19.25919751546271
 20
10.90266959666421
 30
0.0
 10
19.25919751546271
 20
10.90266959666421
 30
0.0
 10
19.32185651065175
 20
11.00332606530701
 30
0.0
 10
19.38834395202545
 20
11.11060160061592
 30
0.0
 10
19.46093011672383
 20
11.2217297293252
 30
0.0
 10
19.46093011672383
 20
11.2217297293252
 30
0.0
 10
19.32475252966946
 20
11.32411816706245
 30
0.0
 10
19.32475252966946
 20
11.32411816706245
 30
0.0
 10
19.1799947889146
 20
11.43624676829009
 30
0.0
 10
19.15274060476941
 20
11.64429365321189
 30
0.0
 10
19.26171954405155
 20
11.78935479013837
 30
0.0
 10
19.3178169436465
 20
11.86204743894165
 30
0.0
 10
19.39644473836968
 20
11.9051910186888
 30
0.0
 10
19.48224084905016
 20
11.9177448426978
 30
0.0
 10
19.56722239685935
 20
11.92847335830415
 30
0.0
 10
19.65552304993252
 20
11.90835857336041
 30
0.0
 10
19.72753353178985
 20
11.85169097906557
 30
0.0
 10
19.72753353178985
 20
11.85169097906557
 30
0.0
 10
19.8317439563974
 20
11.77342111862953
 30
0.0
 10
19.8317439563974
 20
11.77342111862953
 30
0.0
 10
19.91552124011992
 20
11.89490009934789
 30
0.0
 10
20.00148900847397
 20
12.01933594205797
 30
0.0
 10
20.09161380159853
 20
12.14718078545982
 30
0.0
 10
20.09161380159853
 20
12.14718078545982
 30
0.0
 10
19.96268283806145
 20
12.24567457904964
 30
0.0
 10
19.96268283806145
 20
12.24567457904964
 30
0.0
 10
19.81705454831216
 20
12.35535169105142
 30
0.0
 10
19.78759186708371
 20
12.56678681215627
 30
0.0
 10
19.9003524430685
 20
12.71148414888274
 30
0.0
 10
19.95329438678394
 20
12.78448461176277
 30
0.0
 10
20.03437504676179
 20
12.82674743067592
 30
0.0
 10
20.11872461981384
 20
12.83753635031085
 30
0.0
 10
20.2014358904829
 20
12.85103133918228
 30
0.0
 10
20.29289199943551
 20
12.8306087401618
 30
0.0
 10
20.36495267348177
 20
12.7745717445953
 30
0.0
 10
20.36495267348177
 20
12.7745717445953
 30
0.0
 10
20.47850182853817
 20
12.68776084824894
 30
0.0
 10
20.47850182853817
 20
12.68776084824894
 30
0.0
 10
20.57026492404611
 20
12.81289962241409
 30
0.0
 10
20.6654264675764
 20
12.94024826969098
 30
0.0
 10
20.76335448437177
 20
13.06986719410815
 30
0.0
 10
20.76335448437177
 20
13.06986719410815
 30
0.0
 10
20.65264580115552
 20
13.15322945024301
 30
0.0
 10
20.65264580115552
 20
13.15322945024301
 30
0.0
 10
20.57995894628604
 20
13.20932243193265
 30
0.0
 10
20.53768591553384
 20
13.29040171588168
 30
0.0
 10
20.52602202899924
 20
13.37229400577414
 30
0.0
 10
20.51340780096128
 20
13.45745814169773
 30
0.0
 10
20.53604469099889
 20
13.54552159656211
 30
0.0
 10
20.58962440340554
 20
13.6184572375085
 30
0.0
 10
20.70174721069887
 20
13.76321939616861
 30
0.0
 10
20.91072504864411
 20
13.79355704429674
 30
0.0
 10
21.05542238537046
 20
13.68079646831221
 30
0.0
 10
21.05542238537046
 20
13.68079646831221
 30
0.0
 10
21.16682344737205
 20
13.59800578290584
 30
0.0
 10
21.16682344737205
 20
13.59800578290584
 30
0.0
 10
21.27166337433535
 20
13.73331282096572
 30
0.0
 10
21.37663569722359
 20
13.86987497272874
 30
0.0
 10
21.47696059315044
 20
13.99798695548915
 30
0.0
 10
21.47696059315044
 20
13.99798695548915
 30
0.0
 10
21.36341143809423
 20
14.08479785183551
 30
0.0
 10
21.36341143809423
 20
14.08479785183551
 30
0.0
 10
21.29134634614246
 20
14.14082905346795
 30
0.0
 10
21.2485163744065
 20
14.22260788616525
 30
0.0
 10
21.23558853835793
 20
14.30462098411473
 30
0.0
 10
21.22486002275158
 20
14.38960253192405
 30
0.0
 10
21.24503962962934
 20
14.4785409536881
 30
0.0
 10
21.30107662519565
 20
14.55060162773437
 30
0.0
 10
21.41074794326325
 20
14.69623433538935
 30
0.0
 10
21.62148489164896
 20
14.72512986379461
 30
0.0
 10
21.76687460716077
 20
14.61294085853846
 30
0.0
 10
21.76687460716077
 20
14.61294085853846
 30
0.0
 10
21.8933540814716
 20
14.515317613943
 30
0.0
 10
21.8933540814716
 20
14.515317613943
 30
0.0
 10
21.99298998131991
 20
14.63650575783732
 30
0.0
 10
22.09088036527399
 20
14.75278512934594
 30
0.0
 10
22.1847417024772
 20
14.86690481993206
 30
0.0
 10
22.1847417024772
 20
14.86690481993206
 30
0.0
 10
22.0822961822441
 20
14.94372814274012
 30
0.0
 10
22.0822961822441
 20
14.94372814274012
 30
0.0
 10
22.01016489233001
 20
14.99913178752115
 30
0.0
 10
21.96645553578862
 20
15.07844754312412
 30
0.0
 10
21.95693056566778
 20
15.1626763081195
 30
0.0
 10
21.94431633762983
 20
15.2478404440431
 30
0.0
 10
21.96380356572174
 20
15.33620729507887
 30
0.0
 10
22.01990096531675
 20
15.40889994388219
 30
0.0
 10
22.1295060854221
 20
15.55390509468531
 30
0.0
 10
22.34037542973256
 20
15.58405573679388
 30
0.0
 10
22.48575935131044
 20
15.47187114944287
 30
0.0
 10
22.48575935131044
 20
15.47187114944287
 30
0.0
 10
22.62029863598143
 20
15.37218878094264
 30
0.0
 10
22.62029863598143
 20
15.37218878094264
 30
0.0
 10
22.70556191595286
 20
15.46998549818556
 30
0.0
 10
22.79052042372431
 20
15.5646427653224
 30
0.0
 10
22.87083150453416
 20
15.65084986345666
 30
0.0
 10
22.87083150453416
 20
15.65084986345666
 30
0.0
 10
22.77557082776103
 20
15.72315677919942
 30
0.0
 10
22.77557082776103
 20
15.72315677919942
 30
0.0
 10
22.70344533178068
 20
15.77855600607523
 30
0.0
 10
22.66061094213902
 20
15.86032904483825
 30
0.0
 10
22.64951283239899
 20
15.94153337385043
 30
0.0
 10
22.63689860436123
 20
16.02669750977402
 30
0.0
 10
22.65889910173645
 20
16.11481557473295
 30
0.0
 10
22.71247743811435
 20
16.18776142751839
 30
0.0
 10
22.82523801409895
 20
16.33245876424493
 30
0.0
 10
23.03421585204387
 20
16.36279641237303
 30
0.0
 10
23.17834161804191
 20
16.25072821517399
 30
0.0
 10
23.17834161804191
 20
16.25072821517399
 30
0.0
 10
23.33532674659672
 20
16.13358259285094
 30
0.0
 10
23.33532674659672
 20
16.13358259285094
 30
0.0
 10
23.42300525898127
 20
16.21715899635193
 30
0.0
 10
23.50321830292093
 20
16.28939456682047
 30
0.0
 10
23.57508207570509
 20
16.34782043322916
 30
0.0
 10
23.71929422953171
 20
16.46971775226297
 30
0.0
 10
23.93947704989734
 20
16.43283418691222
 30
0.0
 10
24.04213261618829
 20
16.2739736189394
 30
0.0
 10
24.04213261618829
 20
16.2739736189394
 30
0.0
 10
24.05508128872476
 20
16.25044789860481
 30
0.0
 10
24.05508128872476
 20
16.25044789860481
 30
0.0
 10
24.13405855969524
 20
16.12888363723593
 30
0.0
 10
24.11860982384559
 20
15.96509860770076
 30
0.0
 10
24.01554215211862
 20
15.86077506672816
 30
0.0
 10
23.97651426499653
 20
15.8194688330024
 30
0.0
 10
23.9294313262497
 20
15.77385924320503
 30
0.0
 10
23.87947911863186
 20
15.71837032857847
 30
0.0
 10
23.87947911863186
 20
15.71837032857847
 30
0.0
 10
24.04087819947643
 20
15.59443222811642
 30
0.0
 10
24.04087819947643
 20
15.59443222811642
 30
0.0
 10
24.1884024134967
 20
15.484573904029
 30
0.0
 10
24.2153416136026
 20
15.27338619297258
 30
0.0
 10
24.10636405034908
 20
15.12831484420676
 30
0.0
 10
23.99297591751285
 20
14.98368370544279
 30
0.0
 10
23.78556100734806
 20
14.95636911726903
 30
0.0
 10
23.63810299129024
 20
15.06685499820792
 30
0.0
 10
23.63810299129024
 20
15.06685499820792
 30
0.0
 10
23.42223491799177
 20
15.23174874897079
 30
0.0
 10
23.42223491799177
 20
15.23174874897079
 30
0.0
 10
23.34198424121075
 20
15.14617362559357
 30
0.0
 10
23.25948301659948
 20
15.05064139155693
 30
0.0
 10
23.16836538147472
 20
14.9514995562626
 30
0.0
 10
23.16836538147472
 20
14.9514995562626
 30
0.0
 10
23.34955546435362
 20
14.81544856039432
 30
0.0
 10
23.34955546435362
 20
14.81544856039432
 30
0.0
 10
23.49581572886005
 20
14.70571104436421
 30
0.0
 10
23.52282554483357
 20
14.49515668409317
 30
0.0
 10
23.41006496884911
 20
14.35045934736656
 30
0.0
 10
23.30039365078144
 20
14.20482663971183
 30
0.0
 10
23.09141581283658
 20
14.17448899158364
 30
0.0
 10
22.94728562893329
 20
14.28655139484885
 30
0.0
 10
22.94728562893329
 20
14.28655139484885
 30
0.0
 10
22.72965265126055
 20
14.4528916832397
 30
0.0
 10
22.72965265126055
 20
14.4528916832397
 30
0.0
 10
22.6353419274143
 20
14.34071810911376
 30
0.0
 10
22.53745596136585
 20
14.22444453153908
 30
0.0
 10
22.43535256651863
 20
14.10412997851568
 30
0.0
 10
22.43535256651863
 20
14.10412997851568
 30
0.0
 10
22.62821343704377
 20
13.95739323638958
 30
0.0
 10
22.62821343704377
 20
13.95739323638958
 30
0.0
 10
22.77297117779902
 20
13.84526463516212
 30
0.0
 10
22.80147772358986
 20
13.63710577799361
 30
0.0
 10
22.6911802246995
 20
13.49152905646214
 30
0.0
 10
22.58156931066028
 20
13.34652832356417
 30
0.0
 10
22.37100915645517
 20
13.31952292549583
 30
0.0
 10
22.2259422255947
 20
13.42850628268316
 30
0.0
 10
22.2259422255947
 20
13.42850628268316
 30
0.0
 10
22.01461028867189
 20
13.58786129298135
 30
0.0
 10
22.01461028867189
 20
13.58786129298135
 30
0.0
 10
21.91114014870465
 20
13.46005850032656
 30
0.0
 10
21.80742259868951
 20
13.32973222654902
 30
0.0
 10
21.70220728365854
 20
13.19065238759744
 30
0.0
 10
21.70220728365854
 20
13.19065238759744
 30
0.0
 10
21.91991087719904
 20
13.02494544999196
 30
0.0
 10
21.91991087719904
 20
13.02494544999196
 30
0.0
 10
22.06245874484208
 20
12.91621529678654
 30
0.0
 10
22.09191700816535
 20
12.70477438174757
 30
0.0
 10
21.98224569009749
 20
12.55914167409291
 30
0.0
 10
21.87011708886991
 20
12.41438393333799
 30
0.0
 10
21.66182721180539
 20
12.38461206200418
 30
0.0
 10
21.51707388895552
 20
12.49674645716582
 30
0.0
 10
21.51707388895552
 20
12.49674645716582
 30
0.0
 10
21.29628103749816
 20
12.66338876569961
 30
0.0
 10
21.29628103749816
 20
12.66338876569961
 30
0.0
 10
21.20439713393307
 20
12.5369860420207
 30
0.0
 10
21.1099279691885
 20
12.41020896547224
 30
0.0
 10
21.01389145875841
 20
12.28040303503517
 30
0.0
 10
21.01389145875841
 20
12.28040303503517
 30
0.0
 10
21.22748925491649
 20
12.11827575753763
 30
0.0
 10
21.22748925491649
 20
12.11827575753763
 30
0.0
 10
21.3721865916429
 20
12.00551518155329
 30
0.0
 10
21.39943939975928
 20
11.79747850847074
 30
0.0
 10
21.28982406781508
 20
11.65247198163884
 30
0.0
 10
21.17958117901897
 20
11.50753165276938
 30
0.0
 10
20.96941000742816
 20
11.47794816348404
 30
0.0
 10
20.82465226667291
 20
11.59007676471175
 30
0.0
 10
20.82465226667291
 20
11.59007676471175
 30
0.0
 10
20.62933411298786
 20
11.73768847373759
 30
0.0
 10
20.62933411298786
 20
11.73768847373759
 30
0.0
 10
20.54045967483096
 20
11.61607371438762
 30
0.0
 10
20.45699938182585
 20
11.49139350350587
 30
0.0
 10
20.36958507584349
 20
11.36519275642133
 30
0.0
 10
20.36958507584349
 20
11.36519275642133
 30
0.0
 10
20.59201181177898
 20
11.19583858471671
 30
0.0
 10
20.59201181177898
 20
11.19583858471671
 30
0.0
 10
20.73676955253397
 20
11.08370998348887
 30
0.0
 10
20.76458951347367
 20
10.87497513768719
 30
0.0
 10
20.65252131627453
 20
10.73084937168895
 30
0.0
 10
20.54284999820693
 20
10.58521666403429
 30
0.0
 10
20.33392814638546
 20
10.55550519672893
 30
0.0
 10
20.1891748235354
 20
10.66763959189063
 30
0.0
 10
20.1891748235354
 20
10.66763959189063
 30
0.0
 10
20.00110771127301
 20
10.81136245070317
 30
0.0
 10
20.00110771127301
 20
10.81136245070317
 30
0.0
 10
19.93297754961094
 20
10.70678719069729
 30
0.0
 10
19.86340526822549
 20
10.60045282025069
 30
0.0
 10
19.79691920288053
 20
10.49316707310267
 30
0.0
 10
19.79691920288053
 20
10.49316707310267
 30
0.0
 10
20.02337974430199
 20
10.31961010234352
 30
0.0
 10
20.02337974430199
 20
10.31961010234352
 30
0.0
 10
20.16832449107676
 20
10.20937300748167
 30
0.0
 10
20.19596186390193
 20
9.998752449248054
 30
0.0
 10
20.08578075516315
 20
9.854433883296366
 30
0.0
 10
19.97359174990712
 20
9.709044167784555
 30
0.0
 10
19.76618125764752
 20
9.681735373544658
 30
0.0
 10
19.61991657523571
 20
9.791467095640897
 30
0.0
 10
19.61991657523571
 20
9.791467095640897
 30
0.0
 10
19.44370146270516
 20
9.926400132466329
 30
0.0
 10
19.44370146270516
 20
9.926400132466329
 30
0.0
 10
19.41388708006906
 20
9.87528311938261
 30
0.0
 10
19.3809216594591
 20
9.82447971430937
 30
0.0
 10
19.35098067483225
 20
9.772103169617127
 30
0.0
 10
19.27238951469305
 20
9.638679946230683
 30
0.0
 10
19.10853718001815
 20
9.58229016368914
 30
0.0
 10
18.96469976763769
 20
9.63901622731311
 30
0.0
 10
18.79616016960922
 20
9.703252852005775
 30
0.0
 10
18.71718400581625
 20
9.896028074914305
 30
0.0
 10
18.78803527926939
 20
10.06073343282391
 30
0.0
  0
SPLINE
  5
4A
330
41
100
AcDbEntity
  8
Layer 1
370
     0
100
AcDbSpline
210
0.0
220
0.0
230
1.0
 70
    11
 71
     3
 72
    32
 73
    28
 74
     0
 42
0.0000000001
 43
0.0000000001
 12
1.0
 22
0.0
 32
0.0
 13
1.0
 23
0.0
 33
0.0
 40
0.0
 40
0.0
 40
0.0
 40
0.0
 40
1.0
 40
1.0
 40
1.0
 40
2.0
 40
2.0
 40
2.0
 40
3.0
 40
3.0
 40
3.0
 40
4.0
 40
4.0
 40
4.0
 40
5.0
 40
5.0
 40
5.0
 40
6.0
 40
6.0
 40
6.0
 40
7.0
 40
7.0
 40
7.0
 40
8.0
 40
8.0
 40
8.0
 40
9.0
 40
9.0
 40
9.0
 40
9.0
 10
14.9884151970273
 20
8.628503948114055
 30
0.0
 10
14.96388745805162
 20
8.650614969728057
 30
0.0
 10
14.9503624560511
 20
8.681195548824968
 30
0.0
 10
14.95111954785038
 20
8.714813123252512
 30
0.0
 10
14.9584610280403
 20
9.333363043818164
 30
0.0
 10
15.01105572066846
 20
9.998331323118414
 30
0.0
 10
15.11989596997248
 20
10.68574147814767
 30
0.0
 10
15.13447304965006
 20
10.77586405691714
 30
0.0
 10
15.24319916272109
 20
10.8147767222391
 30
0.0
 10
15.30948389809414
 20
10.75168148520345
 30
0.0
 10
16.17657241400001
 20
9.941079736427033
 30
0.0
 10
18.51776826696751
 20
7.884490683387036
 30
0.0
 10
21.55595886933807
 20
5.965447425859677
 30
0.0
 10
21.63254036835485
 20
5.916601067687396
 30
0.0
 10
21.6250060378422
 20
5.800987263643019
 30
0.0
 10
21.54132652213844
 20
5.764700983969666
 30
0.0
 10
20.98039296963779
 20
5.523508595139552
 30
0.0
 10
20.47304693015596
 20
5.348905373052308
 30
0.0
 10
20.06672181694453
 20
5.225412262937532
 30
0.0
 10
19.92651601066082
 20
5.183235102445911
 30
0.0
 10
19.78800552808266
 20
5.145336115612119
 30
0.0
 10
19.65157355788962
 20
5.109141629124211
 30
0.0
 10
19.61960346248618
 20
5.100835965643573
 30
0.0
 10
19.58583852155871
 20
5.106699047688359
 30
0.0
 10
19.55842212523192
 20
5.125286054487314
 30
0.0
 10
17.57495385294456
 20
6.441638730701862
 30
0.0
 10
15.96502199546009
 20
7.767718342826949
 30
0.0
 10
14.9884151970273
 20
8.628503948114055
 30
0.0
  0
HATCH
  5
4B
330
41
100
AcDbEntity
  8
Layer 1
 62
    29
420
  5255980
100
AcDbHatch
 10
0.0
 20
0.0
 30
0.0
210
0.0
220
0.0
230
1.0
  2
SOLID
 70
     1
 71
     0
 91
        4
 92
        1
 93
        1
 72
     4
 94
        3
 73
     0
 74
     1
 95
       23
 96
       19
 40
0.0
 40
0.0
 40
0.0
 40
0.0
 40
1.0
 40
1.0
 40
1.0
 40
2.0
 40
2.0
 40
2.0
 40
3.0
 40
3.0
 40
3.0
 40
4.0
 40
4.0
 40
4.0
 40
5.0
 40
5.0
 40
5.0
 40
6.0
 40
6.0
 40
6.0
 40
6.0
 10
15.61114152353173
 20
4.760189226388015
 10
16.72692886189155
 20
3.911805247896018
 10
23.09023763644844
 20
4.840082038946126
 10
26.34465164991472
 20
9.110263308349424
 10
29.60377349437093
 20
13.389526721513
 10
28.81730455517458
 20
19.77895682257682
 10
27.70182061298593
 20
20.63049046301474
 10
27.1104502899195
 20
21.0827695273743
 10
25.19911956918469
 20
20.94560027032704
 10
23.25673685626121
 20
20.31746283689165
 10
21.79801126285056
 20
19.84273893056169
 10
19.05874910379362
 20
18.66851623621094
 10
17.12874711634674
 20
16.13368257188375
 10
15.19760198744311
 20
13.60023366512717
 10
14.79488350646171
 20
10.65217228093533
 10
14.72656932663146
 20
9.121531259212368
 10
14.63937489711881
 20
7.087910585271873
 10
15.01661574458567
 20
5.212776104825085
 10
15.61114152353173
 20
4.760189226388015
 97
        0
 97
        0
 92
        1
 93
        1
 72
     4
 94
        3
 73
     0
 74
     1
 95
       32
 96
       28
 40
0.0
 40
0.0
 40
0.0
 40
0.0
 40
1.0
 40
1.0
 40
1.0
 40
2.0
 40
2.0
 40
2.0
 40
3.0
 40
3.0
 40
3.0
 40
4.0
 40
4.0
 40
4.0
 40
5.0
 40
5.0
 40
5.0
 40
6.0
 40
6.0
 40
6.0
 40
7.0
 40
7.0
 40
7.0
 40
8.0
 40
8.0
 40
8.0
 40
9.0
 40
9.0
 40
9.0
 40
9.0
 10
21.84910079638085
 20
19.32717140107258
 10
21.77107275973602
 20
19.37425285487034
 10
21.7799372377254
 20
19.49037340770908
 10
21.86247361197177
 20
19.5280444449538
 10
22.49542168646362
 20
19.8162044418102
 10
23.12413149566854
 20
20.04183608560287
 10
23.71842492873034
 20
20.21489362601421
 10
23.75046122209641
 20
20.22382684634612
 10
23.78308743947225
 20
20.21935431580712
 10
23.81176336740763
 20
20.2006407070168
 10
24.89966923362192
 20
19.48914863802982
 10
26.6024305774391
 20
18.29256238352924
 10
28.39335229500821
 20
16.73126175289208
 10
28.41794760797502
 20
16.70976807629015
 10
28.43336274031213
 20
16.67901070301308
 10
28.43399178211246
 20
16.64652605820286
 10
28.4363202489264
 20
16.50196963661526
 10
28.43330856916299
 20
16.35475974920685
 10
28.43055485211709
 20
16.20370644503891
 10
28.41883502982843
 20
15.78014934912675
 10
28.38595817898652
 20
15.2512192266911
 10
28.30176851017168
 20
14.65293925818109
 10
28.28977669167378
 20
14.56319103228104
 10
28.17978662908878
 20
14.52439917501609
 10
28.11325890157314
 20
14.58497672486331
 10
25.46052079093388
 20
16.99769173400396
 10
22.8643831447108
 20
18.70482852931356
 10
21.84910079638085
 20
19.32717140107258
 97
        0
 97
        0
 92
        1
 93
        1
 72
     4
 94
        3
 73
     0
 74
     1
 95
      257
 96
      253
 40
0.0
 40
0.0
 40
0.0
 40
0.0
 40
1.0
 40
1.0
 40
1.0
 40
2.0
 40
2.0
 40
2.0
 40
3.0
 40
3.0
 40
3.0
 40
4.0
 40
4.0
 40
4.0
 40
5.0
 40
5.0
 40
5.0
 40
6.0
 40
6.0
 40
6.0
 40
7.0
 40
7.0
 40
7.0
 40
8.0
 40
8.0
 40
8.0
 40
9.0
 40
9.0
 40
9.0
 40
10.0
 40
10.0
 40
10.0
 40
11.0
 40
11.0
 40
11.0
 40
12.0
 40
12.0
 40
12.0
 40
13.0
 40
13.0
 40
13.0
 40
14.0
 40
14.0
 40
14.0
 40
15.0
 40
15.0
 40
15.0
 40
16.0
 40
16.0
 40
16.0
 40
17.0
 40
17.0
 40
17.0
 40
18.0
 40
18.0
 40
18.0
 40
19.0
 40
19.0
 40
19.0
 40
20.0
 40
20.0
 40
20.0
 40
21.0
 40
21.0
 40
21.0
 40
22.0
 40
22.0
 40
22.0
 40
23.0
 40
23.0
 40
23.0
 40
24.0
 40
24.0
 40
24.0
 40
25.0
 40
25.0
 40
25.0
 40
26.0
 40
26.0
 40
26.0
 40
27.0
 40
27.0
 40
27.0
 40
28.0
 40
28.0
 40
28.0
 40
29.0
 40
29.0
 40
29.0
 40
30.0
 40
30.0
 40
30.0
 40
31.0
 40
31.0
 40
31.0
 40
32.0
 40
32.0
 40
32.0
 40
33.0
 40
33.0
 40
33.0
 40
34.0
 40
34.0
 40
34.0
 40
35.0
 40
35.0
 40
35.0
 40
36.0
 40
36.0
 40
36.0
 40
37.0
 40
37.0
 40
37.0
 40
38.0
 40
38.0
 40
38.0
 40
39.0
 40
39.0
 40
39.0
 40
40.0
 40
40.0
 40
40.0
 40
41.0
 40
41.0
 40
41.0
 40
42.0
 40
42.0
 40
42.0
 40
43.0
 40
43.0
 40
43.0
 40
44.0
 40
44.0
 40
44.0
 40
45.0
 40
45.0
 40
45.0
 40
46.0
 40
46.0
 40
46.0
 40
47.0
 40
47.0
 40
47.0
 40
48.0
 40
48.0
 40
48.0
 40
49.0
 40
49.0
 40
49.0
 40
50.0
 40
50.0
 40
50.0
 40
51.0
 40
51.0
 40
51.0
 40
52.0
 40
52.0
 40
52.0
 40
53.0
 40
53.0
 40
53.0
 40
54.0
 40
54.0
 40
54.0
 40
55.0
 40
55.0
 40
55.0
 40
56.0
 40
56.0
 40
56.0
 40
57.0
 40
57.0
 40
57.0
 40
58.0
 40
58.0
 40
58.0
 40
59.0
 40
59.0
 40
59.0
 40
60.0
 40
60.0
 40
60.0
 40
61.0
 40
61.0
 40
61.0
 40
62.0
 40
62.0
 40
62.0
 40
63.0
 40
63.0
 40
63.0
 40
64.0
 40
64.0
 40
64.0
 40
65.0
 40
65.0
 40
65.0
 40
66.0
 40
66.0
 40
66.0
 40
67.0
 40
67.0
 40
67.0
 40
68.0
 40
68.0
 40
68.0
 40
69.0
 40
69.0
 40
69.0
 40
70.0
 40
70.0
 40
70.0
 40
71.0
 40
71.0
 40
71.0
 40
72.0
 40
72.0
 40
72.0
 40
73.0
 40
73.0
 40
73.0
 40
74.0
 40
74.0
 40
74.0
 40
75.0
 40
75.0
 40
75.0
 40
76.0
 40
76.0
 40
76.0
 40
77.0
 40
77.0
 40
77.0
 40
78.0
 40
78.0
 40
78.0
 40
79.0
 40
79.0
 40
79.0
 40
80.0
 40
80.0
 40
80.0
 40
81.0
 40
81.0
 40
81.0
 40
82.0
 40
82.0
 40
82.0
 40
83.0
 40
83.0
 40
83.0
 40
84.0
 40
84.0
 40
84.0
 40
84.0
 10
18.78803527926939
 20
10.06073343282391
 10
18.82416826535588
 20
10.13729657855905
 10
18.86600181551293
 20
10.22664709495413
 10
18.91965845945088
 20
10.32628805933036
 10
18.91965845945088
 20
10.32628805933036
 10
18.75945850618644
 20
10.44946758304432
 10
18.75945850618644
 20
10.44946758304432
 10
18.61325422780321
 20
10.55983127989744
 10
18.58348235646947
 20
10.76812115696216
 10
18.69561095769705
 20
10.91287889771714
 10
18.75007005490907
 20
10.98827761575738
 10
18.83127731687774
 20
11.03179996627907
 10
18.91607185866728
 20
11.04063697552001
 10
18.99796414855941
 20
11.05230086205454
 10
19.08689677638979
 20
11.03212567308222
 10
19.16148093155874
 20
10.97584126746756
 10
19.16148093155874
 20
10.97584126746756
 10
19.25919751546271
 20
10.90266959666421
 10
19.25919751546271
 20
10.90266959666421
 10
19.32185651065175
 20
11.00332606530701
 10
19.38834395202545
 20
11.11060160061592
 10
19.46093011672383
 20
11.2217297293252
 10
19.46093011672383
 20
11.2217297293252
 10
19.32475252966946
 20
11.32411816706245
 10
19.32475252966946
 20
11.32411816706245
 10
19.1799947889146
 20
11.43624676829009
 10
19.15274060476941
 20
11.64429365321189
 10
19.26171954405155
 20
11.78935479013837
 10
19.3178169436465
 20
11.86204743894165
 10
19.39644473836968
 20
11.9051910186888
 10
19.48224084905016
 20
11.9177448426978
 10
19.56722239685935
 20
11.92847335830415
 10
19.65552304993252
 20
11.90835857336041
 10
19.72753353178985
 20
11.85169097906557
 10
19.72753353178985
 20
11.85169097906557
 10
19.8317439563974
 20
11.77342111862953
 10
19.8317439563974
 20
11.77342111862953
 10
19.91552124011992
 20
11.89490009934789
 10
20.00148900847397
 20
12.01933594205797
 10
20.09161380159853
 20
12.14718078545982
 10
20.09161380159853
 20
12.14718078545982
 10
19.96268283806145
 20
12.24567457904964
 10
19.96268283806145
 20
12.24567457904964
 10
19.81705454831216
 20
12.35535169105142
 10
19.78759186708371
 20
12.56678681215627
 10
19.9003524430685
 20
12.71148414888274
 10
19.95329438678394
 20
12.78448461176277
 10
20.03437504676179
 20
12.82674743067592
 10
20.11872461981384
 20
12.83753635031085
 10
20.2014358904829
 20
12.85103133918228
 10
20.29289199943551
 20
12.8306087401618
 10
20.36495267348177
 20
12.7745717445953
 10
20.36495267348177
 20
12.7745717445953
 10
20.47850182853817
 20
12.68776084824894
 10
20.47850182853817
 20
12.68776084824894
 10
20.57026492404611
 20
12.81289962241409
 10
20.6654264675764
 20
12.94024826969098
 10
20.76335448437177
 20
13.06986719410815
 10
20.76335448437177
 20
13.06986719410815
 10
20.65264580115552
 20
13.15322945024301
 10
20.65264580115552
 20
13.15322945024301
 10
20.57995894628604
 20
13.20932243193265
 10
20.53768591553384
 20
13.29040171588168
 10
20.52602202899924
 20
13.37229400577414
 10
20.51340780096128
 20
13.45745814169773
 10
20.53604469099889
 20
13.54552159656211
 10
20.58962440340554
 20
13.6184572375085
 10
20.70174721069887
 20
13.76321939616861
 10
20.91072504864411
 20
13.79355704429674
 10
21.05542238537046
 20
13.68079646831221
 10
21.05542238537046
 20
13.68079646831221
 10
21.16682344737205
 20
13.59800578290584
 10
21.16682344737205
 20
13.59800578290584
 10
21.27166337433535
 20
13.73331282096572
 10
21.37663569722359
 20
13.86987497272874
 10
21.47696059315044
 20
13.99798695548915
 10
21.47696059315044
 20
13.99798695548915
 10
21.36341143809423
 20
14.08479785183551
 10
21.36341143809423
 20
14.08479785183551
 10
21.29134634614246
 20
14.14082905346795
 10
21.2485163744065
 20
14.22260788616525
 10
21.23558853835793
 20
14.30462098411473
 10
21.22486002275158
 20
14.38960253192405
 10
21.24503962962934
 20
14.4785409536881
 10
21.30107662519565
 20
14.55060162773437
 10
21.41074794326325
 20
14.69623433538935
 10
21.62148489164896
 20
14.72512986379461
 10
21.76687460716077
 20
14.61294085853846
 10
21.76687460716077
 20
14.61294085853846
 10
21.8933540814716
 20
14.515317613943
 10
21.8933540814716
 20
14.515317613943
 10
21.99298998131991
 20
14.63650575783732
 10
22.09088036527399
 20
14.75278512934594
 10
22.1847417024772
 20
14.86690481993206
 10
22.1847417024772
 20
14.86690481993206
 10
22.0822961822441
 20
14.94372814274012
 10
22.0822961822441
 20
14.94372814274012
 10
22.01016489233001
 20
14.99913178752115
 10
21.96645553578862
 20
15.07844754312412
 10
21.95693056566778
 20
15.1626763081195
 10
21.94431633762983
 20
15.2478404440431
 10
21.96380356572174
 20
15.33620729507887
 10
22.01990096531675
 20
15.40889994388219
 10
22.1295060854221
 20
15.55390509468531
 10
22.34037542973256
 20
15.58405573679388
 10
22.48575935131044
 20
15.47187114944287
 10
22.48575935131044
 20
15.47187114944287
 10
22.62029863598143
 20
15.37218878094264
 10
22.62029863598143
 20
15.37218878094264
 10
22.70556191595286
 20
15.46998549818556
 10
22.79052042372431
 20
15.5646427653224
 10
22.87083150453416
 20
15.65084986345666
 10
22.87083150453416
 20
15.65084986345666
 10
22.77557082776103
 20
15.72315677919942
 10
22.77557082776103
 20
15.72315677919942
 10
22.70344533178068
 20
15.77855600607523
 10
22.66061094213902
 20
15.86032904483825
 10
22.64951283239899
 20
15.94153337385043
 10
22.63689860436123
 20
16.02669750977402
 10
22.65889910173645
 20
16.11481557473295
 10
22.71247743811435
 20
16.18776142751839
 10
22.82523801409895
 20
16.33245876424493
 10
23.03421585204387
 20
16.36279641237303
 10
23.17834161804191
 20
16.25072821517399
 10
23.17834161804191
 20
16.25072821517399
 10
23.33532674659672
 20
16.13358259285094
 10
23.33532674659672
 20
16.13358259285094
 10
23.42300525898127
 20
16.21715899635193
 10
23.50321830292093
 20
16.28939456682047
 10
23.57508207570509
 20
16.34782043322916
 10
23.71929422953171
 20
16.46971775226297
 10
23.93947704989734
 20
16.43283418691222
 10
24.04213261618829
 20
16.2739736189394
 10
24.04213261618829
 20
16.2739736189394
 10
24.05508128872476
 20
16.25044789860481
 10
24.05508128872476
 20
16.25044789860481
 10
24.13405855969524
 20
16.12888363723593
 10
24.11860982384559
 20
15.96509860770076
 10
24.01554215211862
 20
15.86077506672816
 10
23.97651426499653
 20
15.8194688330024
 10
23.9294313262497
 20
15.77385924320503
 10
23.87947911863186
 20
15.71837032857847
 10
23.87947911863186
 20
15.71837032857847
 10
24.04087819947643
 20
15.59443222811642
 10
24.04087819947643
 20
15.59443222811642
 10
24.1884024134967
 20
15.484573904029
 10
24.2153416136026
 20
15.27338619297258
 10
24.10636405034908
 20
15.12831484420676
 10
23.99297591751285
 20
14.98368370544279
 10
23.78556100734806
 20
14.95636911726903
 10
23.63810299129024
 20
15.06685499820792
 10
23.63810299129024
 20
15.06685499820792
 10
23.42223491799177
 20
15.23174874897079
 10
23.42223491799177
 20
15.23174874897079
 10
23.34198424121075
 20
15.14617362559357
 10
23.25948301659948
 20
15.05064139155693
 10
23.16836538147472
 20
14.9514995562626
 10
23.16836538147472
 20
14.9514995562626
 10
23.34955546435362
 20
14.81544856039432
 10
23.34955546435362
 20
14.81544856039432
 10
23.49581572886005
 20
14.70571104436421
 10
23.52282554483357
 20
14.49515668409317
 10
23.41006496884911
 20
14.35045934736656
 10
23.30039365078144
 20
14.20482663971183
 10
23.09141581283658
 20
14.17448899158364
 10
22.94728562893329
 20
14.28655139484885
 10
22.94728562893329
 20
14.28655139484885
 10
22.72965265126055
 20
14.4528916832397
 10
22.72965265126055
 20
14.4528916832397
 10
22.6353419274143
 20
14.34071810911376
 10
22.53745596136585
 20
14.22444453153908
 10
22.43535256651863
 20
14.10412997851568
 10
22.43535256651863
 20
14.10412997851568
 10
22.62821343704377
 20
13.95739323638958
 10
22.62821343704377
 20
13.95739323638958
 10
22.77297117779902
 20
13.84526463516212
 10
22.80147772358986
 20
13.63710577799361
 10
22.6911802246995
 20
13.49152905646214
 10
22.58156931066028
 20
13.34652832356417
 10
22.37100915645517
 20
13.31952292549583
 10
22.2259422255947
 20
13.42850628268316
 10
22.2259422255947
 20
13.42850628268316
 10
22.01461028867189
 20
13.58786129298135
 10
22.01461028867189
 20
13.58786129298135
 10
21.91114014870465
 20
13.46005850032656
 10
21.80742259868951
 20
13.32973222654902
 10
21.70220728365854
 20
13.19065238759744
 10
21.70220728365854
 20
13.19065238759744
 10
21.91991087719904
 20
13.02494544999196
 10
21.91991087719904
 20
13.02494544999196
 10
22.06245874484208
 20
12.91621529678654
 10
22.09191700816535
 20
12.70477438174757
 10
21.98224569009749
 20
12.55914167409291
 10
21.87011708886991
 20
12.41438393333799
 10
21.66182721180539
 20
12.38461206200418
 10
21.51707388895552
 20
12.49674645716582
 10
21.51707388895552
 20
12.49674645716582
 10
21.29628103749816
 20
12.66338876569961
 10
21.29628103749816
 20
12.66338876569961
 10
21.20439713393307
 20
12.5369860420207
 10
21.1099279691885
 20
12.41020896547224
 10
21.01389145875841
 20
12.28040303503517
 10
21.01389145875841
 20
12.28040303503517
 10
21.22748925491649
 20
12.11827575753763
 10
21.22748925491649
 20
12.11827575753763
 10
21.3721865916429
 20
12.00551518155329
 10
21.39943939975928
 20
11.79747850847074
 10
21.28982406781508
 20
11.65247198163884
 10
21.17958117901897
 20
11.50753165276938
 10
20.96941000742816
 20
11.47794816348404
 10
20.82465226667291
 20
11.59007676471175
 10
20.82465226667291
 20
11.59007676471175
 10
20.62933411298786
 20
11.73768847373759
 10
20.62933411298786
 20
11.73768847373759
 10
20.54045967483096
 20
11.61607371438762
 10
20.45699938182585
 20
11.49139350350587
 10
20.36958507584349
 20
11.36519275642133
 10
20.36958507584349
 20
11.36519275642133
 10
20.59201181177898
 20
11.19583858471671
 10
20.59201181177898
 20
11.19583858471671
 10
20.73676955253397
 20
11.08370998348887
 10
20.76458951347367
 20
10.87497513768719
 10
20.65252131627453
 20
10.73084937168895
 10
20.54284999820693
 20
10.58521666403429
 10
20.33392814638546
 20
10.55550519672893
 10
20.1891748235354
 20
10.66763959189063
 10
20.1891748235354
 20
10.66763959189063
 10
20.00110771127301
 20
10.81136245070317
 10
20.00110771127301
 20
10.81136245070317
 10
19.93297754961094
 20
10.70678719069729
 10
19.86340526822549
 20
10.60045282025069
 10
19.79691920288053
 20
10.49316707310267
 10
19.79691920288053
 20
10.49316707310267
 10
20.02337974430199
 20
10.31961010234352
 10
20.02337974430199
 20
10.31961010234352
 10
20.16832449107676
 20
10.20937300748167
 10
20.19596186390193
 20
9.998752449248054
 10
20.08578075516315
 20
9.854433883296366
 10
19.97359174990712
 20
9.709044167784555
 10
19.76618125764752
 20
9.681735373544658
 10
19.61991657523571
 20
9.791467095640897
 10
19.61991657523571
 20
9.791467095640897
 10
19.44370146270516
 20
9.926400132466329
 10
19.44370146270516
 20
9.926400132466329
 10
19.41388708006906
 20
9.87528311938261
 10
19.3809216594591
 20
9.82447971430937
 10
19.35098067483225
 20
9.772103169617127
 10
19.27238951469305
 20
9.638679946230683
 10
19.10853718001815
 20
9.58229016368914
 10
18.96469976763769
 20
9.63901622731311
 10
18.79616016960922
 20
9.703252852005775
 10
18.71718400581625
 20
9.896028074914305
 10
18.78803527926939
 20
10.06073343282391
 97
        0
 97
        0
 92
        1
 93
        1
 72
     4
 94
        3
 73
     0
 74
     1
 95
       32
 96
       28
 40
0.0
 40
0.0
 40
0.0
 40
0.0
 40
1.0
 40
1.0
 40
1.0
 40
2.0
 40
2.0
 40
2.0
 40
3.0
 40
3.0
 40
3.0
 40
4.0
 40
4.0
 40
4.0
 40
5.0
 40
5.0
 40
5.0
 40
6.0
 40
6.0
 40
6.0
 40
7.0
 40
7.0
 40
7.0
 40
8.0
 40
8.0
 40
8.0
 40
9.0
 40
9.0
 40
9.0
 40
9.0
 10
14.9884151970273
 20
8.628503948114055
 10
14.96388745805162
 20
8.650614969728057
 10
14.9503624560511
 20
8.681195548824968
 10
14.95111954785038
 20
8.714813123252512
 10
14.9584610280403
 20
9.333363043818164
 10
15.01105572066846
 20
9.998331323118414
 10
15.11989596997248
 20
10.68574147814767
 10
15.13447304965006
 20
10.77586405691714
 10
15.24319916272109
 20
10.8147767222391
 10
15.30948389809414
 20
10.75168148520345
 10
16.17657241400001
 20
9.941079736427033
 10
18.51776826696751
 20
7.884490683387036
 10
21.55595886933807
 20
5.965447425859677
 10
21.63254036835485
 20
5.916601067687396
 10
21.6250060378422
 20
5.800987263643019
 10
21.54132652213844
 20
5.764700983969666
 10
20.98039296963779
 20
5.523508595139552
 10
20.47304693015596
 20
5.348905373052308
 10
20.06672181694453
 20
5.225412262937532
 10
19.92651601066082
 20
5.183235102445911
 10
19.78800552808266
 20
5.145336115612119
 10
19.65157355788962
 20
5.109141629124211
 10
19.61960346248618
 20
5.100835965643573
 10
19.58583852155871
 20
5.106699047688359
 10
19.55842212523192
 20
5.125286054487314
 10
17.57495385294456
 20
6.441638730701862
 10
15.96502199546009
 20
7.767718342826949
 10
14.9884151970273
 20
8.628503948114055
 97
        0
 97
        0
 75
     2
 76
     1
 98
        0
  0
ENDBLK
  5
44
330
41
100
AcDbEntity
  8
0
100
AcDbBlockEnd
  0
ENDSEC
  0
SECTION
  2
ENTITIES
  0
INSERT
  5
42
330
1F
100
AcDbEntity
  8
Layer 1
100
AcDbBlockReference
  2
block 2
 10
0.0
 20
0.0
 30
0.0
  0
ENDSEC
  0
SECTION
  2
OBJECTS
  0
DICTIONARY
  5
C
330
0
100
AcDbDictionary
281
     1
  3
ACAD_GROUP
350
D
  3
ACAD_LAYOUT
350
1A
  3
ACAD_MATERIAL
350
3B
  3
ACAD_MLEADERSTYLE
350
4D
  3
ACAD_MLINESTYLE
350
17
  3
ACAD_PLOTSETTINGS
350
19
  3
ACAD_PLOTSTYLENAME
350
E
  3
ACAD_TABLESTYLE
350
4C
  3
ACAD_VISUALSTYLE
350
2A
  0
SUN
  5
3F
330
29
100
AcDbSun
 90
        1
290
     0
 63
     7
421
 16777215
 40
1.0
291
     1
 91
  2455826
 92
 54000000
292
     0
 70
     2
 71
   256
280
     1
  0
DICTIONARY
  5
D
102
{ACAD_REACTORS
330
C
102
}
330
C
100
AcDbDictionary
281
     1
  0
DICTIONARY
  5
1A
102
{ACAD_REACTORS
330
C
102
}
330
C
100
AcDbDictionary
281
     1
  3
Layout1
350
1E
  3
Layout2
350
26
  3
Model
350
22
  0
DICTIONARY
  5
3B
102
{ACAD_REACTORS
330
C
102
}
330
C
100
AcDbDictionary
281
     1
  3
ByBlock
350
3D
  3
ByLayer
350
3C
  3
Global
350
3E
  0
DICTIONARY
  5
4D
102
{ACAD_REACTORS
330
C
102
}
330
C
100
AcDbDictionary
281
     1
  0
DICTIONARY
  5
17
102
{ACAD_REACTORS
330
C
102
}
330
C
100
AcDbDictionary
281
     1
  3
Standard
350
18
  0
DICTIONARY
  5
19
102
{ACAD_REACTORS
330
C
102
}
330
C
100
AcDbDictionary
281
     1
  0
ACDBDICTIONARYWDFLT
  5
E
102
{ACAD_REACTORS
330
C
102
}
330
C
100
AcDbDictionary
281
     1
  3
Normal
350
F
100
AcDbDictionaryWithDefault
340
F
  0
DICTIONARY
  5
4C
102
{ACAD_REACTORS
330
C
102
}
330
C
100
AcDbDictionary
281
     1
  0
DICTIONARY
  5
2A
102
{ACAD_REACTORS
330
C
102
}
330
C
100
AcDbDictionary
281
     1
  3
2dWireframe
350
2F
  3
3D Hidden
350
31
  3
3dWireframe
350
30
  3
Basic
350
32
  3
Brighten
350
36
  3
ColorChange
350
3A
  3
Conceptual
350
34
  3
Dim
350
35
  3
Facepattern
350
39
  3
Flat
350
2B
  3
FlatWithEdges
350
2C
  3
Gouraud
350
2D
  3
GouraudWithEdges
350
2E
  3
Linepattern
350
38
  3
Realistic
350
33
  3
Thicken
350
37
  0
LAYOUT
  5
1E
102
{ACAD_REACTORS
330
1A
102
}
330
1A
100
AcDbPlotSettings
  1

  2
none_device
  4

  6

 40
0.0
 41
0.0
 42
0.0
 43
0.0
 44
0.0
 45
0.0
 46
0.0
 47
0.0
 48
0.0
 49
0.0
140
0.0
141
0.0
142
1.0
143
1.0
 70
   688
 72
     0
 73
     0
 74
     5
  7

 75
    16
 76
     0
 77
     2
 78
   300
147
1.0
148
0.0
149
0.0
100
AcDbLayout
  1
Layout1
 70
     1
 71
     1
 10
0.0
 20
0.0
 11
12.0
 21
9.0
 12
0.0
 22
0.0
 32
0.0
 14
1.000000000000000E+20
 24
1.000000000000000E+20
 34
1.000000000000000E+20
 15
-1.000000000000000E+20
 25
-1.000000000000000E+20
 35
-1.000000000000000E+20
146
0.0
 13
0.0
 23
0.0
 33
0.0
 16
1.0
 26
0.0
 36
0.0
 17
0.0
 27
1.0
 37
0.0
 76
     0
330
1B
  0
LAYOUT
  5
26
102
{ACAD_REACTORS
330
1A
102
}
330
1A
100
AcDbPlotSettings
  1

  2
none_device
  4

  6

 40
0.0
 41
0.0
 42
0.0
 43
0.0
 44
0.0
 45
0.0
 46
0.0
 47
0.0
 48
0.0
 49
0.0
140
0.0
141
0.0
142
1.0
143
1.0
 70
   688
 72
     0
 73
     0
 74
     5
  7

 75
    16
 76
     0
 77
     2
 78
   300
147
1.0
148
0.0
149
0.0
100
AcDbLayout
  1
Layout2
 70
     1
 71
     2
 10
0.0
 20
0.0
 11
0.0
 21
0.0
 12
0.0
 22
0.0
 32
0.0
 14
0.0
 24
0.0
 34
0.0
 15
0.0
 25
0.0
 35
0.0
146
0.0
 13
0.0
 23
0.0
 33
0.0
 16
1.0
 26
0.0
 36
0.0
 17
0.0
 27
1.0
 37
0.0
 76
     0
330
23
  0
LAYOUT
  5
22
102
{ACAD_REACTORS
330
1A
102
}
330
1A
100
AcDbPlotSettings
  1

  2
none_device
  4

  6

 40
0.0
 41
0.0
 42
0.0
 43
0.0
 44
0.0
 45
0.0
 46
0.0
 47
0.0
 48
0.0
 49
0.0
140
0.0
141
0.0
142
1.0
143
1.0
 70
  1712
 72
     0
 73
     0
 74
     0
  7

 75
     0
 76
     0
 77
     2
 78
   300
147
1.0
148
0.0
149
0.0
100
AcDbLayout
  1
Model
 70
     1
 71
     0
 10
0.0
 20
0.0
 11
12.0
 21
9.0
 12
0.0
 22
0.0
 32
0.0
 14
1.000000000000000E+20
 24
1.000000000000000E+20
 34
1.000000000000000E+20
 15
-1.000000000000000E+20
 25
-1.000000000000000E+20
 35
-1.000000000000000E+20
146
0.0
 13
0.0
 23
0.0
 33
0.0
 16
1.0
 26
0.0
 36
0.0
 17
0.0
 27
1.0
 37
0.0
 76
     0
330
1F
331
29
  0
MATERIAL
  5
3D
102
{ACAD_REACTORS
330
3B
102
}
330
3B
100
AcDbMaterial
  1
ByBlock
 72
     1
 94
      127
  0
MATERIAL
  5
3C
102
{ACAD_REACTORS
330
3B
102
}
330
3B
100
AcDbMaterial
  1
ByLayer
 72
     1
 94
      127
  0
MATERIAL
  5
3E
102
{ACAD_REACTORS
330
3B
102
}
330
3B
100
AcDbMaterial
  1
Global
 72
     1
 94
      127
  0
MLINESTYLE
  5
18
102
{ACAD_REACTORS
330
17
102
}
330
17
100
AcDbMlineStyle
  2
Standard
 70
     0
  3

 62
   256
 51
90.0
 52
90.0
 71
     2
 49
0.5
 62
   256
  6
BYLAYER
 49
-0.5
 62
   256
  6
BYLAYER
  0
ACDBPLACEHOLDER
  5
F
102
{ACAD_REACTORS
330
E
102
}
330
E
  0
VISUALSTYLE
  5
2F
102
{ACAD_REACTORS
330
2A
102
}
330
2A
100
AcDbVisualStyle
  2
2dWireframe
 70
     4
177
     2
291
     0
 71
     0
176
     1
 72
     2
176
     1
 73
     0
176
     1
 90
        0
176
     1
 40
-0.6
176
     1
 41
-30.0
176
     1
 62
     5
 63
     7
421
 16777215
176
     1
 74
     1
176
     1
 91
        4
176
     1
 64
     7
176
     1
 65
   257
176
     1
 75
     1
176
     1
175
     1
176
     1
 42
1.0
176
     1
 92
        0
176
     1
 66
   257
176
     1
 43
1.0
176
     1
 76
     1
176
     1
 77
     6
176
     1
 78
     2
176
     1
 67
     7
176
     1
 79
     5
176
     1
170
     0
176
     1
171
     0
176
     1
290
     0
176
     1
 93
        1
176
     1
 44
0.0
176
     1
173
     0
176
     1
  0
VISUALSTYLE
  5
31
102
{ACAD_REACTORS
330
2A
102
}
330
2A
100
AcDbVisualStyle
  2
3D Hidden
 70
     6
177
     2
291
     0
 71
     1
176
     1
 72
     2
176
     1
 73
     2
176
     1
 90
        0
176
     1
 40
-0.6
176
     1
 41
-30.0
176
     1
 62
     5
 63
     7
421
 16777215
176
     1
 74
     2
176
     1
 91
        2
176
     1
 64
     7
176
     1
 65
   257
176
     1
 75
     2
176
     1
175
     1
176
     1
 42
40.0
176
     1
 92
        0
176
     1
 66
   257
176
     1
 43
1.0
176
     1
 76
     1
176
     1
 77
     6
176
     1
 78
     2
176
     1
 67
     7
176
     1
 79
     3
176
     1
170
     0
176
     1
171
     0
176
     1
290
     0
176
     1
 93
        1
176
     1
 44
0.0
176
     1
173
     0
176
     1
  0
VISUALSTYLE
  5
30
102
{ACAD_REACTORS
330
2A
102
}
330
2A
100
AcDbVisualStyle
  2
3dWireframe
 70
     5
177
     2
291
     0
 71
     0
176
     1
 72
     2
176
     1
 73
     0
176
     1
 90
        0
176
     1
 40
-0.6
176
     1
 41
-30.0
176
     1
 62
     5
 63
     7
421
 16777215
176
     1
 74
     1
176
     1
 91
        4
176
     1
 64
     7
176
     1
 65
   257
176
     1
 75
     1
176
     1
175
     1
176
     1
 42
1.0
176
     1
 92
        0
176
     1
 66
   257
176
     1
 43
1.0
176
     1
 76
     1
176
     1
 77
     6
176
     1
 78
     2
176
     1
 67
     7
176
     1
 79
     5
176
     1
170
     0
176
     1
171
     0
176
     1
290
     0
176
     1
 93
        1
176
     1
 44
0.0
176
     1
173
     0
176
     1
  0
VISUALSTYLE
  5
32
102
{ACAD_REACTORS
330
2A
102
}
330
2A
100
AcDbVisualStyle
  2
Basic
 70
     7
177
     2
291
     1
 71
     1
176
     1
 72
     0
176
     1
 73
     1
176
     1
 90
        0
176
     1
 40
-0.6
176
     1
 41
-30.0
176
     1
 62
     5
 63
     7
421
 16777215
176
     1
 74
     0
176
     1
 91
        4
176
     1
 64
     7
176
     1
 65
   257
176
     1
 75
     1
176
     1
175
     1
176
     1
 42
1.0
176
     1
 92
        8
176
     1
 66
     7
176
     1
 43
1.0
176
     1
 76
     1
176
     1
 77
     6
176
     1
 78
     2
176
     1
 67
     7
176
     1
 79
     5
176
     1
170
     0
176
     1
171
     0
176
     1
290
     0
176
     1
 93
        1
176
     1
 44
0.0
176
     1
173
     0
176
     1
  0
VISUALSTYLE
  5
36
102
{ACAD_REACTORS
330
2A
102
}
330
2A
100
AcDbVisualStyle
  2
Brighten
 70
    12
177
     2
291
     1
 71
     2
176
     1
 72
     2
176
     1
 73
     0
176
     1
 90
        0
176
     1
 40
-0.6
176
     1
 41
-30.0
176
     1
 62
     5
 63
     7
421
 16777215
176
     1
 74
     1
176
     1
 91
        4
176
     1
 64
     7
176
     1
 65
   257
176
     1
 75
     1
176
     1
175
     1
176
     1
 42
1.0
176
     1
 92
        8
176
     1
 66
     7
176
     1
 43
1.0
176
     1
 76
     1
176
     1
 77
     6
176
     1
 78
     2
176
     1
 67
     7
176
     1
 79
     5
176
     1
170
     0
176
     1
171
     0
176
     1
290
     0
176
     1
 93
        1
176
     1
 44
50.0
176
     1
173
     0
176
     1
  0
VISUALSTYLE
  5
3A
102
{ACAD_REACTORS
330
2A
102
}
330
2A
100
AcDbVisualStyle
  2
ColorChange
 70
    16
177
     2
291
     1
 71
     2
176
     1
 72
     2
176
     1
 73
     3
176
     1
 90
        0
176
     1
 40
-0.6
176
     1
 41
-30.0
176
     1
 62
     5
 63
     8
421
  8421504
176
     1
 74
     1
176
     1
 91
        4
176
     1
 64
     7
176
     1
 65
   257
176
     1
 75
     1
176
     1
175
     1
176
     1
 42
1.0
176
     1
 92
        8
176
     1
 66
     8
424
  8421504
176
     1
 43
1.0
176
     1
 76
     1
176
     1
 77
     6
176
     1
 78
     2
176
     1
 67
     7
176
     1
 79
     5
176
     1
170
     0
176
     1
171
     0
176
     1
290
     0
176
     1
 93
        1
176
     1
 44
0.0
176
     1
173
     0
176
     1
  0
VISUALSTYLE
  5
34
102
{ACAD_REACTORS
330
2A
102
}
330
2A
100
AcDbVisualStyle
  2
Conceptual
 70
     9
177
     2
291
     0
 71
     3
176
     1
 72
     2
176
     1
 73
     0
176
     1
 90
        0
176
     1
 40
-0.6
176
     1
 41
-30.0
176
     1
 62
     5
 63
     7
421
 16777215
176
     1
 74
     2
176
     1
 91
        2
176
     1
 64
     7
176
     1
 65
   257
176
     1
 75
     1
176
     1
175
     1
176
     1
 42
40.0
176
     1
 92
        8
176
     1
 66
     7
176
     1
 43
1.0
176
     1
 76
     1
176
     1
 77
     6
176
     1
 78
     2
176
     1
 67
     7
176
     1
 79
     3
176
     1
170
     0
176
     1
171
     0
176
     1
290
     0
176
     1
 93
        1
176
     1
 44
0.0
176
     1
173
     0
176
     1
  0
VISUALSTYLE
  5
35
102
{ACAD_REACTORS
330
2A
102
}
330
2A
100
AcDbVisualStyle
  2
Dim
 70
    11
177
     2
291
     1
 71
     2
176
     1
 72
     2
176
     1
 73
     0
176
     1
 90
        0
176
     1
 40
-0.6
176
     1
 41
-30.0
176
     1
 62
     5
 63
     7
421
 16777215
176
     1
 74
     1
176
     1
 91
        4
176
     1
 64
     7
176
     1
 65
   257
176
     1
 75
     1
176
     1
175
     1
176
     1
 42
1.0
176
     1
 92
        8
176
     1
 66
     7
176
     1
 43
1.0
176
     1
 76
     1
176
     1
 77
     6
176
     1
 78
     2
176
     1
 67
     7
176
     1
 79
     5
176
     1
170
     0
176
     1
171
     0
176
     1
290
     0
176
     1
 93
        1
176
     1
 44
-50.0
176
     1
173
     0
176
     1
  0
VISUALSTYLE
  5
39
102
{ACAD_REACTORS
330
2A
102
}
330
2A
100
AcDbVisualStyle
  2
Facepattern
 70
    15
177
     2
291
     1
 71
     2
176
     1
 72
     2
176
     1
 73
     0
176
     1
 90
        0
176
     1
 40
-0.6
176
     1
 41
-30.0
176
     1
 62
     5
 63
     7
421
 16777215
176
     1
 74
     1
176
     1
 91
        4
176
     1
 64
     7
176
     1
 65
   257
176
     1
 75
     1
176
     1
175
     1
176
     1
 42
1.0
176
     1
 92
        8
176
     1
 66
     7
176
     1
 43
1.0
176
     1
 76
     1
176
     1
 77
     6
176
     1
 78
     2
176
     1
 67
     7
176
     1
 79
     5
176
     1
170
     0
176
     1
171
     0
176
     1
290
     0
176
     1
 93
        1
176
     1
 44
0.0
176
     1
173
     0
176
     1
  0
VISUALSTYLE
  5
2B
102
{ACAD_REACTORS
330
2A
102
}
330
2A
100
AcDbVisualStyle
  2
Flat
 70
     0
177
     2
291
     1
 71
     2
176
     1
 72
     1
176
     1
 73
     1
176
     1
 90
        2
176
     1
 40
-0.6
176
     1
 41
30.0
176
     1
 62
     5
 63
     7
421
 16777215
176
     1
 74
     0
176
     1
 91
        4
176
     1
 64
     7
176
     1
 65
   257
176
     1
 75
     1
176
     1
175
     1
176
     1
 42
1.0
176
     1
 92
        8
176
     1
 66
     7
176
     1
 43
1.0
176
     1
 76
     1
176
     1
 77
     6
176
     1
 78
     2
176
     1
 67
     7
176
     1
 79
     5
176
     1
170
     0
176
     1
171
     0
176
     1
290
     0
176
     1
 93
       13
176
     1
 44
0.0
176
     1
173
     0
176
     1
  0
VISUALSTYLE
  5
2C
102
{ACAD_REACTORS
330
2A
102
}
330
2A
100
AcDbVisualStyle
  2
FlatWithEdges
 70
     1
177
     2
291
     1
 71
     2
176
     1
 72
     1
176
     1
 73
     1
176
     1
 90
        2
176
     1
 40
-0.6
176
     1
 41
30.0
176
     1
 62
     5
 63
     7
421
 16777215
176
     1
 74
     1
176
     1
 91
        4
176
     1
 64
     7
176
     1
 65
   257
176
     1
 75
     1
176
     1
175
     1
176
     1
 42
1.0
176
     1
 92
        0
176
     1
 66
   257
176
     1
 43
1.0
176
     1
 76
     1
176
     1
 77
     6
176
     1
 78
     2
176
     1
 67
     7
176
     1
 79
     5
176
     1
170
     0
176
     1
171
     0
176
     1
290
     0
176
     1
 93
       13
176
     1
 44
0.0
176
     1
173
     0
176
     1
  0
VISUALSTYLE
  5
2D
102
{ACAD_REACTORS
330
2A
102
}
330
2A
100
AcDbVisualStyle
  2
Gouraud
 70
     2
177
     2
291
     1
 71
     2
176
     1
 72
     2
176
     1
 73
     1
176
     1
 90
        2
176
     1
 40
-0.6
176
     1
 41
30.0
176
     1
 62
     5
 63
     7
421
 16777215
176
     1
 74
     0
176
     1
 91
        4
176
     1
 64
     7
176
     1
 65
   257
176
     1
 75
     1
176
     1
175
     1
176
     1
 42
1.0
176
     1
 92
        0
176
     1
 66
     7
176
     1
 43
1.0
176
     1
 76
     1
176
     1
 77
     6
176
     1
 78
     2
176
     1
 67
     7
176
     1
 79
     5
176
     1
170
     0
176
     1
171
     0
176
     1
290
     0
176
     1
 93
       13
176
     1
 44
0.0
176
     1
173
     0
176
     1
  0
VISUALSTYLE
  5
2E
102
{ACAD_REACTORS
330
2A
102
}
330
2A
100
AcDbVisualStyle
  2
GouraudWithEdges
 70
     3
177
     2
291
     1
 71
     2
176
     1
 72
     2
176
     1
 73
     1
176
     1
 90
        2
176
     1
 40
-0.6
176
     1
 41
30.0
176
     1
 62
     5
 63
     7
421
 16777215
176
     1
 74
     1
176
     1
 91
        4
176
     1
 64
     7
176
     1
 65
   257
176
     1
 75
     1
176
     1
175
     1
176
     1
 42
1.0
176
     1
 92
        0
176
     1
 66
   257
176
     1
 43
1.0
176
     1
 76
     1
176
     1
 77
     6
176
     1
 78
     2
176
     1
 67
     7
176
     1
 79
     5
176
     1
170
     0
176
     1
171
     0
176
     1
290
     0
176
     1
 93
       13
176
     1
 44
0.0
176
     1
173
     0
176
     1
  0
VISUALSTYLE
  5
38
102
{ACAD_REACTORS
330
2A
102
}
330
2A
100
AcDbVisualStyle
  2
Linepattern
 70
    14
177
     2
291
     1
 71
     2
176
     1
 72
     2
176
     1
 73
     0
176
     1
 90
        0
176
     1
 40
-0.6
176
     1
 41
-30.0
176
     1
 62
     5
 63
     7
421
 16777215
176
     1
 74
     1
176
     1
 91
        4
176
     1
 64
     7
176
     1
 65
   257
176
     1
 75
     7
176
     1
175
     7
176
     1
 42
1.0
176
     1
 92
        8
176
     1
 66
     7
176
     1
 43
1.0
176
     1
 76
     1
176
     1
 77
     6
176
     1
 78
     2
176
     1
 67
     7
176
     1
 79
     5
176
     1
170
     0
176
     1
171
     0
176
     1
290
     0
176
     1
 93
        1
176
     1
 44
0.0
176
     1
173
     0
176
     1
  0
VISUALSTYLE
  5
33
102
{ACAD_REACTORS
330
2A
102
}
330
2A
100
AcDbVisualStyle
  2
Realistic
 70
     8
177
     2
291
     0
 71
     2
176
     1
 72
     2
176
     1
 73
     0
176
     1
 90
        0
176
     1
 40
-0.6
176
     1
 41
-30.0
176
     1
 62
     5
 63
     7
421
 16777215
176
     1
 74
     1
176
     1
 91
        0
176
     1
 64
     7
176
     1
 65
   257
176
     1
 75
     1
176
     1
175
     1
176
     1
 42
1.0
176
     1
 92
        8
176
     1
 66
     8
424
  7895160
176
     1
 43
1.0
176
     1
 76
     1
176
     1
 77
     6
176
     1
 78
     2
176
     1
 67
     7
176
     1
 79
     5
176
     1
170
     0
176
     1
171
     0
176
     1
290
     0
176
     1
 93
       13
176
     1
 44
0.0
176
     1
173
     0
176
     1
  0
VISUALSTYLE
  5
37
102
{ACAD_REACTORS
330
2A
102
}
330
2A
100
AcDbVisualStyle
  2
Thicken
 70
    13
177
     2
291
     1
 71
     2
176
     1
 72
     2
176
     1
 73
     0
176
     1
 90
        0
176
     1
 40
-0.6
176
     1
 41
-30.0
176
     1
 62
     5
 63
     7
421
 16777215
176
     1
 74
     1
176
     1
 91
        4
176
     1
 64
     7
176
     1
 65
   257
176
     1
 75
     1
176
     1
175
     1
176
     1
 42
1.0
176
     1
 92
       12
176
     1
 66
     7
176
     1
 43
1.0
176
     1
 76
     1
176
     1
 77
     6
176
     1
 78
     2
176
     1
 67
     7
176
     1
 79
     5
176
     1
170
     0
176
     1
171
     0
176
     1
290
     0
176
     1
 93
        1
176
     1
 44
0.0
176
     1
173
     0
176
     1
  0
ENDSEC
  0
EOF
