  0
SECTION
  2
HEADER
  9
$ACADVER
  1
AC1024
  9
$ACADMAINTVER
 70
     6
  9
$DWGCODEPAGE
  3
ANSI_1252
  9
$INSBASE
 10
0.0
 20
0.0
 30
0.0
  9
$EXTMIN
 10
1.000000000000000E+20
 20
1.000000000000000E+20
 30
1.000000000000000E+20
  9
$EXTMAX
 10
-1.000000000000000E+20
 20
-1.000000000000000E+20
 30
-1.000000000000000E+20
  9
$LIMMIN
 10
0.0
 20
0.0
  9
$LIMMAX
 10
12.0
 20
9.0
  9
$ORTHOMODE
 70
     0
  9
$REGENMODE
 70
     1
  9
$FILLMODE
 70
     1
  9
$QTEXTMODE
 70
     0
  9
$MIRRTEXT
 70
     1
  9
$LTSCALE
 40
1.0
  9
$ATTMODE
 70
     1
  9
$TEXTSIZE
 40
0.2
  9
$TRACEWID
 40
0.05
  9
$TEXTSTYLE
  7
Standard
  9
$CLAYER
  8
0
  9
$CELTYPE
  6
ByLayer
  9
$CECOLOR
 62
   256
  9
$CELTSCALE
 40
1.0
  9
$DISPSILH
 70
     0
  9
$DIMSCALE
 40
1.0
  9
$DIMASZ
 40
0.18
  9
$DIMEXO
 40
0.0625
  9
$DIMDLI
 40
0.38
  9
$DIMRND
 40
0.0
  9
$DIMDLE
 40
0.0
  9
$DIMEXE
 40
0.18
  9
$DIMTP
 40
0.0
  9
$DIMTM
 40
0.0
  9
$DIMTXT
 40
0.18
  9
$DIMCEN
 40
0.09
  9
$DIMTSZ
 40
0.0
  9
$DIMTOL
 70
     0
  9
$DIMLIM
 70
     0
  9
$DIMTIH
 70
     1
  9
$DIMTOH
 70
     1
  9
$DIMSE1
 70
     0
  9
$DIMSE2
 70
     0
  9
$DIMTAD
 70
     0
  9
$DIMZIN
 70
     0
  9
$DIMBLK
  1

  9
$DIMASO
 70
     1
  9
$DIMSHO
 70
     1
  9
$DIMPOST
  1

  9
$DIMAPOST
  1

  9
$DIMALT
 70
     0
  9
$DIMALTD
 70
     2
  9
$DIMALTF
 40
25.4
  9
$DIMLFAC
 40
1.0
  9
$DIMTOFL
 70
     0
  9
$DIMTVP
 40
0.0
  9
$DIMTIX
 70
     0
  9
$DIMSOXD
 70
     0
  9
$DIMSAH
 70
     0
  9
$DIMBLK1
  1

  9
$DIMBLK2
  1

  9
$DIMSTYLE
  2
Standard
  9
$DIMCLRD
 70
     0
  9
$DIMCLRE
 70
     0
  9
$DIMCLRT
 70
     0
  9
$DIMTFAC
 40
1.0
  9
$DIMGAP
 40
0.09
  9
$DIMJUST
 70
     0
  9
$DIMSD1
 70
     0
  9
$DIMSD2
 70
     0
  9
$DIMTOLJ
 70
     1
  9
$DIMTZIN
 70
     0
  9
$DIMALTZ
 70
     0
  9
$DIMALTTZ
 70
     0
  9
$DIMUPT
 70
     0
  9
$DIMDEC
 70
     4
  9
$DIMTDEC
 70
     4
  9
$DIMALTU
 70
     2
  9
$DIMALTTD
 70
     2
  9
$DIMTXSTY
  7
Standard
  9
$DIMAUNIT
 70
     0
  9
$DIMADEC
 70
     0
  9
$DIMALTRND
 40
0.0
  9
$DIMAZIN
 70
     0
  9
$DIMDSEP
 70
    46
  9
$DIMATFIT
 70
     3
  9
$DIMFRAC
 70
     0
  9
$DIMLDRBLK
  1

  9
$DIMLUNIT
 70
     2
  9
$DIMLWD
 70
    -2
  9
$DIMLWE
 70
    -2
  9
$DIMTMOVE
 70
     0
  9
$DIMFXL
 40
1.0
  9
$DIMFXLON
 70
     0
  9
$DIMJOGANG
 40
0.7853981633974483
  9
$DIMTFILL
 70
     0
  9
$DIMTFILLCLR
 70
     0
  9
$DIMARCSYM
 70
     0
  9
$DIMLTYPE
  6

  9
$DIMLTEX1
  6

  9
$DIMLTEX2
  6

  9
$DIMTXTDIRECTION
 70
     0
  9
$LUNITS
 70
     2
  9
$LUPREC
 70
     4
  9
$SKETCHINC
 40
0.1
  9
$FILLETRAD
 40
0.5
  9
$AUNITS
 70
     0
  9
$AUPREC
 70
     0
  9
$MENU
  1
.
  9
$ELEVATION
 40
0.0
  9
$PELEVATION
 40
0.0
  9
$THICKNESS
 40
0.0
  9
$LIMCHECK
 70
     0
  9
$CHAMFERA
 40
0.5
  9
$CHAMFERB
 40
0.5
  9
$CHAMFERC
 40
1.0
  9
$CHAMFERD
 40
0.0
  9
$SKPOLY
 70
     0
  9
$TDCREATE
 40
2457517.462759699
  9
$TDUCREATE
 40
2457517.421093032
  9
$TDUPDATE
 40
2457517.462759873
  9
$TDUUPDATE
 40
2457517.421093206
  9
$TDINDWG
 40
0.0000000116
  9
$TDUSRTIMER
 40
0.0000000116
  9
$USRTIMER
 70
     1
  9
$ANGBASE
 50
0.0
  9
$ANGDIR
 70
     0
  9
$PDMODE
 70
     0
  9
$PDSIZE
 40
0.0
  9
$PLINEWID
 40
0.0
  9
$SPLFRAME
 70
     0
  9
$SPLINETYPE
 70
     6
  9
$SPLINESEGS
 70
     8
  9
$HANDSEED
  5
8A
  9
$SURFTAB1
 70
     6
  9
$SURFTAB2
 70
     6
  9
$SURFTYPE
 70
     6
  9
$SURFU
 70
     6
  9
$SURFV
 70
     6
  9
$UCSBASE
  2

  9
$UCSNAME
  2

  9
$UCSORG
 10
0.0
 20
0.0
 30
0.0
  9
$UCSXDIR
 10
1.0
 20
0.0
 30
0.0
  9
$UCSYDIR
 10
0.0
 20
1.0
 30
0.0
  9
$UCSORTHOREF
  2

  9
$UCSORTHOVIEW
 70
     0
  9
$UCSORGTOP
 10
0.0
 20
0.0
 30
0.0
  9
$UCSORGBOTTOM
 10
0.0
 20
0.0
 30
0.0
  9
$UCSORGLEFT
 10
0.0
 20
0.0
 30
0.0
  9
$UCSORGRIGHT
 10
0.0
 20
0.0
 30
0.0
  9
$UCSORGFRONT
 10
0.0
 20
0.0
 30
0.0
  9
$UCSORGBACK
 10
0.0
 20
0.0
 30
0.0
  9
$PUCSBASE
  2

  9
$PUCSNAME
  2

  9
$PUCSORG
 10
0.0
 20
0.0
 30
0.0
  9
$PUCSXDIR
 10
1.0
 20
0.0
 30
0.0
  9
$PUCSYDIR
 10
0.0
 20
1.0
 30
0.0
  9
$PUCSORTHOREF
  2

  9
$PUCSORTHOVIEW
 70
     0
  9
$PUCSORGTOP
 10
0.0
 20
0.0
 30
0.0
  9
$PUCSORGBOTTOM
 10
0.0
 20
0.0
 30
0.0
  9
$PUCSORGLEFT
 10
0.0
 20
0.0
 30
0.0
  9
$PUCSORGRIGHT
 10
0.0
 20
0.0
 30
0.0
  9
$PUCSORGFRONT
 10
0.0
 20
0.0
 30
0.0
  9
$PUCSORGBACK
 10
0.0
 20
0.0
 30
0.0
  9
$USERI1
 70
     0
  9
$USERI2
 70
     0
  9
$USERI3
 70
     0
  9
$USERI4
 70
     0
  9
$USERI5
 70
     0
  9
$USERR1
 40
0.0
  9
$USERR2
 40
0.0
  9
$USERR3
 40
0.0
  9
$USERR4
 40
0.0
  9
$USERR5
 40
0.0
  9
$WORLDVIEW
 70
     1
  9
$SHADEDGE
 70
     3
  9
$SHADEDIF
 70
    70
  9
$TILEMODE
 70
     1
  9
$MAXACTVP
 70
    64
  9
$PINSBASE
 10
0.0
 20
0.0
 30
0.0
  9
$PLIMCHECK
 70
     0
  9
$PEXTMIN
 10
1.000000000000000E+20
 20
1.000000000000000E+20
 30
1.000000000000000E+20
  9
$PEXTMAX
 10
-1.000000000000000E+20
 20
-1.000000000000000E+20
 30
-1.000000000000000E+20
  9
$PLIMMIN
 10
0.0
 20
0.0
  9
$PLIMMAX
 10
12.0
 20
9.0
  9
$UNITMODE
 70
     0
  9
$VISRETAIN
 70
     1
  9
$PLINEGEN
 70
     0
  9
$PSLTSCALE
 70
     1
  9
$TREEDEPTH
 70
  3020
  9
$CMLSTYLE
  2
Standard
  9
$CMLJUST
 70
     0
  9
$CMLSCALE
 40
1.0
  9
$PROXYGRAPHICS
 70
     1
  9
$MEASUREMENT
 70
     0
  9
$CELWEIGHT
370
    -1
  9
$ENDCAPS
280
     0
  9
$JOINSTYLE
280
     0
  9
$LWDISPLAY
290
     1
  9
$INSUNITS
 70
     1
  9
$HYPERLINKBASE
  1

  9
$STYLESHEET
  1

  9
$XEDIT
290
     1
  9
$CEPSNTYPE
380
     0
  9
$PSTYLEMODE
290
     1
  9
$FINGERPRINTGUID
  2
{E8F99352-ECBF-498A-A742-2777BC26A45B}
  9
$VERSIONGUID
  2
{FAEB1C32-E019-11D5-929B-00C0DF256EC4}
  9
$EXTNAMES
290
     1
  9
$PSVPSCALE
 40
0.0
  9
$OLESTARTUP
290
     0
  9
$SORTENTS
280
   127
  9
$INDEXCTL
280
     0
  9
$HIDETEXT
280
     1
  9
$XCLIPFRAME
280
     2
  9
$HALOGAP
280
     0
  9
$OBSCOLOR
 70
   257
  9
$OBSLTYPE
280
     0
  9
$INTERSECTIONDISPLAY
280
     0
  9
$INTERSECTIONCOLOR
 70
   257
  9
$DIMASSOC
280
     2
  9
$PROJECTNAME
  1

  9
$CAMERADISPLAY
290
     0
  9
$LENSLENGTH
 40
50.0
  9
$CAMERAHEIGHT
 40
0.0
  9
$STEPSPERSEC
 40
2.0
  9
$STEPSIZE
 40
6.0
  9
$3DDWFPREC
 40
2.0
  9
$PSOLWIDTH
 40
0.25
  9
$PSOLHEIGHT
 40
4.0
  9
$LOFTANG1
 40
1.570796326794897
  9
$LOFTANG2
 40
1.570796326794897
  9
$LOFTMAG1
 40
0.0
  9
$LOFTMAG2
 40
0.0
  9
$LOFTPARAM
 70
     7
  9
$LOFTNORMALS
280
     1
  9
$LATITUDE
 40
37.795
  9
$LONGITUDE
 40
-122.394
  9
$NORTHDIRECTION
 40
0.0
  9
$TIMEZONE
 70
 -8000
  9
$LIGHTGLYPHDISPLAY
280
     1
  9
$TILEMODELIGHTSYNCH
280
     1
  9
$CMATERIAL
347
3C
  9
$SOLIDHIST
280
     1
  9
$SHOWHIST
280
     1
  9
$DWFFRAME
280
     2
  9
$DGNFRAME
280
     2
  9
$REALWORLDSCALE
290
     1
  9
$INTERFERECOLOR
 62
   256
  9
$CSHADOW
280
     0
  9
$SHADOWPLANELOCATION
 40
0.0
  0
ENDSEC
  0
SECTION
  2
CLASSES
  0
CLASS
  1
ACDBDICTIONARYWDFLT
  2
AcDbDictionaryWithDefault
  3
ObjectDBX Classes
 90
        0
 91
        4
280
     0
281
     0
  0
CLASS
  1
VISUALSTYLE
  2
AcDbVisualStyle
  3
ObjectDBX Classes
 90
     4095
 91
        4
280
     0
281
     0
  0
CLASS
  1
MATERIAL
  2
AcDbMaterial
  3
ObjectDBX Classes
 90
     1153
 91
        4
280
     0
281
     0
  0
CLASS
  1
SUN
  2
AcDbSun
  3
SCENEOE
 90
     1024
 91
        4
280
     0
281
     0
  0
ENDSEC
  0
SECTION
  2
TABLES
  0
TABLE
  2
VPORT
  5
8
330
0
100
AcDbSymbolTable
 70
     1
  0
VPORT
  5
29
330
8
100
AcDbSymbolTableRecord
100
AcDbViewportTableRecord
  2
*Active
 70
     0
 10
0.0
 20
0.0
 11
1.0
 21
1.0
 12
0.0
 22
0.0
 13
0.0
 23
0.0
 14
0.5
 24
0.5
 15
0.5
 25
0.5
 16
0.0
 26
0.0
 36
1.0
 17
4.999919443194448
 27
-1.500011110736124
 37
0.0
 40
3.000022221472247
 41
3.33325493885226
 42
50.0
 43
0.0
 44
0.0
 50
0.0
 51
0.0
 71
     0
 72
   100
 73
     1
 74
     3
 75
     0
 76
     0
 77
     0
 78
     0
281
     0
 65
     1
110
0.0
120
0.0
130
0.0
111
1.0
121
0.0
131
0.0
112
0.0
122
1.0
132
0.0
 79
     0
146
0.0
 60
     3
 61
     5
292
     1
282
     1
141
0.0
142
0.0
 63
   250
361
3F
  0
ENDTAB
  0
TABLE
  2
LTYPE
  5
5
330
0
100
AcDbSymbolTable
 70
     1
  0
LTYPE
  5
14
330
5
100
AcDbSymbolTableRecord
100
AcDbLinetypeTableRecord
  2
ByBlock
 70
     0
  3

 72
    65
 73
     0
 40
0.0
  0
LTYPE
  5
15
330
5
100
AcDbSymbolTableRecord
100
AcDbLinetypeTableRecord
  2
ByLayer
 70
     0
  3

 72
    65
 73
     0
 40
0.0
  0
LTYPE
  5
16
330
5
100
AcDbSymbolTableRecord
100
AcDbLinetypeTableRecord
  2
Continuous
 70
     0
  3
Solid line
 72
    65
 73
     0
 40
0.0
  0
ENDTAB
  0
TABLE
  2
LAYER
  5
2
330
0
100
AcDbSymbolTable
 70
     2
  0
LAYER
  5
10
330
2
100
AcDbSymbolTableRecord
100
AcDbLayerTableRecord
  2
0
 70
     0
 62
     7
  6
Continuous
370
    -3
390
F
347
3E
  0
LAYER
  5
40
330
2
100
AcDbSymbolTableRecord
100
AcDbLayerTableRecord
  2
Layer 1
 70
     0
 62
     7
  6
Continuous
370
    -3
390
F
347
3E
  0
ENDTAB
  0
TABLE
  2
STYLE
  5
3
330
0
100
AcDbSymbolTable
 70
     1
  0
STYLE
  5
11
330
3
100
AcDbSymbolTableRecord
100
AcDbTextStyleTableRecord
  2
Standard
 70
     0
 40
0.0
 41
1.0
 50
0.0
 71
     0
 42
0.2
  3
txt
  4

  0
ENDTAB
  0
TABLE
  2
VIEW
  5
6
330
0
100
AcDbSymbolTable
 70
     0
  0
ENDTAB
  0
TABLE
  2
UCS
  5
7
330
0
100
AcDbSymbolTable
 70
     0
  0
ENDTAB
  0
TABLE
  2
APPID
  5
9
330
0
100
AcDbSymbolTable
 70
     1
  0
APPID
  5
12
330
9
100
AcDbSymbolTableRecord
100
AcDbRegAppTableRecord
  2
ACAD
 70
     0
  0
ENDTAB
  0
TABLE
  2
DIMSTYLE
  5
A
330
0
100
AcDbSymbolTable
 70
     1
100
AcDbDimStyleTable
  0
DIMSTYLE
105
27
330
A
100
AcDbSymbolTableRecord
100
AcDbDimStyleTableRecord
  2
Standard
 70
     0
178
     0
340
11
  0
ENDTAB
  0
TABLE
  2
BLOCK_RECORD
  5
1
330
0
100
AcDbSymbolTable
 70
     3
  0
BLOCK_RECORD
  5
1F
330
1
100
AcDbSymbolTableRecord
100
AcDbBlockTableRecord
  2
*Model_Space
340
22
 70
     0
280
     1
281
     0
  0
BLOCK_RECORD
  5
1B
330
1
100
AcDbSymbolTableRecord
100
AcDbBlockTableRecord
  2
*Paper_Space
340
1E
 70
     0
280
     1
281
     0
  0
BLOCK_RECORD
  5
23
330
1
100
AcDbSymbolTableRecord
100
AcDbBlockTableRecord
  2
*Paper_Space0
340
26
 70
     0
280
     1
281
     0
  0
BLOCK_RECORD
  5
41
330
1
100
AcDbSymbolTableRecord
100
AcDbBlockTableRecord
  2
block 2
340
0
102
{BLKREFS
331
42
102
}
 70
     0
280
     1
281
     0
  0
BLOCK_RECORD
  5
51
330
1
100
AcDbSymbolTableRecord
100
AcDbBlockTableRecord
  2
block 3
340
0
102
{BLKREFS
331
52
102
}
 70
     0
280
     1
281
     0
  0
ENDTAB
  0
ENDSEC
  0
SECTION
  2
BLOCKS
  0
BLOCK
  5
20
330
1F
100
AcDbEntity
  8
0
100
AcDbBlockBegin
  2
*Model_Space
 70
     0
 10
0.0
 20
0.0
 30
0.0
  3
*Model_Space
  1

  0
ENDBLK
  5
21
330
1F
100
AcDbEntity
  8
0
100
AcDbBlockEnd
  0
BLOCK
  5
1C
330
1B
100
AcDbEntity
 67
     1
  8
0
100
AcDbBlockBegin
  2
*Paper_Space
 70
     0
 10
0.0
 20
0.0
 30
0.0
  3
*Paper_Space
  1

  0
ENDBLK
  5
1D
330
1B
100
AcDbEntity
 67
     1
  8
0
100
AcDbBlockEnd
  0
BLOCK
  5
24
330
23
100
AcDbEntity
  8
0
100
AcDbBlockBegin
  2
*Paper_Space0
 70
     0
 10
0.0
 20
0.0
 30
0.0
  3
*Paper_Space0
  1

  0
ENDBLK
  5
25
330
23
100
AcDbEntity
  8
0
100
AcDbBlockEnd
  0
BLOCK
  5
43
330
41
100
AcDbEntity
  8
0
100
AcDbBlockBegin
  2
block 2
 70
     0
 10
0.0
 20
0.0
 30
0.0
  3
block 2
  1

  0
SPLINE
  5
45
330
41
100
AcDbEntity
  8
Layer 1
370
     0
100
AcDbSpline
210
0.0
220
0.0
230
1.0
 70
    11
 71
     3
 72
   248
 73
   244
 74
     0
 42
0.0000000001
 43
0.0000000001
 12
1.0
 22
0.0
 32
0.0
 13
1.0
 23
0.0
 33
0.0
 40
0.0
 40
0.0
 40
0.0
 40
0.0
 40
1.0
 40
1.0
 40
1.0
 40
2.0
 40
2.0
 40
2.0
 40
3.0
 40
3.0
 40
3.0
 40
4.0
 40
4.0
 40
4.0
 40
5.0
 40
5.0
 40
5.0
 40
6.0
 40
6.0
 40
6.0
 40
7.0
 40
7.0
 40
7.0
 40
8.0
 40
8.0
 40
8.0
 40
9.0
 40
9.0
 40
9.0
 40
10.0
 40
10.0
 40
10.0
 40
11.0
 40
11.0
 40
11.0
 40
12.0
 40
12.0
 40
12.0
 40
13.0
 40
13.0
 40
13.0
 40
14.0
 40
14.0
 40
14.0
 40
15.0
 40
15.0
 40
15.0
 40
16.0
 40
16.0
 40
16.0
 40
17.0
 40
17.0
 40
17.0
 40
18.0
 40
18.0
 40
18.0
 40
19.0
 40
19.0
 40
19.0
 40
20.0
 40
20.0
 40
20.0
 40
21.0
 40
21.0
 40
21.0
 40
22.0
 40
22.0
 40
22.0
 40
23.0
 40
23.0
 40
23.0
 40
24.0
 40
24.0
 40
24.0
 40
25.0
 40
25.0
 40
25.0
 40
26.0
 40
26.0
 40
26.0
 40
27.0
 40
27.0
 40
27.0
 40
28.0
 40
28.0
 40
28.0
 40
29.0
 40
29.0
 40
29.0
 40
30.0
 40
30.0
 40
30.0
 40
31.0
 40
31.0
 40
31.0
 40
32.0
 40
32.0
 40
32.0
 40
33.0
 40
33.0
 40
33.0
 40
34.0
 40
34.0
 40
34.0
 40
35.0
 40
35.0
 40
35.0
 40
36.0
 40
36.0
 40
36.0
 40
37.0
 40
37.0
 40
37.0
 40
38.0
 40
38.0
 40
38.0
 40
39.0
 40
39.0
 40
39.0
 40
40.0
 40
40.0
 40
40.0
 40
41.0
 40
41.0
 40
41.0
 40
42.0
 40
42.0
 40
42.0
 40
43.0
 40
43.0
 40
43.0
 40
44.0
 40
44.0
 40
44.0
 40
45.0
 40
45.0
 40
45.0
 40
46.0
 40
46.0
 40
46.0
 40
47.0
 40
47.0
 40
47.0
 40
48.0
 40
48.0
 40
48.0
 40
49.0
 40
49.0
 40
49.0
 40
50.0
 40
50.0
 40
50.0
 40
51.0
 40
51.0
 40
51.0
 40
52.0
 40
52.0
 40
52.0
 40
53.0
 40
53.0
 40
53.0
 40
54.0
 40
54.0
 40
54.0
 40
55.0
 40
55.0
 40
55.0
 40
56.0
 40
56.0
 40
56.0
 40
57.0
 40
57.0
 40
57.0
 40
58.0
 40
58.0
 40
58.0
 40
59.0
 40
59.0
 40
59.0
 40
60.0
 40
60.0
 40
60.0
 40
61.0
 40
61.0
 40
61.0
 40
62.0
 40
62.0
 40
62.0
 40
63.0
 40
63.0
 40
63.0
 40
64.0
 40
64.0
 40
64.0
 40
65.0
 40
65.0
 40
65.0
 40
66.0
 40
66.0
 40
66.0
 40
67.0
 40
67.0
 40
67.0
 40
68.0
 40
68.0
 40
68.0
 40
69.0
 40
69.0
 40
69.0
 40
70.0
 40
70.0
 40
70.0
 40
71.0
 40
71.0
 40
71.0
 40
72.0
 40
72.0
 40
72.0
 40
73.0
 40
73.0
 40
73.0
 40
74.0
 40
74.0
 40
74.0
 40
75.0
 40
75.0
 40
75.0
 40
76.0
 40
76.0
 40
76.0
 40
77.0
 40
77.0
 40
77.0
 40
78.0
 40
78.0
 40
78.0
 40
79.0
 40
79.0
 40
79.0
 40
80.0
 40
80.0
 40
80.0
 40
81.0
 40
81.0
 40
81.0
 40
81.0
 10
10.01231276545785
 20
-1.630694385836555
 30
0.0
 10
10.01231276545785
 20
-1.630694385836555
 30
0.0
 10
9.983504549727213
 20
-1.528371256476294
 30
0.0
 10
9.983504549727213
 20
-1.528371256476294
 30
0.0
 10
9.952932142111024
 20
-1.419697036328128
 30
0.0
 10
9.905734820373668
 20
-1.327709995897174
 30
0.0
 10
9.843220162030244
 20
-1.25498377981637
 30
0.0
 10
9.779107353390547
 20
-1.18034808545949
 30
0.0
 10
9.697726219471383
 20
-1.124661887472957
 30
0.0
 10
9.601339076925889
 20
-1.089481825755789
 30
0.0
 10
9.508708625336732
 20
-1.055650851951105
 30
0.0
 10
9.37788860822564
 20
-1.03921273461775
 30
0.0
 10
9.201365643680196
 20
-1.03921273461775
 30
0.0
 10
9.018159505168418
 20
-1.03921273461775
 30
0.0
 10
8.867954132515244
 20
-1.066505820846719
 30
0.0
 10
8.75477603425937
 20
-1.12042782694773
 30
0.0
 10
8.610776466003513
 20
-1.189812456045334
 30
0.0
 10
8.499217273242603
 20
-1.292695975769222
 30
0.0
 10
8.423107959781344
 20
-1.426317944698516
 30
0.0
 10
8.423107959781344
 20
-1.426317944698516
 30
0.0
 10
8.423107959781344
 20
-1.064451056180054
 30
0.0
 10
8.423107959781344
 20
-1.064451056180054
 30
0.0
 10
8.423107959781344
 20
-1.064451056180054
 30
0.0
 10
7.79935197465684
 20
-1.064451056180054
 30
0.0
 10
7.79935197465684
 20
-1.064451056180054
 30
0.0
 10
7.79935197465684
 20
-1.064451056180054
 30
0.0
 10
7.79935197465684
 20
-1.666476348314701
 30
0.0
 10
7.79935197465684
 20
-1.666476348314701
 30
0.0
 10
7.79935197465684
 20
-1.666476348314701
 30
0.0
 10
7.389561332448148
 20
-1.064451056180054
 30
0.0
 10
7.389561332448148
 20
-1.064451056180054
 30
0.0
 10
7.389561332448148
 20
-1.064451056180054
 30
0.0
 10
6.815244230515637
 20
-1.064451056180054
 30
0.0
 10
6.815244230515637
 20
-1.064451056180054
 30
0.0
 10
6.815244230515637
 20
-1.064451056180054
 30
0.0
 10
6.815244230515637
 20
-1.255388506190128
 30
0.0
 10
6.815244230515637
 20
-1.255388506190128
 30
0.0
 10
6.788444080254545
 20
-1.188716322116478
 30
0.0
 10
6.76619450729835
 20
-1.123640991139199
 30
0.0
 10
6.761135427626717
 20
-1.055318768772641
 30
0.0
 10
6.757544778259726
 20
-1.006855379917443
 30
0.0
 10
6.760056157296783
 20
-0.9563994919915274
 30
0.0
 10
6.768565788744556
 20
-0.9053209481060046
 30
0.0
 10
6.770848860596449
 20
-0.8915187410016342
 30
0.0
 10
6.774107426784945
 20
-0.8746447644965797
 30
0.0
 10
6.777884872939844
 20
-0.8550518569679647
 30
0.0
 10
6.80758556221257
 20
-0.701214324550481
 30
0.0
 10
6.857273507788355
 20
-0.4437460852576056
 30
0.0
 10
6.740982129734507
 20
-0.3029013071970093
 30
0.0
 10
6.692705537667153
 20
-0.2443924021936479
 30
0.0
 10
6.622386924630138
 20
-0.2134671562003994
 30
0.0
 10
6.537622693330454
 20
-0.2134671562003994
 30
0.0
 10
6.537622693330454
 20
-0.2134671562003994
 30
0.0
 10
6.527224338805232
 20
-0.2134671562003994
 30
0.0
 10
6.527224338805232
 20
-0.2134671562003994
 30
0.0
 10
6.442107269128488
 20
-0.2134671562003994
 30
0.0
 10
6.371145244933175
 20
-0.2446414645775036
 30
0.0
 10
6.32201768972105
 20
-0.3035862287525644
 30
0.0
 10
6.20221868309485
 20
-0.447357489823257
 30
0.0
 10
6.251906628670572
 20
-0.7185449154258948
 30
0.0
 10
6.278618569337221
 20
-0.8643709411632529
 30
0.0
 10
6.278618569337221
 20
-0.8643709411632529
 30
0.0
 10
6.279324246091468
 20
-0.8682729185100478
 30
0.0
 10
6.279324246091468
 20
-0.8682729185100478
 30
0.0
 10
6.281877135525781
 20
-0.882137391210366
 30
0.0
 10
6.284160207377674
 20
-0.8945697552036583
 30
0.0
 10
6.285903644064536
 20
-0.9051964169140767
 30
0.0
 10
6.294392520313681
 20
-0.9564202471901553
 30
0.0
 10
6.296862388953418
 20
-1.006876135116071
 30
0.0
 10
6.293230229189106
 20
-1.055173482382053
 30
0.0
 10
6.286754607209307
 20
-1.14207549914301
 30
0.0
 10
6.252633060623446
 20
-1.22362267465139
 30
0.0
 10
6.21649825976824
 20
-1.309964301048688
 30
0.0
 10
6.180571010899571
 20
-1.395787047479647
 30
0.0
 10
6.143439960509006
 20
-1.484536276920701
 30
0.0
 10
6.129409446219407
 20
-1.586568833499851
 30
0.0
 10
6.104316411047724
 20
-1.769525909627774
 30
0.0
 10
6.12291306904098
 20
-1.951964105789357
 30
0.0
 10
6.14190407580868
 20
-2.090484301600836
 30
0.0
 10
6.146008416342209
 20
-2.120383462460623
 30
0.0
 10
6.150579748845669
 20
-2.150120473330996
 30
0.0
 10
6.155363822135272
 20
-2.179773166206858
 30
0.0
 10
6.155363822135272
 20
-2.179773166206858
 30
0.0
 10
5.619080621734635
 20
-2.179773166206858
 30
0.0
 10
5.619080621734635
 20
-2.179773166206858
 30
0.0
 10
5.619080621734635
 20
-2.179773166206858
 30
0.0
 10
5.619080621734635
 20
-1.064451056180054
 30
0.0
 10
5.619080621734635
 20
-1.064451056180054
 30
0.0
 10
5.619080621734635
 20
-1.064451056180054
 30
0.0
 10
4.510483196071549
 20
-1.064451056180054
 30
0.0
 10
4.510483196071549
 20
-1.064451056180054
 30
0.0
 10
4.510483196071549
 20
-1.064451056180054
 30
0.0
 10
4.416047042199517
 20
-1.563385276604245
 30
0.0
 10
4.416047042199517
 20
-1.563385276604245
 30
0.0
 10
4.416047042199517
 20
-1.563385276604245
 30
0.0
 10
4.277755153573266
 20
-1.064451056180054
 30
0.0
 10
4.277755153573266
 20
-1.064451056180054
 30
0.0
 10
4.277755153573266
 20
-1.064451056180054
 30
0.0
 10
3.698228496778766
 20
-1.064451056180054
 30
0.0
 10
3.698228496778766
 20
-1.064451056180054
 30
0.0
 10
3.698228496778766
 20
-1.064451056180054
 30
0.0
 10
3.560517753714802
 20
-1.563032438227185
 30
0.0
 10
3.560517753714802
 20
-1.563032438227185
 30
0.0
 10
3.560517753714802
 20
-1.563032438227185
 30
0.0
 10
3.466455193418521
 20
-1.064451056180054
 30
0.0
 10
3.466455193418521
 20
-1.064451056180054
 30
0.0
 10
3.466455193418521
 20
-1.064451056180054
 30
0.0
 10
2.831989525789023
 20
-1.064451056180054
 30
0.0
 10
2.831989525789023
 20
-1.064451056180054
 30
0.0
 10
2.831989525789023
 20
-1.064451056180054
 30
0.0
 10
2.88925311887317
 20
-1.321815519479661
 30
0.0
 10
2.88925311887317
 20
-1.321815519479661
 30
0.0
 10
2.809241828065116
 20
-1.235038033910664
 30
0.0
 10
2.711464087209917
 20
-1.165259056038617
 30
0.0
 10
2.601295492758746
 20
-1.117729651122797
 30
0.0
 10
2.49413640211231
 20
-1.07150782372214
 30
0.0
 10
2.380999814253723
 20
-1.048075204442678
 30
0.0
 10
2.265019764179679
 20
-1.048075204442678
 30
0.0
 10
1.941549993169623
 20
-1.048075204442678
 30
0.0
 10
1.648279036199974
 20
-1.229766213452758
 30
0.0
 10
1.503905874368366
 20
-1.515150194934178
 30
0.0
 10
1.500522776987878
 20
-1.389435956691775
 30
0.0
 10
1.451685794556929
 20
-1.282131579654752
 30
0.0
 10
1.358619483795975
 20
-1.19603901564131
 30
0.0
 10
1.264183329923944
 20
-1.108721894907313
 30
0.0
 10
1.131619876125989
 20
-1.064451056180054
 30
0.0
 10
0.9646235477623699
 20
-1.064451056180054
 30
0.0
 10
0.9646235477623699
 20
-1.064451056180054
 30
0.0
 10
0.0123127679578452
 20
-1.064451056180054
 30
0.0
 10
0.0123127679578452
 20
-1.064451056180054
 30
0.0
 10
0.0123127679578452
 20
-1.064451056180054
 30
0.0
 10
0.0123127679578452
 20
-2.736904963654543
 30
0.0
 10
0.0123127679578452
 20
-2.736904963654543
 30
0.0
 10
0.0123127679578452
 20
-2.736904963654543
 30
0.0
 10
0.897999360085615
 20
-2.736904963654543
 30
0.0
 10
0.897999360085615
 20
-2.736904963654543
 30
0.0
 10
0.9367493159711455
 20
-2.736904963654543
 30
0.0
 10
1.005822617088977
 20
-2.7302425448869
 30
0.0
 10
1.115389310779202
 20
-2.715942213014818
 30
0.0
 10
1.206442367270777
 20
-2.704028728987897
 30
0.0
 10
1.274913767627662
 20
-2.684207514274119
 30
0.0
 10
1.324601713203415
 20
-2.655399298543483
 30
0.0
 10
1.401022354644477
 20
-2.611398277398675
 30
0.0
 10
1.462104904280811
 20
-2.550730831735381
 30
0.0
 10
1.506168191021567
 20
-2.475036622247194
 30
0.0
 10
1.525906384940738
 20
-2.441122627647869
 30
0.0
 10
1.541306742341414
 20
-2.405174623580571
 30
0.0
 10
1.552306997627616
 20
-2.367441672429027
 30
0.0
 10
1.642965705344748
 20
-2.50614866502835
 30
0.0
 10
1.77206304096764
 20
-2.615383275540111
 30
0.0
 10
1.926523229344731
 20
-2.682007463216866
 30
0.0
 10
2.033661564792506
 20
-2.728229290617555
 30
0.0
 10
2.146798152651062
 20
-2.751661909897017
 30
0.0
 10
2.262778202725138
 20
-2.751661909897017
 30
0.0
 10
2.603786116597143
 20
-2.751661909897017
 30
0.0
 10
2.911232874246914
 20
-2.549734582200086
 30
0.0
 10
3.04603788949941
 20
-2.237244311277541
 30
0.0
 10
3.057183431176168
 20
-2.21140408895429
 30
0.0
 10
3.067000640139135
 20
-2.185231783452672
 30
0.0
 10
3.075468761189653
 20
-2.158727394772493
 30
0.0
 10
3.075468761189653
 20
-2.158727394772493
 30
0.0
 10
3.204130237640813
 20
-2.736904963654543
 30
0.0
 10
3.204130237640813
 20
-2.736904963654543
 30
0.0
 10
3.204130237640813
 20
-2.736904963654543
 30
0.0
 10
3.803000739580104
 20
-2.736904963654543
 30
0.0
 10
3.803000739580104
 20
-2.736904963654543
 30
0.0
 10
3.803000739580104
 20
-2.736904963654543
 30
0.0
 10
3.988448439546391
 20
-2.068712098213596
 30
0.0
 10
3.988448439546391
 20
-2.068712098213596
 30
0.0
 10
3.988448439546391
 20
-2.068712098213596
 30
0.0
 10
4.174622571465554
 20
-2.736904963654543
 30
0.0
 10
4.174622571465554
 20
-2.736904963654543
 30
0.0
 10
4.174622571465554
 20
-2.736904963654543
 30
0.0
 10
4.773638359795402
 20
-2.736904963654543
 30
0.0
 10
4.773638359795402
 20
-2.736904963654543
 30
0.0
 10
4.773638359795402
 20
-2.736904963654543
 30
0.0
 10
4.969090065512564
 20
-1.850263632388703
 30
0.0
 10
4.969090065512564
 20
-1.850263632388703
 30
0.0
 10
4.969090065512564
 20
-1.850263632388703
 30
0.0
 10
4.969090065512564
 20
-2.736904963654543
 30
0.0
 10
4.969090065512564
 20
-2.736904963654543
 30
0.0
 10
4.969090065512564
 20
-2.736904963654543
 30
0.0
 10
6.33268586182882
 20
-2.736904963654543
 30
0.0
 10
6.33268586182882
 20
-2.736904963654543
 30
0.0
 10
6.33268586182882
 20
-2.736904963654543
 30
0.0
 10
6.33268586182882
 20
-2.710966154137762
 30
0.0
 10
6.33268586182882
 20
-2.710966154137762
 30
0.0
 10
6.334556424107382
 20
-2.711448712506454
 30
0.0
 10
6.336356937590454
 20
-2.712096015264428
 30
0.0
 10
6.338269010266529
 20
-2.712476094839787
 30
0.0
 10
6.399745908677274
 20
-2.729101008960953
 30
0.0
 10
6.46323606135743
 20
-2.737527619614151
 30
0.0
 10
6.526975276421376
 20
-2.737527619614151
 30
0.0
 10
6.590569205094799
 20
-2.737527619614151
 30
0.0
 10
6.653955581781622
 20
-2.729121764159645
 30
0.0
 10
6.715390969795112
 20
-2.712559115634363
 30
0.0
 10
6.752418244192408
 20
-2.705128754516524
 30
0.0
 10
6.782056667869123
 20
-2.678188506664711
 30
0.0
 10
6.793160699148593
 20
-2.641576336240421
 30
0.0
 10
6.800819367451659
 20
-2.616050036296842
 30
0.0
 10
6.808125197377537
 20
-2.590261701970257
 30
0.0
 10
6.815244230515637
 20
-2.564337161652496
 30
0.0
 10
6.815244230515637
 20
-2.564337161652496
 30
0.0
 10
6.815244230515637
 20
-2.736904963654543
 30
0.0
 10
6.815244230515637
 20
-2.736904963654543
 30
0.0
 10
6.815244230515637
 20
-2.736904963654543
 30
0.0
 10
7.438003966104717
 20
-2.736904963654543
 30
0.0
 10
7.438003966104717
 20
-2.736904963654543
 30
0.0
 10
7.438003966104717
 20
-2.736904963654543
 30
0.0
 10
7.438003966104717
 20
-2.140421309560413
 30
0.0
 10
7.438003966104717
 20
-2.140421309560413
 30
0.0
 10
7.438003966104717
 20
-2.140421309560413
 30
0.0
 10
7.844805859707335
 20
-2.736904963654543
 30
0.0
 10
7.844805859707335
 20
-2.736904963654543
 30
0.0
 10
7.844805859707335
 20
-2.736904963654543
 30
0.0
 10
8.423107959781344
 20
-2.736904963654543
 30
0.0
 10
8.423107959781344
 20
-2.736904963654543
 30
0.0
 10
8.423107959781344
 20
-2.736904963654543
 30
0.0
 10
8.423107959781344
 20
-2.377715495762354
 30
0.0
 10
8.423107959781344
 20
-2.377715495762354
 30
0.0
 10
8.49195295371398
 20
-2.500897599769073
 30
0.0
 10
8.587281581128103
 20
-2.596018675196659
 30
0.0
 10
8.706852280569139
 20
-2.660691874200017
 30
0.0
 10
8.831258941296444
 20
-2.728021738631019
 30
0.0
 10
8.991198502117912
 20
-2.762143285216879
 30
0.0
 10
9.182187840124652
 20
-2.762143285216879
 30
0.0
 10
9.334198915060634
 20
-2.762143285216879
 30
0.0
 10
9.468568071141398
 20
-2.743795689607415
 30
0.0
 10
9.581538617410738
 20
-2.707577867957633
 30
0.0
 10
9.693865752521843
 20
-2.671588353492951
 30
0.0
 10
9.822963088144702
 20
-2.604175468267373
 30
0.0
 10
9.96523997491239
 20
-2.507186424961029
 30
0.0
 10
9.96523997491239
 20
-2.507186424961029
 30
0.0
 10
10.00731076258243
 20
-2.478481985223661
 30
0.0
 10
10.00731076258243
 20
-2.478481985223661
 30
0.0
 10
10.00731076258243
 20
-2.478481985223661
 30
0.0
 10
10.00731076258243
 20
-1.700328077318014
 30
0.0
 10
10.00731076258243
 20
-1.700328077318014
 30
0.0
 10
10.00731076258243
 20
-1.700328077318014
 30
0.0
 10
9.622177296373719
 20
-1.700328077318014
 30
0.0
 10
9.622177296373719
 20
-1.700328077318014
 30
0.0
 10
9.622177296373719
 20
-1.700328077318014
 30
0.0
 10
10.01231276545785
 20
-1.630694385836555
 30
0.0
 10
10.01231276545785
 20
-1.630694385836555
 30
0.0
  0
HATCH
  5
46
330
41
100
AcDbEntity
  8
Layer 1
 62
   250
420
  3355443
100
AcDbHatch
 10
0.0
 20
0.0
 30
0.0
210
0.0
220
0.0
230
1.0
  2
SOLID
 70
     1
 71
     0
 91
        1
 92
        1
 93
        1
 72
     4
 94
        3
 73
     0
 74
     1
 95
      248
 96
      244
 40
0.0
 40
0.0
 40
0.0
 40
0.0
 40
1.0
 40
1.0
 40
1.0
 40
2.0
 40
2.0
 40
2.0
 40
3.0
 40
3.0
 40
3.0
 40
4.0
 40
4.0
 40
4.0
 40
5.0
 40
5.0
 40
5.0
 40
6.0
 40
6.0
 40
6.0
 40
7.0
 40
7.0
 40
7.0
 40
8.0
 40
8.0
 40
8.0
 40
9.0
 40
9.0
 40
9.0
 40
10.0
 40
10.0
 40
10.0
 40
11.0
 40
11.0
 40
11.0
 40
12.0
 40
12.0
 40
12.0
 40
13.0
 40
13.0
 40
13.0
 40
14.0
 40
14.0
 40
14.0
 40
15.0
 40
15.0
 40
15.0
 40
16.0
 40
16.0
 40
16.0
 40
17.0
 40
17.0
 40
17.0
 40
18.0
 40
18.0
 40
18.0
 40
19.0
 40
19.0
 40
19.0
 40
20.0
 40
20.0
 40
20.0
 40
21.0
 40
21.0
 40
21.0
 40
22.0
 40
22.0
 40
22.0
 40
23.0
 40
23.0
 40
23.0
 40
24.0
 40
24.0
 40
24.0
 40
25.0
 40
25.0
 40
25.0
 40
26.0
 40
26.0
 40
26.0
 40
27.0
 40
27.0
 40
27.0
 40
28.0
 40
28.0
 40
28.0
 40
29.0
 40
29.0
 40
29.0
 40
30.0
 40
30.0
 40
30.0
 40
31.0
 40
31.0
 40
31.0
 40
32.0
 40
32.0
 40
32.0
 40
33.0
 40
33.0
 40
33.0
 40
34.0
 40
34.0
 40
34.0
 40
35.0
 40
35.0
 40
35.0
 40
36.0
 40
36.0
 40
36.0
 40
37.0
 40
37.0
 40
37.0
 40
38.0
 40
38.0
 40
38.0
 40
39.0
 40
39.0
 40
39.0
 40
40.0
 40
40.0
 40
40.0
 40
41.0
 40
41.0
 40
41.0
 40
42.0
 40
42.0
 40
42.0
 40
43.0
 40
43.0
 40
43.0
 40
44.0
 40
44.0
 40
44.0
 40
45.0
 40
45.0
 40
45.0
 40
46.0
 40
46.0
 40
46.0
 40
47.0
 40
47.0
 40
47.0
 40
48.0
 40
48.0
 40
48.0
 40
49.0
 40
49.0
 40
49.0
 40
50.0
 40
50.0
 40
50.0
 40
51.0
 40
51.0
 40
51.0
 40
52.0
 40
52.0
 40
52.0
 40
53.0
 40
53.0
 40
53.0
 40
54.0
 40
54.0
 40
54.0
 40
55.0
 40
55.0
 40
55.0
 40
56.0
 40
56.0
 40
56.0
 40
57.0
 40
57.0
 40
57.0
 40
58.0
 40
58.0
 40
58.0
 40
59.0
 40
59.0
 40
59.0
 40
60.0
 40
60.0
 40
60.0
 40
61.0
 40
61.0
 40
61.0
 40
62.0
 40
62.0
 40
62.0
 40
63.0
 40
63.0
 40
63.0
 40
64.0
 40
64.0
 40
64.0
 40
65.0
 40
65.0
 40
65.0
 40
66.0
 40
66.0
 40
66.0
 40
67.0
 40
67.0
 40
67.0
 40
68.0
 40
68.0
 40
68.0
 40
69.0
 40
69.0
 40
69.0
 40
70.0
 40
70.0
 40
70.0
 40
71.0
 40
71.0
 40
71.0
 40
72.0
 40
72.0
 40
72.0
 40
73.0
 40
73.0
 40
73.0
 40
74.0
 40
74.0
 40
74.0
 40
75.0
 40
75.0
 40
75.0
 40
76.0
 40
76.0
 40
76.0
 40
77.0
 40
77.0
 40
77.0
 40
78.0
 40
78.0
 40
78.0
 40
79.0
 40
79.0
 40
79.0
 40
80.0
 40
80.0
 40
80.0
 40
81.0
 40
81.0
 40
81.0
 40
81.0
 10
10.01231276545785
 20
-1.630694385836555
 10
10.01231276545785
 20
-1.630694385836555
 10
9.983504549727213
 20
-1.528371256476294
 10
9.983504549727213
 20
-1.528371256476294
 10
9.952932142111024
 20
-1.419697036328128
 10
9.905734820373668
 20
-1.327709995897174
 10
9.843220162030244
 20
-1.25498377981637
 10
9.779107353390547
 20
-1.18034808545949
 10
9.697726219471383
 20
-1.124661887472957
 10
9.601339076925889
 20
-1.089481825755789
 10
9.508708625336732
 20
-1.055650851951105
 10
9.37788860822564
 20
-1.03921273461775
 10
9.201365643680196
 20
-1.03921273461775
 10
9.018159505168418
 20
-1.03921273461775
 10
8.867954132515244
 20
-1.066505820846719
 10
8.75477603425937
 20
-1.12042782694773
 10
8.610776466003513
 20
-1.189812456045334
 10
8.499217273242603
 20
-1.292695975769222
 10
8.423107959781344
 20
-1.426317944698516
 10
8.423107959781344
 20
-1.426317944698516
 10
8.423107959781344
 20
-1.064451056180054
 10
8.423107959781344
 20
-1.064451056180054
 10
8.423107959781344
 20
-1.064451056180054
 10
7.79935197465684
 20
-1.064451056180054
 10
7.79935197465684
 20
-1.064451056180054
 10
7.79935197465684
 20
-1.064451056180054
 10
7.79935197465684
 20
-1.666476348314701
 10
7.79935197465684
 20
-1.666476348314701
 10
7.79935197465684
 20
-1.666476348314701
 10
7.389561332448148
 20
-1.064451056180054
 10
7.389561332448148
 20
-1.064451056180054
 10
7.389561332448148
 20
-1.064451056180054
 10
6.815244230515637
 20
-1.064451056180054
 10
6.815244230515637
 20
-1.064451056180054
 10
6.815244230515637
 20
-1.064451056180054
 10
6.815244230515637
 20
-1.255388506190128
 10
6.815244230515637
 20
-1.255388506190128
 10
6.788444080254545
 20
-1.188716322116478
 10
6.76619450729835
 20
-1.123640991139199
 10
6.761135427626717
 20
-1.055318768772641
 10
6.757544778259726
 20
-1.006855379917443
 10
6.760056157296783
 20
-0.9563994919915274
 10
6.768565788744556
 20
-0.9053209481060046
 10
6.770848860596449
 20
-0.8915187410016342
 10
6.774107426784945
 20
-0.8746447644965797
 10
6.777884872939844
 20
-0.8550518569679647
 10
6.80758556221257
 20
-0.701214324550481
 10
6.857273507788355
 20
-0.4437460852576056
 10
6.740982129734507
 20
-0.3029013071970093
 10
6.692705537667153
 20
-0.2443924021936479
 10
6.622386924630138
 20
-0.2134671562003994
 10
6.537622693330454
 20
-0.2134671562003994
 10
6.537622693330454
 20
-0.2134671562003994
 10
6.527224338805232
 20
-0.2134671562003994
 10
6.527224338805232
 20
-0.2134671562003994
 10
6.442107269128488
 20
-0.2134671562003994
 10
6.371145244933175
 20
-0.2446414645775036
 10
6.32201768972105
 20
-0.3035862287525644
 10
6.20221868309485
 20
-0.447357489823257
 10
6.251906628670572
 20
-0.7185449154258948
 10
6.278618569337221
 20
-0.8643709411632529
 10
6.278618569337221
 20
-0.8643709411632529
 10
6.279324246091468
 20
-0.8682729185100478
 10
6.279324246091468
 20
-0.8682729185100478
 10
6.281877135525781
 20
-0.882137391210366
 10
6.284160207377674
 20
-0.8945697552036583
 10
6.285903644064536
 20
-0.9051964169140767
 10
6.294392520313681
 20
-0.9564202471901553
 10
6.296862388953418
 20
-1.006876135116071
 10
6.293230229189106
 20
-1.055173482382053
 10
6.286754607209307
 20
-1.14207549914301
 10
6.252633060623446
 20
-1.22362267465139
 10
6.21649825976824
 20
-1.309964301048688
 10
6.180571010899571
 20
-1.395787047479647
 10
6.143439960509006
 20
-1.484536276920701
 10
6.129409446219407
 20
-1.586568833499851
 10
6.104316411047724
 20
-1.769525909627774
 10
6.12291306904098
 20
-1.951964105789357
 10
6.14190407580868
 20
-2.090484301600836
 10
6.146008416342209
 20
-2.120383462460623
 10
6.150579748845669
 20
-2.150120473330996
 10
6.155363822135272
 20
-2.179773166206858
 10
6.155363822135272
 20
-2.179773166206858
 10
5.619080621734635
 20
-2.179773166206858
 10
5.619080621734635
 20
-2.179773166206858
 10
5.619080621734635
 20
-2.179773166206858
 10
5.619080621734635
 20
-1.064451056180054
 10
5.619080621734635
 20
-1.064451056180054
 10
5.619080621734635
 20
-1.064451056180054
 10
4.510483196071549
 20
-1.064451056180054
 10
4.510483196071549
 20
-1.064451056180054
 10
4.510483196071549
 20
-1.064451056180054
 10
4.416047042199517
 20
-1.563385276604245
 10
4.416047042199517
 20
-1.563385276604245
 10
4.416047042199517
 20
-1.563385276604245
 10
4.277755153573266
 20
-1.064451056180054
 10
4.277755153573266
 20
-1.064451056180054
 10
4.277755153573266
 20
-1.064451056180054
 10
3.698228496778766
 20
-1.064451056180054
 10
3.698228496778766
 20
-1.064451056180054
 10
3.698228496778766
 20
-1.064451056180054
 10
3.560517753714802
 20
-1.563032438227185
 10
3.560517753714802
 20
-1.563032438227185
 10
3.560517753714802
 20
-1.563032438227185
 10
3.466455193418521
 20
-1.064451056180054
 10
3.466455193418521
 20
-1.064451056180054
 10
3.466455193418521
 20
-1.064451056180054
 10
2.831989525789023
 20
-1.064451056180054
 10
2.831989525789023
 20
-1.064451056180054
 10
2.831989525789023
 20
-1.064451056180054
 10
2.88925311887317
 20
-1.321815519479661
 10
2.88925311887317
 20
-1.321815519479661
 10
2.809241828065116
 20
-1.235038033910664
 10
2.711464087209917
 20
-1.165259056038617
 10
2.601295492758746
 20
-1.117729651122797
 10
2.49413640211231
 20
-1.07150782372214
 10
2.380999814253723
 20
-1.048075204442678
 10
2.265019764179679
 20
-1.048075204442678
 10
1.941549993169623
 20
-1.048075204442678
 10
1.648279036199974
 20
-1.229766213452758
 10
1.503905874368366
 20
-1.515150194934178
 10
1.500522776987878
 20
-1.389435956691775
 10
1.451685794556929
 20
-1.282131579654752
 10
1.358619483795975
 20
-1.19603901564131
 10
1.264183329923944
 20
-1.108721894907313
 10
1.131619876125989
 20
-1.064451056180054
 10
0.9646235477623699
 20
-1.064451056180054
 10
0.9646235477623699
 20
-1.064451056180054
 10
0.0123127679578452
 20
-1.064451056180054
 10
0.0123127679578452
 20
-1.064451056180054
 10
0.0123127679578452
 20
-1.064451056180054
 10
0.0123127679578452
 20
-2.736904963654543
 10
0.0123127679578452
 20
-2.736904963654543
 10
0.0123127679578452
 20
-2.736904963654543
 10
0.897999360085615
 20
-2.736904963654543
 10
0.897999360085615
 20
-2.736904963654543
 10
0.9367493159711455
 20
-2.736904963654543
 10
1.005822617088977
 20
-2.7302425448869
 10
1.115389310779202
 20
-2.715942213014818
 10
1.206442367270777
 20
-2.704028728987897
 10
1.274913767627662
 20
-2.684207514274119
 10
1.324601713203415
 20
-2.655399298543483
 10
1.401022354644477
 20
-2.611398277398675
 10
1.462104904280811
 20
-2.550730831735381
 10
1.506168191021567
 20
-2.475036622247194
 10
1.525906384940738
 20
-2.441122627647869
 10
1.541306742341414
 20
-2.405174623580571
 10
1.552306997627616
 20
-2.367441672429027
 10
1.642965705344748
 20
-2.50614866502835
 10
1.77206304096764
 20
-2.615383275540111
 10
1.926523229344731
 20
-2.682007463216866
 10
2.033661564792506
 20
-2.728229290617555
 10
2.146798152651062
 20
-2.751661909897017
 10
2.262778202725138
 20
-2.751661909897017
 10
2.603786116597143
 20
-2.751661909897017
 10
2.911232874246914
 20
-2.549734582200086
 10
3.04603788949941
 20
-2.237244311277541
 10
3.057183431176168
 20
-2.21140408895429
 10
3.067000640139135
 20
-2.185231783452672
 10
3.075468761189653
 20
-2.158727394772493
 10
3.075468761189653
 20
-2.158727394772493
 10
3.204130237640813
 20
-2.736904963654543
 10
3.204130237640813
 20
-2.736904963654543
 10
3.204130237640813
 20
-2.736904963654543
 10
3.803000739580104
 20
-2.736904963654543
 10
3.803000739580104
 20
-2.736904963654543
 10
3.803000739580104
 20
-2.736904963654543
 10
3.988448439546391
 20
-2.068712098213596
 10
3.988448439546391
 20
-2.068712098213596
 10
3.988448439546391
 20
-2.068712098213596
 10
4.174622571465554
 20
-2.736904963654543
 10
4.174622571465554
 20
-2.736904963654543
 10
4.174622571465554
 20
-2.736904963654543
 10
4.773638359795402
 20
-2.736904963654543
 10
4.773638359795402
 20
-2.736904963654543
 10
4.773638359795402
 20
-2.736904963654543
 10
4.969090065512564
 20
-1.850263632388703
 10
4.969090065512564
 20
-1.850263632388703
 10
4.969090065512564
 20
-1.850263632388703
 10
4.969090065512564
 20
-2.736904963654543
 10
4.969090065512564
 20
-2.736904963654543
 10
4.969090065512564
 20
-2.736904963654543
 10
6.33268586182882
 20
-2.736904963654543
 10
6.33268586182882
 20
-2.736904963654543
 10
6.33268586182882
 20
-2.736904963654543
 10
6.33268586182882
 20
-2.710966154137762
 10
6.33268586182882
 20
-2.710966154137762
 10
6.334556424107382
 20
-2.711448712506454
 10
6.336356937590454
 20
-2.712096015264428
 10
6.338269010266529
 20
-2.712476094839787
 10
6.399745908677274
 20
-2.729101008960953
 10
6.46323606135743
 20
-2.737527619614151
 10
6.526975276421376
 20
-2.737527619614151
 10
6.590569205094799
 20
-2.737527619614151
 10
6.653955581781622
 20
-2.729121764159645
 10
6.715390969795112
 20
-2.712559115634363
 10
6.752418244192408
 20
-2.705128754516524
 10
6.782056667869123
 20
-2.678188506664711
 10
6.793160699148593
 20
-2.641576336240421
 10
6.800819367451659
 20
-2.616050036296842
 10
6.808125197377537
 20
-2.590261701970257
 10
6.815244230515637
 20
-2.564337161652496
 10
6.815244230515637
 20
-2.564337161652496
 10
6.815244230515637
 20
-2.736904963654543
 10
6.815244230515637
 20
-2.736904963654543
 10
6.815244230515637
 20
-2.736904963654543
 10
7.438003966104717
 20
-2.736904963654543
 10
7.438003966104717
 20
-2.736904963654543
 10
7.438003966104717
 20
-2.736904963654543
 10
7.438003966104717
 20
-2.140421309560413
 10
7.438003966104717
 20
-2.140421309560413
 10
7.438003966104717
 20
-2.140421309560413
 10
7.844805859707335
 20
-2.736904963654543
 10
7.844805859707335
 20
-2.736904963654543
 10
7.844805859707335
 20
-2.736904963654543
 10
8.423107959781344
 20
-2.736904963654543
 10
8.423107959781344
 20
-2.736904963654543
 10
8.423107959781344
 20
-2.736904963654543
 10
8.423107959781344
 20
-2.377715495762354
 10
8.423107959781344
 20
-2.377715495762354
 10
8.49195295371398
 20
-2.500897599769073
 10
8.587281581128103
 20
-2.596018675196659
 10
8.706852280569139
 20
-2.660691874200017
 10
8.831258941296444
 20
-2.728021738631019
 10
8.991198502117912
 20
-2.762143285216879
 10
9.182187840124652
 20
-2.762143285216879
 10
9.334198915060634
 20
-2.762143285216879
 10
9.468568071141398
 20
-2.743795689607415
 10
9.581538617410738
 20
-2.707577867957633
 10
9.693865752521843
 20
-2.671588353492951
 10
9.822963088144702
 20
-2.604175468267373
 10
9.96523997491239
 20
-2.507186424961029
 10
9.96523997491239
 20
-2.507186424961029
 10
10.00731076258243
 20
-2.478481985223661
 10
10.00731076258243
 20
-2.478481985223661
 10
10.00731076258243
 20
-2.478481985223661
 10
10.00731076258243
 20
-1.700328077318014
 10
10.00731076258243
 20
-1.700328077318014
 10
10.00731076258243
 20
-1.700328077318014
 10
9.622177296373719
 20
-1.700328077318014
 10
9.622177296373719
 20
-1.700328077318014
 10
9.622177296373719
 20
-1.700328077318014
 10
10.01231276545785
 20
-1.630694385836555
 10
10.01231276545785
 20
-1.630694385836555
 97
        0
 97
        0
 75
     2
 76
     1
 98
        0
  0
SPLINE
  5
47
330
41
100
AcDbEntity
  8
Layer 1
370
     0
100
AcDbSpline
210
0.0
220
0.0
230
1.0
 70
    11
 71
     3
 72
   314
 73
   310
 74
     0
 42
0.0000000001
 43
0.0000000001
 12
1.0
 22
0.0
 32
0.0
 13
1.0
 23
0.0
 33
0.0
 40
0.0
 40
0.0
 40
0.0
 40
0.0
 40
1.0
 40
1.0
 40
1.0
 40
2.0
 40
2.0
 40
2.0
 40
3.0
 40
3.0
 40
3.0
 40
4.0
 40
4.0
 40
4.0
 40
5.0
 40
5.0
 40
5.0
 40
6.0
 40
6.0
 40
6.0
 40
7.0
 40
7.0
 40
7.0
 40
8.0
 40
8.0
 40
8.0
 40
9.0
 40
9.0
 40
9.0
 40
10.0
 40
10.0
 40
10.0
 40
11.0
 40
11.0
 40
11.0
 40
12.0
 40
12.0
 40
12.0
 40
13.0
 40
13.0
 40
13.0
 40
14.0
 40
14.0
 40
14.0
 40
15.0
 40
15.0
 40
15.0
 40
16.0
 40
16.0
 40
16.0
 40
17.0
 40
17.0
 40
17.0
 40
18.0
 40
18.0
 40
18.0
 40
19.0
 40
19.0
 40
19.0
 40
20.0
 40
20.0
 40
20.0
 40
21.0
 40
21.0
 40
21.0
 40
22.0
 40
22.0
 40
22.0
 40
23.0
 40
23.0
 40
23.0
 40
24.0
 40
24.0
 40
24.0
 40
25.0
 40
25.0
 40
25.0
 40
26.0
 40
26.0
 40
26.0
 40
27.0
 40
27.0
 40
27.0
 40
28.0
 40
28.0
 40
28.0
 40
29.0
 40
29.0
 40
29.0
 40
30.0
 40
30.0
 40
30.0
 40
31.0
 40
31.0
 40
31.0
 40
32.0
 40
32.0
 40
32.0
 40
33.0
 40
33.0
 40
33.0
 40
34.0
 40
34.0
 40
34.0
 40
35.0
 40
35.0
 40
35.0
 40
36.0
 40
36.0
 40
36.0
 40
37.0
 40
37.0
 40
37.0
 40
38.0
 40
38.0
 40
38.0
 40
39.0
 40
39.0
 40
39.0
 40
40.0
 40
40.0
 40
40.0
 40
41.0
 40
41.0
 40
41.0
 40
42.0
 40
42.0
 40
42.0
 40
43.0
 40
43.0
 40
43.0
 40
44.0
 40
44.0
 40
44.0
 40
45.0
 40
45.0
 40
45.0
 40
46.0
 40
46.0
 40
46.0
 40
47.0
 40
47.0
 40
47.0
 40
48.0
 40
48.0
 40
48.0
 40
49.0
 40
49.0
 40
49.0
 40
50.0
 40
50.0
 40
50.0
 40
51.0
 40
51.0
 40
51.0
 40
52.0
 40
52.0
 40
52.0
 40
53.0
 40
53.0
 40
53.0
 40
54.0
 40
54.0
 40
54.0
 40
55.0
 40
55.0
 40
55.0
 40
56.0
 40
56.0
 40
56.0
 40
57.0
 40
57.0
 40
57.0
 40
58.0
 40
58.0
 40
58.0
 40
59.0
 40
59.0
 40
59.0
 40
60.0
 40
60.0
 40
60.0
 40
61.0
 40
61.0
 40
61.0
 40
62.0
 40
62.0
 40
62.0
 40
63.0
 40
63.0
 40
63.0
 40
64.0
 40
64.0
 40
64.0
 40
65.0
 40
65.0
 40
65.0
 40
66.0
 40
66.0
 40
66.0
 40
67.0
 40
67.0
 40
67.0
 40
68.0
 40
68.0
 40
68.0
 40
69.0
 40
69.0
 40
69.0
 40
70.0
 40
70.0
 40
70.0
 40
71.0
 40
71.0
 40
71.0
 40
72.0
 40
72.0
 40
72.0
 40
73.0
 40
73.0
 40
73.0
 40
74.0
 40
74.0
 40
74.0
 40
75.0
 40
75.0
 40
75.0
 40
76.0
 40
76.0
 40
76.0
 40
77.0
 40
77.0
 40
77.0
 40
78.0
 40
78.0
 40
78.0
 40
79.0
 40
79.0
 40
79.0
 40
80.0
 40
80.0
 40
80.0
 40
81.0
 40
81.0
 40
81.0
 40
82.0
 40
82.0
 40
82.0
 40
83.0
 40
83.0
 40
83.0
 40
84.0
 40
84.0
 40
84.0
 40
85.0
 40
85.0
 40
85.0
 40
86.0
 40
86.0
 40
86.0
 40
87.0
 40
87.0
 40
87.0
 40
88.0
 40
88.0
 40
88.0
 40
89.0
 40
89.0
 40
89.0
 40
90.0
 40
90.0
 40
90.0
 40
91.0
 40
91.0
 40
91.0
 40
92.0
 40
92.0
 40
92.0
 40
93.0
 40
93.0
 40
93.0
 40
94.0
 40
94.0
 40
94.0
 40
95.0
 40
95.0
 40
95.0
 40
96.0
 40
96.0
 40
96.0
 40
97.0
 40
97.0
 40
97.0
 40
98.0
 40
98.0
 40
98.0
 40
99.0
 40
99.0
 40
99.0
 40
100.0
 40
100.0
 40
100.0
 40
101.0
 40
101.0
 40
101.0
 40
102.0
 40
102.0
 40
102.0
 40
103.0
 40
103.0
 40
103.0
 40
103.0
 10
9.156202331410814
 20
-1.748521648590793
 30
0.0
 10
9.156202331410814
 20
-1.748521648590793
 30
0.0
 10
9.156202331410814
 20
-2.152749897560405
 30
0.0
 10
9.156202331410814
 20
-2.152749897560405
 30
0.0
 10
9.156202331410814
 20
-2.152749897560405
 30
0.0
 10
9.46203018356565
 20
-2.152749897560405
 30
0.0
 10
9.46203018356565
 20
-2.152749897560405
 30
0.0
 10
9.46203018356565
 20
-2.152749897560405
 30
0.0
 10
9.46203018356565
 20
-2.216094763849972
 30
0.0
 10
9.46203018356565
 20
-2.216094763849972
 30
0.0
 10
9.41510267941078
 20
-2.242599152530086
 30
0.0
 10
9.372824339754205
 20
-2.261922242476218
 30
0.0
 10
9.336108393336712
 20
-2.273648929715231
 30
0.0
 10
9.294618751229025
 20
-2.286869991257314
 30
0.0
 10
9.250285646905786
 20
-2.293573920422341
 30
0.0
 10
9.204395902683528
 20
-2.293573920422341
 30
0.0
 10
9.110416363181887
 20
-2.293573920422341
 30
0.0
 10
9.039890198158337
 20
-2.265263829459353
 30
0.0
 10
8.988790899074187
 20
-2.207024742038476
 30
0.0
 10
8.936778371249254
 20
-2.147747894684983
 30
0.0
 10
8.910419268959727
 20
-2.042975651883613
 30
0.0
 10
8.910419268959727
 20
-1.895634496644621
 30
0.0
 10
8.910419268959727
 20
-1.757425628813009
 30
0.0
 10
8.93659157446141
 20
-1.656742160146342
 30
0.0
 10
8.988188998313207
 20
-1.596386042462851
 30
0.0
 10
9.038582620643176
 20
-1.537462033486386
 30
0.0
 10
9.105020011532087
 20
-1.508799104146306
 30
0.0
 10
9.191257861936084
 20
-1.508799104146306
 30
0.0
 10
9.248376168629708
 20
-1.508799104146306
 30
0.0
 10
9.295096120798044
 20
-1.520920140159763
 30
0.0
 10
9.33015165132325
 20
-1.544830129008277
 30
0.0
 10
9.36481283307408
 20
-1.568491055472934
 30
0.0
 10
9.388909618710468
 20
-1.602259763681671
 30
0.0
 10
9.403832606542093
 20
-1.648107997506609
 30
0.0
 10
9.403832606542093
 20
-1.648107997506609
 30
0.0
 10
9.416804605700385
 20
-1.688020244516714
 30
0.0
 10
9.416804605700385
 20
-1.688020244516714
 30
0.0
 10
9.416804605700385
 20
-1.688020244516714
 30
0.0
 10
9.951520788602593
 20
-1.592587841109324
 30
0.0
 10
9.951520788602593
 20
-1.592587841109324
 30
0.0
 10
9.951520788602593
 20
-1.592587841109324
 30
0.0
 10
9.937116680737308
 20
-1.541426276429129
 30
0.0
 10
9.937116680737308
 20
-1.541426276429129
 30
0.0
 10
9.90845375139726
 20
-1.439539006240599
 30
0.0
 10
9.864556506245721
 20
-1.353737015008268
 30
0.0
 10
9.806670257201967
 20
-1.28638639537867
 30
0.0
 10
9.74799531060939
 20
-1.218081036611002
 30
0.0
 10
9.673338861053818
 20
-1.167064758321426
 30
0.0
 10
9.584797183599298
 20
-1.134748914018408
 30
0.0
 10
9.49756308365994
 20
-1.102889684085749
 30
0.0
 10
9.372160173397342
 20
-1.087406305890496
 30
0.0
 10
9.201365643680196
 20
-1.087406305890496
 30
0.0
 10
9.025361559101093
 20
-1.087406305890496
 30
0.0
 10
8.882212953990006
 20
-1.113101241823127
 30
0.0
 10
8.77569727450184
 20
-1.163847702530187
 30
0.0
 10
8.638650697794738
 20
-1.229869989446027
 30
0.0
 10
8.533048247047288
 20
-1.328104344671585
 30
0.0
 10
8.461816405269555
 20
-1.455811081984706
 30
0.0
 10
8.420964985520301
 20
-1.529049692032274
 30
0.0
 10
8.392182713788095
 20
-1.610460661549509
 30
0.0
 10
8.37491438850863
 20
-1.698781815018406
 30
0.0
 10
8.37491438850863
 20
-1.698781815018406
 30
0.0
 10
8.37491438850863
 20
-1.112644627452768
 30
0.0
 10
8.37491438850863
 20
-1.112644627452768
 30
0.0
 10
8.37491438850863
 20
-1.112644627452768
 30
0.0
 10
7.847545545929555
 20
-1.112644627452768
 30
0.0
 10
7.847545545929555
 20
-1.112644627452768
 30
0.0
 10
7.847545545929555
 20
-1.112644627452768
 30
0.0
 10
7.847545545929555
 20
-1.822929035762446
 30
0.0
 10
7.847545545929555
 20
-1.822929035762446
 30
0.0
 10
7.847545545929555
 20
-1.822929035762446
 30
0.0
 10
7.36407394850202
 20
-1.112644627452768
 30
0.0
 10
7.36407394850202
 20
-1.112644627452768
 30
0.0
 10
7.36407394850202
 20
-1.112644627452768
 30
0.0
 10
6.863437801788351
 20
-1.112644627452768
 30
0.0
 10
6.863437801788351
 20
-1.112644627452768
 30
0.0
 10
6.863437801788351
 20
-1.112644627452768
 30
0.0
 10
6.863437801788351
 20
-1.524224108345382
 30
0.0
 10
6.863437801788351
 20
-1.524224108345382
 30
0.0
 10
6.846208392506208
 20
-1.455414138810522
 30
0.0
 10
6.81942121424446
 20
-1.39123647017504
 30
0.0
 10
6.793285230340552
 20
-1.328685490233872
 30
0.0
 10
6.755635299983648
 20
-1.238607928078995
 30
0.0
 10
6.72008164469073
 20
-1.153511613600912
 30
0.0
 10
6.713066387545899
 20
-1.058867907742345
 30
0.0
 10
6.709205920596424
 20
-1.006647827930907
 30
0.0
 10
6.711862586024068
 20
-0.9523314730554846
 30
0.0
 10
6.721015628630076
 20
-0.8974339726177746
 30
0.0
 10
6.723381721276546
 20
-0.8831751511430448
 30
0.0
 10
6.726744063458373
 20
-0.8657407842743631
 30
0.0
 10
6.730563020010592
 20
-0.8459195695605524
 30
0.0
 10
6.758644803788353
 20
-0.700425627001658
 30
0.0
 10
6.805634573539173
 20
-0.4569048812037087
 30
0.0
 10
6.703809568946623
 20
-0.3335774908064341
 30
0.0
 10
6.664436957101485
 20
-0.285861289102739
 30
0.0
 10
6.608522451929756
 20
-0.2616607274731139
 30
0.0
 10
6.537622693330454
 20
-0.2616607274731139
 30
0.0
 10
6.537622693330454
 20
-0.2616607274731139
 30
0.0
 10
6.527224338805232
 20
-0.2616607274731139
 30
0.0
 10
6.527224338805232
 20
-0.2616607274731139
 30
0.0
 10
6.455867965835539
 20
-0.2616607274731139
 30
0.0
 10
6.399289294306947
 20
-0.2861518618838826
 30
0.0
 10
6.359044964118346
 20
-0.334449209149865
 30
0.0
 10
6.253650065357433
 20
-0.4609106345437716
 30
0.0
 10
6.300743611101521
 20
-0.7177147074797519
 30
0.0
 10
6.326023443061112
 20
-0.8556952681261999
 30
0.0
 10
6.328908415673921
 20
-0.8714484639039998
 30
0.0
 10
6.331502815505618
 20
-0.8854997333921938
 30
0.0
 10
6.333453804179015
 20
-0.8973301966245067
 30
0.0
 10
6.342565336387768
 20
-0.9523522282541446
 30
0.0
 10
6.34520124661672
 20
-1.006668583129535
 30
0.0
 10
6.341299269269925
 20
-1.058764131749077
 30
0.0
 10
6.334242501727839
 20
-1.153428592806304
 30
0.0
 10
6.298647336037599
 20
-1.238504152085727
 30
0.0
 10
6.260955895283375
 20
-1.328560959041944
 30
0.0
 10
6.2262324479366
 20
-1.411540243257414
 30
0.0
 10
6.190325954266558
 20
-1.497362989688405
 30
0.0
 10
6.177167158320422
 20
-1.593127476274291
 30
0.0
 10
6.152862820697561
 20
-1.770335362375289
 30
0.0
 10
6.171085885115066
 20
-1.948497987614326
 30
0.0
 10
6.189661787909631
 20
-2.083925658826397
 30
0.0
 10
6.196298262678908
 20
-2.132280082888654
 30
0.0
 10
6.203873910187335
 20
-2.180310206972021
 30
0.0
 10
6.212300520840532
 20
-2.227966737479573
 30
0.0
 10
6.212300520840532
 20
-2.227966737479573
 30
0.0
 10
5.57088705046192
 20
-2.227966737479573
 30
0.0
 10
5.57088705046192
 20
-2.227966737479573
 30
0.0
 10
5.57088705046192
 20
-2.227966737479573
 30
0.0
 10
5.57088705046192
 20
-1.112644627452768
 30
0.0
 10
5.57088705046192
 20
-1.112644627452768
 30
0.0
 10
5.57088705046192
 20
-1.112644627452768
 30
0.0
 10
5.082330429364387
 20
-1.112644627452768
 30
0.0
 10
5.082330429364387
 20
-1.112644627452768
 30
0.0
 10
5.082330429364387
 20
-1.112644627452768
 30
0.0
 10
5.017283636785279
 20
-1.112644627452768
 30
0.0
 10
5.017283636785279
 20
-1.112644627452768
 30
0.0
 10
5.017283636785279
 20
-1.112644627452768
 30
0.0
 10
4.550416198280314
 20
-1.112644627452768
 30
0.0
 10
4.550416198280314
 20
-1.112644627452768
 30
0.0
 10
4.550416198280314
 20
-1.112644627452768
 30
0.0
 10
4.424909512024414
 20
-1.77577322442241
 30
0.0
 10
4.424909512024414
 20
-1.77577322442241
 30
0.0
 10
4.424909512024414
 20
-1.77577322442241
 30
0.0
 10
4.241101472751721
 20
-1.112644627452768
 30
0.0
 10
4.241101472751721
 20
-1.112644627452768
 30
0.0
 10
4.241101472751721
 20
-1.112644627452768
 30
0.0
 10
3.734923687997599
 20
-1.112644627452768
 30
0.0
 10
3.734923687997599
 20
-1.112644627452768
 30
0.0
 10
3.734923687997599
 20
-1.112644627452768
 30
0.0
 10
3.551676039088565
 20
-1.776105307600842
 30
0.0
 10
3.551676039088565
 20
-1.776105307600842
 30
0.0
 10
3.551676039088565
 20
-1.776105307600842
 30
0.0
 10
3.426501436011129
 20
-1.112644627452768
 30
0.0
 10
3.426501436011129
 20
-1.112644627452768
 30
0.0
 10
3.426501436011129
 20
-1.112644627452768
 30
0.0
 10
2.892096581088659
 20
-1.112644627452768
 30
0.0
 10
2.892096581088659
 20
-1.112644627452768
 30
0.0
 10
2.892096581088659
 20
-1.112644627452768
 30
0.0
 10
2.991731912223333
 20
-1.560444524395096
 30
0.0
 10
2.991731912223333
 20
-1.560444524395096
 30
0.0
 10
2.911414482235021
 20
-1.387970120786938
 30
0.0
 10
2.770222054597102
 20
-1.243092348188076
 30
0.0
 10
2.582195521198008
 20
-1.161984923451166
 30
0.0
 10
2.175310606800784
 20
-0.986473774840005
 30
0.0
 10
1.70151093194566
 20
-1.174702671425833
 30
0.0
 10
1.526007566534009
 20
-1.581566830624494
 30
0.0
 10
1.467851499907771
 20
-1.716388709475847
 30
0.0
 10
1.449854148275658
 20
-1.858520309852946
 30
0.0
 10
1.466293562808979
 20
-1.994750947812924
 30
0.0
 10
1.457890301754214
 20
-1.980902041511625
 30
0.0
 10
1.448904597937388
 20
-1.967425431586079
 30
0.0
 10
1.438693040200009
 20
-1.954745302408898
 30
0.0
 10
1.402558239344803
 20
-1.909893318119383
 30
0.0
 10
1.353866543304409
 20
-1.873364168489734
 30
0.0
 10
1.293199097641115
 20
-1.845510691897137
 30
0.0
 10
1.320077079897013
 20
-1.827827262644599
 30
0.0
 10
1.343177615998011
 20
-1.807943782334873
 30
0.0
 10
1.362293153957607
 20
-1.785984782159789
 30
0.0
 10
1.424413463526619
 20
-1.714649164388724
 30
0.0
 10
1.455899099883527
 20
-1.628266027594138
 30
0.0
 10
1.455899099883527
 20
-1.529242974819724
 30
0.0
 10
1.455899099883527
 20
-1.411436467264147
 30
0.0
 10
1.412167896321235
 20
-1.31123036816653
 30
0.0
 10
1.325888535519885
 20
-1.231426629345012
 30
0.0
 10
1.240667689849874
 20
-1.152619140058821
 30
0.0
 10
1.119125246536781
 20
-1.112644627452768
 30
0.0
 10
0.9646235477623699
 20
-1.112644627452768
 30
0.0
 10
0.9646235477623699
 20
-1.112644627452768
 30
0.0
 10
0.0605063392305597
 20
-1.112644627452768
 30
0.0
 10
0.0605063392305597
 20
-1.112644627452768
 30
0.0
 10
0.0605063392305597
 20
-1.112644627452768
 30
0.0
 10
0.0605063392305597
 20
-2.688711392381829
 30
0.0
 10
0.0605063392305597
 20
-2.688711392381829
 30
0.0
 10
0.0605063392305597
 20
-2.688711392381829
 30
0.0
 10
0.897999360085615
 20
-2.688711392381829
 30
0.0
 10
0.897999360085615
 20
-2.688711392381829
 30
0.0
 10
0.9340718953448729
 20
-2.688711392381829
 30
0.0
 10
1.003145196462705
 20
-2.681986708018238
 30
0.0
 10
1.109141995984598
 20
-2.668142990516547
 30
0.0
 10
1.193719430496342
 20
-2.657080469634397
 30
0.0
 10
1.256358620031694
 20
-2.639251753991272
 30
0.0
 10
1.300546437964345
 20
-2.613639838853249
 30
0.0
 10
1.369578228684889
 20
-2.573893633432359
 30
0.0
 10
1.424745546705083
 20
-2.51909990898795
 30
0.0
 10
1.4645125073246
 20
-2.450794550220281
 30
0.0
 10
1.504341733540065
 20
-2.382385415459344
 30
0.0
 10
1.524536541829628
 20
-2.304615686105799
 30
0.0
 10
1.524536541829628
 20
-2.219623147621016
 30
0.0
 10
1.524536541829628
 20
-2.217241488575528
 30
0.0
 10
1.524321206643518
 20
-2.214980469122261
 30
0.0
 10
1.524291371045543
 20
-2.212615673675726
 30
0.0
 10
1.602119474395264
 20
-2.396779145725348
 30
0.0
 10
1.747963660931285
 20
-2.552505401220281
 30
0.0
 10
1.94560763450632
 20
-2.637761271288005
 30
0.0
 10
2.352471793704917
 20
-2.813264636699592
 30
0.0
 10
2.82627146856004
 20
-2.625035740113765
 30
0.0
 10
3.001782617171009
 20
-2.218152122916442
 30
0.0
 10
3.04646855987134
 20
-2.114562926438338
 30
0.0
 10
3.067452065709726
 20
-2.006644973841152
 30
0.0
 10
3.067374233714887
 20
-1.900405597935011
 30
0.0
 10
3.067374233714887
 20
-1.900405597935011
 30
0.0
 10
3.242776417533043
 20
-2.688711392381829
 30
0.0
 10
3.242776417533043
 20
-2.688711392381829
 30
0.0
 10
3.242776417533043
 20
-2.688711392381829
 30
0.0
 10
3.766367813957187
 20
-2.688711392381829
 30
0.0
 10
3.766367813957187
 20
-2.688711392381829
 30
0.0
 10
3.766367813957187
 20
-2.688711392381829
 30
0.0
 10
3.988365418751783
 20
-1.888806036287698
 30
0.0
 10
3.988365418751783
 20
-1.888806036287698
 30
0.0
 10
3.988365418751783
 20
-1.888806036287698
 30
0.0
 10
4.211234741889779
 20
-2.688711392381829
 30
0.0
 10
4.211234741889779
 20
-2.688711392381829
 30
0.0
 10
4.211234741889779
 20
-2.688711392381829
 30
0.0
 10
4.734909159108563
 20
-2.688711392381829
 30
0.0
 10
4.734909159108563
 20
-2.688711392381829
 30
0.0
 10
4.734909159108563
 20
-2.688711392381829
 30
0.0
 10
5.017283636785279
 20
-1.407727772704803
 30
0.0
 10
5.017283636785279
 20
-1.407727772704803
 30
0.0
 10
5.017283636785279
 20
-1.407727772704803
 30
0.0
 10
5.017283636785279
 20
-2.688711392381829
 30
0.0
 10
5.017283636785279
 20
-2.688711392381829
 30
0.0
 10
5.017283636785279
 20
-2.688711392381829
 30
0.0
 10
6.284492290556106
 20
-2.688711392381829
 30
0.0
 10
6.284492290556106
 20
-2.688711392381829
 30
0.0
 10
6.284492290556106
 20
-2.688711392381829
 30
0.0
 10
6.284492290556106
 20
-2.550065368178584
 30
0.0
 10
6.284492290556106
 20
-2.550065368178584
 30
0.0
 10
6.291626890093031
 20
-2.576153355685756
 30
0.0
 10
6.298948286418057
 20
-2.602109028801491
 30
0.0
 10
6.306638087519033
 20
-2.627794884334743
 30
0.0
 10
6.312698605525826
 20
-2.647782140637737
 30
0.0
 10
6.329219743653725
 20
-2.662082472509819
 30
0.0
 10
6.349206999956783
 20
-2.665486325088902
 30
0.0
 10
6.349206999956783
 20
-2.665486325088902
 30
0.0
 10
6.349684369525803
 20
-2.66563161147949
 30
0.0
 10
6.349684369525803
 20
-2.66563161147949
 30
0.0
 10
6.407446087377661
 20
-2.681364052058631
 30
0.0
 10
6.467096528306905
 20
-2.689334048341436
 30
0.0
 10
6.526975276421376
 20
-2.689334048341436
 30
0.0
 10
6.586978555727743
 20
-2.689334048341436
 30
0.0
 10
6.646712017451692
 20
-2.68132254166131
 30
0.0
 10
6.704577511296754
 20
-2.665548590684915
 30
0.0
 10
6.724481746805172
 20
-2.662061717311127
 30
0.0
 10
6.740919864138495
 20
-2.647782140637737
 30
0.0
 10
6.747001137343916
 20
-2.627732618738731
 30
0.0
 10
6.798479218803362
 20
-2.456140311073414
 30
0.0
 10
6.837628712263074
 20
-2.274953912830588
 30
0.0
 10
6.863437801788351
 20
-2.089171535286001
 30
0.0
 10
6.863437801788351
 20
-2.089171535286001
 30
0.0
 10
6.863437801788351
 20
-2.688711392381829
 30
0.0
 10
6.863437801788351
 20
-2.688711392381829
 30
0.0
 10
6.863437801788351
 20
-2.688711392381829
 30
0.0
 10
7.389810394832003
 20
-2.688711392381829
 30
0.0
 10
7.389810394832003
 20
-2.688711392381829
 30
0.0
 10
7.389810394832003
 20
-2.688711392381829
 30
0.0
 10
7.389810394832003
 20
-1.98421768449646
 30
0.0
 10
7.389810394832003
 20
-1.98421768449646
 30
0.0
 10
7.389810394832003
 20
-1.98421768449646
 30
0.0
 10
7.870272488454834
 20
-2.688711392381829
 30
0.0
 10
7.870272488454834
 20
-2.688711392381829
 30
0.0
 10
7.870272488454834
 20
-2.688711392381829
 30
0.0
 10
8.37491438850863
 20
-2.688711392381829
 30
0.0
 10
8.37491438850863
 20
-2.688711392381829
 30
0.0
 10
8.37491438850863
 20
-2.688711392381829
 30
0.0
 10
8.37491438850863
 20
-2.102338114431614
 30
0.0
 10
8.37491438850863
 20
-2.102338114431614
 30
0.0
 10
8.390838814675158
 20
-2.184095436326398
 30
0.0
 10
8.416494834610306
 20
-2.260523860966938
 30
0.0
 10
8.452476565875575
 20
-2.33049741882637
 30
0.0
 10
8.517606379249324
 20
-2.457166396206813
 30
0.0
 10
8.610900997195408
 20
-2.553989397923941
 30
0.0
 10
8.729786775080953
 20
-2.618309758550239
 30
0.0
 10
8.847095157868788
 20
-2.681779156031702
 30
0.0
 10
8.999293029592677
 20
-2.713949713944165
 30
0.0
 10
9.182187840124652
 20
-2.713949713944165
 30
0.0
 10
9.329196912185212
 20
-2.713949713944165
 30
0.0
 10
9.458605575787875
 20
-2.696370060684895
 30
0.0
 10
9.566823181565649
 20
-2.661688123735376
 30
0.0
 10
9.674750214562247
 20
-2.627109962779188
 30
0.0
 10
9.7996550000572
 20
-2.561731087021583
 30
0.0
 10
9.938071419875348
 20
-2.467377953944192
 30
0.0
 10
9.938071419875348
 20
-2.467377953944192
 30
0.0
 10
9.959117191309712
 20
-2.453015356476162
 30
0.0
 10
9.959117191309712
 20
-2.453015356476162
 30
0.0
 10
9.959117191309712
 20
-2.453015356476162
 30
0.0
 10
9.959117191309712
 20
-1.748521648590793
 30
0.0
 10
9.959117191309712
 20
-1.748521648590793
 30
0.0
 10
9.959117191309712
 20
-1.748521648590793
 30
0.0
 10
9.156202331410814
 20
-1.748521648590793
 30
0.0
 10
9.156202331410814
 20
-1.748521648590793
 30
0.0
  0
SPLINE
  5
48
330
41
100
AcDbEntity
  8
Layer 1
370
     0
100
AcDbSpline
210
0.0
220
0.0
230
1.0
 70
    11
 71
     3
 72
    26
 73
    22
 74
     0
 42
0.0000000001
 43
0.0000000001
 12
1.0
 22
0.0
 32
0.0
 13
1.0
 23
0.0
 33
0.0
 40
0.0
 40
0.0
 40
0.0
 40
0.0
 40
1.0
 40
1.0
 40
1.0
 40
2.0
 40
2.0
 40
2.0
 40
3.0
 40
3.0
 40
3.0
 40
4.0
 40
4.0
 40
4.0
 40
5.0
 40
5.0
 40
5.0
 40
6.0
 40
6.0
 40
6.0
 40
7.0
 40
7.0
 40
7.0
 40
7.0
 10
0.618157016644584
 20
-1.508799104146306
 30
0.0
 10
0.618157016644584
 20
-1.508799104146306
 30
0.0
 10
0.7718285074728519
 20
-1.508799104146306
 30
0.0
 10
0.7718285074728519
 20
-1.508799104146306
 30
0.0
 10
0.8466302434189805
 20
-1.508799104146306
 30
0.0
 10
0.8755214799442237
 20
-1.524178706348323
 30
0.0
 10
0.8861066312573542
 20
-1.533373259351715
 30
0.0
 10
0.8969616001529683
 20
-1.542775364341611
 30
0.0
 10
0.9113864632169459
 20
-1.559690851243986
 30
0.0
 10
0.9113864632169459
 20
-1.597880416765857
 30
0.0
 10
0.9113864632169459
 20
-1.630071729876948
 30
0.0
 10
0.9030428733583565
 20
-1.653047734786083
 30
0.0
 10
0.8858368136748705
 20
-1.668178274604243
 30
0.0
 10
0.875293172759028
 20
-1.677455848402211
 30
0.0
 10
0.8460906082539812
 20
-1.693001492193444
 30
0.0
 10
0.7687982484694879
 20
-1.693001492193444
 30
0.0
 10
0.7687982484694879
 20
-1.693001492193444
 30
0.0
 10
0.618157016644584
 20
-1.693001492193444
 30
0.0
 10
0.618157016644584
 20
-1.693001492193444
 30
0.0
 10
0.618157016644584
 20
-1.693001492193444
 30
0.0
 10
0.618157016644584
 20
-1.508799104146306
 30
0.0
 10
0.618157016644584
 20
-1.508799104146306
 30
0.0
  0
SPLINE
  5
49
330
41
100
AcDbEntity
  8
Layer 1
370
     0
100
AcDbSpline
210
0.0
220
0.0
230
1.0
 70
    11
 71
     3
 72
    26
 73
    22
 74
     0
 42
0.0000000001
 43
0.0000000001
 12
1.0
 22
0.0
 32
0.0
 13
1.0
 23
0.0
 33
0.0
 40
0.0
 40
0.0
 40
0.0
 40
0.0
 40
1.0
 40
1.0
 40
1.0
 40
2.0
 40
2.0
 40
2.0
 40
3.0
 40
3.0
 40
3.0
 40
4.0
 40
4.0
 40
4.0
 40
5.0
 40
5.0
 40
5.0
 40
6.0
 40
6.0
 40
6.0
 40
7.0
 40
7.0
 40
7.0
 40
7.0
 10
0.9381399142809158
 20
-2.24423881322368
 30
0.0
 10
0.9222206769139001
 20
-2.25799950993073
 30
0.0
 10
0.8858990792708185
 20
-2.274396116866798
 30
0.0
 10
0.803127347041884
 20
-2.274396116866798
 30
0.0
 10
0.803127347041884
 20
-2.274396116866798
 30
0.0
 10
0.618157016644584
 20
-2.274396116866798
 30
0.0
 10
0.618157016644584
 20
-2.274396116866798
 30
0.0
 10
0.618157016644584
 20
-2.274396116866798
 30
0.0
 10
0.618157016644584
 20
-2.070995170065425
 30
0.0
 10
0.618157016644584
 20
-2.070995170065425
 30
0.0
 10
0.618157016644584
 20
-2.070995170065425
 30
0.0
 10
0.8021103423078654
 20
-2.070995170065425
 30
0.0
 10
0.8021103423078654
 20
-2.070995170065425
 30
0.0
 10
0.8914407173112073
 20
-2.070995170065425
 30
0.0
 10
0.9264547374391586
 20
-2.089010682496458
 30
0.0
 10
0.9393437158027782
 20
-2.099720365001485
 30
0.0
 10
0.9602026904492676
 20
-2.117071711075527
 30
0.0
 10
0.9699161234189352
 20
-2.138823159264075
 30
0.0
 10
0.9699161234189352
 20
-2.168150254961049
 30
0.0
 10
0.9699161234189352
 20
-2.201317062408871
 30
0.0
 10
0.9598290968734841
 20
-2.225496868839836
 30
0.0
 10
0.9381399142809158
 20
-2.24423881322368
 30
0.0
  0
HATCH
  5
4A
330
41
100
AcDbEntity
  8
Layer 1
 62
     7
420
 16513229
100
AcDbHatch
 10
0.0
 20
0.0
 30
0.0
210
0.0
220
0.0
230
1.0
  2
SOLID
 70
     1
 71
     0
 91
        3
 92
        1
 93
        1
 72
     4
 94
        3
 73
     0
 74
     1
 95
      314
 96
      310
 40
0.0
 40
0.0
 40
0.0
 40
0.0
 40
1.0
 40
1.0
 40
1.0
 40
2.0
 40
2.0
 40
2.0
 40
3.0
 40
3.0
 40
3.0
 40
4.0
 40
4.0
 40
4.0
 40
5.0
 40
5.0
 40
5.0
 40
6.0
 40
6.0
 40
6.0
 40
7.0
 40
7.0
 40
7.0
 40
8.0
 40
8.0
 40
8.0
 40
9.0
 40
9.0
 40
9.0
 40
10.0
 40
10.0
 40
10.0
 40
11.0
 40
11.0
 40
11.0
 40
12.0
 40
12.0
 40
12.0
 40
13.0
 40
13.0
 40
13.0
 40
14.0
 40
14.0
 40
14.0
 40
15.0
 40
15.0
 40
15.0
 40
16.0
 40
16.0
 40
16.0
 40
17.0
 40
17.0
 40
17.0
 40
18.0
 40
18.0
 40
18.0
 40
19.0
 40
19.0
 40
19.0
 40
20.0
 40
20.0
 40
20.0
 40
21.0
 40
21.0
 40
21.0
 40
22.0
 40
22.0
 40
22.0
 40
23.0
 40
23.0
 40
23.0
 40
24.0
 40
24.0
 40
24.0
 40
25.0
 40
25.0
 40
25.0
 40
26.0
 40
26.0
 40
26.0
 40
27.0
 40
27.0
 40
27.0
 40
28.0
 40
28.0
 40
28.0
 40
29.0
 40
29.0
 40
29.0
 40
30.0
 40
30.0
 40
30.0
 40
31.0
 40
31.0
 40
31.0
 40
32.0
 40
32.0
 40
32.0
 40
33.0
 40
33.0
 40
33.0
 40
34.0
 40
34.0
 40
34.0
 40
35.0
 40
35.0
 40
35.0
 40
36.0
 40
36.0
 40
36.0
 40
37.0
 40
37.0
 40
37.0
 40
38.0
 40
38.0
 40
38.0
 40
39.0
 40
39.0
 40
39.0
 40
40.0
 40
40.0
 40
40.0
 40
41.0
 40
41.0
 40
41.0
 40
42.0
 40
42.0
 40
42.0
 40
43.0
 40
43.0
 40
43.0
 40
44.0
 40
44.0
 40
44.0
 40
45.0
 40
45.0
 40
45.0
 40
46.0
 40
46.0
 40
46.0
 40
47.0
 40
47.0
 40
47.0
 40
48.0
 40
48.0
 40
48.0
 40
49.0
 40
49.0
 40
49.0
 40
50.0
 40
50.0
 40
50.0
 40
51.0
 40
51.0
 40
51.0
 40
52.0
 40
52.0
 40
52.0
 40
53.0
 40
53.0
 40
53.0
 40
54.0
 40
54.0
 40
54.0
 40
55.0
 40
55.0
 40
55.0
 40
56.0
 40
56.0
 40
56.0
 40
57.0
 40
57.0
 40
57.0
 40
58.0
 40
58.0
 40
58.0
 40
59.0
 40
59.0
 40
59.0
 40
60.0
 40
60.0
 40
60.0
 40
61.0
 40
61.0
 40
61.0
 40
62.0
 40
62.0
 40
62.0
 40
63.0
 40
63.0
 40
63.0
 40
64.0
 40
64.0
 40
64.0
 40
65.0
 40
65.0
 40
65.0
 40
66.0
 40
66.0
 40
66.0
 40
67.0
 40
67.0
 40
67.0
 40
68.0
 40
68.0
 40
68.0
 40
69.0
 40
69.0
 40
69.0
 40
70.0
 40
70.0
 40
70.0
 40
71.0
 40
71.0
 40
71.0
 40
72.0
 40
72.0
 40
72.0
 40
73.0
 40
73.0
 40
73.0
 40
74.0
 40
74.0
 40
74.0
 40
75.0
 40
75.0
 40
75.0
 40
76.0
 40
76.0
 40
76.0
 40
77.0
 40
77.0
 40
77.0
 40
78.0
 40
78.0
 40
78.0
 40
79.0
 40
79.0
 40
79.0
 40
80.0
 40
80.0
 40
80.0
 40
81.0
 40
81.0
 40
81.0
 40
82.0
 40
82.0
 40
82.0
 40
83.0
 40
83.0
 40
83.0
 40
84.0
 40
84.0
 40
84.0
 40
85.0
 40
85.0
 40
85.0
 40
86.0
 40
86.0
 40
86.0
 40
87.0
 40
87.0
 40
87.0
 40
88.0
 40
88.0
 40
88.0
 40
89.0
 40
89.0
 40
89.0
 40
90.0
 40
90.0
 40
90.0
 40
91.0
 40
91.0
 40
91.0
 40
92.0
 40
92.0
 40
92.0
 40
93.0
 40
93.0
 40
93.0
 40
94.0
 40
94.0
 40
94.0
 40
95.0
 40
95.0
 40
95.0
 40
96.0
 40
96.0
 40
96.0
 40
97.0
 40
97.0
 40
97.0
 40
98.0
 40
98.0
 40
98.0
 40
99.0
 40
99.0
 40
99.0
 40
100.0
 40
100.0
 40
100.0
 40
101.0
 40
101.0
 40
101.0
 40
102.0
 40
102.0
 40
102.0
 40
103.0
 40
103.0
 40
103.0
 40
103.0
 10
9.156202331410814
 20
-1.748521648590793
 10
9.156202331410814
 20
-1.748521648590793
 10
9.156202331410814
 20
-2.152749897560405
 10
9.156202331410814
 20
-2.152749897560405
 10
9.156202331410814
 20
-2.152749897560405
 10
9.46203018356565
 20
-2.152749897560405
 10
9.46203018356565
 20
-2.152749897560405
 10
9.46203018356565
 20
-2.152749897560405
 10
9.46203018356565
 20
-2.216094763849972
 10
9.46203018356565
 20
-2.216094763849972
 10
9.41510267941078
 20
-2.242599152530086
 10
9.372824339754205
 20
-2.261922242476218
 10
9.336108393336712
 20
-2.273648929715231
 10
9.294618751229025
 20
-2.286869991257314
 10
9.250285646905786
 20
-2.293573920422341
 10
9.204395902683528
 20
-2.293573920422341
 10
9.110416363181887
 20
-2.293573920422341
 10
9.039890198158337
 20
-2.265263829459353
 10
8.988790899074187
 20
-2.207024742038476
 10
8.936778371249254
 20
-2.147747894684983
 10
8.910419268959727
 20
-2.042975651883613
 10
8.910419268959727
 20
-1.895634496644621
 10
8.910419268959727
 20
-1.757425628813009
 10
8.93659157446141
 20
-1.656742160146342
 10
8.988188998313207
 20
-1.596386042462851
 10
9.038582620643176
 20
-1.537462033486386
 10
9.105020011532087
 20
-1.508799104146306
 10
9.191257861936084
 20
-1.508799104146306
 10
9.248376168629708
 20
-1.508799104146306
 10
9.295096120798044
 20
-1.520920140159763
 10
9.33015165132325
 20
-1.544830129008277
 10
9.36481283307408
 20
-1.568491055472934
 10
9.388909618710468
 20
-1.602259763681671
 10
9.403832606542093
 20
-1.648107997506609
 10
9.403832606542093
 20
-1.648107997506609
 10
9.416804605700385
 20
-1.688020244516714
 10
9.416804605700385
 20
-1.688020244516714
 10
9.416804605700385
 20
-1.688020244516714
 10
9.951520788602593
 20
-1.592587841109324
 10
9.951520788602593
 20
-1.592587841109324
 10
9.951520788602593
 20
-1.592587841109324
 10
9.937116680737308
 20
-1.541426276429129
 10
9.937116680737308
 20
-1.541426276429129
 10
9.90845375139726
 20
-1.439539006240599
 10
9.864556506245721
 20
-1.353737015008268
 10
9.806670257201967
 20
-1.28638639537867
 10
9.74799531060939
 20
-1.218081036611002
 10
9.673338861053818
 20
-1.167064758321426
 10
9.584797183599298
 20
-1.134748914018408
 10
9.49756308365994
 20
-1.102889684085749
 10
9.372160173397342
 20
-1.087406305890496
 10
9.201365643680196
 20
-1.087406305890496
 10
9.025361559101093
 20
-1.087406305890496
 10
8.882212953990006
 20
-1.113101241823127
 10
8.77569727450184
 20
-1.163847702530187
 10
8.638650697794738
 20
-1.229869989446027
 10
8.533048247047288
 20
-1.328104344671585
 10
8.461816405269555
 20
-1.455811081984706
 10
8.420964985520301
 20
-1.529049692032274
 10
8.392182713788095
 20
-1.610460661549509
 10
8.37491438850863
 20
-1.698781815018406
 10
8.37491438850863
 20
-1.698781815018406
 10
8.37491438850863
 20
-1.112644627452768
 10
8.37491438850863
 20
-1.112644627452768
 10
8.37491438850863
 20
-1.112644627452768
 10
7.847545545929555
 20
-1.112644627452768
 10
7.847545545929555
 20
-1.112644627452768
 10
7.847545545929555
 20
-1.112644627452768
 10
7.847545545929555
 20
-1.822929035762446
 10
7.847545545929555
 20
-1.822929035762446
 10
7.847545545929555
 20
-1.822929035762446
 10
7.36407394850202
 20
-1.112644627452768
 10
7.36407394850202
 20
-1.112644627452768
 10
7.36407394850202
 20
-1.112644627452768
 10
6.863437801788351
 20
-1.112644627452768
 10
6.863437801788351
 20
-1.112644627452768
 10
6.863437801788351
 20
-1.112644627452768
 10
6.863437801788351
 20
-1.524224108345382
 10
6.863437801788351
 20
-1.524224108345382
 10
6.846208392506208
 20
-1.455414138810522
 10
6.81942121424446
 20
-1.39123647017504
 10
6.793285230340552
 20
-1.328685490233872
 10
6.755635299983648
 20
-1.238607928078995
 10
6.72008164469073
 20
-1.153511613600912
 10
6.713066387545899
 20
-1.058867907742345
 10
6.709205920596424
 20
-1.006647827930907
 10
6.711862586024068
 20
-0.9523314730554846
 10
6.721015628630076
 20
-0.8974339726177746
 10
6.723381721276546
 20
-0.8831751511430448
 10
6.726744063458373
 20
-0.8657407842743631
 10
6.730563020010592
 20
-0.8459195695605524
 10
6.758644803788353
 20
-0.700425627001658
 10
6.805634573539173
 20
-0.4569048812037087
 10
6.703809568946623
 20
-0.3335774908064341
 10
6.664436957101485
 20
-0.285861289102739
 10
6.608522451929756
 20
-0.2616607274731139
 10
6.537622693330454
 20
-0.2616607274731139
 10
6.537622693330454
 20
-0.2616607274731139
 10
6.527224338805232
 20
-0.2616607274731139
 10
6.527224338805232
 20
-0.2616607274731139
 10
6.455867965835539
 20
-0.2616607274731139
 10
6.399289294306947
 20
-0.2861518618838826
 10
6.359044964118346
 20
-0.334449209149865
 10
6.253650065357433
 20
-0.4609106345437716
 10
6.300743611101521
 20
-0.7177147074797519
 10
6.326023443061112
 20
-0.8556952681261999
 10
6.328908415673921
 20
-0.8714484639039998
 10
6.331502815505618
 20
-0.8854997333921938
 10
6.333453804179015
 20
-0.8973301966245067
 10
6.342565336387768
 20
-0.9523522282541446
 10
6.34520124661672
 20
-1.006668583129535
 10
6.341299269269925
 20
-1.058764131749077
 10
6.334242501727839
 20
-1.153428592806304
 10
6.298647336037599
 20
-1.238504152085727
 10
6.260955895283375
 20
-1.328560959041944
 10
6.2262324479366
 20
-1.411540243257414
 10
6.190325954266558
 20
-1.497362989688405
 10
6.177167158320422
 20
-1.593127476274291
 10
6.152862820697561
 20
-1.770335362375289
 10
6.171085885115066
 20
-1.948497987614326
 10
6.189661787909631
 20
-2.083925658826397
 10
6.196298262678908
 20
-2.132280082888654
 10
6.203873910187335
 20
-2.180310206972021
 10
6.212300520840532
 20
-2.227966737479573
 10
6.212300520840532
 20
-2.227966737479573
 10
5.57088705046192
 20
-2.227966737479573
 10
5.57088705046192
 20
-2.227966737479573
 10
5.57088705046192
 20
-2.227966737479573
 10
5.57088705046192
 20
-1.112644627452768
 10
5.57088705046192
 20
-1.112644627452768
 10
5.57088705046192
 20
-1.112644627452768
 10
5.082330429364387
 20
-1.112644627452768
 10
5.082330429364387
 20
-1.112644627452768
 10
5.082330429364387
 20
-1.112644627452768
 10
5.017283636785279
 20
-1.112644627452768
 10
5.017283636785279
 20
-1.112644627452768
 10
5.017283636785279
 20
-1.112644627452768
 10
4.550416198280314
 20
-1.112644627452768
 10
4.550416198280314
 20
-1.112644627452768
 10
4.550416198280314
 20
-1.112644627452768
 10
4.424909512024414
 20
-1.77577322442241
 10
4.424909512024414
 20
-1.77577322442241
 10
4.424909512024414
 20
-1.77577322442241
 10
4.241101472751721
 20
-1.112644627452768
 10
4.241101472751721
 20
-1.112644627452768
 10
4.241101472751721
 20
-1.112644627452768
 10
3.734923687997599
 20
-1.112644627452768
 10
3.734923687997599
 20
-1.112644627452768
 10
3.734923687997599
 20
-1.112644627452768
 10
3.551676039088565
 20
-1.776105307600842
 10
3.551676039088565
 20
-1.776105307600842
 10
3.551676039088565
 20
-1.776105307600842
 10
3.426501436011129
 20
-1.112644627452768
 10
3.426501436011129
 20
-1.112644627452768
 10
3.426501436011129
 20
-1.112644627452768
 10
2.892096581088659
 20
-1.112644627452768
 10
2.892096581088659
 20
-1.112644627452768
 10
2.892096581088659
 20
-1.112644627452768
 10
2.991731912223333
 20
-1.560444524395096
 10
2.991731912223333
 20
-1.560444524395096
 10
2.911414482235021
 20
-1.387970120786938
 10
2.770222054597102
 20
-1.243092348188076
 10
2.582195521198008
 20
-1.161984923451166
 10
2.175310606800784
 20
-0.986473774840005
 10
1.70151093194566
 20
-1.174702671425833
 10
1.526007566534009
 20
-1.581566830624494
 10
1.467851499907771
 20
-1.716388709475847
 10
1.449854148275658
 20
-1.858520309852946
 10
1.466293562808979
 20
-1.994750947812924
 10
1.457890301754214
 20
-1.980902041511625
 10
1.448904597937388
 20
-1.967425431586079
 10
1.438693040200009
 20
-1.954745302408898
 10
1.402558239344803
 20
-1.909893318119383
 10
1.353866543304409
 20
-1.873364168489734
 10
1.293199097641115
 20
-1.845510691897137
 10
1.320077079897013
 20
-1.827827262644599
 10
1.343177615998011
 20
-1.807943782334873
 10
1.362293153957607
 20
-1.785984782159789
 10
1.424413463526619
 20
-1.714649164388724
 10
1.455899099883527
 20
-1.628266027594138
 10
1.455899099883527
 20
-1.529242974819724
 10
1.455899099883527
 20
-1.411436467264147
 10
1.412167896321235
 20
-1.31123036816653
 10
1.325888535519885
 20
-1.231426629345012
 10
1.240667689849874
 20
-1.152619140058821
 10
1.119125246536781
 20
-1.112644627452768
 10
0.9646235477623699
 20
-1.112644627452768
 10
0.9646235477623699
 20
-1.112644627452768
 10
0.0605063392305597
 20
-1.112644627452768
 10
0.0605063392305597
 20
-1.112644627452768
 10
0.0605063392305597
 20
-1.112644627452768
 10
0.0605063392305597
 20
-2.688711392381829
 10
0.0605063392305597
 20
-2.688711392381829
 10
0.0605063392305597
 20
-2.688711392381829
 10
0.897999360085615
 20
-2.688711392381829
 10
0.897999360085615
 20
-2.688711392381829
 10
0.9340718953448729
 20
-2.688711392381829
 10
1.003145196462705
 20
-2.681986708018238
 10
1.109141995984598
 20
-2.668142990516547
 10
1.193719430496342
 20
-2.657080469634397
 10
1.256358620031694
 20
-2.639251753991272
 10
1.300546437964345
 20
-2.613639838853249
 10
1.369578228684889
 20
-2.573893633432359
 10
1.424745546705083
 20
-2.51909990898795
 10
1.4645125073246
 20
-2.450794550220281
 10
1.504341733540065
 20
-2.382385415459344
 10
1.524536541829628
 20
-2.304615686105799
 10
1.524536541829628
 20
-2.219623147621016
 10
1.524536541829628
 20
-2.217241488575528
 10
1.524321206643518
 20
-2.214980469122261
 10
1.524291371045543
 20
-2.212615673675726
 10
1.602119474395264
 20
-2.396779145725348
 10
1.747963660931285
 20
-2.552505401220281
 10
1.94560763450632
 20
-2.637761271288005
 10
2.352471793704917
 20
-2.813264636699592
 10
2.82627146856004
 20
-2.625035740113765
 10
3.001782617171009
 20
-2.218152122916442
 10
3.04646855987134
 20
-2.114562926438338
 10
3.067452065709726
 20
-2.006644973841152
 10
3.067374233714887
 20
-1.900405597935011
 10
3.067374233714887
 20
-1.900405597935011
 10
3.242776417533043
 20
-2.688711392381829
 10
3.242776417533043
 20
-2.688711392381829
 10
3.242776417533043
 20
-2.688711392381829
 10
3.766367813957187
 20
-2.688711392381829
 10
3.766367813957187
 20
-2.688711392381829
 10
3.766367813957187
 20
-2.688711392381829
 10
3.988365418751783
 20
-1.888806036287698
 10
3.988365418751783
 20
-1.888806036287698
 10
3.988365418751783
 20
-1.888806036287698
 10
4.211234741889779
 20
-2.688711392381829
 10
4.211234741889779
 20
-2.688711392381829
 10
4.211234741889779
 20
-2.688711392381829
 10
4.734909159108563
 20
-2.688711392381829
 10
4.734909159108563
 20
-2.688711392381829
 10
4.734909159108563
 20
-2.688711392381829
 10
5.017283636785279
 20
-1.407727772704803
 10
5.017283636785279
 20
-1.407727772704803
 10
5.017283636785279
 20
-1.407727772704803
 10
5.017283636785279
 20
-2.688711392381829
 10
5.017283636785279
 20
-2.688711392381829
 10
5.017283636785279
 20
-2.688711392381829
 10
6.284492290556106
 20
-2.688711392381829
 10
6.284492290556106
 20
-2.688711392381829
 10
6.284492290556106
 20
-2.688711392381829
 10
6.284492290556106
 20
-2.550065368178584
 10
6.284492290556106
 20
-2.550065368178584
 10
6.291626890093031
 20
-2.576153355685756
 10
6.298948286418057
 20
-2.602109028801491
 10
6.306638087519033
 20
-2.627794884334743
 10
6.312698605525826
 20
-2.647782140637737
 10
6.329219743653725
 20
-2.662082472509819
 10
6.349206999956783
 20
-2.665486325088902
 10
6.349206999956783
 20
-2.665486325088902
 10
6.349684369525803
 20
-2.66563161147949
 10
6.349684369525803
 20
-2.66563161147949
 10
6.407446087377661
 20
-2.681364052058631
 10
6.467096528306905
 20
-2.689334048341436
 10
6.526975276421376
 20
-2.689334048341436
 10
6.586978555727743
 20
-2.689334048341436
 10
6.646712017451692
 20
-2.68132254166131
 10
6.704577511296754
 20
-2.665548590684915
 10
6.724481746805172
 20
-2.662061717311127
 10
6.740919864138495
 20
-2.647782140637737
 10
6.747001137343916
 20
-2.627732618738731
 10
6.798479218803362
 20
-2.456140311073414
 10
6.837628712263074
 20
-2.274953912830588
 10
6.863437801788351
 20
-2.089171535286001
 10
6.863437801788351
 20
-2.089171535286001
 10
6.863437801788351
 20
-2.688711392381829
 10
6.863437801788351
 20
-2.688711392381829
 10
6.863437801788351
 20
-2.688711392381829
 10
7.389810394832003
 20
-2.688711392381829
 10
7.389810394832003
 20
-2.688711392381829
 10
7.389810394832003
 20
-2.688711392381829
 10
7.389810394832003
 20
-1.98421768449646
 10
7.389810394832003
 20
-1.98421768449646
 10
7.389810394832003
 20
-1.98421768449646
 10
7.870272488454834
 20
-2.688711392381829
 10
7.870272488454834
 20
-2.688711392381829
 10
7.870272488454834
 20
-2.688711392381829
 10
8.37491438850863
 20
-2.688711392381829
 10
8.37491438850863
 20
-2.688711392381829
 10
8.37491438850863
 20
-2.688711392381829
 10
8.37491438850863
 20
-2.102338114431614
 10
8.37491438850863
 20
-2.102338114431614
 10
8.390838814675158
 20
-2.184095436326398
 10
8.416494834610306
 20
-2.260523860966938
 10
8.452476565875575
 20
-2.33049741882637
 10
8.517606379249324
 20
-2.457166396206813
 10
8.610900997195408
 20
-2.553989397923941
 10
8.729786775080953
 20
-2.618309758550239
 10
8.847095157868788
 20
-2.681779156031702
 10
8.999293029592677
 20
-2.713949713944165
 10
9.182187840124652
 20
-2.713949713944165
 10
9.329196912185212
 20
-2.713949713944165
 10
9.458605575787875
 20
-2.696370060684895
 10
9.566823181565649
 20
-2.661688123735376
 10
9.674750214562247
 20
-2.627109962779188
 10
9.7996550000572
 20
-2.561731087021583
 10
9.938071419875348
 20
-2.467377953944192
 10
9.938071419875348
 20
-2.467377953944192
 10
9.959117191309712
 20
-2.453015356476162
 10
9.959117191309712
 20
-2.453015356476162
 10
9.959117191309712
 20
-2.453015356476162
 10
9.959117191309712
 20
-1.748521648590793
 10
9.959117191309712
 20
-1.748521648590793
 10
9.959117191309712
 20
-1.748521648590793
 10
9.156202331410814
 20
-1.748521648590793
 10
9.156202331410814
 20
-1.748521648590793
 97
        0
 97
        0
 92
        1
 93
        1
 72
     4
 94
        3
 73
     0
 74
     1
 95
       26
 96
       22
 40
0.0
 40
0.0
 40
0.0
 40
0.0
 40
1.0
 40
1.0
 40
1.0
 40
2.0
 40
2.0
 40
2.0
 40
3.0
 40
3.0
 40
3.0
 40
4.0
 40
4.0
 40
4.0
 40
5.0
 40
5.0
 40
5.0
 40
6.0
 40
6.0
 40
6.0
 40
7.0
 40
7.0
 40
7.0
 40
7.0
 10
0.618157016644584
 20
-1.508799104146306
 10
0.618157016644584
 20
-1.508799104146306
 10
0.7718285074728519
 20
-1.508799104146306
 10
0.7718285074728519
 20
-1.508799104146306
 10
0.8466302434189805
 20
-1.508799104146306
 10
0.8755214799442237
 20
-1.524178706348323
 10
0.8861066312573542
 20
-1.533373259351715
 10
0.8969616001529683
 20
-1.542775364341611
 10
0.9113864632169459
 20
-1.559690851243986
 10
0.9113864632169459
 20
-1.597880416765857
 10
0.9113864632169459
 20
-1.630071729876948
 10
0.9030428733583565
 20
-1.653047734786083
 10
0.8858368136748705
 20
-1.668178274604243
 10
0.875293172759028
 20
-1.677455848402211
 10
0.8460906082539812
 20
-1.693001492193444
 10
0.7687982484694879
 20
-1.693001492193444
 10
0.7687982484694879
 20
-1.693001492193444
 10
0.618157016644584
 20
-1.693001492193444
 10
0.618157016644584
 20
-1.693001492193444
 10
0.618157016644584
 20
-1.693001492193444
 10
0.618157016644584
 20
-1.508799104146306
 10
0.618157016644584
 20
-1.508799104146306
 97
        0
 97
        0
 92
        1
 93
        1
 72
     4
 94
        3
 73
     0
 74
     1
 95
       26
 96
       22
 40
0.0
 40
0.0
 40
0.0
 40
0.0
 40
1.0
 40
1.0
 40
1.0
 40
2.0
 40
2.0
 40
2.0
 40
3.0
 40
3.0
 40
3.0
 40
4.0
 40
4.0
 40
4.0
 40
5.0
 40
5.0
 40
5.0
 40
6.0
 40
6.0
 40
6.0
 40
7.0
 40
7.0
 40
7.0
 40
7.0
 10
0.9381399142809158
 20
-2.24423881322368
 10
0.9222206769139001
 20
-2.25799950993073
 10
0.8858990792708185
 20
-2.274396116866798
 10
0.803127347041884
 20
-2.274396116866798
 10
0.803127347041884
 20
-2.274396116866798
 10
0.618157016644584
 20
-2.274396116866798
 10
0.618157016644584
 20
-2.274396116866798
 10
0.618157016644584
 20
-2.274396116866798
 10
0.618157016644584
 20
-2.070995170065425
 10
0.618157016644584
 20
-2.070995170065425
 10
0.618157016644584
 20
-2.070995170065425
 10
0.8021103423078654
 20
-2.070995170065425
 10
0.8021103423078654
 20
-2.070995170065425
 10
0.8914407173112073
 20
-2.070995170065425
 10
0.9264547374391586
 20
-2.089010682496458
 10
0.9393437158027782
 20
-2.099720365001485
 10
0.9602026904492676
 20
-2.117071711075527
 10
0.9699161234189352
 20
-2.138823159264075
 10
0.9699161234189352
 20
-2.168150254961049
 10
0.9699161234189352
 20
-2.201317062408871
 10
0.9598290968734841
 20
-2.225496868839836
 10
0.9381399142809158
 20
-2.24423881322368
 97
        0
 97
        0
 75
     2
 76
     1
 98
        0
  0
SPLINE
  5
4B
330
41
100
AcDbEntity
  8
Layer 1
370
     0
100
AcDbSpline
210
0.0
220
0.0
230
1.0
 70
    11
 71
     3
 72
    17
 73
    13
 74
     0
 42
0.0000000001
 43
0.0000000001
 12
1.0
 22
0.0
 32
0.0
 13
1.0
 23
0.0
 33
0.0
 40
0.0
 40
0.0
 40
0.0
 40
0.0
 40
1.0
 40
1.0
 40
1.0
 40
2.0
 40
2.0
 40
2.0
 40
3.0
 40
3.0
 40
3.0
 40
4.0
 40
4.0
 40
4.0
 40
4.0
 10
2.848051631993783
 20
-2.353890893543782
 30
0.0
 10
3.098397613418826
 20
-2.031796604119411
 30
0.0
 10
3.040024314349313
 20
-1.56606817007442
 30
0.0
 10
2.717930024924974
 20
-1.315722188649249
 30
0.0
 10
2.395819348103524
 20
-1.065363470211394
 30
0.0
 10
1.930090914058565
 20
-1.123736769281132
 30
0.0
 10
1.679744932633298
 20
-1.445831058705438
 30
0.0
 10
1.429386214195443
 20
-1.767941735526889
 30
0.0
 10
1.48775951326518
 20
-2.233670169571944
 30
0.0
 10
1.809870190086631
 20
-2.484028888009639
 30
0.0
 10
2.13196447951097
 20
-2.734374869434842
 30
0.0
 10
2.597692913555929
 20
-2.676001570365201
 30
0.0
 10
2.848051631993783
 20
-2.353890893543782
 30
0.0
  0
SPLINE
  5
4C
330
41
100
AcDbEntity
  8
Layer 1
370
     0
100
AcDbSpline
210
0.0
220
0.0
230
1.0
 70
    11
 71
     3
 72
    17
 73
    13
 74
     0
 42
0.0000000001
 43
0.0000000001
 12
1.0
 22
0.0
 32
0.0
 13
1.0
 23
0.0
 33
0.0
 40
0.0
 40
0.0
 40
0.0
 40
0.0
 40
1.0
 40
1.0
 40
1.0
 40
2.0
 40
2.0
 40
2.0
 40
3.0
 40
3.0
 40
3.0
 40
4.0
 40
4.0
 40
4.0
 40
4.0
 10
2.809990660058067
 20
-1.562831371573083
 30
0.0
 10
2.849120691625929
 20
-1.593244969322801
 30
0.0
 10
2.856186923486081
 20
-1.649622545221948
 30
0.0
 10
2.825773325736201
 20
-1.688752576789841
 30
0.0
 10
2.795358931923274
 20
-1.727883632569979
 30
0.0
 10
2.738981356024064
 20
-1.734949864430002
 30
0.0
 10
2.699851324456202
 20
-1.704536266680283
 30
0.0
 10
2.660720268676033
 20
-1.674121872867164
 30
0.0
 10
2.653654036815881
 20
-1.617744296968082
 30
0.0
 10
2.684068430628968
 20
-1.578613241187944
 30
0.0
 10
2.71448202837888
 20
-1.539483209619986
 30
0.0
 10
2.770859604277898
 20
-1.532416977760059
 30
0.0
 10
2.809990660058067
 20
-1.562831371573083
 30
0.0
  0
SPLINE
  5
4D
330
41
100
AcDbEntity
  8
Layer 1
370
     0
100
AcDbSpline
210
0.0
220
0.0
230
1.0
 70
    11
 71
     3
 72
    17
 73
    13
 74
     0
 42
0.0000000001
 43
0.0000000001
 12
1.0
 22
0.0
 32
0.0
 13
1.0
 23
0.0
 33
0.0
 40
0.0
 40
0.0
 40
0.0
 40
0.0
 40
1.0
 40
1.0
 40
1.0
 40
2.0
 40
2.0
 40
2.0
 40
3.0
 40
3.0
 40
3.0
 40
4.0
 40
4.0
 40
4.0
 40
4.0
 10
2.456198907769831
 20
-1.520841748529631
 30
0.0
 10
2.486613301582951
 20
-1.481710692749462
 30
0.0
 10
2.542990877482161
 20
-1.474644460889502
 30
0.0
 10
2.582121933262138
 20
-1.505058854702397
 30
0.0
 10
2.621251964829968
 20
-1.535472452452084
 30
0.0
 10
2.628318196690119
 20
-1.591850028351327
 30
0.0
 10
2.597903802877032
 20
-1.630981084131464
 30
0.0
 10
2.567489409063912
 20
-1.670112139911665
 30
0.0
 10
2.511112629228103
 20
-1.677177347559445
 30
0.0
 10
2.471982597660273
 20
-1.646763749809662
 30
0.0
 10
2.432851541880072
 20
-1.616349355996607
 30
0.0
 10
2.425784513956679
 20
-1.559972804309768
 30
0.0
 10
2.456198907769831
 20
-1.520841748529631
 30
0.0
  0
SPLINE
  5
4E
330
41
100
AcDbEntity
  8
Layer 1
370
     0
100
AcDbSpline
210
0.0
220
0.0
230
1.0
 70
    11
 71
     3
 72
    17
 73
    13
 74
     0
 42
0.0000000001
 43
0.0000000001
 12
1.0
 22
0.0
 32
0.0
 13
1.0
 23
0.0
 33
0.0
 40
0.0
 40
0.0
 40
0.0
 40
0.0
 40
1.0
 40
1.0
 40
1.0
 40
2.0
 40
2.0
 40
2.0
 40
3.0
 40
3.0
 40
3.0
 40
4.0
 40
4.0
 40
4.0
 40
4.0
 10
2.546797149237999
 20
-1.784472699737937
 30
0.0
 10
2.577211543050926
 20
-1.745341643957736
 30
0.0
 10
2.633589118950104
 20
-1.738275412097648
 30
0.0
 10
2.672719150517934
 20
-1.768689009847431
 30
0.0
 10
2.711850206298103
 20
-1.799103403660551
 30
0.0
 10
2.718916438158287
 20
-1.855480979559633
 30
0.0
 10
2.688502044345167
 20
-1.894612035339834
 30
0.0
 10
2.658088446595256
 20
-1.9337420669076
 30
0.0
 10
2.601710870696238
 20
-1.940808298767623
 30
0.0
 10
2.562579814916101
 20
-1.910393904954632
 30
0.0
 10
2.523449783348239
 20
-1.879980307204849
 30
0.0
 10
2.516383551488055
 20
-1.823602731305703
 30
0.0
 10
2.546797149237999
 20
-1.784472699737937
 30
0.0
  0
SPLINE
  5
4F
330
41
100
AcDbEntity
  8
Layer 1
370
     0
100
AcDbSpline
210
0.0
220
0.0
230
1.0
 70
    11
 71
     3
 72
    23
 73
    19
 74
     0
 42
0.0000000001
 43
0.0000000001
 12
1.0
 22
0.0
 32
0.0
 13
1.0
 23
0.0
 33
0.0
 40
0.0
 40
0.0
 40
0.0
 40
0.0
 40
1.0
 40
1.0
 40
1.0
 40
2.0
 40
2.0
 40
2.0
 40
3.0
 40
3.0
 40
3.0
 40
4.0
 40
4.0
 40
4.0
 40
5.0
 40
5.0
 40
5.0
 40
6.0
 40
6.0
 40
6.0
 40
6.0
 10
1.624972217643562
 20
-1.995001512495086
 30
0.0
 10
1.623992052482067
 20
-1.988781811217601
 30
0.0
 10
1.632505226314363
 20
-1.985920460610948
 30
0.0
 10
1.635632586520065
 20
-1.99138570884031
 30
0.0
 10
1.635632586520065
 20
-1.99138570884031
 30
0.0
 10
1.699973776403926
 20
-2.103859422698649
 30
0.0
 10
1.699973776403926
 20
-2.103859422698649
 30
0.0
 10
1.804922501151222
 20
-2.28731436785713
 30
0.0
 10
1.966733956626208
 20
-2.431625369387389
 30
0.0
 10
2.160956644318339
 20
-2.514981481842006
 30
0.0
 10
2.160956644318339
 20
-2.514981481842006
 30
0.0
 10
2.263253373323514
 20
-2.558885071199868
 30
0.0
 10
2.263253373323514
 20
-2.558885071199868
 30
0.0
 10
2.257247415613819
 20
-2.566608088367434
 30
0.0
 10
2.165989849102657
 20
-2.550374039504664
 30
0.0
 10
2.118506480461333
 20
-2.538184367684597
 30
0.0
 10
1.859616874329868
 20
-2.471726685367648
 30
0.0
 10
1.666207753534303
 20
-2.256555013796048
 30
0.0
 10
1.624972217643562
 20
-1.995001512495086
 30
0.0
  0
HATCH
  5
50
330
41
100
AcDbEntity
  8
Layer 1
 62
   159
420
  1783396
100
AcDbHatch
 10
0.0
 20
0.0
 30
0.0
210
0.0
220
0.0
230
1.0
  2
SOLID
 70
     1
 71
     0
 91
        5
 92
        1
 93
        1
 72
     4
 94
        3
 73
     0
 74
     1
 95
       17
 96
       13
 40
0.0
 40
0.0
 40
0.0
 40
0.0
 40
1.0
 40
1.0
 40
1.0
 40
2.0
 40
2.0
 40
2.0
 40
3.0
 40
3.0
 40
3.0
 40
4.0
 40
4.0
 40
4.0
 40
4.0
 10
2.848051631993783
 20
-2.353890893543782
 10
3.098397613418826
 20
-2.031796604119411
 10
3.040024314349313
 20
-1.56606817007442
 10
2.717930024924974
 20
-1.315722188649249
 10
2.395819348103524
 20
-1.065363470211394
 10
1.930090914058565
 20
-1.123736769281132
 10
1.679744932633298
 20
-1.445831058705438
 10
1.429386214195443
 20
-1.767941735526889
 10
1.48775951326518
 20
-2.233670169571944
 10
1.809870190086631
 20
-2.484028888009639
 10
2.13196447951097
 20
-2.734374869434842
 10
2.597692913555929
 20
-2.676001570365201
 10
2.848051631993783
 20
-2.353890893543782
 97
        0
 97
        0
 92
        1
 93
        1
 72
     4
 94
        3
 73
     0
 74
     1
 95
       17
 96
       13
 40
0.0
 40
0.0
 40
0.0
 40
0.0
 40
1.0
 40
1.0
 40
1.0
 40
2.0
 40
2.0
 40
2.0
 40
3.0
 40
3.0
 40
3.0
 40
4.0
 40
4.0
 40
4.0
 40
4.0
 10
2.809990660058067
 20
-1.562831371573083
 10
2.849120691625929
 20
-1.593244969322801
 10
2.856186923486081
 20
-1.649622545221948
 10
2.825773325736201
 20
-1.688752576789841
 10
2.795358931923274
 20
-1.727883632569979
 10
2.738981356024064
 20
-1.734949864430002
 10
2.699851324456202
 20
-1.704536266680283
 10
2.660720268676033
 20
-1.674121872867164
 10
2.653654036815881
 20
-1.617744296968082
 10
2.684068430628968
 20
-1.578613241187944
 10
2.71448202837888
 20
-1.539483209619986
 10
2.770859604277898
 20
-1.532416977760059
 10
2.809990660058067
 20
-1.562831371573083
 97
        0
 97
        0
 92
        1
 93
        1
 72
     4
 94
        3
 73
     0
 74
     1
 95
       17
 96
       13
 40
0.0
 40
0.0
 40
0.0
 40
0.0
 40
1.0
 40
1.0
 40
1.0
 40
2.0
 40
2.0
 40
2.0
 40
3.0
 40
3.0
 40
3.0
 40
4.0
 40
4.0
 40
4.0
 40
4.0
 10
2.456198907769831
 20
-1.520841748529631
 10
2.486613301582951
 20
-1.481710692749462
 10
2.542990877482161
 20
-1.474644460889502
 10
2.582121933262138
 20
-1.505058854702397
 10
2.621251964829968
 20
-1.535472452452084
 10
2.628318196690119
 20
-1.591850028351327
 10
2.597903802877032
 20
-1.630981084131464
 10
2.567489409063912
 20
-1.670112139911665
 10
2.511112629228103
 20
-1.677177347559445
 10
2.471982597660273
 20
-1.646763749809662
 10
2.432851541880072
 20
-1.616349355996607
 10
2.425784513956679
 20
-1.559972804309768
 10
2.456198907769831
 20
-1.520841748529631
 97
        0
 97
        0
 92
        1
 93
        1
 72
     4
 94
        3
 73
     0
 74
     1
 95
       17
 96
       13
 40
0.0
 40
0.0
 40
0.0
 40
0.0
 40
1.0
 40
1.0
 40
1.0
 40
2.0
 40
2.0
 40
2.0
 40
3.0
 40
3.0
 40
3.0
 40
4.0
 40
4.0
 40
4.0
 40
4.0
 10
2.546797149237999
 20
-1.784472699737937
 10
2.577211543050926
 20
-1.745341643957736
 10
2.633589118950104
 20
-1.738275412097648
 10
2.672719150517934
 20
-1.768689009847431
 10
2.711850206298103
 20
-1.799103403660551
 10
2.718916438158287
 20
-1.855480979559633
 10
2.688502044345167
 20
-1.894612035339834
 10
2.658088446595256
 20
-1.9337420669076
 10
2.601710870696238
 20
-1.940808298767623
 10
2.562579814916101
 20
-1.910393904954632
 10
2.523449783348239
 20
-1.879980307204849
 10
2.516383551488055
 20
-1.823602731305703
 10
2.546797149237999
 20
-1.784472699737937
 97
        0
 97
        0
 92
        1
 93
        1
 72
     4
 94
        3
 73
     0
 74
     1
 95
       23
 96
       19
 40
0.0
 40
0.0
 40
0.0
 40
0.0
 40
1.0
 40
1.0
 40
1.0
 40
2.0
 40
2.0
 40
2.0
 40
3.0
 40
3.0
 40
3.0
 40
4.0
 40
4.0
 40
4.0
 40
5.0
 40
5.0
 40
5.0
 40
6.0
 40
6.0
 40
6.0
 40
6.0
 10
1.624972217643562
 20
-1.995001512495086
 10
1.623992052482067
 20
-1.988781811217601
 10
1.632505226314363
 20
-1.985920460610948
 10
1.635632586520065
 20
-1.99138570884031
 10
1.635632586520065
 20
-1.99138570884031
 10
1.699973776403926
 20
-2.103859422698649
 10
1.699973776403926
 20
-2.103859422698649
 10
1.804922501151222
 20
-2.28731436785713
 10
1.966733956626208
 20
-2.431625369387389
 10
2.160956644318339
 20
-2.514981481842006
 10
2.160956644318339
 20
-2.514981481842006
 10
2.263253373323514
 20
-2.558885071199868
 10
2.263253373323514
 20
-2.558885071199868
 10
2.257247415613819
 20
-2.566608088367434
 10
2.165989849102657
 20
-2.550374039504664
 10
2.118506480461333
 20
-2.538184367684597
 10
1.859616874329868
 20
-2.471726685367648
 10
1.666207753534303
 20
-2.256555013796048
 10
1.624972217643562
 20
-1.995001512495086
 97
        0
 97
        0
 75
     2
 76
     1
 98
        0
  0
INSERT
  5
52
330
41
100
AcDbEntity
  8
Layer 1
100
AcDbBlockReference
  2
block 3
 10
0.0
 20
0.0
 30
0.0
  0
SPLINE
  5
59
330
41
100
AcDbEntity
  8
Layer 1
370
     0
100
AcDbSpline
210
0.0
220
0.0
230
1.0
 70
    11
 71
     3
 72
    44
 73
    40
 74
     0
 42
0.0000000001
 43
0.0000000001
 12
1.0
 22
0.0
 32
0.0
 13
1.0
 23
0.0
 33
0.0
 40
0.0
 40
0.0
 40
0.0
 40
0.0
 40
1.0
 40
1.0
 40
1.0
 40
2.0
 40
2.0
 40
2.0
 40
3.0
 40
3.0
 40
3.0
 40
4.0
 40
4.0
 40
4.0
 40
5.0
 40
5.0
 40
5.0
 40
6.0
 40
6.0
 40
6.0
 40
7.0
 40
7.0
 40
7.0
 40
8.0
 40
8.0
 40
8.0
 40
9.0
 40
9.0
 40
9.0
 40
10.0
 40
10.0
 40
10.0
 40
11.0
 40
11.0
 40
11.0
 40
12.0
 40
12.0
 40
12.0
 40
13.0
 40
13.0
 40
13.0
 40
13.0
 10
0.1086999105032742
 20
-1.160834977046418
 30
0.0
 10
0.1086999105032742
 20
-1.160834977046418
 30
0.0
 10
0.9646165433471031
 20
-1.160834977046418
 30
0.0
 10
0.9646165433471031
 20
-1.160834977046418
 30
0.0
 10
1.107269315487763
 20
-1.160834977046418
 30
0.0
 10
1.216782233723028
 20
-1.196161724864214
 30
0.0
 10
1.293155298053026
 20
-1.266815220499868
 30
0.0
 10
1.369528362382993
 20
-1.337468716135523
 30
0.0
 10
1.407714894548105
 20
-1.424944472637041
 30
0.0
 10
1.407714894548105
 20
-1.529242490003972
 30
0.0
 10
1.407714894548105
 20
-1.616718246505297
 30
0.0
 10
1.380462831945606
 20
-1.691745529966074
 30
0.0
 10
1.325958706740899
 20
-1.754324340386272
 30
0.0
 10
1.289622623271276
 20
-1.79604354733307
 30
0.0
 10
1.236464278935725
 20
-1.829015178629687
 30
0.0
 10
1.166483673734762
 20
-1.853239234276189
 30
0.0
 10
1.272800362405605
 20
-1.878809070792007
 30
0.0
 10
1.351023875430804
 20
-1.922715171651335
 30
0.0
 10
1.401154212810389
 20
-1.984957536854234
 30
0.0
 10
1.451284550190167
 20
-2.04719990205707
 30
0.0
 10
1.476349718879847
 20
-2.125423415082333
 30
0.0
 10
1.476349718879847
 20
-2.219628075929894
 30
0.0
 10
1.476349718879847
 20
-2.296337585477222
 30
0.0
 10
1.458518122362349
 20
-2.36530885502639
 30
0.0
 10
1.42285492932716
 20
-2.426541884577269
 30
0.0
 10
1.387191736292003
 20
-2.487774914128213
 30
0.0
 10
1.338407179781639
 20
-2.536223025421279
 30
0.0
 10
1.276501259796037
 20
-2.571886218456469
 30
0.0
 10
1.238146505022469
 20
-2.594091602799057
 30
0.0
 10
1.180277927644692
 20
-2.610240973230101
 30
0.0
 10
1.10289552766264
 20
-2.620334329749471
 30
0.0
 10
0.9999432911648984
 20
-2.633792138442007
 30
0.0
 10
0.9316449120504855
 20
-2.640521042788275
 30
0.0
 10
0.8980003903189845
 20
-2.640521042788275
 30
0.0
 10
0.8980003903189845
 20
-2.640521042788275
 30
0.0
 10
0.1086999105032742
 20
-2.640521042788275
 30
0.0
 10
0.1086999105032742
 20
-2.640521042788275
 30
0.0
 10
0.1086999105032742
 20
-2.640521042788275
 30
0.0
 10
0.1086999105032742
 20
-1.160834977046418
 30
0.0
 10
0.1086999105032742
 20
-1.160834977046418
 30
0.0
  0
SPLINE
  5
5A
330
41
100
AcDbEntity
  8
Layer 1
370
     0
100
AcDbSpline
210
0.0
220
0.0
230
1.0
 70
    11
 71
     3
 72
    26
 73
    22
 74
     0
 42
0.0000000001
 43
0.0000000001
 12
1.0
 22
0.0
 32
0.0
 13
1.0
 23
0.0
 33
0.0
 40
0.0
 40
0.0
 40
0.0
 40
0.0
 40
1.0
 40
1.0
 40
1.0
 40
2.0
 40
2.0
 40
2.0
 40
3.0
 40
3.0
 40
3.0
 40
4.0
 40
4.0
 40
4.0
 40
5.0
 40
5.0
 40
5.0
 40
6.0
 40
6.0
 40
6.0
 40
7.0
 40
7.0
 40
7.0
 40
7.0
 10
0.5699663034391035
 20
-1.741202976911033
 30
0.0
 10
0.5699663034391035
 20
-1.741202976911033
 30
0.0
 10
0.7688054268710537
 20
-1.741202976911033
 30
0.0
 10
0.7688054268710537
 20
-1.741202976911033
 30
0.0
 10
0.840131812941207
 20
-1.741202976911033
 30
0.0
 10
0.8897574824949425
 20
-1.728922726479134
 30
0.0
 10
0.9176824355319391
 20
-1.704362225615271
 30
0.0
 10
0.9456073885688716
 20
-1.679801724751472
 30
0.0
 10
0.959569865087418
 20
-1.644306754324964
 30
0.0
 10
0.959569865087418
 20
-1.597877314335811
 30
0.0
 10
0.959569865087418
 20
-1.554812326519695
 30
0.0
 10
0.9456073885688716
 20
-1.521167804788386
 30
0.0
 10
0.9176824355319391
 20
-1.496943749141885
 30
0.0
 10
0.8897574824949425
 20
-1.472719693495352
 30
0.0
 10
0.8411411485932595
 20
-1.460607665672198
 30
0.0
 10
0.7718334338267941
 20
-1.460607665672198
 30
0.0
 10
0.7718334338267941
 20
-1.460607665672198
 30
0.0
 10
0.5699663034391035
 20
-1.460607665672198
 30
0.0
 10
0.5699663034391035
 20
-1.460607665672198
 30
0.0
 10
0.5699663034391035
 20
-1.460607665672198
 30
0.0
 10
0.5699663034391035
 20
-1.741202976911033
 30
0.0
 10
0.5699663034391035
 20
-1.741202976911033
 30
0.0
  0
SPLINE
  5
5B
330
41
100
AcDbEntity
  8
Layer 1
370
     0
100
AcDbSpline
210
0.0
220
0.0
230
1.0
 70
    11
 71
     3
 72
    26
 73
    22
 74
     0
 42
0.0000000001
 43
0.0000000001
 12
1.0
 22
0.0
 32
0.0
 13
1.0
 23
0.0
 33
0.0
 40
0.0
 40
0.0
 40
0.0
 40
0.0
 40
1.0
 40
1.0
 40
1.0
 40
2.0
 40
2.0
 40
2.0
 40
3.0
 40
3.0
 40
3.0
 40
4.0
 40
4.0
 40
4.0
 40
5.0
 40
5.0
 40
5.0
 40
6.0
 40
6.0
 40
6.0
 40
7.0
 40
7.0
 40
7.0
 40
7.0
 10
0.5699663034391035
 20
-2.322580312427636
 30
0.0
 10
0.5699663034391035
 20
-2.322580312427636
 30
0.0
 10
0.8031228390368607
 20
-2.322580312427636
 30
0.0
 10
0.8031228390368607
 20
-2.322580312427636
 30
0.0
 10
0.8818510198880694
 20
-2.322580312427636
 30
0.0
 10
0.9373644807446049
 20
-2.308617835909121
 30
0.0
 10
0.9696632216066918
 20
-2.280692882872157
 30
0.0
 10
1.001961962468811
 20
-2.252767929835192
 30
0.0
 10
1.018111332899726
 20
-2.215254288104836
 30
0.0
 10
1.018111332899726
 20
-2.168151957681023
 30
0.0
 10
1.018111332899726
 20
-2.124414079430377
 30
0.0
 10
1.00213018507746
 20
-2.089255554221166
 30
0.0
 10
0.9701678894327341
 20
-2.062676382053455
 30
0.0
 10
0.9382055937879766
 20
-2.036097209885744
 30
0.0
 10
0.8821874651053988
 20
-2.022807623801888
 30
0.0
 10
0.8021135033850008
 20
-2.022807623801888
 30
0.0
 10
0.8021135033850008
 20
-2.022807623801888
 30
0.0
 10
0.5699663034391035
 20
-2.022807623801888
 30
0.0
 10
0.5699663034391035
 20
-2.022807623801888
 30
0.0
 10
0.5699663034391035
 20
-2.022807623801888
 30
0.0
 10
0.5699663034391035
 20
-2.322580312427636
 30
0.0
 10
0.5699663034391035
 20
-2.322580312427636
 30
0.0
  0
HATCH
  5
5C
330
41
100
AcDbEntity
  8
Layer 1
 62
    20
420
 15612985
100
AcDbHatch
 10
0.0
 20
0.0
 30
0.0
210
0.0
220
0.0
230
1.0
  2
SOLID
 70
     1
 71
     0
 91
        3
 92
        1
 93
        1
 72
     4
 94
        3
 73
     0
 74
     1
 95
       44
 96
       40
 40
0.0
 40
0.0
 40
0.0
 40
0.0
 40
1.0
 40
1.0
 40
1.0
 40
2.0
 40
2.0
 40
2.0
 40
3.0
 40
3.0
 40
3.0
 40
4.0
 40
4.0
 40
4.0
 40
5.0
 40
5.0
 40
5.0
 40
6.0
 40
6.0
 40
6.0
 40
7.0
 40
7.0
 40
7.0
 40
8.0
 40
8.0
 40
8.0
 40
9.0
 40
9.0
 40
9.0
 40
10.0
 40
10.0
 40
10.0
 40
11.0
 40
11.0
 40
11.0
 40
12.0
 40
12.0
 40
12.0
 40
13.0
 40
13.0
 40
13.0
 40
13.0
 10
0.1086999105032742
 20
-1.160834977046418
 10
0.1086999105032742
 20
-1.160834977046418
 10
0.9646165433471031
 20
-1.160834977046418
 10
0.9646165433471031
 20
-1.160834977046418
 10
1.107269315487763
 20
-1.160834977046418
 10
1.216782233723028
 20
-1.196161724864214
 10
1.293155298053026
 20
-1.266815220499868
 10
1.369528362382993
 20
-1.337468716135523
 10
1.407714894548105
 20
-1.424944472637041
 10
1.407714894548105
 20
-1.529242490003972
 10
1.407714894548105
 20
-1.616718246505297
 10
1.380462831945606
 20
-1.691745529966074
 10
1.325958706740899
 20
-1.754324340386272
 10
1.289622623271276
 20
-1.79604354733307
 10
1.236464278935725
 20
-1.829015178629687
 10
1.166483673734762
 20
-1.853239234276189
 10
1.272800362405605
 20
-1.878809070792007
 10
1.351023875430804
 20
-1.922715171651335
 10
1.401154212810389
 20
-1.984957536854234
 10
1.451284550190167
 20
-2.04719990205707
 10
1.476349718879847
 20
-2.125423415082333
 10
1.476349718879847
 20
-2.219628075929894
 10
1.476349718879847
 20
-2.296337585477222
 10
1.458518122362349
 20
-2.36530885502639
 10
1.42285492932716
 20
-2.426541884577269
 10
1.387191736292003
 20
-2.487774914128213
 10
1.338407179781639
 20
-2.536223025421279
 10
1.276501259796037
 20
-2.571886218456469
 10
1.238146505022469
 20
-2.594091602799057
 10
1.180277927644692
 20
-2.610240973230101
 10
1.10289552766264
 20
-2.620334329749471
 10
0.9999432911648984
 20
-2.633792138442007
 10
0.9316449120504855
 20
-2.640521042788275
 10
0.8980003903189845
 20
-2.640521042788275
 10
0.8980003903189845
 20
-2.640521042788275
 10
0.1086999105032742
 20
-2.640521042788275
 10
0.1086999105032742
 20
-2.640521042788275
 10
0.1086999105032742
 20
-2.640521042788275
 10
0.1086999105032742
 20
-1.160834977046418
 10
0.1086999105032742
 20
-1.160834977046418
 97
        0
 97
        0
 92
        1
 93
        1
 72
     4
 94
        3
 73
     0
 74
     1
 95
       26
 96
       22
 40
0.0
 40
0.0
 40
0.0
 40
0.0
 40
1.0
 40
1.0
 40
1.0
 40
2.0
 40
2.0
 40
2.0
 40
3.0
 40
3.0
 40
3.0
 40
4.0
 40
4.0
 40
4.0
 40
5.0
 40
5.0
 40
5.0
 40
6.0
 40
6.0
 40
6.0
 40
7.0
 40
7.0
 40
7.0
 40
7.0
 10
0.5699663034391035
 20
-1.741202976911033
 10
0.5699663034391035
 20
-1.741202976911033
 10
0.7688054268710537
 20
-1.741202976911033
 10
0.7688054268710537
 20
-1.741202976911033
 10
0.840131812941207
 20
-1.741202976911033
 10
0.8897574824949425
 20
-1.728922726479134
 10
0.9176824355319391
 20
-1.704362225615271
 10
0.9456073885688716
 20
-1.679801724751472
 10
0.959569865087418
 20
-1.644306754324964
 10
0.959569865087418
 20
-1.597877314335811
 10
0.959569865087418
 20
-1.554812326519695
 10
0.9456073885688716
 20
-1.521167804788386
 10
0.9176824355319391
 20
-1.496943749141885
 10
0.8897574824949425
 20
-1.472719693495352
 10
0.8411411485932595
 20
-1.460607665672198
 10
0.7718334338267941
 20
-1.460607665672198
 10
0.7718334338267941
 20
-1.460607665672198
 10
0.5699663034391035
 20
-1.460607665672198
 10
0.5699663034391035
 20
-1.460607665672198
 10
0.5699663034391035
 20
-1.460607665672198
 10
0.5699663034391035
 20
-1.741202976911033
 10
0.5699663034391035
 20
-1.741202976911033
 97
        0
 97
        0
 92
        1
 93
        1
 72
     4
 94
        3
 73
     0
 74
     1
 95
       26
 96
       22
 40
0.0
 40
0.0
 40
0.0
 40
0.0
 40
1.0
 40
1.0
 40
1.0
 40
2.0
 40
2.0
 40
2.0
 40
3.0
 40
3.0
 40
3.0
 40
4.0
 40
4.0
 40
4.0
 40
5.0
 40
5.0
 40
5.0
 40
6.0
 40
6.0
 40
6.0
 40
7.0
 40
7.0
 40
7.0
 40
7.0
 10
0.5699663034391035
 20
-2.322580312427636
 10
0.5699663034391035
 20
-2.322580312427636
 10
0.8031228390368607
 20
-2.322580312427636
 10
0.8031228390368607
 20
-2.322580312427636
 10
0.8818510198880694
 20
-2.322580312427636
 10
0.9373644807446049
 20
-2.308617835909121
 10
0.9696632216066918
 20
-2.280692882872157
 10
1.001961962468811
 20
-2.252767929835192
 10
1.018111332899726
 20
-2.215254288104836
 10
1.018111332899726
 20
-2.168151957681023
 10
1.018111332899726
 20
-2.124414079430377
 10
1.00213018507746
 20
-2.089255554221166
 10
0.9701678894327341
 20
-2.062676382053455
 10
0.9382055937879766
 20
-2.036097209885744
 10
0.8821874651053988
 20
-2.022807623801888
 10
0.8021135033850008
 20
-2.022807623801888
 10
0.8021135033850008
 20
-2.022807623801888
 10
0.5699663034391035
 20
-2.022807623801888
 10
0.5699663034391035
 20
-2.022807623801888
 10
0.5699663034391035
 20
-2.022807623801888
 10
0.5699663034391035
 20
-2.322580312427636
 10
0.5699663034391035
 20
-2.322580312427636
 97
        0
 97
        0
 75
     2
 76
     1
 98
        0
  0
POLYLINE
  5
5D
330
41
100
AcDbEntity
  8
Layer 1
370
     0
100
AcDb2dPolyline
 66
     1
 10
0.0
 20
0.0
 30
0.0
  0
VERTEX
  5
5E
330
5D
100
AcDbEntity
  8
Layer 1
370
     0
100
AcDbVertex
100
AcDb2dVertex
 10
2.95220593144355
 20
-1.160834977046418
 30
0.0
  0
VERTEX
  5
5F
330
5D
100
AcDbEntity
  8
Layer 1
370
     0
100
AcDbVertex
100
AcDb2dVertex
 10
3.386556706994467
 20
-1.160834977046418
 30
0.0
  0
VERTEX
  5
60
330
5D
100
AcDbEntity
  8
Layer 1
370
     0
100
AcDbVertex
100
AcDb2dVertex
 10
3.542835510436408
 20
-1.989163102070612
 30
0.0
  0
VERTEX
  5
61
330
5D
100
AcDbEntity
  8
Layer 1
370
     0
100
AcDbVertex
100
AcDb2dVertex
 10
3.77161825820901
 20
-1.160834977046418
 30
0.0
  0
VERTEX
  5
62
330
5D
100
AcDbEntity
  8
Layer 1
370
     0
100
AcDbVertex
100
AcDb2dVertex
 10
4.204455030282089
 20
-1.160834977046418
 30
0.0
  0
VERTEX
  5
63
330
5D
100
AcDbEntity
  8
Layer 1
370
     0
100
AcDbVertex
100
AcDb2dVertex
 10
4.433742445880703
 20
-1.98815376641872
 30
0.0
  0
VERTEX
  5
64
330
5D
100
AcDbEntity
  8
Layer 1
370
     0
100
AcDbVertex
100
AcDb2dVertex
 10
4.59035769453978
 20
-1.160834977046418
 30
0.0
  0
VERTEX
  5
65
330
5D
100
AcDbEntity
  8
Layer 1
370
     0
100
AcDbVertex
100
AcDb2dVertex
 10
5.022353353569455
 20
-1.160834977046418
 30
0.0
  0
VERTEX
  5
66
330
5D
100
AcDbEntity
  8
Layer 1
370
     0
100
AcDbVertex
100
AcDb2dVertex
 10
4.696169715384806
 20
-2.640521042788275
 30
0.0
  0
VERTEX
  5
67
330
5D
100
AcDbEntity
  8
Layer 1
370
     0
100
AcDbVertex
100
AcDb2dVertex
 10
4.247856463315503
 20
-2.640521042788275
 30
0.0
  0
VERTEX
  5
68
330
5D
100
AcDbEntity
  8
Layer 1
370
     0
100
AcDbVertex
100
AcDb2dVertex
 10
3.988288978158427
 20
-1.70890423604901
 30
0.0
  0
VERTEX
  5
69
330
5D
100
AcDbEntity
  8
Layer 1
370
     0
100
AcDbVertex
100
AcDb2dVertex
 10
3.729730828653659
 20
-2.640521042788275
 30
0.0
  0
VERTEX
  5
6A
330
5D
100
AcDbEntity
  8
Layer 1
370
     0
100
AcDbVertex
100
AcDb2dVertex
 10
3.281417576584388
 20
-2.640521042788275
 30
0.0
  0
VERTEX
  5
6B
330
5D
100
AcDbEntity
  8
Layer 1
370
     0
100
AcDbVertex
100
AcDb2dVertex
 10
2.95220593144355
 20
-1.160834977046418
 30
0.0
  0
SEQEND
  5
6C
330
5D
100
AcDbEntity
  8
Layer 1
370
     0
  0
HATCH
  5
6D
330
41
100
AcDbEntity
  8
Layer 1
 62
    20
420
 15612985
100
AcDbHatch
 10
0.0
 20
0.0
 30
0.0
210
0.0
220
0.0
230
1.0
  2
SOLID
 70
     1
 71
     0
 91
        1
 92
        1
 93
       13
 72
     1
 10
2.95220593144355
 20
-1.160834977046418
 11
3.386556706994467
 21
-1.160834977046418
 72
     1
 10
3.386556706994467
 20
-1.160834977046418
 11
3.542835510436408
 21
-1.989163102070612
 72
     1
 10
3.542835510436408
 20
-1.989163102070612
 11
3.77161825820901
 21
-1.160834977046418
 72
     1
 10
3.77161825820901
 20
-1.160834977046418
 11
4.204455030282089
 21
-1.160834977046418
 72
     1
 10
4.204455030282089
 20
-1.160834977046418
 11
4.433742445880703
 21
-1.98815376641872
 72
     1
 10
4.433742445880703
 20
-1.98815376641872
 11
4.59035769453978
 21
-1.160834977046418
 72
     1
 10
4.59035769453978
 20
-1.160834977046418
 11
5.022353353569455
 21
-1.160834977046418
 72
     1
 10
5.022353353569455
 20
-1.160834977046418
 11
4.696169715384806
 21
-2.640521042788275
 72
     1
 10
4.696169715384806
 20
-2.640521042788275
 11
4.247856463315503
 21
-2.640521042788275
 72
     1
 10
4.247856463315503
 20
-2.640521042788275
 11
3.988288978158427
 21
-1.70890423604901
 72
     1
 10
3.988288978158427
 20
-1.70890423604901
 11
3.729730828653659
 21
-2.640521042788275
 72
     1
 10
3.729730828653659
 20
-2.640521042788275
 11
3.281417576584388
 21
-2.640521042788275
 72
     1
 10
3.281417576584388
 20
-2.640521042788275
 11
2.95220593144355
 21
-1.160834977046418
 97
        0
 75
     2
 76
     1
 98
        0
  0
POLYLINE
  5
6E
330
41
100
AcDbEntity
  8
Layer 1
370
     0
100
AcDb2dPolyline
 66
     1
 10
0.0
 20
0.0
 30
0.0
  0
VERTEX
  5
6F
330
6E
100
AcDbEntity
  8
Layer 1
370
     0
100
AcDbVertex
100
AcDb2dVertex
 10
5.065468412952007
 20
-1.160834977046418
 30
0.0
  0
VERTEX
  5
70
330
6E
100
AcDbEntity
  8
Layer 1
370
     0
100
AcDbVertex
100
AcDb2dVertex
 10
5.522697463280235
 20
-1.160834977046418
 30
0.0
  0
VERTEX
  5
71
330
6E
100
AcDbEntity
  8
Layer 1
370
     0
100
AcDbVertex
100
AcDb2dVertex
 10
5.522697463280235
 20
-2.276150872438482
 30
0.0
  0
VERTEX
  5
72
330
6E
100
AcDbEntity
  8
Layer 1
370
     0
100
AcDbVertex
100
AcDb2dVertex
 10
6.236297769200734
 20
-2.276150872438482
 30
0.0
  0
VERTEX
  5
73
330
6E
100
AcDbEntity
  8
Layer 1
370
     0
100
AcDbVertex
100
AcDb2dVertex
 10
6.236297769200734
 20
-2.640521042788275
 30
0.0
  0
VERTEX
  5
74
330
6E
100
AcDbEntity
  8
Layer 1
370
     0
100
AcDbVertex
100
AcDb2dVertex
 10
5.065468412952007
 20
-2.640521042788275
 30
0.0
  0
VERTEX
  5
75
330
6E
100
AcDbEntity
  8
Layer 1
370
     0
100
AcDbVertex
100
AcDb2dVertex
 10
5.065468412952007
 20
-1.160834977046418
 30
0.0
  0
SEQEND
  5
76
330
6E
100
AcDbEntity
  8
Layer 1
370
     0
  0
HATCH
  5
77
330
41
100
AcDbEntity
  8
Layer 1
 62
    20
420
 15612985
100
AcDbHatch
 10
0.0
 20
0.0
 30
0.0
210
0.0
220
0.0
230
1.0
  2
SOLID
 70
     1
 71
     0
 91
        1
 92
        1
 93
        6
 72
     1
 10
5.065468412952007
 20
-1.160834977046418
 11
5.522697463280235
 21
-1.160834977046418
 72
     1
 10
5.522697463280235
 20
-1.160834977046418
 11
5.522697463280235
 21
-2.276150872438482
 72
     1
 10
5.522697463280235
 20
-2.276150872438482
 11
6.236297769200734
 21
-2.276150872438482
 72
     1
 10
6.236297769200734
 20
-2.276150872438482
 11
6.236297769200734
 21
-2.640521042788275
 72
     1
 10
6.236297769200734
 20
-2.640521042788275
 11
5.065468412952007
 21
-2.640521042788275
 72
     1
 10
5.065468412952007
 20
-2.640521042788275
 11
5.065468412952007
 21
-1.160834977046418
 97
        0
 75
     2
 76
     1
 98
        0
  0
POLYLINE
  5
78
330
41
100
AcDbEntity
  8
Layer 1
370
     0
100
AcDb2dPolyline
 66
     1
 10
0.0
 20
0.0
 30
0.0
  0
VERTEX
  5
79
330
78
100
AcDbEntity
  8
Layer 1
370
     0
100
AcDbVertex
100
AcDb2dVertex
 10
6.911636260316927
 20
-1.160834977046418
 30
0.0
  0
VERTEX
  5
7A
330
78
100
AcDbEntity
  8
Layer 1
370
     0
100
AcDbVertex
100
AcDb2dVertex
 10
7.338585241087046
 20
-1.160834977046418
 30
0.0
  0
VERTEX
  5
7B
330
78
100
AcDbEntity
  8
Layer 1
370
     0
100
AcDbVertex
100
AcDb2dVertex
 10
7.895738520957083
 20
-1.979406190768539
 30
0.0
  0
VERTEX
  5
7C
330
78
100
AcDbEntity
  8
Layer 1
370
     0
100
AcDbVertex
100
AcDb2dVertex
 10
7.895738520957083
 20
-1.160834977046418
 30
0.0
  0
VERTEX
  5
7D
330
78
100
AcDbEntity
  8
Layer 1
370
     0
100
AcDbVertex
100
AcDb2dVertex
 10
8.326724844334706
 20
-1.160834977046418
 30
0.0
  0
VERTEX
  5
7E
330
78
100
AcDbEntity
  8
Layer 1
370
     0
100
AcDbVertex
100
AcDb2dVertex
 10
8.326724844334706
 20
-2.640521042788275
 30
0.0
  0
VERTEX
  5
7F
330
78
100
AcDbEntity
  8
Layer 1
370
     0
100
AcDbVertex
100
AcDb2dVertex
 10
7.895738520957083
 20
-2.640521042788275
 30
0.0
  0
VERTEX
  5
80
330
78
100
AcDbEntity
  8
Layer 1
370
     0
100
AcDbVertex
100
AcDb2dVertex
 10
7.341613248042722
 20
-1.828005842977731
 30
0.0
  0
VERTEX
  5
81
330
78
100
AcDbEntity
  8
Layer 1
370
     0
100
AcDbVertex
100
AcDb2dVertex
 10
7.341613248042722
 20
-2.640521042788275
 30
0.0
  0
VERTEX
  5
82
330
78
100
AcDbEntity
  8
Layer 1
370
     0
100
AcDbVertex
100
AcDb2dVertex
 10
6.911636260316927
 20
-2.640521042788275
 30
0.0
  0
VERTEX
  5
83
330
78
100
AcDbEntity
  8
Layer 1
370
     0
100
AcDbVertex
100
AcDb2dVertex
 10
6.911636260316927
 20
-1.160834977046418
 30
0.0
  0
SEQEND
  5
84
330
78
100
AcDbEntity
  8
Layer 1
370
     0
  0
HATCH
  5
85
330
41
100
AcDbEntity
  8
Layer 1
 62
    20
420
 15612985
100
AcDbHatch
 10
0.0
 20
0.0
 30
0.0
210
0.0
220
0.0
230
1.0
  2
SOLID
 70
     1
 71
     0
 91
        1
 92
        1
 93
       10
 72
     1
 10
6.911636260316927
 20
-1.160834977046418
 11
7.338585241087046
 21
-1.160834977046418
 72
     1
 10
7.338585241087046
 20
-1.160834977046418
 11
7.895738520957083
 21
-1.979406190768539
 72
     1
 10
7.895738520957083
 20
-1.979406190768539
 11
7.895738520957083
 21
-1.160834977046418
 72
     1
 10
7.895738520957083
 20
-1.160834977046418
 11
8.326724844334706
 21
-1.160834977046418
 72
     1
 10
8.326724844334706
 20
-1.160834977046418
 11
8.326724844334706
 21
-2.640521042788275
 72
     1
 10
8.326724844334706
 20
-2.640521042788275
 11
7.895738520957083
 21
-2.640521042788275
 72
     1
 10
7.895738520957083
 20
-2.640521042788275
 11
7.341613248042722
 21
-1.828005842977731
 72
     1
 10
7.341613248042722
 20
-1.828005842977731
 11
7.341613248042722
 21
-2.640521042788275
 72
     1
 10
7.341613248042722
 20
-2.640521042788275
 11
6.911636260316927
 21
-2.640521042788275
 72
     1
 10
6.911636260316927
 20
-2.640521042788275
 11
6.911636260316927
 21
-1.160834977046418
 97
        0
 75
     2
 76
     1
 98
        0
  0
SPLINE
  5
86
330
41
100
AcDbEntity
  8
Layer 1
370
     0
100
AcDbSpline
210
0.0
220
0.0
230
1.0
 70
    11
 71
     3
 72
    80
 73
    76
 74
     0
 42
0.0000000001
 43
0.0000000001
 12
1.0
 22
0.0
 32
0.0
 13
1.0
 23
0.0
 33
0.0
 40
0.0
 40
0.0
 40
0.0
 40
0.0
 40
1.0
 40
1.0
 40
1.0
 40
2.0
 40
2.0
 40
2.0
 40
3.0
 40
3.0
 40
3.0
 40
4.0
 40
4.0
 40
4.0
 40
5.0
 40
5.0
 40
5.0
 40
6.0
 40
6.0
 40
6.0
 40
7.0
 40
7.0
 40
7.0
 40
8.0
 40
8.0
 40
8.0
 40
9.0
 40
9.0
 40
9.0
 40
10.0
 40
10.0
 40
10.0
 40
11.0
 40
11.0
 40
11.0
 40
12.0
 40
12.0
 40
12.0
 40
13.0
 40
13.0
 40
13.0
 40
14.0
 40
14.0
 40
14.0
 40
15.0
 40
15.0
 40
15.0
 40
16.0
 40
16.0
 40
16.0
 40
17.0
 40
17.0
 40
17.0
 40
18.0
 40
18.0
 40
18.0
 40
19.0
 40
19.0
 40
19.0
 40
20.0
 40
20.0
 40
20.0
 40
21.0
 40
21.0
 40
21.0
 40
22.0
 40
22.0
 40
22.0
 40
23.0
 40
23.0
 40
23.0
 40
24.0
 40
24.0
 40
24.0
 40
25.0
 40
25.0
 40
25.0
 40
25.0
 10
9.204388663680001
 20
-2.104563811608934
 30
0.0
 10
9.204388663680001
 20
-2.104563811608934
 30
0.0
 10
9.204388663680001
 20
-1.796716437767665
 30
0.0
 10
9.204388663680001
 20
-1.796716437767665
 30
0.0
 10
9.204388663680001
 20
-1.796716437767665
 30
0.0
 10
9.910923620036998
 20
-1.796716437767665
 30
0.0
 10
9.910923620036998
 20
-1.796716437767665
 30
0.0
 10
9.910923620036998
 20
-1.796716437767665
 30
0.0
 10
9.910923620036998
 20
-2.427551220229226
 30
0.0
 10
9.910923620036998
 20
-2.427551220229226
 30
0.0
 10
9.775672642677105
 20
-2.519737209772939
 30
0.0
 10
9.656066367922406
 20
-2.582484242801817
 30
0.0
 10
9.552104795772836
 20
-2.615792319315796
 30
0.0
 10
9.44814322362301
 20
-2.649100395829775
 30
0.0
 10
9.324836051477911
 20
-2.665754434086733
 30
0.0
 10
9.182183279337156
 20
-2.665754434086733
 30
0.0
 10
9.00655887589991
 20
-2.665754434086733
 30
0.0
 10
8.863401435933369
 20
-2.635810809745855
 30
0.0
 10
8.752710959437403
 20
-2.575923561064229
 30
0.0
 10
8.642020482941437
 20
-2.51603631238254
 30
0.0
 10
8.556226952526695
 20
-2.426878329794631
 30
0.0
 10
8.495330368193176
 20
-2.308449613300505
 30
0.0
 10
8.434433783859594
 20
-2.190020896806379
 30
0.0
 10
8.403985491692739
 20
-2.054097029012019
 30
0.0
 10
8.403985491692739
 20
-1.900678009917363
 30
0.0
 10
8.403985491692739
 20
-1.739184305607185
 30
0.0
 10
8.437293568206654
 20
-1.598718427379086
 30
0.0
 10
8.503909721234548
 20
-1.479280375233068
 30
0.0
 10
8.570525874262636
 20
-1.359842323087017
 30
0.0
 10
8.668094987283363
 20
-1.269170337021142
 30
0.0
 10
8.796617060296795
 20
-1.20726441703554
 30
0.0
 10
8.896877735055964
 20
-1.159489196177197
 30
0.0
 10
9.031792267198432
 20
-1.135601585747833
 30
0.0
 10
9.201360656724068
 20
-1.135601585747833
 30
0.0
 10
9.364873032338158
 20
-1.135601585747833
 30
0.0
 10
9.487170868831301
 20
-1.150405175309783
 30
0.0
 10
9.56825416620375
 20
-1.180012354433266
 30
0.0
 10
9.649337463576266
 20
-1.209619533556782
 30
0.0
 10
9.71662650703882
 20
-1.255544305719893
 30
0.0
 10
9.770121296591475
 20
-1.317786670922825
 30
0.0
 10
9.82361608614413
 20
-1.380029036125757
 30
0.0
 10
9.86382128961312
 20
-1.458925439585647
 30
0.0
 10
9.890736906998194
 20
-1.554475881302333
 30
0.0
 10
9.890736906998194
 20
-1.554475881302333
 30
0.0
 10
9.44965722710088
 20
-1.633204062153638
 30
0.0
 10
9.44965722710088
 20
-1.633204062153638
 30
0.0
 10
9.431489185366052
 20
-1.577354156079709
 30
0.0
 10
9.400704447982028
 20
-1.534625613480954
 30
0.0
 10
9.357303014948679
 20
-1.505018434357471
 30
0.0
 10
9.313901581915266
 20
-1.475411255233956
 30
0.0
 10
9.25855634366738
 20
-1.460607665672198
 30
0.0
 10
9.191267300204826
 20
-1.460607665672198
 30
0.0
 10
9.091006625445463
 20
-1.460607665672198
 30
0.0
 10
9.011100886333713
 20
-1.495429745664015
 30
0.0
 10
8.951550082869385
 20
-1.565073905647746
 30
0.0
 10
8.891999279405058
 20
-1.634718065631573
 30
0.0
 10
8.86222387767286
 20
-1.744903874301496
 30
0.0
 10
8.86222387767286
 20
-1.895631331657645
 30
0.0
 10
8.86222387767286
 20
-2.05577925509857
 30
0.0
 10
8.892335724622354
 20
-2.170170628984935
 30
0.0
 10
8.952559418521213
 20
-2.238805453316742
 30
0.0
 10
9.012783112420264
 20
-2.307440277648549
 30
0.0
 10
9.096726194139775
 20
-2.341757689814484
 30
0.0
 10
9.204388663680001
 20
-2.341757689814484
 30
0.0
 10
9.255528336711446
 20
-2.341757689814484
 30
0.0
 10
9.304312893221809
 20
-2.334355895033557
 30
0.0
 10
9.350742333210963
 20
-2.319552305471831
 30
0.0
 10
9.39717177320031
 20
-2.304748715910041
 30
0.0
 10
9.450330117535604
 20
-2.279515324611584
 30
0.0
 10
9.510217366217294
 20
-2.243852131576395
 30
0.0
 10
9.510217366217294
 20
-2.243852131576395
 30
0.0
 10
9.510217366217294
 20
-2.104563811608934
 30
0.0
 10
9.510217366217294
 20
-2.104563811608934
 30
0.0
 10
9.510217366217294
 20
-2.104563811608934
 30
0.0
 10
9.204388663680001
 20
-2.104563811608934
 30
0.0
 10
9.204388663680001
 20
-2.104563811608934
 30
0.0
  0
HATCH
  5
87
330
41
100
AcDbEntity
  8
Layer 1
 62
    20
420
 15612985
100
AcDbHatch
 10
0.0
 20
0.0
 30
0.0
210
0.0
220
0.0
230
1.0
  2
SOLID
 70
     1
 71
     0
 91
        1
 92
        1
 93
        1
 72
     4
 94
        3
 73
     0
 74
     1
 95
       80
 96
       76
 40
0.0
 40
0.0
 40
0.0
 40
0.0
 40
1.0
 40
1.0
 40
1.0
 40
2.0
 40
2.0
 40
2.0
 40
3.0
 40
3.0
 40
3.0
 40
4.0
 40
4.0
 40
4.0
 40
5.0
 40
5.0
 40
5.0
 40
6.0
 40
6.0
 40
6.0
 40
7.0
 40
7.0
 40
7.0
 40
8.0
 40
8.0
 40
8.0
 40
9.0
 40
9.0
 40
9.0
 40
10.0
 40
10.0
 40
10.0
 40
11.0
 40
11.0
 40
11.0
 40
12.0
 40
12.0
 40
12.0
 40
13.0
 40
13.0
 40
13.0
 40
14.0
 40
14.0
 40
14.0
 40
15.0
 40
15.0
 40
15.0
 40
16.0
 40
16.0
 40
16.0
 40
17.0
 40
17.0
 40
17.0
 40
18.0
 40
18.0
 40
18.0
 40
19.0
 40
19.0
 40
19.0
 40
20.0
 40
20.0
 40
20.0
 40
21.0
 40
21.0
 40
21.0
 40
22.0
 40
22.0
 40
22.0
 40
23.0
 40
23.0
 40
23.0
 40
24.0
 40
24.0
 40
24.0
 40
25.0
 40
25.0
 40
25.0
 40
25.0
 10
9.204388663680001
 20
-2.104563811608934
 10
9.204388663680001
 20
-2.104563811608934
 10
9.204388663680001
 20
-1.796716437767665
 10
9.204388663680001
 20
-1.796716437767665
 10
9.204388663680001
 20
-1.796716437767665
 10
9.910923620036998
 20
-1.796716437767665
 10
9.910923620036998
 20
-1.796716437767665
 10
9.910923620036998
 20
-1.796716437767665
 10
9.910923620036998
 20
-2.427551220229226
 10
9.910923620036998
 20
-2.427551220229226
 10
9.775672642677105
 20
-2.519737209772939
 10
9.656066367922406
 20
-2.582484242801817
 10
9.552104795772836
 20
-2.615792319315796
 10
9.44814322362301
 20
-2.649100395829775
 10
9.324836051477911
 20
-2.665754434086733
 10
9.182183279337156
 20
-2.665754434086733
 10
9.00655887589991
 20
-2.665754434086733
 10
8.863401435933369
 20
-2.635810809745855
 10
8.752710959437403
 20
-2.575923561064229
 10
8.642020482941437
 20
-2.51603631238254
 10
8.556226952526695
 20
-2.426878329794631
 10
8.495330368193176
 20
-2.308449613300505
 10
8.434433783859594
 20
-2.190020896806379
 10
8.403985491692739
 20
-2.054097029012019
 10
8.403985491692739
 20
-1.900678009917363
 10
8.403985491692739
 20
-1.739184305607185
 10
8.437293568206654
 20
-1.598718427379086
 10
8.503909721234548
 20
-1.479280375233068
 10
8.570525874262636
 20
-1.359842323087017
 10
8.668094987283363
 20
-1.269170337021142
 10
8.796617060296795
 20
-1.20726441703554
 10
8.896877735055964
 20
-1.159489196177197
 10
9.031792267198432
 20
-1.135601585747833
 10
9.201360656724068
 20
-1.135601585747833
 10
9.364873032338158
 20
-1.135601585747833
 10
9.487170868831301
 20
-1.150405175309783
 10
9.56825416620375
 20
-1.180012354433266
 10
9.649337463576266
 20
-1.209619533556782
 10
9.71662650703882
 20
-1.255544305719893
 10
9.770121296591475
 20
-1.317786670922825
 10
9.82361608614413
 20
-1.380029036125757
 10
9.86382128961312
 20
-1.458925439585647
 10
9.890736906998194
 20
-1.554475881302333
 10
9.890736906998194
 20
-1.554475881302333
 10
9.44965722710088
 20
-1.633204062153638
 10
9.44965722710088
 20
-1.633204062153638
 10
9.431489185366052
 20
-1.577354156079709
 10
9.400704447982028
 20
-1.534625613480954
 10
9.357303014948679
 20
-1.505018434357471
 10
9.313901581915266
 20
-1.475411255233956
 10
9.25855634366738
 20
-1.460607665672198
 10
9.191267300204826
 20
-1.460607665672198
 10
9.091006625445463
 20
-1.460607665672198
 10
9.011100886333713
 20
-1.495429745664015
 10
8.951550082869385
 20
-1.565073905647746
 10
8.891999279405058
 20
-1.634718065631573
 10
8.86222387767286
 20
-1.744903874301496
 10
8.86222387767286
 20
-1.895631331657645
 10
8.86222387767286
 20
-2.05577925509857
 10
8.892335724622354
 20
-2.170170628984935
 10
8.952559418521213
 20
-2.238805453316742
 10
9.012783112420264
 20
-2.307440277648549
 10
9.096726194139775
 20
-2.341757689814484
 10
9.204388663680001
 20
-2.341757689814484
 10
9.255528336711446
 20
-2.341757689814484
 10
9.304312893221809
 20
-2.334355895033557
 10
9.350742333210963
 20
-2.319552305471831
 10
9.39717177320031
 20
-2.304748715910041
 10
9.450330117535604
 20
-2.279515324611584
 10
9.510217366217294
 20
-2.243852131576395
 10
9.510217366217294
 20
-2.243852131576395
 10
9.510217366217294
 20
-2.104563811608934
 10
9.510217366217294
 20
-2.104563811608934
 10
9.510217366217294
 20
-2.104563811608934
 10
9.204388663680001
 20
-2.104563811608934
 10
9.204388663680001
 20
-2.104563811608934
 97
        0
 97
        0
 75
     2
 76
     1
 98
        0
  0
ENDBLK
  5
44
330
41
100
AcDbEntity
  8
0
100
AcDbBlockEnd
  0
BLOCK
  5
53
330
51
100
AcDbEntity
  8
0
100
AcDbBlockBegin
  2
block 3
 70
     0
 10
0.0
 20
0.0
 30
0.0
  3
block 3
  1

  0
SPLINE
  5
55
330
51
100
AcDbEntity
  8
Layer 1
370
     0
100
AcDbSpline
210
0.0
220
0.0
230
1.0
 70
    11
 71
     3
 72
    50
 73
    46
 74
     0
 42
0.0000000001
 43
0.0000000001
 12
1.0
 22
0.0
 32
0.0
 13
1.0
 23
0.0
 33
0.0
 40
0.0
 40
0.0
 40
0.0
 40
0.0
 40
1.0
 40
1.0
 40
1.0
 40
2.0
 40
2.0
 40
2.0
 40
3.0
 40
3.0
 40
3.0
 40
4.0
 40
4.0
 40
4.0
 40
5.0
 40
5.0
 40
5.0
 40
6.0
 40
6.0
 40
6.0
 40
7.0
 40
7.0
 40
7.0
 40
8.0
 40
8.0
 40
8.0
 40
9.0
 40
9.0
 40
9.0
 40
10.0
 40
10.0
 40
10.0
 40
11.0
 40
11.0
 40
11.0
 40
12.0
 40
12.0
 40
12.0
 40
13.0
 40
13.0
 40
13.0
 40
14.0
 40
14.0
 40
14.0
 40
15.0
 40
15.0
 40
15.0
 40
15.0
 10
6.532489605562805
 20
-0.3099224419489949
 30
0.0
 10
6.249810833562559
 20
-0.3043093624291672
 30
0.0
 10
6.357688265148507
 20
-0.7487671330196863
 30
0.0
 10
6.380994994411791
 20
-0.8894538456728674
 30
0.0
 10
6.390456893144155
 20
-0.9465688279191006
 30
0.0
 10
6.393680260882544
 20
-1.004580232796723
 30
0.0
 10
6.389366362396394
 20
-1.062347915860938
 30
0.0
 10
6.374872718719166
 20
-1.256433208934452
 30
0.0
 10
6.250944986083701
 20
-1.410024032007903
 30
0.0
 10
6.224931753073895
 20
-1.599669794944127
 30
0.0
 10
6.203259562469338
 20
-1.757667807730605
 30
0.0
 10
6.215828224987867
 20
-1.92007953439987
 30
0.0
 10
6.237410503897953
 20
-2.077371387963555
 30
0.0
 10
6.262219016224503
 20
-2.258176061287413
 30
0.0
 10
6.300381931230115
 20
-2.438853410999717
 30
0.0
 10
6.352763775848518
 20
-2.613810040798595
 30
0.0
 10
6.353520511090228
 20
-2.616337554835206
 30
0.0
 10
6.355860208318522
 20
-2.618073685551471
 30
0.0
 10
6.358498574289913
 20
-2.618074341982829
 30
0.0
 10
6.358498574289913
 20
-2.618074341982829
 30
0.0
 10
6.362337722757536
 20
-2.619119701885589
 30
0.0
 10
6.362337722757536
 20
-2.619119701885589
 30
0.0
 10
6.471316702886194
 20
-2.648793536338558
 30
0.0
 10
6.586289867317523
 20
-2.648461299163779
 30
0.0
 10
6.695095532852309
 20
-2.618158134392458
 30
0.0
 10
6.695095532852309
 20
-2.618158134392458
 30
0.0
 10
6.695095699098948
 20
-2.618158088091626
 30
0.0
 10
6.695095699098948
 20
-2.618158088091626
 30
0.0
 10
6.697734065070596
 20
-2.618158744522984
 30
0.0
 10
6.700074625915168
 20
-2.616423778265304
 30
0.0
 10
6.700832618765328
 20
-2.613896641096614
 30
0.0
 10
6.753301516095102
 20
-2.438966098396527
 30
0.0
 10
6.791554332227556
 20
-2.258307761089156
 30
0.0
 10
6.816452810691028
 20
-2.077515454975618
 30
0.0
 10
6.838113356054246
 20
-1.920234360323286
 30
0.0
 10
6.850762833813099
 20
-1.757828907983747
 30
0.0
 10
6.829169266404757
 20
-1.599820130579991
 30
0.0
 10
6.80325040518959
 20
-1.410161446822521
 30
0.0
 10
6.679399115372701
 20
-1.256508975774234
 30
0.0
 10
6.665002051193668
 20
-1.062416494628044
 30
0.0
 10
6.660716898697189
 20
-1.00464667210057
 30
0.0
 10
6.663969132769356
 20
-0.9466368783672378
 30
0.0
 10
6.673459450999026
 20
-0.889526611474998
 30
0.0
 10
6.696836183710083
 20
-0.7488515137715283
 30
0.0
 10
6.815171135659319
 20
-0.3044500253364656
 30
0.0
 10
6.532489605562805
 20
-0.3099224419489949
 30
0.0
  0
HATCH
  5
56
330
51
100
AcDbEntity
  8
Layer 1
 62
   254
420
 13421771
100
AcDbHatch
 10
0.0
 20
0.0
 30
0.0
210
0.0
220
0.0
230
1.0
  2
SOLID
 70
     1
 71
     0
 91
        1
 92
        1
 93
        1
 72
     4
 94
        3
 73
     0
 74
     1
 95
       50
 96
       46
 40
0.0
 40
0.0
 40
0.0
 40
0.0
 40
1.0
 40
1.0
 40
1.0
 40
2.0
 40
2.0
 40
2.0
 40
3.0
 40
3.0
 40
3.0
 40
4.0
 40
4.0
 40
4.0
 40
5.0
 40
5.0
 40
5.0
 40
6.0
 40
6.0
 40
6.0
 40
7.0
 40
7.0
 40
7.0
 40
8.0
 40
8.0
 40
8.0
 40
9.0
 40
9.0
 40
9.0
 40
10.0
 40
10.0
 40
10.0
 40
11.0
 40
11.0
 40
11.0
 40
12.0
 40
12.0
 40
12.0
 40
13.0
 40
13.0
 40
13.0
 40
14.0
 40
14.0
 40
14.0
 40
15.0
 40
15.0
 40
15.0
 40
15.0
 10
6.532489605562805
 20
-0.3099224419489949
 10
6.249810833562559
 20
-0.3043093624291672
 10
6.357688265148507
 20
-0.7487671330196863
 10
6.380994994411791
 20
-0.8894538456728674
 10
6.390456893144155
 20
-0.9465688279191006
 10
6.393680260882544
 20
-1.004580232796723
 10
6.389366362396394
 20
-1.062347915860938
 10
6.374872718719166
 20
-1.256433208934452
 10
6.250944986083701
 20
-1.410024032007903
 10
6.224931753073895
 20
-1.599669794944127
 10
6.203259562469338
 20
-1.757667807730605
 10
6.215828224987867
 20
-1.92007953439987
 10
6.237410503897953
 20
-2.077371387963555
 10
6.262219016224503
 20
-2.258176061287413
 10
6.300381931230115
 20
-2.438853410999717
 10
6.352763775848518
 20
-2.613810040798595
 10
6.353520511090228
 20
-2.616337554835206
 10
6.355860208318522
 20
-2.618073685551471
 10
6.358498574289913
 20
-2.618074341982829
 10
6.358498574289913
 20
-2.618074341982829
 10
6.362337722757536
 20
-2.619119701885589
 10
6.362337722757536
 20
-2.619119701885589
 10
6.471316702886194
 20
-2.648793536338558
 10
6.586289867317523
 20
-2.648461299163779
 10
6.695095532852309
 20
-2.618158134392458
 10
6.695095532852309
 20
-2.618158134392458
 10
6.695095699098948
 20
-2.618158088091626
 10
6.695095699098948
 20
-2.618158088091626
 10
6.697734065070596
 20
-2.618158744522984
 10
6.700074625915168
 20
-2.616423778265304
 10
6.700832618765328
 20
-2.613896641096614
 10
6.753301516095102
 20
-2.438966098396527
 10
6.791554332227556
 20
-2.258307761089156
 10
6.816452810691028
 20
-2.077515454975618
 10
6.838113356054246
 20
-1.920234360323286
 10
6.850762833813099
 20
-1.757828907983747
 10
6.829169266404757
 20
-1.599820130579991
 10
6.80325040518959
 20
-1.410161446822521
 10
6.679399115372701
 20
-1.256508975774234
 10
6.665002051193668
 20
-1.062416494628044
 10
6.660716898697189
 20
-1.00464667210057
 10
6.663969132769356
 20
-0.9466368783672378
 10
6.673459450999026
 20
-0.889526611474998
 10
6.696836183710083
 20
-0.7488515137715283
 10
6.815171135659319
 20
-0.3044500253364656
 10
6.532489605562805
 20
-0.3099224419489949
 97
        0
 97
        0
 75
     2
 76
     1
 98
        0
  0
SPLINE
  5
57
330
51
100
AcDbEntity
  8
Layer 1
370
     0
100
AcDbSpline
210
0.0
220
0.0
230
1.0
 70
    11
 71
     3
 72
    35
 73
    31
 74
     0
 42
0.0000000001
 43
0.0000000001
 12
1.0
 22
0.0
 32
0.0
 13
1.0
 23
0.0
 33
0.0
 40
0.0
 40
0.0
 40
0.0
 40
0.0
 40
1.0
 40
1.0
 40
1.0
 40
2.0
 40
2.0
 40
2.0
 40
3.0
 40
3.0
 40
3.0
 40
4.0
 40
4.0
 40
4.0
 40
5.0
 40
5.0
 40
5.0
 40
6.0
 40
6.0
 40
6.0
 40
7.0
 40
7.0
 40
7.0
 40
8.0
 40
8.0
 40
8.0
 40
9.0
 40
9.0
 40
9.0
 40
10.0
 40
10.0
 40
10.0
 40
10.0
 10
6.670045621794904
 20
-1.145583130932488
 30
0.0
 10
6.550424414333168
 20
-1.191975888266897
 30
0.0
 10
6.442835938509832
 20
-1.169145022729581
 30
0.0
 10
6.383622063661233
 20
-1.147862420412856
 30
0.0
 10
6.379533847274458
 20
-1.146393037033123
 30
0.0
 10
6.377437633811784
 20
-1.142173498030487
 30
0.0
 10
6.378362180096495
 20
-1.137928758355462
 30
0.0
 10
6.383717144611854
 20
-1.113343260892787
 30
0.0
 10
6.387534422899634
 20
-1.088289723614388
 30
0.0
 10
6.389425699975966
 20
-1.062378450162164
 30
0.0
 10
6.391724187337252
 20
-1.029390880642554
 30
0.0
 10
6.391795357758622
 20
-0.9966054604742858
 30
0.0
 10
6.389639300403513
 20
-0.9636638177233264
 30
0.0
 10
6.389234275430411
 20
-0.9574755834723112
 30
0.0
 10
6.395031301761198
 20
-0.9529663012099604
 30
0.0
 10
6.400928414221188
 20
-0.9548852470168011
 30
0.0
 10
6.457986284691619
 20
-0.9734521239479015
 30
0.0
 10
6.550337516769161
 20
-0.9899005604075423
 30
0.0
 10
6.653471931201315
 20
-0.956490822669789
 30
0.0
 10
6.659333230216273
 20
-0.9545920921249672
 30
0.0
 10
6.665145159875445
 20
-0.9589891111063121
 30
0.0
 10
6.664734300876276
 20
-0.9651365657591829
 30
0.0
 10
6.662563993735916
 20
-0.9976096642121622
 30
0.0
 10
6.662619785127904
 20
-1.029926759475598
 30
0.0
 10
6.664902677301629
 20
-1.062446989443764
 30
0.0
 10
6.666778545914871
 20
-1.08737952511745
 30
0.0
 10
6.670361466972422
 20
-1.111672726236077
 30
0.0
 10
6.675458629256504
 20
-1.135519308098208
 30
0.0
 10
6.67635605581526
 20
-1.139717831649941
 30
0.0
 10
6.674048486482079
 20
-1.144030697764388
 30
0.0
 10
6.670045621794904
 20
-1.145583130932488
 30
0.0
  0
HATCH
  5
58
330
51
100
AcDbEntity
  8
Layer 1
 62
    20
420
 15612985
100
AcDbHatch
 10
0.0
 20
0.0
 30
0.0
210
0.0
220
0.0
230
1.0
  2
SOLID
 70
     1
 71
     0
 91
        1
 92
        1
 93
        1
 72
     4
 94
        3
 73
     0
 74
     1
 95
       35
 96
       31
 40
0.0
 40
0.0
 40
0.0
 40
0.0
 40
1.0
 40
1.0
 40
1.0
 40
2.0
 40
2.0
 40
2.0
 40
3.0
 40
3.0
 40
3.0
 40
4.0
 40
4.0
 40
4.0
 40
5.0
 40
5.0
 40
5.0
 40
6.0
 40
6.0
 40
6.0
 40
7.0
 40
7.0
 40
7.0
 40
8.0
 40
8.0
 40
8.0
 40
9.0
 40
9.0
 40
9.0
 40
10.0
 40
10.0
 40
10.0
 40
10.0
 10
6.670045621794904
 20
-1.145583130932488
 10
6.550424414333168
 20
-1.191975888266897
 10
6.442835938509832
 20
-1.169145022729581
 10
6.383622063661233
 20
-1.147862420412856
 10
6.379533847274458
 20
-1.146393037033123
 10
6.377437633811784
 20
-1.142173498030487
 10
6.378362180096495
 20
-1.137928758355462
 10
6.383717144611854
 20
-1.113343260892787
 10
6.387534422899634
 20
-1.088289723614388
 10
6.389425699975966
 20
-1.062378450162164
 10
6.391724187337252
 20
-1.029390880642554
 10
6.391795357758622
 20
-0.9966054604742858
 10
6.389639300403513
 20
-0.9636638177233264
 10
6.389234275430411
 20
-0.9574755834723112
 10
6.395031301761198
 20
-0.9529663012099604
 10
6.400928414221188
 20
-0.9548852470168011
 10
6.457986284691619
 20
-0.9734521239479015
 10
6.550337516769161
 20
-0.9899005604075423
 10
6.653471931201315
 20
-0.956490822669789
 10
6.659333230216273
 20
-0.9545920921249672
 10
6.665145159875445
 20
-0.9589891111063121
 10
6.664734300876276
 20
-0.9651365657591829
 10
6.662563993735916
 20
-0.9976096642121622
 10
6.662619785127904
 20
-1.029926759475598
 10
6.664902677301629
 20
-1.062446989443764
 10
6.666778545914871
 20
-1.08737952511745
 10
6.670361466972422
 20
-1.111672726236077
 10
6.675458629256504
 20
-1.135519308098208
 10
6.67635605581526
 20
-1.139717831649941
 10
6.674048486482079
 20
-1.144030697764388
 10
6.670045621794904
 20
-1.145583130932488
 97
        0
 97
        0
 75
     2
 76
     1
 98
        0
  0
ENDBLK
  5
54
330
51
100
AcDbEntity
  8
0
100
AcDbBlockEnd
  0
ENDSEC
  0
SECTION
  2
ENTITIES
  0
INSERT
  5
42
330
1F
100
AcDbEntity
  8
Layer 1
100
AcDbBlockReference
  2
block 2
 10
0.0
 20
0.0
 30
0.0
  0
ENDSEC
  0
SECTION
  2
OBJECTS
  0
DICTIONARY
  5
C
330
0
100
AcDbDictionary
281
     1
  3
ACAD_GROUP
350
D
  3
ACAD_LAYOUT
350
1A
  3
ACAD_MATERIAL
350
3B
  3
ACAD_MLEADERSTYLE
350
89
  3
ACAD_MLINESTYLE
350
17
  3
ACAD_PLOTSETTINGS
350
19
  3
ACAD_PLOTSTYLENAME
350
E
  3
ACAD_TABLESTYLE
350
88
  3
ACAD_VISUALSTYLE
350
2A
  0
SUN
  5
3F
330
29
100
AcDbSun
 90
        1
290
     0
 63
     7
421
 16777215
 40
1.0
291
     1
 91
  2455826
 92
 54000000
292
     0
 70
     2
 71
   256
280
     1
  0
DICTIONARY
  5
D
102
{ACAD_REACTORS
330
C
102
}
330
C
100
AcDbDictionary
281
     1
  0
DICTIONARY
  5
1A
102
{ACAD_REACTORS
330
C
102
}
330
C
100
AcDbDictionary
281
     1
  3
Layout1
350
1E
  3
Layout2
350
26
  3
Model
350
22
  0
DICTIONARY
  5
3B
102
{ACAD_REACTORS
330
C
102
}
330
C
100
AcDbDictionary
281
     1
  3
ByBlock
350
3D
  3
ByLayer
350
3C
  3
Global
350
3E
  0
DICTIONARY
  5
89
102
{ACAD_REACTORS
330
C
102
}
330
C
100
AcDbDictionary
281
     1
  0
DICTIONARY
  5
17
102
{ACAD_REACTORS
330
C
102
}
330
C
100
AcDbDictionary
281
     1
  3
Standard
350
18
  0
DICTIONARY
  5
19
102
{ACAD_REACTORS
330
C
102
}
330
C
100
AcDbDictionary
281
     1
  0
ACDBDICTIONARYWDFLT
  5
E
102
{ACAD_REACTORS
330
C
102
}
330
C
100
AcDbDictionary
281
     1
  3
Normal
350
F
100
AcDbDictionaryWithDefault
340
F
  0
DICTIONARY
  5
88
102
{ACAD_REACTORS
330
C
102
}
330
C
100
AcDbDictionary
281
     1
  0
DICTIONARY
  5
2A
102
{ACAD_REACTORS
330
C
102
}
330
C
100
AcDbDictionary
281
     1
  3
2dWireframe
350
2F
  3
3D Hidden
350
31
  3
3dWireframe
350
30
  3
Basic
350
32
  3
Brighten
350
36
  3
ColorChange
350
3A
  3
Conceptual
350
34
  3
Dim
350
35
  3
Facepattern
350
39
  3
Flat
350
2B
  3
FlatWithEdges
350
2C
  3
Gouraud
350
2D
  3
GouraudWithEdges
350
2E
  3
Linepattern
350
38
  3
Realistic
350
33
  3
Thicken
350
37
  0
LAYOUT
  5
1E
102
{ACAD_REACTORS
330
1A
102
}
330
1A
100
AcDbPlotSettings
  1

  2
none_device
  4

  6

 40
0.0
 41
0.0
 42
0.0
 43
0.0
 44
0.0
 45
0.0
 46
0.0
 47
0.0
 48
0.0
 49
0.0
140
0.0
141
0.0
142
1.0
143
1.0
 70
   688
 72
     0
 73
     0
 74
     5
  7

 75
    16
 76
     0
 77
     2
 78
   300
147
1.0
148
0.0
149
0.0
100
AcDbLayout
  1
Layout1
 70
     1
 71
     1
 10
0.0
 20
0.0
 11
12.0
 21
9.0
 12
0.0
 22
0.0
 32
0.0
 14
1.000000000000000E+20
 24
1.000000000000000E+20
 34
1.000000000000000E+20
 15
-1.000000000000000E+20
 25
-1.000000000000000E+20
 35
-1.000000000000000E+20
146
0.0
 13
0.0
 23
0.0
 33
0.0
 16
1.0
 26
0.0
 36
0.0
 17
0.0
 27
1.0
 37
0.0
 76
     0
330
1B
  0
LAYOUT
  5
26
102
{ACAD_REACTORS
330
1A
102
}
330
1A
100
AcDbPlotSettings
  1

  2
none_device
  4

  6

 40
0.0
 41
0.0
 42
0.0
 43
0.0
 44
0.0
 45
0.0
 46
0.0
 47
0.0
 48
0.0
 49
0.0
140
0.0
141
0.0
142
1.0
143
1.0
 70
   688
 72
     0
 73
     0
 74
     5
  7

 75
    16
 76
     0
 77
     2
 78
   300
147
1.0
148
0.0
149
0.0
100
AcDbLayout
  1
Layout2
 70
     1
 71
     2
 10
0.0
 20
0.0
 11
0.0
 21
0.0
 12
0.0
 22
0.0
 32
0.0
 14
0.0
 24
0.0
 34
0.0
 15
0.0
 25
0.0
 35
0.0
146
0.0
 13
0.0
 23
0.0
 33
0.0
 16
1.0
 26
0.0
 36
0.0
 17
0.0
 27
1.0
 37
0.0
 76
     0
330
23
  0
LAYOUT
  5
22
102
{ACAD_REACTORS
330
1A
102
}
330
1A
100
AcDbPlotSettings
  1

  2
none_device
  4

  6

 40
0.0
 41
0.0
 42
0.0
 43
0.0
 44
0.0
 45
0.0
 46
0.0
 47
0.0
 48
0.0
 49
0.0
140
0.0
141
0.0
142
1.0
143
1.0
 70
  1712
 72
     0
 73
     0
 74
     0
  7

 75
     0
 76
     0
 77
     2
 78
   300
147
1.0
148
0.0
149
0.0
100
AcDbLayout
  1
Model
 70
     1
 71
     0
 10
0.0
 20
0.0
 11
12.0
 21
9.0
 12
0.0
 22
0.0
 32
0.0
 14
1.000000000000000E+20
 24
1.000000000000000E+20
 34
1.000000000000000E+20
 15
-1.000000000000000E+20
 25
-1.000000000000000E+20
 35
-1.000000000000000E+20
146
0.0
 13
0.0
 23
0.0
 33
0.0
 16
1.0
 26
0.0
 36
0.0
 17
0.0
 27
1.0
 37
0.0
 76
     0
330
1F
331
29
  0
MATERIAL
  5
3D
102
{ACAD_REACTORS
330
3B
102
}
330
3B
100
AcDbMaterial
  1
ByBlock
 72
     1
 94
      127
  0
MATERIAL
  5
3C
102
{ACAD_REACTORS
330
3B
102
}
330
3B
100
AcDbMaterial
  1
ByLayer
 72
     1
 94
      127
  0
MATERIAL
  5
3E
102
{ACAD_REACTORS
330
3B
102
}
330
3B
100
AcDbMaterial
  1
Global
 72
     1
 94
      127
  0
MLINESTYLE
  5
18
102
{ACAD_REACTORS
330
17
102
}
330
17
100
AcDbMlineStyle
  2
Standard
 70
     0
  3

 62
   256
 51
90.0
 52
90.0
 71
     2
 49
0.5
 62
   256
  6
BYLAYER
 49
-0.5
 62
   256
  6
BYLAYER
  0
ACDBPLACEHOLDER
  5
F
102
{ACAD_REACTORS
330
E
102
}
330
E
  0
VISUALSTYLE
  5
2F
102
{ACAD_REACTORS
330
2A
102
}
330
2A
100
AcDbVisualStyle
  2
2dWireframe
 70
     4
177
     2
291
     0
 71
     0
176
     1
 72
     2
176
     1
 73
     0
176
     1
 90
        0
176
     1
 40
-0.6
176
     1
 41
-30.0
176
     1
 62
     5
 63
     7
421
 16777215
176
     1
 74
     1
176
     1
 91
        4
176
     1
 64
     7
176
     1
 65
   257
176
     1
 75
     1
176
     1
175
     1
176
     1
 42
1.0
176
     1
 92
        0
176
     1
 66
   257
176
     1
 43
1.0
176
     1
 76
     1
176
     1
 77
     6
176
     1
 78
     2
176
     1
 67
     7
176
     1
 79
     5
176
     1
170
     0
176
     1
171
     0
176
     1
290
     0
176
     1
 93
        1
176
     1
 44
0.0
176
     1
173
     0
176
     1
  0
VISUALSTYLE
  5
31
102
{ACAD_REACTORS
330
2A
102
}
330
2A
100
AcDbVisualStyle
  2
3D Hidden
 70
     6
177
     2
291
     0
 71
     1
176
     1
 72
     2
176
     1
 73
     2
176
     1
 90
        0
176
     1
 40
-0.6
176
     1
 41
-30.0
176
     1
 62
     5
 63
     7
421
 16777215
176
     1
 74
     2
176
     1
 91
        2
176
     1
 64
     7
176
     1
 65
   257
176
     1
 75
     2
176
     1
175
     1
176
     1
 42
40.0
176
     1
 92
        0
176
     1
 66
   257
176
     1
 43
1.0
176
     1
 76
     1
176
     1
 77
     6
176
     1
 78
     2
176
     1
 67
     7
176
     1
 79
     3
176
     1
170
     0
176
     1
171
     0
176
     1
290
     0
176
     1
 93
        1
176
     1
 44
0.0
176
     1
173
     0
176
     1
  0
VISUALSTYLE
  5
30
102
{ACAD_REACTORS
330
2A
102
}
330
2A
100
AcDbVisualStyle
  2
3dWireframe
 70
     5
177
     2
291
     0
 71
     0
176
     1
 72
     2
176
     1
 73
     0
176
     1
 90
        0
176
     1
 40
-0.6
176
     1
 41
-30.0
176
     1
 62
     5
 63
     7
421
 16777215
176
     1
 74
     1
176
     1
 91
        4
176
     1
 64
     7
176
     1
 65
   257
176
     1
 75
     1
176
     1
175
     1
176
     1
 42
1.0
176
     1
 92
        0
176
     1
 66
   257
176
     1
 43
1.0
176
     1
 76
     1
176
     1
 77
     6
176
     1
 78
     2
176
     1
 67
     7
176
     1
 79
     5
176
     1
170
     0
176
     1
171
     0
176
     1
290
     0
176
     1
 93
        1
176
     1
 44
0.0
176
     1
173
     0
176
     1
  0
VISUALSTYLE
  5
32
102
{ACAD_REACTORS
330
2A
102
}
330
2A
100
AcDbVisualStyle
  2
Basic
 70
     7
177
     2
291
     1
 71
     1
176
     1
 72
     0
176
     1
 73
     1
176
     1
 90
        0
176
     1
 40
-0.6
176
     1
 41
-30.0
176
     1
 62
     5
 63
     7
421
 16777215
176
     1
 74
     0
176
     1
 91
        4
176
     1
 64
     7
176
     1
 65
   257
176
     1
 75
     1
176
     1
175
     1
176
     1
 42
1.0
176
     1
 92
        8
176
     1
 66
     7
176
     1
 43
1.0
176
     1
 76
     1
176
     1
 77
     6
176
     1
 78
     2
176
     1
 67
     7
176
     1
 79
     5
176
     1
170
     0
176
     1
171
     0
176
     1
290
     0
176
     1
 93
        1
176
     1
 44
0.0
176
     1
173
     0
176
     1
  0
VISUALSTYLE
  5
36
102
{ACAD_REACTORS
330
2A
102
}
330
2A
100
AcDbVisualStyle
  2
Brighten
 70
    12
177
     2
291
     1
 71
     2
176
     1
 72
     2
176
     1
 73
     0
176
     1
 90
        0
176
     1
 40
-0.6
176
     1
 41
-30.0
176
     1
 62
     5
 63
     7
421
 16777215
176
     1
 74
     1
176
     1
 91
        4
176
     1
 64
     7
176
     1
 65
   257
176
     1
 75
     1
176
     1
175
     1
176
     1
 42
1.0
176
     1
 92
        8
176
     1
 66
     7
176
     1
 43
1.0
176
     1
 76
     1
176
     1
 77
     6
176
     1
 78
     2
176
     1
 67
     7
176
     1
 79
     5
176
     1
170
     0
176
     1
171
     0
176
     1
290
     0
176
     1
 93
        1
176
     1
 44
50.0
176
     1
173
     0
176
     1
  0
VISUALSTYLE
  5
3A
102
{ACAD_REACTORS
330
2A
102
}
330
2A
100
AcDbVisualStyle
  2
ColorChange
 70
    16
177
     2
291
     1
 71
     2
176
     1
 72
     2
176
     1
 73
     3
176
     1
 90
        0
176
     1
 40
-0.6
176
     1
 41
-30.0
176
     1
 62
     5
 63
     8
421
  8421504
176
     1
 74
     1
176
     1
 91
        4
176
     1
 64
     7
176
     1
 65
   257
176
     1
 75
     1
176
     1
175
     1
176
     1
 42
1.0
176
     1
 92
        8
176
     1
 66
     8
424
  8421504
176
     1
 43
1.0
176
     1
 76
     1
176
     1
 77
     6
176
     1
 78
     2
176
     1
 67
     7
176
     1
 79
     5
176
     1
170
     0
176
     1
171
     0
176
     1
290
     0
176
     1
 93
        1
176
     1
 44
0.0
176
     1
173
     0
176
     1
  0
VISUALSTYLE
  5
34
102
{ACAD_REACTORS
330
2A
102
}
330
2A
100
AcDbVisualStyle
  2
Conceptual
 70
     9
177
     2
291
     0
 71
     3
176
     1
 72
     2
176
     1
 73
     0
176
     1
 90
        0
176
     1
 40
-0.6
176
     1
 41
-30.0
176
     1
 62
     5
 63
     7
421
 16777215
176
     1
 74
     2
176
     1
 91
        2
176
     1
 64
     7
176
     1
 65
   257
176
     1
 75
     1
176
     1
175
     1
176
     1
 42
40.0
176
     1
 92
        8
176
     1
 66
     7
176
     1
 43
1.0
176
     1
 76
     1
176
     1
 77
     6
176
     1
 78
     2
176
     1
 67
     7
176
     1
 79
     3
176
     1
170
     0
176
     1
171
     0
176
     1
290
     0
176
     1
 93
        1
176
     1
 44
0.0
176
     1
173
     0
176
     1
  0
VISUALSTYLE
  5
35
102
{ACAD_REACTORS
330
2A
102
}
330
2A
100
AcDbVisualStyle
  2
Dim
 70
    11
177
     2
291
     1
 71
     2
176
     1
 72
     2
176
     1
 73
     0
176
     1
 90
        0
176
     1
 40
-0.6
176
     1
 41
-30.0
176
     1
 62
     5
 63
     7
421
 16777215
176
     1
 74
     1
176
     1
 91
        4
176
     1
 64
     7
176
     1
 65
   257
176
     1
 75
     1
176
     1
175
     1
176
     1
 42
1.0
176
     1
 92
        8
176
     1
 66
     7
176
     1
 43
1.0
176
     1
 76
     1
176
     1
 77
     6
176
     1
 78
     2
176
     1
 67
     7
176
     1
 79
     5
176
     1
170
     0
176
     1
171
     0
176
     1
290
     0
176
     1
 93
        1
176
     1
 44
-50.0
176
     1
173
     0
176
     1
  0
VISUALSTYLE
  5
39
102
{ACAD_REACTORS
330
2A
102
}
330
2A
100
AcDbVisualStyle
  2
Facepattern
 70
    15
177
     2
291
     1
 71
     2
176
     1
 72
     2
176
     1
 73
     0
176
     1
 90
        0
176
     1
 40
-0.6
176
     1
 41
-30.0
176
     1
 62
     5
 63
     7
421
 16777215
176
     1
 74
     1
176
     1
 91
        4
176
     1
 64
     7
176
     1
 65
   257
176
     1
 75
     1
176
     1
175
     1
176
     1
 42
1.0
176
     1
 92
        8
176
     1
 66
     7
176
     1
 43
1.0
176
     1
 76
     1
176
     1
 77
     6
176
     1
 78
     2
176
     1
 67
     7
176
     1
 79
     5
176
     1
170
     0
176
     1
171
     0
176
     1
290
     0
176
     1
 93
        1
176
     1
 44
0.0
176
     1
173
     0
176
     1
  0
VISUALSTYLE
  5
2B
102
{ACAD_REACTORS
330
2A
102
}
330
2A
100
AcDbVisualStyle
  2
Flat
 70
     0
177
     2
291
     1
 71
     2
176
     1
 72
     1
176
     1
 73
     1
176
     1
 90
        2
176
     1
 40
-0.6
176
     1
 41
30.0
176
     1
 62
     5
 63
     7
421
 16777215
176
     1
 74
     0
176
     1
 91
        4
176
     1
 64
     7
176
     1
 65
   257
176
     1
 75
     1
176
     1
175
     1
176
     1
 42
1.0
176
     1
 92
        8
176
     1
 66
     7
176
     1
 43
1.0
176
     1
 76
     1
176
     1
 77
     6
176
     1
 78
     2
176
     1
 67
     7
176
     1
 79
     5
176
     1
170
     0
176
     1
171
     0
176
     1
290
     0
176
     1
 93
       13
176
     1
 44
0.0
176
     1
173
     0
176
     1
  0
VISUALSTYLE
  5
2C
102
{ACAD_REACTORS
330
2A
102
}
330
2A
100
AcDbVisualStyle
  2
FlatWithEdges
 70
     1
177
     2
291
     1
 71
     2
176
     1
 72
     1
176
     1
 73
     1
176
     1
 90
        2
176
     1
 40
-0.6
176
     1
 41
30.0
176
     1
 62
     5
 63
     7
421
 16777215
176
     1
 74
     1
176
     1
 91
        4
176
     1
 64
     7
176
     1
 65
   257
176
     1
 75
     1
176
     1
175
     1
176
     1
 42
1.0
176
     1
 92
        0
176
     1
 66
   257
176
     1
 43
1.0
176
     1
 76
     1
176
     1
 77
     6
176
     1
 78
     2
176
     1
 67
     7
176
     1
 79
     5
176
     1
170
     0
176
     1
171
     0
176
     1
290
     0
176
     1
 93
       13
176
     1
 44
0.0
176
     1
173
     0
176
     1
  0
VISUALSTYLE
  5
2D
102
{ACAD_REACTORS
330
2A
102
}
330
2A
100
AcDbVisualStyle
  2
Gouraud
 70
     2
177
     2
291
     1
 71
     2
176
     1
 72
     2
176
     1
 73
     1
176
     1
 90
        2
176
     1
 40
-0.6
176
     1
 41
30.0
176
     1
 62
     5
 63
     7
421
 16777215
176
     1
 74
     0
176
     1
 91
        4
176
     1
 64
     7
176
     1
 65
   257
176
     1
 75
     1
176
     1
175
     1
176
     1
 42
1.0
176
     1
 92
        0
176
     1
 66
     7
176
     1
 43
1.0
176
     1
 76
     1
176
     1
 77
     6
176
     1
 78
     2
176
     1
 67
     7
176
     1
 79
     5
176
     1
170
     0
176
     1
171
     0
176
     1
290
     0
176
     1
 93
       13
176
     1
 44
0.0
176
     1
173
     0
176
     1
  0
VISUALSTYLE
  5
2E
102
{ACAD_REACTORS
330
2A
102
}
330
2A
100
AcDbVisualStyle
  2
GouraudWithEdges
 70
     3
177
     2
291
     1
 71
     2
176
     1
 72
     2
176
     1
 73
     1
176
     1
 90
        2
176
     1
 40
-0.6
176
     1
 41
30.0
176
     1
 62
     5
 63
     7
421
 16777215
176
     1
 74
     1
176
     1
 91
        4
176
     1
 64
     7
176
     1
 65
   257
176
     1
 75
     1
176
     1
175
     1
176
     1
 42
1.0
176
     1
 92
        0
176
     1
 66
   257
176
     1
 43
1.0
176
     1
 76
     1
176
     1
 77
     6
176
     1
 78
     2
176
     1
 67
     7
176
     1
 79
     5
176
     1
170
     0
176
     1
171
     0
176
     1
290
     0
176
     1
 93
       13
176
     1
 44
0.0
176
     1
173
     0
176
     1
  0
VISUALSTYLE
  5
38
102
{ACAD_REACTORS
330
2A
102
}
330
2A
100
AcDbVisualStyle
  2
Linepattern
 70
    14
177
     2
291
     1
 71
     2
176
     1
 72
     2
176
     1
 73
     0
176
     1
 90
        0
176
     1
 40
-0.6
176
     1
 41
-30.0
176
     1
 62
     5
 63
     7
421
 16777215
176
     1
 74
     1
176
     1
 91
        4
176
     1
 64
     7
176
     1
 65
   257
176
     1
 75
     7
176
     1
175
     7
176
     1
 42
1.0
176
     1
 92
        8
176
     1
 66
     7
176
     1
 43
1.0
176
     1
 76
     1
176
     1
 77
     6
176
     1
 78
     2
176
     1
 67
     7
176
     1
 79
     5
176
     1
170
     0
176
     1
171
     0
176
     1
290
     0
176
     1
 93
        1
176
     1
 44
0.0
176
     1
173
     0
176
     1
  0
VISUALSTYLE
  5
33
102
{ACAD_REACTORS
330
2A
102
}
330
2A
100
AcDbVisualStyle
  2
Realistic
 70
     8
177
     2
291
     0
 71
     2
176
     1
 72
     2
176
     1
 73
     0
176
     1
 90
        0
176
     1
 40
-0.6
176
     1
 41
-30.0
176
     1
 62
     5
 63
     7
421
 16777215
176
     1
 74
     1
176
     1
 91
        0
176
     1
 64
     7
176
     1
 65
   257
176
     1
 75
     1
176
     1
175
     1
176
     1
 42
1.0
176
     1
 92
        8
176
     1
 66
     8
424
  7895160
176
     1
 43
1.0
176
     1
 76
     1
176
     1
 77
     6
176
     1
 78
     2
176
     1
 67
     7
176
     1
 79
     5
176
     1
170
     0
176
     1
171
     0
176
     1
290
     0
176
     1
 93
       13
176
     1
 44
0.0
176
     1
173
     0
176
     1
  0
VISUALSTYLE
  5
37
102
{ACAD_REACTORS
330
2A
102
}
330
2A
100
AcDbVisualStyle
  2
Thicken
 70
    13
177
     2
291
     1
 71
     2
176
     1
 72
     2
176
     1
 73
     0
176
     1
 90
        0
176
     1
 40
-0.6
176
     1
 41
-30.0
176
     1
 62
     5
 63
     7
421
 16777215
176
     1
 74
     1
176
     1
 91
        4
176
     1
 64
     7
176
     1
 65
   257
176
     1
 75
     1
176
     1
175
     1
176
     1
 42
1.0
176
     1
 92
       12
176
     1
 66
     7
176
     1
 43
1.0
176
     1
 76
     1
176
     1
 77
     6
176
     1
 78
     2
176
     1
 67
     7
176
     1
 79
     5
176
     1
170
     0
176
     1
171
     0
176
     1
290
     0
176
     1
 93
        1
176
     1
 44
0.0
176
     1
173
     0
176
     1
  0
ENDSEC
  0
EOF
